<?xml version="1.0" encoding="utf-8"?><svg xmlns="http://www.w3.org/2000/svg" version="1.1" width="800" height="800" viewBox="0 0 20 20">
<title>Laboratoire</title>
<desc><![CDATA[{"recipe":"App\\Form\\ProceduralMap\\OneBlockMap","form":{"side":20,"seed":80981,"iteration":16,"capping":6,"divide":4,"blurry":false,"one_more":false,"npc":0,"openPopUp":null,"place":null,"writeMap":null}}]]></desc>
<rect x="0" y="0" width="20" height="20" fill="white"/><g class="building"><rect x="2" y="11" width="1" height="1" fill="hsl(0, 0%, 90%)"/><rect x="3" y="9" width="1" height="1" fill="hsl(0, 0%, 90%)"/><rect x="3" y="10" width="1" height="1" fill="hsl(0, 0%, 90%)"/><rect x="3" y="11" width="1" height="1" fill="hsl(0, 0%, 90%)"/><rect x="3" y="12" width="1" height="1" fill="hsl(0, 0%, 90%)"/><rect x="4" y="8" width="1" height="1" fill="hsl(0, 0%, 90%)"/><rect x="4" y="9" width="1" height="1" fill="hsl(0, 0%, 90%)"/><rect x="4" y="10" width="1" height="1" fill="hsl(0, 0%, 90%)"/><rect x="4" y="11" width="1" height="1" fill="hsl(0, 0%, 90%)"/><rect x="4" y="12" width="1" height="1" fill="hsl(0, 0%, 90%)"/><rect x="4" y="13" width="1" height="1" fill="hsl(0, 0%, 90%)"/><rect x="4" y="15" width="1" height="1" fill="hsl(0, 0%, 90%)"/><rect x="5" y="6" width="1" height="1" fill="hsl(0, 0%, 90%)"/><rect x="5" y="7" width="1" height="1" fill="hsl(0, 0%, 90%)"/><rect x="5" y="8" width="1" height="1" fill="hsl(0, 0%, 90%)"/><rect x="5" y="9" width="1" height="1" fill="hsl(0, 0%, 90%)"/><rect x="5" y="10" width="1" height="1" fill="hsl(0, 0%, 90%)"/><rect x="5" y="11" width="1" height="1" fill="hsl(0, 0%, 90%)"/><rect x="5" y="12" width="1" height="1" fill="hsl(0, 0%, 90%)"/><rect x="5" y="13" width="1" height="1" fill="hsl(0, 0%, 90%)"/><rect x="5" y="14" width="1" height="1" fill="hsl(0, 0%, 90%)"/><rect x="5" y="15" width="1" height="1" fill="hsl(0, 0%, 90%)"/><rect x="5" y="16" width="1" height="1" fill="hsl(0, 0%, 90%)"/><rect x="6" y="5" width="1" height="1" fill="hsl(0, 0%, 90%)"/><rect x="6" y="6" width="1" height="1" fill="hsl(0, 0%, 90%)"/><rect x="6" y="7" width="1" height="1" fill="hsl(0, 0%, 90%)"/><rect x="6" y="8" width="1" height="1" fill="hsl(0, 0%, 85%)"/><rect x="6" y="9" width="1" height="1" fill="hsl(0, 0%, 90%)"/><rect x="6" y="10" width="1" height="1" fill="hsl(0, 0%, 85%)"/><rect x="6" y="11" width="1" height="1" fill="hsl(0, 0%, 90%)"/><rect x="6" y="12" width="1" height="1" fill="hsl(0, 0%, 90%)"/><rect x="6" y="13" width="1" height="1" fill="hsl(0, 0%, 90%)"/><rect x="6" y="14" width="1" height="1" fill="hsl(0, 0%, 85%)"/><rect x="6" y="15" width="1" height="1" fill="hsl(0, 0%, 90%)"/><rect x="7" y="3" width="1" height="1" fill="hsl(0, 0%, 90%)"/><rect x="7" y="4" width="1" height="1" fill="hsl(0, 0%, 90%)"/><rect x="7" y="5" width="1" height="1" fill="hsl(0, 0%, 90%)"/><rect x="7" y="6" width="1" height="1" fill="hsl(0, 0%, 90%)"/><rect x="7" y="7" width="1" height="1" fill="hsl(0, 0%, 85%)"/><rect x="7" y="8" width="1" height="1" fill="hsl(0, 0%, 85%)"/><rect x="7" y="9" width="1" height="1" fill="hsl(0, 0%, 85%)"/><rect x="7" y="10" width="1" height="1" fill="hsl(0, 0%, 85%)"/><rect x="7" y="11" width="1" height="1" fill="hsl(0, 0%, 85%)"/><rect x="7" y="12" width="1" height="1" fill="hsl(0, 0%, 85%)"/><rect x="7" y="13" width="1" height="1" fill="hsl(0, 0%, 90%)"/><rect x="7" y="14" width="1" height="1" fill="hsl(0, 0%, 90%)"/><rect x="7" y="15" width="1" height="1" fill="hsl(0, 0%, 90%)"/><rect x="8" y="3" width="1" height="1" fill="hsl(0, 0%, 90%)"/><rect x="8" y="4" width="1" height="1" fill="hsl(0, 0%, 90%)"/><rect x="8" y="5" width="1" height="1" fill="hsl(0, 0%, 85%)"/><rect x="8" y="6" width="1" height="1" fill="hsl(0, 0%, 85%)"/><rect x="8" y="7" width="1" height="1" fill="hsl(0, 0%, 90%)"/><rect x="8" y="8" width="1" height="1" fill="hsl(0, 0%, 90%)"/><rect x="8" y="9" width="1" height="1" fill="hsl(0, 0%, 85%)"/><rect x="8" y="10" width="1" height="1" fill="hsl(0, 0%, 85%)"/><rect x="8" y="11" width="1" height="1" fill="hsl(0, 0%, 90%)"/><rect x="8" y="12" width="1" height="1" fill="hsl(0, 0%, 85%)"/><rect x="8" y="13" width="1" height="1" fill="hsl(0, 0%, 85%)"/><rect x="8" y="14" width="1" height="1" fill="hsl(0, 0%, 90%)"/><rect x="8" y="15" width="1" height="1" fill="hsl(0, 0%, 90%)"/><rect x="9" y="3" width="1" height="1" fill="hsl(0, 0%, 90%)"/><rect x="9" y="4" width="1" height="1" fill="hsl(0, 0%, 90%)"/><rect x="9" y="5" width="1" height="1" fill="hsl(0, 0%, 90%)"/><rect x="9" y="6" width="1" height="1" fill="hsl(0, 0%, 90%)"/><rect x="9" y="7" width="1" height="1" fill="hsl(0, 0%, 85%)"/><rect x="9" y="8" width="1" height="1" fill="hsl(0, 0%, 85%)"/><rect x="9" y="9" width="1" height="1" fill="hsl(0, 0%, 85%)"/><rect x="9" y="10" width="1" height="1" fill="hsl(0, 0%, 90%)"/><rect x="9" y="11" width="1" height="1" fill="hsl(0, 0%, 85%)"/><rect x="9" y="12" width="1" height="1" fill="hsl(0, 0%, 85%)"/><rect x="9" y="13" width="1" height="1" fill="hsl(0, 0%, 85%)"/><rect x="9" y="14" width="1" height="1" fill="hsl(0, 0%, 85%)"/><rect x="9" y="15" width="1" height="1" fill="hsl(0, 0%, 90%)"/><rect x="10" y="4" width="1" height="1" fill="hsl(0, 0%, 90%)"/><rect x="10" y="5" width="1" height="1" fill="hsl(0, 0%, 90%)"/><rect x="10" y="6" width="1" height="1" fill="hsl(0, 0%, 90%)"/><rect x="10" y="7" width="1" height="1" fill="hsl(0, 0%, 85%)"/><rect x="10" y="8" width="1" height="1" fill="hsl(0, 0%, 85%)"/><rect x="10" y="9" width="1" height="1" fill="hsl(0, 0%, 85%)"/><rect x="10" y="10" width="1" height="1" fill="hsl(0, 0%, 85%)"/><rect x="10" y="11" width="1" height="1" fill="hsl(0, 0%, 85%)"/><rect x="10" y="12" width="1" height="1" fill="hsl(0, 0%, 90%)"/><rect x="10" y="13" width="1" height="1" fill="hsl(0, 0%, 90%)"/><rect x="10" y="14" width="1" height="1" fill="hsl(0, 0%, 90%)"/><rect x="10" y="15" width="1" height="1" fill="hsl(0, 0%, 90%)"/><rect x="11" y="5" width="1" height="1" fill="hsl(0, 0%, 90%)"/><rect x="11" y="6" width="1" height="1" fill="hsl(0, 0%, 90%)"/><rect x="11" y="7" width="1" height="1" fill="hsl(0, 0%, 85%)"/><rect x="11" y="8" width="1" height="1" fill="hsl(0, 0%, 85%)"/><rect x="11" y="9" width="1" height="1" fill="hsl(0, 0%, 85%)"/><rect x="11" y="10" width="1" height="1" fill="hsl(0, 0%, 85%)"/><rect x="11" y="11" width="1" height="1" fill="hsl(0, 0%, 85%)"/><rect x="11" y="12" width="1" height="1" fill="hsl(0, 0%, 85%)"/><rect x="11" y="13" width="1" height="1" fill="hsl(0, 0%, 85%)"/><rect x="11" y="14" width="1" height="1" fill="hsl(0, 0%, 90%)"/><rect x="11" y="15" width="1" height="1" fill="hsl(0, 0%, 90%)"/><rect x="12" y="6" width="1" height="1" fill="hsl(0, 0%, 90%)"/><rect x="12" y="7" width="1" height="1" fill="hsl(0, 0%, 90%)"/><rect x="12" y="8" width="1" height="1" fill="hsl(0, 0%, 85%)"/><rect x="12" y="9" width="1" height="1" fill="hsl(0, 0%, 85%)"/><rect x="12" y="10" width="1" height="1" fill="hsl(0, 0%, 85%)"/><rect x="12" y="11" width="1" height="1" fill="hsl(0, 0%, 90%)"/><rect x="12" y="12" width="1" height="1" fill="hsl(0, 0%, 85%)"/><rect x="12" y="13" width="1" height="1" fill="hsl(0, 0%, 90%)"/><rect x="12" y="14" width="1" height="1" fill="hsl(0, 0%, 90%)"/><rect x="13" y="6" width="1" height="1" fill="hsl(0, 0%, 90%)"/><rect x="13" y="7" width="1" height="1" fill="hsl(0, 0%, 90%)"/><rect x="13" y="8" width="1" height="1" fill="hsl(0, 0%, 85%)"/><rect x="13" y="9" width="1" height="1" fill="hsl(0, 0%, 85%)"/><rect x="13" y="10" width="1" height="1" fill="hsl(0, 0%, 90%)"/><rect x="13" y="11" width="1" height="1" fill="hsl(0, 0%, 90%)"/><rect x="13" y="12" width="1" height="1" fill="hsl(0, 0%, 85%)"/><rect x="13" y="13" width="1" height="1" fill="hsl(0, 0%, 90%)"/><rect x="14" y="7" width="1" height="1" fill="hsl(0, 0%, 90%)"/><rect x="14" y="8" width="1" height="1" fill="hsl(0, 0%, 90%)"/><rect x="14" y="9" width="1" height="1" fill="hsl(0, 0%, 90%)"/><rect x="14" y="10" width="1" height="1" fill="hsl(0, 0%, 85%)"/><rect x="14" y="11" width="1" height="1" fill="hsl(0, 0%, 85%)"/><rect x="14" y="12" width="1" height="1" fill="hsl(0, 0%, 90%)"/><rect x="14" y="13" width="1" height="1" fill="hsl(0, 0%, 90%)"/><rect x="15" y="7" width="1" height="1" fill="hsl(0, 0%, 90%)"/><rect x="15" y="8" width="1" height="1" fill="hsl(0, 0%, 90%)"/><rect x="15" y="9" width="1" height="1" fill="hsl(0, 0%, 90%)"/><rect x="15" y="10" width="1" height="1" fill="hsl(0, 0%, 90%)"/><rect x="15" y="11" width="1" height="1" fill="hsl(0, 0%, 90%)"/><rect x="15" y="12" width="1" height="1" fill="hsl(0, 0%, 90%)"/><rect x="16" y="7" width="1" height="1" fill="hsl(0, 0%, 90%)"/><rect x="16" y="9" width="1" height="1" fill="hsl(0, 0%, 90%)"/><rect x="16" y="10" width="1" height="1" fill="hsl(0, 0%, 90%)"/><rect x="16" y="12" width="1" height="1" fill="hsl(0, 0%, 90%)"/><path style="stroke: black; stroke-width: 0.1" d=" M 2 11 h 1 M 2 11 v 1 M 2 12 h 1 M 3 9 h 1 M 3 9 v 1 M 3 10 v 1 M 3 12 v 1 M 3 13 h 1 M 4 8 h 1 M 4 8 v 1 M 4 13 v 1 M 4 14 h 1 M 4 15 h 1 M 4 15 v 1 M 4 16 h 1 M 5 6 h 1 M 5 6 v 1 M 5 7 v 1 M 5 14 v 1 M 5 16 v 1 M 5 17 h 1 M 6 5 h 1 M 6 5 v 1 M 6 8 h 1 M 6 8 v 1 M 6 9 h 1 M 6 10 h 1 M 6 10 v 1 M 6 11 h 1 M 6 14 h 1 M 6 14 v 1 M 6 15 h 1 M 6 16 h 1 M 6 16 v 1 M 7 3 h 1 M 7 3 v 1 M 7 4 v 1 M 7 7 h 1 M 7 7 v 1 M 7 9 v 1 M 7 11 v 1 M 7 12 v 1 M 7 13 h 1 M 7 14 v 1 M 7 16 h 1 M 8 3 h 1 M 8 5 h 1 M 8 5 v 1 M 8 6 v 1 M 8 7 h 1 M 8 7 v 1 M 8 8 v 1 M 8 9 h 1 M 8 11 h 1 M 8 11 v 1 M 8 12 h 1 M 8 13 v 1 M 8 14 h 1 M 8 16 h 1 M 9 3 h 1 M 9 5 v 1 M 9 6 v 1 M 9 7 h 1 M 9 7 v 1 M 9 8 v 1 M 9 10 h 1 M 9 10 v 1 M 9 11 h 1 M 9 11 v 1 M 9 14 v 1 M 9 15 h 1 M 9 16 h 1 M 10 3 v 1 M 10 4 h 1 M 10 7 h 1 M 10 10 v 1 M 10 12 h 1 M 10 12 v 1 M 10 13 v 1 M 10 14 v 1 M 10 16 h 1 M 11 4 v 1 M 11 5 h 1 M 11 7 h 1 M 11 12 v 1 M 11 13 v 1 M 11 14 h 1 M 11 16 h 1 M 12 5 v 1 M 12 6 h 1 M 12 7 v 1 M 12 8 h 1 M 12 11 h 1 M 12 11 v 1 M 12 12 h 1 M 12 13 h 1 M 12 13 v 1 M 12 15 h 1 M 12 15 v 1 M 13 6 h 1 M 13 8 h 1 M 13 10 h 1 M 13 10 v 1 M 13 12 h 1 M 13 13 h 1 M 13 14 h 1 M 13 14 v 1 M 14 6 v 1 M 14 7 h 1 M 14 8 v 1 M 14 9 v 1 M 14 10 h 1 M 14 10 v 1 M 14 11 v 1 M 14 12 h 1 M 14 12 v 1 M 14 14 h 1 M 15 7 h 1 M 15 10 v 1 M 15 11 v 1 M 15 13 h 1 M 15 13 v 1 M 16 7 h 1 M 16 8 h 1 M 16 8 v 1 M 16 9 h 1 M 16 11 h 1 M 16 11 v 1 M 16 12 h 1 M 16 13 h 1 M 17 7 v 1 M 17 9 v 1 M 17 10 v 1 M 17 12 v 1"/></g><path style="stroke: red; stroke-width: 0.15" d=" M 2 11.25 v 0.5 M 6 8.25 v 0.5 M 6 14.25 v 0.5 M 6.25 14 h 0.5 M 8.25 5 h 0.5 M 8.25 7 h 0.5 M 8.25 11 h 0.5 M 9.25 3 h 0.5 M 9 5.25 v 0.5 M 9 7.25 v 0.5 M 9.25 10 h 0.5 M 9 11.25 v 0.5 M 10.25 7 h 0.5 M 10 10.25 v 0.5 M 13.25 10 h 0.5 M 14 10.25 v 0.5 M 14.25 10 h 0.5 M 15 10.25 v 0.5"/><g fill="darkkhaki"></g>            <defs>
                <pattern id="hexmap" x="0" y="0" width="3" height="1.7320508075689" patternUnits="userSpaceOnUse">
                    <g style="stroke: black; stroke-width: 0.05; opacity: 30%">
                        <path d="M 0 0 h 1" transform="translate(1,0) rotate(60)"/>
                        <path d="M 0 0 h 1" transform="translate(1,1.7320508075689) rotate(-60)"/>
                        <path d="M 1.5 0.86602540378444 h 1 M 0 0 h 1" />
                        <path d="M 0 0 h 1" transform="translate(2.5,0.86602540378444) rotate(-60)"/>
                        <path d="M 0 0 h 1" transform="translate(2.5,0.86602540378444) rotate(60)"/>
                    </g>
                </pattern>
            </defs>
        
            <rect fill="url(#hexmap)" stroke="none" width="80" height="80" transform="scale(0.25,0.25)"/><g fill="black" class="fog-of-war" data-level="2"><rect x="6" y="8" width="1" height="1"/><rect x="7" y="8" width="1" height="1"/><rect x="7" y="9" width="1" height="1"/><rect x="8" y="9" width="1" height="1"/><rect x="9" y="9" width="1" height="1"/><rect x="10" y="9" width="1" height="1"/><rect x="11" y="9" width="1" height="1"/><rect x="12" y="9" width="1" height="1"/><rect x="13" y="9" width="1" height="1"/><rect x="13" y="8" width="1" height="1"/><rect x="12" y="8" width="1" height="1"/><rect x="11" y="8" width="1" height="1"/><rect x="10" y="8" width="1" height="1"/><rect x="9" y="8" width="1" height="1"/><rect x="9" y="7" width="1" height="1"/><rect x="10" y="7" width="1" height="1"/><rect x="11" y="7" width="1" height="1"/><rect x="12" y="10" width="1" height="1"/><rect x="11" y="10" width="1" height="1"/><rect x="10" y="10" width="1" height="1"/><rect x="10" y="11" width="1" height="1"/><rect x="11" y="11" width="1" height="1"/><rect x="11" y="12" width="1" height="1"/><rect x="12" y="12" width="1" height="1"/><rect x="13" y="12" width="1" height="1"/><rect x="11" y="13" width="1" height="1"/><rect x="9" y="11" width="1" height="1"/><rect x="9" y="12" width="1" height="1"/><rect x="8" y="12" width="1" height="1"/><rect x="7" y="12" width="1" height="1"/><rect x="7" y="11" width="1" height="1"/><rect x="7" y="10" width="1" height="1"/><rect x="8" y="10" width="1" height="1"/><rect x="6" y="10" width="1" height="1"/><rect x="8" y="13" width="1" height="1"/><rect x="9" y="13" width="1" height="1"/><rect x="9" y="14" width="1" height="1"/><rect x="7" y="7" width="1" height="1"/></g><g fill="black" class="fog-of-war" data-level="2"><rect x="6" y="14" width="1" height="1"/></g><g fill="black" class="fog-of-war" data-level="2"><rect x="8" y="5" width="1" height="1"/><rect x="8" y="6" width="1" height="1"/></g><g fill="black" class="fog-of-war" data-level="2"><rect x="14" y="10" width="1" height="1"/><rect x="14" y="11" width="1" height="1"/></g><g fill="black" class="fog-of-war" data-level="1"><rect x="2" y="11" width="1" height="1"/><rect x="3" y="11" width="1" height="1"/><rect x="4" y="11" width="1" height="1"/><rect x="5" y="11" width="1" height="1"/><rect x="6" y="11" width="1" height="1"/><rect x="6" y="12" width="1" height="1"/><rect x="5" y="12" width="1" height="1"/><rect x="4" y="12" width="1" height="1"/><rect x="3" y="12" width="1" height="1"/><rect x="4" y="13" width="1" height="1"/><rect x="5" y="13" width="1" height="1"/><rect x="6" y="13" width="1" height="1"/><rect x="7" y="13" width="1" height="1"/><rect x="7" y="14" width="1" height="1"/><rect x="8" y="14" width="1" height="1"/><rect x="8" y="15" width="1" height="1"/><rect x="9" y="15" width="1" height="1"/><rect x="10" y="15" width="1" height="1"/><rect x="11" y="15" width="1" height="1"/><rect x="11" y="14" width="1" height="1"/><rect x="12" y="14" width="1" height="1"/><rect x="12" y="13" width="1" height="1"/><rect x="13" y="13" width="1" height="1"/><rect x="14" y="13" width="1" height="1"/><rect x="14" y="12" width="1" height="1"/><rect x="15" y="12" width="1" height="1"/><rect x="16" y="12" width="1" height="1"/><rect x="15" y="11" width="1" height="1"/><rect x="15" y="10" width="1" height="1"/><rect x="16" y="10" width="1" height="1"/><rect x="16" y="9" width="1" height="1"/><rect x="15" y="9" width="1" height="1"/><rect x="14" y="9" width="1" height="1"/><rect x="14" y="8" width="1" height="1"/><rect x="15" y="8" width="1" height="1"/><rect x="15" y="7" width="1" height="1"/><rect x="16" y="7" width="1" height="1"/><rect x="14" y="7" width="1" height="1"/><rect x="13" y="7" width="1" height="1"/><rect x="12" y="7" width="1" height="1"/><rect x="12" y="6" width="1" height="1"/><rect x="13" y="6" width="1" height="1"/><rect x="11" y="6" width="1" height="1"/><rect x="10" y="6" width="1" height="1"/><rect x="9" y="6" width="1" height="1"/><rect x="9" y="5" width="1" height="1"/><rect x="10" y="5" width="1" height="1"/><rect x="11" y="5" width="1" height="1"/><rect x="10" y="4" width="1" height="1"/><rect x="9" y="4" width="1" height="1"/><rect x="8" y="4" width="1" height="1"/><rect x="7" y="4" width="1" height="1"/><rect x="7" y="5" width="1" height="1"/><rect x="6" y="5" width="1" height="1"/><rect x="6" y="6" width="1" height="1"/><rect x="7" y="6" width="1" height="1"/><rect x="5" y="6" width="1" height="1"/><rect x="5" y="7" width="1" height="1"/><rect x="6" y="7" width="1" height="1"/><rect x="5" y="8" width="1" height="1"/><rect x="4" y="8" width="1" height="1"/><rect x="4" y="9" width="1" height="1"/><rect x="5" y="9" width="1" height="1"/><rect x="6" y="9" width="1" height="1"/><rect x="5" y="10" width="1" height="1"/><rect x="4" y="10" width="1" height="1"/><rect x="3" y="10" width="1" height="1"/><rect x="3" y="9" width="1" height="1"/><rect x="7" y="3" width="1" height="1"/><rect x="8" y="3" width="1" height="1"/><rect x="9" y="3" width="1" height="1"/><rect x="10" y="14" width="1" height="1"/><rect x="10" y="13" width="1" height="1"/><rect x="10" y="12" width="1" height="1"/><rect x="7" y="15" width="1" height="1"/><rect x="6" y="15" width="1" height="1"/><rect x="5" y="15" width="1" height="1"/><rect x="4" y="15" width="1" height="1"/><rect x="5" y="16" width="1" height="1"/><rect x="5" y="14" width="1" height="1"/></g><g fill="black" class="fog-of-war" data-level="1"><rect x="8" y="7" width="1" height="1"/><rect x="8" y="8" width="1" height="1"/></g><g fill="black" class="fog-of-war" data-level="1"><rect x="8" y="11" width="1" height="1"/></g><g fill="black" class="fog-of-war" data-level="1"><rect x="9" y="10" width="1" height="1"/></g><g fill="black" class="fog-of-war" data-level="1"><rect x="12" y="11" width="1" height="1"/><rect x="13" y="11" width="1" height="1"/><rect x="13" y="10" width="1" height="1"/></g></svg>
