<svg xmlns="http://www.w3.org/2000/svg" viewBox="0 -1000 1000 1000">
	<path fill="#000000" d="M907 -794H93Q55 -794 27.5 -767Q0 -740 0 -701V1Q0 40 27.5 67Q55 94 93 94H907Q945 94 972.5 67Q1000 40 1000 1V-701Q1000 -740 972.5 -767Q945 -794 907 -794ZM907 -701V-540H601V-549Q601 -578 581 -598Q561 -618 532 -618H530Q502 -618 481.5 -598Q461 -578 461 -549V-540H427V-549Q427 -578 407 -598Q387 -618 358 -618H357Q329 -618 308.5 -598Q288 -578 288 -549V-540H257V-549Q257 -578 237 -598Q217 -618 188 -618H187Q159 -618 138.5 -598Q118 -578 118 -549V-540H93V-701ZM798 -330H797Q769 -330 748.5 -310Q728 -290 728 -261V-253H421V-261Q421 -290 401 -310Q381 -330 352 -330H351Q323 -330 302.5 -310Q282 -290 282 -261V-253H257V-261Q257 -290 237 -310Q217 -330 188 -330H187Q159 -330 138.5 -310Q118 -290 118 -261V-253H93V-448H118Q122 -422 141.5 -405.5Q161 -389 187 -389H188Q214 -389 233 -405.5Q252 -422 256 -448H289Q293 -422 312 -405.5Q331 -389 357 -389H358Q384 -389 403.5 -405.5Q423 -422 427 -448H462Q466 -423 485 -406Q504 -389 530 -389H532Q558 -389 577 -406Q596 -423 600 -448H907V-253H867V-261Q867 -290 847 -310Q827 -330 798 -330ZM907 1H93V-160H118Q122 -134 141.5 -117.5Q161 -101 187 -101H188Q214 -101 233 -117.5Q252 -134 256 -160H283Q286 -135 305.5 -118Q325 -101 351 -101H352Q378 -101 397 -117.5Q416 -134 420 -160H728Q732 -134 751.5 -117.5Q771 -101 797 -101H798Q824 -101 843 -117.5Q862 -134 866 -160H907V1Q907 1 907 1Z"/>
</svg>