<?xml version="1.0" encoding="UTF-8" standalone="no"?>
<svg
   xmlns:dc="http://purl.org/dc/elements/1.1/"
   xmlns:cc="http://creativecommons.org/ns#"
   xmlns:rdf="http://www.w3.org/1999/02/22-rdf-syntax-ns#"
   xmlns:svg="http://www.w3.org/2000/svg"
   xmlns="http://www.w3.org/2000/svg"
   xmlns:sodipodi="http://sodipodi.sourceforge.net/DTD/sodipodi-0.dtd"
   xmlns:inkscape="http://www.inkscape.org/namespaces/inkscape"
   viewBox="0 -1000 1000 1000"
   version="1.1"
   id="svg1100"
   sodipodi:docname="abacus.svg"
   inkscape:version="0.92.5 (2060ec1f9f, 2020-04-08)">
  <metadata
     id="metadata1106">
    <rdf:RDF>
      <cc:Work
         rdf:about="">
        <dc:format>image/svg+xml</dc:format>
        <dc:type
           rdf:resource="http://purl.org/dc/dcmitype/StillImage" />
        <dc:title></dc:title>
      </cc:Work>
    </rdf:RDF>
  </metadata>
  <defs
     id="defs1104" />
  <sodipodi:namedview
     pagecolor="#ffffff"
     bordercolor="#666666"
     borderopacity="1"
     objecttolerance="10"
     gridtolerance="10"
     guidetolerance="10"
     inkscape:pageopacity="0"
     inkscape:pageshadow="2"
     inkscape:window-width="1848"
     inkscape:window-height="1016"
     id="namedview1102"
     showgrid="false"
     inkscape:zoom="0.838"
     inkscape:cx="500"
     inkscape:cy="500"
     inkscape:window-x="72"
     inkscape:window-y="27"
     inkscape:window-maximized="1"
     inkscape:current-layer="svg1100" />
  <path
     d="M 907,-944 H 93 q -38,0 -65.5,27 Q 0,-890 0,-851 v 702 q 0,39 27.5,66 27.5,27 65.5,27 h 814 q 38,0 65.5,-27 27.5,-27 27.5,-66 v -702 q 0,-39 -27.5,-66 -27.5,-27 -65.5,-27 z m 0,93 v 161 H 601 v -9 q 0,-29 -20,-49 -20,-20 -49,-20 h -2 q -28,0 -48.5,20 -20.5,20 -20.5,49 v 9 h -34 v -9 q 0,-29 -20,-49 -20,-20 -49,-20 h -1 q -28,0 -48.5,20 -20.5,20 -20.5,49 v 9 h -31 v -9 q 0,-29 -20,-49 -20,-20 -49,-20 h -1 q -28,0 -48.5,20 -20.5,20 -20.5,49 v 9 H 93 v -161 z m -109,371 h -1 q -28,0 -48.5,20 -20.5,20 -20.5,49 v 8 H 421 v -8 q 0,-29 -20,-49 -20,-20 -49,-20 h -1 q -28,0 -48.5,20 -20.5,20 -20.5,49 v 8 h -25 v -8 q 0,-29 -20,-49 -20,-20 -49,-20 h -1 q -28,0 -48.5,20 -20.5,20 -20.5,49 v 8 H 93 v -195 h 25 q 4,26 23.5,42.5 19.5,16.5 45.5,16.5 h 1 q 26,0 45,-16.5 19,-16.5 23,-42.5 h 33 q 4,26 23,42.5 19,16.5 45,16.5 h 1 q 26,0 45.5,-16.5 Q 423,-572 427,-598 h 35 q 4,25 23,42 19,17 45,17 h 2 q 26,0 45,-17 19,-17 23,-42 h 307 v 195 h -40 v -8 q 0,-29 -20,-49 -20,-20 -49,-20 z m 109,331 H 93 v -161 h 25 q 4,26 23.5,42.5 19.5,16.5 45.5,16.5 h 1 q 26,0 45,-16.5 19,-16.5 23,-42.5 h 27 q 3,25 22.5,42 19.5,17 45.5,17 h 1 q 26,0 45,-16.5 19,-16.5 23,-42.5 h 308 q 4,26 23.5,42.5 19.5,16.5 45.5,16.5 h 1 q 26,0 45,-16.5 19,-16.5 23,-42.5 h 41 v 161 q 0,0 0,0 z"
     id="path1098"
     inkscape:connector-curvature="0"
     style="fill:#000000" />
</svg>
