<?xml version="1.0" encoding="UTF-8" standalone="no"?>
<svg
   xmlns:dc="http://purl.org/dc/elements/1.1/"
   xmlns:cc="http://creativecommons.org/ns#"
   xmlns:rdf="http://www.w3.org/1999/02/22-rdf-syntax-ns#"
   xmlns:svg="http://www.w3.org/2000/svg"
   xmlns="http://www.w3.org/2000/svg"
   id="svg8"
   version="1.1"
   viewBox="0 0 74 73.561867"
   height="73.561867mm"
   width="74mm">
  <defs
     id="defs2" />
  <metadata
     id="metadata5">
    <rdf:RDF>
      <cc:Work
         rdf:about="">
        <dc:format>image/svg+xml</dc:format>
        <dc:type
           rdf:resource="http://purl.org/dc/dcmitype/StillImage" />
        <dc:title></dc:title>
      </cc:Work>
    </rdf:RDF>
  </metadata>
  <g
     transform="translate(-87.274706,-107.53944)"
     id="layer1">
    <path
       id="path826"
       d="m 108.15535,180.70145 c -0.179,-0.21569 -1.01149,-2.15045 -1.84998,-4.29948 -1.17488,-3.01118 -1.6782,-3.99533 -2.19457,-4.29102 -0.59779,-0.34234 -1.13637,-0.31017 -4.995427,0.29836 -4.348278,0.68567 -5.251437,0.65447 -5.251437,-0.18143 0,-0.27448 9.040484,-13.56433 9.987624,-14.68219 0.19439,-0.22943 1.12509,1.09464 1.27887,1.81939 0.59283,2.79397 1.96907,4.6559 4.12778,5.58456 1.41475,0.6086 1.73715,0.61418 6.25614,0.10833 l 1.40978,-0.15781 -0.38417,0.75453 c -0.2113,0.415 -1.84246,3.9097 -3.6248,7.766 -1.78235,3.8563 -3.35978,7.16028 -3.50541,7.34219 -0.35406,0.44225 -0.85681,0.41763 -1.2544,-0.0614 z m 29.84561,-2.43251 c -6.65523,-14.08719 -6.27342,-13.17424 -5.54994,-13.27066 0.36331,-0.0484 1.20592,0.0647 1.87246,0.25129 1.75064,0.49015 3.80112,0.37248 5.18523,-0.29756 1.6078,-0.77832 3.15642,-2.59596 3.54643,-4.16252 0.36928,-1.48327 1.10233,-3.04601 1.4765,-3.14768 0.30628,-0.0832 10.01314,13.78746 10.13637,14.48443 0.16166,0.91426 -0.74253,0.96583 -5.08627,0.29011 -2.89587,-0.45049 -4.42402,-0.58059 -4.8948,-0.41674 -0.58357,0.20312 -0.9394,0.8812 -2.41389,4.59997 -2.24533,5.66287 -2.36359,5.70909 -4.27209,1.66936 z m -16.03729,-11.49675 c -0.6252,-0.30947 -1.43843,-0.95822 -1.80718,-1.44168 -1.39102,-1.82372 -3.70893,-2.36016 -6.65676,-1.54059 -3.36713,0.93615 -5.87701,-0.84112 -6.94816,-4.92004 -0.42048,-1.60118 -2.1053,-3.28358 -3.69635,-3.69103 -2.68268,-0.68701 -3.69364,-1.35723 -4.535042,-3.00651 -0.611425,-1.1985 -0.722378,-3.24881 -0.243493,-4.4996 0.363635,-0.94978 0.366516,-2.84031 0.0058,-3.80201 -0.153657,-0.40966 -0.862663,-1.34014 -1.575572,-2.06775 -2.208343,-2.25386 -2.645786,-4.25251 -1.454132,-6.64384 0.362818,-0.72809 1.016696,-1.58775 1.453063,-1.91037 1.752242,-1.29549 2.258914,-3.63067 1.432618,-6.6027 -0.48568,-1.74689 -0.269362,-3.04717 0.761386,-4.5767 0.656235,-0.97379 2.380262,-2.08321 3.248082,-2.09016 0.96419,-0.008 3.14331,-1.29237 3.77371,-2.22469 0.33709,-0.49855 0.76503,-1.48285 0.95097,-2.18733 0.89455,-3.38924 2.58324,-4.75441 5.54184,-4.48013 5.96598,0.55307 5.81668,0.58359 8.05953,-1.64749 1.27359,-1.26691 2.67133,-1.90013 4.19424,-1.90013 1.09313,0 3.31429,1.16985 4.0114,2.11274 0.95337,1.2895 2.48778,1.92516 4.24426,1.75828 5.3891,-0.51203 5.1838,-0.51447 6.34032,0.0755 1.35177,0.68962 2.23407,2.00251 2.84797,4.23784 0.63299,2.30487 1.78359,3.45672 4.09237,4.09683 2.27954,0.63201 3.29257,1.29447 4.10846,2.68669 0.60088,1.02531 0.66381,1.36044 0.52976,2.82124 -0.48859,5.32428 -0.49151,5.11553 0.0875,6.25057 0.30389,0.59566 0.90955,1.34698 1.34591,1.6696 0.94289,0.69711 2.11274,2.91826 2.11274,4.0114 0,1.52291 -0.63323,2.92064 -1.90013,4.19423 -2.23088,2.24266 -2.20077,2.09541 -1.64762,8.05662 0.12222,1.31712 0.0483,1.82303 -0.39242,2.68697 -0.82781,1.62264 -1.85032,2.29668 -4.52195,2.98086 -1.58636,0.40625 -3.27366,2.08864 -3.7018,3.69103 -0.8284,3.1004 -1.97934,4.45243 -4.28311,5.03146 -1.01782,0.25582 -1.48753,0.23617 -2.68655,-0.1124 -1.68134,-0.48878 -3.26939,-0.54123 -4.33097,-0.14304 -0.40966,0.15365 -1.34014,0.86266 -2.06775,1.57557 -2.19595,2.1516 -4.43227,2.66974 -6.69297,1.55072 z m 5.23777,-8.70808 c 7.95287,-1.25476 14.26721,-6.53137 16.76785,-14.01217 4.17949,-12.50317 -4.17294,-25.62342 -17.34385,-27.24423 -5.44736,-0.67035 -11.3451,1.08006 -15.74425,4.67277 -3.00416,2.45344 -5.81788,6.98975 -6.86145,11.06209 -0.67622,2.63881 -0.62422,7.5131 0.10909,10.22443 0.64332,2.3786 1.7941,4.7675 3.35927,6.97348 4.30679,6.07008 12.38305,9.48015 19.71334,8.32363 z m -6.14802,-1.56724 c -11.8216,-2.16214 -18.83311,-14.16318 -14.89339,-25.49184 0.88213,-2.53655 2.09,-4.46321 4.21291,-6.71992 6.29933,-6.6964 16.23072,-7.97169 24.132,-3.09879 2.15062,1.32634 5.12,4.34849 6.40741,6.5213 1.85744,3.13486 2.88471,7.52145 2.59095,11.06374 -0.67918,8.18994 -5.94903,14.75524 -13.78832,17.1778 -2.07934,0.64257 -6.58508,0.92749 -8.66156,0.54771 z m -0.11621,-9.67517 3.35381,-1.99275 3.3538,1.99275 c 1.8446,1.096 3.5625,1.99274 3.81756,1.99274 0.66688,0 1.29531,-0.72445 1.29531,-1.49322 0,-0.56089 -1.07285,-5.65938 -1.47478,-7.00858 -0.0889,-0.29846 0.77502,-1.23104 2.79478,-3.01687 3.11636,-2.75542 3.59744,-3.52522 2.73932,-4.38335 -0.41413,-0.41413 -1.18228,-0.56591 -4.15551,-0.82109 -2.0061,-0.17218 -3.7964,-0.43874 -3.97842,-0.59237 -0.18203,-0.15362 -0.96956,-1.74983 -1.75006,-3.54712 -2.29476,-5.28427 -3.03939,-5.26893 -5.31988,0.10953 -0.95777,2.25888 -1.59621,3.42579 -1.95233,3.56836 -0.29104,0.11652 -2.07698,0.3398 -3.96875,0.49617 -2.97711,0.2461 -3.50184,0.35943 -3.9026,0.84283 -0.25466,0.30718 -0.46302,0.74637 -0.46302,0.97598 0,0.22961 0.85894,1.19869 1.90876,2.1535 1.04982,0.95481 2.41852,2.21227 3.04157,2.79436 l 1.1328,1.05833 -0.79261,3.39097 c -0.43593,1.86504 -0.79261,3.6416 -0.79261,3.94792 0,0.68723 0.7236,1.52465 1.31741,1.52465 0.24291,0 1.95086,-0.89674 3.79545,-1.99274 z"
       style="fill:#000000;stroke-width:0.26458332" />
  </g>
</svg>
