<?xml version="1.0" encoding="UTF-8" standalone="no"?>
<svg
   xmlns:dc="http://purl.org/dc/elements/1.1/"
   xmlns:cc="http://creativecommons.org/ns#"
   xmlns:rdf="http://www.w3.org/1999/02/22-rdf-syntax-ns#"
   xmlns:svg="http://www.w3.org/2000/svg"
   xmlns="http://www.w3.org/2000/svg"
   xmlns:sodipodi="http://sodipodi.sourceforge.net/DTD/sodipodi-0.dtd"
   xmlns:inkscape="http://www.inkscape.org/namespaces/inkscape"
   viewBox="0 -1000 1000 1000"
   version="1.1"
   id="svg996"
   sodipodi:docname="album.svg"
   inkscape:version="0.92.5 (2060ec1f9f, 2020-04-08)">
  <metadata
     id="metadata1002">
    <rdf:RDF>
      <cc:Work
         rdf:about="">
        <dc:format>image/svg+xml</dc:format>
        <dc:type
           rdf:resource="http://purl.org/dc/dcmitype/StillImage" />
        <dc:title></dc:title>
      </cc:Work>
    </rdf:RDF>
  </metadata>
  <defs
     id="defs1000" />
  <sodipodi:namedview
     pagecolor="#ffffff"
     bordercolor="#666666"
     borderopacity="1"
     objecttolerance="10"
     gridtolerance="10"
     guidetolerance="10"
     inkscape:pageopacity="0"
     inkscape:pageshadow="2"
     inkscape:window-width="1848"
     inkscape:window-height="1016"
     id="namedview998"
     showgrid="false"
     inkscape:zoom="0.838"
     inkscape:cx="500"
     inkscape:cy="547.7327"
     inkscape:window-x="72"
     inkscape:window-y="27"
     inkscape:window-maximized="1"
     inkscape:current-layer="svg996" />
  <path
     d="m 173,-115.5 q -38,-7 -59,-37 -4,-6 -8,-15 -4,-9 -4,-11 h 57 l 4,4 q 6,6 9,7 l 5,3 h 737 l 7,-4 q 10,-5 17.5,-15 7.5,-10 9.5,-22 1,-3 2,-59 v -191 l -1,-244 -8,-17 v -61 l 3,1 q 8,1 27,20 21,21 27,55 2,12 2,251 0,239 -2,251 -6,32 -29,57 -12,11 -23.5,17.5 -11.5,6.5 -26.5,9.5 -10,1 -372.5,1 -362.5,0 -373.5,-1 z m -86,-97 Q 61,-215.5 39.5,-233 18,-250.5 7,-276.5 l -1,-2 q -3,-9 -4,-18 -2,-13 -2,-51 v -126 l 1,-325 2,-10 q 14,-47 54,-67 l 4,-2 q 8,-5 20,-6 18,-1 77,-2 h 294 q 356,0 374,2 27,6 47,26 20,20 28,49 l 3,10 1,243 q 0,247 -1,254 -5,32 -24.5,55 -19.5,23 -49.5,32 l -10,2 -363,1 q -174,0 -361,-1 z m 738,-53 q 14,-6 23,-22 l 1,-2 q 3,-7 4,-18 1,-15 2,-67 v -174 q 0,-239 -2,-247 -2,-12 -10.5,-22.5 -8.5,-10.5 -19.5,-14.5 l -7,-3 -365,1 H 86 l -8,3 q -6,3 -12.5,10 -6.5,7 -9.5,13 l -1,2 q -3,6 -3,17 -2,15 -2,67 v 377 q 1,41 2,45 7,28 32,37 4,1 57,2 h 313 l 364,-1 z m -728,-52 q 14,-18 28,-35 35,-44 49,-63 l 23,-29 q 2,-2 29,24 l 34,32 q 5,4 6.5,5 1.5,1 3,-0.5 1.5,-1.5 42.5,-50.5 l 41,-48 q 77,-91 83,-97 1,-1 6,3.5 5,4.5 28,28.5 17,19 33,35 1,0 62,-79 l 6,-8 q 67,-85 67.5,-84 0.5,1 40.5,57 52,77 82,118 l 43,62 v 130 H 450 q -353,0 -353,-1 z m 137,-303 q -14,-2 -28,-10 -14,-8 -23,-18 -6,-6 -12,-17 -6,-11 -8,-19 -2,-8 -1.5,-21.5 0.5,-13.5 2.5,-20.5 5,-17 16.5,-31.5 11.5,-14.5 26.5,-21.5 11,-6 19.5,-8 8.5,-2 20.5,-2 40,0 65,31 17,21 19,47 2,26 -11,49 -13,23 -37,35 -11,5 -24.5,6.5 -13.5,1.5 -24.5,0.5 z"
     id="path994"
     inkscape:connector-curvature="0"
     style="fill:#000000" />
</svg>
