<svg xmlns="http://www.w3.org/2000/svg" viewBox="0 -1000 1000 1000">
	<path fill="#000000" d="M173 34Q135 27 114 -3Q110 -9 106 -18Q102 -27 102 -29H159L163 -25Q169 -19 172 -18L177 -15H914L921 -19Q931 -24 938.5 -34Q946 -44 948 -56Q949 -59 950 -115V-306L949 -550L941 -567V-628L944 -627Q952 -626 971 -607Q992 -586 998 -552Q1000 -540 1000 -301Q1000 -62 998 -50Q992 -18 969 7Q957 18 945.5 24.5Q934 31 919 34Q909 35 546.5 35Q184 35 173 34ZM87 -63Q61 -66 39.5 -83.5Q18 -101 7 -127L6 -129Q3 -138 2 -147Q0 -160 0 -198V-324L1 -649L3 -659Q17 -706 57 -726L61 -728Q69 -733 81 -734Q99 -735 158 -736H452Q808 -736 826 -734Q853 -728 873 -708Q893 -688 901 -659L904 -649L905 -406Q905 -159 904 -152Q899 -120 879.5 -97Q860 -74 830 -65L820 -63L457 -62Q283 -62 96 -63ZM825 -116Q839 -122 848 -138L849 -140Q852 -147 853 -158Q854 -173 855 -225V-399Q855 -638 853 -646Q851 -658 842.5 -668.5Q834 -679 823 -683L816 -686L451 -685H86L78 -682Q72 -679 65.5 -672Q59 -665 56 -659L55 -657Q52 -651 52 -640Q50 -625 50 -573V-196Q51 -155 52 -151Q59 -123 84 -114Q88 -113 141 -112H454L818 -113ZM97 -168Q111 -186 125 -203Q160 -247 174 -266L197 -295Q199 -297 226 -271L260 -239Q265 -235 266.5 -234Q268 -233 269.5 -234.5Q271 -236 312 -285L353 -333Q430 -424 436 -430Q437 -431 442 -426.5Q447 -422 470 -398Q487 -379 503 -363Q504 -363 565 -442L571 -450Q638 -535 638.5 -534Q639 -533 679 -477Q731 -400 761 -359L804 -297V-167H450Q97 -167 97 -168ZM234 -471Q220 -473 206 -481Q192 -489 183 -499Q177 -505 171 -516Q165 -527 163 -535Q161 -543 161.5 -556.5Q162 -570 164 -577Q169 -594 180.5 -608.5Q192 -623 207 -630Q218 -636 226.5 -638Q235 -640 247 -640Q287 -640 312 -609Q329 -588 331 -562Q333 -536 320 -513Q307 -490 283 -478Q272 -473 258.5 -471.5Q245 -470 234 -471Z"/>
</svg>