<svg xmlns="http://www.w3.org/2000/svg" viewBox="0 -1000 1000 1000">
	<path fill="#000000" d="M500 -599Q471 -599 449.5 -578Q428 -557 428 -527.5Q428 -498 449.5 -477Q471 -456 500 -456Q529 -456 550.5 -477Q572 -498 572 -527.5Q572 -557 551 -578Q530 -599 500 -599ZM884 -93V-143Q907 -153 921 -174Q935 -195 935 -220Q935 -254 910.5 -278.5Q886 -303 852 -303Q842 -303 824 -299L702 -368Q728 -402 742.5 -442.5Q757 -483 757 -527Q757 -597 722.5 -656Q688 -715 629 -749.5Q570 -784 500 -784Q430 -784 371 -749.5Q312 -715 277.5 -656Q243 -597 243 -527Q243 -483 257.5 -442.5Q272 -402 298 -368L176 -299Q158 -303 149 -303Q114 -303 89.5 -278.5Q65 -254 65 -220Q65 -195 79 -174Q93 -153 116 -143V-93Q66 -82 33 -41.5Q0 -1 0 52V84H297V52Q297 -1 264 -41.5Q231 -82 181 -93V-143Q204 -153 218 -174Q232 -195 232 -220Q232 -235 225 -252L347 -321Q401 -281 467 -272V-93Q417 -82 384.5 -41.5Q352 -1 352 52V84H649V52Q649 -1 616 -41.5Q583 -82 533 -93V-272Q599 -281 653 -321L775 -252Q768 -235 768 -220Q768 -195 782 -174Q796 -153 819 -143V-93Q769 -82 736 -41.5Q703 -1 703 52V84H1000V52Q1000 -1 967 -41.5Q934 -82 884 -93ZM500 -391Q463 -391 431.5 -409.5Q400 -428 381.5 -459Q363 -490 363 -527Q363 -564 381.5 -595.5Q400 -627 431.5 -645.5Q463 -664 500 -664Q537 -664 568.5 -645.5Q600 -627 618.5 -595.5Q637 -564 637 -527Q637 -490 618.5 -459Q600 -428 568.5 -409.5Q537 -391 500 -391Z"/>
</svg>