<?xml version="1.0" encoding="UTF-8" standalone="no"?>
<svg
   xmlns:dc="http://purl.org/dc/elements/1.1/"
   xmlns:cc="http://creativecommons.org/ns#"
   xmlns:rdf="http://www.w3.org/1999/02/22-rdf-syntax-ns#"
   xmlns:svg="http://www.w3.org/2000/svg"
   xmlns="http://www.w3.org/2000/svg"
   xmlns:sodipodi="http://sodipodi.sourceforge.net/DTD/sodipodi-0.dtd"
   xmlns:inkscape="http://www.inkscape.org/namespaces/inkscape"
   viewBox="0 -1000 1000 1000"
   version="1.1"
   id="svg1152"
   sodipodi:docname="ali.svg"
   inkscape:version="0.92.5 (2060ec1f9f, 2020-04-08)">
  <metadata
     id="metadata1158">
    <rdf:RDF>
      <cc:Work
         rdf:about="">
        <dc:format>image/svg+xml</dc:format>
        <dc:type
           rdf:resource="http://purl.org/dc/dcmitype/StillImage" />
        <dc:title></dc:title>
      </cc:Work>
    </rdf:RDF>
  </metadata>
  <defs
     id="defs1156" />
  <sodipodi:namedview
     pagecolor="#ffffff"
     bordercolor="#666666"
     borderopacity="1"
     objecttolerance="10"
     gridtolerance="10"
     guidetolerance="10"
     inkscape:pageopacity="0"
     inkscape:pageshadow="2"
     inkscape:window-width="1848"
     inkscape:window-height="1016"
     id="namedview1154"
     showgrid="false"
     inkscape:zoom="0.838"
     inkscape:cx="500"
     inkscape:cy="500"
     inkscape:window-x="72"
     inkscape:window-y="27"
     inkscape:window-maximized="1"
     inkscape:current-layer="svg1152" />
  <path
     d="m 500,-749 q -29,0 -50.5,21 -21.5,21 -21.5,50.5 0,29.5 21.5,50.5 21.5,21 50.5,21 29,0 50.5,-21 21.5,-21 21.5,-50.5 0,-29.5 -21,-50.5 -21,-21 -51,-21 z m 384,506 v -50 q 23,-10 37,-31 14,-21 14,-46 0,-34 -24.5,-58.5 Q 886,-453 852,-453 q -10,0 -28,4 l -122,-69 q 26,-34 40.5,-74.5 Q 757,-633 757,-677 757,-747 722.5,-806 688,-865 629,-899.5 570,-934 500,-934 q -70,0 -129,34.5 -59,34.5 -93.5,93.5 -34.5,59 -34.5,129 0,44 14.5,84.5 14.5,40.5 40.5,74.5 l -122,69 q -18,-4 -27,-4 -35,0 -59.5,24.5 Q 65,-404 65,-370 q 0,25 14,46 14,21 37,31 v 50 Q 66,-232 33,-191.5 0,-151 0,-98 v 32 h 297 v -32 q 0,-53 -33,-93.5 -33,-40.5 -83,-51.5 v -50 q 23,-10 37,-31 14,-21 14,-46 0,-15 -7,-32 l 122,-69 q 54,40 120,49 v 179 q -50,11 -82.5,51.5 Q 352,-151 352,-98 v 32 h 297 v -32 q 0,-53 -33,-93.5 -33,-40.5 -83,-51.5 v -179 q 66,-9 120,-49 l 122,69 q -7,17 -7,32 0,25 14,46 14,21 37,31 v 50 q -50,11 -83,51.5 -33,40.5 -33,93.5 v 32 h 297 v -32 q 0,-53 -33,-93.5 Q 934,-232 884,-243 Z M 500,-541 q -37,0 -68.5,-18.5 -31.5,-18.5 -50,-49.5 -18.5,-31 -18.5,-68 0,-37 18.5,-68.5 18.5,-31.5 50,-50 31.5,-18.5 68.5,-18.5 37,0 68.5,18.5 31.5,18.5 50,50 18.5,31.5 18.5,68.5 0,37 -18.5,68 -18.5,31 -50,49.5 Q 537,-541 500,-541 Z"
     id="path1150"
     inkscape:connector-curvature="0"
     style="fill:#000000" />
</svg>
