<svg xmlns="http://www.w3.org/2000/svg" viewBox="0 -1000 1000 1000">
	<path fill="#000000" d="M650 -214L707 -271Q718 -282 718 -296Q718 -310 707 -322L454 -575Q443 -586 429 -586Q415 -586 404 -575L150 -322Q140 -311 140 -296Q140 -281 150 -271L207 -214Q218 -204 232 -204Q246 -204 257 -214L429 -386L600 -214Q611 -204 625 -204Q639 -204 650 -214ZM857 -350Q857 -233 800 -135Q743 -37 644 21Q545 79 429 79Q313 79 213 21Q113 -37 58 -135Q3 -233 0 -350Q-3 -467 58 -565Q119 -663 213 -721Q307 -779 429 -779Q551 -779 644 -721Q737 -663 800 -565Q863 -467 857 -350Z"/>
</svg>