<svg xmlns="http://www.w3.org/2000/svg" viewBox="0 -1000 1000 1000">
	<path fill="#000000" d="M454 -125L707 -379Q718 -389 718 -404Q718 -419 707 -429L650 -486Q640 -496 625 -496Q610 -496 600 -486L429 -314L257 -486Q247 -496 232 -496Q217 -496 207 -486L150 -429Q140 -418 140 -404Q140 -390 150 -379L404 -125Q414 -115 429 -115Q444 -115 454 -125ZM857 -350Q857 -233 800 -135Q743 -37 644 21Q545 79 429 79Q313 79 213 21Q113 -37 58 -135Q3 -233 0 -350Q-3 -467 58 -565Q119 -663 213 -721Q307 -779 429 -779Q551 -779 644 -721Q737 -663 800 -565Q863 -467 857 -350Z"/>
</svg>