<?xml version="1.0" encoding="UTF-8" standalone="no"?>
<svg
   xmlns:dc="http://purl.org/dc/elements/1.1/"
   xmlns:cc="http://creativecommons.org/ns#"
   xmlns:rdf="http://www.w3.org/1999/02/22-rdf-syntax-ns#"
   xmlns:svg="http://www.w3.org/2000/svg"
   xmlns="http://www.w3.org/2000/svg"
   xmlns:sodipodi="http://sodipodi.sourceforge.net/DTD/sodipodi-0.dtd"
   xmlns:inkscape="http://www.inkscape.org/namespaces/inkscape"
   viewBox="0 -1000 1000 1000"
   version="1.1"
   id="svg1308"
   sodipodi:docname="archive.svg"
   inkscape:version="0.92.5 (2060ec1f9f, 2020-04-08)">
  <metadata
     id="metadata1314">
    <rdf:RDF>
      <cc:Work
         rdf:about="">
        <dc:format>image/svg+xml</dc:format>
        <dc:type
           rdf:resource="http://purl.org/dc/dcmitype/StillImage" />
        <dc:title></dc:title>
      </cc:Work>
    </rdf:RDF>
  </metadata>
  <defs
     id="defs1312" />
  <sodipodi:namedview
     pagecolor="#ffffff"
     bordercolor="#666666"
     borderopacity="1"
     objecttolerance="10"
     gridtolerance="10"
     guidetolerance="10"
     inkscape:pageopacity="0"
     inkscape:pageshadow="2"
     inkscape:window-width="1848"
     inkscape:window-height="1016"
     id="namedview1310"
     showgrid="false"
     inkscape:zoom="0.838"
     inkscape:cx="500"
     inkscape:cy="500"
     inkscape:window-x="72"
     inkscape:window-y="27"
     inkscape:window-maximized="1"
     inkscape:current-layer="svg1308" />
  <path
     d="m 69,-52.5 q -10,-2 -18,-10 -8,-8 -11.5,-18 -3.5,-10 -22.5,-184 l -3,-28 Q 3,-399.5 1,-421 q -2,-21.5 0,-28.5 4,-11 12.5,-19.5 8.5,-8.5 18.5,-11.5 7,-2 87,-3 66,0 381,0 315,0 381,0 80,1 87,3 10,3 18.5,11.5 8.5,8.5 12.5,19.5 2,7 0,28.5 -2,21.5 -13,128.5 l -3,28 q -19,174 -22,183.5 -3,9.5 -12,18.5 l -3,3 q -4,5 -11,6 -11,3 -42,4 -31,1 -106,1 H 581 l -439,-1 q -68,-1 -73,-3 z m 649,-135 q 16,-11 16,-27 0,-8 -11,-46 -11,-38 -15,-43 -10,-12 -27,-12.5 -17,-0.5 -26,11.5 -6,8 -7.5,16 -1.5,8 2.5,20 4,14 5,16.5 1,2.5 -154.5,2.5 -155.5,0 -154.5,-3 l 5,-16 q 3,-12 1.5,-20 -1.5,-8 -7.5,-16 -9,-12 -26,-11.5 -17,0.5 -27,12.5 -4,5 -15,43 -11,38 -11,46 0,16 16,27 l 8,5 h 421 z m -588,-539 q 24,-77 57,-183 l 10,-32 q 1,-2 3,-4.5 2,-2.5 4,-3.5 6,-2 296,-2 290,0 296,2 2,1 4,3.5 2,2.5 3,4.5 l 67,215 64,209 h -66 l -100,-300 H 232 l -100,300 H 66 Z m 77,184 q 7,-26 9,-34 l 2,-8 h 564 l 5,18 q 4,16 6,24 l 7,25 H 200 Z m 21,-77 q 0,-1 10,-39 l 6,-22 q 1,-2 13,-3 16,-1 70,-1 h 346 q 54,0 70,1 12,1 13,3 l 6,22 q 10,38 10,39.5 0,1.5 -272,1.5 -272,0 -272,-2 z m 27,-100 q 0,-2 9,-33 l 8,-31 q 0,-1 228,-1 228,0 228,1 l 8,31 q 9,31 9,33 0,2 -245,2 -245,0 -245,-2 z"
     id="path1306"
     inkscape:connector-curvature="0"
     style="fill:#000000" />
</svg>
