<svg xmlns="http://www.w3.org/2000/svg" viewBox="0 -1000 1000 1000">
	<path fill="#000000" d="M69 98Q59 96 51 88Q43 80 39.5 70Q36 60 17 -114L14 -142Q3 -249 1 -270.5Q-1 -292 1 -299Q5 -310 13.5 -318.5Q22 -327 32 -330Q39 -332 119 -333Q185 -333 500 -333Q815 -333 881 -333Q961 -332 968 -330Q978 -327 986.5 -318.5Q995 -310 999 -299Q1001 -292 999 -270.5Q997 -249 986 -142L983 -114Q964 60 961 69.5Q958 79 949 88L946 91Q942 96 935 97Q924 100 893 101Q862 102 787 102H581L142 101Q74 100 69 98ZM718 -37Q734 -48 734 -64Q734 -72 723 -110Q712 -148 708 -153Q698 -165 681 -165.5Q664 -166 655 -154Q649 -146 647.5 -138Q646 -130 650 -118Q654 -104 655 -101.5Q656 -99 500.5 -99Q345 -99 346 -102L351 -118Q354 -130 352.5 -138Q351 -146 345 -154Q336 -166 319 -165.5Q302 -165 292 -153Q288 -148 277 -110Q266 -72 266 -64Q266 -48 282 -37L290 -32H711ZM130 -576Q154 -653 187 -759L197 -791Q198 -793 200 -795.5Q202 -798 204 -799Q210 -801 500 -801Q790 -801 796 -799Q798 -798 800 -795.5Q802 -793 803 -791L870 -576L934 -367H868L768 -667H232L132 -367H66ZM207 -392Q214 -418 216 -426L218 -434H782L787 -416Q791 -400 793 -392L800 -367H200ZM228 -469Q228 -470 238 -508L244 -530Q245 -532 257 -533Q273 -534 327 -534H673Q727 -534 743 -533Q755 -532 756 -530L762 -508Q772 -470 772 -468.5Q772 -467 500 -467Q228 -467 228 -469ZM255 -569Q255 -571 264 -602L272 -633Q272 -634 500 -634Q728 -634 728 -633L736 -602Q745 -571 745 -569Q745 -567 500 -567Q255 -567 255 -569Z"/>
</svg>