<?xml version="1.0" encoding="iso-8859-1"?>
<!-- Uploaded to: SVG Repo, www.svgrepo.com, Generator: SVG Repo Mixer Tools -->
<svg fill="#000000" height="800px" width="800px" version="1.1" id="Layer_1" xmlns="http://www.w3.org/2000/svg" xmlns:xlink="http://www.w3.org/1999/xlink" 
	 viewBox="0 0 512 512" xml:space="preserve">
<g>
	<g>
		<path d="M447.147,0H64.853c-9.425,0-17.067,7.641-17.067,17.067v477.867c0,9.425,7.641,17.067,17.067,17.067h382.293
			c9.425,0,17.067-7.641,17.067-17.067V17.067C464.213,7.641,456.572,0,447.147,0z M255.431,79.644
			c54.989,0,81.733,67.596,41.605,105.244c11.845,11.113,19.266,26.888,19.266,44.373v43.804c0,9.425-7.641,17.067-17.067,17.067
			h-87.609c-9.425,0-17.067-7.641-17.067-17.067v-43.804c0-17.485,7.421-33.261,19.266-44.373
			C173.715,147.257,200.407,79.644,255.431,79.644z M381.156,438.044H130.844c-9.425,0-17.067-7.641-17.067-17.067
			s7.641-17.067,17.067-17.067h250.311c9.425,0,17.067,7.641,17.067,17.067S390.581,438.044,381.156,438.044z M381.156,370.916
			H130.844c-9.425,0-17.067-7.641-17.067-17.067s7.641-17.067,17.067-17.067h250.311c9.425,0,17.067,7.641,17.067,17.067
			S390.581,370.916,381.156,370.916z"/>
	</g>
</g>
</svg>