<?xml version="1.0" encoding="UTF-8" standalone="no"?>
<!-- Created with Inkscape (http://www.inkscape.org/) -->

<svg
   width="137.09399mm"
   height="137.09399mm"
   viewBox="0 0 137.09399 137.09399"
   version="1.1"
   id="svg1"
   xml:space="preserve"
   xmlns="http://www.w3.org/2000/svg"
   xmlns:svg="http://www.w3.org/2000/svg"><defs
     id="defs1" /><g
     id="layer1"
     transform="translate(-14.06913,-89.471485)"><path
       id="path1"
       style="fill:#000000"
       d="m 99.714844,103.65376 c -1.077775,-0.0266 -1.931484,0.81312 -3.013242,0.77393 -4.584352,0.42582 -9.234416,0.47333 -13.859084,0.70087 -3.081131,0.0913 -6.167498,0.26498 -9.248154,0.21418 -1.038549,-0.14055 -2.083055,-0.89558 -3.133602,-0.35871 -0.923982,0.38058 -1.569766,1.1993 -2.525246,1.53242 -6.649455,3.3651 -13.45651,6.4061 -20.224069,9.52332 -3.808665,1.72451 -7.613515,3.48747 -11.510339,4.99464 -1.205201,0.19651 -2.609304,0.65418 -3.013071,1.94788 -0.488754,0.94577 -1.350794,1.65075 -2.004823,2.48725 -2.672022,2.9982 -5.427584,5.93233 -8.339464,8.69789 -0.773693,0.75456 -2.049619,0.64095 -2.69959,1.56833 -0.819194,1.0262 -1.034598,2.62711 -0.360957,3.77933 -1.4814,5.48723 -2.964226,10.97265 -4.614385,16.40408 -0.503775,1.0149 -1.249908,2.01753 -1.073175,3.22136 0.06238,1.03342 0.649154,2.08581 1.636779,2.48784 0.882173,1.36422 1.233536,2.98746 1.937517,4.443 1.725749,4.26561 3.567347,8.49605 5.199202,12.79528 -0.272056,0.71069 -0.433798,1.48857 -0.128076,2.22362 0.431945,1.43662 1.961722,2.49223 3.467804,2.14511 0.563043,0.009 1.071318,-0.33305 1.546178,-0.50561 3.266832,0.62118 6.493467,1.47913 9.766466,2.16484 2.205744,0.51174 4.455219,0.95123 6.597628,1.66149 0.482773,0.70054 1.039025,1.42361 1.914296,1.63759 0.972306,0.32612 2.010909,-0.0413 2.855519,-0.47867 1.423042,0.21337 2.77406,0.76943 4.175796,1.09599 2.606414,0.7664 5.298189,1.34889 7.791885,2.42809 1.0737,0.90861 2.664094,1.15734 3.907035,0.44981 0.800255,-0.39794 1.305487,-1.21622 1.4908,-2.04863 1.365405,-1.57172 2.977874,-2.91842 4.608809,-4.20137 0.73703,-0.53202 1.725061,-0.19121 2.485566,-0.69735 0.524889,-0.37455 1.163648,0.0795 1.730758,0.17818 1.478094,0.53327 3.061415,0.97714 4.47733,1.74683 0.710595,0.4915 1.27253,1.19732 2.145144,1.43267 1.142826,0.46166 1.868987,1.53968 2.786305,2.32047 3.380457,3.36529 6.645523,6.84581 9.935444,10.2985 0.415173,0.40869 0.736996,0.85356 0.800781,1.44141 0.397199,1.15693 1.473255,1.95611 2.62479,2.2507 2.253761,1.33682 4.182071,3.16298 5.953331,5.07547 0.47255,0.60738 0.32894,1.51757 0.97092,2.04349 1.44111,1.48435 4.33509,0.97651 5.15994,-0.93216 1.2455,-0.42101 2.56106,-0.72355 3.86314,-0.96998 1.12996,-0.30958 2.08148,0.67026 3.21901,0.50161 1.73135,-0.12293 2.94524,-1.98319 2.56848,-3.64928 -0.19089,-1.44843 -1.51309,-2.60589 -2.9768,-2.57962 -1.04111,-1.66983 -1.78795,-3.60585 -2.63092,-5.41226 -0.4379,-0.92361 -0.6049,-2.09898 0.13873,-2.91977 0.55206,-0.79321 0.92544,-2.02425 2.02632,-2.14881 0.59215,-0.0634 1.08656,-0.47214 1.62861,-0.59914 2.02251,-0.0524 4.0309,0.1752 6.05653,0.40407 0.83827,0.25883 1.37989,1.11915 2.31979,1.14662 1.52711,0.2415 3.06028,-0.80901 3.45313,-2.29297 0.46326,-1.50928 1.50846,-2.74107 2.30754,-4.08079 0.70387,-1.00045 1.38117,-2.09098 2.27275,-2.90844 1.06048,-0.25918 2.2503,-0.36422 3.29276,-0.0264 0.90999,0.64166 1.99355,1.40887 3.16397,0.98439 1.78836,-0.48156 2.83436,-2.73313 2.01767,-4.40236 0.84337,-1.89162 2.17968,-3.50602 3.2638,-5.26037 1.19473,-1.72876 2.29147,-3.58562 3.7694,-5.07556 2.01789,-1.05241 1.88703,-4.23906 0.0879,-5.43946 -0.48181,-0.94989 -0.37336,-2.06877 -0.61953,-3.08902 -0.43814,-3.04093 -0.93574,-6.07268 -1.42148,-9.10629 0.90319,-0.98894 1.47438,-2.63043 0.51796,-3.77969 -0.44848,-0.67244 -1.09238,-1.26672 -1.89101,-1.47226 -2.16664,-3.00105 -3.8512,-6.3117 -5.74386,-9.48547 -2.46172,-4.31616 -5.01305,-8.58963 -7.25889,-13.02252 -0.60314,-1.08959 -0.1651,-2.48205 -0.9958,-3.47503 -0.61271,-0.90177 -1.7461,-1.23866 -2.79051,-1.13417 -1.48554,-0.13776 -2.59815,-1.27035 -3.87607,-1.92594 -7.24169,-4.44776 -14.55209,-8.77621 -21.74904,-13.2981 -0.86326,-0.48071 -1.56982,-1.17242 -2.16591,-1.94393 -0.57242,-0.47463 -1.35535,-0.51626 -2.066406,-0.48242 z m -3.121094,4.50195 c 0.773731,-0.11131 1.22867,0.67954 1.794922,1.08399 0.812385,0.93609 0.698101,2.26658 1.06646,3.3899 0.572058,2.61773 1.172668,5.22853 1.787058,7.83666 -7.56887,-3.59994 -15.058614,-7.35508 -22.601296,-11.00801 -0.215634,-0.1679 -1.391219,-0.53547 -0.699488,-0.51738 6.217179,-0.26844 12.439242,-0.43898 18.652344,-0.78516 z m 6.37695,1.7461 c 4.17598,2.3764 8.21535,4.98127 12.34798,7.43153 2.50901,1.52152 5.01802,3.04304 7.52702,4.56456 -5.29923,0.19719 -10.60747,0.30516 -15.9082,0.1543 -0.41298,-0.20713 -0.70721,-0.65916 -1.22044,-0.71708 -0.39559,-0.0419 -0.6952,-0.26173 -0.68917,-0.68261 -0.90676,-3.57003 -1.62709,-7.18475 -2.42517,-10.77948 -0.17737,-0.43501 0.23146,0.0261 0.36798,0.0288 z m -35.265622,1.17578 c -2.63683,4.28463 -5.423451,8.47513 -8.146947,12.70374 -0.386902,0.4843 -0.709226,1.15157 -1.403834,1.16344 -0.638848,0.13831 -1.178894,0.5976 -1.728669,0.85249 -3.10534,-0.22055 -6.126047,-1.06169 -9.183338,-1.53795 -2.038088,-0.37731 -4.095883,-0.72807 -6.119243,-1.11727 8.872501,-4.13802 17.769029,-8.22493 26.693359,-12.25 -0.03711,0.0619 -0.07422,0.1237 -0.111328,0.18555 z m 7.66211,0.86328 c 6.998802,3.39164 14.001224,6.77544 20.974609,10.21875 -5.628264,0.61067 -11.227335,1.36334 -16.864129,1.75417 -0.60518,0.17487 -0.872885,-0.14402 -0.912082,-0.71194 -0.984473,-3.18933 -2.168355,-6.3149 -3.200704,-9.48973 -0.227662,-0.69621 -0.46651,-1.3888 -0.673476,-2.09156 0.225261,0.10677 0.450521,0.21354 0.675782,0.32031 z m -2.115235,6.94922 c 0.629787,1.8648 1.275277,3.72611 1.84375,5.61132 -4.182994,0.47129 -8.371068,0.89577 -12.548828,1.41407 2.837359,-4.43993 5.70033,-8.8529 8.5625,-13.27735 0.714193,2.08399 1.428385,4.16797 2.142578,6.25196 z M 120.75,125.59517 c 2.1195,0.0236 4.30342,-0.047 6.38281,0.0352 0.0433,0.80886 -0.54341,1.50256 -0.74605,2.26958 -0.90872,2.27712 -1.74912,4.58125 -2.68559,6.84761 -4.68379,-2.86295 -9.27577,-5.87265 -13.82422,-8.94531 3.62198,-0.15903 7.248,-0.19531 10.87305,-0.20703 z m -25.9375,1.73632 c -4.090613,2.45149 -8.213294,5.03924 -12.367188,7.26563 -0.737237,-2.30463 -1.531868,-4.59707 -2.193359,-6.92774 5.750895,-0.73829 11.520211,-1.32074 17.28125,-1.97265 -0.906901,0.54492 -1.813802,1.08984 -2.720703,1.63476 z m -55.873047,-0.75976 c 4.12955,0.59078 8.223581,1.41516 12.340235,2.09203 1.29575,0.23263 2.589376,0.48058 3.872656,0.77515 -4.214588,4.69975 -8.676574,9.17191 -13.169922,13.60352 -1.157701,-4.72892 -1.976962,-9.53108 -2.966555,-14.30895 -0.134837,-0.72782 -0.273156,-1.45547 -0.373289,-2.1891 0.09896,0.009 0.197917,0.0182 0.296875,0.0273 z m -2.292969,8.93359 c 0.492415,2.49524 0.995621,5.01067 1.492188,7.51367 -4.156804,-1.95954 -8.258663,-4.03671 -12.294922,-6.23437 2.254938,-2.52835 4.803477,-4.77234 7.209828,-7.15221 0.657372,-0.63335 1.319207,-1.2628 2.005016,-1.86537 0.529297,2.57943 1.058593,5.15885 1.58789,7.73828 z m 40.373047,-5.66211 c 0.590593,1.67491 1.190239,3.35729 1.652344,5.08985 -4.455688,-1.84703 -8.891019,-3.76721 -13.314453,-5.69922 3.686557,-0.42117 7.34878,-0.78618 11.054687,-1.04493 0.202474,0.55144 0.404948,1.10287 0.607422,1.6543 z m 22.003907,3.04688 c -2.080726,6.32909 -4.103302,12.67512 -6.308594,18.96679 -2.9133,-3.93923 -5.585122,-8.05095 -8.347615,-12.09224 -0.620334,-0.80777 -0.181389,-2.00695 0.742369,-2.35003 5.167757,-2.9876 10.1854,-6.24005 15.402122,-9.14952 -0.49609,1.54166 -0.992189,3.08333 -1.488282,4.625 z m 31.724612,-3.64063 c 3.41084,5.56452 6.54967,11.28973 9.79101,16.95313 -4.58113,-3.07078 -9.21876,-6.06586 -13.63476,-9.375 1.13021,-2.83052 2.05254,-5.71435 3.24414,-8.51953 0.19987,0.3138 0.39974,0.6276 0.59961,0.9414 z m -19.4375,1.85352 c 3.71262,2.46273 7.43096,4.87288 10.99804,7.52929 -1.55731,3.99613 -3.02144,8.00432 -4.64453,11.97461 -3.23849,-7.26496 -6.55132,-14.49602 -9.77929,-21.76562 1.14192,0.75391 2.28385,1.50781 3.42578,2.26172 z m -2.17188,9.40429 c 1.82668,4.04036 3.63876,8.08668 5.43945,12.13868 -6.08834,0.51327 -12.2036,0.81451 -18.291011,1.23828 -0.338812,-0.47439 0.218017,-1.03085 0.260393,-1.53882 2.447685,-7.72746 4.958998,-15.43333 7.495468,-23.12524 1.69857,3.76236 3.39713,7.52473 5.0957,11.2871 z m -40.181639,-5.77929 c 2.569576,1.10001 5.132535,2.21503 7.683594,3.35742 -2.792952,1.57711 -5.562579,3.17734 -8.396484,4.63086 -0.906096,-0.42326 -1.15136,-1.53236 -1.683136,-2.30475 -1.507333,-2.82426 -2.957239,-5.67895 -4.379364,-8.54681 2.258463,0.95442 4.516927,1.90885 6.77539,2.86328 z m -9.53125,-0.16992 c 1.595088,3.1287 3.22499,6.24725 4.644531,9.45898 0.195012,0.67563 -0.320636,1.33105 -0.06364,2.02247 0.235731,0.84126 -0.544236,1.48652 -0.834937,2.21338 -2.317791,3.96357 -4.805626,7.82346 -7.292831,11.68212 -0.360053,0.51997 -0.719919,1.04112 -1.115234,1.53516 -1.962033,-2.08996 -3.581429,-4.4709 -5.372874,-6.70403 -1.684963,-2.19265 -3.453712,-4.34093 -4.959157,-6.65926 0.289856,-0.65017 0.254601,-1.41494 0.05078,-2.10742 3.034583,-3.4271 6.349649,-6.58911 9.506412,-9.90272 1.349876,-1.38404 2.701383,-2.7667 4.083432,-4.11876 0.451171,0.86002 0.902343,1.72005 1.353515,2.58008 z m -35.044922,5.69335 c 4.0541,2.03805 8.125019,4.04241 12.15625,6.125 -5.762343,3.11786 -11.558864,6.17386 -17.380859,9.17774 1.216726,-4.66128 2.587062,-9.27357 3.874523,-13.91723 0.147945,-0.63446 0.521646,-1.16757 1.183906,-1.33105 0.05204,-0.0272 0.109991,-0.0397 0.16618,-0.0545 z m 55.730469,0.4668 c 1.377281,0.76727 1.949246,2.35797 2.90137,3.53749 2.581299,3.81862 5.211636,7.60576 7.66113,11.51134 -1.97855,3.26269 -4.029593,6.48273 -6.203125,9.61914 -4.743284,-5.96598 -9.392727,-12.04884 -13.855469,-18.24609 -0.205305,-0.38844 -0.819705,-0.96623 -0.196387,-1.26248 2.236334,-1.43492 4.605368,-2.66348 6.924925,-3.96258 0.860792,-0.43885 1.709164,-0.92929 2.615212,-1.26127 l 0.0921,0.039 z m 47.144532,1.11719 c 4.37355,2.73703 8.63359,5.6489 12.93164,8.5 -6.3034,0.50476 -12.61164,0.88913 -18.91797,1.18945 1.39162,-3.59997 2.69559,-7.23528 4.16992,-10.80468 0.60547,0.37174 1.21094,0.74348 1.81641,1.11523 z m -59.347657,8.03711 c 3.62459,4.57427 7.071307,9.28631 10.627373,13.91374 0.720563,0.95258 1.441126,1.90516 2.16169,2.85774 -6.897208,-0.99183 -13.799954,-1.94642 -20.701706,-2.90698 -0.507042,-0.14196 -1.418446,-0.0747 -1.682657,-0.34231 1.953853,-3.8193 4.445341,-7.36198 6.724206,-11.03586 0.731513,-1.09568 1.434952,-2.2116 2.226563,-3.26563 0.214844,0.25977 0.429687,0.51953 0.644531,0.7793 z m -30.556641,0.30859 c -2.082508,4.4408 -4.143058,8.97147 -6.433593,13.34375 -3.210316,-1.63 -6.462927,-3.20621 -9.652344,-4.89062 5.352801,-2.88683 10.750748,-5.68713 16.123047,-8.53711 z m 3.302735,6.40821 c 0.778189,5.21887 1.580358,10.43426 2.310547,15.66015 -2.440174,-1.77993 -4.87867,-3.57964 -7.154297,-5.56445 -0.37499,-0.59823 -0.192022,-1.3822 -0.622425,-1.97145 -0.36885,-0.58248 0.232047,-1.21068 0.347034,-1.79613 1.467384,-3.34172 3.015881,-6.69254 4.589844,-10.01172 0.176432,1.22787 0.352865,2.45573 0.529297,3.6836 z m 4.460937,-1.4004 c 2.335549,3.0264 4.733411,6.01655 6.91211,9.15626 0.349494,0.74027 0.0462,1.67596 0.646951,2.33655 0.419702,0.78342 1.503766,0.92412 1.718283,1.83727 1.751621,5.3881 3.77794,10.70571 5.50586,16.08594 0.451526,0.91932 -0.307572,0.20766 -0.731901,-0.0845 -3.985437,-2.89797 -7.893268,-5.90367 -11.79245,-8.91504 -0.529398,-0.45187 -0.281367,-1.25423 -0.485098,-1.86358 -0.965256,-6.69394 -2.008063,-13.37644 -2.972973,-20.07042 0.399739,0.50586 0.799479,1.01172 1.199218,1.51757 z m 97.080076,-1.04687 c -1.03441,2.80439 -2.13432,5.58885 -3.37109,8.31055 -0.32675,0.13684 -1.02989,-0.43855 -1.4997,-0.57715 -4.54747,-2.14661 -9.06681,-4.42346 -13.54327,-6.74121 5.96702,-0.41743 11.96443,-0.82773 17.91474,-1.19497 0.19389,0.0573 0.80312,-0.22103 0.49932,0.20278 z m -27.51367,2.5332 c -0.67667,4.62766 -1.47437,9.23656 -2.18945,13.86524 -4.83324,-4.27612 -9.55671,-8.7187 -14.318362,-13.09375 5.508112,-0.48686 11.023152,-0.77361 16.541012,-1.04688 -0.0111,0.0918 -0.0221,0.1836 -0.0332,0.27539 z m 30.58398,4.58008 c 0.23545,1.65051 0.47973,3.30047 0.63477,4.96094 -1.25634,-0.58485 -2.49973,-1.19807 -3.71875,-1.85742 0.81743,-2.2044 1.66916,-4.39592 2.53906,-6.58008 0.18164,1.15885 0.36328,2.31771 0.54492,3.47656 z m -26.9746,-3.39648 c 3.43244,4.06561 6.5692,8.37669 9.71679,12.66601 -4.03112,0.6338 -8.056,1.38095 -12.08398,1.83008 0.71797,-4.85292 1.48463,-9.69135 2.32812,-14.5293 z m 8.8496,3.07617 c 3.45165,1.73608 6.8928,3.49522 10.30079,5.3164 -0.40012,0.93346 -0.6175,2.04458 -1.25421,2.81914 -1.28462,0.44907 -2.65522,0.57119 -3.99384,0.74922 -2.65744,-3.35618 -5.22008,-6.81309 -7.7832,-10.25195 0.91015,0.45573 1.82031,0.91146 2.73046,1.36719 z m -30.437495,0.20508 c 4.573605,4.05363 9.071635,8.22936 13.519615,12.43821 0.28942,0.31131 0.89332,0.72613 0.33585,1.09499 -1.0901,0.75724 -2.28608,1.36494 -3.40944,2.07806 -3.05834,1.8392 -6.07587,3.75776 -9.223369,5.44733 -0.595986,-3.24903 -0.802326,-6.55583 -1.209445,-9.83193 -0.449106,-4.12909 -0.910466,-8.25681 -1.351102,-12.38682 0.445964,0.38672 0.891927,0.77344 1.337891,1.16016 z m -3.8125,9.61523 c 0.292318,2.66341 0.584635,5.32682 0.876953,7.99024 -1.973379,-2.85247 -4.066011,-5.64264 -5.851562,-8.61719 -0.230603,-0.79993 -0.227358,-1.68696 -0.308694,-2.48578 1.053812,-2.24721 2.584706,-4.22526 3.93174,-6.29938 0.451601,-0.86923 0.283623,0.6591 0.41675,1.02225 0.311605,2.79662 0.623209,5.59324 0.934813,8.38986 z m -70.724609,-7.55273 c 2.449779,1.17915 4.920581,2.34243 7.27539,3.69726 0.446208,0.63318 -0.239488,1.335 -0.401368,1.96214 -1.029173,2.34695 -2.246784,4.60579 -3.426757,6.87771 -1.882104,-4.48777 -3.721621,-8.99358 -5.519531,-13.51563 0.690755,0.32617 1.38151,0.65234 2.072266,0.97852 z m 38.980468,4.36914 c 6.392465,0.87946 12.788532,1.73533 19.169922,2.69336 -2.570513,2.84745 -5.230209,5.70333 -7.961434,8.42641 -0.477878,0.37443 -1.098214,0.47245 -1.68505,0.53843 -3.577229,-3.92533 -7.244825,-7.7698 -10.705078,-11.80078 0.39388,0.0475 0.78776,0.095 1.18164,0.14258 z m 80.748046,0.74804 c -0.38635,-0.0268 -1.41715,0.44974 -1.35693,0.0407 0.0661,-0.90341 0.70789,-0.34122 1.21894,-0.10794 l 0.0899,0.0438 z m -107.623046,2.07422 c 3.225618,2.26945 6.29474,4.70062 9.457032,7.07813 0.247906,1.76704 0.663391,3.51721 0.720703,5.30664 -5.240547,-1.20881 -10.488773,-2.42915 -15.736328,-3.625 -0.666117,-0.40811 0.09724,-1.1355 0.223979,-1.64686 1.243686,-2.68755 2.597359,-5.38439 4.080708,-7.97619 0.417969,0.28776 0.835938,0.57552 1.253906,0.86328 z m 110.408206,1.1836 c -1.70729,2.63114 -3.34465,5.31403 -5.26172,7.80078 -0.78905,-0.87935 -1.44269,-1.86583 -2.15235,-2.80664 0.56805,-1.38605 1.12922,-2.77368 1.68165,-4.16602 1.91678,-0.13753 3.89119,-0.594 5.73242,-0.82812 z m -83.58594,2.59765 c 2.500113,2.71006 4.993628,5.42724 7.416016,8.20703 -1.244421,1.37072 -2.718567,2.5149 -4.107422,3.72461 -0.677432,-1.45614 -1.039902,-3.03623 -1.635066,-4.52759 -1.035708,-2.98234 -2.071415,-5.96468 -3.107122,-8.94702 0.477865,0.51433 0.955729,1.02865 1.433594,1.54297 z m 73.64258,-1 c -0.10958,0.15531 -0.002,-0.23006 0,0 z m -48.208986,1.51172 c 1.956401,2.86149 3.950275,5.69751 5.886718,8.57227 -2.519874,0.12344 -5.044361,0.15327 -7.566406,0.0859 -0.201176,-0.46694 -1.008128,-0.67048 -0.740264,-1.2512 0.532089,-2.90827 0.976653,-5.8316 1.46878,-8.74685 0.317057,0.44661 0.634114,0.89323 0.951172,1.33984 z m 43.921876,-0.74414 c 0.95037,0.7216 1.51372,1.8239 2.27594,2.72657 0.5953,0.46266 0.12196,1.08709 -0.0183,1.65442 -0.19897,0.46973 -0.30141,1.13788 -0.92361,1.16198 -0.4875,0.25257 -1.04834,0.44997 -1.53645,0.093 -3.16066,-1.30981 -6.24146,-2.80214 -9.35808,-4.21022 3.18207,-0.53673 6.347,-1.07819 9.56055,-1.42578 z m -48.951173,1.66406 c -0.390335,2.3291 -0.656663,4.69372 -1.299012,6.973 -0.302721,0.31929 -0.880372,-0.19682 -1.277787,-0.19628 -1.212089,-0.36152 -2.3992,-0.80249 -3.565779,-1.29039 1.983594,-2.4388 4.258461,-4.61754 6.373047,-6.93945 -0.07682,0.48437 -0.153646,0.96875 -0.230469,1.45312 z M 112.25,178.1811 c 0.4557,2.29203 0.49927,4.64266 0.77633,6.96006 0.0688,1.13008 0.29684,2.31485 0.0574,3.42057 -0.43414,0.78726 -0.53958,1.6852 -0.65604,2.55297 -0.27121,0.79907 -0.74738,1.56183 -1.35156,2.13476 -0.47284,0.0178 -1.01232,0.12866 -1.45542,0.0351 -3.25153,-2.23895 -6.32043,-4.79537 -9.39224,-7.21375 -0.665444,-0.31374 -0.371141,-0.61246 0.12355,-0.8633 2.83942,-1.90307 5.85423,-3.52537 8.74011,-5.35553 1.0227,-0.62056 2.05477,-1.23172 3.1383,-1.74119 z m 8.79297,1.30274 c 2.84028,1.30667 5.75935,2.48635 8.45312,4.08007 0.62338,0.23201 0.34095,0.86978 0.0879,1.19727 -0.69074,1.23819 -1.5052,2.40012 -2.27148,3.58984 -0.81918,-0.44833 -1.26821,-1.34836 -1.89739,-2.01331 -1.92472,-2.43892 -3.80416,-4.91367 -5.63972,-7.42028 0.42253,0.1888 0.84505,0.3776 1.26758,0.56641 z m -3.28711,2.87109 c 1.76597,2.29595 3.51616,4.60407 5.23242,6.9375 -1.54965,-0.0205 -3.11172,-0.0452 -4.64648,-0.24219 -0.45564,-0.46646 -0.71746,-1.19252 -1.38672,-1.40234 -0.33433,-2.41879 -0.52962,-4.83724 -0.74024,-7.2793 0.51368,0.66211 1.02735,1.32422 1.54102,1.98633 z m 18.22461,-1.39453 c 0.25952,0.70879 -0.88694,-0.38383 -0.13564,-0.16701 0.0452,0.0557 0.0904,0.11134 0.13564,0.16701 z m -86.017579,1.27148 c 1.398141,1.02204 2.789022,2.05421 4.175781,3.0918 -1.462447,-0.4249 -2.993482,-0.71091 -4.34961,-1.32031 -0.314984,-0.57395 -0.779063,-1.01668 -1.295203,-1.40239 -0.445308,-0.50225 -0.393446,-1.21135 -0.534875,-1.82613 0.667969,0.48568 1.335938,0.97136 2.003907,1.45703 z m 42.507812,4.69336 c 0.694114,-0.0282 1.507649,-0.0368 1.917969,0.62696 0.363969,0.25634 0.734597,0.53458 0.636332,1.03648 0.308992,2.69607 0.436299,5.40842 0.635152,8.11391 -3.055082,-3.2176 -6.142221,-6.40452 -9.21875,-9.60157 1.968488,-0.12991 4.020574,-0.14306 6.029297,-0.17578 z m 10.271487,5.74805 c 1.36961,1.07809 2.75087,2.14194 4.09179,3.25586 -2.34054,0.99435 -4.72178,2.00292 -7.128902,2.77539 -0.574623,-0.59217 -0.288287,-1.57029 -0.44625,-2.3255 -0.161533,-2.24066 -0.29141,-4.45829 -0.389687,-6.70184 1.291019,0.99869 2.582029,1.99739 3.873049,2.99609 z m 4.85547,7.27734 c -0.31278,0.96756 -1.26567,1.74664 -2.32,1.47992 -0.50085,-0.0683 -0.98822,-0.2085 -1.48469,-0.30023 1.28451,-0.51889 2.61424,-1.04843 3.93945,-1.52148 -0.0449,0.11393 -0.0898,0.22786 -0.13476,0.34179 z m 3.58593,1.30274 c 0.35087,0.6883 0.69131,1.38162 1.02149,2.08008 -0.76127,-0.20123 -1.76915,-0.85217 -1.33714,-1.76942 0.0925,-0.178 0.14663,-0.86677 0.31565,-0.31066 z m -6.49414,3.73437 c 0.5488,0.0729 1.01201,0.46402 1.05664,1.03516 -0.47258,-0.34698 -0.9279,-0.71814 -1.37304,-1.09961 0.10547,0.0215 0.21093,0.043 0.3164,0.0644 z m 5.34766,1.4668 c 0.95794,0.13167 0.10981,0.23144 -0.33594,0.28711 -0.70386,0.15246 0.17316,-0.30847 0.33594,-0.28711 z" /></g></svg>
