<?xml version="1.0" encoding="UTF-8" standalone="no"?>
<!-- Created with Inkscape (http://www.inkscape.org/) -->

<svg
   width="136mm"
   height="135.341mm"
   viewBox="0 0 136 135.341"
   version="1.1"
   id="svg1"
   xml:space="preserve"
   xmlns="http://www.w3.org/2000/svg"
   xmlns:svg="http://www.w3.org/2000/svg"><defs
     id="defs1" /><g
     id="layer1"
     transform="translate(-75.185322,-104.81074)"><path
       style="fill:#000000"
       d="m 128.44869,239.89311 c -1.30152,-0.4157 -3.51409,-2.70901 -3.91157,-4.05431 -0.17697,-0.59896 -0.32177,-1.75982 -0.32177,-2.57968 v -1.49066 l -14.61822,-0.004 c -16.29743,-0.004 -16.524252,-0.0246 -19.854567,-1.77467 -3.329774,-1.74974 -5.893836,-4.87103 -7.232894,-8.80475 -0.476807,-1.40071 -0.495361,-3.22416 -0.495361,-48.68333 0,-45.45918 0.01855,-47.28263 0.495361,-48.68333 1.320501,-3.87921 3.964278,-7.08715 7.274196,-8.82646 3.283875,-1.72563 3.543629,-1.74861 19.813265,-1.75296 l 14.61822,-0.004 v -1.49066 c 0,-2.26706 0.48361,-3.49735 1.97883,-5.03406 0.91974,-0.94527 1.67168,-1.45644 2.44398,-1.66143 0.7655,-0.20318 4.88158,-0.27289 13.11798,-0.22216 l 12.00247,0.0739 1.29482,0.80075 c 0.8019,0.49592 1.59964,1.29365 2.09556,2.09557 l 0.80074,1.29484 0.0737,12.38428 0.0737,12.38429 -0.6428,1.26284 c -0.78718,1.54648 -1.52613,2.25756 -3.07644,2.9604 -1.1425,0.51796 -1.67719,0.53978 -13.22916,0.53978 -13.68027,0 -13.26936,0.0589 -15.24336,-2.18371 -1.23594,-1.40411 -1.68998,-2.68849 -1.68998,-4.78067 v -1.49066 h -12.7 -12.7 v 16.93123 16.93123 l 15.57064,0.0683 15.57063,0.0682 -3.92257,8.33438 -3.92257,8.33437 -11.64806,0.0689 -11.64807,0.0689 v 16.93058 16.93058 h 12.7 12.7 v -1.54037 c 0,-0.8472 0.18688,-2.08881 0.41528,-2.75913 0.52802,-1.54965 2.54081,-3.48741 4.04245,-3.89176 0.73115,-0.19688 4.962,-0.26707 13.08306,-0.21705 l 12.00247,0.0739 1.29482,0.80075 c 0.80222,0.49611 1.59944,1.29347 2.09556,2.09592 l 0.80074,1.29517 v 12.6092 12.60921 l -0.80074,1.29517 c -0.49613,0.80246 -1.29333,1.5998 -2.09558,2.09592 l -1.29482,0.80074 -12.19193,0.043 c -8.36935,0.0295 -12.48228,-0.0497 -13.11797,-0.25275 z m 21.16666,-16.59132 v -8.46666 h -8.46666 -8.46667 v 8.46666 8.46667 h 8.46667 8.46666 z m 0,-101.59999 v -8.46666 h -8.46666 -8.46667 v 8.46666 8.46667 h 8.46667 8.46666 z m 24.48903,67.19582 c -2.38364,-1.1985 -3.58017,-3.24864 -3.58436,-6.14147 l -0.003,-1.78419 -18.88387,-0.0679 -18.88386,-0.0679 3.91774,-8.33437 3.91773,-8.33438 14.93821,-0.0683 14.93821,-0.0683 0.0941,-2.06912 c 0.11805,-2.59684 1.01828,-4.24059 2.99036,-5.46017 l 1.29482,-0.80074 12.00247,-0.0739 c 8.12105,-0.05 12.35191,0.0202 13.08306,0.21704 0.64417,0.17346 1.59686,0.77388 2.35888,1.48666 2.14766,2.00889 2.13114,1.88147 2.04298,15.75468 l -0.0764,12.02664 -0.80074,1.29475 c -0.49589,0.80181 -1.29372,1.59961 -2.09558,2.09549 l -1.29484,0.80075 -12.4565,0.0597 c -11.95718,0.0573 -12.49832,0.0386 -13.49977,-0.46489 z m 21.81306,-16.39582 v -8.46667 h -8.46667 -8.46667 v 8.46667 8.46666 h 8.46667 8.46667 z"
       id="path1" /></g></svg>
