<?xml version="1.0" encoding="UTF-8" standalone="no"?>
<svg
   xmlns:dc="http://purl.org/dc/elements/1.1/"
   xmlns:cc="http://creativecommons.org/ns#"
   xmlns:rdf="http://www.w3.org/1999/02/22-rdf-syntax-ns#"
   xmlns:svg="http://www.w3.org/2000/svg"
   xmlns="http://www.w3.org/2000/svg"
   xmlns:sodipodi="http://sodipodi.sourceforge.net/DTD/sodipodi-0.dtd"
   xmlns:inkscape="http://www.inkscape.org/namespaces/inkscape"
   viewBox="0 -1000 1000 1000"
   version="1.1"
   id="svg1360"
   sodipodi:docname="broken-picture.svg"
   inkscape:version="0.92.5 (2060ec1f9f, 2020-04-08)">
  <metadata
     id="metadata1366">
    <rdf:RDF>
      <cc:Work
         rdf:about="">
        <dc:format>image/svg+xml</dc:format>
        <dc:type
           rdf:resource="http://purl.org/dc/dcmitype/StillImage" />
        <dc:title></dc:title>
      </cc:Work>
    </rdf:RDF>
  </metadata>
  <defs
     id="defs1364" />
  <sodipodi:namedview
     pagecolor="#ffffff"
     bordercolor="#666666"
     borderopacity="1"
     objecttolerance="10"
     gridtolerance="10"
     guidetolerance="10"
     inkscape:pageopacity="0"
     inkscape:pageshadow="2"
     inkscape:window-width="1848"
     inkscape:window-height="1016"
     id="namedview1362"
     showgrid="false"
     inkscape:zoom="0.838"
     inkscape:cx="500"
     inkscape:cy="500"
     inkscape:window-x="72"
     inkscape:window-y="27"
     inkscape:window-maximized="1"
     inkscape:current-layer="svg1360" />
  <path
     d="M 20.852235,-136.32049 Q 9.0326508,-142.68488 2.6682592,-154.50448 0.84986175,-161.77806 0.84986175,-499.0908 v -340.94955 l 2.72759605,-6.36439 q 3.6367954,-8.18278 9.0919882,-11.81958 l 1.818397,-1.8184 q 2.727597,-2.72758 7.27359,-3.6368 6.364393,-1.81838 26.821365,-2.27298 20.456972,-0.4546 70.462912,-0.4546 H 338.1626 q 307.30918,0 307.30918,0.9092 0,0.90918 -37.27713,39.09554 l -44.55074,44.55073 -82.7371,82.7371 56.37033,56.37033 31.82195,32.73116 q 27.27597,27.27596 28.18517,29.09436 2.72759,5.45519 2.72759,14.54718 0,9.09198 -2.72759,14.54718 l -3.6368,3.63679 q -30.91276,32.73116 -56.37032,58.18872 l -56.37033,56.37032 56.37033,57.27953 q 25.45756,25.45756 56.37032,58.18872 l 3.6368,3.63679 q 2.72759,4.546 2.72759,14.09258 0,9.54659 -2.72759,14.09259 -1.81841,2.72758 -23.63917,25.45755 -24.54837,25.45758 -52.73353,53.64273 l -73.6451,73.64511 H 27.216626 Z m 232.754885,-294.5804 q 5.45519,-1.8184 13.18339,-1.8184 7.72818,0 14.09257,2.72759 6.3644,2.7276 95.46587,91.82908 l 90.01068,90.01068 26.36676,-25.45757 26.36677,-26.36676 -58.18872,-58.18871 q -42.73234,-42.73235 -50.46054,-50.91514 -7.72818,-8.1828 -8.63737,-13.63799 -3.63681,-12.72877 1.81838,-25.45756 2.72761,-5.4552 59.09793,-61.82552 l 56.37032,-56.37032 -57.27952,-56.37033 q -57.27953,-58.18871 -58.18873,-61.8255 -5.45519,-13.63799 -1.81838,-25.45757 1.81838,-4.54601 8.63737,-12.72879 6.819,-8.18278 35.00416,-35.45876 l 40.00475,-41.82314 -208.20653,0.90921 H 68.130571 v 550.97446 l 90.010679,-90.01068 q 90.01067,-90.01068 95.46587,-92.73828 z m 339.13115,245.48366 q 52.73351,-52.73354 55.46111,-58.18872 17.27478,-26.36677 17.27478,-56.37033 0,-9.09198 -1.81839,-20.00236 -1.81841,-10.91039 -4.546,-17.27478 -5.45519,-12.72879 -12.72877,-21.82077 -7.27361,-9.09199 -33.64036,-35.45875 l -32.73116,-33.64036 32.73116,-32.73115 20.00236,-19.09318 q 16.36559,-16.36559 18.18398,-17.27478 5.45519,-1.81839 15.45638,-1.81839 10.00119,0 14.54719,1.81839 4.54599,1.8184 128.19702,126.37863 l 122.74184,122.74184 V -800.0356 l -128.19703,0.90921 q -128.19702,0 -128.19702,-0.90921 l 32.73115,-33.64035 33.64035,-32.73116 h 200.02373 q 25.45757,0.9092 33.64036,1.81839 6.36439,1.81841 10.91038,5.4552 l 0.9092,0.90919 q 5.4552,3.6368 9.09198,11.81959 l 2.72763,6.36439 v 340.94955 q 0,337.31274 -1.81843,344.58632 -6.36439,11.8196 -18.18397,18.18399 l -6.36439,2.72759 H 540.91394 Z"
     id="path1358"
     inkscape:connector-curvature="0"
     style="fill:#000000;stroke-width:0.90919876" />
</svg>
