<svg xmlns="http://www.w3.org/2000/svg" viewBox="0 -1000 1000 1000">
	<path fill="#000000" d="M-27 50Q-40 43 -47 30Q-49 22 -49 -349V-724L-46 -731Q-42 -740 -36 -744L-34 -746Q-31 -749 -26 -750Q-19 -752 3.5 -752.5Q26 -753 81 -753H322Q660 -753 660 -752Q660 -751 619 -709L570 -660L479 -569L541 -507L576 -471Q606 -441 607 -439Q610 -433 610 -423Q610 -413 607 -407L603 -403Q569 -367 541 -339L479 -277L541 -214Q569 -186 603 -150L607 -146Q610 -141 610 -130.5Q610 -120 607 -115Q605 -112 581 -87Q554 -59 523 -28L442 53H-20ZM229 -274Q235 -276 243.5 -276Q252 -276 259 -273Q266 -270 364 -172L463 -73L492 -101L521 -130L457 -194Q410 -241 401.5 -250Q393 -259 392 -265Q388 -279 394 -293Q397 -299 459 -361L521 -423L458 -485Q395 -549 394 -553Q388 -568 392 -581Q394 -586 401.5 -595Q409 -604 440 -634L484 -680L255 -679H25V-73L124 -172Q223 -271 229 -274ZM602 -4Q660 -62 663 -68Q682 -97 682 -130Q682 -140 680 -152Q678 -164 675 -171Q669 -185 661 -195Q653 -205 624 -234L588 -271L624 -307L646 -328Q664 -346 666 -347Q672 -349 683 -349Q694 -349 699 -347Q704 -345 840 -208L975 -73V-680L834 -679Q693 -679 693 -680L729 -717L766 -753H986Q1014 -752 1023 -751Q1030 -749 1035 -745L1036 -744Q1042 -740 1046 -731L1049 -724V-349Q1049 22 1047 30Q1040 43 1027 50L1020 53H545Z"/>
</svg>