<svg xmlns="http://www.w3.org/2000/svg" viewBox="0 -1000 1000 1000">
	<path fill="#000000" d="M786 -331V-154Q786 -87 739 -40Q692 7 625 7H161Q94 7 47 -40Q0 -87 0 -154V-618Q0 -684 47 -731Q94 -778 161 -779H625Q660 -779 690 -765Q699 -761 700.5 -751.5Q702 -742 695 -736L668 -708Q662 -703 655 -703L650 -704Q637 -707 625 -707H161Q124 -707 98 -681Q72 -655 71 -618V-154Q71 -117 98 -91Q125 -65 161 -64H625Q662 -64 688 -91Q714 -118 714 -154V-295Q714 -303 719 -308L755 -343Q761 -349 768 -349Q771 -349 775 -347Q786 -343 786 -331ZM915 -604L460 -150Q447 -136 429 -136Q411 -136 397 -150L157 -390Q143 -403 143 -421Q143 -439 157 -453L218 -515Q232 -528 250 -528Q268 -528 282 -515L429 -368L790 -729Q803 -742 821 -742Q839 -742 853 -729L915 -668Q928 -654 928 -636Q928 -618 915 -604Z"/>
</svg>