<?xml version="1.0" encoding="UTF-8" standalone="no"?>
<svg
   xmlns:dc="http://purl.org/dc/elements/1.1/"
   xmlns:cc="http://creativecommons.org/ns#"
   xmlns:rdf="http://www.w3.org/1999/02/22-rdf-syntax-ns#"
   xmlns:svg="http://www.w3.org/2000/svg"
   xmlns="http://www.w3.org/2000/svg"
   xmlns:sodipodi="http://sodipodi.sourceforge.net/DTD/sodipodi-0.dtd"
   xmlns:inkscape="http://www.inkscape.org/namespaces/inkscape"
   viewBox="0 -1000 1000 1000"
   version="1.1"
   id="svg1412"
   sodipodi:docname="check.svg"
   inkscape:version="0.92.5 (2060ec1f9f, 2020-04-08)">
  <metadata
     id="metadata1418">
    <rdf:RDF>
      <cc:Work
         rdf:about="">
        <dc:format>image/svg+xml</dc:format>
        <dc:type
           rdf:resource="http://purl.org/dc/dcmitype/StillImage" />
        <dc:title></dc:title>
      </cc:Work>
    </rdf:RDF>
  </metadata>
  <defs
     id="defs1416" />
  <sodipodi:namedview
     pagecolor="#ffffff"
     bordercolor="#666666"
     borderopacity="1"
     objecttolerance="10"
     gridtolerance="10"
     guidetolerance="10"
     inkscape:pageopacity="0"
     inkscape:pageshadow="2"
     inkscape:window-width="1848"
     inkscape:window-height="1016"
     id="namedview1414"
     showgrid="false"
     inkscape:zoom="0.838"
     inkscape:cx="500"
     inkscape:cy="500"
     inkscape:window-x="72"
     inkscape:window-y="27"
     inkscape:window-maximized="1"
     inkscape:current-layer="svg1412" />
  <path
     d="m 845.83954,-440.92802 v 190.10436 q 0,71.9604 -50.47968,122.44009 -50.47969,50.479683 -122.44009,50.479683 H 174.5671 q -71.9604,0 -122.440092,-50.479683 Q 1.64732,-178.86326 1.64732,-250.82366 v -498.35267 q 0,-70.88636 50.479688,-121.36606 50.479692,-50.47968 122.440092,-51.55372 h 498.35267 q 37.59125,0 69.81233,15.03651 9.66632,4.29614 11.27738,14.49948 1.61105,10.20334 -5.9072,16.64755 l -28.99897,30.07301 q -6.44422,5.37018 -13.96247,5.37018 l -5.37017,-1.07403 q -13.96247,-3.22211 -26.8509,-3.22211 H 174.5671 q -39.73933,0 -67.66426,27.92493 -27.924935,27.92493 -28.998965,67.66426 v 498.35267 q 0,39.73932 28.998965,67.66426 28.99897,27.92493 67.66426,28.99897 h 498.35267 q 39.73932,0 67.66426,-28.99897 27.92493,-28.99897 27.92493,-67.66426 v -151.43906 q 0,-8.5923 5.37018,-13.96248 l 38.6653,-37.59126 q 6.44421,-6.44421 13.96246,-6.44421 3.22211,0 7.51825,2.14807 11.81439,4.29614 11.81439,17.18458 z m 138.55068,-293.2118 -488.68638,487.6123 q -13.96247,15.0365 -33.29511,15.0365 -19.33265,0 -34.36916,-15.0365 L 170.27096,-504.29614 q -15.0365,-13.96247 -15.0365,-33.29512 0,-19.33264 15.0365,-34.36914 l 65.51619,-66.59023 q 15.0365,-13.96247 34.36915,-13.96247 19.33264,0 34.36915,13.96247 l 157.88328,157.88328 387.72697,-387.72697 q 13.96246,-13.96246 33.2951,-13.96246 19.33265,0 34.36916,13.96246 l 66.59026,65.51619 q 13.96246,15.03651 13.96246,34.36916 0,19.33264 -13.96246,34.36915 z"
     id="path1410"
     inkscape:connector-curvature="0"
     style="fill:#000000;stroke-width:1.07403588" />
</svg>
