<?xml version="1.0" encoding="UTF-8" standalone="no"?>
<!-- Uploaded to: SVG Repo, www.svgrepo.com, Generator: SVG Repo Mixer Tools -->

<svg
   xmlns:dc="http://purl.org/dc/elements/1.1/"
   xmlns:cc="http://creativecommons.org/ns#"
   xmlns:rdf="http://www.w3.org/1999/02/22-rdf-syntax-ns#"
   xmlns:svg="http://www.w3.org/2000/svg"
   xmlns="http://www.w3.org/2000/svg"
   xmlns:sodipodi="http://sodipodi.sourceforge.net/DTD/sodipodi-0.dtd"
   xmlns:inkscape="http://www.inkscape.org/namespaces/inkscape"
   width="800px"
   height="800px"
   viewBox="0 0 24 24"
   fill="none"
   version="1.1"
   id="svg865"
   sodipodi:docname="cloud-rain.svg"
   inkscape:version="0.92.5 (2060ec1f9f, 2020-04-08)">
  <metadata
     id="metadata871">
    <rdf:RDF>
      <cc:Work
         rdf:about="">
        <dc:format>image/svg+xml</dc:format>
        <dc:type
           rdf:resource="http://purl.org/dc/dcmitype/StillImage" />
      </cc:Work>
    </rdf:RDF>
  </metadata>
  <defs
     id="defs869" />
  <sodipodi:namedview
     pagecolor="#ffffff"
     bordercolor="#666666"
     borderopacity="1"
     objecttolerance="10"
     gridtolerance="10"
     guidetolerance="10"
     inkscape:pageopacity="0"
     inkscape:pageshadow="2"
     inkscape:window-width="1848"
     inkscape:window-height="1016"
     id="namedview867"
     showgrid="false"
     inkscape:zoom="1.07"
     inkscape:cx="400"
     inkscape:cy="400"
     inkscape:window-x="72"
     inkscape:window-y="27"
     inkscape:window-maximized="1"
     inkscape:current-layer="svg865" />
  <path
     style="color:#000000;font-style:normal;font-variant:normal;font-weight:normal;font-stretch:normal;font-size:medium;line-height:normal;font-family:sans-serif;font-variant-ligatures:normal;font-variant-position:normal;font-variant-caps:normal;font-variant-numeric:normal;font-variant-alternates:normal;font-feature-settings:normal;text-indent:0;text-align:start;text-decoration:none;text-decoration-line:none;text-decoration-style:solid;text-decoration-color:#000000;letter-spacing:normal;word-spacing:normal;text-transform:none;writing-mode:lr-tb;direction:ltr;text-orientation:mixed;dominant-baseline:auto;baseline-shift:baseline;text-anchor:start;white-space:normal;shape-padding:0;clip-rule:nonzero;display:inline;overflow:visible;visibility:visible;opacity:1;isolation:auto;mix-blend-mode:normal;color-interpolation:sRGB;color-interpolation-filters:linearRGB;solid-color:#000000;solid-opacity:1;vector-effect:none;fill:#000000;fill-opacity:1;fill-rule:nonzero;stroke:none;stroke-width:2;stroke-linecap:round;stroke-linejoin:round;stroke-miterlimit:4;stroke-dasharray:none;stroke-dashoffset:0;stroke-opacity:1;color-rendering:auto;image-rendering:auto;shape-rendering:auto;text-rendering:auto;enable-background:accumulate"
     d="M 12.689453,2 C 10.103482,2 7.9218438,3.5523321 6.8300781,5.6933594 3.962141,6.4104061 2,8.8819642 2,11.648438 c 0,1.370082 0.440564,2.64936 1.1875,3.6875 a 1.0005969,1.0005969 0 1 0 1.625,-1.167969 C 4.300176,13.455908 4,12.591555 4,11.648438 4,9.6891694 5.4282458,7.8479803 7.6601562,7.4863281 A 1.0001,1.0001 0 0 0 8.421875,6.8886719 C 9.1183819,5.2327019 10.775401,4 12.689453,4 c 2.477673,0 4.473176,1.9035485 4.611328,4.3066406 a 1.0001,1.0001 0 0 0 0.597657,0.859375 C 19.094158,9.6888134 20,11.050483 20,12.496094 c 0,0.839526 -0.290156,1.600645 -0.777344,2.203125 a 1.0001,1.0001 0 1 0 1.554688,1.257812 C 21.540956,15.012711 22,13.801367 22,12.496094 22,10.476021 20.840466,8.7371162 19.185547,7.7519531 18.765591,4.5230229 16.041315,2 12.689453,2 Z m -4.1562499,8.986328 a 1.0001,1.0001 0 0 0 -1.0039062,0.771484 l -2,8 a 1.0006965,1.0006965 0 1 0 1.9414062,0.486329 l 2,-8.001953 a 1.0001,1.0001 0 0 0 -0.9375,-1.25586 z m 7.9999999,0 a 1.0001,1.0001 0 0 0 -1.003906,0.771484 l -2,8.001954 a 1.0004594,1.0004594 0 1 0 1.941406,0.484375 l 2,-8.001953 a 1.0001,1.0001 0 0 0 -0.9375,-1.25586 z m -4,1 a 1.0001,1.0001 0 0 0 -1.003906,0.771484 l -2.0000001,8 a 1.0006965,1.0006965 0 1 0 1.9414061,0.486329 l 2,-8.001953 a 1.0001,1.0001 0 0 0 -0.9375,-1.25586 z"
     id="path863"
     inkscape:connector-curvature="0" />
</svg>
