<?xml version="1.0" encoding="UTF-8" standalone="no"?>
<!-- Created with Inkscape (http://www.inkscape.org/) -->

<svg
   width="80mm"
   height="79.375mm"
   viewBox="0 0 79.999999 79.375"
   version="1.1"
   id="svg1"
   xml:space="preserve"
   xmlns="http://www.w3.org/2000/svg"
   xmlns:svg="http://www.w3.org/2000/svg"><defs
     id="defs1" /><g
     id="layer1"
     transform="translate(-68.44332,-106.69584)"><path
       style="fill:#000000"
       d="m 75.502695,146.38334 v -39.6875 h 32.940615 32.94063 v 12.03854 12.03854 h -3.30728 -3.3073 v -8.73125 -8.73125 H 108.44331 82.117278 v 32.94063 32.94062 h 26.326032 26.32605 v -8.33437 -8.33438 h 3.3073 3.30728 v 11.77396 11.77396 H 108.44331 75.502695 Z m 29.189805,5.41808 c -1.60874,-0.96427 -2.3315,-2.27479 -2.3315,-4.22746 0,-2.90296 2.00586,-4.89479 4.92928,-4.89479 4.86921,0 6.74899,6.42673 2.64165,9.03152 -1.60639,1.01875 -3.63264,1.05384 -5.23943,0.0907 z m 15.39249,0.22675 c -1.2257,-0.64763 -1.75242,-1.18752 -2.28052,-2.33754 -0.81928,-1.78414 -0.49429,-4.11132 0.76925,-5.50858 1.23673,-1.3676 3.88409,-1.90042 5.69108,-1.14542 1.51093,0.63131 3.09328,2.95235 3.09328,4.53733 0,1.58498 -1.58235,3.90602 -3.09328,4.53733 -1.14046,0.47652 -3.19808,0.4356 -4.17982,-0.0831 z m 14.41978,0.15815 c -0.86763,-0.36344 -2.06498,-1.5125 -2.55606,-2.45295 -0.50865,-0.97411 -0.50311,-3.35322 0.0101,-4.34568 1.85253,-3.5824 7.08296,-3.61643 8.89839,-0.0579 1.07409,2.10541 0.43667,4.78599 -1.48697,6.25322 -0.76643,0.58459 -1.28759,0.74735 -2.58213,0.8064 -0.89204,0.0407 -1.91954,-0.0507 -2.28335,-0.20309 z"
       id="path1" /></g></svg>
