<?xml version="1.0" encoding="UTF-8" standalone="no"?>
<!-- Created with Inkscape (http://www.inkscape.org/) -->

<svg
   width="1000"
   height="1000"
   viewBox="0 0 1000 1000"
   version="1.1"
   id="svg1"
   xml:space="preserve"
   inkscape:version="1.3.1 (9b9bdc1480, 2023-11-25, custom)"
   sodipodi:docname="cryo-morph.svg"
   xmlns:inkscape="http://www.inkscape.org/namespaces/inkscape"
   xmlns:sodipodi="http://sodipodi.sourceforge.net/DTD/sodipodi-0.dtd"
   xmlns="http://www.w3.org/2000/svg"
   xmlns:svg="http://www.w3.org/2000/svg"><sodipodi:namedview
     id="namedview1"
     pagecolor="#ffffff"
     bordercolor="#000000"
     borderopacity="0.25"
     inkscape:showpageshadow="2"
     inkscape:pageopacity="0.0"
     inkscape:pagecheckerboard="0"
     inkscape:deskcolor="#d1d1d1"
     inkscape:document-units="px"
     inkscape:zoom="0.49805169"
     inkscape:cx="744.9026"
     inkscape:cy="654.55053"
     inkscape:window-width="1846"
     inkscape:window-height="1016"
     inkscape:window-x="74"
     inkscape:window-y="27"
     inkscape:window-maximized="1"
     inkscape:current-layer="layer1"
     showgrid="false" /><defs
     id="defs1" /><g
     inkscape:label="Calque 1"
     inkscape:groupmode="layer"
     id="layer1"><path
       d="m 435.83888,946.60371 c -5.18473,-1.72824 -9.72138,-4.53664 -13.60995,-8.42519 -3.88855,-3.88855 -6.69695,-8.4252 -8.42519,-13.60994 V 654.96224 l -3.88855,-1.29618 c -7.77711,0 -14.6901,-1.72824 -20.73895,-5.18474 -11.2336,-5.18474 -20.30689,-13.82597 -27.21987,-25.92369 -2.59237,-6.04886 -4.75268,-13.82597 -6.48092,-23.33131 V 320.54669 c 1.72824,-10.36947 5.18473,-19.87482 10.36947,-28.51605 9.50535,-12.96185 22.03514,-21.60308 37.58935,-25.92369 h 193.13146 c 12.09772,2.59237 22.46718,7.99313 31.10843,16.20231 8.64122,8.20916 13.82597,18.36261 15.55421,30.46033 l 1.29618,3.88855 v 286.45673 l -1.29618,3.88855 c -1.72824,7.77711 -4.75269,14.6901 -9.0733,20.73895 -9.50535,15.55421 -23.76337,24.19545 -42.77408,25.92369 l -3.88856,1.29618 V 923.2724 l -1.29618,2.59236 c -2.59237,11.2336 -9.9374,18.57864 -22.03512,22.03513 h -63.51305 c -41.47789,0 -63.08096,-0.43205 -64.8092,-1.29618 z m 54.43975,-694.75479 c -16.41834,-0.86411 -31.75653,-6.26489 -46.01455,-16.2023 -14.25803,-9.93741 -24.84353,-22.25116 -31.75651,-36.94125 -5.18474,-8.64123 -8.64124,-19.44276 -10.36948,-32.40461 -0.86412,-3.45649 -1.29618,-8.20916 -1.29618,-14.25802 0,-6.04886 0.43206,-10.80153 1.29618,-14.25803 2.59237,-16.41834 8.85727,-31.32445 18.79467,-44.718364 9.93742,-13.393898 22.46721,-23.763366 37.58935,-31.108414 15.12215,-7.345047 30.02827,-10.5855 44.71836,-9.721385 21.60307,0 41.04583,6.912983 58.32829,20.738949 17.28246,13.825967 28.94812,31.324444 34.99697,52.495454 6.04886,21.17102 5.18474,42.126 -2.59236,62.86495 -6.04886,15.55421 -15.12215,28.51606 -27.21988,38.88552 -12.09772,10.36947 -26.35574,17.71452 -42.77408,22.03513 -5.18474,1.72824 -12.52978,2.59237 -22.03512,2.59237 -2.59237,0.86413 -6.04887,0.86413 -10.36948,0 z"
       id="path8284"
       inkscape:connector-curvature="0"
       style="fill:#000000;stroke-width:1.29618"
       sodipodi:nodetypes="csccccccccccsccccccccccsccsccscsscsscscccc" /><path
       id="path1"
       style="fill:#000000;fill-opacity:1;stroke-width:2.71993"
       d="m 299.68757,127.22663 c 0.47451,0.0113 0.94471,0.10046 1.4184,0.13272 V 872.6838 c -11.56078,1.07996 -22.2597,-6.83157 -28.41579,-16.91986 -0.55568,-32.63605 -1.10722,-65.2761 -1.66279,-97.91216 -9.97586,11.41681 -19.89336,22.88633 -29.91922,34.25942 -11.63095,36.35512 -72.72683,34.09025 -60.65656,-9.65255 29.52269,-36.15221 60.89608,-70.75273 91.447,-106.03477 -0.29068,-43.38033 -0.58039,-86.76188 -0.87122,-130.14224 -20.20626,11.62697 -40.42516,23.24233 -60.62468,34.88096 -31.90512,15.35611 -61.53018,34.30805 -66.03796,72.30126 -15.78478,31.36403 -15.49926,76.04995 -43.38076,98.18839 C 50.361746,761.89898 67.294196,700.53054 81.0892,674.1502 101.69873,635.06734 59.718263,670.54711 43.281117,677.57668 20.416948,701.5902 -39.57935,709.96415 -24.812759,660.08837 0.72036345,637.50373 33.174618,623.5295 62.272798,605.58354 48.46327,602.78505 34.648012,600.00428 20.841686,597.19 -14.568413,604.21903 -51.876541,556.68565 -8.1850756,539.03557 39.16693,545.20568 85.75216,556.29078 132.67223,565.10866 c 36.98529,-21.77862 74.52366,-42.66069 110.84775,-65.52801 -36.32642,-22.84357 -73.86246,-43.7064 -110.84775,-65.46424 -30.26316,5.93188 -60.49918,12.01505 -90.793598,17.78578 -29.127858,13.9704 -90.654151,7.71952 -62.824009,-36.85716 C 4.3204974,401.36066 34.591775,400.69539 62.272798,393.63623 50.556712,386.91282 38.84229,380.18843 27.126204,373.46516 4.3125214,358.4139 -47.438962,342.23714 -19.882891,307.36345 c 30.529636,-20.61232 60.725388,19.34673 89.417683,29.07988 29.456978,23.87253 10.440188,-12.41569 5.684218,-28.44772 -25.432213,-28.9326 1.63252,-84.96917 37.34062,-52.41175 16.92424,43.19096 29.90369,87.82371 46.53626,131.12506 36.15558,23.9289 74.55333,44.27781 111.9315,66.22388 0.29071,-43.38034 0.58041,-86.76203 0.87122,-130.14222 -22.22327,-25.49747 -44.63393,-50.83215 -66.63826,-76.5193 -31.39434,-16.97149 -37.18566,-75.68416 11.07094,-64.47614 20.12384,17.9931 36.68032,39.53155 54.6961,59.56753 0.5218,-30.65187 1.03997,-61.30511 1.56184,-91.957 0.59685,-14.63632 13.8863,-22.49474 27.09834,-22.17914 z" /><path
       id="path2"
       style="fill:#000000;fill-opacity:1;stroke-width:2.71993"
       d="m 700.31243,127.22663 c -0.47451,0.0113 -0.94471,0.10046 -1.4184,0.13272 V 872.6838 c 11.56078,1.07996 22.2597,-6.83157 28.41579,-16.91986 0.55568,-32.63605 1.10722,-65.2761 1.66279,-97.91216 9.97586,11.41681 19.89336,22.88633 29.91922,34.25942 11.63095,36.35512 72.72683,34.09025 60.65656,-9.65255 -29.52269,-36.15221 -60.89608,-70.75273 -91.447,-106.03477 0.29068,-43.38033 0.58039,-86.76188 0.87122,-130.14224 20.20626,11.62697 40.42516,23.24233 60.62468,34.88096 31.90512,15.35611 61.53018,34.30805 66.03797,72.30126 15.78478,31.36403 15.49926,76.04995 43.38076,98.18839 50.62223,10.24673 33.68978,-51.12171 19.89478,-77.50205 -20.60952,-39.08286 21.37094,-3.60309 37.80808,3.42648 22.86417,24.01352 82.86042,32.38747 68.09392,-17.48831 -25.53316,-22.58464 -57.98742,-36.55887 -87.0856,-54.50483 13.80953,-2.79849 27.62479,-5.57926 41.43111,-8.39354 35.41009,7.02903 72.71819,-40.50435 29.02679,-58.15443 -47.35203,6.17011 -93.93726,17.25521 -140.85732,26.07309 -36.9853,-21.77862 -74.52367,-42.66069 -110.84776,-65.52801 36.32642,-22.84357 73.86246,-43.7064 110.84776,-65.46424 30.26316,5.93188 60.49917,12.01505 90.79359,17.78578 29.12786,13.9704 90.65413,7.71952 62.82403,-36.85716 -25.2659,-13.68437 -55.53717,-14.34964 -83.2182,-21.4088 11.71609,-6.72341 23.43051,-13.4478 35.1466,-20.17107 22.81368,-15.05126 74.5652,-31.22802 47.0091,-66.10171 -30.52964,-20.61232 -60.7254,19.34673 -89.41769,29.07988 -29.45698,23.87253 -10.44019,-12.41569 -5.68422,-28.44772 25.43221,-28.9326 -1.63252,-84.96917 -37.34061,-52.41175 -16.92424,43.19096 -29.90369,87.82371 -46.53627,131.12506 -36.15558,23.9289 -74.55333,44.27781 -111.9315,66.22388 -0.29071,-43.38034 -0.58041,-86.76203 -0.87122,-130.14222 22.22327,-25.49747 44.63393,-50.83215 66.63826,-76.5193 31.39434,-16.97149 37.18566,-75.68416 -11.07094,-64.47614 -20.12384,17.9931 -36.68032,39.53155 -54.6961,59.56753 -0.5218,-30.65187 -1.03997,-61.30511 -1.56184,-91.957 -0.59685,-14.63632 -13.8863,-22.49474 -27.09834,-22.17914 z" /></g></svg>
