<?xml version="1.0" encoding="iso-8859-1"?>
<!-- Uploaded to: SVG Repo, www.svgrepo.com, Generator: SVG Repo Mixer Tools -->
<!DOCTYPE svg PUBLIC "-//W3C//DTD SVG 1.1//EN" "http://www.w3.org/Graphics/SVG/1.1/DTD/svg11.dtd">
<svg fill="#000000" height="800px" width="800px" version="1.1" id="Capa_1" xmlns="http://www.w3.org/2000/svg" xmlns:xlink="http://www.w3.org/1999/xlink" 
	 viewBox="0 0 494.012 494.012" xml:space="preserve">
<g>
	<path d="M260.221,0h-26.426c-73.264,0-132.874,59.608-132.874,132.872v207.696l32.942-32.948V132.872
		c0-55.103,44.826-99.93,99.932-99.93h26.426c55.105,0,99.928,44.827,99.928,99.93v79.135h16.455h16.487v-79.135
		C393.091,59.608,333.484,0,260.221,0z"/>
	<path d="M247.016,145.273c22.471,0,40.709-18.231,40.709-40.717c0-22.478-18.238-40.717-40.709-40.717
		c-22.486,0-40.725,18.239-40.725,40.717C206.291,127.042,224.529,145.273,247.016,145.273z"/>
	<path d="M195.318,169.223L157.539,283.95l60.443-60.46c7.398-7.406,17.241-11.483,27.713-11.483h67.088l-14.09-42.784
		c-2.576-7.786-10.338-10.793-18.256-10.793c-16.678,0-49.765,0-66.877,0C205.608,158.43,197.893,161.437,195.318,169.223z"/>
	<path d="M217.805,352.503c1.174,0,2.139-0.957,2.139-2.14v-93.901l-96.02,96.04H217.805z"/>
	<path d="M244.65,236.921v113.442c0,14.806-12.047,26.844-26.846,26.844H100.937v76.65c0,22.18,17.98,40.154,40.147,40.154h211.846
		c22.163,0,40.144-17.975,40.144-40.154V236.711H245.695C245.324,236.711,245.006,236.897,244.65,236.921z"/>
</g>
</svg>