<svg xmlns="http://www.w3.org/2000/svg" viewBox="0 -1000 1000 1000">
	<path fill="#000000" d="M569 -850Q565 -850 560 -850Q539 -849 515 -835Q496 -824 460 -797Q374 -732 262 -636Q156 -546 80 -475Q0 -400 0 -389Q0 -378 109 -261Q210 -152 325 -38Q448 85 485 112Q506 127 528.5 138.5Q551 150 561 150Q575 150 619 122Q661 95 714 53Q769 10 812 -31Q837 -55 862 -76Q887 -97 897 -102.5Q907 -108 942.5 -138Q978 -168 1016 -202Q1068 -249 1089.5 -277.5Q1111 -306 1111 -328Q1111 -350 1078.5 -394Q1046 -438 973 -512Q900 -586 775 -703Q688 -785 650 -814Q602 -849 569 -850ZM573 -821Q580 -821 600 -807Q620 -793 641 -772Q697 -718 823 -599Q858 -566 883 -540Q908 -514 916.5 -502Q925 -490 914 -495Q895 -504 877 -506Q859 -508 829 -503Q801 -499 743 -486Q673 -471 646 -465Q613 -459 597 -460Q583 -460 569 -465Q560 -468 429 -503Q377 -517 340 -532Q303 -547 303 -554Q303 -564 368 -633Q429 -697 493 -757Q562 -821 573 -821ZM521 -648Q499 -649 490 -631Q481 -613 491 -586Q496 -573 516 -567Q536 -561 556 -565.5Q576 -570 581 -583Q589 -604 577.5 -620Q566 -636 535 -646H533Q525 -648 521 -648ZM690 -637Q677 -638 663.5 -633Q650 -628 641 -619Q626 -604 625 -595Q624 -586 637 -571Q651 -554 675 -550.5Q699 -547 718.5 -558Q738 -569 741 -589Q744 -609 728.5 -622.5Q713 -636 690 -637ZM531 -624Q544 -624 552.5 -617.5Q561 -611 561 -601Q561 -591 552.5 -584.5Q544 -578 531 -578Q518 -578 509.5 -584.5Q501 -591 501 -601Q501 -611 509.5 -617.5Q518 -624 531 -624ZM322 -620Q330 -618 291 -574Q280 -562 277.5 -551Q275 -540 281.5 -534Q288 -528 336.5 -512.5Q385 -497 448 -480L599 -439L724 -465Q815 -484 870 -481.5Q925 -479 925 -457Q925 -450 908 -446Q891 -442 866 -442Q832 -442 779 -433Q728 -425 685 -414Q640 -402 627 -392Q619 -386 612 -351Q605 -316 603 -270L598 -161L592 -395L459 -435Q342 -469 305 -481Q292 -485 256 -471.5Q220 -458 181 -435Q140 -411 115 -388Q98 -372 89 -366.5Q80 -361 75 -362.5Q70 -364 66 -374Q60 -389 71.5 -408.5Q83 -428 120 -461Q154 -493 226 -551Q313 -622 322 -620ZM685 -620Q696 -620 706.5 -613Q717 -606 722 -597Q727 -588 722 -580Q714 -567 696.5 -563.5Q679 -560 665.5 -567Q652 -574 655 -588Q657 -599 663 -608Q669 -617 675 -618.5Q681 -620 685 -620ZM297 -459Q317 -460 357 -449Q411 -431 481 -413Q508 -405 531.5 -391.5Q555 -378 561.5 -365.5Q568 -353 570 -291Q572 -229 567 -132Q563 -60 561 -24Q558 17 554.5 36Q551 55 546.5 58.5Q542 62 534 55Q520 44 517 44.5Q514 45 518 59Q522 69 531.5 77Q541 85 551.5 87Q562 89 567.5 81.5Q573 74 576 51Q578 30 579 -20L582 -131L588 -36Q592 44 598.5 55.5Q605 67 611 13Q617 -44 619 -150Q621 -249 627.5 -308Q634 -367 642 -375Q655 -388 695.5 -400Q736 -412 788.5 -419.5Q841 -427 888 -427Q928 -427 947.5 -431Q967 -435 963 -441.5Q959 -448 959 -452.5Q959 -457 962 -457Q970 -457 999 -427Q1026 -399 1050 -367Q1077 -334 1077 -325.5Q1077 -317 1054 -292.5Q1031 -268 999 -242Q938 -190 811 -85Q687 18 628 66Q607 82 586.5 93.5Q566 105 556 105Q540 105 425 -2Q317 -102 215 -208Q106 -321 106 -337Q106 -360 145 -390.5Q184 -421 243 -445Q277 -459 297 -459ZM441 -326Q431 -326 419.5 -322.5Q408 -319 400 -313Q386 -303 382 -297.5Q378 -292 381.5 -285Q385 -278 398 -264Q409 -252 417 -238.5Q425 -225 425 -217Q425 -207 439 -202Q453 -197 470 -200.5Q487 -204 493 -214Q497 -221 489.5 -225Q482 -229 467 -230Q446 -230 443.5 -233Q441 -236 455 -244.5Q469 -253 466.5 -256Q464 -259 444 -259Q429 -260 419.5 -266Q410 -272 410 -281Q410 -290 420 -298Q430 -306 444 -308Q465 -311 466.5 -314Q468 -317 453 -323Q450 -324 445 -325ZM761 -316Q745 -316 722.5 -302Q700 -288 684 -268.5Q668 -249 668 -234Q668 -214 675 -206.5Q682 -199 701 -199Q723 -199 744 -212.5Q765 -226 777.5 -245.5Q790 -265 790 -284Q790 -303 774 -313Q768 -316 761 -316ZM303 -305Q290 -305 281.5 -296Q273 -287 273 -270Q273 -256 278.5 -240Q284 -224 291 -217Q307 -201 322.5 -199Q338 -197 348.5 -207Q359 -217 360 -235Q361 -253 350 -274Q341 -290 328.5 -298Q316 -306 303 -305ZM302 -290Q307 -290 316.5 -283Q326 -276 334 -267Q346 -253 344 -239Q342 -225 330.5 -222Q319 -219 307 -232Q296 -243 291.5 -256.5Q287 -270 289.5 -280Q292 -290 302 -290ZM754 -290Q774 -290 773 -275Q772 -260 750 -238Q728 -216 713 -215Q698 -214 698 -233.5Q698 -253 716.5 -271.5Q735 -290 754 -290ZM886 -290Q880 -290 860.5 -274.5Q841 -259 819 -237Q792 -210 785 -201Q776 -190 780.5 -187Q785 -184 804 -184Q819 -184 826 -187Q833 -190 829 -194.5Q825 -199 834 -214.5Q843 -230 860 -247.5Q877 -265 884.5 -277.5Q892 -290 886 -290Z"/>
</svg>