<?xml version="1.0" encoding="UTF-8" standalone="no"?>
<svg
   xmlns:dc="http://purl.org/dc/elements/1.1/"
   xmlns:cc="http://creativecommons.org/ns#"
   xmlns:rdf="http://www.w3.org/1999/02/22-rdf-syntax-ns#"
   xmlns:svg="http://www.w3.org/2000/svg"
   xmlns="http://www.w3.org/2000/svg"
   xmlns:sodipodi="http://sodipodi.sourceforge.net/DTD/sodipodi-0.dtd"
   xmlns:inkscape="http://www.inkscape.org/namespaces/inkscape"
   viewBox="0 -1000 1000 1000"
   version="1.1"
   id="svg1620"
   sodipodi:docname="d10.svg"
   inkscape:version="0.92.5 (2060ec1f9f, 2020-04-08)">
  <metadata
     id="metadata1626">
    <rdf:RDF>
      <cc:Work
         rdf:about="">
        <dc:format>image/svg+xml</dc:format>
        <dc:type
           rdf:resource="http://purl.org/dc/dcmitype/StillImage" />
        <dc:title></dc:title>
      </cc:Work>
    </rdf:RDF>
  </metadata>
  <defs
     id="defs1624" />
  <sodipodi:namedview
     pagecolor="#ffffff"
     bordercolor="#666666"
     borderopacity="1"
     objecttolerance="10"
     gridtolerance="10"
     guidetolerance="10"
     inkscape:pageopacity="0"
     inkscape:pageshadow="2"
     inkscape:window-width="1848"
     inkscape:window-height="1016"
     id="namedview1622"
     showgrid="false"
     inkscape:zoom="0.838"
     inkscape:cx="500"
     inkscape:cy="500"
     inkscape:window-x="72"
     inkscape:window-y="27"
     inkscape:window-maximized="1"
     inkscape:current-layer="svg1620" />
  <path
     d="m 512.52848,-964.01788 q -3.71214,0 -8.35232,0 -19.48875,0.92804 -41.76161,13.92054 -17.63268,10.20839 -51.04197,35.26536 -79.81107,60.32232 -183.75108,149.41375 -98.37179,83.52322 -168.902504,149.41376 -74.242861,69.60268 -74.242861,79.81108 0,10.20839 101.155898,118.78857 93.731607,101.1559 200.455717,206.95198 114.1484,114.148399 148.48573,139.205359 19.48875,13.92054 40.36955,24.592952 20.88081,10.672411 30.16116,10.672411 12.9925,0 53.82608,-25.985001 38.9775,-25.056962 88.1634,-64.034471 51.04197,-39.90553 90.94751,-77.955 23.20088,-22.27286 46.40178,-41.76161 23.2009,-19.48875 32.48125,-24.59295 9.28036,-5.10419 42.22564,-32.94527 32.94527,-27.84107 68.21063,-59.39429 48.25785,-43.61768 68.21062,-70.0667 19.9528,-26.44901 19.9528,-46.8658 0,-20.41679 -30.1612,-61.25036 -30.16116,-40.83358 -97.90777,-109.50822 -67.74661,-68.67465 -183.75108,-177.25483 -80.73911,-76.09894 -116.00447,-103.01197 -44.54572,-32.48125 -75.1709,-33.40929 z m 3.71214,26.91304 q 6.49625,0 25.05697,12.9925 18.56071,12.9925 38.04946,32.48125 51.97001,50.11393 168.90251,160.55019 32.48125,30.62518 55.68215,54.75411 23.20089,24.12893 31.0892,35.26536 7.8883,11.13642 -2.32009,6.49625 -17.63268,-8.35233 -34.33733,-10.2084 -16.70464,-1.85607 -44.54571,2.78411 -25.985,3.71214 -79.81108,15.77661 -64.9625,13.92053 -90.01947,19.48875 -30.62518,5.56821 -45.47375,4.64018 -12.9925,0 -25.985,-4.64018 -8.35232,-2.78411 -129.92501,-35.26536 -48.25786,-12.9925 -82.59518,-26.91304 -34.33732,-13.92053 -34.33732,-20.41678 0,-9.28036 60.32232,-73.31483 56.61018,-59.39429 116.00447,-115.07643 64.03447,-59.39429 74.24286,-59.39429 z m -48.25786,160.55018 q -20.41678,-0.92803 -28.76911,15.77661 -8.35232,16.70465 0.92804,41.76161 4.64018,12.06447 23.20089,17.63268 18.56072,5.56822 37.12143,1.39205 18.56072,-4.17616 23.2009,-16.24062 7.42428,-19.48875 -3.24813,-34.33732 -10.67241,-14.84858 -39.44152,-24.12893 h -1.85607 q -7.42428,-1.85608 -11.13643,-1.85608 z m 156.83805,10.2084 q -12.06447,-0.92804 -24.59295,3.71214 -12.52848,4.64018 -20.88081,12.9925 -13.92053,13.92054 -14.84857,22.27286 -0.92803,8.35232 11.13643,22.27286 12.9925,15.77661 35.26536,19.02473 22.27286,3.24813 40.36956,-6.96027 18.09669,-10.20839 20.8808,-28.76911 2.78412,-18.56071 -11.60045,-31.08919 -14.38455,-12.52849 -35.72937,-13.45652 z m -147.55769,12.06446 q 12.06447,0 19.95277,6.03223 7.8883,6.03224 7.8883,15.31259 0,9.28036 -7.8883,15.3126 -7.8883,6.03223 -19.95277,6.03223 -12.06446,0 -19.95277,-6.03223 -7.8883,-6.03224 -7.8883,-15.3126 0,-9.28035 7.8883,-15.31259 7.88831,-6.03223 19.95277,-6.03223 z m -193.95947,3.71215 q 7.42428,1.85607 -28.76911,42.68964 -10.2084,11.13643 -12.52849,21.34482 -2.32009,10.2084 3.71215,15.77661 6.03223,5.56822 51.04196,19.95277 45.00974,14.38455 103.47599,30.16116 l 140.1334,38.04947 116.00447,-24.12893 q 84.45126,-17.63268 135.49322,-15.31259 51.04197,2.32009 51.04197,22.73687 0,6.49626 -15.77661,10.2084 -15.77661,3.71214 -38.97749,3.71214 -31.55322,0 -80.73911,8.35232 -47.32983,7.42429 -87.23537,17.63268 -41.76161,11.13643 -53.82608,20.41679 -7.42428,5.56821 -13.92052,38.04947 -6.49626,32.48125 -8.35233,75.17089 l -4.64018,101.1559 -5.56822,-217.16037 -123.42875,-37.12143 q -108.58019,-31.55321 -142.91751,-42.68964 -12.06447,-3.71215 -45.47375,8.81634 -33.40929,12.52848 -69.60269,33.8733 -38.04946,22.27286 -61.250352,43.61768 -15.776608,14.84857 -24.12893,19.95277 -8.352322,5.1042 -12.992501,3.71214 -4.640179,-1.39205 -8.352322,-10.67241 -5.568214,-13.92053 5.104197,-32.01723 10.672411,-18.0967 45.009735,-48.72188 31.553213,-29.69714 98.371783,-83.52322 80.73911,-65.89054 89.09144,-64.03446 z m 336.87698,0 q 10.20839,0 19.95277,6.49625 9.74437,6.49625 14.38455,14.84857 4.64018,8.35232 0,15.77661 -7.42429,12.06446 -23.66491,15.31259 -16.24063,3.24812 -28.76911,-3.24813 -12.52848,-6.49625 -9.74437,-19.48875 1.85608,-10.20839 7.42428,-18.56072 5.56823,-8.35232 11.13643,-9.74437 5.56822,-1.39205 9.28036,-1.39205 z M 260.10275,-601.1559 q 18.56072,-0.92803 55.68215,9.28036 50.11393,16.70464 115.07643,33.40929 25.05697,7.42428 46.86581,19.95277 21.80884,12.52848 27.84107,24.12893 6.03223,11.60044 7.8883,69.13866 1.85608,57.53822 -2.7841,147.55769 -3.71215,66.81857 -5.56822,100.22786 -2.7841,38.04947 -6.03223,55.68215 -3.24812,17.63268 -7.42429,20.8808 -4.17616,3.24813 -11.60044,-3.24812 -12.9925,-10.2084 -15.77661,-9.74438 -2.78411,0.46402 0.92804,13.45652 3.71214,9.28036 12.52848,16.70464 8.81634,7.424289 18.56071,9.280359 9.74438,1.85607 14.84858,-5.1042 5.10419,-6.960259 7.8883,-28.305089 1.85607,-19.48875 2.78411,-65.89054 l 2.7841,-103.01197 5.56822,88.1634 q 3.71214,74.24286 9.74437,84.91527 6.03224,10.67241 11.60045,-39.44152 5.56822,-52.89804 7.42429,-151.26983 1.85607,-91.87554 7.8883,-146.62965 6.03224,-54.75411 13.45652,-62.17839 12.06447,-12.06447 49.64991,-23.2009 37.58545,-11.13643 86.30733,-18.09669 48.72188,-6.96027 92.33956,-6.96027 37.12143,0 55.21813,-3.71215 18.09669,-3.71214 14.38455,-9.74437 -3.71214,-6.03223 -3.71214,-10.20839 0,-4.17617 2.7841,-4.17617 7.42429,0 34.33733,27.84108 25.05696,25.985 47.32982,55.68214 25.05697,30.62518 25.05697,38.51349 0,7.8883 -21.34483,30.62518 -21.34482,22.73687 -51.04196,46.8658 -56.61018,48.25786 -174.47073,145.70162 -115.07643,95.58768 -169.83054,140.1334 -19.48875,14.848569 -38.51348,25.520979 -19.02474,10.67241 -28.3051,10.67241 -14.84857,0 -121.57268,-99.299819 Q 278.66347,-269.84713 184.00382,-368.21892 82.847926,-473.08696 82.847926,-487.93553 q 0,-21.34483 36.193394,-49.64992 36.19339,-28.30509 90.9475,-50.57795 31.55322,-12.9925 50.11393,-12.9925 z m 133.63715,123.42876 q -9.28036,0 -19.95277,3.24812 -10.67241,3.24813 -18.09669,8.81634 -12.99251,9.28036 -16.70465,14.38456 -3.71214,5.1042 -0.46402,11.60045 3.24813,6.49625 15.31259,19.48875 10.2084,11.13643 17.63268,23.66491 7.42429,12.52848 7.42429,19.95277 0,9.28036 12.9925,13.92053 12.9925,4.64018 28.76911,1.39206 15.77661,-3.24813 21.34482,-12.52848 3.71214,-6.49626 -3.24812,-10.2084 -6.96027,-3.71214 -20.88081,-4.64018 -19.48875,0 -21.80884,-2.7841 -2.32009,-2.78411 10.67241,-10.67242 12.9925,-7.8883 10.67241,-10.67241 -2.32009,-2.7841 -20.8808,-2.7841 -13.92054,-0.92804 -22.73688,-6.49625 -8.81634,-5.56822 -8.81634,-13.92054 0,-8.35232 9.28036,-15.77661 9.28036,-7.42428 22.27286,-9.28036 19.48875,-2.7841 20.8808,-5.56821 1.39206,-2.78411 -12.52848,-8.35232 -2.78411,-0.92804 -7.42429,-1.85607 z m 296.97145,9.28036 q -14.84858,0 -35.72938,12.9925 -20.88081,12.9925 -35.72938,31.0892 -14.84857,18.09669 -14.84857,32.01723 0,18.56072 6.49625,25.52098 6.49625,6.96027 24.12893,6.96027 20.41679,0 39.90554,-12.52848 19.48875,-12.52848 31.0892,-30.62518 11.60044,-18.0967 11.60044,-35.72938 0,-17.63268 -14.84857,-26.91304 -5.56821,-2.7841 -12.06446,-2.7841 z m -425.04038,10.20839 q -12.06447,0 -19.95277,8.35232 -7.88831,8.35232 -7.88831,24.12893 0,12.9925 5.1042,27.84108 5.1042,14.84857 11.60045,21.34482 14.84857,14.84857 29.23312,16.70464 14.38456,1.85607 24.12893,-7.42428 9.74438,-9.28036 10.67241,-25.98501 0.92804,-16.70464 -9.28035,-36.19339 -8.35232,-14.84857 -19.95277,-22.27286 -11.60045,-7.42428 -23.66491,-6.49625 z m -0.92804,13.92054 q 4.64018,0 13.45652,6.49625 8.81634,6.49625 16.24062,14.84857 11.13643,12.9925 9.28036,25.985 -1.85607,12.9925 -12.52848,15.77661 -10.67241,2.78411 -21.80884,-9.28036 -10.20839,-10.20839 -14.38456,-22.73687 -4.17616,-12.52849 -1.85607,-21.80885 2.32009,-9.28035 11.60045,-9.28035 z m 419.47217,0 q 18.56071,0 17.63267,13.92053 -0.92803,13.92054 -21.34482,34.33733 -20.41678,20.41678 -34.33732,21.34482 -13.92054,0.92804 -13.92054,-17.16866 0,-18.0967 17.16866,-35.26536 17.16867,-17.16866 34.80135,-17.16866 z m 122.50072,0 q -5.56822,0 -23.66492,14.38455 -18.09669,14.38456 -38.51348,34.80134 -25.05697,25.05697 -31.55322,33.40929 -8.35232,10.20839 -4.17616,12.9925 4.17616,2.78411 21.80884,2.78411 13.92054,0 20.41679,-2.78411 6.49625,-2.78411 2.78411,-6.96027 -3.71215,-4.17616 4.64018,-18.56071 8.35232,-14.38456 24.12893,-30.62518 15.7766,-16.24063 22.73687,-27.84108 6.96027,-11.60044 1.39206,-11.60044 z"
     id="path1618"
     inkscape:connector-curvature="0"
     style="fill:#000000;stroke-width:0.92803574" />
</svg>
