<?xml version="1.0" encoding="UTF-8" standalone="no"?>
<svg
   xmlns:dc="http://purl.org/dc/elements/1.1/"
   xmlns:cc="http://creativecommons.org/ns#"
   xmlns:rdf="http://www.w3.org/1999/02/22-rdf-syntax-ns#"
   xmlns:svg="http://www.w3.org/2000/svg"
   xmlns="http://www.w3.org/2000/svg"
   xmlns:sodipodi="http://sodipodi.sourceforge.net/DTD/sodipodi-0.dtd"
   xmlns:inkscape="http://www.inkscape.org/namespaces/inkscape"
   viewBox="0 -1000 1000 1000"
   version="1.1"
   id="svg1672"
   sodipodi:docname="d12.svg"
   inkscape:version="0.92.5 (2060ec1f9f, 2020-04-08)">
  <metadata
     id="metadata1678">
    <rdf:RDF>
      <cc:Work
         rdf:about="">
        <dc:format>image/svg+xml</dc:format>
        <dc:type
           rdf:resource="http://purl.org/dc/dcmitype/StillImage" />
        <dc:title></dc:title>
      </cc:Work>
    </rdf:RDF>
  </metadata>
  <defs
     id="defs1676" />
  <sodipodi:namedview
     pagecolor="#ffffff"
     bordercolor="#666666"
     borderopacity="1"
     objecttolerance="10"
     gridtolerance="10"
     guidetolerance="10"
     inkscape:pageopacity="0"
     inkscape:pageshadow="2"
     inkscape:window-width="1848"
     inkscape:window-height="1016"
     id="namedview1674"
     showgrid="false"
     inkscape:zoom="0.838"
     inkscape:cx="500"
     inkscape:cy="500"
     inkscape:window-x="72"
     inkscape:window-y="27"
     inkscape:window-maximized="1"
     inkscape:current-layer="svg1672" />
  <path
     d="m 345.82357,-978.66499 -90.94342,82.3277 q -39.24926,35.42006 -103.3883,110.0894 -60.309845,69.88283 -110.0894,136.89377 -52.651452,70.84013 -62.224443,95.72991 -4.786495,12.44489 17.2313841,73.71203 20.1032819,58.39525 52.6514519,129.23539 35.420068,75.62663 64.139037,122.53428 42.12116,67.96824 76.58393,101.47371 36.37737,35.420072 87.11422,54.566054 45.95036,17.231384 130.19268,28.718974 142.63757,19.145982 150.29596,21.06058 16.27409,3.829197 47.86496,-7.179743 31.59087,-11.00894 63.18174,-31.112222 31.59087,-20.103281 46.90766,-40.685213 15.31679,-20.58193 56.9593,-66.53229 41.64251,-45.95036 84.24232,-90.94342 42.59981,-44.99306 81.84908,-95.72991 39.24926,-50.73685 51.69412,-77.54123 l 31.59085,-65.09634 -67.96819,-150.29596 q -60.30984,-134.97918 -122.05564,-208.21256 -61.74579,-73.23338 -128.75673,-88.55017 -24.88978,-5.7438 -85.67827,-12.44489 -60.78849,-6.70109 -123.01294,-11.48759 z m 64.13904,43.07843 q 50.73685,0 129.23538,11.00894 78.49853,11.00894 140.72297,24.41113 67.01094,16.27408 81.37043,28.71897 11.48759,10.53029 29.67627,34.46277 18.18868,23.93248 31.59087,46.42901 13.40219,22.49653 26.32573,40.68521 12.92354,18.18869 16.75273,21.06058 6.7011,5.7438 34.46277,62.22445 24.88978,53.60875 47.86496,107.2175 24.88977,58.39524 24.88977,67.01094 0,8.61569 -6.22244,22.97517 -6.22244,14.35949 -15.79544,26.80438 -12.44488,15.31679 -16.75273,19.14598 -4.30785,3.8292 -5.26515,-0.9573 -0.95729,-4.78649 -1.91459,-22.97518 0,-14.35948 -11.48759,-50.73685 -11.48759,-33.50547 -25.84708,-65.09634 -15.31679,-33.50547 -24.88978,-42.12116 -2.87189,-2.8719 -13.40218,-18.18868 -10.5303,-15.31679 -21.06059,-31.59088 -26.80437,-42.12116 -68.92553,-44.03575 l -42.12116,-0.9573 41.16386,-15.31679 41.16386,-14.35949 -24.88978,-71.79743 q -10.53029,-30.63357 -19.14598,-45.95036 -8.61569,-15.31678 -11.00894,-8.13704 -2.39325,7.17974 0.47865,21.53923 2.8719,14.35949 9.57299,26.80437 13.40219,24.88978 15.31679,38.29197 1.9146,15.31679 -9.57299,25.84708 -11.48759,10.53029 -42.12116,20.10328 -24.88978,8.61569 -81.37043,22.01788 l -134.02188,32.54817 -128.27808,-62.22445 q -53.60875,-25.84707 -78.49853,-40.68521 -24.88978,-14.83813 -32.06952,-24.88978 -7.17974,-10.05164 0.47865,-18.66733 7.65839,-8.61569 9.09434,-14.83814 1.43595,-6.22244 -3.35054,-6.22244 -8.6157,0 7.17974,-19.62463 15.79543,-19.62463 40.68521,-43.07846 24.88978,-23.45383 41.16386,-32.06952 9.573,-4.7865 48.82226,-4.7865 z m 126.36348,53.60875 q -16.27408,0 -31.59087,5.7438 -15.31678,5.74379 -23.93248,17.23138 -10.53029,12.44489 -9.09434,18.66733 1.43595,6.22245 12.44489,2.8719 11.00894,-3.35054 23.45383,-15.79543 7.65839,-7.6584 20.10328,-9.57299 12.44489,-1.9146 22.97518,1.91459 13.40219,4.7865 17.23138,8.6157 3.8292,3.82919 0,10.05164 -3.82919,6.22244 -16.27408,19.62463 -10.53029,11.48759 -17.71003,24.88978 -7.17975,13.40218 -7.17975,21.06058 0,9.57299 15.31679,13.40218 15.31678,3.8292 40.20656,0.47865 24.88978,-3.35054 51.69415,-12.92353 21.06059,-7.6584 15.31679,-9.09435 -5.74379,-1.43594 -44.99306,3.35055 -36.37737,4.7865 -45.95036,4.7865 -13.40218,0 -11.48759,-5.26515 1.9146,-5.26514 17.23139,-22.49653 11.48759,-12.44489 17.23138,-28.24032 5.7438,-15.79544 1.9146,-26.32573 -3.8292,-10.53029 -17.23138,-16.27408 -13.40219,-5.7438 -29.67628,-6.7011 z m -171.35654,46.90766 q -6.70109,0 4.30785,13.40219 11.00894,13.40219 33.50547,32.06952 22.49653,18.66733 40.20656,29.67627 17.71003,11.00894 22.01788,6.70109 4.30785,-4.30784 -16.27409,-24.88977 -20.58193,-20.58193 -46.429,-38.77062 -26.80438,-18.18868 -37.33467,-18.18868 z m -135.93647,43.07846 q 10.53029,0 20.10328,9.57299 15.31678,13.40219 76.58393,45.95036 58.39524,31.59087 115.83319,57.43795 60.30985,27.76167 72.27608,27.76167 11.96624,0 11.48759,3.35055 -0.47865,3.35055 -12.92353,11.00894 -9.573,6.70109 -26.80438,80.41312 -15.31679,68.92554 -24.88978,141.68027 -10.53029,77.54123 -4.78649,94.77262 4.78649,13.40219 54.56605,40.20656 46.90765,24.88978 102.431,44.03576 58.39525,22.01788 85.19963,22.01788 h 56.48064 l -46.90765,59.35255 q -19.14599,24.88977 -44.03576,46.429 -24.88978,21.539232 -40.20657,27.283032 -26.80437,10.53029 -62.22444,12.444888 -35.42007,1.914599 -57.43795,-5.743794 -6.70109,-1.914599 -42.12116,-6.701094 -38.29196,-4.7865 -78.49853,-8.61569 -44.99305,-4.7865 -68.92553,-9.57299 -24.88978,-5.743802 -40.20657,-14.838142 -15.31678,-9.09434 -29.67627,-26.32573 -41.16386,-47.86495 -56.48065,-64.13904 l -5.74379,-6.70109 q -28.71898,-32.54817 -39.24927,-45.95036 -10.53029,-13.40219 -12.44488,-18.18868 -1.9146,-4.7865 3.82919,-4.30785 5.7438,0.47865 23.93248,4.30785 26.80438,5.74379 93.81531,-5.7438 63.18175,-11.48759 115.8332,-29.67627 57.43795,-20.10328 59.35254,-33.50547 l 1.9146,-10.53029 q 11.48759,-77.54123 20.10328,-131.14998 7.6584,-50.73685 10.53029,-88.07152 1.9146,-39.24926 -1.91459,-44.99306 -6.7011,-11.48759 -60.30985,-43.07846 -49.77955,-29.67627 -102.43101,-55.52335 -55.52334,-26.80437 -69.88283,-26.80437 -6.7011,0 4.30784,8.61569 11.00894,8.61569 36.37737,22.97518 25.36843,14.35948 59.8312,31.59087 l 126.36348,63.18174 -9.57299,64.13904 q -14.35949,93.81532 -33.02682,154.60381 -18.66733,60.78849 -35.89872,70.36149 -9.57299,5.74379 -43.07846,14.35948 -31.59087,7.6584 -70.84013,15.31679 -60.30985,10.53029 -91.90072,3.8292 -34.46277,-6.7011 -59.35254,-40.20657 -22.017881,-29.67627 -51.694154,-102.431 L 15.555374,-539.26472 73.95062,-622.54974 q 22.975179,-33.50547 54.56605,-72.27609 31.59087,-38.77061 50.73685,-58.87389 19.14598,-20.10329 30.15492,-28.71898 11.00894,-8.61569 19.62464,-9.57299 z m 551.40429,110.0894 q 7.65839,0 21.06058,17.71003 13.40219,17.71004 24.88978,43.07846 11.48759,25.36843 22.97518,43.55711 11.48759,18.18869 16.27408,18.18869 9.57299,0 20.10328,22.49653 10.53029,22.49653 17.23139,54.56605 6.70109,32.06952 5.74379,56.95929 -0.9573,22.01788 -10.53029,43.55711 -9.57299,21.53923 -23.93248,33.98412 -12.44488,10.53029 -31.59087,31.59087 -17.23138,19.14599 -31.59087,37.33467 -59.35254,79.45583 -197.20362,27.76167 -62.22444,-23.93247 -92.85801,-41.16386 -32.54817,-19.14598 -43.55711,-36.85601 -11.00894,-17.71004 -6.22245,-42.59981 6.7011,-28.71898 18.18869,-130.19269 4.78649,-37.33466 13.40218,-69.40418 8.6157,-32.06952 17.23139,-40.68521 8.61569,-8.6157 65.09634,-25.84708 51.69415,-16.27409 110.0894,-29.67627 62.22444,-14.35949 85.19962,-14.35949 z m -147.42406,1.9146 q 9.57299,0 12.92353,3.82919 3.35055,3.8292 -2.39324,6.22245 -5.7438,2.39325 -18.66734,1.9146 -12.92354,-0.47865 -15.31678,-2.8719 -2.39325,-2.39325 6.22244,-6.22244 11.48759,-3.8292 17.23139,-2.8719 z m -61.26715,15.31678 q 8.61569,0 12.44489,3.8292 3.8292,3.8292 -1.9146,6.22244 -5.74379,2.39325 -18.66733,1.9146 -12.92354,-0.47865 -15.79544,-2.87189 -2.87189,-2.39325 6.22245,-5.7438 9.09434,-3.35055 17.71003,-3.35055 z m -285.27514,89.98612 q -3.82919,0 -15.31678,11.48759 -11.48759,11.48759 -24.41113,27.28303 -12.92354,15.79543 -35.89872,34.46276 -22.97518,18.66734 -42.12116,29.19763 l -47.86495,24.88977 52.65145,27.76168 q 30.63357,16.27408 50.73685,23.45383 20.10328,7.17974 22.01788,2.8719 1.9146,-4.30785 -18.18868,-19.62464 -15.31679,-11.48759 -18.18869,-18.18868 -2.87189,-6.70109 5.7438,-20.10328 6.70109,-9.57299 31.59087,-38.29197 34.46277,-38.29196 44.99306,-61.74579 10.53029,-23.45383 -5.7438,-23.45383 z m 407.80943,47.86496 q -7.65839,0.9573 -16.75274,7.17974 -9.09434,6.22245 -25.36842,20.58193 -58.39525,49.77956 -10.53029,68.92554 9.57299,3.8292 16.75273,14.83814 7.17975,11.00894 7.17975,22.97517 0,11.96624 2.87189,23.45383 2.8719,11.48759 6.7011,15.31679 9.57299,9.57299 25.36842,10.53029 15.79544,0.9573 29.67628,-6.70109 13.88083,-7.6584 17.71003,-21.06059 5.74379,-22.97517 4.7865,-54.0874 -0.9573,-31.11222 -8.6157,-56.95929 -7.65839,-25.84708 -19.14598,-32.54817 -18.18868,-11.48759 -25.84708,-12.44489 z m 4.78649,32.54817 q 11.48759,0 21.53924,7.65839 10.05164,7.65839 13.88083,18.18868 3.8292,10.53029 -1.9146,20.10329 -2.87189,4.78649 -13.88083,8.61569 -11.00894,3.82919 -23.45383,3.82919 -17.23139,0 -24.88978,-11.48759 -7.65839,-11.48758 -2.39325,-24.88977 5.26515,-13.40219 21.53923,-20.10328 l 1.9146,-0.9573 q 5.7438,-0.9573 7.65839,-0.9573 z m 20.10329,81.37042 q 12.44488,1.9146 16.75273,11.00894 4.30785,9.09434 -4.30785,17.71004 -10.53029,10.53029 -22.49652,9.57299 -11.96624,-0.9573 -19.62464,-13.40219 -3.82919,-5.74379 0,-12.44489 3.8292,-6.70109 13.40219,-10.53029 l 9.57299,-1.9146 z m -317.82331,193.37443 q -43.07846,0 -50.73686,13.40218 -4.78649,6.7011 8.13705,8.13705 12.92353,1.43594 37.33466,-2.8719 24.41113,-4.30785 39.24927,-1.9146 14.83813,2.39325 14.83813,9.57299 0,7.17975 -12.44489,13.40219 -12.44488,6.22244 -29.19762,8.13704 -16.75273,1.9146 -30.63357,9.09434 -13.88084,7.17975 -17.23139,16.27409 -3.35054,9.09434 11.00894,13.40219 14.35949,4.30784 49.77956,3.35054 l 67.01094,-2.87189 -54.56605,-10.53029 q -22.01788,-4.7865 -28.71898,-9.09435 -6.70109,-4.30784 5.7438,-5.26514 12.44489,-0.9573 28.24032,-5.7438 15.79544,-4.78649 26.32573,-11.48759 15.31678,-10.53029 15.31678,-15.79543 0,-5.26515 -15.31678,-14.83814 -11.48759,-6.70109 -28.71897,-10.53029 -17.23139,-3.82919 -35.42007,-3.82919 z"
     id="path1670"
     inkscape:connector-curvature="0"
     style="fill:#000000;stroke-width:0.95729911" />
</svg>
