<?xml version="1.0" encoding="UTF-8" standalone="no"?>
<svg
   xmlns:dc="http://purl.org/dc/elements/1.1/"
   xmlns:cc="http://creativecommons.org/ns#"
   xmlns:rdf="http://www.w3.org/1999/02/22-rdf-syntax-ns#"
   xmlns:svg="http://www.w3.org/2000/svg"
   xmlns="http://www.w3.org/2000/svg"
   xmlns:sodipodi="http://sodipodi.sourceforge.net/DTD/sodipodi-0.dtd"
   xmlns:inkscape="http://www.inkscape.org/namespaces/inkscape"
   viewBox="0 -1000 1000 1000"
   version="1.1"
   id="svg1724"
   sodipodi:docname="d20.svg"
   inkscape:version="0.92.5 (2060ec1f9f, 2020-04-08)">
  <metadata
     id="metadata1730">
    <rdf:RDF>
      <cc:Work
         rdf:about="">
        <dc:format>image/svg+xml</dc:format>
        <dc:type
           rdf:resource="http://purl.org/dc/dcmitype/StillImage" />
        <dc:title></dc:title>
      </cc:Work>
    </rdf:RDF>
  </metadata>
  <defs
     id="defs1728" />
  <sodipodi:namedview
     pagecolor="#ffffff"
     bordercolor="#666666"
     borderopacity="1"
     objecttolerance="10"
     gridtolerance="10"
     guidetolerance="10"
     inkscape:pageopacity="0"
     inkscape:pageshadow="2"
     inkscape:window-width="1848"
     inkscape:window-height="1016"
     id="namedview1726"
     showgrid="false"
     inkscape:zoom="0.838"
     inkscape:cx="500"
     inkscape:cy="500"
     inkscape:window-x="72"
     inkscape:window-y="27"
     inkscape:window-maximized="1"
     inkscape:current-layer="svg1724" />
  <path
     d="m 568.92764,-993.43675 q -40.46182,1.97375 -85.858,20.72434 -66.12052,26.64559 -155.92601,68.09428 -84.87113,39.47494 -149.0179,73.02864 -67.1074,34.54057 -72.04177,42.92899 -4.93436,8.38843 -15.296534,48.85024 -10.362172,40.46182 -20.230907,89.80549 -28.619331,137.17542 -47.369928,200.33532 -9.868735,32.56683 -13.8162291,63.65334 -3.947494,31.08652 -0.4934367,40.95525 3.4540568,9.86874 52.7977328,54.27805 45.396172,41.44869 100.661092,85.85799 59.21241,47.36993 88.81862,65.13365 22.69809,15.78998 97.70047,74.015514 30.59308,24.671838 61.18616,41.942124 30.59308,17.270286 41.94213,17.270286 11.34904,0 38.48806,-9.868735 27.13902,-9.868735 53.78461,-24.178401 26.64558,-14.309666 86.35143,-41.448687 59.70585,-27.139021 117.93138,-51.810851 58.22554,-24.67184 106.08891,-48.35681 47.86336,-23.68496 57.7321,-32.56682 10.85561,-10.85561 24.67183,-62.66647 13.81623,-51.81086 27.63246,-136.68198 16.77685,-101.64797 22.69809,-142.10979 6.90808,-54.27804 4.93437,-82.89737 -1.97375,-28.61933 -13.81623,-50.33055 -8.88186,-15.78998 -34.54057,-43.42243 -20.72434,-23.68497 -38.9815,-39.96838 -18.25716,-16.28341 -23.19153,-16.28341 -4.93437,0 -44.90275,-29.11277 -39.96837,-29.11277 -88.81861,-68.58771 -48.85024,-39.47494 -95.72673,-70.56146 -46.87649,-31.08651 -62.66647,-34.04713 -5.92124,-1.97375 -20.72434,-1.97375 z m -5.92124,36.51432 q 22.69809,0 66.12052,28.12589 43.42243,28.1259 127.30668,97.20705 77.96301,65.13365 130.26731,103.62171 21.71121,15.78998 36.51432,28.61934 14.8031,12.82935 12.82935,14.8031 -4.93437,4.93437 -77.96301,-9.86874 -45.39618,-8.88186 -67.10739,-21.71121 -21.71122,-12.82936 -45.39619,-44.40931 -28.61933,-38.48807 -66.12052,-83.88425 -36.51432,-42.43556 -63.15991,-69.08115 -27.63245,-27.63245 -27.63245,-21.71121 0,5.92124 20.2309,32.07339 20.23091,26.15214 47.86337,56.74522 49.34367,53.29117 70.06802,81.9105 21.71121,30.59308 25.16527,50.82399 3.45406,20.23091 -8.38842,41.94212 -7.89499,13.81623 -30.09964,42.43556 -22.20466,28.61934 -45.88962,54.27805 -49.34368,54.27804 -127.30669,153.95226 -28.61933,38.48807 -53.7846,65.13366 -25.16528,26.64558 -32.07339,26.64558 -9.86874,0.98687 -24.67184,-21.71122 -14.8031,-22.69809 -37.99463,-76.97613 -23.19153,-54.27804 -60.69272,-151.97852 -26.64558,-67.1074 -40.46181,-115.4642 -13.81623,-48.3568 -7.89499,-50.33055 9.86873,-2.96062 145.0704,7.89499 138.1623,11.84248 251.65275,25.65871 57.23866,6.90811 28.61933,-4.93437 -11.84248,-4.93437 -74.01551,-13.81623 -59.21241,-7.89498 -136.18855,-15.78997 -185.53222,-16.77685 -202.30907,-22.69809 -13.81622,-2.96062 -29.11276,2.46718 -15.29654,5.4278 -22.20466,14.30967 -6.90811,8.88186 1.97375,15.78997 5.92124,4.93437 30.59308,61.6796 24.67184,56.74522 52.30429,130.76074 29.60621,77.963 52.3043,133.22792 23.68496,58.22554 29.6062,65.13365 10.85561,13.81623 -63.65334,15.78998 -74.50895,1.97374 -217.60561,-7.89499 l -75.002377,-5.92124 9.868735,-51.31742 q 3.947494,-21.71122 23.191528,-77.96301 19.244024,-56.25179 42.928994,-113.49045 30.59308,-74.01552 45.39618,-102.63485 19.73747,-36.51432 50.33055,-68.09427 23.68496,-25.65871 89.80549,-82.89738 23.68496,-20.72434 75.98926,-49.34367 50.33055,-26.64559 99.67422,-46.38306 51.31742,-20.72434 71.0549,-20.72434 z m -106.58234,74.01551 q -16.77685,0 -26.15215,9.86874 -9.3753,9.86873 -6.41468,11.34904 2.96062,1.48031 21.71122,-3.45405 13.81623,-4.93437 22.69809,-3.45406 8.88186,1.48031 8.88186,7.89499 0,6.41467 -7.89499,10.85561 -7.89499,4.44093 -17.76372,4.44093 -19.73747,0 -38.9815,14.8031 -19.24404,14.8031 -19.24404,29.6062 0,4.93437 13.32279,7.89499 13.3228,2.96062 32.07339,1.97375 31.57996,-0.98687 33.5537,-2.96062 1.97375,-1.97375 -22.69809,-8.88186 -17.76372,-4.93437 -23.19153,-7.40155 -5.4278,-2.46719 -1.97374,-5.42781 3.45405,-2.96062 18.25716,-8.38842 14.8031,-5.42781 44.4093,-15.29654 13.81623,-3.9475 16.77685,-11.84248 2.96063,-7.89499 -4.93436,-16.28342 -7.89499,-8.38842 -23.68497,-13.32279 -5.92124,-1.97375 -18.75059,-1.97375 z m 126.31981,10.85561 q -9.86874,1.97375 -18.7506,7.89499 -14.8031,9.86873 -22.69809,25.16527 -7.89499,15.29654 -5.92124,29.60621 1.97374,14.30967 13.81623,22.20465 17.76372,10.85561 35.52744,8.38843 17.76373,-2.46719 30.09964,-15.29654 12.33592,-12.82936 12.33592,-29.60621 0,-16.77685 -14.8031,-31.57995 -8.88186,-8.88186 -15.78998,-12.82935 -6.90811,-3.9475 -13.81622,-3.9475 z m 1.97374,29.60621 q 3.9475,0 9.86874,1.97374 9.86873,3.9475 13.32279,11.84249 3.45406,7.89498 0.49344,17.76372 -4.93437,11.84248 -15.29654,17.27029 -10.36217,5.4278 -21.71122,2.46718 -11.34905,-2.96062 -18.25716,-13.81623 -5.92124,-8.88186 -2.46718,-17.76372 3.45405,-8.88186 13.32279,-14.80311 9.86873,-5.92124 20.72434,-4.93436 z m -302.97016,6.90811 q 9.86873,0.98687 -2.46719,11.84248 -12.33592,10.85561 -41.94212,25.65871 -13.81623,6.90812 -30.59308,26.15215 -16.77685,19.24404 -26.64559,38.98151 -25.65871,50.33055 -52.30429,111.5167 -22.69809,54.27805 -25.65871,38.48807 -2.960619,-15.78998 13.81623,-100.6611 8.88186,-45.39618 18.75059,-66.12052 11.84248,-22.69809 37.5012,-39.47494 21.71121,-13.81623 74.01551,-35.52745 24.67184,-10.85561 35.52745,-10.85561 z m 530.93794,147.04415 q 23.68497,0.98688 82.89738,15.78998 59.21241,14.8031 62.66647,20.72434 3.45405,5.92124 -11.34905,111.51671 -14.8031,98.68735 -31.57995,195.40095 -17.76373,104.6086 -21.71122,106.58234 -11.84248,6.90812 -119.41169,54.27805 -107.56922,47.36993 -153.95227,65.13365 -31.57995,11.84248 -63.15991,26.645579 -31.57995,14.803103 -45.39618,24.671838 -23.68496,15.789976 -33.5537,11.842482 -9.86873,-3.947494 -12.82935,-33.553699 -1.97375,-25.65871 0.98687,-92.76611 l 3.9475,-96.7136 214.15155,4.93437 215.13842,5.92124 -10.85561,-33.5537 q -10.85561,-33.5537 -35.52744,-124.34606 -5.92124,-24.67184 -11.84249,-41.44869 -5.92124,-16.77685 -9.86873,-22.69809 -3.94749,-5.92124 -3.94749,0.98687 0,11.84248 3.45405,34.54058 3.45406,22.69809 8.38843,42.43556 13.81623,52.30429 21.71121,89.80549 l 8.88187,40.46181 -196.38783,-8.88186 q -78.94988,-3.9475 -143.5901,-3.9475 -64.64021,0 -73.52207,2.96062 -11.84249,4.93437 -16.77685,25.65872 -4.93437,20.72434 -5.92124,69.08114 0,35.52745 -2.96063,68.09427 -2.96062,32.566826 -7.89498,43.422434 -4.93437,12.829355 -9.3753,15.789976 -4.44093,2.96062 -15.29654,-2.960621 -7.89499,-4.934367 -30.59308,-24.671833 -18.7506,-15.789976 -29.11277,-31.086516 -10.36217,-15.29654 -6.41468,-21.21778 8.88187,-14.8031 -12.82935,-6.90811 -8.88186,3.94749 -20.23091,0 -11.34904,-3.9475 -18.25716,-11.84249 -10.85561,-11.84248 -8.38842,-15.78997 2.46718,-3.9475 21.21778,-3.9475 18.75059,0 30.09964,-10.36217 11.34904,-10.36217 10.36217,-26.15215 -0.98687,-15.78997 -14.8031,-29.6062 -11.84248,-11.84248 -24.1784,-12.82936 -12.33592,-0.98687 -20.23091,6.90812 -7.89499,7.89498 -7.89499,23.68496 0,15.78998 -17.76372,16.28341 -17.76372,0.49344 -46.87649,-13.81623 -29.11277,-14.30966 -60.69272,-39.96837 -23.68497,-18.7506 -39.96838,-33.5537 -16.283408,-14.8031 -16.283408,-17.76372 0,-2.96063 101.647968,3.94749 47.36993,3.94749 167.76849,11.84248 l 109.54296,5.92124 85.858,-106.58234 q 94.73986,-113.49045 125.33294,-146.05728 15.78997,-15.78997 34.04713,-39.47494 18.25716,-23.68496 28.61933,-40.46181 10.36217,-16.77685 20.23091,-29.11277 9.86873,-12.33592 13.81623,-12.33592 3.94749,0 12.82935,23.68497 8.88187,23.68496 17.76373,57.23866 7.89499,30.59308 13.81623,43.42243 5.92124,12.82936 7.89498,7.40156 1.97375,-5.42781 -0.98687,-27.63246 -2.96062,-22.20466 -10.85561,-54.77148 -4.93436,-22.69809 -7.89499,-39.96838 -2.96062,-17.27029 -0.98687,-19.24403 1.97375,-1.97375 8.88186,-0.98688 z m -396.72315,13.81623 q -6.90811,1.97375 -17.76372,34.54058 -10.85561,32.56682 -13.81623,64.14677 l -4.93437,53.29117 48.3568,-38.48806 q 28.61934,-23.68497 39.47494,-36.51432 10.85561,-12.82936 6.41468,-20.72435 -4.44093,-7.89498 -24.1784,-12.82935 -11.84248,-2.96062 -20.23091,-11.84248 -8.38842,-8.88187 -8.38842,-19.24404 0,-10.36217 -3.94749,-12.33592 z m 131.25418,9.86874 q -7.89499,0 -12.82936,20.72434 -4.93436,20.72435 -8.88186,66.12053 l -6.90811,75.00238 21.71121,-75.00238 q 8.88187,-32.56683 13.3228,-55.75836 4.44093,-23.19152 0.49343,-27.13902 -3.94749,-3.94749 -6.90811,-3.94749 z m -120.39857,48.3568 q 3.94749,0 5.92124,3.94749 1.97375,3.9475 1.97375,9.86874 0,8.88186 -3.9475,17.76372 -3.94749,8.88186 -9.86873,12.33592 -5.92124,3.45406 -9.86874,0 -3.94749,-3.45406 -3.94749,-12.33592 0,-8.88186 3.94749,-17.27028 3.9475,-8.38843 9.86874,-12.33592 3.94749,-1.97375 5.92124,-1.97375 z m -198.36157,99.67422 q -15.78998,0 -23.68497,13.81623 -7.89499,13.81623 -3.94749,37.5012 5.92124,39.47494 -12.82936,39.47494 -7.89499,0 -13.32279,-4.44093 -5.4278,-4.44093 -5.4278,-11.34905 0,-6.90811 -2.46719,-9.3753 -2.46718,-2.46718 -6.41468,1.48031 -3.94749,3.9475 -0.98687,12.82936 2.96062,8.88186 9.86874,17.76372 l 1.97374,2.96062 q 9.86874,11.84248 14.30967,14.80311 4.44093,2.96062 13.32279,0.98687 4.93437,-1.97375 24.67184,-9.86874 l 7.89499,-3.94749 q 22.69809,-9.86874 35.03401,-27.13902 12.33591,-17.27029 11.34904,-34.54057 -0.98687,-17.27029 -16.77685,-28.1259 -16.77685,-12.82936 -32.56682,-12.82936 z m -5.92125,22.6981 q 0.98688,-0.98688 3.9475,0 7.89499,0 26.64558,12.82935 13.81623,8.88186 13.81623,13.32279 0,4.44093 -13.81623,14.30967 -23.68496,14.8031 -32.56682,11.84248 -8.88186,-2.96062 -8.88186,-25.65871 0,-13.81623 2.46718,-19.73747 2.46718,-5.92124 8.38842,-6.90811 z m 507.25299,29.6062 q -7.89499,0 -18.7506,5.92124 -7.89499,4.93437 -20.72434,6.41468 -12.82936,1.48031 -24.67184,-0.49344 -15.78998,-1.97374 -11.84248,5.92124 3.94749,7.89499 32.56682,33.5537 31.57996,27.63246 45.88962,36.02089 14.30967,8.38842 19.24404,0.49343 4.93436,-7.89499 4.93436,-34.04713 0,-26.15215 -6.90811,-39.96838 -6.90812,-13.81623 -19.73747,-13.81623 z m -6.90812,29.60621 q 1.97375,0 5.92124,1.97374 5.92125,3.9475 9.86874,8.38843 3.94749,4.44093 3.94749,6.41468 0,1.97374 -3.94749,3.94749 -3.94749,1.97375 -9.86874,1.97375 -5.92124,0 -9.86873,-4.44093 -3.94749,-4.44094 -3.94749,-10.36218 0,-9.86873 7.89498,-7.89498 z m -420.40811,190.46658 q 7.89499,0 14.30966,4.44093 6.41468,4.44093 6.41468,9.86874 0,5.4278 -6.41468,9.86873 -6.41467,4.44093 -14.8031,4.44093 -8.38842,0 -14.30966,-4.44093 -5.92124,-4.44093 -5.92124,-9.86873 0,-5.42781 5.92124,-9.86874 5.92124,-4.44093 14.8031,-4.44093 z m 272.37709,15.78998 q -0.98688,0.98687 19.73747,24.67184 10.85561,11.84248 25.16527,20.72434 14.30967,8.88186 23.19153,8.88186 14.8031,0 15.29654,-2.46718 0.49344,-2.46719 -13.32279,-12.33592 -17.76373,-11.84248 -49.34368,-29.60621 -11.84248,-7.89498 -19.73747,-9.86873 z m -52.3043,29.6062 q -3.94749,-0.98687 1.48031,5.42781 5.42781,6.41468 22.20466,24.1784 12.82935,14.8031 25.16527,24.1784 12.33592,9.3753 14.30967,6.41468 7.89498,-7.89499 -5.42781,-23.19153 -13.32279,-15.29654 -37.99463,-28.12589 -15.78997,-8.88187 -19.73747,-8.88187 z"
     id="path1722"
     inkscape:connector-curvature="0"
     style="fill:#000000;stroke-width:0.98687351" />
</svg>
