<svg xmlns="http://www.w3.org/2000/svg" viewBox="0 -1000 1000 1000">
	<path fill="#000000" d="M569 -850Q528 -848 482 -829Q415 -802 324 -760Q238 -720 173 -686Q105 -651 100 -642.5Q95 -634 84.5 -593Q74 -552 64 -502Q35 -363 16 -299Q6 -266 2 -234.5Q-2 -203 1.5 -193Q5 -183 55 -138Q101 -96 157 -51Q217 -3 247 15Q270 31 346 90Q377 115 408 132.5Q439 150 450.5 150Q462 150 489.5 140Q517 130 544 115.5Q571 101 631.5 73.5Q692 46 751 21Q810 -4 858.5 -28Q907 -52 917 -61Q928 -72 942 -124.5Q956 -177 970 -263Q987 -366 993 -407Q1000 -462 998 -491Q996 -520 984 -542Q975 -558 949 -586Q928 -610 909.5 -626.5Q891 -643 886 -643Q881 -643 840.5 -672.5Q800 -702 750.5 -742Q701 -782 653.5 -813.5Q606 -845 590 -848Q584 -850 569 -850ZM563 -813Q586 -813 630 -784.5Q674 -756 759 -686Q838 -620 891 -581Q913 -565 928 -552Q943 -539 941 -537Q936 -532 862 -547Q816 -556 794 -569Q772 -582 748 -614Q719 -653 681 -699Q644 -742 617 -769Q589 -797 589 -791Q589 -785 609.5 -758.5Q630 -732 658 -701Q708 -647 729 -618Q751 -587 754.5 -566.5Q758 -546 746 -524Q738 -510 715.5 -481Q693 -452 669 -426Q619 -371 540 -270Q511 -231 485.5 -204Q460 -177 453 -177Q443 -176 428 -199Q413 -222 389.5 -277Q366 -332 328 -431Q301 -499 287 -548Q273 -597 279 -599Q289 -602 426 -591Q566 -579 681 -565Q739 -558 710 -570Q698 -575 635 -584Q575 -592 497 -600Q309 -617 292 -623Q278 -626 262.5 -620.5Q247 -615 240 -606Q233 -597 242 -590Q248 -585 273 -527.5Q298 -470 326 -395Q356 -316 379 -260Q403 -201 409 -194Q420 -180 344.5 -178Q269 -176 124 -186L48 -192L58 -244Q62 -266 81.5 -323Q101 -380 125 -438Q156 -513 171 -542Q191 -579 222 -611Q246 -637 313 -695Q337 -716 390 -745Q441 -772 491 -792Q543 -813 563 -813ZM455 -738Q438 -738 428.5 -728Q419 -718 422 -716.5Q425 -715 444 -720Q458 -725 467 -723.5Q476 -722 476 -715.5Q476 -709 468 -704.5Q460 -700 450 -700Q430 -700 410.5 -685Q391 -670 391 -655Q391 -650 404.5 -647Q418 -644 437 -645Q469 -646 471 -648Q473 -650 448 -657Q430 -662 424.5 -664.5Q419 -667 422.5 -670Q426 -673 441 -678.5Q456 -684 486 -694Q500 -698 503 -706Q506 -714 498 -722.5Q490 -731 474 -736Q468 -738 455 -738ZM583 -727Q573 -725 564 -719Q549 -709 541 -693.5Q533 -678 535 -663.5Q537 -649 549 -641Q567 -630 585 -632.5Q603 -635 615.5 -648Q628 -661 628 -678Q628 -695 613 -710Q604 -719 597 -723Q590 -727 583 -727ZM585 -697Q589 -697 595 -695Q605 -691 608.5 -683Q612 -675 609 -665Q604 -653 593.5 -647.5Q583 -642 571.5 -645Q560 -648 553 -659Q547 -668 550.5 -677Q554 -686 564 -692Q574 -698 585 -697ZM278 -690Q288 -689 275.5 -678Q263 -667 233 -652Q219 -645 202 -625.5Q185 -606 175 -586Q149 -535 122 -473Q99 -418 96 -434Q93 -450 110 -536Q119 -582 129 -603Q141 -626 167 -643Q189 -657 242 -679Q267 -690 278 -690ZM816 -541Q840 -540 900 -525Q960 -510 963.5 -504Q967 -498 952 -391Q937 -291 920 -193Q902 -87 898 -85Q886 -78 777 -30Q668 18 621 36Q589 48 557 63Q525 78 511 88Q487 104 477 100Q467 96 464 66Q462 40 465 -28L469 -126L686 -121L904 -115L893 -149Q882 -183 857 -275Q851 -300 845 -317Q839 -334 835 -340Q831 -346 831 -339Q831 -327 834.5 -304Q838 -281 843 -261Q857 -208 865 -170L874 -129L675 -138Q595 -142 529.5 -142Q464 -142 455 -139Q443 -134 438 -113Q433 -92 432 -43Q432 -7 429 26Q426 59 421 70Q416 83 411.5 86Q407 89 396 83Q388 78 365 58Q346 42 335.5 26.5Q325 11 329 5Q338 -10 316 -2Q307 2 295.5 -2Q284 -6 277 -14Q266 -26 268.5 -30Q271 -34 290 -34Q309 -34 320.5 -44.5Q332 -55 331 -71Q330 -87 316 -101Q304 -113 291.5 -114Q279 -115 271 -107Q263 -99 263 -83Q263 -67 245 -66.5Q227 -66 197.5 -80.5Q168 -95 136 -121Q112 -140 95.5 -155Q79 -170 79 -173Q79 -176 182 -169Q230 -165 352 -157L463 -151L550 -259Q646 -374 677 -407Q693 -423 711.5 -447Q730 -471 740.5 -488Q751 -505 761 -517.5Q771 -530 775 -530Q779 -530 788 -506Q797 -482 806 -448Q814 -417 820 -404Q826 -391 828 -396.5Q830 -402 827 -424.5Q824 -447 816 -480Q811 -503 808 -520.5Q805 -538 807 -540Q809 -542 816 -541ZM414 -527Q407 -525 396 -492Q385 -459 382 -427L377 -373L426 -412Q455 -436 466 -449Q477 -462 472.5 -470Q468 -478 448 -483Q436 -486 427.5 -495Q419 -504 419 -514.5Q419 -525 415 -527ZM547 -517Q539 -517 534 -496Q529 -475 525 -429L518 -353L540 -429Q549 -462 553.5 -485.5Q558 -509 554 -513Q550 -517 547 -517ZM425 -468Q429 -468 431 -464Q433 -460 433 -454Q433 -445 429 -436Q425 -427 419 -423.5Q413 -420 409 -423.5Q405 -427 405 -436Q405 -445 409 -453.5Q413 -462 419 -466Q423 -468 425 -468ZM224 -367Q208 -367 200 -353Q192 -339 196 -315Q202 -275 183 -275Q175 -275 169.5 -279.5Q164 -284 164 -291Q164 -298 161.5 -300.5Q159 -303 155 -299Q151 -295 154 -286Q157 -277 164 -268L166 -265Q176 -253 180.5 -250Q185 -247 194 -249Q199 -251 219 -259L227 -263Q250 -273 262.5 -290.5Q275 -308 274 -325.5Q273 -343 257 -354Q240 -367 224 -367ZM218 -344Q219 -345 222 -344Q230 -344 249 -331Q263 -322 263 -317.5Q263 -313 249 -303Q225 -288 216 -291Q207 -294 207 -317Q207 -331 209.5 -337Q212 -343 218 -344ZM732 -314Q724 -314 713 -308Q705 -303 692 -301.5Q679 -300 667 -302Q651 -304 655 -296Q659 -288 688 -262Q720 -234 734.5 -225.5Q749 -217 754 -225Q759 -233 759 -259.5Q759 -286 752 -300Q745 -314 732 -314ZM725 -284Q727 -284 731 -282Q737 -278 741 -273.5Q745 -269 745 -267Q745 -265 741 -263Q737 -261 731 -261Q725 -261 721 -265.5Q717 -270 717 -276Q717 -286 725 -284ZM299 -91Q307 -91 313.5 -86.5Q320 -82 320 -76.5Q320 -71 313.5 -66.5Q307 -62 298.5 -62Q290 -62 284 -66.5Q278 -71 278 -76.5Q278 -82 284 -86.5Q290 -91 299 -91ZM575 -75Q574 -74 595 -50Q606 -38 620.5 -29Q635 -20 644 -20Q659 -20 659.5 -22.5Q660 -25 646 -35Q628 -47 596 -65Q584 -73 576 -75ZM522 -45Q518 -46 523.5 -39.5Q529 -33 546 -15Q559 0 571.5 9.5Q584 19 586 16Q594 8 580.5 -7.5Q567 -23 542 -36Q526 -45 522 -45Z"/>
</svg>