<?xml version="1.0" encoding="UTF-8" standalone="no"?>
<svg
   xmlns:dc="http://purl.org/dc/elements/1.1/"
   xmlns:cc="http://creativecommons.org/ns#"
   xmlns:rdf="http://www.w3.org/1999/02/22-rdf-syntax-ns#"
   xmlns:svg="http://www.w3.org/2000/svg"
   xmlns="http://www.w3.org/2000/svg"
   xmlns:sodipodi="http://sodipodi.sourceforge.net/DTD/sodipodi-0.dtd"
   xmlns:inkscape="http://www.inkscape.org/namespaces/inkscape"
   viewBox="0 -1000 1000 1000"
   version="1.1"
   id="svg1464"
   sodipodi:docname="d4.svg"
   inkscape:version="0.92.5 (2060ec1f9f, 2020-04-08)">
  <metadata
     id="metadata1470">
    <rdf:RDF>
      <cc:Work
         rdf:about="">
        <dc:format>image/svg+xml</dc:format>
        <dc:type
           rdf:resource="http://purl.org/dc/dcmitype/StillImage" />
        <dc:title></dc:title>
      </cc:Work>
    </rdf:RDF>
  </metadata>
  <defs
     id="defs1468" />
  <sodipodi:namedview
     pagecolor="#ffffff"
     bordercolor="#666666"
     borderopacity="1"
     objecttolerance="10"
     gridtolerance="10"
     guidetolerance="10"
     inkscape:pageopacity="0"
     inkscape:pageshadow="2"
     inkscape:window-width="1848"
     inkscape:window-height="1016"
     id="namedview1466"
     showgrid="false"
     inkscape:zoom="0.838"
     inkscape:cx="500"
     inkscape:cy="500"
     inkscape:window-x="72"
     inkscape:window-y="27"
     inkscape:window-maximized="1"
     inkscape:current-layer="svg1464" />
  <path
     d="m 430.74328,-991.18239 q -11.78837,0 -33.4004,16.7002 -24.55912,17.68258 -80.55391,68.76555 -50.1006,46.17113 -160.12546,150.3018 -67.783166,64.83608 -111.498398,113.46313 -43.715232,48.62705 -43.715232,60.41543 0,18.66493 23.576754,104.13067 21.612025,80.55391 48.135874,165.03728 29.470942,91.35992 45.188782,123.77796 11.78837,25.54149 19.64729,49.11824 7.85892,23.57675 7.85892,32.41804 0,8.841281 8.84128,26.523847 8.84129,17.682566 21.12085,33.400398 12.27956,15.71784 23.57675,27.01504 11.2972,11.29719 16.20902,11.29719 12.77074,0 127.70742,-48.62706 114.93668,-48.627055 228.89099,-102.657115 142.44289,-66.8008 216.12025,-96.27175 53.0477,-21.61202 102.16593,-49.11823 49.11824,-27.50621 78.58919,-53.0477 29.47094,-25.54149 29.47094,-41.25932 0,-39.29459 -231.83809,-273.09741 -84.48337,-86.44809 -145.38998,-152.26653 -63.85371,-70.73026 -118.86614,-118.37496 -55.01243,-47.64469 -71.71263,-47.6447 z m -3.92946,43.22405 q 6.87656,0 50.10061,39.29459 39.29459,35.36514 96.27174,92.34229 l 48.13588,49.11825 q 121.81323,125.74269 153.2489,157.17836 75.64209,77.60682 120.83087,133.60161 45.18878,55.99479 45.18878,72.69499 0,10.80602 -10.80602,21.61203 -11.78837,11.78838 -45.18877,29.96212 -33.40041,18.17375 -100.20121,50.59179 -58.94189,28.48858 -175.84329,81.53627 -143.42526,65.81844 -212.19079,94.30702 -73.67736,31.43567 -105.11303,39.294588 -27.50622,5.894189 -34.38277,-3.929459 -3.92946,-6.876553 10.80601,-86.448099 13.75311,-73.67736 33.4004,-152.26653 21.61203,-85.46574 31.43568,-105.60422 9.82364,-20.13847 38.31222,-144.8988 26.52385,-114.93668 47.15351,-223.97917 22.59439,-115.91904 17.19138,-115.91904 -5.403,0 -11.29719,16.20902 -5.89419,16.20902 -9.82365,38.80341 -14.73547,87.43046 -43.71523,209.73488 -28.97976,122.30441 -36.83868,132.61924 -7.85892,10.31483 -30.45331,103.63948 -21.61202,86.4481 -40.27695,180.75511 -19.6473,101.18358 -20.62966,131.63688 -0.98237,50.100605 -11.78838,55.012435 -10.80601,4.91182 -28.48858,-33.891589 -17.68256,-38.803406 -41.25932,-119.357316 -14.73547,-48.13588 -29.47094,-90.37756 -14.73547,-42.24168 -21.61203,-54.03006 -13.753102,-23.57675 -25.050297,-64.83607 -11.297195,-41.25932 -15.717836,-81.0451 -4.420642,-39.78578 0.491182,-59.43307 l 9.823648,-40.27695 8.841283,36.3475 q 5.894188,23.57675 17.68257,31.43567 11.78837,7.85892 23.57675,-1.96473 11.78838,-9.82365 18.66493,-34.38277 5.89419,-22.59439 4.42064,-29.96212 -1.47355,-7.36774 -11.29719,-3.43828 -11.78838,3.92946 -28.97976,-3.92946 -17.191387,-7.85892 -27.506217,-21.12084 -10.31483,-13.26193 -4.420642,-22.10321 3.929459,-6.87655 9.823648,-11.29719 5.894189,-4.42065 9.823648,-4.42065 3.929463,0 51.082963,-42.24168 47.15351,-42.24169 108.55131,-101.67475 61.3978,-59.43307 111.00722,-102.16594 49.60942,-42.73288 56.48597,-42.73288 z m -98.23647,120.83087 q -3.92946,0.98236 -10.80601,6.38537 -6.87656,5.40301 -20.62967,18.17376 -35.36513,33.4004 -32.41803,73.18617 2.94709,39.78577 14.73547,39.78577 11.78838,0 26.52385,-37.32985 6.87655,-16.70021 15.71783,-30.94449 8.84129,-14.24429 15.22666,-18.66494 6.38537,-4.42064 7.85892,-14.73547 1.47354,-10.31483 -1.96473,-20.13847 -3.43828,-9.82365 -6.38537,-13.26193 -2.9471,-3.43828 -7.85892,-2.45592 z m 165.03728,38.31223 q -8.84128,-0.98236 -19.15611,20.13848 -10.31483,21.12085 -25.05031,68.27434 -5.89418,19.64731 -5.403,27.01504 0.49118,7.36774 8.84128,9.33247 8.3501,1.96472 32.90922,0.98237 19.6473,-0.98237 31.92686,-4.42066 12.27955,-3.43826 9.82364,-7.36772 -2.45591,-3.92947 2.9471,-11.78838 5.403,-7.85893 16.20902,-14.73547 17.68256,-10.80601 17.68256,-12.77074 0,-1.96474 -17.68256,-1.96474 -10.80602,0 -20.13848,-10.31483 -9.33247,-10.31483 -13.26193,-26.03267 -8.84128,-35.36513 -19.64729,-36.34749 z m -4.91183,51.08297 q 1.96473,0 7.85892,4.91183 5.89419,4.91182 6.87656,13.7531 0.98236,8.84129 -2.9471,15.71784 -7.85892,12.77074 -15.71783,14.73547 -7.85892,1.96473 -11.2972,-6.38537 -3.43828,-8.3501 0.49118,-23.08557 5.89419,-18.66493 12.77074,-19.6473 z m 282.92106,282.92106 q -33.4004,0 -33.4004,10.80601 0,5.89419 13.7531,11.78838 13.75311,5.89418 33.4004,8.84128 22.59439,2.94709 55.9948,7.85892 h 2.94709 q 4.91182,0.98236 6.38537,-3.43828 1.47355,-4.42064 -0.49118,-12.27956 -2.9471,-9.82365 -27.9974,-16.7002 -25.0503,-6.87655 -50.59178,-6.87655 z m -567.80684,73.67735 q -13.7531,0.98237 -28.48858,19.15612 -14.73547,18.17374 -14.73547,35.85631 0,10.80601 3.92946,21.12084 3.92946,10.31483 10.31483,14.24429 6.38537,3.92946 10.31483,17.68257 3.92946,13.7531 4.91183,30.4533 0,19.6473 0.98236,25.54148 0.98236,5.89419 4.91182,2.9471 3.92946,-2.9471 14.24429,-16.20902 10.31483,-13.26192 12.27956,-28.97976 1.96473,-15.71783 -3.43827,-27.01503 -5.40301,-11.29719 -16.20902,-11.29719 -10.80602,0 -12.77074,-14.24429 -1.96473,-14.24429 2.94709,-29.47094 4.91182,-15.22666 14.73547,-18.17375 6.87655,-2.9471 9.33247,-7.85892 2.45591,-4.91182 -1.96473,-9.33247 -4.42064,-4.42064 -11.2972,-4.42064 z m 222.9968,40.27696 q -21.61202,0 -33.4004,10.31483 -11.78838,10.31483 -23.57675,38.80341 -8.84129,19.64729 -20.62966,36.34749 -11.78838,16.7002 -18.66493,19.64729 -9.82365,3.92946 -7.36774,10.80602 2.45591,6.87655 18.17375,18.66493 27.50621,22.59439 37.82104,23.08557 10.31483,0.49118 3.43828,-21.12084 -3.92946,-8.84129 -1.47355,-15.22666 2.45591,-6.38537 9.82365,-6.38537 7.36774,0 9.33247,-7.85892 1.96472,-7.85891 -1.96473,-21.61202 -3.92946,-11.78837 -1.47355,-27.01503 2.45591,-15.22665 9.33246,-23.08557 11.78838,-13.75311 18.17375,-13.26192 6.38537,0.49118 19.6473,17.68256 13.26192,17.19139 16.20902,16.20902 2.94709,-0.98236 2.94709,-23.57675 0,-18.66493 -7.36774,-25.54149 -7.36773,-6.87655 -28.97976,-6.87655 z"
     id="path1462"
     inkscape:connector-curvature="0"
     style="fill:#000000;stroke-width:0.98236477" />
</svg>
