<svg xmlns="http://www.w3.org/2000/svg" viewBox="0 -1000 1000 1000">
	<path fill="#000000" d="M437 -850Q425 -850 403 -833Q378 -815 321 -763Q270 -716 158 -610Q89 -544 44.5 -494.5Q0 -445 0 -433Q0 -414 24 -327Q46 -245 73 -159Q103 -66 119 -33Q131 -7 139 17Q147 41 147 50Q147 59 156 77Q165 95 177.5 111Q190 127 201.5 138.5Q213 150 218 150Q231 150 348 100.5Q465 51 581 -4Q726 -72 801 -102Q855 -124 905 -152Q955 -180 985 -206Q1015 -232 1015 -248Q1015 -288 779 -526Q693 -614 631 -681Q566 -753 510 -801.5Q454 -850 437 -850ZM433 -806Q440 -806 484 -766Q524 -730 582 -672L631 -622Q755 -494 787 -462Q864 -383 910 -326Q956 -269 956 -252Q956 -241 945 -230Q933 -218 899 -199.5Q865 -181 797 -148Q737 -119 618 -65Q472 2 402 31Q327 63 295 71Q267 77 260 67Q256 60 271 -21Q285 -96 305 -176Q327 -263 337 -283.5Q347 -304 376 -431Q403 -548 424 -659Q447 -777 441.5 -777Q436 -777 430 -760.5Q424 -744 420 -721Q405 -632 375.5 -507.5Q346 -383 338 -372.5Q330 -362 307 -267Q285 -179 266 -83Q246 20 245 51Q244 102 233 107Q222 112 204 72.5Q186 33 162 -49Q147 -98 132 -141Q117 -184 110 -196Q96 -220 84.5 -262Q73 -304 68.5 -344.5Q64 -385 69 -405L79 -446L88 -409Q94 -385 106 -377Q118 -369 130 -379Q142 -389 149 -414Q155 -437 153.5 -444.5Q152 -452 142 -448Q130 -444 112.5 -452Q95 -460 84.5 -473.5Q74 -487 80 -496Q84 -503 90 -507.5Q96 -512 100 -512Q104 -512 152 -555Q200 -598 262.5 -658.5Q325 -719 375.5 -762.5Q426 -806 433 -806ZM333 -683Q329 -682 322 -676.5Q315 -671 301 -658Q265 -624 268 -583.5Q271 -543 283 -543Q295 -543 310 -581Q317 -598 326 -612.5Q335 -627 341.5 -631.5Q348 -636 349.5 -646.5Q351 -657 347.5 -667Q344 -677 341 -680.5Q338 -684 333 -683ZM501 -644Q492 -645 481.5 -623.5Q471 -602 456 -554Q450 -534 450.5 -526.5Q451 -519 459.5 -517Q468 -515 493 -516Q513 -517 525.5 -520.5Q538 -524 535.5 -528Q533 -532 538.5 -540Q544 -548 555 -555Q573 -566 573 -568Q573 -570 555 -570Q544 -570 534.5 -580.5Q525 -591 521 -607Q512 -643 501 -644ZM496 -592Q498 -592 504 -587Q510 -582 511 -573Q512 -564 508 -557Q500 -544 492 -542Q484 -540 480.5 -548.5Q477 -557 481 -572Q487 -591 494 -592ZM784 -304Q750 -304 750 -293Q750 -287 764 -281Q778 -275 798 -272Q821 -269 855 -264H858Q863 -263 864.5 -267.5Q866 -272 864 -280Q861 -290 835.5 -297Q810 -304 784 -304ZM206 -229Q192 -228 177 -209.5Q162 -191 162 -173Q162 -162 166 -151.5Q170 -141 176.5 -137Q183 -133 187 -119Q191 -105 192 -88Q192 -68 193 -62Q194 -56 198 -59Q202 -62 212.5 -75.5Q223 -89 225 -105Q227 -121 221.5 -132.5Q216 -144 205 -144Q194 -144 192 -158.5Q190 -173 195 -188.5Q200 -204 210 -207Q217 -210 219.5 -215Q222 -220 217.5 -224.5Q213 -229 206 -229ZM433 -188Q411 -188 399 -177.5Q387 -167 375 -138Q366 -118 354 -101Q342 -84 335 -81Q325 -77 327.5 -70Q330 -63 346 -51Q374 -28 384.5 -27.5Q395 -27 388 -49Q384 -58 386.5 -64.5Q389 -71 396.5 -71Q404 -71 406 -79Q408 -87 404 -101Q400 -113 402.5 -128.5Q405 -144 412 -152Q424 -166 430.5 -165.5Q437 -165 450.5 -147.5Q464 -130 467 -131Q470 -132 470 -155Q470 -174 462.5 -181Q455 -188 433 -188Z"/>
</svg>