<svg xmlns="http://www.w3.org/2000/svg" viewBox="0 -1000 1000 1000">
	<path fill="#000000" d="M558 -850Q506 -850 430 -833Q365 -818 249 -782Q171 -758 124.5 -737Q78 -716 53 -691.5Q28 -667 15 -633Q9 -617 4.5 -542.5Q0 -468 0 -380V-366Q0 -260 4 -223Q9 -168 30 -129.5Q51 -91 103 -43Q137 -11 244 78L258 90Q296 123 314 134Q335 147 354 149Q370 151 404 147Q458 140 575 105Q684 72 783 35Q887 -4 910 -22Q929 -38 939 -53.5Q949 -69 956 -97Q962 -123 968 -173.5Q974 -224 978.5 -295Q983 -366 983 -417Q983 -475 981 -501Q978 -531 970 -549Q963 -565 945 -585Q931 -602 917.5 -614.5Q904 -627 902 -627Q900 -627 869 -656Q838 -685 796 -726Q749 -772 716 -796Q678 -824 641 -837Q604 -850 558 -850ZM552 -812Q593 -812 629 -795.5Q665 -779 711 -739Q748 -707 821 -633L941 -512L930 -332Q921 -185 896 -111.5Q871 -38 823 -19Q808 -13 746 8Q679 29 608 51Q521 78 474 89Q420 102 388.5 103.5Q357 105 335 96Q316 87 296 66Q280 49 245 19Q210 -11 176 -36Q121 -77 99 -99Q71 -127 59 -158.5Q47 -190 44 -243Q42 -285 44 -383Q45 -467 48.5 -528.5Q52 -590 55.5 -593.5Q59 -597 94 -572.5Q129 -548 177 -508Q227 -466 269 -426L328 -371L332 -89L346 -206Q355 -280 355 -307Q354 -347 337.5 -376Q321 -405 277 -445Q248 -471 155 -545L150 -549Q114 -578 88.5 -604.5Q63 -631 63 -639Q63 -659 67 -659Q69 -659 98 -632Q127 -605 164 -570Q251 -488 295 -454Q344 -416 381 -405Q414 -395 461 -400L539 -409L471 -380Q443 -369 419 -353.5Q395 -338 389 -328Q380 -313 369 -219Q358 -131 353 -43Q347 51 353 66Q357 76 364 83.5Q371 91 377.5 91Q384 91 384 83.5Q384 76 378 64Q370 48 372 -39Q374 -120 383 -202Q393 -290 403 -309Q413 -328 486 -361Q553 -391 644 -420.5Q735 -450 803 -464Q877 -479 889 -467Q896 -460 903.5 -458Q911 -456 916 -461Q930 -474 917 -481.5Q904 -489 871.5 -489Q839 -489 797 -481L766 -475Q757 -474 757.5 -475.5Q758 -477 769 -482L808 -501Q835 -514 855 -528.5Q875 -543 875 -551.5Q875 -560 867.5 -558.5Q860 -557 847 -545Q836 -535 795 -517Q754 -499 706 -483Q660 -468 630 -453Q600 -438 605 -432.5Q610 -427 608 -426Q606 -425 598.5 -429.5Q591 -434 559 -433Q527 -432 489 -426Q398 -413 366 -429.5Q334 -446 274 -494Q218 -539 171 -582Q122 -629 117 -644L116 -646Q111 -665 111 -672Q111 -684 123 -693Q135 -702 164.5 -712.5Q194 -723 253 -740Q292 -751 399 -781L413 -785Q462 -798 491 -804Q526 -811 552 -812ZM446 -706Q412 -705 390 -686.5Q368 -668 364 -641Q360 -614 375 -590Q393 -564 429 -549Q455 -538 486.5 -535.5Q518 -533 545 -539.5Q572 -546 585 -558.5Q598 -571 601.5 -578Q605 -585 601 -592.5Q597 -600 584 -614Q569 -631 544.5 -638Q520 -645 493.5 -640Q467 -635 446 -619Q414 -595 401.5 -598Q389 -601 393 -631Q396 -647 401.5 -654Q407 -661 419.5 -664Q432 -667 457 -667Q485 -667 499.5 -674Q514 -681 508.5 -689.5Q503 -698 478 -703Q462 -706 446 -706ZM682 -624Q669 -624 660 -620Q643 -614 642.5 -609.5Q642 -605 657 -596Q679 -582 690.5 -581.5Q702 -581 709.5 -594Q717 -607 708 -615.5Q699 -624 682 -624ZM514 -610Q528 -610 538.5 -606Q549 -602 555.5 -595Q562 -588 562 -581Q562 -571 543 -567Q524 -563 503 -567Q482 -571 476 -581.5Q470 -592 482 -600.5Q494 -609 514 -610ZM113 -358Q105 -358 102 -356Q82 -348 78.5 -319Q75 -290 88 -263.5Q101 -237 122 -237Q136 -237 137.5 -241Q139 -245 128 -256Q117 -267 112.5 -285Q108 -303 111 -317Q114 -331 125 -331Q132 -331 136.5 -321.5Q141 -312 141 -298.5Q141 -285 146.5 -276.5Q152 -268 160 -269Q193 -274 206 -266.5Q219 -259 219 -237Q219 -224 212 -215Q205 -206 195 -206Q177 -206 173 -194Q169 -182 182 -169Q194 -159 202 -159Q223 -160 235 -178.5Q247 -197 248.5 -223.5Q250 -250 240 -273Q229 -298 209 -308Q194 -315 177 -325.5Q160 -336 150 -345Q143 -351 132.5 -354.5Q122 -358 113 -358ZM663 -283Q632 -282 606 -267Q578 -249 578 -226Q578 -214 579.5 -210.5Q581 -207 587 -210.5Q593 -214 607.5 -227Q622 -240 641 -247Q660 -254 673.5 -252Q687 -250 687 -239Q687 -234 675.5 -224.5Q664 -215 648 -208Q622 -196 600 -161Q578 -126 578 -95Q578 -88 604 -88Q630 -88 661.5 -93.5Q693 -99 707 -107Q721 -115 720 -121.5Q719 -128 706 -131Q693 -134 672 -131Q627 -124 627.5 -137.5Q628 -151 674 -190Q724 -231 714 -258Q709 -271 695.5 -277Q682 -283 663 -283Z"/>
</svg>