<?xml version="1.0" encoding="UTF-8" standalone="no"?>
<svg
   xmlns:dc="http://purl.org/dc/elements/1.1/"
   xmlns:cc="http://creativecommons.org/ns#"
   xmlns:rdf="http://www.w3.org/1999/02/22-rdf-syntax-ns#"
   xmlns:svg="http://www.w3.org/2000/svg"
   xmlns="http://www.w3.org/2000/svg"
   xmlns:sodipodi="http://sodipodi.sourceforge.net/DTD/sodipodi-0.dtd"
   xmlns:inkscape="http://www.inkscape.org/namespaces/inkscape"
   viewBox="0 -1000 1000 1000"
   version="1.1"
   id="svg1516"
   sodipodi:docname="d6.svg"
   inkscape:version="0.92.5 (2060ec1f9f, 2020-04-08)">
  <metadata
     id="metadata1522">
    <rdf:RDF>
      <cc:Work
         rdf:about="">
        <dc:format>image/svg+xml</dc:format>
        <dc:type
           rdf:resource="http://purl.org/dc/dcmitype/StillImage" />
        <dc:title></dc:title>
      </cc:Work>
    </rdf:RDF>
  </metadata>
  <defs
     id="defs1520" />
  <sodipodi:namedview
     pagecolor="#ffffff"
     bordercolor="#666666"
     borderopacity="1"
     objecttolerance="10"
     gridtolerance="10"
     guidetolerance="10"
     inkscape:pageopacity="0"
     inkscape:pageshadow="2"
     inkscape:window-width="1848"
     inkscape:window-height="1016"
     id="namedview1518"
     showgrid="false"
     inkscape:zoom="0.838"
     inkscape:cx="500"
     inkscape:cy="452.2673"
     inkscape:window-x="72"
     inkscape:window-y="27"
     inkscape:window-maximized="1"
     inkscape:current-layer="svg1516" />
  <path
     d="m 566.5,-999.83333 q -52,0 -128,17 -65,15 -181,51 -78,24 -124.5,45 -46.5,21 -71.5,45.5 -25,24.5 -38,58.5 -6,16 -10.5,90.5 -4.5,74.5 -4.5,162.5 v 14 q 0,106 4,143 5,55 26,93.5 21,38.5 73,86.5 34,32 141,120.999995 l 14,12 q 38,33 56,44 21,13 40,14.99999999 16,2.00000001 50,-1.99999999 54,-7 171,-42 109,-33 208,-69.999995 104,-39 127,-57 19,-16 29,-31.5 10,-15.5 17,-43.5 6,-26 12,-76.5 6,-50.5 10.5,-121.5 4.5,-71 4.5,-122 0,-58 -2,-84 -3,-30 -11,-48 -7,-16 -25,-36 -14,-17 -27.5,-29.5 -13.5,-12.5 -15.5,-12.5 -2,0 -33,-29 -31,-29 -73,-70 -47,-46 -80,-70 -38,-28 -75,-41 -37,-13 -83,-13 z m -6,38 q 41,0 77,16.5 36,16.5 82,56.5 37,32 110,106 l 120,121 -11,180 q -9,147 -34,220.5 -25,73.5 -73,92.5 -15,6 -77,27 -67,21 -138,42.999995 -87,27 -134,38 -54,13 -85.5,14.5 -31.5,1.5 -53.5,-7.5 -19,-9 -39,-30 -16,-16.999995 -51,-46.999995 -35,-30 -69,-55 -55,-41 -77,-63 -28,-28 -40,-59.5 -12,-31.5 -15,-84.5 -2,-42 0,-140 1,-84 4.5,-145.5 3.5,-61.5 7,-65 3.5,-3.5 38.5,21 35,24.5 83,64.5 50,42 92,82 l 59,55 4,282 14,-117 q 9,-74 9,-101 -1,-40 -17.5,-69 -16.5,-29 -60.5,-69 -29,-26 -122,-100 l -5,-4 q -36,-29 -61.5,-55.5 -25.5,-26.5 -25.5,-34.5 0,-20 4,-20 2,0 31,27 29,27 66,62 87,82 131,116 49,38 86,49 33,10 80,5 l 78,-9 -68,29 q -28,11 -52,26.5 -24,15.5 -30,25.5 -9,15 -20,109 -11,88 -16,176 -6,93.999995 0,108.999995 4,10 11,17.5 7,7.5 13.5,7.5 6.5,0 6.5,-7.5 0,-7.5 -6,-19.5 -8,-15.999995 -6,-102.999995 2,-81 11,-163 10,-88 20,-107 10,-19 83,-52 67,-30 158,-59.5 91,-29.5 159,-43.5 74,-15 86,-3 7,7 14.5,9 7.5,2 12.5,-3 14,-13 1,-20.5 -13,-7.5 -45.5,-7.5 -32.5,0 -74.5,8 l -31,6 q -9,1 -8.5,-0.5 0.5,-1.5 11.5,-6.5 l 39,-19 q 27,-13 47,-27.5 20,-14.5 20,-23 0,-8.5 -7.5,-7 -7.5,1.5 -20.5,13.5 -11,10 -52,28 -41,18 -89,34 -46,15 -76,30 -30,15 -25,20.5 5,5.5 3,6.5 -2,1 -9.5,-3.5 -7.5,-4.5 -39.5,-3.5 -32,1 -70,7 -91,13 -123,-3.5 -32,-16.5 -92,-64.5 -56,-45 -103,-88 -49,-47 -54,-62 l -1,-2 q -5,-19 -5,-26 0,-12 12,-21 12,-9 41.5,-19.5 29.5,-10.5 88.5,-27.5 39,-11 146,-41 l 14,-4 q 49,-13 78,-19 35,-7 61,-8 z m -106,106 q -34,1 -56,19.5 -22,18.5 -26,45.5 -4,27 11,51 18,26 54,41 26,11 57.5,13.5 31.5,2.5 58.5,-4 27,-6.5 40,-19 13,-12.5 16.5,-19.5 3.5,-7 -0.5,-14.5 -4,-7.5 -17,-21.5 -15,-17 -39.5,-24 -24.5,-7 -51,-2 -26.5,5 -47.5,21 -32,24 -44.5,21 -12.5,-3 -8.5,-33 3,-16 8.5,-23 5.5,-7 18,-10 12.5,-3 37.5,-3 28,0 42.5,-7 14.5,-7 9,-15.5 -5.5,-8.5 -30.5,-13.5 -16,-3 -32,-3 z m 236,82 q -13,0 -22,4 -17,6 -17.5,10.5 -0.5,4.5 14.5,13.5 22,14 33.5,14.5 11.5,0.5 19,-12.5 7.5,-13 -1.5,-21.5 -9,-8.5 -26,-8.5 z m -168,14 q 14,0 24.5,4 10.5,4 17,11 6.5,7 6.5,14 0,10 -19,14 -19,4 -40,0 -21,-4 -27,-14.5 -6,-10.5 6,-19 12,-8.5 32,-9.5 z m -401,252 q -8,0 -11,2 -20,8 -23.5,37 -3.5,29 9.5,55.5 13,26.5 34,26.5 14,0 15.5,-4 1.5,-4 -9.5,-15 -11,-11 -15.5,-29 -4.5,-18 -1.5,-32 3,-14 14,-14 7,0 11.5,9.5 4.5,9.5 4.5,23 0,13.5 5.5,22 5.5,8.5 13.5,7.5 33,-5 46,2.5 13,7.5 13,29.5 0,13 -7,22 -7,9 -17,9 -18,0 -22,12 -4,12 9,25 12,10 20,10 21,-1 33,-19.5 12,-18.5 13.5,-45 1.5,-26.5 -8.5,-49.5 -11,-25 -31,-35 -15,-7 -32,-17.5 -17,-10.5 -27,-19.5 -7,-6 -17.5,-9.5 -10.5,-3.5 -19.5,-3.5 z m 550,75 q -31,1 -57,16 -28,18 -28,41 0,12 1.5,15.5 1.5,3.5 7.5,0 6,-3.5 20.5,-16.5 14.5,-13 33.5,-20 19,-7 32.5,-5 13.5,2 13.5,13 0,5 -11.5,14.5 -11.5,9.5 -27.5,16.5 -26,12 -48,47 -22,35 -22,66 0,7 26,7 26,0 57.5,-5.5 31.5,-5.5 45.5,-13.5 14,-8 13,-14.5 -1,-6.5 -14,-9.5 -13,-3 -34,0 -45,7 -44.5,-6.5 0.5,-13.5 46.5,-52.5 50,-41 40,-68 -5,-13 -18.5,-19 -13.5,-6 -32.5,-6 z"
     id="path1514"
     inkscape:connector-curvature="0"
     style="fill:#000000" />
</svg>
