<svg xmlns="http://www.w3.org/2000/svg" viewBox="0 -1000 1000 1000">
	<path fill="#000000" d="M441 -850Q410 -849 374 -825Q340 -803 288 -751Q254 -718 166 -624L155 -612Q105 -558 87 -533Q64 -503 51 -468Q41 -439 25 -369Q11 -313 4 -262.5Q-3 -212 1 -199Q5 -186 27 -163Q49 -140 76 -121Q105 -101 149 -68Q195 -33 229 -4Q294 50 347.5 87.5Q401 125 433 140Q452 148 464 149.5Q476 151 492 146Q505 142 536 127Q558 117 595 84Q632 51 662.5 14Q693 -23 733.5 -67.5Q774 -112 801 -138Q830 -166 845 -187Q862 -210 875 -243Q886 -273 902 -330Q916 -384 923.5 -431Q931 -478 926.5 -491.5Q922 -505 899.5 -529Q877 -553 850 -573.5Q823 -594 704 -686L637 -738Q580 -783 557 -799Q520 -826 494 -837Q466 -850 441 -850ZM441 -820Q450 -820 469.5 -808.5Q489 -797 508.5 -780.5Q528 -764 545 -752.5Q562 -741 566 -741Q570 -741 605.5 -713Q641 -685 685.5 -646.5Q730 -608 766.5 -580.5Q803 -553 809.5 -553Q816 -553 820.5 -548.5Q825 -544 825 -537Q825 -522 488 -522Q347 -522 249 -525.5Q151 -529 151 -534Q151 -544 221 -618Q287 -686 356 -751Q431 -820 441 -820ZM481 -708Q479 -708 475 -708L469 -707Q443 -704 432.5 -693Q422 -682 416 -652Q412 -631 411.5 -613.5Q411 -596 414 -593Q423 -584 451.5 -583.5Q480 -583 506.5 -589Q533 -595 536.5 -604.5Q540 -614 537.5 -632.5Q535 -651 528 -669Q519 -692 509 -700.5Q499 -709 481 -708ZM475 -691Q492 -690 501 -681.5Q510 -673 503 -662Q495 -648 483.5 -648Q472 -648 449 -662Q434 -672 434.5 -676Q435 -680 452 -687Q463 -691 475 -691ZM481 -631Q502 -631 512.5 -627Q523 -623 519 -616Q515 -609 501.5 -604.5Q488 -600 471.5 -600Q455 -600 444 -604.5Q433 -609 433 -615.5Q433 -622 447.5 -626.5Q462 -631 481 -631ZM271 -509Q360 -509 508 -506L880 -498L885 -463Q887 -448 879 -408.5Q871 -369 857 -328Q831 -252 764.5 -165Q698 -78 575 39Q535 77 507.5 91.5Q480 106 456 101.5Q432 97 402 73Q126 -146 108 -146Q102 -146 89 -155Q76 -164 64 -177Q49 -194 46 -205Q41 -220 45 -250Q48 -275 61 -344Q72 -403 86.5 -446Q101 -489 112 -496Q126 -508 271 -509ZM278 -473Q135 -471 135 -458Q135 -445 178 -356Q218 -274 268 -183Q320 -88 344 -55L423 51Q434 67 448 78.5Q462 90 470 90Q486 90 529 51Q571 13 619 -45Q671 -106 708 -163Q740 -212 772.5 -256.5Q805 -301 820 -316.5Q835 -332 845.5 -347.5Q856 -363 856 -369Q856 -383 835 -363Q814 -343 778.5 -296.5Q743 -250 702 -188Q668 -139 623 -82Q578 -25 548.5 5Q519 35 508 45Q492 59 483 63Q474 67 465 63Q459 60 446 48Q433 36 417.5 15.5Q402 -5 392.5 -23Q383 -41 370 -59.5Q357 -78 348 -87Q334 -101 288 -182Q245 -258 207 -333Q167 -413 167 -424Q167 -435 248.5 -440Q330 -445 523 -446L692 -448Q758 -448 784 -449Q810 -450 805 -451Q800 -452 765 -455L668 -460Q430 -473 278 -473ZM498 -333Q479 -333 462 -328.5Q445 -324 436 -315Q418 -297 416 -274Q414 -251 427 -231.5Q440 -212 465 -203Q492 -193 503.5 -183Q515 -173 507 -167Q499 -161 473 -161Q457 -161 443.5 -156.5Q430 -152 425 -146Q418 -135 438.5 -131.5Q459 -128 486 -133Q513 -138 524 -149Q541 -166 543 -182.5Q545 -199 533 -211.5Q521 -224 496 -229Q471 -234 460 -243.5Q449 -253 449 -269Q449 -296 470.5 -306Q492 -316 528 -307Q547 -302 552.5 -304Q558 -306 552.5 -315Q547 -324 532 -328.5Q517 -333 498 -333Z"/>
</svg>