<?xml version="1.0" encoding="UTF-8" standalone="no"?>
<svg
   xmlns:dc="http://purl.org/dc/elements/1.1/"
   xmlns:cc="http://creativecommons.org/ns#"
   xmlns:rdf="http://www.w3.org/1999/02/22-rdf-syntax-ns#"
   xmlns:svg="http://www.w3.org/2000/svg"
   xmlns="http://www.w3.org/2000/svg"
   xmlns:sodipodi="http://sodipodi.sourceforge.net/DTD/sodipodi-0.dtd"
   xmlns:inkscape="http://www.inkscape.org/namespaces/inkscape"
   viewBox="0 -1000 1000 1000"
   version="1.1"
   id="svg1568"
   sodipodi:docname="d8.svg"
   inkscape:version="0.92.5 (2060ec1f9f, 2020-04-08)">
  <metadata
     id="metadata1574">
    <rdf:RDF>
      <cc:Work
         rdf:about="">
        <dc:format>image/svg+xml</dc:format>
        <dc:type
           rdf:resource="http://purl.org/dc/dcmitype/StillImage" />
        <dc:title></dc:title>
      </cc:Work>
    </rdf:RDF>
  </metadata>
  <defs
     id="defs1572" />
  <sodipodi:namedview
     pagecolor="#ffffff"
     bordercolor="#666666"
     borderopacity="1"
     objecttolerance="10"
     gridtolerance="10"
     guidetolerance="10"
     inkscape:pageopacity="0"
     inkscape:pageshadow="2"
     inkscape:window-width="1848"
     inkscape:window-height="1016"
     id="namedview1570"
     showgrid="false"
     inkscape:zoom="0.838"
     inkscape:cx="500"
     inkscape:cy="500"
     inkscape:window-x="72"
     inkscape:window-y="27"
     inkscape:window-maximized="1"
     inkscape:current-layer="svg1568" />
  <path
     d="m 477.13352,-999.92308 q -31,1 -67,25 -34,22 -86,74 -34,33 -122,127 l -11,12 q -50,54 -68,79 -23,30 -35.999997,65 -10,29 -26,99 -14,56 -21,106.5 -7,50.5 -3,63.5 4,13 26,36 22,23 48.999997,42 29,20 73,53 46,35 80,64 65,54.000003 118.5,91.500003 53.5,37.5 85.5,52.5000001 19,8 31,9.49999998 12,1.50000002 28,-3.49999998 13,-4 44,-19.0000001 22,-10 59,-43 37,-33 67.5,-70.000003 30.5,-37 71,-81.5 40.5,-44.5 67.5,-70.5 29,-28 44,-49 17,-23 30,-56 11,-30 27,-87 14,-54 21.5,-101 7.5,-47 3,-60.5 -4.5,-13.5 -27,-37.5 -22.5,-24 -49.5,-44.5 -27,-20.5 -146,-112.5 l -67,-52 q -57,-45 -80,-61 -37,-27 -63,-38 -28,-13 -53,-13 z m 0,30 q 9,0 28.5,11.5 19.5,11.5 39,28 19.5,16.5 36.5,28 17,11.5 21,11.5 4,0 39.5,28 35.5,28 80,66.5 44.5,38.5 81,66 36.5,27.5 43,27.5 6.5,0 11,4.5 4.5,4.5 4.5,11.5 0,15 -337,15 -141,0 -239,-3.5 -98,-3.5 -98,-8.5 0,-10 70,-84 66,-68 135,-133 75,-69 85,-69 z m 40,112 q -2,0 -6,0 l -6,1 q -26,3 -36.5,14 -10.5,11 -16.5,41 -4,21 -4.5,38.5 -0.5,17.5 2.5,20.5 9,9 37.5,9.5 28.5,0.5 55,-5.5 26.5,-6 30,-15.5 3.5,-9.5 1,-28 -2.5,-18.5 -9.5,-36.5 -9,-23 -19,-31.5 -10,-8.5 -28,-7.5 z m -6,17 q 17,1 26,9.5 9,8.5 2,19.5 -8,14 -19.5,14 -11.5,0 -34.5,-14 -15,-10 -14.5,-14 0.5,-4 17.5,-11 11,-4 23,-4 z m 6,60 q 21,0 31.5,4 10.5,4 6.5,11 -4,7 -17.5,11.5 -13.5,4.5 -30,4.5 -16.5,0 -27.5,-4.5 -11,-4.5 -11,-11 0,-6.5 14.5,-11 14.5,-4.5 33.5,-4.5 z m -210,122 q 89,0 237,3 l 372,8 5,35 q 2,15 -6,54.5 -8,39.5 -22,80.5 -26,76 -92.5,163 -66.5,87 -189.5,204 -40,38.000003 -67.5,52.500003 -27.5,14.5 -51.5,10 -24,-4.5 -54,-28.5 -276,-219.000003 -294,-219.000003 -6,0 -19,-9 -13,-9 -25,-22 -14.999997,-17 -17.999997,-28 -5,-15 -1,-45 3,-25 16,-94 10.999997,-59 25.499997,-102 14.5,-43 25.5,-50 14,-12 159,-13 z m 7,36 q -143,2 -143,15 0,13 43,102 40,82 90,173 52,95 76,128 l 79,106.000003 q 11,16 25,27.5 14,11.5 22,11.5 16,0 59,-39 42,-38.000003 90,-96.000003 52,-61 89,-118 32,-49 64.5,-93.5 32.5,-44.5 47.5,-60 15,-15.5 25.5,-31 10.5,-15.5 10.5,-21.5 0,-14 -21,6 -21,20 -56.5,66.5 -35.5,46.5 -76.5,108.5 -34,49 -79,106 -45,57 -74.5,87 -29.5,30 -40.5,40 -16,14.000003 -25,18.000003 -9,4 -18,0 -6,-3 -19,-15.000003 -13,-12 -28.5,-32.5 -15.5,-20.5 -25,-38.5 -9.5,-18 -22.5,-36.5 -13,-18.5 -22,-27.5 -14,-14 -60,-95 -43,-76 -81,-151 -40,-80 -40,-91 0,-11 81.5,-16 81.5,-5 274.5,-6 l 169,-2 q 66,0 92,-1 26,-1 21,-2 -5,-1 -40,-4 l -97,-5 q -238,-13 -390,-13 z m 220,140 q -19,0 -36,4.5 -17,4.5 -26,13.5 -18,18 -20,41 -2,23 11,42.5 13,19.5 38,28.5 27,10 38.5,20 11.5,10 3.5,16 -8,6 -34,6 -16,0 -29.5,4.5 -13.5,4.5 -18.5,10.5 -7,11 13.5,14.5 20.5,3.5 47.5,-1.5 27,-5 38,-16 17,-17 19,-33.5 2,-16.5 -10,-29 -12,-12.5 -37,-17.5 -25,-5 -36,-14.5 -11,-9.5 -11,-25.5 0,-27 21.5,-37 21.5,-10 57.5,-1 19,5 24.5,3 5.5,-2 0,-11 -5.5,-9 -20.5,-13.5 -15,-4.5 -34,-4.5 z"
     id="path1566"
     inkscape:connector-curvature="0"
     style="fill:#000000" />
</svg>
