<svg xmlns="http://www.w3.org/2000/svg" viewBox="0 -1000 1000 1000">
	<path fill="#000000" d="M429 -421Q561 -421 676 -445Q791 -469 857 -516V-421Q857 -383 800 -350Q743 -317 643 -298Q543 -279 429 -279Q315 -279 214 -298Q113 -317 58 -350Q3 -383 0 -421V-516Q66 -469 181 -445Q296 -421 429 -421ZM429 7Q561 7 676 -17Q791 -41 857 -88V7Q857 46 800 79Q743 112 643 131Q543 150 429 150Q315 150 214 131Q113 112 58 79Q3 46 0 7V-88Q66 -41 181 -17Q296 7 429 7ZM429 -207Q561 -207 676 -231Q791 -255 857 -302V-207Q857 -169 800 -136Q743 -103 643 -84Q543 -65 429 -64Q315 -63 214 -84Q113 -105 58 -136Q3 -167 0 -207V-302Q66 -255 181 -231Q296 -207 429 -207ZM429 -850Q545 -850 643 -831Q741 -812 800 -779Q859 -746 857 -707V-636Q857 -597 800 -564Q743 -531 643 -512Q543 -493 429 -493Q315 -493 214 -512Q113 -531 58 -564Q3 -597 0 -636V-707Q0 -746 58 -779Q116 -812 214 -831Q312 -850 429 -850Z"/>
</svg>