<?xml version="1.0" encoding="UTF-8" standalone="no"?>
<svg
   xmlns:dc="http://purl.org/dc/elements/1.1/"
   xmlns:cc="http://creativecommons.org/ns#"
   xmlns:rdf="http://www.w3.org/1999/02/22-rdf-syntax-ns#"
   xmlns:svg="http://www.w3.org/2000/svg"
   xmlns="http://www.w3.org/2000/svg"
   xmlns:sodipodi="http://sodipodi.sourceforge.net/DTD/sodipodi-0.dtd"
   xmlns:inkscape="http://www.inkscape.org/namespaces/inkscape"
   viewBox="0 -1000 1000 1000"
   version="1.1"
   id="svg1776"
   sodipodi:docname="database.svg"
   inkscape:version="0.92.5 (2060ec1f9f, 2020-04-08)">
  <metadata
     id="metadata1782">
    <rdf:RDF>
      <cc:Work
         rdf:about="">
        <dc:format>image/svg+xml</dc:format>
        <dc:type
           rdf:resource="http://purl.org/dc/dcmitype/StillImage" />
        <dc:title></dc:title>
      </cc:Work>
    </rdf:RDF>
  </metadata>
  <defs
     id="defs1780" />
  <sodipodi:namedview
     pagecolor="#ffffff"
     bordercolor="#666666"
     borderopacity="1"
     objecttolerance="10"
     gridtolerance="10"
     guidetolerance="10"
     inkscape:pageopacity="0"
     inkscape:pageshadow="2"
     inkscape:window-width="1848"
     inkscape:window-height="1016"
     id="namedview1778"
     showgrid="false"
     inkscape:zoom="0.838"
     inkscape:cx="500"
     inkscape:cy="547.7327"
     inkscape:window-x="72"
     inkscape:window-y="27"
     inkscape:window-maximized="1"
     inkscape:current-layer="svg1776" />
  <path
     d="m 500.46721,-571 q 132,0 247,-24 115,-24 181,-71 v 95 q 0,38 -57,71 -57,33 -157,52 -100,19 -214,19 -114,0 -215,-19 -101,-19 -156,-52 -54.999997,-33 -57.999997,-71 v -95 q 65.999997,47 180.999997,71 115,24 248,24 z m 0,428 q 132,0 247,-24 115,-24 181,-71 v 95 q 0,39 -57,72 -57,33 -157,52 -100,19 -214,19 -114,0 -215,-19 -101,-19 -156,-52 -54.999997,-33 -57.999997,-72 v -95 q 65.999997,47 180.999997,71 115,24 248,24 z m 0,-214 q 132,0 247,-24 115,-24 181,-71 v 95 q 0,38 -57,71 -57,33 -157,52 -100,19 -214,20 -114,1 -215,-20 -101,-21 -156,-52 -54.999997,-31 -57.999997,-71 v -95 q 65.999997,47 180.999997,71 115,24 248,24 z m 0,-643 q 116,0 214,19 98,19 157,52 59,33 57,72 v 71 q 0,39 -57,72 -57,33 -157,52 -100,19 -214,19 -114,0 -215,-19 -101,-19 -156,-52 -54.999997,-33 -57.999997,-72 v -71 q 0,-39 57.999997,-72 58,-33 156,-52 98,-19 215,-19 z"
     id="path1774"
     inkscape:connector-curvature="0"
     style="fill:#000000" />
</svg>
