<?xml version="1.0" encoding="UTF-8" standalone="no"?>
<svg
   xmlns:dc="http://purl.org/dc/elements/1.1/"
   xmlns:cc="http://creativecommons.org/ns#"
   xmlns:rdf="http://www.w3.org/1999/02/22-rdf-syntax-ns#"
   xmlns:svg="http://www.w3.org/2000/svg"
   xmlns="http://www.w3.org/2000/svg"
   xmlns:sodipodi="http://sodipodi.sourceforge.net/DTD/sodipodi-0.dtd"
   xmlns:inkscape="http://www.inkscape.org/namespaces/inkscape"
   viewBox="0 -1000 1000 1000"
   version="1.1"
   id="svg1828"
   sodipodi:docname="dcgan.svg"
   inkscape:version="0.92.5 (2060ec1f9f, 2020-04-08)">
  <metadata
     id="metadata1834">
    <rdf:RDF>
      <cc:Work
         rdf:about="">
        <dc:format>image/svg+xml</dc:format>
        <dc:type
           rdf:resource="http://purl.org/dc/dcmitype/StillImage" />
        <dc:title></dc:title>
      </cc:Work>
    </rdf:RDF>
  </metadata>
  <defs
     id="defs1832" />
  <sodipodi:namedview
     pagecolor="#ffffff"
     bordercolor="#666666"
     borderopacity="1"
     objecttolerance="10"
     gridtolerance="10"
     guidetolerance="10"
     inkscape:pageopacity="0"
     inkscape:pageshadow="2"
     inkscape:window-width="1848"
     inkscape:window-height="1016"
     id="namedview1830"
     showgrid="false"
     inkscape:zoom="0.838"
     inkscape:cx="500"
     inkscape:cy="452.2673"
     inkscape:window-x="72"
     inkscape:window-y="27"
     inkscape:window-maximized="1"
     inkscape:current-layer="svg1828" />
  <path
     d="m 847.32059,-924.48733 q -45.85342,-1.69827 -88.31019,14.43531 -45.00423,16.13361 -84.91366,50.94819 -52.64647,52.64647 -67.50634,125.67219 -14.8599,73.02574 14.01074,142.23035 28.87064,69.20462 90.85759,110.8123 61.98694,41.60768 136.71092,41.60768 67.08188,0 123.97393,-33.96544 56.04292,-32.26719 88.31022,-88.31018 33.9655,-56.89216 33.9655,-123.97393 -1.6984,-64.53436 -37.3621,-120.57736 -33.1162,-52.64646 -89.58381,-84.91364 -56.46757,-32.26719 -120.1528,-33.96547 z M 51.679752,-815.79787 q -21.228409,0 -35.663734,14.43532 -14.435314,14.43532 -14.435314,35.66374 v 640.24885 q 0,21.22841 14.435314,35.663734 14.435325,14.435291 35.663734,14.435291 H 948.3678 q 18.68099,0 33.11628,-11.887892 l 2.54745,-2.547399 q 14.43529,-14.435324 14.43529,-35.663734 v -256.4392 q -27.17229,13.58618 -59.4395,22.92667 V -135.6396 H 61.869378 V -756.35832 H 524.6487 q 8.49138,-32.26718 20.3793,-59.43955 z m 760.826168,12.73706 h 71.32746 q 11.03875,0 18.25653,7.21764 7.21765,7.21767 8.06671,18.25643 v 81.51711 h 45.85342 q 11.03875,0 17.40734,8.91592 6.36845,8.91594 2.12272,19.10558 -2.54732,6.79309 -11.88781,16.98272 -12.73717,14.43533 -56.04299,55.19387 -36.51293,33.96546 -42.45692,41.60768 -5.94398,7.64224 -16.13353,7.64224 -10.18968,0 -16.98274,-7.64224 -6.79317,-7.64222 -43.30597,-42.45681 -40.75851,-38.21115 -53.49567,-51.79732 -10.18955,-11.03878 -13.58607,-17.83188 -5.09492,-11.03876 1.27366,-21.22841 6.36858,-10.18964 18.2564,-8.49135 h 45.00423 v -81.51711 q 0.84919,-11.03876 8.06683,-18.25643 7.21765,-7.21764 18.2564,-7.21764 z m -707.33059,88.31018 v 534.95592 l 174.07295,-136.71094 v -106.99121 h 90.00848 v 106.99121 l 174.92209,136.71094 v -534.95592 l -174.92209,136.71096 v 106.14205 h -90.00848 v -106.14205 z m 69.62918,175.77124 h 36.51287 l 44.1551,183.41346 h -30.56891 l -7.64222,-33.96546 h -47.55166 l -7.64222,33.96546 h -30.56891 z m 269.17625,0 h 30.56891 v 183.41346 h -30.56891 z m -250.49523,43.30596 -16.1336,72.17657 h 32.2672 z"
     id="path1826"
     inkscape:connector-curvature="0"
     style="fill:#000000;stroke-width:0.84913635" />
</svg>
