<svg xmlns="http://www.w3.org/2000/svg" viewBox="0 -1000 1000 1000">
	<path fill="#000000" d="M996 -850Q942 -852 892 -833Q839 -814 792 -773Q730 -711 712.5 -625Q695 -539 729 -457.5Q763 -376 836 -327Q909 -278 997 -278Q1076 -278 1143 -318Q1209 -356 1247 -422Q1287 -489 1287 -568Q1285 -644 1243 -710Q1204 -772 1137.5 -810Q1071 -848 996 -850ZM59 -722Q34 -722 17 -705Q0 -688 0 -663V91Q0 116 17 133Q34 150 59 150H1115Q1137 150 1154 136L1157 133Q1174 116 1174 91V-211Q1142 -195 1104 -184V79H71V-652H616Q626 -690 640 -722ZM955 -707H1039Q1052 -707 1060.5 -698.5Q1069 -690 1070 -677V-581H1124Q1137 -581 1144.5 -570.5Q1152 -560 1147 -548Q1144 -540 1133 -528Q1118 -511 1067 -463Q1024 -423 1017 -414Q1010 -405 998 -405Q986 -405 978 -414Q970 -423 927 -464Q879 -509 864 -525Q852 -538 848 -546Q842 -559 849.5 -571Q857 -583 871 -581H924V-677Q925 -690 933.5 -698.5Q942 -707 955 -707ZM122 -603V27L327 -134V-260H433V-134L639 27V-603L433 -442V-317H327V-442ZM204 -396H247L299 -180H263L254 -220H198L189 -180H153ZM521 -396H557V-180H521ZM226 -345L207 -260H245Z"/>
</svg>