<svg xmlns="http://www.w3.org/2000/svg" viewBox="0 -1000 1000 1000">
	<path fill="#000000" d="M831 -807Q816 -806 803.5 -796.5Q791 -787 783 -769Q751 -691 669 -586Q700 -561 723 -527Q829 -608 914 -638Q945 -648 953 -670Q960 -691 946.5 -709Q933 -727 907 -729Q877 -730 845 -707Q870 -732 873 -757Q876 -778 863 -792.5Q850 -807 831 -807ZM164 -807Q145 -806 130 -792Q115 -778 114 -757Q113 -733 132 -709Q108 -732 83 -732Q61 -732 48 -716.5Q35 -701 41 -682Q47 -661 73 -649Q157 -610 266 -524Q290 -560 324 -588Q243 -697 203 -780Q197 -794 187 -800.5Q177 -807 164 -807ZM495 -612Q431 -612 376.5 -580Q322 -548 290 -493.5Q258 -439 258 -375Q258 -311 290 -256.5Q322 -202 375 -171V-60H412V-153Q426 -147 443 -144V-60H480V-139Q485 -138 495.5 -138Q506 -138 511 -139V-60H547V-144Q562 -147 579 -153V-60H615V-170Q668 -201 700 -256Q732 -311 732 -375Q732 -439 700 -493.5Q668 -548 613.5 -580Q559 -612 495 -612ZM365 -440Q394 -440 414.5 -419Q435 -398 435 -369Q435 -340 414.5 -319.5Q394 -299 365 -299Q336 -299 315 -319.5Q294 -340 294 -369Q294 -398 315 -419Q336 -440 365 -440ZM626 -440Q655 -440 675.5 -419Q696 -398 696 -369Q696 -340 675.5 -319.5Q655 -299 626 -299Q597 -299 576 -319.5Q555 -340 555 -369Q555 -398 576 -419Q597 -440 626 -440ZM495 -337L554 -243H437ZM286 -200Q159 -97 72 -58Q46 -46 40 -25Q35 -6 48 9.5Q61 25 83 25Q108 25 132 2Q111 27 114 52Q117 74 134.5 88Q152 102 172.5 99Q193 96 203 73Q248 -22 345 -147Q312 -168 286 -200ZM702 -196Q678 -169 648 -148Q749 -22 783 62Q795 90 818 97Q839 104 856.5 91Q874 78 873 55Q872 28 845 0Q877 23 907 22Q933 20 946.5 1.5Q960 -17 953 -37Q945 -59 914 -70Q827 -99 702 -196Z"/>
</svg>