<?xml version="1.0" encoding="UTF-8" standalone="no"?>
<svg
   xmlns:dc="http://purl.org/dc/elements/1.1/"
   xmlns:cc="http://creativecommons.org/ns#"
   xmlns:rdf="http://www.w3.org/1999/02/22-rdf-syntax-ns#"
   xmlns:svg="http://www.w3.org/2000/svg"
   xmlns="http://www.w3.org/2000/svg"
   xmlns:sodipodi="http://sodipodi.sourceforge.net/DTD/sodipodi-0.dtd"
   xmlns:inkscape="http://www.inkscape.org/namespaces/inkscape"
   viewBox="0 -1000 1000 1000"
   version="1.1"
   id="svg6064"
   sodipodi:docname="dead.svg"
   inkscape:version="0.92.5 (2060ec1f9f, 2020-04-08)">
  <metadata
     id="metadata6070">
    <rdf:RDF>
      <cc:Work
         rdf:about="">
        <dc:format>image/svg+xml</dc:format>
        <dc:type
           rdf:resource="http://purl.org/dc/dcmitype/StillImage" />
        <dc:title></dc:title>
      </cc:Work>
    </rdf:RDF>
  </metadata>
  <defs
     id="defs6068" />
  <sodipodi:namedview
     pagecolor="#ffffff"
     bordercolor="#666666"
     borderopacity="1"
     objecttolerance="10"
     gridtolerance="10"
     guidetolerance="10"
     inkscape:pageopacity="0"
     inkscape:pageshadow="2"
     inkscape:window-width="1347"
     inkscape:window-height="672"
     id="namedview6066"
     showgrid="false"
     inkscape:zoom="0.37688791"
     inkscape:cx="592.09063"
     inkscape:cy="427.33777"
     inkscape:window-x="2493"
     inkscape:window-y="371"
     inkscape:window-maximized="0"
     inkscape:current-layer="svg6064" />
  <path
     d="m 853.33231,-979.50115 q -15.86825,1.0579 -29.09179,11.10778 -13.22354,10.04989 -21.68661,29.09179 -33.85226,82.51489 -120.59869,193.59264 32.79438,26.44708 57.1257,62.41511 112.13562,-85.68855 202.0557,-117.42505 32.79441,-10.57883 41.25741,-33.85226 7.4052,-22.21555 -6.8762,-41.25745 -14.28143,-19.0419 -41.78639,-21.15766 -31.7365,-1.05789 -65.58876,23.27343 26.44708,-26.44708 29.62073,-52.89416 3.17365,-22.21555 -10.57883,-37.55486 -13.75249,-15.33931 -33.85227,-15.33931 z m -705.60814,0 q -20.09978,1.0579 -35.96803,15.86825 -15.868252,14.81037 -16.926132,37.02592 -1.05789,25.38919 19.041892,50.77839 -25.389192,-24.33131 -51.836276,-24.33131 -23.273432,0 -37.025914,16.39719 -13.752483,16.39719 -7.405183,36.49697 6.347299,22.21555 33.852264,34.91015 88.862199,41.25745 204.171469,132.23541 25.3892,-38.0838 61.35723,-67.70453 -85.68854,-115.30928 -128.00387,-203.11359 -6.3473,-14.81037 -16.92614,-21.68661 -10.57883,-6.87624 -24.33131,-6.87624 z m 350.15936,206.28724 q -67.70453,0 -125.35917,33.85226 -57.65463,33.85227 -91.5069,91.50691 -33.85226,57.65464 -33.85226,125.35917 0,67.70452 33.85226,125.35916 33.85227,57.65464 89.92008,90.44902 v 117.42505 h 39.14168 v -98.38315 q 14.81037,6.3473 32.79438,9.52095 v 88.8622 h 39.14168 v -83.57278 q 5.28942,1.05788 16.39719,1.05788 11.10778,0 16.39719,-1.05788 v 83.57278 h 38.0838 v -88.8622 q 15.86825,-3.17365 33.85227,-9.52095 v 98.38315 h 38.08379 V -305.6295 q 56.06782,-32.79439 89.92008,-90.97797 33.85227,-58.18358 33.85227,-125.8881 0,-67.70453 -33.85227,-125.35917 -33.85226,-57.65464 -91.5069,-91.50691 -57.65464,-33.85226 -125.35917,-33.85226 z m -137.52482,181.95592 q 30.67861,0 52.36522,22.21555 21.68661,22.21555 21.68661,52.89416 0,30.67862 -21.68661,52.36523 -21.68661,21.6866 -52.36522,21.6866 -30.67862,0 -52.89417,-21.6866 -22.21555,-21.68661 -22.21555,-52.36523 0,-30.67861 22.21555,-52.89416 22.21555,-22.21555 52.89417,-22.21555 z m 276.10753,0 q 30.67862,0 52.36522,22.21555 21.68661,22.21555 21.68661,52.89416 0,30.67862 -21.68661,52.36523 -21.6866,21.6866 -52.36522,21.6866 -30.67861,0 -52.89416,-21.6866 -22.21555,-21.68661 -22.21555,-52.36523 0,-30.67861 22.21555,-52.89416 22.21555,-22.21555 52.89416,-22.21555 z m -138.58271,108.96198 62.41511,99.44103 H 436.5263 Z M 276.78593,-337.366 q -134.35118,108.96197 -226.387022,150.21942 -27.504965,12.6946 -33.852265,34.91015 -5.289416,20.09978 8.463067,36.49697 13.752482,16.397187 37.025914,16.397187 26.447084,0 51.836276,-24.331307 -22.215542,26.447077 -19.041892,52.894163 3.17365,23.273432 21.686602,38.083798 18.51296,14.810366 40.19957,11.636716 21.6866,-3.17365 32.26544,-27.504965 47.60474,-100.498912 150.21942,-232.734322 -34.91015,-22.21555 -62.41511,-56.06781 z m 440.07944,4.23153 q -25.3892,28.56285 -57.1257,50.7784 106.84621,133.29329 142.81424,222.155486 12.6946,29.620731 37.02592,37.025914 22.21555,7.405183 40.7285,-6.347299 18.51296,-13.752483 17.45508,-38.083798 -1.05789,-28.562856 -29.62073,-58.183583 33.85226,24.33132 65.58876,23.27343 27.50496,-2.11576 41.78639,-21.6866 14.2814,-19.57084 6.8762,-40.72851 -8.463,-23.27343 -41.25741,-34.91015 -92.03584,-30.67861 -224.27125,-133.29329 z"
     id="path6062"
     inkscape:connector-curvature="0"
     style="fill:#000000;stroke-width:1.05788326" />
</svg>
