<svg xmlns="http://www.w3.org/2000/svg" viewBox="0 -1000 1000 1000">
	<path fill="#000000" d="M573 -350Q594 -350 609 -335Q624 -320 625 -298Q626 -276 609 -262Q592 -248 573 -247H469V-142Q469 -120 453 -105Q437 -90 416 -90Q395 -90 380 -105Q365 -120 365 -142V-247H260Q239 -247 224 -262Q209 -277 209 -298Q209 -319 224 -335Q239 -351 260 -350H365V-454Q365 -475 380 -491Q395 -507 416 -507Q437 -507 453 -491Q469 -475 469 -454V-350ZM818 -595Q834 -579 834 -559V-38Q834 27 788 73Q742 119 678 119H156Q91 119 46 73Q1 27 0 -38V-663Q0 -728 46 -773Q92 -818 156 -819H573Q595 -819 610 -804ZM708 -559L573 -693V-637Q573 -605 596 -582Q619 -559 651 -559ZM678 15Q699 15 714 -1Q729 -17 729 -38V-507H651Q598 -507 559 -545Q520 -583 521 -637V-715H156Q135 -715 119 -700Q103 -685 104 -663V-38Q104 -17 119 -1Q134 15 156 15Z"/>
</svg>