<?xml version="1.0" encoding="UTF-8" standalone="no"?>
<svg
   xmlns:dc="http://purl.org/dc/elements/1.1/"
   xmlns:cc="http://creativecommons.org/ns#"
   xmlns:rdf="http://www.w3.org/1999/02/22-rdf-syntax-ns#"
   xmlns:svg="http://www.w3.org/2000/svg"
   xmlns="http://www.w3.org/2000/svg"
   xmlns:sodipodi="http://sodipodi.sourceforge.net/DTD/sodipodi-0.dtd"
   xmlns:inkscape="http://www.inkscape.org/namespaces/inkscape"
   viewBox="0 -1000 1000 1000"
   version="1.1"
   id="svg6121"
   sodipodi:docname="doc-add.svg"
   inkscape:version="0.92.5 (2060ec1f9f, 2020-04-08)">
  <metadata
     id="metadata6127">
    <rdf:RDF>
      <cc:Work
         rdf:about="">
        <dc:format>image/svg+xml</dc:format>
        <dc:type
           rdf:resource="http://purl.org/dc/dcmitype/StillImage" />
        <dc:title></dc:title>
      </cc:Work>
    </rdf:RDF>
  </metadata>
  <defs
     id="defs6125" />
  <sodipodi:namedview
     pagecolor="#ffffff"
     bordercolor="#666666"
     borderopacity="1"
     objecttolerance="10"
     gridtolerance="10"
     guidetolerance="10"
     inkscape:pageopacity="0"
     inkscape:pageshadow="2"
     inkscape:window-width="1347"
     inkscape:window-height="672"
     id="namedview6123"
     showgrid="false"
     inkscape:zoom="0.30582368"
     inkscape:cx="460.32522"
     inkscape:cy="422.01645"
     inkscape:window-x="2493"
     inkscape:window-y="371"
     inkscape:window-maximized="0"
     inkscape:current-layer="svg6121" />
  <path
     d="m 665.24484,-499.99999 q 22.2445,0 38.13343,15.88892 15.88892,15.88893 16.94819,39.19269 1.05926,23.30376 -16.94819,38.13343 -18.00745,14.82966 -38.13343,15.88892 H 555.08161 v 111.2225 q 0,23.30376 -16.94819,39.19268 -16.94819,15.88893 -39.19268,15.88893 -22.2445,0 -38.13343,-15.88893 -15.88893,-15.88892 -15.88893,-39.19268 v -111.2225 H 333.69589 q -22.2445,0 -38.13342,-15.88892 -15.88893,-15.88893 -15.88893,-38.13343 0,-22.2445 15.88893,-39.19269 15.88892,-16.94818 38.13342,-15.88892 h 111.22249 v -110.16323 q 0,-22.2445 15.88893,-39.19269 15.88893,-16.94819 38.13343,-16.94819 22.24449,0 39.19268,16.94819 16.94819,16.94819 16.94819,39.19269 v 110.16323 z m 259.51915,-259.51915 q 16.94819,16.94819 16.94819,38.13343 v 551.8754 q 0,68.85202 -48.72605,117.578066 Q 844.26009,-3.2062 776.46733,-3.2062 H 223.53266 q -68.85201,0 -116.5188,-48.726044 Q 59.347082,-100.65829 58.28782,-169.51031 v -662.03863 q 0,-68.85202 48.72604,-116.5188 48.72605,-47.66676 116.5188,-48.72606 h 441.71218 q 23.30376,0 39.19269,15.8889 z m -116.5188,38.13343 -143.00035,-141.94109 v 59.31867 q 0,33.89637 24.36302,58.2594 24.36303,24.36302 58.2594,24.36302 z m -31.77786,608.01628 q 22.2445,0 38.13343,-16.94819 15.88893,-16.94819 15.88893,-39.19269 V -666.3041 h -82.62243 q -56.14087,0 -97.45208,-40.25195 -41.31121,-40.25195 -40.25195,-97.45208 v -82.62243 H 223.53266 q -22.24449,0 -39.19268,15.88893 -16.94819,15.88893 -15.88893,39.19269 v 662.03863 q 0,22.2445 15.88893,39.19269 15.88892,16.94819 39.19268,16.94819 z"
     id="path6119"
     inkscape:connector-curvature="0"
     style="fill:#000000;stroke-width:1.0592618" />
</svg>
