<svg xmlns="http://www.w3.org/2000/svg" viewBox="0 -1000 1000 1000">
	<path fill="#000000" d="M714 -100Q714 -115 704 -125Q694 -135 679 -136Q664 -137 654 -125Q644 -113 643 -100Q642 -87 654 -75Q666 -63 679 -64Q692 -65 704 -75Q716 -85 714 -100ZM857 -100Q857 -115 847 -125Q837 -135 821 -136Q805 -137 796 -125Q787 -113 786 -100Q785 -87 796 -75Q807 -63 821 -64Q835 -65 847 -75Q859 -85 857 -100ZM929 -225V-46Q929 -24 913 -9Q897 6 875 7H54Q31 7 16 -9Q1 -25 0 -46V-225Q0 -247 16 -263Q32 -279 54 -279H313L388 -203Q421 -171 464 -171Q507 -171 540 -203L616 -279H875Q897 -279 913 -263Q929 -247 929 -225ZM747 -543Q757 -520 739 -504L489 -254Q479 -243 464 -243Q449 -243 439 -254L189 -504Q172 -520 181 -543Q191 -564 214 -564H357V-814Q357 -829 368 -839Q379 -849 393 -850H536Q550 -850 561 -839Q572 -828 571 -814V-564H714Q738 -564 747 -543Z"/>
</svg>