<?xml version="1.0" encoding="UTF-8" standalone="no"?>
<svg
   xmlns:dc="http://purl.org/dc/elements/1.1/"
   xmlns:cc="http://creativecommons.org/ns#"
   xmlns:rdf="http://www.w3.org/1999/02/22-rdf-syntax-ns#"
   xmlns:svg="http://www.w3.org/2000/svg"
   xmlns="http://www.w3.org/2000/svg"
   xmlns:sodipodi="http://sodipodi.sourceforge.net/DTD/sodipodi-0.dtd"
   xmlns:inkscape="http://www.inkscape.org/namespaces/inkscape"
   viewBox="0 -1000 1000 1000"
   version="1.1"
   id="svg6283"
   sodipodi:docname="download.svg"
   inkscape:version="0.92.5 (2060ec1f9f, 2020-04-08)">
  <metadata
     id="metadata6289">
    <rdf:RDF>
      <cc:Work
         rdf:about="">
        <dc:format>image/svg+xml</dc:format>
        <dc:type
           rdf:resource="http://purl.org/dc/dcmitype/StillImage" />
        <dc:title></dc:title>
      </cc:Work>
    </rdf:RDF>
  </metadata>
  <defs
     id="defs6287" />
  <sodipodi:namedview
     pagecolor="#ffffff"
     bordercolor="#666666"
     borderopacity="1"
     objecttolerance="10"
     gridtolerance="10"
     guidetolerance="10"
     inkscape:pageopacity="0"
     inkscape:pageshadow="2"
     inkscape:window-width="1347"
     inkscape:window-height="672"
     id="namedview6285"
     showgrid="false"
     inkscape:zoom="0.30582368"
     inkscape:cx="430.63592"
     inkscape:cy="331.03313"
     inkscape:window-x="2530"
     inkscape:window-y="410"
     inkscape:window-maximized="0"
     inkscape:current-layer="svg6283" />
  <path
     d="m 762.82744,-161.32657 q 0,-15.80124 -10.53417,-26.33542 -10.53417,-10.53415 -26.33542,-11.58758 -15.80124,-1.05341 -26.33542,11.58758 -10.53416,12.64101 -11.58758,26.33542 -1.05341,13.69442 11.58758,26.33541 12.641,12.641 26.33542,11.58759 13.69443,-1.05342 26.33542,-11.58759 12.64099,-10.53416 10.53417,-26.33541 z m 150.63856,0 q 0,-15.80124 -10.53416,-26.33542 -10.53417,-10.53415 -27.38884,-11.58758 -16.85465,-1.05341 -26.33541,11.58758 -9.48075,12.64101 -10.53417,26.33542 -1.05341,13.69442 10.53417,26.33541 11.58758,12.641 26.33541,11.58759 14.74784,-1.05342 27.38884,-11.58759 12.64099,-10.53416 10.53416,-26.33541 z m 75.846,-131.67707 v 188.56157 q 0,23.175161 -16.85466,38.97641 -16.85468,15.801248 -40.02984,16.854665 H 67.57249 q -24.228581,0 -40.02983,-16.854665 -15.801248,-16.854666 -16.854665,-38.97641 v -188.56157 q 0,-23.17516 16.854665,-40.02983 16.854666,-16.85467 40.02983,-16.85467 h 272.83489 l 79.00624,80.05966 q 34.76275,33.70933 80.05966,33.70933 45.29693,0 80.05966,-33.70933 l 80.05966,-80.05966 h 272.8349 q 23.17516,0 40.02983,16.85467 16.85467,16.85467 16.85467,40.02983 z M 797.59019,-627.99011 q 10.53416,24.22858 -8.42734,41.08325 l -263.35414,263.35414 q -10.53417,11.58758 -26.33542,11.58758 -15.80124,0 -26.33541,-11.58758 L 209.78372,-586.90687 q -17.90808,-16.85467 -8.42733,-41.08325 10.53417,-22.12175 34.76275,-22.12175 H 386.75771 V -913.466 q 0,-15.80125 11.58758,-26.33542 11.58758,-10.53417 26.33542,-11.58758 h 150.63857 q 14.74783,0 26.33541,11.58758 11.58759,11.58758 10.53417,26.33542 v 263.35413 h 150.63857 q 25.282,0 34.76276,22.12176 z"
     id="path6281"
     inkscape:connector-curvature="0"
     style="fill:#000000;stroke-width:1.05341661" />
</svg>
