<svg xmlns="http://www.w3.org/2000/svg" viewBox="0 -1000 1000 1000">
	<path fill="#000000" d="M946 -636Q969 -636 984 -620Q999 -604 1000 -582V96Q1000 119 984 134Q968 149 946 150H411Q388 150 373 134Q358 118 357 96V-64H54Q31 -64 16 -80Q1 -96 0 -118V-493Q0 -515 11 -542Q22 -569 38 -584L266 -812Q281 -828 308 -839Q335 -850 357 -850H589Q612 -850 627 -834Q642 -818 643 -796V-613Q681 -636 714 -636ZM643 -517L476 -350H643ZM286 -731L119 -564H286ZM395 -370L571 -546V-779H357V-546Q357 -524 342 -509Q327 -494 304 -493H71V-136H357V-279Q357 -301 368 -328Q379 -355 395 -370ZM929 79V-564H714V-332Q714 -310 699 -294Q684 -278 661 -279H429V79Z"/>
</svg>