<?xml version="1.0" encoding="UTF-8" standalone="no"?>
<svg
   xmlns:dc="http://purl.org/dc/elements/1.1/"
   xmlns:cc="http://creativecommons.org/ns#"
   xmlns:rdf="http://www.w3.org/1999/02/22-rdf-syntax-ns#"
   xmlns:svg="http://www.w3.org/2000/svg"
   xmlns="http://www.w3.org/2000/svg"
   xmlns:sodipodi="http://sodipodi.sourceforge.net/DTD/sodipodi-0.dtd"
   xmlns:inkscape="http://www.inkscape.org/namespaces/inkscape"
   viewBox="0 -1000 1000 1000"
   version="1.1"
   id="svg6440"
   sodipodi:docname="duplicate.svg"
   inkscape:version="0.92.5 (2060ec1f9f, 2020-04-08)">
  <metadata
     id="metadata6446">
    <rdf:RDF>
      <cc:Work
         rdf:about="">
        <dc:format>image/svg+xml</dc:format>
        <dc:type
           rdf:resource="http://purl.org/dc/dcmitype/StillImage" />
        <dc:title></dc:title>
      </cc:Work>
    </rdf:RDF>
  </metadata>
  <defs
     id="defs6444" />
  <sodipodi:namedview
     pagecolor="#ffffff"
     bordercolor="#666666"
     borderopacity="1"
     objecttolerance="10"
     gridtolerance="10"
     guidetolerance="10"
     inkscape:pageopacity="0"
     inkscape:pageshadow="2"
     inkscape:window-width="1347"
     inkscape:window-height="672"
     id="namedview6442"
     showgrid="false"
     inkscape:zoom="0.30582368"
     inkscape:cx="97.349637"
     inkscape:cy="316.66734"
     inkscape:window-x="2493"
     inkscape:window-y="371"
     inkscape:window-maximized="0"
     inkscape:current-layer="svg6440" />
  <path
     d="m 946,-786 q 23,0 38,16 15,16 16,38 v 678 q 0,23 -16,38 -16,15 -38,16 H 411 Q 388,0 373,-16 358,-32 357,-54 V -214 H 54 q -23,0 -38,-16 -15,-16 -16,-38 v -375 q 0,-22 11,-49 11,-27 27,-42 l 228,-228 q 15,-16 42,-27 27,-11 49,-11 h 232 q 23,0 38,16 15,16 16,38 v 183 q 38,-23 71,-23 z M 643,-667 476,-500 H 643 Z M 286,-881 119,-714 h 167 z m 109,361 176,-176 V -929 H 357 v 233 q 0,22 -15,37 -15,15 -38,16 H 71 v 357 h 286 v -143 q 0,-22 11,-49 11,-27 27,-42 z M 929,-71 V -714 H 714 v 232 q 0,22 -15,38 -15,16 -38,15 H 429 v 358 z"
     id="path6438"
     inkscape:connector-curvature="0"
     style="fill:#000000" />
</svg>
