<?xml version="1.0" encoding="UTF-8" standalone="no"?>
<svg
   xmlns:dc="http://purl.org/dc/elements/1.1/"
   xmlns:cc="http://creativecommons.org/ns#"
   xmlns:rdf="http://www.w3.org/1999/02/22-rdf-syntax-ns#"
   xmlns:svg="http://www.w3.org/2000/svg"
   xmlns="http://www.w3.org/2000/svg"
   xmlns:sodipodi="http://sodipodi.sourceforge.net/DTD/sodipodi-0.dtd"
   xmlns:inkscape="http://www.inkscape.org/namespaces/inkscape"
   viewBox="0 -1000 1000 1000"
   version="1.1"
   id="svg6492"
   sodipodi:docname="edit.svg"
   inkscape:version="0.92.5 (2060ec1f9f, 2020-04-08)">
  <metadata
     id="metadata6498">
    <rdf:RDF>
      <cc:Work
         rdf:about="">
        <dc:format>image/svg+xml</dc:format>
        <dc:type
           rdf:resource="http://purl.org/dc/dcmitype/StillImage" />
        <dc:title></dc:title>
      </cc:Work>
    </rdf:RDF>
  </metadata>
  <defs
     id="defs6496" />
  <sodipodi:namedview
     pagecolor="#ffffff"
     bordercolor="#666666"
     borderopacity="1"
     objecttolerance="10"
     gridtolerance="10"
     guidetolerance="10"
     inkscape:pageopacity="0"
     inkscape:pageshadow="2"
     inkscape:window-width="1611"
     inkscape:window-height="863"
     id="namedview6494"
     showgrid="false"
     inkscape:zoom="0.4325"
     inkscape:cx="519.85828"
     inkscape:cy="426.40334"
     inkscape:window-x="2229"
     inkscape:window-y="180"
     inkscape:window-maximized="0"
     inkscape:current-layer="svg6492" />
  <path
     d="m 551.8771,-294.3109 66.82286,-67.86696 -88.7491,-88.7491 -66.82286,67.86694 v 32.36732 h 55.33768 v 56.3818 z m 255.80623,-419.73104 q -9.39696,-9.39697 -18.79392,0 l -204.64499,204.64498 q -9.39696,9.39696 0,18.79393 9.39697,9.39696 18.79393,0 l 204.64498,-204.64499 q 9.39697,-9.39697 0,-18.79392 z m 46.98482,345.59943 v 110.67535 q 0,69.95518 -49.07303,119.02821 -49.07303,49.073025 -119.0282,49.073025 H 202.10124 q -69.95518,0 -119.02821,-49.073025 Q 34,-187.81199 34,-257.76717 v -484.46567 q 0,-68.91107 49.07303,-117.9841 49.07303,-49.07304 119.02821,-50.11713 h 484.46568 q 36.54374,0 67.86695,14.61749 9.39697,4.17642 10.96313,14.09545 1.56616,9.91902 -5.74259,16.18366 l -28.19089,29.235 q -8.35286,8.35286 -18.79393,4.17643 -13.57339,-3.13232 -26.10267,-3.13232 H 202.10124 q -38.63196,0 -65.77875,27.14678 -27.14678,27.14678 -28.19089,65.77874 v 484.46568 q 0,38.63196 28.19089,65.77875 28.19089,27.14678 65.77875,28.19089 h 484.46568 q 38.63196,0 65.77874,-28.19089 27.14678,-28.19089 27.14678,-65.77875 v -73.08749 q 0,-7.30875 5.22054,-12.52929 l 37.58785,-37.58785 q 8.35286,-8.35286 20.88214,-4.17643 12.52929,4.17643 11.48518,16.70571 z m -56.38178,-429.128 168.10124,167.05713 -391.54015,391.54015 H 406.74622 v -167.05713 z m 258.93853,76.21982 -53.2494,54.29356 -168.10127,-168.10123 53.24946,-54.29357 q 16.70571,-15.66161 39.67606,-15.66161 22.97036,0 39.67607,15.66161 l 88.74908,88.7491 q 16.7057,16.70571 16.7057,39.67607 0,22.97035 -16.7057,39.67607 z"
     id="path6490"
     inkscape:connector-curvature="0"
     style="fill:#000000;stroke-width:1.04410708" />
</svg>
