<svg xmlns="http://www.w3.org/2000/svg" viewBox="0 -1000 1000 1000">
	<path fill="#000000" d="M496 -189L560 -254L475 -339L411 -274V-243H464V-189ZM741 -591Q732 -600 723 -591L527 -395Q518 -386 527 -377Q536 -368 545 -377L741 -573Q750 -582 741 -591ZM786 -260V-154Q786 -87 739 -40Q692 7 625 7H161Q94 7 47 -40Q0 -87 0 -154V-618Q0 -684 47 -731Q94 -778 161 -779H625Q660 -779 690 -765Q699 -761 700.5 -751.5Q702 -742 695 -736L668 -708Q660 -700 650 -704Q637 -707 625 -707H161Q124 -707 98 -681Q72 -655 71 -618V-154Q71 -117 98 -91Q125 -65 161 -64H625Q662 -64 688 -91Q714 -118 714 -154V-224Q714 -231 719 -236L755 -272Q763 -280 775 -276Q787 -272 786 -260ZM732 -671L893 -511L518 -136H357V-296ZM980 -598L929 -546L768 -707L819 -759Q835 -774 857 -774Q879 -774 895 -759L980 -674Q996 -658 996 -636Q996 -614 980 -598Z"/>
</svg>