<svg xmlns="http://www.w3.org/2000/svg" viewBox="0 -1000 1000 1000">
	<path fill="#000000" d="M786 -298V-154Q786 -87 739 -40Q692 7 625 7H161Q94 7 47 -40Q0 -87 0 -154V-618Q0 -684 47 -731Q94 -778 161 -779H303Q310 -779 316 -773Q322 -767 321 -761Q321 -746 306 -743Q263 -728 232 -709Q227 -707 223 -707H161Q124 -707 98 -681Q72 -655 71 -618V-154Q71 -117 98 -91Q125 -65 161 -64H625Q662 -64 688 -91Q714 -118 714 -154V-273Q714 -284 724 -289Q740 -296 755 -310Q763 -319 774.5 -314Q786 -309 786 -298ZM918 -575L704 -361Q694 -350 679 -350Q672 -350 665 -353Q643 -362 643 -386V-493H554Q373 -493 309 -420Q243 -343 268 -156Q270 -143 257 -137L250 -136Q241 -136 236 -143L224 -160Q218 -169 202 -199Q186 -229 174 -254Q162 -279 153 -318Q144 -357 143 -386Q143 -413 145 -437Q147 -461 153 -487Q159 -513 168 -536Q177 -559 195 -581Q213 -603 233 -623Q253 -643 285 -657Q317 -671 355 -684Q393 -697 444 -701Q495 -705 554 -707H643V-814Q643 -838 665 -847Q672 -850 679 -850Q693 -850 704 -839L918 -625Q929 -615 929 -600Q929 -585 918 -575Z"/>
</svg>