<?xml version="1.0" encoding="UTF-8" standalone="no"?>
<svg
   xmlns:dc="http://purl.org/dc/elements/1.1/"
   xmlns:cc="http://creativecommons.org/ns#"
   xmlns:rdf="http://www.w3.org/1999/02/22-rdf-syntax-ns#"
   xmlns:svg="http://www.w3.org/2000/svg"
   xmlns="http://www.w3.org/2000/svg"
   xmlns:sodipodi="http://sodipodi.sourceforge.net/DTD/sodipodi-0.dtd"
   xmlns:inkscape="http://www.inkscape.org/namespaces/inkscape"
   viewBox="0 -1000 1000 1000"
   version="1.1"
   id="svg6564"
   sodipodi:docname="export.svg"
   inkscape:version="0.92.5 (2060ec1f9f, 2020-04-08)">
  <metadata
     id="metadata6570">
    <rdf:RDF>
      <cc:Work
         rdf:about="">
        <dc:format>image/svg+xml</dc:format>
        <dc:type
           rdf:resource="http://purl.org/dc/dcmitype/StillImage" />
        <dc:title></dc:title>
      </cc:Work>
    </rdf:RDF>
  </metadata>
  <defs
     id="defs6568" />
  <sodipodi:namedview
     pagecolor="#ffffff"
     bordercolor="#666666"
     borderopacity="1"
     objecttolerance="10"
     gridtolerance="10"
     guidetolerance="10"
     inkscape:pageopacity="0"
     inkscape:pageshadow="2"
     inkscape:window-width="1920"
     inkscape:window-height="1043"
     id="namedview6566"
     showgrid="false"
     inkscape:zoom="0.4325"
     inkscape:cx="603.15508"
     inkscape:cy="459.58662"
     inkscape:window-x="1920"
     inkscape:window-y="0"
     inkscape:window-maximized="1"
     inkscape:current-layer="svg6564" />
  <path
     d="m 871.32491,-391.6528 v 151.98377 q 0,70.71468 -49.60581,120.3205 -49.60582,49.60581 -120.32049,49.60581 H 211.6731 q -70.71468,0 -120.32049,-49.60581 -49.605821,-49.60582 -49.605821,-120.3205 v -489.72551 q 0,-69.65923 49.605811,-119.26505 49.60582,-49.60581 120.3205,-50.66125 h 149.87288 q 7.3881,0 13.72076,6.33266 6.33266,6.33265 5.27722,12.66531 0,15.83164 -15.83165,18.99797 -45.38404,15.83164 -78.10278,35.88506 -5.2772,2.11089 -9.49897,2.11089 H 211.6731 q -39.0514,0 -66.49291,27.44151 -27.44152,27.44152 -28.49696,66.4929 v 489.72551 q 0,39.05139 28.49696,66.4929 28.49696,27.44152 66.49291,28.49697 h 489.72551 q 39.05138,0 66.4929,-28.49697 27.44151,-28.49695 27.44151,-66.4929 v -125.5977 q 0,-11.60988 10.55443,-16.88709 16.88709,-7.38809 32.71874,-22.1643 8.44353,-9.49898 20.58113,-4.22177 12.13759,5.27722 12.13759,16.88709 z M 1010.6433,-684.01049 784.77859,-458.1457 q -10.55442,11.60986 -26.38607,11.60986 -7.3881,0 -14.7762,-3.16633 -23.21975,-9.49898 -23.21975,-34.82961 v -112.93239 h -93.93441 q -191.03517,0 -258.58352,77.04733 -69.65923,81.2691 -43.27316,278.63693 2.11089,13.72075 -11.60987,20.05341 l -7.3881,1.05545 q -9.49899,0 -14.7762,-7.38811 L 278.166,-246.00168 q -6.33266,-9.49899 -23.21975,-41.16228 -16.88709,-31.66328 -29.5524,-58.04936 -12.66531,-26.38607 -22.1643,-67.54834 -9.49898,-41.16227 -10.55443,-71.77012 0,-28.49696 2.11089,-53.82759 2.11088,-25.33063 8.44354,-52.77215 6.33266,-27.44151 15.83164,-51.7167 9.49899,-24.27518 28.49696,-47.49493 18.99798,-23.21974 40.10683,-44.32859 21.10886,-21.10887 54.88304,-35.88507 33.77416,-14.7762 73.881,-28.49696 40.10683,-13.72075 93.93441,-17.94252 53.8276,-4.22178 116.09873,-6.33266 h 93.93441 v -112.9324 q 0,-25.33065 23.21975,-34.82966 7.3881,-3.16627 14.7762,-3.16627 14.77621,0 26.38607,11.60985 l 225.86471,225.8648 q 11.6099,10.55442 11.6099,26.38607 0,15.83164 -11.6099,26.38607 z"
     id="path6562"
     inkscape:connector-curvature="0"
     style="fill:#000000;stroke-width:1.05544293" />
</svg>
