<svg xmlns="http://www.w3.org/2000/svg" viewBox="0 -1000 1000 1000">
	<path fill="#000000" d="M498 -809Q468 -809 441.5 -789.5Q415 -770 399.5 -736.5Q384 -703 384 -662Q384 -621 399.5 -588Q415 -555 441.5 -535.5Q468 -516 498 -516Q528 -516 554.5 -535.5Q581 -555 596.5 -588Q612 -621 612 -662Q612 -703 596.5 -736.5Q581 -770 554.5 -789.5Q528 -809 498 -809ZM435 -707H471V-618H435ZM520 -707H557V-618H520ZM606 -535Q585 -509 557 -494Q529 -479 498 -479Q467 -479 440 -492.5Q413 -506 393 -531Q362 -520 338 -488Q311 -448 296 -385Q283 -335 278 -260Q299 -250 316 -228Q335 -202 344 -166Q355 -200 372 -226Q389 -248 410 -259Q396 -289 396 -322.5Q396 -356 409.5 -385Q423 -414 447 -431Q471 -448 500 -448Q529 -448 553 -431Q577 -414 591 -385Q605 -356 605 -322.5Q605 -289 592 -263Q616 -252 635 -227Q654 -202 664 -164Q675 -202 693 -226Q707 -245 725 -256Q722 -336 710 -387Q696 -452 668 -490Q644 -523 606 -535ZM176 -412Q152 -412 132.5 -390.5Q113 -369 109 -337H156V-301H110Q115 -271 134 -252Q153 -233 176 -233Q199 -233 217.5 -252Q236 -271 242 -301H192V-337H243Q239 -370 219.5 -391Q200 -412 176 -412ZM500 -412Q476 -412 456.5 -391Q437 -370 433 -337H480V-301H434Q439 -278 451 -261.5Q463 -245 479 -238Q464 -237 445 -233Q421 -229 402.5 -204.5Q384 -180 375 -139Q361 -80 361 16H407V-84H443V117H564V-84H601V16H644V2Q643 -47 641 -72Q639 -113 632 -141Q624 -182 606.5 -205.5Q589 -229 560 -235H559Q548 -237 524 -239Q540 -247 551.5 -263Q563 -279 567 -301H517V-337H568Q564 -370 544 -391Q524 -412 500 -412ZM825 -412Q801 -412 781 -391Q761 -370 757 -337H805V-301H758Q764 -271 783 -252Q802 -233 825 -233Q848 -233 866.5 -252Q885 -271 891 -301H841V-337H892Q888 -369 868.5 -390.5Q849 -412 825 -412ZM249 -233Q235 -215 216 -205.5Q197 -196 176 -196Q136 -196 107 -227Q92 -219 82 -204Q64 -180 55 -139Q47 -108 43 -63Q41 -33 40 16H86V-84H122V117H243V-84H280V16H324Q324 -33 322 -64Q320 -109 313 -141Q304 -182 287 -206Q272 -226 249 -233ZM896 -231Q882 -215 863.5 -205.5Q845 -196 825 -196Q784 -196 753 -230Q734 -222 723 -204Q705 -180 696 -139Q688 -108 684 -63Q682 -33 681 16H726V-84H763V117H884V-84H920V16H964Q964 -33 962 -64Q960 -109 953 -141Q945 -182 927 -206Q915 -224 896 -231Z"/>
</svg>