<?xml version="1.0" encoding="UTF-8" standalone="no"?>
<svg
   xmlns:dc="http://purl.org/dc/elements/1.1/"
   xmlns:cc="http://creativecommons.org/ns#"
   xmlns:rdf="http://www.w3.org/1999/02/22-rdf-syntax-ns#"
   xmlns:svg="http://www.w3.org/2000/svg"
   xmlns="http://www.w3.org/2000/svg"
   xmlns:sodipodi="http://sodipodi.sourceforge.net/DTD/sodipodi-0.dtd"
   xmlns:inkscape="http://www.inkscape.org/namespaces/inkscape"
   viewBox="0 -1000 1000 1000"
   version="1.1"
   id="svg7147"
   sodipodi:docname="extra.svg"
   inkscape:version="0.92.5 (2060ec1f9f, 2020-04-08)">
  <metadata
     id="metadata7153">
    <rdf:RDF>
      <cc:Work
         rdf:about="">
        <dc:format>image/svg+xml</dc:format>
        <dc:type
           rdf:resource="http://purl.org/dc/dcmitype/StillImage" />
        <dc:title></dc:title>
      </cc:Work>
    </rdf:RDF>
  </metadata>
  <defs
     id="defs7151" />
  <sodipodi:namedview
     pagecolor="#ffffff"
     bordercolor="#666666"
     borderopacity="1"
     objecttolerance="10"
     gridtolerance="10"
     guidetolerance="10"
     inkscape:pageopacity="0"
     inkscape:pageshadow="2"
     inkscape:window-width="1542"
     inkscape:window-height="754"
     id="namedview7149"
     showgrid="false"
     inkscape:zoom="0.4325"
     inkscape:cx="473.80802"
     inkscape:cy="422.34008"
     inkscape:window-x="2298"
     inkscape:window-y="289"
     inkscape:window-maximized="0"
     inkscape:current-layer="svg7147" />
  <path
     d="m 496,-963 q -30,0 -56.5,19.5 -26.5,19.5 -42,53 -15.5,33.5 -15.5,74.5 0,41 15.5,74 15.5,33 42,52.5 26.5,19.5 56.5,19.5 30,0 56.5,-19.5 26.5,-19.5 42,-52.5 15.5,-33 15.5,-74 0,-41 -15.5,-74.5 -15.5,-33.5 -42,-53 Q 526,-963 496,-963 Z m -63,102 h 36 v 89 h -36 z m 85,0 h 37 v 89 h -37 z m 86,172 q -21,26 -49,41 -28,15 -59,15 -31,0 -58,-13.5 -27,-13.5 -47,-38.5 -31,11 -55,43 -27,40 -42,103 -13,50 -18,125 21,10 38,32 19,26 28,62 11,-34 28,-60 17,-22 38,-33 -14,-30 -14,-63.5 0,-33.5 13.5,-62.5 13.5,-29 37.5,-46 24,-17 53,-17 29,0 53,17 24,17 38,46 14,29 14,62.5 0,33.5 -13,59.5 24,11 43,36 19,25 29,63 11,-38 29,-62 14,-19 32,-30 -3,-80 -15,-131 -14,-65 -42,-103 -24,-33 -62,-45 z m -430,123 q -24,0 -43.5,21.5 Q 111,-523 107,-491 h 47 v 36 h -46 q 5,30 24,49 19,19 42,19 23,0 41.5,-19 18.5,-19 24.5,-49 h -50 v -36 h 51 q -4,-33 -23.5,-54 -19.5,-21 -43.5,-21 z m 324,0 q -24,0 -43.5,21 -19.5,21 -23.5,54 h 47 v 36 h -46 q 5,23 17,39.5 12,16.5 28,23.5 -15,1 -34,5 -24,4 -42.5,28.5 -18.5,24.5 -27.5,65.5 -14,59 -14,155 h 46 v -100 h 36 v 201 h 121 v -201 h 37 v 100 h 43 v -14 q -1,-49 -3,-74 -2,-41 -9,-69 -8,-41 -25.5,-64.5 Q 587,-383 558,-389 h -1 q -11,-2 -35,-4 16,-8 27.5,-24 11.5,-16 15.5,-38 h -50 v -36 h 51 q -4,-33 -24,-54 -20,-21 -44,-21 z m 325,0 q -24,0 -44,21 -20,21 -24,54 h 48 v 36 h -47 q 6,30 25,49 19,19 42,19 23,0 41.5,-19 18.5,-19 24.5,-49 h -50 v -36 h 51 q -4,-32 -23.5,-53.5 Q 847,-566 823,-566 Z m -576,179 q -14,18 -33,27.5 -19,9.5 -40,9.5 -40,0 -69,-31 -15,8 -25,23 -18,24 -27,65 -8,31 -12,76 -2,30 -3,79 h 46 v -100 h 36 v 201 h 121 v -201 h 37 v 100 h 44 q 0,-49 -2,-80 -2,-45 -9,-77 -9,-41 -26,-65 -15,-20 -38,-27 z m 647,2 q -14,16 -32.5,25.5 -18.5,9.5 -38.5,9.5 -41,0 -72,-34 -19,8 -30,26 -18,24 -27,65 -8,31 -12,76 -2,30 -3,79 h 45 v -100 h 37 v 201 h 121 v -201 h 36 v 100 h 44 q 0,-49 -2,-80 -2,-45 -9,-77 -8,-41 -26,-65 -12,-18 -31,-25 z"
     id="path7145"
     inkscape:connector-curvature="0"
     style="fill:#000000" />
</svg>
