<svg xmlns="http://www.w3.org/2000/svg" viewBox="0 -1000 1000 1000">
	<path fill="#000000" d="M929 -314Q844 -446 716 -511Q750 -453 750 -386Q750 -283 677 -209Q604 -135 500 -136Q396 -137 323 -209Q250 -281 250 -386Q250 -453 284 -511Q156 -446 71 -314Q146 -200 258 -132Q370 -64 500 -64Q630 -64 743 -132Q856 -200 929 -314ZM527 -529Q527 -540 519 -548Q511 -556 500 -555Q430 -555 380 -505Q330 -455 330 -386Q330 -375 338 -367Q346 -359 357 -359Q368 -359 376 -367Q384 -375 384 -386Q384 -434 418 -468Q452 -502 500 -502Q511 -502 519 -510Q527 -518 527 -529ZM1000 -314Q1000 -295 989 -276Q911 -147 779 -70Q647 7 500 7Q353 7 221 -70Q89 -147 11 -276Q0 -295 0 -314Q0 -333 11 -353Q89 -481 221 -558Q353 -635 500 -636Q647 -637 779 -558Q911 -479 989 -353Q1000 -333 1000 -314Z"/>
</svg>