<svg xmlns="http://www.w3.org/2000/svg" viewBox="0 -1000 1000 1000">
	<path fill="#000000" d="M819 -638Q835 -622 846 -596Q857 -570 857 -546V96Q857 119 842 134Q827 149 804 150H54Q31 150 16 134Q1 118 0 96V-796Q0 -819 16 -834Q32 -849 54 -850H554Q576 -850 603 -839Q630 -828 645 -812ZM571 -774V-564H781Q776 -581 769 -587L594 -762Q588 -769 571 -774ZM786 79V-493H554Q531 -493 516 -509Q501 -525 500 -546V-779H71V79ZM499 -252Q517 -238 546 -221Q579 -225 611 -225Q693 -225 710 -198Q719 -185 711 -169Q711 -168 710 -168L709 -166Q706 -145 670 -145Q643 -145 606 -156Q569 -167 533 -185Q410 -172 314 -139Q229 7 179 7Q171 7 164 3L150 -4L147 -6Q141 -12 143 -26Q148 -49 175 -77Q202 -105 248 -131Q256 -136 261 -128Q262 -127 262 -126Q291 -173 322 -236Q360 -312 380 -382Q367 -428 363 -471Q359 -514 367 -542Q373 -564 390 -564H402Q415 -564 422 -556Q432 -544 427 -518Q426 -515 425 -514V-492Q424 -424 417 -385Q448 -294 499 -252ZM178 -23Q207 -36 254 -111Q225 -89 205 -64Q185 -39 178 -23ZM400 -536Q391 -513 398 -463Q399 -467 402 -487Q402 -489 406 -511Q407 -514 409 -516Q408 -516 407.5 -517Q407 -518 407 -519Q407 -531 400 -539ZM330 -168Q406 -198 489 -213Q488 -213 482 -218L473 -226Q430 -263 402 -324Q387 -276 356 -214Q339 -183 330 -168ZM691 -177Q678 -190 613 -190Q655 -174 682 -174Q690 -174 692 -175Z"/>
</svg>