<?xml version="1.0" encoding="UTF-8" standalone="no"?>
<svg
   xmlns:dc="http://purl.org/dc/elements/1.1/"
   xmlns:cc="http://creativecommons.org/ns#"
   xmlns:rdf="http://www.w3.org/1999/02/22-rdf-syntax-ns#"
   xmlns:svg="http://www.w3.org/2000/svg"
   xmlns="http://www.w3.org/2000/svg"
   xmlns:sodipodi="http://sodipodi.sourceforge.net/DTD/sodipodi-0.dtd"
   xmlns:inkscape="http://www.inkscape.org/namespaces/inkscape"
   viewBox="0 -1000 1000 1000"
   version="1.1"
   id="svg7251"
   sodipodi:docname="file-pdf.svg"
   inkscape:version="0.92.5 (2060ec1f9f, 2020-04-08)">
  <metadata
     id="metadata7257">
    <rdf:RDF>
      <cc:Work
         rdf:about="">
        <dc:format>image/svg+xml</dc:format>
        <dc:type
           rdf:resource="http://purl.org/dc/dcmitype/StillImage" />
        <dc:title></dc:title>
      </cc:Work>
    </rdf:RDF>
  </metadata>
  <defs
     id="defs7255" />
  <sodipodi:namedview
     pagecolor="#ffffff"
     bordercolor="#666666"
     borderopacity="1"
     objecttolerance="10"
     gridtolerance="10"
     guidetolerance="10"
     inkscape:pageopacity="0"
     inkscape:pageshadow="2"
     inkscape:window-width="1542"
     inkscape:window-height="754"
     id="namedview7253"
     showgrid="false"
     inkscape:zoom="0.30582368"
     inkscape:cx="312.83646"
     inkscape:cy="357.84926"
     inkscape:window-x="2298"
     inkscape:window-y="286"
     inkscape:window-maximized="0"
     inkscape:current-layer="svg7251" />
  <path
     d="m 882.83873,-782.34969 q 15.68608,15.68609 26.47028,41.176 10.78418,25.4899 10.78418,49.01904 v 629.40451 q 0,22.54876 -14.70571,37.254473 -14.70571,14.705712 -37.25446,15.686093 H 132.84737 q -22.54875,0 -37.254471,-15.686093 Q 80.887186,-41.181761 79.906805,-62.75014 v -874.49972 q 0,-22.54876 15.686094,-37.25448 15.686101,-14.70571 37.254471,-15.68609 h 490.19042 q 21.56839,0 48.03867,10.78419 26.47029,10.78419 41.176,26.47028 z m -243.13445,-133.3318 v 205.87998 h 205.87997 q -4.90191,-16.66647 -11.76457,-22.54876 L 662.25303,-903.91691 q -5.88229,-6.86267 -22.54875,-11.76458 z M 850.48616,-79.416614 V -640.19447 H 623.03779 q -22.54875,0 -37.25446,-15.68609 -14.70571,-15.68609 -15.6861,-36.27409 V -920.58339 H 149.51385 V -79.416614 Z M 569.11685,-403.92268 q 17.64686,13.72533 46.0779,30.39181 32.35257,-3.92153 63.72476,-3.92153 80.39123,0 97.05771,26.47029 8.82342,12.74495 0.98038,28.43104 0,0.98038 -0.98038,0.98038 l -0.9804,1.96076 q -2.94113,20.588 -38.23485,20.588 -26.47028,0 -62.74437,-10.78419 -36.2741,-10.78419 -71.56781,-28.43104 -120.58684,12.74495 -214.7034,45.09752 -83.33237,143.1356 -132.35142,143.1356 -7.84304,0 -14.70571,-3.92152 l -13.72533,-6.86267 -2.94114,-1.96076 q -5.88229,-5.88229 -3.92153,-19.60762 4.90191,-22.54876 31.37219,-49.99942 26.47028,-27.45067 71.5678,-52.94057 7.84305,-4.9019 12.74495,2.94115 0.98038,0.98038 0.98038,1.96076 28.43105,-46.0779 58.82285,-107.8419 37.25448,-74.50894 56.86209,-143.1356 -12.74495,-45.09752 -16.66647,-87.2539 -3.92151,-42.15637 3.92152,-69.60704 5.88229,-21.56838 22.54876,-21.56838 h 11.76457 q 12.74495,0 19.60762,7.84305 9.80381,11.76457 4.9019,37.25447 -0.98038,2.94115 -1.96076,3.92153 v 21.56838 q -0.98038,66.66589 -7.84303,104.90075 30.3918,89.21465 80.39122,130.39065 z M 254.4146,-179.41547 q 28.43105,-12.74495 74.50895,-86.27351 -28.43105,21.56838 -48.03867,46.0779 -19.60761,24.50952 -26.47028,40.19561 z m 217.64454,-502.93537 q -8.82342,22.54876 -1.96076,71.5678 0.98039,-3.92152 3.92152,-23.52914 0,-1.96076 3.92154,-23.52914 0.98038,-2.94114 2.94114,-4.90191 -0.98039,0 -1.47057,-0.98038 -0.49019,-0.98038 -0.49019,-1.96076 0,-11.76457 -6.86267,-19.60761 z m -68.62666,360.78015 q 74.50896,-29.41142 155.88057,-44.11714 -0.98038,0 -6.86267,-4.9019 l -8.82344,-7.84305 q -42.15636,-36.27409 -69.60703,-96.07732 -14.70571,47.05828 -45.09752,107.84189 -16.66647,30.39181 -25.48991,45.09752 z m 353.9175,-8.82343 q -12.74495,-12.74495 -76.46972,-12.74495 41.17601,15.6861 67.64629,15.6861 7.84305,0 9.80381,-0.98038 z"
     id="path7249"
     inkscape:connector-curvature="0"
     style="fill:#000000;stroke-width:0.98038083" />
</svg>
