<?xml version="1.0" encoding="iso-8859-1"?>
<!-- Uploaded to: SVG Repo, www.svgrepo.com, Generator: SVG Repo Mixer Tools -->
<svg fill="#000000" version="1.1" id="Layer_1" xmlns="http://www.w3.org/2000/svg" xmlns:xlink="http://www.w3.org/1999/xlink" 
	 viewBox="0 0 472.615 472.615" xml:space="preserve">
<g>
	<g>
		<polygon points="285.279,192.568 271.356,206.492 301.153,236.29 271.356,266.087 285.279,280.011 329,236.29 		"/>
	</g>
</g>
<g>
	<g>
		<polygon points="201.259,206.492 187.337,192.568 143.615,236.29 187.337,280.011 201.259,266.087 171.462,236.29 		"/>
	</g>
</g>
<g>
	<g>
		
			<rect x="173.856" y="232.405" transform="matrix(0.3417 -0.9398 0.9398 0.3417 -72.2692 381.3245)" width="124.435" height="19.692"/>
	</g>
</g>
<g>
	<g>
		<path d="M472.615,274.117V198.4l-55.335-9.255c-4.332-16.64-10.929-32.492-19.692-47.458L430.178,96l-53.563-53.563
			l-45.686,32.591c-14.966-8.763-30.917-15.36-47.557-19.692L274.215,0H198.4l-9.157,55.335
			c-16.64,4.332-32.591,10.929-47.557,19.692L96,42.437L42.437,96l32.591,45.686c-8.763,14.966-15.36,30.818-19.692,47.458L0,198.4
			v75.717l55.335,9.255c4.332,16.64,10.929,32.591,19.692,47.557l-32.591,45.686L96,430.178l45.686-32.689
			c14.966,8.862,30.917,15.458,47.557,19.791l9.157,55.335h75.815l9.157-55.335c16.64-4.332,32.591-10.929,47.557-19.791
			l45.686,32.689l53.563-53.563l-32.591-45.686c8.763-14.966,15.36-30.917,19.692-47.557L472.615,274.117z M236.308,364.29
			c-70.582,0-128-57.424-128-128c0-70.577,57.418-128,128-128c70.582,0,128,57.423,128,128
			C364.308,306.866,306.89,364.29,236.308,364.29z"/>
	</g>
</g>
</svg>