<?xml version="1.0" encoding="UTF-8" standalone="no"?>
<svg
   xmlns:dc="http://purl.org/dc/elements/1.1/"
   xmlns:cc="http://creativecommons.org/ns#"
   xmlns:rdf="http://www.w3.org/1999/02/22-rdf-syntax-ns#"
   xmlns:svg="http://www.w3.org/2000/svg"
   xmlns="http://www.w3.org/2000/svg"
   xmlns:sodipodi="http://sodipodi.sourceforge.net/DTD/sodipodi-0.dtd"
   xmlns:inkscape="http://www.inkscape.org/namespaces/inkscape"
   viewBox="0 -1000 1000 1000"
   version="1.1"
   id="svg7343"
   sodipodi:docname="graph.svg"
   inkscape:version="0.92.5 (2060ec1f9f, 2020-04-08)">
  <metadata
     id="metadata7349">
    <rdf:RDF>
      <cc:Work
         rdf:about="">
        <dc:format>image/svg+xml</dc:format>
        <dc:type
           rdf:resource="http://purl.org/dc/dcmitype/StillImage" />
        <dc:title></dc:title>
      </cc:Work>
    </rdf:RDF>
  </metadata>
  <defs
     id="defs7347" />
  <sodipodi:namedview
     pagecolor="#ffffff"
     bordercolor="#666666"
     borderopacity="1"
     objecttolerance="10"
     gridtolerance="10"
     guidetolerance="10"
     inkscape:pageopacity="0"
     inkscape:pageshadow="2"
     inkscape:window-width="1542"
     inkscape:window-height="754"
     id="namedview7345"
     showgrid="false"
     inkscape:zoom="0.4325"
     inkscape:cx="169.74084"
     inkscape:cy="372.90377"
     inkscape:window-x="2298"
     inkscape:window-y="289"
     inkscape:window-maximized="0"
     inkscape:current-layer="svg7343" />
  <path
     d="m 860,-295 q -36,0 -71,20 h 1 l -89,-80 q 38,-59 38,-129 0,-38 -11.5,-73 -11.5,-35 -32.5,-65 v 1 l 101,-101 q 31,17 64,17 38,0 70.5,-19 32.5,-19 51,-51 18.5,-32 18.5,-70 0,-38 -18.5,-70 -18.5,-32 -51,-50.5 Q 898,-984 860,-984 q -38,0 -70,18.5 -32,18.5 -50.5,50.5 -18.5,32 -18.5,70 0,35 17,66 v -1 l -101,101 q -29,-21 -64,-33 -35,-12 -73,-12 -38,0 -80,15 l 2,-1 -22,-38 q 18,-19 28.5,-44 10.5,-25 10.5,-52 0,-37 -18.5,-69 -18.5,-32 -50.5,-51 -32,-19 -69.5,-19 -37.5,0 -69.5,19 -32,19 -50.5,51 -18.5,32 -18.5,69.5 0,37.5 18.5,69.5 18.5,32 50.5,50.5 32,18.5 69,18.5 15,0 30,-3 h -1 l 21,38 q -43,33 -67,81 -24,48 -24,104 0,25 7,57 v -1 l -22,9 Q 225,-443 197.5,-455.5 170,-468 139,-468 101,-468 69,-449.5 37,-431 18.5,-399 0,-367 0,-329.5 q 0,37.5 18.5,69.5 18.5,32 50.5,50.5 32,18.5 69.5,18.5 37.5,0 69.5,-18.5 32,-18.5 51,-50.5 19,-32 19,-69 l -2,-16 v 1 l 22,-10 q 33,51 86,80.5 53,29.5 114,29.5 41,0 79.5,-13.5 Q 616,-271 646,-295 l 88,81 q -13,28 -13,59 0,38 18.5,70 18.5,32 50.5,50.5 32,18.5 70,18.5 38,0 70,-18.5 32,-18.5 51,-50.5 19,-32 19,-70 0,-38 -19,-70 -19,-32 -51,-51 -32,-19 -70,-19 z M 243,-845 q 0,-23 17,-40 17,-17 40.5,-17 23.5,0 40.5,17 17,17 17,40.5 0,23.5 -17,40.5 -17,17 -41,17 -23,0 -40,-17 -17,-17 -17,-41 z m -105,572 q -24,0 -40.5,-16.5 Q 81,-306 81,-330 q 0,-24 16.5,-41 16.5,-17 40.5,-17 24,0 40.5,17 16.5,17 17.5,41 -1,24 -17.5,40.5 Q 162,-273 138,-273 Z m 722,-629 q 24,0 41,17 17,17 17,40.5 0,23.5 -17,40.5 -17,17 -40.5,17 -23.5,0 -40.5,-17 -17,-17 -17,-41 0,-23 17,-40 17,-17 40,-17 z m -519,418 q 0,0 0,0 0,-43 21.5,-79 21.5,-36 57.5,-57.5 36,-21.5 79,-21.5 32,0 61,12.5 29,12.5 51,34.5 21,21 33.5,50 12.5,29 12.5,61 0,43 -21.5,79.5 -21.5,36.5 -57.5,57.5 -36,21 -79,21 -43,0 -79,-21 -36,-21 -57.5,-57.5 Q 341,-441 341,-484 q 0,0 0,0 z m 519,386 q -23,0 -40,-16.5 -17,-16.5 -17,-40.5 0,-24 17,-41 17,-17 40.5,-17 23.5,0 40.5,17 17,17 17,41 0,24 -17,40.5 -17,16.5 -41,16.5 z"
     id="path7341"
     inkscape:connector-curvature="0"
     style="fill:#000000" />
</svg>
