<svg xmlns="http://www.w3.org/2000/svg" viewBox="0 -1000 1000 1000">
	<path fill="#000000" d="M860 -145Q824 -145 789 -125H790L701 -205Q739 -264 739 -334Q739 -372 727.5 -407Q716 -442 695 -472V-471L796 -572Q827 -555 860 -555Q898 -555 930.5 -574Q963 -593 981.5 -625Q1000 -657 1000 -695Q1000 -733 981.5 -765Q963 -797 930.5 -815.5Q898 -834 860 -834Q822 -834 790 -815.5Q758 -797 739.5 -765Q721 -733 721 -695Q721 -660 738 -629V-630L637 -529Q608 -550 573 -562Q538 -574 500 -574Q462 -574 420 -559L422 -560L400 -598Q418 -617 428.5 -642Q439 -667 439 -694Q439 -731 420.5 -763Q402 -795 370 -814Q338 -833 300.5 -833Q263 -833 231 -814Q199 -795 180.5 -763Q162 -731 162 -693.5Q162 -656 180.5 -624Q199 -592 231 -573.5Q263 -555 300 -555Q315 -555 330 -558H329L350 -520Q307 -487 283 -439Q259 -391 259 -335Q259 -310 266 -278V-279L244 -270Q225 -293 197.5 -305.5Q170 -318 139 -318Q101 -318 69 -299.5Q37 -281 18.5 -249Q0 -217 0 -179.5Q0 -142 18.5 -110Q37 -78 69 -59.5Q101 -41 138.5 -41Q176 -41 208 -59.5Q240 -78 259 -110Q278 -142 278 -179L276 -195V-194L298 -204Q331 -153 384 -123.5Q437 -94 498 -94Q539 -94 577.5 -107.5Q616 -121 646 -145L734 -64Q721 -36 721 -5Q721 33 739.5 65Q758 97 790 115.5Q822 134 860 134Q898 134 930 115.5Q962 97 981 65Q1000 33 1000 -5Q1000 -43 981 -75Q962 -107 930 -126Q898 -145 860 -145ZM243 -695Q243 -718 260 -735Q277 -752 300.5 -752Q324 -752 341 -735Q358 -718 358 -694.5Q358 -671 341 -654Q324 -637 300 -637Q277 -637 260 -654Q243 -671 243 -695ZM138 -123Q114 -123 97.5 -139.5Q81 -156 81 -180Q81 -204 97.5 -221Q114 -238 138 -238Q162 -238 178.5 -221Q195 -204 196 -180Q195 -156 178.5 -139.5Q162 -123 138 -123ZM860 -752Q884 -752 901 -735Q918 -718 918 -694.5Q918 -671 901 -654Q884 -637 860.5 -637Q837 -637 820 -654Q803 -671 803 -695Q803 -718 820 -735Q837 -752 860 -752ZM341 -334Q341 -334 341 -334Q341 -377 362.5 -413Q384 -449 420 -470.5Q456 -492 499 -492Q531 -492 560 -479.5Q589 -467 611 -445Q632 -424 644.5 -395Q657 -366 657 -334Q657 -291 635.5 -254.5Q614 -218 578 -197Q542 -176 499 -176Q456 -176 420 -197Q384 -218 362.5 -254.5Q341 -291 341 -334Q341 -334 341 -334ZM860 52Q837 52 820 35.5Q803 19 803 -5Q803 -29 820 -46Q837 -63 860.5 -63Q884 -63 901 -46Q918 -29 918 -5Q918 19 901 35.5Q884 52 860 52Z"/>
</svg>