<svg xmlns="http://www.w3.org/2000/svg" viewBox="0 -1000 1000 1000">
	<path fill="#000000" d="M393 -850Q347 -848 326 -829Q318 -818 319 -802Q319 -792 324 -773L325 -770Q339 -731 375.5 -706.5Q412 -682 452 -687Q455 -688 455 -686.5Q455 -685 454 -681Q453 -677 452.5 -675Q452 -673 451.5 -666Q451 -659 449 -658Q414 -675 374.5 -675.5Q335 -676 300 -660Q258 -642 229 -604Q200 -566 195 -520Q189 -479 202 -430Q209 -401 232 -344L235 -335Q258 -279 283 -240Q314 -191 353 -160Q380 -138 414 -129.5Q448 -121 480 -130Q497 -136 519 -129Q553 -122 587.5 -132Q622 -142 648 -166Q690 -205 707 -238Q710 -247 704 -256.5Q698 -266 688.5 -269Q679 -272 670 -265.5Q661 -259 648 -241.5Q635 -224 627 -217Q607 -197 585 -186Q558 -175 533 -179Q527 -180 514 -184Q501 -188 494 -188Q467 -176 438.5 -178.5Q410 -181 388 -198Q355 -222 328 -265Q308 -296 286 -346Q267 -391 260 -416Q247 -456 245 -489Q243 -530 265.5 -566Q288 -602 326 -615Q358 -628 393 -622Q428 -616 454 -593Q462 -587 471.5 -586.5Q481 -586 488 -592Q500 -602 517 -609Q528 -613 550 -618L560 -620Q625 -629 665.5 -615Q706 -601 729.5 -563Q753 -525 748 -483Q747 -461 735 -420Q728 -396 725 -384Q725 -375 732 -367.5Q739 -360 749 -359Q759 -358 766 -366Q774 -376 779 -390Q782 -398 787 -416L793 -437Q803 -482 797 -525Q790 -572 764 -605.5Q738 -639 700 -657Q662 -675 620 -675Q561 -677 507 -660Q503 -657 502.5 -659Q502 -661 503 -666L504 -668Q509 -697 527.5 -722Q546 -747 573 -762Q581 -768 582.5 -778Q584 -788 579 -796.5Q574 -805 564.5 -807Q555 -809 545 -805Q539 -802 529 -794L519 -787Q517 -786 513 -781.5Q509 -777 507 -778Q492 -810 460.5 -830.5Q429 -851 393 -850ZM391 -798Q417 -800 439 -782.5Q461 -765 465 -740Q439 -732 413 -744Q387 -756 377 -780L376 -783Q372 -792 372 -796Q384 -798 391 -798ZM666 -595Q646 -595 629 -584Q612 -573 603 -554.5Q594 -536 597.5 -516.5Q601 -497 615 -482Q629 -467 648 -461.5Q667 -456 686 -463Q708 -470 721.5 -490Q735 -510 731 -533Q732 -558 711.5 -576.5Q691 -595 666 -595ZM665 -544Q672 -544 676.5 -537.5Q681 -531 680.5 -524Q680 -517 673.5 -513Q667 -509 660 -512Q653 -515 650 -522.5Q647 -530 651 -536Q653 -539 657 -541.5Q661 -544 665 -544ZM327 -529Q315 -528 307.5 -517.5Q300 -507 304 -495Q314 -384 365 -302Q395 -257 427 -240Q436 -237 444.5 -241Q453 -245 457.5 -253Q462 -261 459 -269Q456 -277 450 -284Q447 -288 438 -295Q425 -306 421 -313Q395 -345 379 -390Q366 -426 357 -476L355 -489Q354 -502 353 -507Q350 -517 344 -523Q338 -529 327 -529ZM250 -217Q240 -216 232 -208.5Q224 -201 226 -191Q225 -165 225 -112L224 -61Q219 -71 208.5 -76.5Q198 -82 187 -77.5Q176 -73 173.5 -59.5Q171 -46 179 -37L186 -24Q213 26 231 47Q243 58 259.5 53.5Q276 49 281 34L292 17Q306 -6 312 -18Q323 -37 329 -54Q330 -65 321 -72.5Q312 -80 301 -80Q290 -80 284 -70Q283 -69 280 -63Q277 -57 276 -59V-108Q276 -172 273 -204Q270 -210 263.5 -213.5Q257 -217 250 -217ZM748 -210Q737 -210 729 -200.5Q721 -191 724 -180V-50Q719 -61 708.5 -68Q698 -75 687 -71Q676 -67 672.5 -55Q669 -43 676 -33Q697 11 725 51Q736 62 752.5 61Q769 60 776 47Q788 30 807 -6L821 -30Q826 -40 826 -51Q826 -62 817 -68.5Q808 -75 795.5 -71.5Q783 -68 778 -57Q776 -53 775.5 -55Q775 -57 775 -63Q776 -72 775 -74Q775 -155 774 -196Q760 -210 748 -210ZM495 -122Q484 -122 476.5 -112.5Q469 -103 471 -92Q470 -49 470 36Q465 24 454 17.5Q443 11 432.5 17Q422 23 419 35.5Q416 48 424 57L436 79Q459 122 474 140Q482 148 493.5 150Q505 152 513.5 144.5Q522 137 530 126Q535 119 542.5 105Q550 91 553 85.5Q556 80 562 69Q574 49 575 37Q574 26 564.5 20Q555 14 544 16Q533 18 528 28Q524 35 522.5 34.5Q521 34 522 25V-15Q521 -78 518 -109Q516 -116 509 -119.5Q502 -123 495 -122Z"/>
</svg>