<?xml version="1.0" encoding="UTF-8" standalone="no"?>
<svg
   xmlns:dc="http://purl.org/dc/elements/1.1/"
   xmlns:cc="http://creativecommons.org/ns#"
   xmlns:rdf="http://www.w3.org/1999/02/22-rdf-syntax-ns#"
   xmlns:svg="http://www.w3.org/2000/svg"
   xmlns="http://www.w3.org/2000/svg"
   xmlns:sodipodi="http://sodipodi.sourceforge.net/DTD/sodipodi-0.dtd"
   xmlns:inkscape="http://www.inkscape.org/namespaces/inkscape"
   viewBox="0 -1000 1000 1000"
   version="1.1"
   id="svg7395"
   sodipodi:docname="gravity.svg"
   inkscape:version="0.92.5 (2060ec1f9f, 2020-04-08)">
  <metadata
     id="metadata7401">
    <rdf:RDF>
      <cc:Work
         rdf:about="">
        <dc:format>image/svg+xml</dc:format>
        <dc:type
           rdf:resource="http://purl.org/dc/dcmitype/StillImage" />
        <dc:title></dc:title>
      </cc:Work>
    </rdf:RDF>
  </metadata>
  <defs
     id="defs7399" />
  <sodipodi:namedview
     pagecolor="#ffffff"
     bordercolor="#666666"
     borderopacity="1"
     objecttolerance="10"
     gridtolerance="10"
     guidetolerance="10"
     inkscape:pageopacity="0"
     inkscape:pageshadow="2"
     inkscape:window-width="1542"
     inkscape:window-height="754"
     id="namedview7397"
     showgrid="false"
     inkscape:zoom="0.4325"
     inkscape:cx="376.96703"
     inkscape:cy="565.90855"
     inkscape:window-x="2298"
     inkscape:window-y="289"
     inkscape:window-maximized="0"
     inkscape:current-layer="svg7395" />
  <path
     d="m 390.49594,-999.95214 q -47.3187,2.0574 -68.92071,21.6019 -8.22933,11.3154 -7.20066,27.77405 0,10.28667 5.14333,29.83135 l 1.02867,3.086 q 14.40134,40.11802 51.94769,65.32037 37.54635,25.20234 78.69304,20.059 3.08599,-1.02867 3.08599,0.51434 0,1.543 -1.02866,5.65767 -1.02867,4.11466 -1.543,6.172 -0.51433,2.05733 -1.02866,9.258 -0.51434,7.20068 -2.57167,8.22934 -36.00335,-17.48734 -76.63571,-18.00168 -40.63235,-0.51433 -76.6357,15.94435 -43.20402,18.516 -73.03537,57.60536 -29.83134,39.08935 -34.97468,86.40804 -6.172,42.17535 7.20066,92.58004 7.20068,29.83135 30.86002,88.46537 l 3.08601,9.25801 q 23.65934,57.60536 49.37602,97.72338 31.88868,50.40469 72.0067,82.29337 27.77402,22.63068 62.7487,31.37436 34.97468,8.74366 67.89202,-0.51434 17.48735,-6.17201 40.11803,1.02866 34.97468,7.20068 70.46369,-3.08599 35.48902,-10.28667 62.23437,-34.97469 43.20402,-40.11802 60.69136,-74.06403 3.086,-9.25801 -3.086,-19.03035 -6.172,-9.77234 -15.94434,-12.85834 -9.77234,-3.086 -19.03035,3.60034 -9.258,6.68633 -22.63067,24.68801 -13.37268,18.00167 -21.60201,25.20235 -20.57334,20.57334 -43.20403,31.88867 -27.774,11.31534 -53.49068,7.20068 -6.17201,-1.02867 -19.54468,-5.14334 -13.37268,-4.11467 -20.57334,-4.11467 -27.77402,12.344 -57.09103,9.77234 -29.31702,-2.57167 -51.94769,-20.05901 -33.94601,-24.68801 -61.72003,-68.9207 -20.57334,-31.88868 -43.20403,-83.32203 -19.54467,-46.29003 -26.74533,-72.00671 -13.37268,-41.14668 -15.43001,-75.0927 -2.05734,-42.17535 21.08767,-79.20737 23.14501,-37.03202 62.23436,-50.40469 32.91735,-13.37268 68.92071,-7.20067 36.00335,6.172 62.74869,29.83134 8.22934,6.17201 18.00168,6.68634 9.77233,0.51434 16.97301,-5.65767 12.344,-10.28667 29.83134,-17.48733 11.31534,-4.11468 33.94601,-9.25802 l 10.28668,-2.05733 q 66.86336,-9.258 108.52439,5.14334 41.66101,14.40134 65.83469,53.49069 24.17367,39.08936 19.03034,82.29337 -1.02866,22.63068 -13.37267,64.80603 -7.20067,24.68802 -10.28667,37.03202 0,9.258 7.20067,16.973 7.20067,7.71501 17.48734,8.74368 10.28667,1.02867 17.48734,-7.20067 8.22934,-10.28667 13.37267,-24.68802 3.08601,-8.22933 8.22935,-26.74534 l 6.17199,-21.60201 q 10.28667,-46.29002 4.11468,-90.5227 -7.20068,-48.34737 -33.94602,-82.80772 -26.74535,-34.46034 -65.8347,-52.97635 -39.08935,-18.51601 -82.29337,-18.51601 -60.69137,-2.05734 -116.23939,15.43001 -4.11467,3.086 -4.62901,1.02867 -0.51433,-2.05734 0.51434,-7.20068 l 1.02867,-2.05734 q 5.14334,-29.83134 24.17367,-55.54802 19.03035,-25.71668 46.80436,-41.14669 8.22934,-6.17199 9.77234,-16.45866 1.543,-10.28668 -3.60034,-19.03035 -5.14334,-8.74367 -14.91567,-10.80101 -9.77234,-2.05733 -20.05901,2.05734 -6.172,3.086 -16.45867,11.31534 l -10.28667,7.20066 q -2.05734,1.02867 -6.17201,5.65768 -4.11466,4.629 -6.172,3.60034 -15.43001,-32.91736 -47.83302,-54.00507 -32.40302,-21.08766 -69.43503,-20.0589 z m -2.05734,53.49062 q 26.74535,-2.05734 49.37603,15.94434 22.63067,18.00168 26.74534,43.71835 -26.74534,8.22934 -53.49069,-4.11466 -26.74535,-12.34401 -37.03202,-37.03202 l -1.02867,-3.086 q -4.11467,-9.25801 -4.11467,-13.37268 12.34401,-2.05733 19.54468,-2.05733 z m 282.88347,208.81943 q -20.57335,0 -38.06069,11.31533 -17.48734,11.31535 -26.74534,30.34569 -9.25801,19.03034 -5.65768,39.08935 3.60034,20.05901 18.00168,35.48902 14.40134,15.43001 33.94602,21.08767 19.54468,5.65768 39.08935,-1.543 22.63068,-7.20066 36.51768,-27.774 13.88701,-20.57335 9.77234,-44.2327 1.02867,-25.71668 -20.05901,-44.74702 -21.08767,-19.03034 -46.80435,-19.03034 z m -1.02867,52.46202 q 7.20067,0 11.82967,6.68635 4.629,6.68633 4.11468,13.88699 -0.51434,7.20068 -7.20068,11.31535 -6.68633,4.11466 -13.88701,1.02866 -7.20066,-3.08599 -10.28667,-10.801 -3.086,-7.715 1.02867,-13.88701 2.05734,-3.086 6.172,-5.65767 4.11467,-2.57167 8.22934,-2.57167 z m -347.6895,15.43001 q -12.344,1.02867 -20.059,11.82968 -7.71501,10.801 -3.60034,23.14501 10.28667,114.18205 62.7487,198.53276 30.86,46.29002 63.77736,63.77736 9.258,3.086 18.00167,-1.02867 8.74367,-4.11467 13.37267,-12.344 4.62901,-8.22935 1.54301,-16.45868 -3.08601,-8.22933 -9.25801,-15.43001 -3.086,-4.11466 -12.344,-11.31534 -13.37268,-11.31533 -17.48735,-18.516 -26.74535,-32.91735 -43.20401,-79.20738 -13.37268,-37.03201 -22.63068,-88.46537 l -2.05733,-13.37267 q -1.02867,-13.37267 -2.05734,-18.51601 -3.086,-10.28667 -9.258,-16.45868 -6.17201,-6.172 -17.48735,-6.172 z m -79.20737,320.94416 q -10.28667,1.02866 -18.51601,8.74366 -8.22933,7.715 -6.172,18.00168 -1.02866,26.74534 -1.02866,81.2647 l -1.02867,52.46203 q -5.14334,-10.28667 -15.94434,-15.94434 -10.80101,-5.65767 -22.11635,-1.02867 -11.31533,4.62901 -13.887,18.51601 -2.57167,13.88701 5.65766,23.14501 l 7.20068,13.37268 q 27.77401,51.433357 46.29001,73.035357 12.34401,11.315341 29.31702,6.68634 16.973,-4.629 22.11634,-20.05901 l 11.31534,-17.487337 q 14.40134,-23.65935 20.57334,-36.00335 11.31534,-19.54468 17.48735,-37.03202 1.02867,-11.31534 -8.22934,-19.03034 -9.25801,-7.71501 -20.57335,-7.71501 -11.31533,0 -17.48733,10.28668 -1.02867,1.02866 -4.11467,7.20067 -3.08601,6.17199 -4.11468,4.11467 v -50.40469 q 0,-65.8347 -3.08599,-98.75205 -3.086,-6.17201 -9.77235,-9.77234 -6.68633,-3.60033 -13.887,-3.60033 z m 512.27624,7.20066 q -11.31533,0 -19.54468,9.77234 -8.22933,9.77234 -5.14333,21.08768 v 133.72673 q -5.14334,-11.31534 -15.94434,-18.51601 -10.801,-7.20067 -22.11634,-3.086 -11.31534,4.11466 -14.91568,16.45867 -3.60034,12.34401 3.60034,22.63068 21.60201,45.26136 50.40469,86.408037 11.31534,11.315339 28.28835,10.286672 16.973,-1.028667 24.17368,-14.401342 12.344,-17.48734 31.88868,-54.519357 l 14.40134,-24.68801 q 5.14333,-10.28667 5.14333,-21.60201 0,-11.31534 -9.258,-18.00168 -9.25801,-6.68633 -22.11635,-3.08599 -12.85834,3.60033 -18.00168,14.91566 -2.05732,4.11468 -2.57166,2.05734 -0.51433,-2.05734 -0.51433,-8.22933 1.02867,-9.25801 0,-11.31534 0,-83.32204 -1.02867,-125.4974 -14.40134,-14.40134 -26.74535,-14.40134 z m -260.25279,90.52272 q -11.31533,0 -19.03033,9.77233 -7.71501,9.77234 -5.65768,21.08767 -1.02867,44.2327 -1.02867,131.669407 -5.14333,-12.344007 -16.45867,-19.030347 -11.31534,-6.68633 -22.11635,-0.51433 -10.801,6.172 -13.887,19.030337 -3.086,12.85834 5.14334,22.11634 l 12.344,22.630681 q 23.65935,44.232688 39.08936,62.748697 8.22933,8.229337 20.059,10.286671 11.82967,2.057334 20.57334,-5.657668 8.74368,-7.715005 16.97301,-19.030343 5.14334,-7.200671 12.85834,-21.602011 7.715,-14.401341 10.80101,-20.05901 3.086,-5.657669 9.258,-16.973007 12.344,-20.57334 13.37267,-32.91735 -1.02867,-11.31533 -10.801,-17.487337 -9.77234,-6.172 -21.08767,-4.11467 -11.31534,2.05733 -16.45868,12.343997 -4.11466,7.20068 -5.65767,6.68634 -1.543,-0.51433 -0.51433,-9.77233 v -41.146687 q -1.02867,-64.80603 -4.11467,-96.69471 -2.05734,-7.20068 -9.258,-10.801 -7.20068,-3.60034 -14.40135,-2.57167 z"
     id="path7393"
     inkscape:connector-curvature="0"
     style="fill:#000000;stroke-width:1.02866721" />
</svg>
