<?xml version="1.0" encoding="UTF-8" standalone="no"?>
<!-- Uploaded to: SVG Repo, www.svgrepo.com, Generator: SVG Repo Mixer Tools -->

<svg
   width="800px"
   height="800px"
   viewBox="0 0 24 24"
   fill="none"
   version="1.1"
   id="svg4"
   sodipodi:docname="group.svg"
   inkscape:version="1.3.1 (9b9bdc1480, 2023-11-25, custom)"
   xmlns:inkscape="http://www.inkscape.org/namespaces/inkscape"
   xmlns:sodipodi="http://sodipodi.sourceforge.net/DTD/sodipodi-0.dtd"
   xmlns="http://www.w3.org/2000/svg"
   xmlns:svg="http://www.w3.org/2000/svg">
  <defs
     id="defs4" />
  <sodipodi:namedview
     id="namedview4"
     pagecolor="#ffffff"
     bordercolor="#000000"
     borderopacity="0.25"
     inkscape:showpageshadow="2"
     inkscape:pageopacity="0.0"
     inkscape:pagecheckerboard="0"
     inkscape:deskcolor="#d1d1d1"
     showgrid="false"
     inkscape:zoom="1.01125"
     inkscape:cx="400"
     inkscape:cy="399.50556"
     inkscape:window-width="1846"
     inkscape:window-height="1016"
     inkscape:window-x="74"
     inkscape:window-y="27"
     inkscape:window-maximized="1"
     inkscape:current-layer="svg4" />
  <path
     style="color:#000000;fill:#292d32;stroke-linecap:round;stroke-linejoin:round;stroke-miterlimit:10;-inkscape-stroke:none"
     d="M 5,1.25 C 3.8750011,1.25 2.895526,1.541974 2.21875,2.21875 1.541974,2.895526 1.25,3.8750011 1.25,5 v 2 c 0,1.1249989 0.291974,2.104474 0.96875,2.78125 C 2.895526,10.458026 3.8750011,10.75 5,10.75 h 2 c 1.1249989,0 2.104474,-0.291974 2.78125,-0.96875 C 10.458026,9.104474 10.75,8.1249989 10.75,7 V 5 C 10.75,3.8750011 10.458026,2.895526 9.78125,2.21875 9.104474,1.541974 8.1249989,1.25 7,1.25 Z m 0,1.5 h 2 c 0.8749991,0 1.395527,0.208027 1.71875,0.53125 C 9.041973,3.604473 9.25,4.1250009 9.25,5 V 7 C 9.25,7.8749991 9.041973,8.395527 8.71875,8.71875 8.395527,9.041973 7.8749991,9.25 7,9.25 H 5 C 4.1250009,9.25 3.604473,9.041973 3.28125,8.71875 2.958027,8.395527 2.75,7.8749991 2.75,7 V 5 C 2.75,4.1250009 2.958027,3.604473 3.28125,3.28125 3.604473,2.958027 4.1250009,2.75 5,2.75 Z"
     id="path1" />
  <path
     style="color:#000000;fill:#292d32;stroke-linecap:round;stroke-linejoin:round;stroke-miterlimit:10;-inkscape-stroke:none"
     d="m 17,1.25 c -1.124999,0 -2.104474,0.291974 -2.78125,0.96875 C 13.541974,2.895526 13.25,3.8750011 13.25,5 v 2 c 0,1.1249989 0.291974,2.104474 0.96875,2.78125 C 14.895526,10.458026 15.875001,10.75 17,10.75 h 2 c 1.124999,0 2.104474,-0.291974 2.78125,-0.96875 C 22.458026,9.104474 22.75,8.1249989 22.75,7 V 5 C 22.75,3.8750011 22.458026,2.895526 21.78125,2.21875 21.104474,1.541974 20.124999,1.25 19,1.25 Z m 0,1.5 h 2 c 0.874999,0 1.395527,0.208027 1.71875,0.53125 C 21.041973,3.604473 21.25,4.1250009 21.25,5 v 2 c 0,0.8749991 -0.208027,1.395527 -0.53125,1.71875 C 20.395527,9.041973 19.874999,9.25 19,9.25 H 17 C 16.125001,9.25 15.604473,9.041973 15.28125,8.71875 14.958027,8.395527 14.75,7.8749991 14.75,7 V 5 c 0,-0.8749991 0.208027,-1.395527 0.53125,-1.71875 C 15.604473,2.958027 16.125001,2.75 17,2.75 Z"
     id="path2" />
  <path
     style="color:#000000;fill:#292d32;stroke-linecap:round;stroke-linejoin:round;stroke-miterlimit:10;-inkscape-stroke:none"
     d="m 17,13.25 c -1.124999,0 -2.104474,0.291974 -2.78125,0.96875 C 13.541974,14.895526 13.25,15.875001 13.25,17 v 2 c 0,1.124999 0.291974,2.104474 0.96875,2.78125 C 14.895526,22.458026 15.875001,22.75 17,22.75 h 2 c 1.124999,0 2.104474,-0.291974 2.78125,-0.96875 C 22.458026,21.104474 22.75,20.124999 22.75,19 v -2 c 0,-1.124999 -0.291974,-2.104474 -0.96875,-2.78125 C 21.104474,13.541974 20.124999,13.25 19,13.25 Z m 0,1.5 h 2 c 0.874999,0 1.395527,0.208027 1.71875,0.53125 C 21.041973,15.604473 21.25,16.125001 21.25,17 v 2 c 0,0.874999 -0.208027,1.395527 -0.53125,1.71875 C 20.395527,21.041973 19.874999,21.25 19,21.25 h -2 c -0.874999,0 -1.395527,-0.208027 -1.71875,-0.53125 C 14.958027,20.395527 14.75,19.874999 14.75,19 v -2 c 0,-0.874999 0.208027,-1.395527 0.53125,-1.71875 C 15.604473,14.958027 16.125001,14.75 17,14.75 Z"
     id="path3" />
  <path
     style="color:#000000;fill:#292d32;stroke-linecap:round;stroke-linejoin:round;stroke-miterlimit:10;-inkscape-stroke:none"
     d="m 5,13.25 c -1.1249989,0 -2.104474,0.291974 -2.78125,0.96875 C 1.541974,14.895526 1.25,15.875001 1.25,17 v 2 c 0,1.124999 0.291974,2.104474 0.96875,2.78125 C 2.895526,22.458026 3.8750011,22.75 5,22.75 h 2 c 1.1249989,0 2.104474,-0.291974 2.78125,-0.96875 C 10.458026,21.104474 10.75,20.124999 10.75,19 v -2 c 0,-1.124999 -0.291974,-2.104474 -0.96875,-2.78125 C 9.104474,13.541974 8.1249989,13.25 7,13.25 Z m 0,1.5 h 2 c 0.8749991,0 1.395527,0.208027 1.71875,0.53125 C 9.041973,15.604473 9.25,16.125001 9.25,17 v 2 c 0,0.874999 -0.208027,1.395527 -0.53125,1.71875 C 8.395527,21.041973 7.8749991,21.25 7,21.25 H 5 C 4.1250009,21.25 3.604473,21.041973 3.28125,20.71875 2.958027,20.395527 2.75,19.874999 2.75,19 v -2 c 0,-0.874999 0.208027,-1.395527 0.53125,-1.71875 C 3.604473,14.958027 4.1250009,14.75 5,14.75 Z"
     id="path4" />
</svg>
