<?xml version="1.0" encoding="UTF-8" standalone="no"?>
<svg
   xmlns:dc="http://purl.org/dc/elements/1.1/"
   xmlns:cc="http://creativecommons.org/ns#"
   xmlns:rdf="http://www.w3.org/1999/02/22-rdf-syntax-ns#"
   xmlns:svg="http://www.w3.org/2000/svg"
   xmlns="http://www.w3.org/2000/svg"
   xmlns:sodipodi="http://sodipodi.sourceforge.net/DTD/sodipodi-0.dtd"
   xmlns:inkscape="http://www.inkscape.org/namespaces/inkscape"
   viewBox="0 -1000 1000 1000"
   version="1.1"
   id="svg7447"
   sodipodi:docname="gun.svg"
   inkscape:version="0.92.5 (2060ec1f9f, 2020-04-08)">
  <metadata
     id="metadata7453">
    <rdf:RDF>
      <cc:Work
         rdf:about="">
        <dc:format>image/svg+xml</dc:format>
        <dc:type
           rdf:resource="http://purl.org/dc/dcmitype/StillImage" />
        <dc:title></dc:title>
      </cc:Work>
    </rdf:RDF>
  </metadata>
  <defs
     id="defs7451" />
  <sodipodi:namedview
     pagecolor="#ffffff"
     bordercolor="#666666"
     borderopacity="1"
     objecttolerance="10"
     gridtolerance="10"
     guidetolerance="10"
     inkscape:pageopacity="0"
     inkscape:pageshadow="2"
     inkscape:window-width="1542"
     inkscape:window-height="754"
     id="namedview7449"
     showgrid="false"
     inkscape:zoom="0.4325"
     inkscape:cx="17.368647"
     inkscape:cy="401.34658"
     inkscape:window-x="2298"
     inkscape:window-y="289"
     inkscape:window-maximized="0"
     inkscape:current-layer="svg7447" />
  <path
     d="m 499.70992,-959.92262 q -3.16718,1.05573 -10.55728,1.05573 l -26.39319,7.39009 32.72755,123.52014 -85.51392,10.55727 -34.83902,-130.91023 q -67.56656,10.55728 -123.52013,26.3932 -70.73375,19.00309 -125.63158,59.12074 -10.55728,-15.83592 -28.504642,-22.69814 -17.947372,-6.86223 -36.950475,-2.63932 -24.281735,6.33436 -36.950466,27.97678 -12.66873,21.64241 -5.806502,46.45201 6.86223,24.80961 27.976782,36.42261 -43.284831,72.8452 -24.281735,144.63468 11.613004,42.2291 43.284831,74.42879 31.67183,32.1997 79.179577,51.2028 11.613,5.27863 29.56037,10.55727 -54.89783,64.39938 -83.930344,152.55263 -29.032513,88.15325 -18.475237,162.05419 11.61301,81.29102 65.455121,117.185763 61.2322,40.117648 166.80496,14.780186 -14.78019,-5.278638 -25.33747,-16.363778 -10.55727,-11.085143 -14.78018,-26.921049 -6.33437,-26.393202 6.86222,-49.091342 13.19661,-22.69814 39.58979,-30.08823 -15.83591,-12.66873 -21.11455,-32.72755 -6.33437,-22.17029 2.63931,-42.22911 8.97369,-20.05883 27.97679,-31.67183 -11.613,-13.72445 -14.78018,-27.44892 -6.33437,-22.17027 2.11145,-42.2291 8.44582,-20.05882 27.44892,-30.6161 v -3.16719 q -19.0031,-13.72445 -25.33747,-35.89473 -6.33436,-22.17028 1.58359,-41.70125 7.91796,-19.53096 25.86533,-31.14396 l 38.0062,-8.44582 q 9.50154,47.50774 29.0325,78.12384 19.53096,30.6161 44.86843,38.53406 25.33746,7.91796 48.56347,-7.91796 -31.67183,-27.44891 -46.45202,-62.28792 -12.66873,-29.56037 -14.78019,-66.51084 13.72447,-4.22291 39.06192,-13.72446 l 10.55728,-4.22291 -40.11765,-150.96904 80.2353,-30.6161 38.00619,141.46749 22.17029,-5.27863 q 3.16718,-2.11146 10.55727,-6.33437 l 3.16718,-1.05573 -38.00619,-142.52323 80.23529,-30.6161 31.67184,119.29722 23.226,-5.27863 12.66873,-9.50155 -31.67183,-118.24149 77.06812,-29.56037 24.28173,87.62539 h 1.05573 q 17.94737,-17.94737 29.56038,-33.78329 l -17.94737,-67.56657 25.33745,-10.55727 32.72756,-8.44583 q 11.61301,22.17029 34.31115,32.72757 22.69815,10.55727 48.0356,4.2229 28.50465,-8.44582 43.28484,-33.78328 14.78019,-25.33746 7.39006,-53.84211 -7.39006,-25.33745 -27.97675,-40.64551 -20.58669,-15.30805 -45.92415,-13.19659 l -4.22292,1.05573 q -6.33436,1.05572 -9.50155,2.11145 -22.17027,5.27863 -36.95045,23.226 -14.78019,17.94737 -16.89165,40.11765 l -42.2291,11.61301 -19.0031,2.11146 -16.89164,-61.2322 -7.39009,-3.16719 q -21.11455,-7.3901 -31.67183,-10.55728 l -4.22292,1.05573 21.11456,79.17957 -82.34675,10.55727 -28.50465,-107.68421 -11.613,-1.05573 -26.39319,7.3901 28.50464,105.57276 -85.51394,10.55727 z"
     id="path7445"
     inkscape:connector-curvature="0"
     style="fill:#000000;stroke-width:1.0557276" />
</svg>
