<svg xmlns="http://www.w3.org/2000/svg" viewBox="0 -1000 1000 1000">
	<path fill="#000000" d="M505 -756Q502 -755 495 -755L470 -748L501 -631L420 -621L387 -745Q323 -735 270 -720Q203 -702 151 -664Q141 -679 124 -685.5Q107 -692 89 -688Q66 -682 54 -661.5Q42 -641 48.5 -617.5Q55 -594 75 -583Q34 -514 52 -446Q63 -406 93 -375.5Q123 -345 168 -327Q179 -322 196 -317Q144 -256 116.5 -172.5Q89 -89 99 -19Q110 58 161 92Q219 130 319 106Q305 101 295 90.5Q285 80 281 65Q275 40 287.5 18.5Q300 -3 325 -10Q310 -22 305 -41Q299 -62 307.5 -81Q316 -100 334 -111Q323 -124 320 -137Q314 -158 322 -177Q330 -196 348 -206V-209Q330 -222 324 -243Q318 -264 325.5 -282.5Q333 -301 350 -312L386 -320Q395 -275 413.5 -246Q432 -217 456 -209.5Q480 -202 502 -217Q472 -243 458 -276Q446 -304 444 -339Q457 -343 481 -352L491 -356L453 -499L529 -528L565 -394L586 -399Q589 -401 596 -405L599 -406L563 -541L639 -570L669 -457L691 -462L703 -471L673 -583L746 -611L769 -528H770Q787 -545 798 -560L781 -624L805 -634L836 -642Q847 -621 868.5 -611Q890 -601 914 -607Q941 -615 955 -639Q969 -663 962 -690Q955 -714 935.5 -728.5Q916 -743 892 -741L888 -740Q882 -739 879 -738Q858 -733 844 -716Q830 -699 828 -678L788 -667L770 -665L754 -723L747 -726Q727 -733 717 -736L713 -735L733 -660L655 -650L628 -752L617 -753L592 -746L619 -646L538 -636Z"/>
</svg>