<?xml version="1.0" encoding="UTF-8" standalone="no"?>
<svg
   xmlns:dc="http://purl.org/dc/elements/1.1/"
   xmlns:cc="http://creativecommons.org/ns#"
   xmlns:rdf="http://www.w3.org/1999/02/22-rdf-syntax-ns#"
   xmlns:svg="http://www.w3.org/2000/svg"
   xmlns="http://www.w3.org/2000/svg"
   id="svg9234"
   version="1.1"
   viewBox="0 -1000 1000 1000">
  <metadata
     id="metadata9240">
    <rdf:RDF>
      <cc:Work
         rdf:about="">
        <dc:format>image/svg+xml</dc:format>
        <dc:type
           rdf:resource="http://purl.org/dc/dcmitype/StillImage" />
        <dc:title></dc:title>
      </cc:Work>
    </rdf:RDF>
  </metadata>
  <defs
     id="defs9238" />
  <path
     style="fill:#000000;stroke-width:1.45633936"
     id="path9232"
     d="m 98.111062,-993.86546 c -33.010371,0 -64.078937,5.33993 -93.2057263,16.01969 59.2244623,25.24331 121.3616043,66.02078 186.4114243,122.33254 54.37,47.57376 114.07992,109.7109 179.12972,186.41143 l 123.78884,-81.55501 C 428.2146,-826.38644 363.65024,-884.64 300.54222,-925.41748 230.63792,-970.07863 163.16086,-992.89452 98.111062,-993.86546 Z m 786.423218,26.21414 -685.93582,455.83416 c -35.92304,24.27233 -74.75875,34.46671 -116.507138,30.58313 -21.359642,-2.91268 -43.204745,-9.70893 -65.535259,-20.38875 -8.7380506,22.33053 -8.7380506,41.26296 0,56.79723 10.679806,19.41786 34.952135,26.69956 72.816956,21.84509 l 46.602861,-5.82537 -27.67045,36.40849 c -20.388744,26.2141 -35.437591,57.28268 -45.146524,93.20572 -9.708924,40.77749 -10.679816,81.55499 -2.912677,122.33249 8.738041,46.60285 29.612231,90.293036 62.622591,131.070535 20.38874,24.272329 45.14651,37.3793906 74.27329,39.3211753 29.1268,1.9417846 55.58362,-4.6117413 79.37051,-19.6605883 23.78686,-15.048846 39.56387,-32.767639 47.33102,-53.156368 2.91268,-9.708944 3.1554,-18.689695 0.72817,-26.942294 -2.42723,-8.25259 -8.00987,-16.7479 -16.74791,-25.48594 -18.44696,-17.47607 -33.01035,-33.01035 -43.69017,-46.60285 -15.53429,-17.47606 -26.69956,-34.95216 -33.49581,-52.42822 29.12679,-19.41786 50.97187,-34.95214 65.53526,-46.60285 20.38875,-17.47607 35.92303,-34.46669 46.60287,-50.97187 12.62161,-20.38875 18.68968,-41.50567 18.20423,-63.35077 -0.48544,-21.84508 -8.98075,-45.38925 -25.48593,-70.63246 71.84608,-51.45731 183.01331,-126.21606 333.5017,-224.27624 125.24518,-80.58411 218.45085,-142.23581 279.61712,-184.95506 z m -273.7918,364.08478 -122.3325,80.09867 59.7099,77.18598 104.85644,135.43956 c -14.56341,11.65071 -28.88407,20.63147 -42.96203,26.94227 -14.07794,6.31081 -25.48592,8.4953 -34.22397,6.55353 l -4.36901,39.32115 c 39.80661,2.91268 82.04044,-17.96152 126.70152,-62.62258 21.35964,-22.33054 44.17561,-37.37938 68.44794,-45.14652 22.33054,-7.76715 44.4184,-9.70893 66.26345,-5.82536 21.84505,3.88358 41.74842,11.89344 59.70991,24.0296 17.96148,12.13617 32.52492,27.42771 43.6902,45.87468 11.16529,18.44696 17.96149,38.10755 20.38869,58.98175 2.42731,20.87419 -1.45636,41.99111 -11.65071,63.35075 -10.19434,21.35965 -26.45685,40.7775 -48.78732,58.25357 C 869,-81.711622 835.01872,-65.691883 794.24122,-53.070283 l 11.65073,37.864822 c 45.63199,-13.592503 83.49674,-32.524919 113.59445,-56.797227 28.15593,-21.359642 48.30191,-45.389242 60.43804,-72.088802 12.13623,-26.69954 16.99061,-53.88455 14.56343,-81.555 -2.4272,-27.67044 -10.67976,-53.15638 -24.75778,-76.45782 -14.07791,-23.30143 -32.52492,-42.71928 -55.34091,-58.25357 -22.816,-15.53428 -47.57368,-25.48593 -74.27324,-29.85494 -26.69956,-4.36901 -54.61275,-2.18452 -83.73954,6.55351 -53.3991,-86.40946 -101.94374,-159.71186 -145.63392,-219.90723 z M 304.91123,-439.0002 c 9.70892,17.47607 15.04884,33.98126 16.01973,49.51555 0.9709,15.53428 -2.42724,29.12679 -10.19437,40.7775 -13.5925,20.38875 -44.17563,46.60286 -91.74938,78.64232 l -1.45635,-13.10707 c -1.94177,-52.4282 27.18501,-104.37097 87.38037,-155.8283 z m 461.65954,135.43956 c -13.59249,5.82534 -27.67044,15.04882 -42.23383,27.67044 8.73804,27.18501 25.48593,56.79724 50.24369,88.8367 24.75777,32.03945 49.75822,55.82634 75.00152,71.36063 15.53428,-8.73805 29.12677,-19.90332 40.77748,-33.49581 -9.70892,-26.21409 -26.69956,-54.61272 -50.97192,-85.19585 -24.27226,-30.58312 -48.54461,-53.64183 -72.81694,-69.17611 z" />
</svg>
