<svg xmlns="http://www.w3.org/2000/svg" viewBox="0 -1000 1000 1000">
	<path fill="#000000" d="M100 -804L87 -771L244 -709L256 -741ZM900 -804L744 -741L756 -709L913 -771ZM500 -801Q459 -801 426 -783Q396 -766 374 -734Q353 -706 341.5 -669.5Q330 -633 330 -600.5Q330 -568 358 -524Q367 -510 378 -498L388 -488L390 -485L409 -430H445L380 -659L500 -619L620 -659L555 -430H591L610 -485L622 -498Q633 -510 642 -524Q670 -568 670 -600.5Q670 -633 658.5 -669.5Q647 -706 626 -734Q604 -766 574 -783Q541 -801 500 -801ZM750 -618V-582H938V-618ZM63 -617V-582H250V-617ZM432 -604L482 -430H518L568 -604L500 -581ZM756 -491L744 -459L900 -396L913 -429ZM244 -491L87 -429L100 -396L256 -458ZM424 -395V-368H576V-395ZM424 -332V-305H576V-332ZM332 -327Q292 -326 257.5 -320.5Q223 -315 202 -306L58 96Q143 79 198 72Q275 63 339 67Q415 71 482 94V-270H389V-325Q373 -327 342 -327ZM658 -327Q627 -327 611 -325V-270H518V94Q585 71 661 67Q725 63 802 72Q857 79 942 96L798 -306Q778 -315 743 -320.5Q708 -326 668 -327Z"/>
</svg>