<?xml version="1.0" encoding="UTF-8" standalone="no"?>
<svg
   xmlns:dc="http://purl.org/dc/elements/1.1/"
   xmlns:cc="http://creativecommons.org/ns#"
   xmlns:rdf="http://www.w3.org/1999/02/22-rdf-syntax-ns#"
   xmlns:svg="http://www.w3.org/2000/svg"
   xmlns="http://www.w3.org/2000/svg"
   xmlns:sodipodi="http://sodipodi.sourceforge.net/DTD/sodipodi-0.dtd"
   xmlns:inkscape="http://www.inkscape.org/namespaces/inkscape"
   viewBox="0 -1000 1000 1000"
   version="1.1"
   id="svg2182"
   sodipodi:docname="handout.svg"
   inkscape:version="0.92.5 (2060ec1f9f, 2020-04-08)">
  <metadata
     id="metadata2188">
    <rdf:RDF>
      <cc:Work
         rdf:about="">
        <dc:format>image/svg+xml</dc:format>
        <dc:type
           rdf:resource="http://purl.org/dc/dcmitype/StillImage" />
        <dc:title></dc:title>
      </cc:Work>
    </rdf:RDF>
  </metadata>
  <defs
     id="defs2186" />
  <sodipodi:namedview
     pagecolor="#ffffff"
     bordercolor="#666666"
     borderopacity="1"
     objecttolerance="10"
     gridtolerance="10"
     guidetolerance="10"
     inkscape:pageopacity="0"
     inkscape:pageshadow="2"
     inkscape:window-width="1848"
     inkscape:window-height="1016"
     id="namedview2184"
     showgrid="false"
     inkscape:zoom="0.838"
     inkscape:cx="500"
     inkscape:cy="500"
     inkscape:window-x="72"
     inkscape:window-y="27"
     inkscape:window-maximized="1"
     inkscape:current-layer="svg2182" />
  <path
     d="m 86.21055,-965.51313 -13.448155,34.13763 162.412355,64.13736 12.41369,-33.10315 z m 827.57889,0 -161.37788,65.17184 12.41368,33.10315 162.41236,-64.13736 z M 500,-962.40971 q -42.41342,0 -76.55105,18.62053 -31.03421,17.58605 -53.79263,50.6892 -21.72394,28.96526 -33.62039,66.72355 -11.89645,37.75829 -11.89645,71.37868 0,33.62039 28.96526,79.13723 9.31027,14.48263 20.68948,26.89632 l 10.34473,10.34473 2.06895,3.10342 19.655,56.89605 h 37.24105 L 375.86316,-815.51446 500,-774.13551 624.13683,-815.51446 556.89605,-578.62 h 37.24105 l 19.655,-56.89605 12.41368,-13.44815 q 11.37921,-12.41369 20.68947,-26.89632 28.96526,-45.51684 28.96526,-79.13723 0,-33.62039 -11.89644,-71.37868 -11.89645,-37.75829 -33.6204,-66.72355 -22.75842,-33.10315 -53.79262,-50.6892 Q 542.41342,-962.40971 500,-962.40971 Z m 258.6184,189.30867 v 37.24105 h 194.48104 v -37.24105 z m -710.683372,1.03448 v 36.20657 H 241.38159 v -36.20657 z m 381.720762,13.44815 51.72368,179.99841 h 37.24105 L 570.3442,-758.61841 500,-734.82551 Z m 335.16945,116.89552 -12.41368,33.10316 161.37788,65.17183 13.44816,-34.13762 z m -529.65049,0 -162.412355,64.13737 13.448155,34.13762 161.37789,-64.13736 z M 421.38,-542.41342 v 27.93079 h 157.23999 v -27.93079 z m 0,65.17184 v 27.93078 h 157.23999 v -27.93078 z m -95.17157,5.17236 q -41.37894,1.03448 -77.06828,6.72408 -35.68934,5.68961 -57.41329,14.99987 L 42.76266,-34.486874 q 87.93026,-17.58605 144.82631,-24.827366 79.65446,-9.310263 145.86078,-5.172368 78.61999,4.137895 147.92972,27.930788 v -376.5484 h -96.20604 v -56.89605 q -16.55158,-2.06895 -48.62026,-2.06895 z m 337.2384,0 q -32.06868,0 -48.62026,2.06895 v 56.89605 h -96.20605 v 376.548399 q 69.30973,-23.792893 147.92973,-27.930788 66.20631,-4.137894 145.86078,5.172368 56.89605,7.241316 144.82631,24.827367 L 808.27313,-450.34527 q -20.68947,-9.31026 -56.89604,-14.99987 -36.20658,-5.6896 -77.58553,-6.72408 z"
     id="path2180"
     inkscape:connector-curvature="0"
     style="fill:#000000;stroke-width:1.03447366" />
</svg>
