<?xml version="1.0" encoding="UTF-8" standalone="no"?>
<svg
   xmlns:dc="http://purl.org/dc/elements/1.1/"
   xmlns:cc="http://creativecommons.org/ns#"
   xmlns:rdf="http://www.w3.org/1999/02/22-rdf-syntax-ns#"
   xmlns:svg="http://www.w3.org/2000/svg"
   xmlns="http://www.w3.org/2000/svg"
   xmlns:sodipodi="http://sodipodi.sourceforge.net/DTD/sodipodi-0.dtd"
   xmlns:inkscape="http://www.inkscape.org/namespaces/inkscape"
   viewBox="0 -1000 1000 1000"
   version="1.1"
   id="svg7499"
   sodipodi:docname="heartbeat.svg"
   inkscape:version="0.92.5 (2060ec1f9f, 2020-04-08)">
  <metadata
     id="metadata7505">
    <rdf:RDF>
      <cc:Work
         rdf:about="">
        <dc:format>image/svg+xml</dc:format>
        <dc:type
           rdf:resource="http://purl.org/dc/dcmitype/StillImage" />
        <dc:title></dc:title>
      </cc:Work>
    </rdf:RDF>
  </metadata>
  <defs
     id="defs7503" />
  <sodipodi:namedview
     pagecolor="#ffffff"
     bordercolor="#666666"
     borderopacity="1"
     objecttolerance="10"
     gridtolerance="10"
     guidetolerance="10"
     inkscape:pageopacity="0"
     inkscape:pageshadow="2"
     inkscape:window-width="1542"
     inkscape:window-height="754"
     id="namedview7501"
     showgrid="false"
     inkscape:zoom="0.30582368"
     inkscape:cx="526.87945"
     inkscape:cy="550.59005"
     inkscape:window-x="2298"
     inkscape:window-y="289"
     inkscape:window-maximized="0"
     inkscape:current-layer="svg7499" />
  <path
     d="m 714,-428.96429 h 171 q -3,4 -6,6 -3,2 -5,4 l -2,3 -347,335.000004 q -10,10 -25,10 -15,0 -25,-10 L 127,-416.96429 q -3,-2 -11,-12 h 205 q 13,0 23,-7 10,-7 12,-19 l 39,-157 106,372 q 4,11 13,18 9,7 22,8 11,0 21,-8 10,-8 13,-18 l 81,-271 32,63 q 10,19 31,19 z m 286,-238 q 0,80 -57,167 H 737 l -62,-123 q -5,-10 -15,-15 -10,-5 -20,-5 -25,3 -31,26 l -72,240 -109,-383 q -4,-11 -14,-19 -10,-8 -22,-7 -12,1 -21,8 -9,7 -13,19 l -64,259 H 58 q -58,-87 -58,-167 0,-123 71,-192 71,-69 196,-70 34,0 70,12 36,12 67,33 31,21 54,38 23,17 42,38 20,-20 42,-38 22,-18 54,-38 32,-20 67,-33 35,-13 70,-12 125,0 196,70 71,70 71,192 z"
     id="path7497"
     inkscape:connector-curvature="0"
     style="fill:#000000" />
</svg>
