<svg xmlns="http://www.w3.org/2000/svg" viewBox="0 -1000 1000 1000">
	<path fill="#000000" d="M714 -279H885Q882 -275 879 -273Q876 -271 874 -269L872 -266L525 69Q515 79 500 79Q485 79 475 69L127 -267Q124 -269 116 -279H321Q334 -279 344 -286Q354 -293 356 -305L395 -462L501 -90Q505 -79 514 -72Q523 -65 536 -64Q547 -64 557 -72Q567 -80 570 -90L651 -361L683 -298Q693 -279 714 -279ZM1000 -517Q1000 -437 943 -350H737L675 -473Q670 -483 660 -488Q650 -493 640 -493Q615 -490 609 -467L537 -227L428 -610Q424 -621 414 -629Q404 -637 392 -636Q380 -635 371 -628Q362 -621 358 -609L294 -350H58Q0 -437 0 -517Q0 -640 71 -709Q142 -778 267 -779Q301 -779 337 -767Q373 -755 404 -734Q435 -713 458 -696Q481 -679 500 -658Q520 -678 542 -696Q564 -714 596 -734Q628 -754 663 -767Q698 -780 733 -779Q858 -779 929 -709Q1000 -639 1000 -517Z"/>
</svg>