<?xml version="1.0" encoding="UTF-8" standalone="no"?>
<svg
   xmlns:dc="http://purl.org/dc/elements/1.1/"
   xmlns:cc="http://creativecommons.org/ns#"
   xmlns:rdf="http://www.w3.org/1999/02/22-rdf-syntax-ns#"
   xmlns:svg="http://www.w3.org/2000/svg"
   xmlns="http://www.w3.org/2000/svg"
   xmlns:sodipodi="http://sodipodi.sourceforge.net/DTD/sodipodi-0.dtd"
   xmlns:inkscape="http://www.inkscape.org/namespaces/inkscape"
   viewBox="0 -1000 1000 1000"
   version="1.1"
   id="svg7551"
   sodipodi:docname="help-circled.svg"
   inkscape:version="0.92.5 (2060ec1f9f, 2020-04-08)">
  <metadata
     id="metadata7557">
    <rdf:RDF>
      <cc:Work
         rdf:about="">
        <dc:format>image/svg+xml</dc:format>
        <dc:type
           rdf:resource="http://purl.org/dc/dcmitype/StillImage" />
        <dc:title></dc:title>
      </cc:Work>
    </rdf:RDF>
  </metadata>
  <defs
     id="defs7555" />
  <sodipodi:namedview
     pagecolor="#ffffff"
     bordercolor="#666666"
     borderopacity="1"
     objecttolerance="10"
     gridtolerance="10"
     guidetolerance="10"
     inkscape:pageopacity="0"
     inkscape:pageshadow="2"
     inkscape:window-width="1542"
     inkscape:window-height="754"
     id="namedview7553"
     showgrid="false"
     inkscape:zoom="0.4325"
     inkscape:cx="159.5827"
     inkscape:cy="494.12431"
     inkscape:window-x="2298"
     inkscape:window-y="289"
     inkscape:window-maximized="0"
     inkscape:current-layer="svg7551" />
  <path
     d="m 581.49817,-193.708 v -122.28823 q 0,-9.14305 -5.71439,-14.85745 -5.71441,-5.71441 -14.85746,-5.71441 H 438.63809 q -9.14304,0 -14.85745,5.71441 -5.7144,5.7144 -5.7144,14.85745 V -193.708 q 0,9.14304 5.7144,14.85744 5.71441,5.71441 14.85745,5.71441 h 122.28823 q 9.14305,0 14.85746,-5.71441 5.71439,-5.7144 5.71439,-14.85744 z m 163.43194,-428.58025 q 0,-56.00115 -35.4293,-104.00214 -35.4293,-48.00098 -88.00181,-74.28724 -52.57252,-26.28625 -108.57367,-26.28625 -155.43176,0 -236.57628,136.00279 -10.28593,14.85745 4.57151,27.42914 l 84.57318,62.85843 q 4.57151,4.57153 11.4288,4.57153 10.28593,0 16.00033,-8.00017 34.28642,-43.42946 55.42971,-58.85835 21.14329,-15.42889 53.14395,-15.42889 32.00066,0 56.00115,17.14322 24.00049,17.1432 24.00049,37.71505 0,24.0005 -12.57169,38.85795 -12.57168,14.85744 -43.42946,28.57201 -40.00082,17.14321 -74.28724,54.85827 -34.28642,37.71506 -33.14354,80.00165 v 22.85761 q 0,9.14304 5.7144,14.85745 5.71441,5.7144 14.85745,5.7144 h 122.28823 q 9.14305,0 14.85746,-5.7144 5.71439,-5.71441 5.71439,-16.00033 0,-10.28593 13.71457,-29.71489 13.71457,-19.42898 34.28642,-32.00066 l 32.00066,-18.2861 q 11.42881,-6.85728 28.57201,-21.71473 17.14322,-14.85744 28.57202,-30.85778 11.42881,-16.00033 18.28609,-38.85794 6.85729,-22.85761 8.00017,-51.42963 z m 244.57648,122.28823 q 0,133.71704 -65.14425,245.71934 -65.14417,112.00231 -178.28936,178.28938 -113.14517,66.28708 -245.71933,66.28708 -132.57416,0 -246.86222,-66.28708 Q 139.20337,-142.27837 76.344922,-254.28068 13.486492,-366.28298 10.05785,-500.00002 6.6292078,-633.71705 76.344922,-745.71936 146.06065,-857.72166 253.49143,-924.0087 q 107.43078,-66.28708 246.86222,-66.28708 139.43144,0 245.71933,66.28708 106.28791,66.28704 178.28936,178.28934 72.0015,112.00231 65.14425,245.71934 z"
     id="path7549"
     inkscape:connector-curvature="0"
     style="fill:#000000;stroke-width:1.14288056" />
</svg>
