<svg xmlns="http://www.w3.org/2000/svg" viewBox="0 -1000 1000 1000">
	<path fill="#000000" d="M500 -82V-189Q500 -197 495 -202Q490 -207 482 -207H375Q367 -207 362 -202Q357 -197 357 -189V-82Q357 -74 362 -69Q367 -64 375 -64H482Q490 -64 495 -69Q500 -74 500 -82ZM643 -457Q643 -506 612 -548Q581 -590 535 -613Q489 -636 440 -636Q304 -636 233 -517Q224 -504 237 -493L311 -438Q315 -434 321 -434Q330 -434 335 -441Q365 -479 383.5 -492.5Q402 -506 430 -506Q458 -506 479 -491Q500 -476 500 -458Q500 -437 489 -424Q478 -411 451 -399Q416 -384 386 -351Q356 -318 357 -281V-261Q357 -253 362 -248Q367 -243 375 -243H482Q490 -243 495 -248Q500 -253 500 -262Q500 -271 512 -288Q524 -305 542 -316L570 -332Q580 -338 595 -351Q610 -364 620 -378Q630 -392 636 -412Q642 -432 643 -457ZM857 -350Q857 -233 800 -135Q743 -37 644 21Q545 79 429 79Q313 79 213 21Q113 -37 58 -135Q3 -233 0 -350Q-3 -467 58 -565Q119 -663 213 -721Q307 -779 429 -779Q551 -779 644 -721Q737 -663 800 -565Q863 -467 857 -350Z"/>
</svg>