<?xml version="1.0" encoding="UTF-8" standalone="no"?>
<svg
   xmlns:dc="http://purl.org/dc/elements/1.1/"
   xmlns:cc="http://creativecommons.org/ns#"
   xmlns:rdf="http://www.w3.org/1999/02/22-rdf-syntax-ns#"
   xmlns:svg="http://www.w3.org/2000/svg"
   xmlns="http://www.w3.org/2000/svg"
   xmlns:sodipodi="http://sodipodi.sourceforge.net/DTD/sodipodi-0.dtd"
   xmlns:inkscape="http://www.inkscape.org/namespaces/inkscape"
   viewBox="0 -1000 1000 1000"
   version="1.1"
   id="svg7603"
   sodipodi:docname="hexagon.svg"
   inkscape:version="0.92.5 (2060ec1f9f, 2020-04-08)">
  <metadata
     id="metadata7609">
    <rdf:RDF>
      <cc:Work
         rdf:about="">
        <dc:format>image/svg+xml</dc:format>
        <dc:type
           rdf:resource="http://purl.org/dc/dcmitype/StillImage" />
        <dc:title></dc:title>
      </cc:Work>
    </rdf:RDF>
  </metadata>
  <defs
     id="defs7607" />
  <sodipodi:namedview
     pagecolor="#ffffff"
     bordercolor="#666666"
     borderopacity="1"
     objecttolerance="10"
     gridtolerance="10"
     guidetolerance="10"
     inkscape:pageopacity="0"
     inkscape:pageshadow="2"
     inkscape:window-width="1542"
     inkscape:window-height="754"
     id="namedview7605"
     showgrid="false"
     inkscape:zoom="0.4325"
     inkscape:cx="360.71399"
     inkscape:cy="388.47959"
     inkscape:window-x="2298"
     inkscape:window-y="289"
     inkscape:window-maximized="0"
     inkscape:current-layer="svg7603" />
  <path
     d="m 84.013114,-103.66798 q -1.952375,-0.97619 -4.880937,-4.88094 l -0.976187,-0.97619 q -3.904749,-4.88093 -40.023676,-68.3331 L 9.8228843,-226.66757 q -7.809498,-12.69044 -9.27377902,-18.54756 -1.464281,-5.85713 0.97618802,-12.69044 2.440468,-6.83331 12.2023397,-22.4523 l 39.047489,-68.33311 q 26.357055,-43.92842 29.773711,-46.85699 3.416655,-2.92856 14.642808,-3.41665 11.226149,-0.48809 69.797389,-0.48809 80.04735,0 82.97591,0.97618 l 0.97619,0.97619 q 3.90475,0.97619 6.83331,4.88094 2.92856,3.90474 11.71425,18.54755 l 40.02367,69.3093 q 19.52375,33.19036 23.91659,41.97605 4.39284,8.78568 4.39284,12.69043 0,3.90475 -6.83331,16.59518 -6.83331,12.69044 -33.19036,57.59505 -24.40468,41.97605 -32.21418,54.66649 -8.78569,15.61899 -11.71425,17.08327 -2.92856,1.46428 -14.64281,1.95238 -11.71424,0.48809 -70.28548,0.48809 h -68.3331 q -14.642812,-0.97619 -16.595186,-1.95237 z m 575.950466,-0.97619 q -2.92856,-0.97619 -10.73806,-12.69043 l -54.66648,-96.64254 q -12.69044,-20.49993 -15.619,-27.33324 -2.92856,-8.78569 -0.97619,-16.59519 0.97619,-4.88093 10.73806,-20.49993 l 31.23799,-53.6903 q 21.47612,-38.0713 29.28562,-50.76173 6.83331,-10.73806 10.24997,-13.17853 3.41665,-2.44047 14.15471,-2.92856 10.73806,-0.48809 68.33311,-0.48809 79.07116,0 83.9521,0.97618 4.88094,0.97619 8.78568,5.36903 3.90475,4.39284 11.71425,19.03565 l 22.45231,40.02368 29.28561,50.76174 q 9.76188,16.59518 12.69044,22.9404 2.92856,6.34521 2.92856,10.73806 0,4.39284 -2.92856,10.24996 -2.92856,5.85712 -20.49993,36.11893 l -50.76174,87.85685 q -5.85712,9.76187 -9.27378,11.22615 -3.41665,1.46428 -19.03565,2.44047 h -66.38073 q -56.61886,0 -69.30929,-0.48809 -12.69044,-0.4881 -15.619,-2.44047 z M 371.01216,-271.57219 q -3.90475,-1.95237 -12.69043,-17.57137 l -50.76174,-87.85685 q -14.64281,-26.35705 -19.52374,-36.11893 -0.97619,-4.88093 2.44046,-12.69043 3.41666,-7.8095 16.10709,-28.30943 l 36.11893,-62.47598 q 9.76187,-16.59519 18.54756,-31.23799 7.8095,-12.69044 10.24996,-14.64281 2.44047,-1.95238 13.66662,-2.44047 11.22616,-0.48809 69.3093,-0.97619 58.08314,-0.48809 70.28548,0 12.20234,0.4881 16.59518,2.44047 4.39284,1.95237 11.71425,14.15472 7.3214,12.20234 48.32127,83.464 16.59518,29.28562 20.49993,37.58321 3.90475,8.29759 3.90475,13.17853 -1.95238,8.78568 -26.35706,49.78555 l -38.0713,66.38073 q -9.76187,18.54756 -18.54756,27.33324 l -4.88093,3.90475 H 376.86928 Z M 82.060739,-439.47639 q -6.83331,-5.85712 -42.952238,-70.28548 -37.0951147,-63.45217 -39.04748872,-72.23786 v -0.97618 q 0,-3.90475 1.95237402,-8.78569 3.904749,-7.8095 18.5475577,-33.19037 l 52.71411,-91.76159 q 4.880936,-7.8095 9.273779,-10.73806 4.392842,-2.92857 18.059467,-3.90475 9.76187,0 45.8808,-0.97619 h 20.49993 q 80.04735,0 83.9521,1.46428 3.90475,1.46428 8.29759,6.83331 4.39284,5.36903 13.17853,21.96421 l 30.2618,51.73793 32.21418,57.59504 q 2.92856,4.88094 2.92856,8.78569 v 0.97619 q 0,4.88093 -5.36903,15.1309 -5.36903,10.24996 -28.79752,51.24983 l -22.45231,38.0713 q -15.61899,26.35705 -16.59518,29.28562 l -1.95237,2.92856 q -3.90475,6.83331 -8.29759,8.78568 -4.39285,1.95238 -20.01184,2.92857 -10.73806,0 -50.76174,0 l -96.642535,0.97618 z m 577.902841,2.92856 q -5.85712,-4.88094 -15.619,-22.45231 -7.80949,-12.69043 -33.19036,-56.61886 l -4.88094,-8.78568 q -22.4523,-39.04749 -26.35705,-46.36889 -3.90475,-7.32141 -2.92856,-13.17853 v -0.97619 q 0,-3.90475 5.85712,-15.61899 l 30.2618,-53.6903 q 29.28562,-51.73793 40.02368,-67.35692 4.88094,-7.8095 12.20234,-9.27378 7.3214,-1.46428 34.65465,-1.46428 l 32.21418,0.97619 q 0,1.95237 -5.85713,11.71424 l -5.85712,10.73806 h -47.83318 l -25.38086,43.92843 q -19.52375,34.16655 -36.11893,62.47598 l -10.73806,19.52375 72.23785,124.95196 h 145.4519 l 22.45231,-40.02367 h 27.33324 l -16.59518,29.28561 q -15.619,27.33324 -20.49993,32.21418 -3.90475,0.97619 -15.619,1.95238 H 676.55876 q -12.69043,-0.97619 -16.59518,-1.95238 z m 129.8329,-75.16642 q -5.85712,-3.90475 -8.78568,-9.76187 l -14.64281,-23.42849 q -6.83331,-13.66662 -32.21418,-56.61886 -24.40468,-40.99987 -25.38087,-45.8808 l -0.97619,-1.95238 q -2.92856,-5.85712 -1.46428,-11.22615 1.46428,-5.36903 12.20234,-25.86896 l 48.80937,-83.9521 q 5.85712,-10.73806 12.69043,-21.47612 5.85712,-8.78569 8.78568,-11.22615 2.92857,-2.44047 14.15472,-2.92857 11.22615,-0.48809 69.79739,-0.48809 h 67.35692 q 13.66662,0.97619 18.05946,2.44047 4.39284,1.46428 6.83331,4.88093 2.44047,3.41666 9.27378,15.13091 7.8095,15.61899 37.09503,64.42835 21.4763,37.09512 26.3572,46.85699 4.881,9.76187 4.881,14.64281 0,4.88094 -2.4405,10.73806 -2.4405,5.85712 -14.1549,26.35705 -9.7618,16.59519 -30.26171,50.76174 l -26.35706,47.83317 q -4.88093,7.8095 -9.76187,10.24997 -4.88094,2.44047 -20.49993,3.41666 -10.73806,0 -51.73792,0 h -13.66663 q -57.59504,0 -68.8212,-0.4881 -11.22615,-0.48809 -15.1309,-2.44047 z m -417.80813,-91.7616 q -6.83331,-4.88093 -10.73806,-13.66662 l -63.45217,-109.33297 q -5.85713,-9.76187 -7.8095,-14.15471 -1.95237,-4.39284 -1.95237,-8.29759 v -0.97619 q 0,-4.88094 5.85712,-15.619 5.85712,-10.73806 40.99986,-72.23785 l 16.59519,-28.30943 q 9.76187,-16.59518 13.66662,-22.45231 3.90475,-5.85712 7.80949,-7.3214 3.90475,-1.46428 15.619,-1.95238 11.71425,-0.48809 70.28548,-0.48809 54.66649,0 70.28548,0.97619 10.73806,0.97618 13.66662,2.92856 2.92856,1.95237 14.64281,21.47612 l 51.73792,89.80922 q 11.71425,18.54756 13.66663,24.40468 3.90474,8.78569 2.44046,14.15472 -1.46428,5.36903 -8.29759,18.05946 l -2.92856,3.90475 q -9.76187,18.54756 -39.04749,67.35692 -26.35705,46.85699 -33.19036,51.73792 l -4.88094,2.92857 h -80.04735 q -57.59505,0 -69.3093,-0.4881 -11.71424,-0.48809 -15.61899,-2.44047 z m 164.97564,-34.16655 q 0.97619,-1.95237 5.85712,-9.76187 14.64281,-25.38087 22.45231,-39.04749 l 36.11893,-62.47598 -3.90475,-6.83331 q -6.83331,-13.66663 -24.40468,-42.95224 -20.49994,-37.09512 -32.21418,-55.64267 L 529.15449,-874.8559 H 384.67878 l -9.76187,17.57137 q -12.69044,19.52375 -36.11893,62.47599 l -26.35705,45.8808 46.85698,81.99972 q 5.85713,8.78569 17.57137,29.28562 l 7.8095,13.66662 h 144.47571 z"
     id="path7601"
     inkscape:connector-curvature="0"
     style="fill:#000000;stroke-width:0.97618723" />
</svg>
