<svg xmlns="http://www.w3.org/2000/svg" viewBox="0 -1000 1000 1000">
	<path fill="#000000" d="M86 56Q84 55 81 51L80 50Q76 45 39 -20L10 -70Q2 -83 0.5 -89Q-1 -95 1.5 -102Q4 -109 14 -125L54 -195Q81 -240 84.5 -243Q88 -246 99.5 -246.5Q111 -247 171 -247Q253 -247 256 -246L257 -245Q261 -244 264 -240Q267 -236 276 -221L317 -150Q337 -116 341.5 -107Q346 -98 346 -94Q346 -90 339 -77Q332 -64 305 -18Q280 25 272 38Q263 54 260 55.5Q257 57 245 57.5Q233 58 173 58H103Q88 57 86 56ZM676 55Q673 54 665 42L609 -57Q596 -78 593 -85Q590 -94 592 -102Q593 -107 603 -123L635 -178Q657 -217 665 -230Q672 -241 675.5 -243.5Q679 -246 690 -246.5Q701 -247 760 -247Q841 -247 846 -246Q851 -245 855 -240.5Q859 -236 867 -221L890 -180L920 -128Q930 -111 933 -104.5Q936 -98 936 -93.5Q936 -89 933 -83Q930 -77 912 -46L860 44Q854 54 850.5 55.5Q847 57 831 58H763Q705 58 692 57.5Q679 57 676 55ZM380 -116Q376 -118 367 -134L315 -224Q300 -251 295 -261Q294 -266 297.5 -274Q301 -282 314 -303L351 -367Q361 -384 370 -399Q378 -412 380.5 -414Q383 -416 394.5 -416.5Q406 -417 465.5 -417.5Q525 -418 537.5 -417.5Q550 -417 554.5 -415Q559 -413 566.5 -400.5Q574 -388 616 -315Q633 -285 637 -276.5Q641 -268 641 -263Q639 -254 614 -212L575 -144Q565 -125 556 -116L551 -112H386ZM84 -288Q77 -294 40 -360Q2 -425 0 -434V-435Q0 -439 2 -444Q6 -452 21 -478L75 -572Q80 -580 84.5 -583Q89 -586 103 -587Q113 -587 150 -588H171Q253 -588 257 -586.5Q261 -585 265.5 -579.5Q270 -574 279 -557L310 -504L343 -445Q346 -440 346 -436V-435Q346 -430 340.5 -419.5Q335 -409 311 -367L288 -328Q272 -301 271 -298L269 -295Q265 -288 260.5 -286Q256 -284 240 -283Q229 -283 188 -283L89 -282ZM676 -285Q670 -290 660 -308Q652 -321 626 -366L621 -375Q598 -415 594 -422.5Q590 -430 591 -436V-437Q591 -441 597 -453L628 -508Q658 -561 669 -577Q674 -585 681.5 -586.5Q689 -588 717 -588L750 -587Q750 -585 744 -575L738 -564H689L663 -519Q643 -484 626 -455L615 -435L689 -307H838L861 -348H889L872 -318Q856 -290 851 -285Q847 -284 835 -283H693Q680 -284 676 -285ZM809 -362Q803 -366 800 -372L785 -396Q778 -410 752 -454Q727 -496 726 -501L725 -503Q722 -509 723.5 -514.5Q725 -520 736 -541L786 -627Q792 -638 799 -649Q805 -658 808 -660.5Q811 -663 822.5 -663.5Q834 -664 894 -664H963Q977 -663 981.5 -661.5Q986 -660 988.5 -656.5Q991 -653 998 -641Q1006 -625 1036 -575Q1058 -537 1063 -527Q1068 -517 1068 -512Q1068 -507 1065.5 -501Q1063 -495 1051 -474Q1041 -457 1020 -422L993 -373Q988 -365 983 -362.5Q978 -360 962 -359Q951 -359 909 -359H895Q836 -359 824.5 -359.5Q813 -360 809 -362ZM381 -456Q374 -461 370 -470L305 -582Q299 -592 297 -596.5Q295 -601 295 -605V-606Q295 -611 301 -622Q307 -633 343 -696L360 -725Q370 -742 374 -748Q378 -754 382 -755.5Q386 -757 398 -757.5Q410 -758 470 -758Q526 -758 542 -757Q553 -756 556 -754Q559 -752 571 -732L624 -640Q636 -621 638 -615Q642 -606 640.5 -600.5Q639 -595 632 -582L629 -578Q619 -559 589 -509Q562 -461 555 -456L550 -453H468Q409 -453 397 -453.5Q385 -454 381 -456ZM550 -491Q551 -493 556 -501Q571 -527 579 -541L616 -605L612 -612Q605 -626 587 -656Q566 -694 554 -713L542 -734H394L384 -716Q371 -696 347 -652L320 -605L368 -521Q374 -512 386 -491L394 -477H542Z"/>
</svg>