<?xml version="1.0" encoding="iso-8859-1"?>
<!-- Uploaded to: SVG Repo, www.svgrepo.com, Generator: SVG Repo Mixer Tools -->
<svg fill="#000000" height="800px" width="800px" version="1.1" id="Layer_1" xmlns="http://www.w3.org/2000/svg" xmlns:xlink="http://www.w3.org/1999/xlink" 
	 viewBox="0 0 475.928 475.928" xml:space="preserve">
<g transform="translate(-1)">
	<g>
		<g>
			<path d="M423.291,88.491v-27.59c0-41.545-40.691-70.877-80.091-57.724L28.862,87.508c-0.115,0.031-0.218,0.073-0.331,0.105
				c-0.338,0.097-0.67,0.204-1,0.317c-9.496,3.144-13.892,11.216-13.837,19.292c0,0.022-0.003,0.044-0.003,0.066v348.16
				c0,11.311,9.169,20.48,20.48,20.48h375.644c30.07,0,54.436-24.365,54.436-54.436V141.244
				C464.251,115.825,446.84,94.486,423.291,88.491z M354.995,42.383c14.044-4.65,27.336,4.932,27.336,18.518v25.907H189.479
				L354.995,42.383z M423.291,421.492c0,7.449-6.027,13.476-13.476,13.476H54.651v-307.2h348.16h7.004
				c7.449,0,13.476,6.027,13.476,13.476V421.492z"/>
			<path d="M339.302,239.7l-56.644-8.24l-25.321-51.315c-7.512-15.223-29.22-15.223-36.731,0l-25.321,51.315l-56.644,8.24
				c-16.794,2.443-23.5,23.08-11.35,34.929l40.975,39.958l-9.67,56.402c-2.868,16.729,14.691,29.487,29.715,21.589l50.661-26.632
				l50.661,26.632c15.024,7.898,32.583-4.859,29.715-21.589l-9.67-56.402l40.975-39.958
				C362.802,262.78,356.096,242.143,339.302,239.7z M273.374,292.777c-4.824,4.705-7.026,11.482-5.887,18.123l4.478,26.115
				l-23.464-12.335c-5.966-3.136-13.093-3.136-19.059,0l-23.464,12.335l4.478-26.115c1.139-6.642-1.063-13.419-5.887-18.123
				l-18.986-18.514l26.252-3.819c6.67-0.97,12.435-5.16,15.418-11.204l11.719-23.75l11.719,23.75
				c2.982,6.044,8.748,10.234,15.418,11.204l26.252,3.819L273.374,292.777z"/>
		</g>
	</g>
</g>
</svg>