<?xml version="1.0" encoding="UTF-8" standalone="no"?>
<svg
   xmlns:dc="http://purl.org/dc/elements/1.1/"
   xmlns:cc="http://creativecommons.org/ns#"
   xmlns:rdf="http://www.w3.org/1999/02/22-rdf-syntax-ns#"
   xmlns:svg="http://www.w3.org/2000/svg"
   xmlns="http://www.w3.org/2000/svg"
   xmlns:sodipodi="http://sodipodi.sourceforge.net/DTD/sodipodi-0.dtd"
   xmlns:inkscape="http://www.inkscape.org/namespaces/inkscape"
   viewBox="0 -1000 1000 1000"
   version="1.1"
   id="svg1922"
   sodipodi:docname="image-upload.svg"
   inkscape:version="0.92.5 (2060ec1f9f, 2020-04-08)">
  <metadata
     id="metadata1928">
    <rdf:RDF>
      <cc:Work
         rdf:about="">
        <dc:format>image/svg+xml</dc:format>
        <dc:type
           rdf:resource="http://purl.org/dc/dcmitype/StillImage" />
        <dc:title></dc:title>
      </cc:Work>
    </rdf:RDF>
  </metadata>
  <defs
     id="defs1926" />
  <sodipodi:namedview
     pagecolor="#ffffff"
     bordercolor="#666666"
     borderopacity="1"
     objecttolerance="10"
     gridtolerance="10"
     guidetolerance="10"
     inkscape:pageopacity="0"
     inkscape:pageshadow="2"
     inkscape:window-width="1848"
     inkscape:window-height="1016"
     id="namedview1924"
     showgrid="false"
     inkscape:zoom="0.838"
     inkscape:cx="673.03103"
     inkscape:cy="541.76611"
     inkscape:window-x="72"
     inkscape:window-y="27"
     inkscape:window-maximized="1"
     inkscape:current-layer="svg1922" />
  <path
     d="M 52.851359,-814.42453 H 543.04194 q -12.67734,28.73531 -20.28375,59.16093 H 62.148077 v 617.80917 H 935.19442 v -222.27608 q 30.42562,-8.45156 59.16093,-22.81922 v 255.23717 q 0,21.1289 -14.36765,35.496564 l -2.53547,2.53547 q -14.36766,12.67734 -32.96109,11.83218 H 52.006203 q -21.128904,0 -35.496559,-14.79023 Q 2.141989,-107.02881 2.141989,-127.31256 v -637.24776 q 0,-20.28375 14.790233,-35.07398 14.790233,-14.79023 35.073981,-14.79023 z M 844.76271,-922.60448 q 66.76734,0 123.3928,33.8062 55.78029,32.11594 87.89619,87.89625 33.8063,56.62546 33.8063,123.3928 0,66.76734 -33.8063,123.3928 -32.1159,55.78031 -87.89619,87.89624 -56.62546,33.80625 -123.3928,33.80625 -66.76735,0 -123.39282,-33.80625 -55.7803,-32.11593 -87.89624,-87.89624 -33.80625,-56.62546 -33.80625,-123.3928 0,-66.76734 33.80625,-123.3928 32.11594,-55.78031 87.89624,-87.89625 56.62547,-33.8062 123.39282,-33.8062 z m -35.49658,362.57196 h 70.99314 q 10.98703,0 18.59344,-7.18383 7.6064,-7.18383 7.6064,-18.17086 v -81.13499 h 44.79328 q 11.83218,0.84515 18.17086,-8.87414 6.33867,-9.7193 1.26773,-20.70633 -3.38062,-6.76125 -13.5225,-17.74828 -12.67734,-13.5225 -53.24484,-51.55452 -36.34171,-34.65141 -43.10296,-42.25781 -6.76125,-7.60641 -16.48055,-7.60641 -9.71931,0 -16.05798,7.60641 -6.33867,7.6064 -42.68039,41.41265 -43.10296,40.5675 -55.78031,54.93515 -9.29671,10.14187 -11.83218,16.90312 -4.22578,10.14188 2.11289,19.01602 6.33867,8.87414 17.3257,8.87414 h 45.63843 v 81.13499 q 0,10.98703 7.60641,18.17086 7.6064,7.18383 18.59343,7.18383 z m -550.19666,-81.135 q 21.97406,0 40.14491,12.25477 18.17086,12.25476 26.19985,32.53851 8.02898,20.28375 3.8032,41.41265 -4.22578,21.12891 -19.86117,36.7643 -15.63539,15.63539 -36.7643,19.43859 -21.1289,3.8032 -41.41265,-4.64836 -20.28375,-8.45156 -32.11593,-26.62242 -11.83219,-18.17086 -11.83219,-40.14492 0,-29.58046 21.12891,-50.28679 21.1289,-20.70633 50.70937,-20.70633 z m 300.87559,306.79169 59.16094,-101.41874 q 36.34171,33.80625 80.28983,55.35773 43.94812,21.55148 92.96718,29.15789 l 62.54157,161.42483 h -709.9312 v -54.93515 l 60.00609,-2.53547 59.16093,-146.21202 30.42563,103.95421 h 89.58655 l 76.90921,-199.45686 z"
     id="path1920"
     inkscape:connector-curvature="0"
     style="fill:#000000;stroke-width:0.84515619" />
</svg>
