<svg xmlns="http://www.w3.org/2000/svg" viewBox="0 -1000 1000 1000">
	<path fill="#000000" d="M60 -722H640Q625 -688 616 -652H71V79H1104V-184Q1140 -194 1174 -211V91Q1174 116 1157 133L1154 136Q1137 151 1115 150H59Q34 150 17 132.5Q0 115 0 91V-663Q0 -687 17.5 -704.5Q35 -722 59 -722ZM997 -850Q1076 -850 1143 -810Q1209 -772 1247 -706Q1287 -639 1287 -560Q1287 -481 1247 -414Q1209 -348 1143 -310Q1076 -270 997 -270Q918 -270 851 -310Q785 -348 747 -414Q707 -481 707 -560Q707 -639 747 -706Q785 -772 851 -810Q918 -850 997 -850ZM955 -421H1039Q1052 -421 1061 -429.5Q1070 -438 1070 -451V-547H1123Q1137 -546 1144.5 -557.5Q1152 -569 1146 -582Q1142 -590 1130 -603Q1115 -619 1067 -664Q1024 -705 1016 -714Q1008 -723 996.5 -723Q985 -723 977.5 -714Q970 -705 927 -665Q876 -617 861 -600Q850 -588 847 -580Q842 -568 849.5 -557.5Q857 -547 870 -547H924V-451Q924 -438 933 -429.5Q942 -421 955 -421ZM304 -517Q330 -517 351.5 -502.5Q373 -488 382.5 -464Q392 -440 387 -415Q382 -390 363.5 -371.5Q345 -353 320 -348.5Q295 -344 271 -354Q247 -364 233 -385.5Q219 -407 219 -433Q219 -468 244 -492.5Q269 -517 304 -517ZM660 -154L730 -274Q773 -234 825 -208.5Q877 -183 935 -174L1009 17H169V-48L240 -51L310 -224L346 -101H452L543 -337Z"/>
</svg>