<?xml version="1.0" encoding="UTF-8" standalone="no"?>
<svg
   xmlns:dc="http://purl.org/dc/elements/1.1/"
   xmlns:cc="http://creativecommons.org/ns#"
   xmlns:rdf="http://www.w3.org/1999/02/22-rdf-syntax-ns#"
   xmlns:svg="http://www.w3.org/2000/svg"
   xmlns="http://www.w3.org/2000/svg"
   xmlns:sodipodi="http://sodipodi.sourceforge.net/DTD/sodipodi-0.dtd"
   xmlns:inkscape="http://www.inkscape.org/namespaces/inkscape"
   viewBox="0 -1000 1000 1000"
   version="1.1"
   id="svg7872"
   sodipodi:docname="info-circled.svg"
   inkscape:version="0.92.5 (2060ec1f9f, 2020-04-08)">
  <metadata
     id="metadata7878">
    <rdf:RDF>
      <cc:Work
         rdf:about="">
        <dc:format>image/svg+xml</dc:format>
        <dc:type
           rdf:resource="http://purl.org/dc/dcmitype/StillImage" />
        <dc:title></dc:title>
      </cc:Work>
    </rdf:RDF>
  </metadata>
  <defs
     id="defs7876" />
  <sodipodi:namedview
     pagecolor="#ffffff"
     bordercolor="#666666"
     borderopacity="1"
     objecttolerance="10"
     gridtolerance="10"
     guidetolerance="10"
     inkscape:pageopacity="0"
     inkscape:pageshadow="2"
     inkscape:window-width="1542"
     inkscape:window-height="754"
     id="namedview7874"
     showgrid="false"
     inkscape:zoom="0.30582368"
     inkscape:cx="346.35663"
     inkscape:cy="432.55136"
     inkscape:window-x="2298"
     inkscape:window-y="289"
     inkscape:window-maximized="0"
     inkscape:current-layer="svg7872" />
  <path
     d="M 663.4626,-192.16397 V -294.3931 q 0,-9.18913 -5.74321,-14.93234 -5.74322,-5.74321 -13.78371,-5.74321 h -62.02667 v -328.51158 q 0,-9.18915 -5.7432,-14.93236 -5.74321,-5.7432 -14.93235,-5.7432 H 356.77521 q -9.18915,0 -14.93236,5.7432 -5.7432,5.74321 -5.7432,14.93236 v 102.22912 q 0,9.18913 5.7432,14.93234 5.74321,5.74322 14.93236,5.74322 h 60.87802 v 205.6069 h -60.87802 q -9.18915,0 -14.93236,5.74321 -5.7432,5.74321 -5.7432,14.93234 v 102.22913 q 0,9.18914 5.7432,14.93235 5.74321,5.74321 14.93236,5.74321 h 287.16047 q 8.04049,0 13.78371,-5.74321 5.74321,-5.74321 5.74321,-14.93235 z m -81.55359,-574.32095 v -102.22913 q 0,-9.18913 -5.7432,-14.93234 -5.74321,-5.74321 -14.93235,-5.74321 H 438.32878 q -9.18913,0 -14.93234,5.74321 -5.74321,5.74321 -5.74321,14.93234 v 102.22913 q 0,9.18914 5.74321,14.93235 5.74321,5.7432 14.93234,5.7432 h 122.90468 q 9.18914,0 14.93235,-5.7432 5.7432,-5.74321 5.7432,-14.93235 z M 991.97418,-500 q 0,134.3911 -65.47259,246.95801 Q 861.029,-140.47508 747.31345,-73.853851 633.5979,-7.23262 500.35544,-7.23262 q -133.24246,0 -248.10665,-66.621231 Q 137.3846,-140.47508 74.20929,-253.04199 11.033985,-365.6089 7.5880597,-500 4.1421339,-634.3911 74.20929,-746.95801 q 70.06716,-112.56691 178.0395,-179.18814 107.97234,-66.62123 248.10665,-66.62123 140.13431,0 246.95801,66.62123 106.8237,66.62123 179.18814,179.18814 Q 998.86603,-634.3911 991.97418,-500 Z"
     id="path7870"
     inkscape:connector-curvature="0"
     style="fill:#000000;stroke-width:1.14864194" />
</svg>
