<svg xmlns="http://www.w3.org/2000/svg" viewBox="0 -1000 1000 1000">
	<path fill="#000000" d="M571 -82V-171Q571 -179 566 -184Q561 -189 554 -189H500V-475Q500 -483 495 -488Q490 -493 482 -493H304Q296 -493 291 -488Q286 -483 286 -475V-386Q286 -378 291 -373Q296 -368 304 -368H357V-189H304Q296 -189 291 -184Q286 -179 286 -171V-82Q286 -74 291 -69Q296 -64 304 -64H554Q561 -64 566 -69Q571 -74 571 -82ZM500 -582V-671Q500 -679 495 -684Q490 -689 482 -689H375Q367 -689 362 -684Q357 -679 357 -671V-582Q357 -574 362 -569Q367 -564 375 -564H482Q490 -564 495 -569Q500 -574 500 -582ZM857 -350Q857 -233 800 -135Q743 -37 644 21Q545 79 429 79Q313 79 213 21Q113 -37 58 -135Q3 -233 0 -350Q-3 -467 58 -565Q119 -663 213 -721Q307 -779 429 -779Q551 -779 644 -721Q737 -663 800 -565Q863 -467 857 -350Z"/>
</svg>