<svg xmlns="http://www.w3.org/2000/svg" viewBox="0 -1000 1000 1000">
	<path fill="#000000" d="M813 -171Q813 -194 797 -209L681 -325Q665 -341 642 -341Q619 -341 603 -323L625 -301Q628 -298 634 -290Q640 -282 641 -276L643 -261Q643 -238 627 -223Q611 -208 589 -207Q581 -207 574 -209Q567 -211 560 -216Q553 -221 549 -225L527 -247Q508 -230 508 -207Q508 -184 524 -169L639 -53Q654 -38 676.5 -38Q699 -38 715 -53L797 -134Q813 -150 813 -171ZM420 -565Q420 -587 405 -603L290 -718Q274 -734 252 -734Q230 -734 214 -719L132 -637Q116 -622 116 -600Q116 -578 132 -562L248 -446Q263 -431 286 -431Q309 -431 326 -448L303 -471Q300 -474 295 -481Q290 -488 288 -495Q286 -502 286 -511Q286 -533 301 -549Q316 -565 339 -564Q348 -564 355 -562Q362 -560 369 -555L380 -547Q384 -544 392 -535L402 -524Q420 -541 420 -565ZM920 -171Q920 -105 872 -58L790 23Q744 70 676.5 70Q609 70 563 22L448 -93Q402 -140 402 -207.5Q402 -275 451 -323L402 -372Q354 -323 286.5 -323Q219 -323 172 -370L56 -486Q9 -533 9 -600Q9 -667 56 -713L138 -795Q185 -841 252 -841Q319 -841 366 -794L481 -678Q527 -632 527 -564Q527 -496 478 -448L527 -399Q575 -448 642.5 -448Q710 -448 757 -401L873 -285Q920 -238 920 -171Z"/>
</svg>