<?xml version="1.0" encoding="UTF-8" standalone="no"?>
<svg
   xmlns:dc="http://purl.org/dc/elements/1.1/"
   xmlns:cc="http://creativecommons.org/ns#"
   xmlns:rdf="http://www.w3.org/1999/02/22-rdf-syntax-ns#"
   xmlns:svg="http://www.w3.org/2000/svg"
   xmlns="http://www.w3.org/2000/svg"
   xmlns:sodipodi="http://sodipodi.sourceforge.net/DTD/sodipodi-0.dtd"
   xmlns:inkscape="http://www.inkscape.org/namespaces/inkscape"
   viewBox="0 -1000 1000 1000"
   version="1.1"
   id="svg7924"
   sodipodi:docname="link.svg"
   inkscape:version="0.92.5 (2060ec1f9f, 2020-04-08)">
  <metadata
     id="metadata7930">
    <rdf:RDF>
      <cc:Work
         rdf:about="">
        <dc:format>image/svg+xml</dc:format>
        <dc:type
           rdf:resource="http://purl.org/dc/dcmitype/StillImage" />
        <dc:title></dc:title>
      </cc:Work>
    </rdf:RDF>
  </metadata>
  <defs
     id="defs7928" />
  <sodipodi:namedview
     pagecolor="#ffffff"
     bordercolor="#666666"
     borderopacity="1"
     objecttolerance="10"
     gridtolerance="10"
     guidetolerance="10"
     inkscape:pageopacity="0"
     inkscape:pageshadow="2"
     inkscape:window-width="1542"
     inkscape:window-height="754"
     id="namedview7926"
     showgrid="false"
     inkscape:zoom="0.4325"
     inkscape:cx="494.12431"
     inkscape:cy="478.54849"
     inkscape:window-x="2298"
     inkscape:window-y="289"
     inkscape:window-maximized="0"
     inkscape:current-layer="svg7924" />
  <path
     d="m 871.49704,-271.34544 q 0,-24.51774 -17.05582,-40.50756 L 730.78655,-435.50768 q -17.05582,-17.05582 -41.57356,-17.05582 -24.51774,0 -41.57356,19.18779 l 23.45175,23.45174 q 3.19797,3.19797 9.5939,11.72588 6.39593,8.52792 7.46192,14.92384 l 2.13198,15.98983 q 0,24.51773 -17.05582,40.50758 -17.05582,15.98982 -40.50757,17.05581 -8.52791,0 -15.98982,-2.13198 -7.46192,-2.13198 -14.92385,-7.46193 -7.46192,-5.32993 -11.72588,-9.59388 l -23.45174,-23.45176 q -20.25379,18.12181 -20.25379,42.63954 0,24.51774 17.05582,40.50757 l 122.58869,123.65468 q 15.98983,15.98983 39.97458,15.98983 23.98474,0 41.04055,-15.98983 l 87.41107,-86.34507 q 17.05582,-17.05582 17.05582,-39.44158 z m -418.93352,-419.9995 q 0,-23.45176 -15.98983,-40.50756 L 313.985,-854.4412 q -17.05582,-17.05581 -40.50756,-17.05581 -23.45175,0 -40.50757,15.98981 l -87.41106,87.41108 q -17.05582,15.98982 -17.05582,39.44158 0,23.45175 17.05582,40.50756 l 123.65468,123.65467 q 15.98982,15.98983 40.50756,15.98983 24.51773,0 42.63954,-18.1218 l -24.51774,-24.51774 q -3.19796,-3.19796 -8.5279,-10.65989 -5.32995,-7.46191 -7.46192,-14.92384 -2.13198,-7.46192 -2.13198,-17.05582 0,-23.45175 15.98983,-40.50757 15.98983,-17.05581 40.50757,-15.98983 9.59389,0 17.05582,2.13199 7.46192,2.13197 14.92383,7.46191 l 11.72588,8.52791 q 4.26396,3.19797 12.79186,12.79187 l 10.65989,11.72587 q 19.18779,-18.12181 19.18779,-43.70552 z m 532.99426,419.9995 q 0,70.35525 -51.16742,120.45671 l -87.41105,86.34507 q -49.03547,50.101464 -120.98971,50.101464 -71.95423,0 -120.98971,-51.167452 L 482.4112,-188.19833 q -49.03547,-50.10146 -49.03547,-122.05569 0,-71.95423 52.23343,-123.12168 l -52.23343,-52.23344 q -51.16746,52.23344 -123.12168,52.23344 -71.95423,0 -122.0557,-50.10147 L 64.543679,-607.13184 q -50.101464,-50.10147 -50.101464,-121.5227 0,-71.42124 50.101464,-120.45673 l 87.411061,-87.41106 q 50.10146,-49.03547 121.5227,-49.03547 71.42123,0 121.52269,50.10146 l 122.58871,123.65468 q 49.03547,49.03548 49.03547,121.52269 0,72.48723 -52.23344,123.65469 l 52.23344,52.23343 q 51.16744,-52.23343 123.12168,-52.23343 71.95424,0 122.05569,50.10147 l 123.65468,123.65466 q 50.10142,50.10146 50.10142,121.52271 z"
     id="path7922"
     inkscape:connector-curvature="0"
     style="fill:#000000;stroke-width:1.06598866" />
</svg>
