<?xml version="1.0" encoding="UTF-8" standalone="no"?>
<!-- Created with Inkscape (http://www.inkscape.org/) -->

<svg
   width="88.660004mm"
   height="88.660004mm"
   viewBox="0 0 88.660004 88.660004"
   version="1.1"
   id="svg1"
   xml:space="preserve"
   xmlns="http://www.w3.org/2000/svg"
   xmlns:svg="http://www.w3.org/2000/svg"><defs
     id="defs1" /><g
     id="layer1"
     transform="translate(-97.587101,-138.08425)"><path
       style="fill:#000000"
       d="m 139.35729,223.63534 c -9.76493,-13.18142 -18.8001,-27.58568 -23.50469,-37.4722 -4.52761,-9.51463 -5.81695,-15.37671 -4.77655,-21.71699 3.46157,-21.095 26.14178,-32.58697 45.12833,-22.86635 9.85322,5.04459 16.15857,14.74356 16.83626,25.89772 0.21137,3.47894 -0.13712,5.67194 -1.61872,10.18646 -2.26342,6.89678 -6.07228,14.3643 -13.08712,25.65818 -5.0357,8.10746 -15.77768,23.42203 -16.42873,23.42203 -0.13514,0 -1.28209,-1.39898 -2.54878,-3.10885 z m 6.8714,-39.86677 c 5.12918,-1.6092 9.16831,-5.95678 10.40498,-11.19959 0.57474,-2.43659 0.36395,-5.94621 -0.49933,-8.31374 -1.69201,-4.64031 -5.76421,-8.38754 -10.41919,-9.58773 -2.00563,-0.51711 -5.58021,-0.5372 -7.44114,-0.0418 -9.60926,2.55803 -14.16872,12.74629 -9.68697,21.64585 1.74178,3.45872 5.70492,6.66084 9.36109,7.56355 0.65485,0.16168 1.42875,0.35152 1.71979,0.42186 0.97242,0.23504 5.27606,-0.0853 6.56077,-0.48839 z"
       id="path1" /></g></svg>
