<svg xmlns="http://www.w3.org/2000/svg" viewBox="0 -1000 1000 1000">
	<path fill="#000000" d="M22 149Q16 148 10.5 143Q5 138 2 132Q1 128 0 92V-435L3 -442Q5 -447 8.5 -450Q12 -453 23 -462L63 -496V-686L65 -691Q70 -702 82 -707Q86 -708 101 -709H313L318 -713Q320 -716 335 -729L384 -770Q394 -777 413 -795L468 -841Q475 -847 479 -848Q491 -852 499 -849Q503 -848 511 -842L541 -818Q576 -790 585 -782Q607 -765 642 -736Q648 -730 662 -720L674 -709H914L920 -707Q930 -703 935 -691L938 -686V-495L950 -485L974 -465Q988 -454 991.5 -450.5Q995 -447 997 -442L1000 -435V127L998 132Q994 142 983 147L979 150H502Q24 150 22 149ZM938 -139V-367L930 -361Q899 -339 849 -303L838 -295Q821 -282 787 -259Q777 -251 768 -245Q704 -198 701 -196.5Q698 -195 618 -138L571 -104Q520 -67 511 -62Q507 -61 500.5 -61Q494 -61 490 -62Q482 -66 442 -95L408 -119Q375 -142 344 -165L335 -171L318 -184L186 -278Q173 -287 153 -302L122 -324Q120 -326 107 -335L65 -365Q64 -366 64 -358Q63 -346 63 -299V88H938ZM541 -160Q552 -167 569 -180Q583 -190 585 -191Q588 -194 602 -204L718 -287Q731 -297 751 -311L753 -313Q759 -316 761 -318L853 -383L875 -400V-647H125V-400L153 -379L189 -354L213 -336Q220 -332 248 -311L426 -184Q429 -183 459 -161L500 -131ZM488 -256Q412 -307 373 -353L361 -367Q355 -375 355 -376L350 -384Q342 -395 335.5 -411Q329 -427 326 -442Q324 -452 324.5 -467.5Q325 -483 328 -492Q340 -527 368 -545Q393 -562 424 -561Q434 -560 441 -558.5Q448 -557 457.5 -552Q467 -547 478.5 -538Q490 -529 497 -519L500 -515L503 -519Q526 -548 557 -558Q565 -561 580.5 -561Q596 -561 605 -558Q631 -551 650 -530.5Q669 -510 675 -484Q677 -476 676.5 -462.5Q676 -449 674 -441Q668 -404 633 -359Q621 -343 597.5 -321.5Q574 -300 550 -282Q541 -275 523 -263Q505 -251 503 -249.5Q501 -248 498.5 -249.5Q496 -251 488 -256ZM572 -710Q572 -711 568 -714L564 -718Q559 -721 555 -725L536 -741Q522 -753 498 -771L490 -778L415 -713Q412 -711 412 -710L493 -709Q536 -710 572 -710Q572 -710 572 -710Z"/>
</svg>