<?xml version="1.0" encoding="UTF-8" standalone="no"?>
<svg
   xmlns:dc="http://purl.org/dc/elements/1.1/"
   xmlns:cc="http://creativecommons.org/ns#"
   xmlns:rdf="http://www.w3.org/1999/02/22-rdf-syntax-ns#"
   xmlns:svg="http://www.w3.org/2000/svg"
   xmlns="http://www.w3.org/2000/svg"
   xmlns:sodipodi="http://sodipodi.sourceforge.net/DTD/sodipodi-0.dtd"
   xmlns:inkscape="http://www.inkscape.org/namespaces/inkscape"
   viewBox="0 -1000 1000 1000"
   version="1.1"
   id="svg2234"
   sodipodi:docname="loveletter.svg"
   inkscape:version="0.92.5 (2060ec1f9f, 2020-04-08)">
  <metadata
     id="metadata2240">
    <rdf:RDF>
      <cc:Work
         rdf:about="">
        <dc:format>image/svg+xml</dc:format>
        <dc:type
           rdf:resource="http://purl.org/dc/dcmitype/StillImage" />
        <dc:title></dc:title>
      </cc:Work>
    </rdf:RDF>
  </metadata>
  <defs
     id="defs2238" />
  <sodipodi:namedview
     pagecolor="#ffffff"
     bordercolor="#666666"
     borderopacity="1"
     objecttolerance="10"
     gridtolerance="10"
     guidetolerance="10"
     inkscape:pageopacity="0"
     inkscape:pageshadow="2"
     inkscape:window-width="1848"
     inkscape:window-height="1016"
     id="namedview2236"
     showgrid="false"
     inkscape:zoom="0.838"
     inkscape:cx="500"
     inkscape:cy="500"
     inkscape:window-x="72"
     inkscape:window-y="27"
     inkscape:window-maximized="1"
     inkscape:current-layer="svg2234" />
  <path
     d="m 50.514421,-30.632818 q -5.642079,-0.940346 -10.813984,-5.642078 -5.171905,-4.701732 -7.992944,-10.34381 -0.940346,-3.761386 -1.880693,-37.613856 V -579.79511 l 2.821039,-6.58242 q 1.880693,-4.70173 5.171905,-7.52277 3.291213,-2.82104 13.635023,-11.28416 l 37.613856,-31.97177 v -178.66582 l 1.880693,-4.70174 q 4.701732,-10.34381 15.985894,-15.04553 3.76138,-0.94036 17.86658,-1.8807 h 199.35343 l 4.70173,-3.76139 q 1.8807,-2.82104 15.98589,-15.04554 l 46.07698,-38.5542 q 9.40346,-6.58242 27.27004,-23.50866 l 51.71905,-43.25593 q 6.58243,-5.64208 10.34381,-6.58243 11.28417,-3.76137 18.80693,-0.94035 3.76139,0.94035 11.28416,6.58243 l 28.21039,22.56831 q 32.91213,26.3297 41.37524,33.85247 20.68763,15.98589 53.59974,43.25593 5.64208,5.64208 18.80693,15.04555 l 11.28417,10.34381 h 225.68313 l 5.64208,1.8807 q 9.40346,3.76138 14.10519,15.04553 l 2.82105,4.70174 v 179.60616 l 11.28415,9.40346 22.56831,18.80693 q 13.16485,10.34381 16.45606,13.63502 3.29122,3.29122 5.17191,7.99295 l 2.82104,6.58242 v 528.474671 l -1.88069,4.701733 q -3.76139,9.403464 -14.1052,14.105195 l -3.76139,2.82104 H 501.8807 q -449.485587,0 -451.366279,-0.940347 z M 911.87173,-301.45257 v -214.39899 l -7.52278,5.64209 q -29.15073,20.68761 -76.16806,54.54009 l -10.34381,7.52277 q -15.98589,12.2245 -47.95766,33.85247 -9.40347,7.52277 -17.86659,13.16485 -60.18217,44.19628 -63.00321,45.6068 -2.82104,1.41052 -78.04874,55.01026 l -44.19629,31.97178 q -47.95766,34.79282 -56.42078,39.49455 -3.76139,0.94034 -9.87364,0.94034 -6.11225,0 -9.87364,-0.94034 -7.52277,-3.76139 -45.13662,-31.03143 l -31.97178,-22.56831 q -31.03143,-21.62798 -60.18217,-43.25594 l -8.46312,-5.64208 -15.98589,-12.2245 -124.12572,-88.39256 q -12.2245,-8.46312 -31.03144,-22.56831 l -29.15073,-20.68762 q -1.88069,-1.8807 -14.1052,-10.34382 l -39.494544,-28.21039 q -0.940346,-0.94034 -0.940346,6.58243 -0.940347,11.28415 -0.940347,55.48044 V -87.993951 H 911.87173 Z M 538.5542,-321.19985 q 10.34381,-6.58242 26.3297,-18.80693 13.16485,-9.40346 15.04554,-10.34381 2.82104,-2.82104 15.98589,-12.2245 l 109.08018,-78.04875 q 12.22451,-9.40347 31.03143,-22.56832 l 1.8807,-1.88068 q 5.64208,-2.82104 7.52277,-4.70174 l 86.51186,-61.12251 20.68763,-15.98589 V -779.14854 H 147.3701 v 232.26556 l 26.32969,19.74727 33.85248,23.50866 22.56832,16.92623 q 6.58242,3.76139 32.91211,23.50866 l 167.38166,119.424 q 2.82105,0.94035 31.03143,21.62797 L 500,-293.92981 Z m -49.83835,-90.27325 q -71.46633,-47.95767 -108.13984,-91.21361 l -11.28416,-13.16485 q -5.64208,-7.52276 -5.64208,-8.46311 l -4.70174,-7.52278 q -7.52276,-10.34381 -13.63501,-25.38934 -6.11225,-15.04555 -8.93329,-29.15074 -1.8807,-9.40347 -1.41052,-23.97884 0.47017,-14.57537 3.29121,-23.03848 11.28416,-32.91212 37.61386,-49.83836 23.50866,-15.98589 52.6594,-15.04555 9.40345,0.94035 15.98588,2.35087 6.58242,1.41052 15.51572,6.11226 8.93329,4.70172 19.74728,13.16485 10.81397,8.46311 17.3964,17.86657 l 2.82104,3.76139 2.82104,-3.76139 q 21.62797,-27.27004 50.7787,-36.6735 7.52278,-2.82105 22.09815,-2.82105 14.57536,0 23.03848,2.82105 24.449,6.58242 42.31559,25.85952 17.86658,19.27711 23.50866,43.72611 1.88069,7.52277 1.41052,20.21745 -0.47018,12.69467 -2.35086,20.21744 -5.64208,34.79282 -38.55421,77.10841 -11.28415,15.04554 -33.3823,35.26299 -22.09814,20.21744 -44.66645,37.14368 -8.46312,6.58242 -25.38935,17.86658 -16.92623,11.28416 -18.80693,12.69468 -1.8807,1.41052 -4.23156,0 -2.35087,-1.41052 -9.87363,-6.11225 z m 78.98909,-426.91727 q 0,-0.94034 -3.76139,-3.76138 l -3.76138,-3.76138 q -4.70173,-2.82104 -8.46312,-6.58243 l -17.86658,-15.04555 q -13.16485,-11.28415 -35.73316,-28.21039 l -7.52278,-6.58243 -70.52597,61.12252 q -2.82104,1.8807 -2.82104,2.82104 l 76.16805,0.94035 q 40.4349,-0.94035 74.28737,-0.94035 0,0 0,0 z"
     id="path2232"
     inkscape:connector-curvature="0"
     style="fill:#000000;stroke-width:0.94034636" />
</svg>
