<svg xmlns="http://www.w3.org/2000/svg" viewBox="0 -1000 1000 1000">
	<path fill="#000000" d="M571 -457V-225Q571 -203 556 -187Q541 -171 518 -171Q495 -171 480 -187Q465 -203 464 -225V-421H429V88Q429 113 410 132Q391 151 366 150Q341 149 322 132Q303 115 304 88V-171H268V88Q268 113 249 132Q230 151 205 150Q180 149 161 132Q142 115 143 88V-421H107V-225Q107 -203 92 -187Q77 -171 54 -171Q31 -171 16 -187Q1 -203 0 -225V-457Q0 -502 31 -533Q62 -564 107 -564H464Q509 -564 540 -533Q571 -502 571 -457ZM411 -707Q411 -655 374 -619Q337 -583 286 -582Q235 -581 197 -619Q159 -657 161 -707Q163 -757 197 -796Q231 -835 286 -832Q341 -829 374 -796Q407 -763 411 -707Z"/>
</svg>