<?xml version="1.0" encoding="UTF-8" standalone="no"?>
<svg
   xmlns:dc="http://purl.org/dc/elements/1.1/"
   xmlns:cc="http://creativecommons.org/ns#"
   xmlns:rdf="http://www.w3.org/1999/02/22-rdf-syntax-ns#"
   xmlns:svg="http://www.w3.org/2000/svg"
   xmlns="http://www.w3.org/2000/svg"
   xmlns:sodipodi="http://sodipodi.sourceforge.net/DTD/sodipodi-0.dtd"
   xmlns:inkscape="http://www.inkscape.org/namespaces/inkscape"
   viewBox="0 -1000 1000 1000"
   version="1.1"
   id="svg8028"
   sodipodi:docname="male.svg"
   inkscape:version="0.92.5 (2060ec1f9f, 2020-04-08)">
  <metadata
     id="metadata8034">
    <rdf:RDF>
      <cc:Work
         rdf:about="">
        <dc:format>image/svg+xml</dc:format>
        <dc:type
           rdf:resource="http://purl.org/dc/dcmitype/StillImage" />
        <dc:title></dc:title>
      </cc:Work>
    </rdf:RDF>
  </metadata>
  <defs
     id="defs8032" />
  <sodipodi:namedview
     pagecolor="#ffffff"
     bordercolor="#666666"
     borderopacity="1"
     objecttolerance="10"
     gridtolerance="10"
     guidetolerance="10"
     inkscape:pageopacity="0"
     inkscape:pageshadow="2"
     inkscape:window-width="1542"
     inkscape:window-height="754"
     id="namedview8030"
     showgrid="false"
     inkscape:zoom="0.4325"
     inkscape:cx="313.30931"
     inkscape:cy="370.19493"
     inkscape:window-x="2298"
     inkscape:window-y="264"
     inkscape:window-maximized="0"
     inkscape:current-layer="svg8028" />
  <path
     d="m 785.5,-615.91786 v 232 q 0,22 -15,38 -15,16 -38,16 -23,0 -38,-16 -15,-16 -16,-38 v -196 h -35 v 509.000003 q 0,25 -19,44 -19,18.9999999 -44,17.9999999 -25,-1 -44,-17.9999999 -19,-17 -18,-44 V -329.91786 h -36 v 259.000003 q 0,25 -19,44 -19,18.9999999 -44,17.9999999 -25,-1 -44,-17.9999999 -19,-17 -18,-44 V -579.91786 h -36 v 196 q 0,22 -15,38 -15,16 -38,16 -23,0 -38,-16 -15,-16 -16,-38 v -232 q 0,-45 31,-76 31,-31 76,-31 h 357 q 45,0 76,31 31,31 31,76 z m -160,-250 q 0,52 -37,88 -37,36 -88,37 -51,1 -89,-37 -38,-38 -36,-88 2,-50 36,-89 34,-39 89,-36 55,3 88,36 33,33 37,89 z"
     id="path8026"
     inkscape:connector-curvature="0"
     style="fill:#000000" />
</svg>
