<svg xmlns="http://www.w3.org/2000/svg" viewBox="0 -1000 1000 1000">
	<path fill="#000000" d="M857 -100V-29Q857 -14 847 -4Q837 6 821 7H36Q21 7 11 -4Q1 -15 0 -29V-100Q0 -115 11 -125Q22 -135 36 -136H821Q836 -136 847 -125Q858 -114 857 -100ZM857 -386V-314Q857 -300 847 -289Q837 -278 821 -279H36Q21 -279 11 -289Q1 -299 0 -314V-386Q0 -400 11 -411Q22 -422 36 -421H821Q836 -421 847 -411Q858 -401 857 -386ZM857 -671V-600Q857 -586 847 -575Q837 -564 821 -564H36Q21 -564 11 -575Q1 -586 0 -600V-671Q0 -686 11 -697Q22 -708 36 -707H821Q836 -707 847 -697Q858 -687 857 -671Z"/>
</svg>