<svg xmlns="http://www.w3.org/2000/svg" viewBox="0 -1000 1000 1000">
	<path fill="#000000" d="M456 -807Q417 -807 372 -790Q424 -788 463 -776Q513 -760 538 -729Q550 -714 555 -691.5Q560 -669 558 -643L562 -639Q567 -635 569 -632Q582 -621 589 -608L604 -612Q622 -614 633.5 -614Q645 -614 651 -613Q661 -661 637.5 -706Q614 -751 566.5 -779Q519 -807 462 -807ZM397 -665Q345 -663 320 -637Q292 -611 299 -561V-560Q310 -522 335 -503Q364 -480 415 -483Q485 -486 529 -451Q555 -467 578 -473Q588 -508 579 -544Q570 -580 543 -607Q523 -627 492 -642Q461 -657 429 -662Q413 -665 397 -665ZM266 -613Q207 -608 173 -585Q132 -557 115 -500L109 -479Q102 -452 98 -442Q90 -425 77.5 -418.5Q65 -412 43 -417Q63 -385 91.5 -385Q120 -385 144 -418Q147 -464 178 -504Q209 -544 262 -569Q260 -593 266 -613ZM633 -577Q618 -577 611 -576Q609 -575 607 -575Q625 -532 617 -484L622 -479H633Q673 -478 711 -457Q729 -481 758 -489Q746 -535 702 -560Q668 -577 633 -577ZM850 -547Q817 -547 782 -528Q790 -514 795 -491Q808 -490 825 -481L827 -479Q870 -494 904 -472Q933 -453 964 -399Q958 -468 927 -507.5Q896 -547 850 -547ZM271 -532Q222 -508 199 -471Q176 -434 182 -393Q189 -345 221.5 -306Q254 -267 306 -248Q362 -228 431 -236Q487 -242 517 -278Q544 -309 542 -352Q541 -371 533 -388.5Q525 -406 510 -419Q475 -450 417 -446Q353 -443 313 -474Q286 -494 271 -532ZM781 -456Q779 -456 777 -456Q767 -455 757.5 -450Q748 -445 741 -437Q781 -403 796 -355Q816 -362 826.5 -380Q837 -398 831.5 -418.5Q826 -439 807 -449Q796 -456 781 -456ZM626 -443Q609 -443 589 -438Q565 -430 555 -424Q576 -392 578.5 -353.5Q581 -315 560 -278Q582 -266 595 -244.5Q608 -223 608 -197Q608 -161 585 -135Q608 -123 631.5 -118.5Q655 -114 674 -119Q700 -126 721 -148.5Q742 -171 754 -203.5Q766 -236 768.5 -272.5Q771 -309 764 -337Q751 -383 714.5 -412Q678 -441 632 -443ZM832 -333Q822 -325 804 -320Q809 -283 803 -247Q840 -228 849.5 -204Q859 -180 847 -140Q832 -89 845 -51Q857 -16 888.5 -5.5Q920 5 954 -13Q924 -22 913 -36.5Q902 -51 903 -74Q905 -88 914 -125V-126Q931 -199 909 -250Q889 -295 832 -333ZM166 -324Q149 -318 135 -304Q112 -281 112 -247.5Q112 -214 135 -191Q144 -183 151 -178Q188 -232 219 -257Q186 -285 166 -324ZM538 -248Q507 -216 461 -204Q460 -202 460 -197Q460 -174 476.5 -157.5Q493 -141 516 -141Q539 -141 555.5 -157.5Q572 -174 572 -197Q572 -214 562.5 -228Q553 -242 538 -248ZM267 -226Q258 -176 276 -137Q292 -101 324 -84Q343 -74 365 -73.5Q387 -73 408 -84Q434 -96 456 -127Q441 -140 432.5 -158Q424 -176 424 -197V-198H423Q335 -192 267 -226ZM230 -217Q202 -190 169 -138Q139 -81 147 -24Q156 39 209 80Q239 103 277 111Q313 118 347.5 112.5Q382 107 404 90Q423 76 432.5 53Q442 30 438.5 4Q435 -22 418 -44Q424 -20 413 10.5Q402 41 381 52Q356 66 328 61Q297 55 271 27Q214 -36 264 -88Q244 -113 235 -146Q226 -179 230 -217ZM560 -107Q548 -64 562.5 -21.5Q577 21 615 48Q656 77 714 80Q667 55 641.5 10Q616 -35 623 -82Q592 -88 560 -107Z"/>
</svg>