<?xml version="1.0" encoding="UTF-8" standalone="no"?>
<svg
   xmlns:dc="http://purl.org/dc/elements/1.1/"
   xmlns:cc="http://creativecommons.org/ns#"
   xmlns:rdf="http://www.w3.org/1999/02/22-rdf-syntax-ns#"
   xmlns:svg="http://www.w3.org/2000/svg"
   xmlns="http://www.w3.org/2000/svg"
   xmlns:sodipodi="http://sodipodi.sourceforge.net/DTD/sodipodi-0.dtd"
   xmlns:inkscape="http://www.inkscape.org/namespaces/inkscape"
   viewBox="0 -1000 1000 1000"
   version="1.1"
   id="svg8234"
   sodipodi:docname="monster.svg"
   inkscape:version="0.92.5 (2060ec1f9f, 2020-04-08)">
  <metadata
     id="metadata8240">
    <rdf:RDF>
      <cc:Work
         rdf:about="">
        <dc:format>image/svg+xml</dc:format>
        <dc:type
           rdf:resource="http://purl.org/dc/dcmitype/StillImage" />
        <dc:title></dc:title>
      </cc:Work>
    </rdf:RDF>
  </metadata>
  <defs
     id="defs8238" />
  <sodipodi:namedview
     pagecolor="#ffffff"
     bordercolor="#666666"
     borderopacity="1"
     objecttolerance="10"
     gridtolerance="10"
     guidetolerance="10"
     inkscape:pageopacity="0"
     inkscape:pageshadow="2"
     inkscape:window-width="1542"
     inkscape:window-height="754"
     id="namedview8236"
     showgrid="false"
     inkscape:zoom="0.4325"
     inkscape:cx="328.20792"
     inkscape:cy="492.76989"
     inkscape:window-x="2298"
     inkscape:window-y="289"
     inkscape:window-maximized="0"
     inkscape:current-layer="svg8234" />
  <path
     d="m 451.07046,-974.83281 q -40.17372,0 -86.52802,17.51159 53.56496,2.06019 93.73869,14.42133 51.50478,16.48153 77.25717,48.41449 12.36114,15.45144 17.51162,38.62858 5.15047,23.17716 3.09028,49.95964 l 4.12039,4.12038 q 5.15047,4.12039 7.21066,7.21067 13.39125,11.33106 20.60192,24.72229 l 15.45143,-4.12038 q 18.54172,-2.06019 30.38782,-2.06019 11.8461,0 18.02667,1.0301 10.30095,-49.44458 -13.90629,-95.79889 -24.20725,-46.3543 -73.13678,-75.19697 -48.92954,-28.84264 -107.64499,-28.84264 z m -60.77564,146.27353 q -53.56496,2.06019 -79.31736,28.84268 -28.84266,26.78248 -21.63199,78.28725 v 1.0301 q 11.33104,39.14363 37.08343,58.71544 29.87277,23.6922 82.40764,20.60192 72.10669,-3.0903 117.4309,32.96305 26.78248,-16.48153 50.47468,-22.6621 10.30095,-36.05334 1.03009,-73.13678 -9.27086,-37.08344 -37.08344,-64.89602 -20.60191,-20.60191 -52.53487,-36.05334 -31.93296,-15.45144 -64.89602,-20.60192 -16.48153,-3.09028 -32.96306,-3.09028 z m -134.94251,53.56497 q -60.77564,5.15047 -95.79888,28.84267 -42.23392,28.84268 -59.745542,87.55812 l -6.180576,21.632 q -7.21067,27.81259 -11.331049,38.11354 -8.240763,17.51162 -21.116957,24.20724 -12.876195,6.69563 -35.538296,1.54515 20.601911,32.96306 49.959632,32.96306 29.357728,0 54.080018,-33.99316 3.09028,-47.38439 35.02325,-88.58821 31.93296,-41.20382 86.52802,-66.95621 -2.06019,-24.72229 4.12038,-45.3242 z m 378.04505,37.08343 q -15.45142,0 -22.66209,1.0301 -2.0602,1.03009 -4.12039,1.03009 18.54172,44.29412 10.30096,93.7387 l 5.15048,5.15047 h 11.33104 q 41.20382,1.0301 80.34746,22.66211 18.54171,-24.72229 48.41449,-32.96306 -12.36114,-47.3844 -57.68535,-73.13678 -35.02325,-17.51163 -71.0766,-17.51163 z m 223.53073,30.90287 q -33.99315,0 -70.04649,19.57181 8.24077,14.42134 13.39125,38.11354 13.39123,1.0301 30.90286,10.30096 l 2.06019,2.06018 q 44.29411,-15.45143 79.31735,7.21067 29.87278,19.57181 61.80574,75.19698 -6.18058,-71.07659 -38.11354,-111.76537 -31.93296,-40.68877 -79.31736,-40.68877 z m -596.4253,15.45144 q -50.47468,24.72229 -74.16688,62.83582 -23.69219,38.11354 -17.51163,80.34745 7.21067,49.44459 40.68878,89.61831 33.4781,40.17373 87.04307,59.74554 57.68535,20.60192 128.76194,12.36115 57.68535,-6.18057 88.58822,-43.26402 27.81257,-31.93296 25.75238,-76.22706 -1.03009,-19.57181 -9.27085,-37.59849 -8.24077,-18.02667 -23.6922,-31.41791 -36.05334,-31.93296 -95.79888,-27.81259 -65.92611,3.0903 -107.12994,-28.84267 -27.81258,-20.60191 -43.26401,-59.74553 z m 525.34872,78.28725 q -2.06019,0 -4.12039,0 -10.30095,1.0301 -20.08686,6.18058 -9.7859,5.15047 -16.99657,13.39123 41.20382,35.02326 56.65525,84.46784 20.60191,-7.21067 31.41791,-25.75238 10.81601,-18.54173 5.15048,-39.65869 -5.66553,-21.11696 -25.23734,-31.41791 -11.33105,-7.21067 -26.78248,-7.21067 z m -159.66481,13.39125 q -17.51163,0 -38.11353,5.15047 -24.7223,8.24076 -35.02325,14.42134 21.632,32.96306 24.20724,72.62173 2.57524,39.65869 -19.05677,77.77221 22.66211,12.36115 36.05335,34.50821 13.39124,22.14705 13.39124,48.92953 0,37.08344 -23.6922,63.86593 23.6922,12.36115 47.89945,16.99658 24.20724,4.63542 43.77906,-0.51506 26.78248,-7.21067 48.41448,-30.38781 21.63201,-23.17715 33.99316,-56.65526 12.36114,-33.4781 14.93638,-71.07659 2.57524,-37.59849 -4.63543,-66.44116 -13.39124,-47.3844 -50.98973,-77.25716 -37.59848,-29.87277 -84.98288,-31.93296 z m 212.19967,113.3105 q -10.30095,8.24076 -28.84266,13.39124 5.15047,38.11354 -1.0301,75.19698 38.11353,19.57182 47.89944,44.2941 9.78591,24.72229 -2.57524,65.92611 -15.45144,52.53488 -2.06019,91.67851 12.36114,36.05334 44.80916,46.86935 32.448,10.816 67.47125,-7.72572 -30.90286,-9.27086 -42.23392,-24.20724 -11.33105,-14.93639 -10.30095,-38.62858 2.06019,-14.42134 11.33105,-52.53488 v -1.0301 q 17.51163,-75.19697 -5.15048,-127.73184 -20.60191,-46.3543 -79.31736,-85.49793 z m -686.04361,9.27087 q -17.51163,6.18056 -31.93297,20.6019 -23.692185,23.6922 -23.692185,58.2004 0,34.5082 23.692185,58.2004 9.27087,8.24076 16.48153,13.39124 38.11354,-55.62516 70.0465,-81.37755 -33.99315,-28.84268 -54.59506,-69.01639 z m 383.19554,78.28725 q -31.93297,32.96306 -79.31736,45.3242 -1.0301,2.0602 -1.0301,7.21067 0,23.6922 16.99657,40.68878 16.99658,16.99657 40.68878,16.99657 23.6922,0 40.68877,-16.99657 16.99658,-16.99658 16.99658,-40.68878 0,-17.51162 -9.78591,-31.93295 -9.78591,-14.42134 -25.23733,-20.60192 z m -279.15589,22.66211 q -9.27086,51.50477 9.27086,91.6785 16.48153,37.08343 49.44458,54.59505 19.57181,10.30097 42.23392,10.81601 22.6621,0.51505 44.2941,-10.81601 26.78249,-12.36114 49.44459,-44.2941 -15.45143,-13.39125 -24.20724,-31.93296 -8.75582,-18.54172 -8.75582,-40.17373 v -1.03009 h -1.03009 q -90.64841,6.18057 -160.6949,-28.84267 z m -38.11354,9.27085 q -28.84267,27.81258 -62.83582,81.37755 -30.90287,58.71545 -22.66211,117.43089 9.27086,64.89602 63.86593,107.12993 30.90286,23.692196 70.04649,31.93296 37.08344,7.210669 72.62173,1.545144 35.5383,-5.665526 58.2004,-23.177149 19.57182,-14.421337 29.35773,-38.11354 9.78591,-23.692185 6.18057,-50.474675 -3.60533,-26.78248 -21.11696,-49.44459 6.18057,24.7223 -5.15048,56.14022 -11.33104,31.41791 -32.96305,42.748951 -25.75239,14.421341 -54.59507,9.270863 -31.93295,-6.18057 -58.71544,-35.023244 -58.71545,-64.89602 -7.21066,-118.46098 -20.60192,-25.75239 -29.87278,-59.74554 -9.27086,-33.99315 -5.15048,-73.13679 z m 339.93152,113.31051 q -12.36114,44.29411 2.57524,88.07317 14.93638,43.77906 54.08002,71.591636 42.23391,29.872767 101.97946,32.963054 -48.41449,-25.752386 -74.68193,-72.10668 -26.26744,-46.3543 -19.05677,-94.76879 -31.93296,-6.18057 -64.89602,-25.75239 z"
     id="path8232"
     inkscape:connector-curvature="0"
     style="fill:#000000;stroke-width:1.03009558" />
</svg>
