<?xml version="1.0" encoding="UTF-8" standalone="no"?>
<svg
   xmlns:dc="http://purl.org/dc/elements/1.1/"
   xmlns:cc="http://creativecommons.org/ns#"
   xmlns:rdf="http://www.w3.org/1999/02/22-rdf-syntax-ns#"
   xmlns:svg="http://www.w3.org/2000/svg"
   xmlns="http://www.w3.org/2000/svg"
   xmlns:sodipodi="http://sodipodi.sourceforge.net/DTD/sodipodi-0.dtd"
   xmlns:inkscape="http://www.inkscape.org/namespaces/inkscape"
   viewBox="0 -1000 1000 1000"
   version="1.1"
   id="svg8286"
   sodipodi:docname="morph.svg"
   inkscape:version="0.92.5 (2060ec1f9f, 2020-04-08)">
  <metadata
     id="metadata8292">
    <rdf:RDF>
      <cc:Work
         rdf:about="">
        <dc:format>image/svg+xml</dc:format>
        <dc:type
           rdf:resource="http://purl.org/dc/dcmitype/StillImage" />
        <dc:title></dc:title>
      </cc:Work>
    </rdf:RDF>
  </metadata>
  <defs
     id="defs8290" />
  <sodipodi:namedview
     pagecolor="#ffffff"
     bordercolor="#666666"
     borderopacity="1"
     objecttolerance="10"
     gridtolerance="10"
     guidetolerance="10"
     inkscape:pageopacity="0"
     inkscape:pageshadow="2"
     inkscape:window-width="1542"
     inkscape:window-height="754"
     id="namedview8288"
     showgrid="false"
     inkscape:zoom="0.30582368"
     inkscape:cx="23.605257"
     inkscape:cy="286.02032"
     inkscape:window-x="2297"
     inkscape:window-y="289"
     inkscape:window-maximized="0"
     inkscape:current-layer="svg8286" />
  <path
     d="m 451.31011,-80.67486 q -5.90181,-1.967269 -10.32817,-6.393624 -4.42635,-4.42635 -6.39362,-10.328156 v -204.59595 l -2.9509,-0.98363 q -8.85271,0 -15.73815,-3.93454 -12.78725,-5.90181 -20.65632,-19.67269 -2.95091,-6.88544 -4.91817,-17.70541 v -211.48139 q 1.96726,-11.80361 7.86907,-21.63995 10.81998,-14.75452 28.5254,-19.67269 h 146.56151 q 13.77088,2.9509 23.60723,12.29543 9.83634,9.34452 11.80361,23.11541 l 0.98363,2.9509 v 217.38319 l -0.98363,2.9509 q -1.96727,8.85271 -6.88544,15.73815 -10.81998,17.70542 -32.45993,19.67269 l -2.95091,0.98363 v 203.61232 l -0.98363,1.96726 q -2.9509,12.787247 -16.72178,16.721784 h -48.19809 q -47.21445,0 -49.18171,-0.983634 z m -184.92326,-73.77258 q -13.77088,-1.96726 -18.68905,-14.75451 -0.98364,-3.93454 -0.98364,-107.21614 V -376.7488 l -9.83634,-0.98363 q -10.81998,-2.95091 -19.18087,-10.81998 -8.36089,-7.86907 -11.3118,-18.68905 -1.96728,-3.93454 -1.96728,-5.90181 l -0.98363,-2.9509 v -216.39956 l 0.98363,-2.9509 q 0.98365,-6.88544 3.44273,-11.3118 2.45909,-4.42635 6.39363,-9.34452 l 1.96727,-2.9509 q 7.86907,-7.86908 24.59086,-12.78725 h 141.64333 q 13.77088,0.98363 24.59086,10.32816 10.81998,9.34453 14.75451,23.11541 0.98364,3.93453 0.98364,12.78724 v 6.88544 h -14.75452 q -14.75451,0 -16.72178,0.98364 l -7.86907,1.96727 q -11.80362,4.91817 -19.67269,14.75451 -7.86908,9.83634 -8.85271,21.63996 v 108.19977 q 0,109.18342 0.98363,113.11795 v 0.98364 q 4.91818,17.70542 20.65632,27.54176 l 2.95091,0.98363 v 147.54516 q 0,9.83634 -1.96727,11.80361 v 0.98363 q -0.98364,3.93454 -3.93454,6.88544 -2.9509,2.95091 -7.86907,4.91818 h -0.98364 q -0.98363,1.96726 -3.93453,1.96726 z m 373.78105,0 q -5.90181,-1.96726 -9.83634,-4.91817 -3.93454,-2.9509 -6.88544,-11.80361 l -0.98364,-1.96727 v -155.41423 h 1.96727 q 11.80361,-7.86907 16.72177,-16.72178 4.91818,-8.85271 5.90181,-18.68905 v -217.38319 q -2.9509,-14.75452 -13.77088,-24.59086 -2.9509,-3.93454 -10.81998,-7.86908 -4.91817,-2.9509 -10.81998,-3.93453 -2.9509,-0.98364 -17.70541,-0.98364 h -14.75452 l 0.98363,-6.88544 q 0,-10.81997 1.96727,-15.73815 4.91817,-12.78724 14.75452,-21.14814 9.83634,-8.36089 22.62359,-9.34452 h 137.70881 q 15.73815,1.96727 27.04994,13.27906 11.3118,11.3118 12.29543,27.04995 v 1.96727 q 0.98363,39.34537 0,107.21614 v 108.19978 q -3.93454,21.63995 -23.60722,32.45993 -7.86908,4.91817 -16.72179,4.91817 h -1.96727 v 203.61231 l -0.98363,2.9509 q -3.93453,11.80362 -16.72177,15.73815 h -47.21445 q -36.39447,0.98364 -47.21445,0 z m 197.7105,-71.8053 q -6.88544,-0.98364 -12.29543,-5.90181 -5.40999,-4.91817 -7.37725,-11.80361 -0.98364,-1.96727 -0.98364,-79.67438 v -76.72348 l 1.96726,-0.98364 q 16.72178,-9.83634 21.63996,-30.49266 l 0.98363,-2.9509 v -216.39956 q -0.98363,-12.78725 -9.83634,-23.11541 -8.85271,-10.32816 -20.65632,-14.2627 -3.93454,-1.96726 -6.88545,-1.96726 h -29.50903 v -7.86908 q 0,-10.81998 1.96727,-15.73815 6.88544,-22.62359 33.44357,-29.50903 l 2.9509,-0.98363 h 139.67608 l 2.9509,0.98363 q 12.78725,2.9509 20.65633,9.83634 11.80361,11.80362 14.75451,25.5745 v 111.15068 q 0,110.16705 -0.98363,114.10158 v 0.98364 q -3.93453,13.77088 -14.75451,22.62359 -10.81998,8.85271 -24.59086,9.83634 h -1.96727 v 102.29797 l -0.98363,104.26524 -2.9509,6.88544 q -5.90181,7.86908 -13.77089,8.85271 l -1.96726,0.98364 z m -767.234791,-3.93454 q -6.885441,-1.96727 -11.311795,-6.39362 -4.426355,-4.42636 -6.393623,-11.3118 -0.983635,-1.96727 -0.983635,-103.28161 v -101.31433 l -2.950903,-0.98364 q -7.869075,0 -14.754515,-3.93453 -14.754515,-5.90181 -20.656321,-20.65633 -2.950903,-6.88544 -4.918172,-16.72178 v -213.44865 l 0.9836343,-2.95091 q 0,-1.96726 1.9672687,-8.8527 l 0.983634,-1.96727 q 5.901806,-13.77088 20.656322,-21.63996 9.836343,-3.93454 16.721783,-3.93454 3.934538,-0.98363 68.362593,-0.98363 64.42805,0 68.36259,0.98363 13.77088,0 26.55812,10.81998 10.81998,8.85271 13.77088,24.59086 0.98364,2.9509 0.98364,9.83634 v 7.86908 h -12.78725 q -17.70542,0 -23.60722,1.96727 -5.90181,1.96727 -12.78725,5.9018 -13.77088,9.83635 -18.68905,29.50903 v 219.35046 q 2.9509,14.75452 12.78725,24.59086 3.93453,3.93454 9.83634,7.86908 l 1.96727,0.98363 v 155.41423 l -0.98364,1.96727 q -4.91817,13.77088 -17.70541,16.72178 z M 492.62275,-607.90287 q -18.68905,-0.98363 -34.91902,-12.29543 -16.22997,-11.31179 -24.09904,-28.03358 -5.90181,-9.83634 -7.86908,-24.59086 -0.98363,-3.93453 -0.98363,-10.81997 0,-6.88544 0.98363,-10.81998 2.95091,-18.68905 14.2627,-33.93539 11.3118,-15.24633 28.5254,-23.60722 17.2136,-8.36089 33.93538,-7.37726 24.59086,0 44.26355,15.73815 19.67268,15.73815 26.55812,39.83719 6.88544,24.09904 -1.96726,47.70627 -6.88545,17.70542 -20.65633,29.50903 -13.77088,11.80361 -32.45993,16.72178 -5.90181,1.96727 -16.72178,1.96727 -2.95091,0.98364 -7.86908,0 z m -184.92326,-75.73984 q -24.59086,-1.96727 -43.77173,-18.19724 -19.18087,-16.22997 -24.59086,-41.31264 -5.40999,-25.08268 5.40999,-48.6899 2.95091,-6.88544 9.83635,-15.73815 14.75451,-18.68905 37.3781,-25.08268 22.62359,-6.39362 44.75536,0.49182 22.13178,6.88544 35.90266,24.59086 13.77088,17.70542 15.73815,40.32901 v 14.75451 q -0.98364,18.68905 -11.3118,34.4272 -10.32816,15.73815 -27.04994,25.5745 -19.67269,10.81998 -42.29628,8.85271 z m 383.6174,0 q -35.41084,-2.95091 -55.08353,-30.49267 -11.80361,-15.73815 -14.75451,-36.39447 v -16.72178 q 2.9509,-26.55813 22.62359,-46.23082 21.63995,-22.62359 53.11625,-22.62359 31.4763,0 53.11626,22.62359 18.68905,18.68906 21.63995,45.24718 0.98364,3.93454 0,14.75452 v 4.91817 q -4.91817,26.55813 -21.63995,43.27991 -16.72179,16.72178 -44.26355,21.63996 z m 197.7105,-71.80531 q -1.96727,0 -5.90181,-0.98364 l -11.80361,-1.96726 q -13.77088,-3.93454 -26.55813,-13.77088 -5.9018,-3.93454 -12.78724,-12.78725 -10.81998,-15.73815 -14.75452,-31.4763 -0.98363,-5.90181 -0.98363,-14.75452 0,-8.8527 0.98363,-11.80361 2.9509,-24.59086 21.63996,-43.27991 7.86907,-7.86907 19.67268,-13.77088 9.83635,-4.91817 23.60723,-7.86907 H 900.831 q 27.54175,4.91817 45.24717,22.62359 9.83634,11.80361 12.78725,19.67268 5.9018,9.83635 6.88544,18.68906 0.98363,5.9018 0.98363,14.75451 0,13.77088 -1.96727,20.65632 -5.9018,21.63996 -22.62359,36.39447 -16.72178,14.75452 -39.34537,18.68905 z m -776.0875,-3.93454 q -1.96727,0 -3.93454,-0.98363 l -4.91817,-0.98364 q -16.721787,-2.9509 -29.509034,-12.78724 -25.574493,-18.68906 -30.492665,-50.16535 -0.983634,-4.91818 -0.983634,-17.70542 0.983634,-20.65632 12.295429,-36.88629 11.311795,-16.22997 30.000848,-25.08268 20.656326,-11.80361 48.198086,-6.88544 32.45994,7.86908 48.19808,34.4272 12.78725,17.70542 12.29543,40.82083 -0.49181,23.11541 -12.29543,41.80446 -10.81997,16.72178 -28.03357,25.57449 -17.21361,8.85271 -35.90266,8.85271 z"
     id="path8284"
     inkscape:connector-curvature="0"
     style="fill:#000000;stroke-width:0.98363435" />
</svg>
