<svg xmlns="http://www.w3.org/2000/svg" viewBox="0 -1000 1000 1000">
	<path fill="#000000" d="M450 72Q444 70 439.5 65.5Q435 61 433 55V-153L430 -154Q421 -154 414 -158Q401 -164 393 -178Q390 -185 388 -196V-411Q390 -423 396 -433Q407 -448 425 -453H574Q588 -450 598 -440.5Q608 -431 610 -417L611 -414V-193L610 -190Q608 -181 603 -174Q592 -156 570 -154L567 -153V54L566 56Q563 69 549 73H500Q452 73 450 72ZM262 -3Q248 -5 243 -18Q242 -22 242 -127V-229L232 -230Q221 -233 212.5 -241Q204 -249 201 -260Q199 -264 199 -266L198 -269V-489L199 -492Q200 -499 202.5 -503.5Q205 -508 209 -513L211 -516Q219 -524 236 -529H380Q394 -528 405 -518.5Q416 -509 420 -495Q421 -491 421 -482V-475H406Q391 -475 389 -474L381 -472Q369 -467 361 -457Q353 -447 352 -435V-325Q352 -214 353 -210V-209Q358 -191 374 -181L377 -180V-30Q377 -20 375 -18V-17Q374 -13 371 -10Q368 -7 363 -5H362Q361 -3 358 -3ZM642 -3Q636 -5 632 -8Q628 -11 625 -20L624 -22V-180H626Q638 -188 643 -197Q648 -206 649 -216V-437Q646 -452 635 -462Q632 -466 624 -470Q619 -473 613 -474Q610 -475 595 -475H580L581 -482Q581 -493 583 -498Q588 -511 598 -519.5Q608 -528 621 -529H761Q777 -527 788.5 -515.5Q800 -504 801 -488V-486Q802 -446 801 -377V-267Q797 -245 777 -234Q769 -229 760 -229H758V-22L757 -19Q753 -7 740 -3H692Q655 -2 644 -3ZM843 -76Q836 -77 830.5 -82Q825 -87 823 -94Q822 -96 822 -175V-253L824 -254Q841 -264 846 -285L847 -288V-508Q846 -521 837 -531.5Q828 -542 816 -546Q812 -548 809 -548H779V-556Q779 -567 781 -572Q788 -595 815 -602L818 -603H960L963 -602Q976 -599 984 -592Q996 -580 999 -566V-453Q999 -341 998 -337V-336Q994 -322 983 -313Q972 -304 958 -303H956V-199L955 -93L952 -86Q946 -78 938 -77L936 -76ZM63 -80Q56 -82 51.5 -86.5Q47 -91 45 -98Q44 -100 44 -203V-306L41 -307Q33 -307 26 -311Q11 -317 5 -332Q2 -339 0 -349V-566L1 -569Q1 -571 3 -578L4 -580Q10 -594 25 -602Q35 -606 42 -606Q46 -607 111.5 -607Q177 -607 181 -606Q195 -606 208 -595Q219 -586 222 -570Q223 -567 223 -560V-552H210Q192 -552 186 -550Q180 -548 173 -544Q159 -534 154 -514V-291Q157 -276 167 -266Q171 -262 177 -258L179 -257V-99L178 -97Q173 -83 160 -80ZM492 -464Q473 -465 456.5 -476.5Q440 -488 432 -505Q426 -515 424 -530Q423 -534 423 -541Q423 -548 424 -552Q427 -571 438.5 -586.5Q450 -602 467.5 -610.5Q485 -619 502 -618Q527 -618 547 -602Q567 -586 574 -561.5Q581 -537 572 -513Q565 -495 551 -483Q537 -471 518 -466Q512 -464 501 -464Q498 -463 493 -464ZM304 -541Q279 -543 259.5 -559.5Q240 -576 234.5 -601.5Q229 -627 240 -651Q243 -658 250 -667Q265 -686 288 -692.5Q311 -699 333.5 -692Q356 -685 370 -667Q384 -649 386 -626V-611Q385 -592 374.5 -576Q364 -560 347 -550Q327 -539 304 -541ZM694 -541Q658 -544 638 -572Q626 -588 623 -609V-626Q626 -653 646 -673Q668 -696 700 -696Q732 -696 754 -673Q773 -654 776 -627Q777 -623 776 -612V-607Q771 -580 754 -563Q737 -546 709 -541ZM895 -614Q893 -614 889 -615L877 -617Q863 -621 850 -631Q844 -635 837 -644Q826 -660 822 -676Q821 -682 821 -691Q821 -700 822 -703Q825 -728 844 -747Q852 -755 864 -761Q874 -766 888 -769H907Q935 -764 953 -746Q963 -734 966 -726Q972 -716 973 -707Q974 -701 974 -692Q974 -678 972 -671Q966 -649 949 -634Q932 -619 909 -615ZM106 -618Q104 -618 102 -619L97 -620Q80 -623 67 -633Q41 -652 36 -684Q35 -689 35 -702Q36 -723 47.5 -739.5Q59 -756 78 -765Q99 -777 127 -772Q160 -764 176 -737Q189 -719 188.5 -695.5Q188 -672 176 -653Q165 -636 147.5 -627Q130 -618 111 -618Z"/>
</svg>