<?xml version="1.0" encoding="UTF-8" standalone="no"?>
<svg
   xmlns:dc="http://purl.org/dc/elements/1.1/"
   xmlns:cc="http://creativecommons.org/ns#"
   xmlns:rdf="http://www.w3.org/1999/02/22-rdf-syntax-ns#"
   xmlns:svg="http://www.w3.org/2000/svg"
   xmlns="http://www.w3.org/2000/svg"
   xmlns:sodipodi="http://sodipodi.sourceforge.net/DTD/sodipodi-0.dtd"
   xmlns:inkscape="http://www.inkscape.org/namespaces/inkscape"
   viewBox="0 -1000 1000 1000"
   version="1.1"
   id="svg2026"
   sodipodi:docname="movie-roll.svg"
   inkscape:version="0.92.5 (2060ec1f9f, 2020-04-08)">
  <metadata
     id="metadata2032">
    <rdf:RDF>
      <cc:Work
         rdf:about="">
        <dc:format>image/svg+xml</dc:format>
        <dc:type
           rdf:resource="http://purl.org/dc/dcmitype/StillImage" />
        <dc:title></dc:title>
      </cc:Work>
    </rdf:RDF>
  </metadata>
  <defs
     id="defs2030" />
  <sodipodi:namedview
     pagecolor="#ffffff"
     bordercolor="#666666"
     borderopacity="1"
     objecttolerance="10"
     gridtolerance="10"
     guidetolerance="10"
     inkscape:pageopacity="0"
     inkscape:pageshadow="2"
     inkscape:window-width="1848"
     inkscape:window-height="1016"
     id="namedview2028"
     showgrid="false"
     inkscape:zoom="0.838"
     inkscape:cx="500"
     inkscape:cy="500"
     inkscape:window-x="72"
     inkscape:window-y="27"
     inkscape:window-maximized="1"
     inkscape:current-layer="svg2026" />
  <path
     d="m 402.39955,-64.740157 q -45.81246,-3.983692 -84.15549,-14.938845 -38.34304,-10.955153 -75.19219,-28.881768 -24.89807,-12.947 -49.79615,-28.88177 -35.85323,-24.89807 -63.73907,-52.78392 -42.82469,-42.82468 -72.702379,-94.61268 -29.87769,-51.788 -43.820612,-108.55561 -25.893998,-107.55968 0,-214.12344 22.906229,-90.62899 82.661608,-165.32322 39.836923,-50.79207 92.122873,-87.14326 52.28596,-36.35119 113.03726,-55.27372 45.81246,-14.93885 97.60046,-19.91846 51.78799,-4.97962 97.60045,1.99184 103.57599,14.93885 183.24983,69.71461 35.85323,23.90215 63.73907,51.788 52.78392,50.79207 85.64938,117.51891 22.90623,46.80838 33.86138,94.11472 10.95515,47.30635 10.95515,100.09026 0,31.86954 -2.98776,55.77169 -2.98777,23.90215 -9.95923,50.79207 -10.95516,41.82877 -26.88993,76.18811 -15.93476,34.35935 -43.82061,75.19219 -3.98369,6.97146 -19.4205,24.40011 -15.4368,17.42865 -24.89807,26.88992 -9.46127,9.46127 -26.39196,23.90215 -16.93069,14.44089 -23.90215,19.4205 -42.82469,28.88177 -76.18811,44.81654 -33.36342,15.934767 -76.18811,25.893997 -30.87361,7.967384 -71.70645,11.453114 -40.83285,3.485731 -68.71869,0.497962 z m 62.74315,-64.734993 q 26.88992,-8.96331 44.81653,-30.87362 17.92662,-21.9103 20.41642,-50.29411 2.48981,-28.3838 -11.45311,-53.28188 -4.97962,-9.95923 -15.93477,-20.91438 -10.95515,-10.95515 -20.91438,-15.93477 -32.86546,-17.92661 -68.71869,-8.46534 -35.85323,9.46127 -55.77169,41.3308 -7.96738,12.947 -10.45719,22.90623 -2.4898,9.95923 -2.4898,25.894 0,11.95107 0.49796,17.42865 0.49796,5.47758 3.48573,12.44904 6.97146,21.9103 23.40419,37.34711 16.43273,15.43681 37.34711,21.41234 l 15.93477,4.97962 q 6.97146,0.99592 19.4205,-0.49796 12.44903,-1.49389 20.41642,-3.48573 z M 222.13749,-270.89622 q 43.82061,-14.93884 60.7513,-59.75538 3.98369,-11.95107 3.98369,-28.3838 0,-16.43273 -3.98369,-29.37973 -10.95515,-33.86138 -42.82469,-52.28596 -31.86953,-18.42457 -65.23295,-10.45719 -33.36343,7.96738 -52.78392,30.87361 -19.4205,22.90623 -21.41235,55.27373 -1.991844,32.3675 15.43681,57.76353 17.42865,25.39604 46.80838,35.85323 29.37973,10.45719 59.25742,0.49796 z m 486.01042,0 q 12.947,-3.98369 26.39196,-12.947 13.44496,-8.9633 20.41642,-18.92253 21.9103,-29.87769 18.92254,-64.735 -2.98777,-34.8573 -28.88177,-59.75538 -13.94292,-12.947 -33.86138,-20.41642 -19.91846,-7.46942 -36.84915,-5.47758 -27.88585,2.98777 -49.29819,18.92254 -21.41235,15.93477 -32.3675,41.82877 -2.98777,6.97146 -3.48573,11.95107 -0.49796,4.97962 -0.49796,20.41642 0,15.43681 0.49796,20.41643 0.49796,4.97961 3.48573,11.95107 18.92254,45.81246 66.72684,58.75946 9.95923,2.98777 23.40419,2.48981 13.44496,-0.49797 25.39604,-4.48166 z M 218.1538,-550.75058 q 21.9103,-5.97554 39.83692,-22.90623 17.92661,-16.93069 24.89807,-38.84099 3.98369,-11.95108 3.98369,-28.88177 0,-16.93069 -3.98369,-27.88584 -7.96738,-20.91439 -21.91031,-36.35119 -13.94292,-15.43681 -38.84099,-24.40012 -15.93477,-4.97961 -29.87769,-4.48165 -13.94292,0.49796 -30.87362,6.4735 -27.88584,9.95923 -44.31857,33.86138 -16.43273,23.90215 -16.43273,53.77984 0,17.92662 7.46942,36.35119 7.46943,18.42458 20.41643,30.37565 17.92661,16.93069 41.82876,22.90623 23.90215,5.97554 47.80431,0 z m 480.03488,1.99185 q 29.87769,-5.97554 49.79615,-27.38788 19.91846,-21.41235 24.89807,-49.79615 4.97962,-28.38381 -7.96738,-55.27373 -8.96331,-18.92254 -21.91031,-29.37973 -12.947,-10.45719 -23.40419,-15.43681 -10.45719,-4.97961 -24.40011,-6.97146 -8.96331,-1.99184 -16.93069,-1.49388 -7.96739,0.49796 -18.92254,2.48981 -47.8043,11.95107 -66.72684,58.75945 -3.98369,9.95923 -4.97961,25.894 -0.99593,15.93477 0.99592,25.894 5.97554,22.90623 21.9103,41.82876 15.93477,18.92254 35.85323,25.894 14.93885,4.97962 26.39196,5.97554 11.45312,0.99592 25.39604,-0.99592 z M 464.14677,-692.17164 q 21.91031,-5.97554 39.33896,-24.40012 17.42866,-18.42457 24.40012,-41.3308 2.98777,-9.95923 2.4898,-23.90215 -0.49796,-13.94292 -3.48573,-25.894 -6.97146,-21.91031 -23.40419,-38.841 -16.43273,-16.93069 -39.33896,-24.89807 -10.95515,-3.98369 -26.39195,-3.98369 -15.43681,0 -27.38789,3.98369 -22.90623,7.96738 -38.84099,22.90623 -15.93477,14.93884 -22.90623,36.84915 -3.98369,11.95107 -4.48166,28.3838 -0.49796,16.43273 2.48981,27.38788 16.93069,49.79615 64.735,63.73908 24.89807,6.97146 52.78391,0 z m 218.10714,628.427406 q 0,-0.995923 9.95923,-6.971461 l 4.97961,-2.987769 q 31.86954,-19.91846 65.23296,-48.302266 33.36342,-28.38381 55.27373,-55.27373 l 8.9633,-9.95923 h 173.2906 V -62.748311 H 840.60567 q -158.35176,0 -158.35176,-0.995923 z"
     id="path2024"
     inkscape:connector-curvature="0"
     style="fill:#000000;stroke-width:0.99592298" />
</svg>
