<svg xmlns="http://www.w3.org/2000/svg" viewBox="0 -1000 1000 1000">
	<path fill="#000000" d="M404 87Q358 83 319.5 72Q281 61 244 43Q219 30 194 14Q158 -11 130 -39Q87 -82 57 -134Q27 -186 13 -243Q-13 -351 13 -458Q36 -549 96 -624Q136 -675 188.5 -711.5Q241 -748 302 -767Q348 -782 400 -787Q452 -792 498 -785Q602 -770 682 -715Q718 -691 746 -663Q799 -612 832 -545Q855 -498 866 -450.5Q877 -403 877 -350Q877 -318 874 -294Q871 -270 864 -243Q853 -201 837 -166.5Q821 -132 793 -91Q789 -84 773.5 -66.5Q758 -49 748.5 -39.5Q739 -30 722 -15.5Q705 -1 698 4Q655 33 621.5 49Q588 65 545 75Q514 83 473 86.5Q432 90 404 87ZM467 22Q494 13 512 -9Q530 -31 532.5 -59.5Q535 -88 521 -113Q516 -123 505 -134Q494 -145 484 -150Q451 -168 415 -158.5Q379 -149 359 -117Q351 -104 348.5 -94Q346 -84 346 -68Q346 -56 346.5 -50.5Q347 -45 350 -38Q357 -16 373.5 -0.5Q390 15 411 21L427 26Q434 27 446.5 25.5Q459 24 467 22ZM223 -120Q267 -135 284 -180Q288 -192 288 -208.5Q288 -225 284 -238Q273 -272 241 -290.5Q209 -309 175.5 -301Q142 -293 122.5 -270Q103 -247 101 -214.5Q99 -182 116.5 -156.5Q134 -131 163.5 -120.5Q193 -110 223 -120ZM711 -120Q724 -124 737.5 -133Q751 -142 758 -152Q780 -182 777 -217Q774 -252 748 -277Q734 -290 714 -297.5Q694 -305 677 -303Q649 -300 627.5 -284Q606 -268 595 -242Q592 -235 591.5 -230Q591 -225 591 -209.5Q591 -194 591.5 -189Q592 -184 595 -177Q614 -131 662 -118Q672 -115 685.5 -115.5Q699 -116 711 -120ZM219 -401Q241 -407 259 -424Q277 -441 284 -463Q288 -475 288 -492Q288 -509 284 -520Q276 -541 262 -556.5Q248 -572 223 -581Q207 -586 193 -585.5Q179 -585 162 -579Q134 -569 117.5 -545Q101 -521 101 -491Q101 -473 108.5 -454.5Q116 -436 129 -424Q147 -407 171 -401Q195 -395 219 -401ZM701 -399Q731 -405 751 -426.5Q771 -448 776 -476.5Q781 -505 768 -532Q759 -551 746 -561.5Q733 -572 722.5 -577Q712 -582 698 -584Q689 -586 681 -585.5Q673 -585 662 -583Q614 -571 595 -524Q591 -514 590 -498Q589 -482 591 -472Q597 -449 613 -430Q629 -411 649 -404Q664 -399 675.5 -398Q687 -397 701 -399ZM466 -543Q488 -549 505.5 -567.5Q523 -586 530 -609Q533 -619 532.5 -633Q532 -647 529 -659Q522 -681 505.5 -698Q489 -715 466 -723Q455 -727 439.5 -727Q424 -727 412 -723Q389 -715 373 -700Q357 -685 350 -663Q346 -651 345.5 -634.5Q345 -618 348 -607Q365 -557 413 -543Q438 -536 466 -543ZM685 88Q685 87 695 81L700 78Q732 58 765.5 29.5Q799 1 821 -26L830 -36H1004V89H844Q685 89 685 88Z"/>
</svg>