<?xml version="1.0" encoding="UTF-8" standalone="no"?>
<svg
   xmlns:dc="http://purl.org/dc/elements/1.1/"
   xmlns:cc="http://creativecommons.org/ns#"
   xmlns:rdf="http://www.w3.org/1999/02/22-rdf-syntax-ns#"
   xmlns:svg="http://www.w3.org/2000/svg"
   xmlns="http://www.w3.org/2000/svg"
   height="1000"
   width="999.90668"
   id="svg2078"
   version="1.1"
   viewBox="0 -1000 999.90668 1000">
  <metadata
     id="metadata2084">
    <rdf:RDF>
      <cc:Work
         rdf:about="">
        <dc:format>image/svg+xml</dc:format>
        <dc:type
           rdf:resource="http://purl.org/dc/dcmitype/StillImage" />
        <dc:title></dc:title>
      </cc:Work>
    </rdf:RDF>
  </metadata>
  <defs
     id="defs2082" />
  <path
     id="path2024"
     d="m 442.53906,-939.88119 c -14.34233,-0.0726 -29.06509,0.61597 -44.16992,2.06836 -34.52533,3.31973 -67.05801,9.96066 -97.59961,19.91992 -40.50087,12.615 -78.17977,31.03931 -113.03711,55.27344 -34.85726,24.23413 -65.56504,53.28124 -92.123045,87.14258 -39.836867,49.7962 -67.391243,104.90487 -82.662109,165.32422 -17.2626674,71.04246 -17.2626674,142.41658 0,214.12304 9.295333,37.84507 23.901912,74.02933 43.820312,108.55469 19.918467,34.52533 44.153322,66.06349 72.703122,94.61328 18.5906,18.59057 39.83615,36.18449 63.73828,52.7832 16.59874,10.62318 33.19821,20.25148 49.79688,28.88282 24.56613,11.951078 49.62941,21.577418 75.19141,28.880858 25.56206,7.30343 53.61465,12.28365 84.15625,14.93945 18.5906,1.99184 41.49688,1.82577 68.71875,-0.49805 27.22186,-2.32382 51.12261,-6.14154 71.70507,-11.45312 28.54974,-6.63949 53.94712,-15.27135 76.18946,-25.894528 22.24226,-10.62318 47.6377,-25.5619 76.1875,-44.81641 4.6476,-3.31974 12.61521,-9.79266 23.90234,-19.41992 11.28713,-9.62726 20.08505,-17.59483 26.39258,-23.90235 6.23034,-6.23032 14.42001,-15.07558 24.53711,-26.48828 -37.15237,0.10243 -74.30959,-0.55081 -111.45703,0.28906 -28.90718,4.2333 -61.54462,-8.20241 -75.68555,-34.77539 -14.30149,-37.04153 -6.06824,-77.34176 -8.43945,-115.875 -5.70841,-32.39627 12.69101,-69.12684 44.75781,-79.65429 14.28261,-2.05745 28.61598,-3.25519 42.97656,-3.93555 3.92846,-0.87249 7.95879,-1.54246 12.10156,-1.98633 7.06552,-0.83121 14.52119,-0.42747 22.36719,1.21289 28.52828,-0.058 57.10637,0.98178 85.58203,0.71094 0.11979,-42.70382 0.67729,-85.41444 -0.25976,-128.11328 -3.17959,-27.95736 9.58559,-59.21347 35.77539,-71.88281 8.92208,-2.9189 17.9743,-4.77225 27.10742,-5.92969 -4.7846,-12.36309 -10.18035,-24.7003 -16.20508,-37.01172 -21.91033,-44.4846 -50.45917,-83.65624 -85.64844,-117.51758 -18.5906,-18.5906 -39.8381,-35.85432 -63.74023,-51.78906 -53.11587,-36.5172 -114.19933,-59.75557 -183.25,-69.71484 -17.17969,-2.61429 -34.98954,-3.96719 -53.42969,-4.06055 z m -4.83008,61.82422 c 10.2912,0 19.08723,1.32858 26.39063,3.98438 15.27087,5.3116 28.38471,13.61137 39.33984,24.89843 10.95514,11.28713 18.75663,24.23298 23.4043,38.83984 1.99187,7.9674 3.15245,16.59927 3.48437,25.89454 0.33201,9.29533 -0.49641,17.26287 -2.48828,23.90234 -4.6476,15.2708 -12.78125,29.04701 -24.40039,41.33008 -11.61913,12.28306 -24.73297,20.41672 -39.33984,24.40039 -18.59053,4.64766 -36.18447,4.64766 -52.7832,0 -31.86954,-9.29527 -53.44725,-30.54082 -64.73438,-63.73828 -1.9918,-7.3034 -2.82217,-16.43354 -2.49023,-27.38868 0.332,-10.95519 1.82467,-20.41547 4.48047,-28.38281 4.6476,-14.60693 12.28305,-26.8904 22.90625,-36.8496 10.6232,-9.9592 23.57099,-17.59465 38.84179,-22.90625 7.9674,-2.6558 17.09747,-3.98438 27.38867,-3.98438 z m 244.56055,140.83008 c 4.10819,0.0622 8.40312,0.59194 12.88477,1.58789 9.29526,1.32786 17.42892,3.65097 24.40039,6.9707 6.97146,3.3198 14.77296,8.46603 23.40429,15.4375 8.63134,6.9714 15.93463,16.76384 21.91016,29.37891 8.63133,17.9266 11.28653,36.3509 7.9668,55.27343 -3.31974,18.92254 -11.61944,35.52195 -24.89844,49.79688 -13.279,14.27487 -29.87646,23.40305 -49.79492,27.38672 -9.29527,1.32793 -17.76109,1.66002 -25.39649,0.99609 -7.6354,-0.664 -16.43331,-2.65487 -26.39257,-5.97461 -13.27894,-4.6476 -25.23032,-13.27946 -35.85352,-25.89453 -10.62313,-12.615 -17.92642,-26.55732 -21.91016,-41.82812 -1.32786,-6.63954 -1.66002,-15.2714 -0.99609,-25.89454 0.66393,-10.6232 2.32467,-19.25506 4.98047,-25.89453 12.615,-31.2056 34.85703,-50.79236 66.72656,-58.75976 7.30347,-1.32787 13.61028,-2.15628 18.92188,-2.48828 1.3279,-0.083 2.67748,-0.1145 4.04687,-0.0937 z m -486.53906,0.0547 c 8.2786,0.10892 17.06603,1.6147 26.36133,4.51954 16.59866,5.97553 29.54457,14.10919 38.83984,24.40039 9.29533,10.2912 16.59856,22.40862 21.91016,36.35156 2.65573,7.3034 3.98437,16.59958 3.98437,27.88672 0,11.28713 -1.32864,20.91346 -3.98437,28.88086 -4.64767,14.60686 -12.94737,27.55466 -24.89844,38.84179 -11.95107,11.28714 -25.22907,18.92259 -39.83594,22.90625 -15.9348,3.98367 -31.86995,3.98367 -47.80469,0 -15.9348,-3.98366 -29.87705,-11.61911 -41.82812,-22.90625 -8.63133,-7.9674 -15.43642,-18.09388 -20.41602,-30.37695 -4.97966,-12.28307 -7.4707,-24.4005 -7.4707,-36.35156 0,-19.91847 5.47839,-37.84457 16.43359,-53.7793 10.95514,-15.9348 25.72783,-27.22186 44.31836,-33.86133 11.28714,-3.98366 21.57772,-6.14065 30.87305,-6.47265 1.16191,-0.0415 2.33492,-0.0546 3.51758,-0.0391 z m 650.14258,124.01368 c -4.29945,-0.0705 -7.85843,1.58753 -10.67774,4.9707 -3.22207,3.86649 -4.83398,8.05355 -4.83398,12.56445 v 189.45897 H 639.9375 c -3.86648,0.64441 -7.73312,2.57675 -11.59961,5.79882 -3.86649,3.22207 -5.79883,7.08871 -5.79883,11.59961 v 103.42969 c 0.64441,5.15531 2.57676,9.34238 5.79883,12.56445 3.22207,3.22207 7.08871,4.83399 11.59961,4.83399 h 190.42383 v 190.423828 c 0,3.86648 1.61191,7.73312 4.83398,11.59961 3.22207,3.86648 7.4111,5.80078 12.56641,5.80078 h 103.42773 c 3.86649,-0.64441 7.73312,-2.57871 11.59961,-5.80078 3.86648,-3.22207 5.79883,-7.08872 5.79883,-11.59961 V -267.93783 h 189.45901 c 5.1553,0 9.3443,-1.61192 12.5664,-4.83399 3.2221,-3.22207 4.832,-7.40914 4.832,-12.56445 v -103.42969 c 0.6444,-3.86649 -0.9655,-7.73313 -4.832,-11.59961 -3.8665,-3.86649 -8.0555,-5.79882 -12.5664,-5.79882 H 968.58789 v -189.45899 c -0.64441,-5.15531 -2.57676,-9.34238 -5.79883,-12.56445 -3.22207,-3.22207 -7.08871,-4.83399 -11.59961,-4.83399 H 847.76172 c -0.64442,-0.0806 -1.27447,-0.12665 -1.88867,-0.13671 z m -650.38282,156.96287 c 15.07761,0.12838 29.92045,4.41476 44.52735,12.85937 21.24633,12.28307 35.52075,29.71096 42.82422,52.28516 2.65573,8.63133 3.98437,18.42566 3.98437,29.38086 0,10.95513 -1.32864,20.41541 -3.98437,28.38281 -11.28714,29.87768 -31.53627,49.79663 -60.75,59.75586 -19.91847,6.63949 -39.67128,6.47341 -59.25782,-0.49805 -19.58646,-6.97146 -35.18952,-18.92284 -46.80859,-35.85351 -11.61913,-16.93074 -16.765365,-36.18534 -15.4375,-57.76368 1.32793,-21.57833 8.46511,-40.00263 21.41211,-55.27343 12.947,-15.2708 30.54289,-25.56145 52.78516,-30.87305 6.9507,-1.65988 13.85162,-2.4607 20.70507,-2.40234 z m 242.11329,141.05273 c 15.23645,-0.0204 30.04517,3.8915 44.42382,11.73438 6.63947,3.31974 13.61067,8.63016 20.91407,15.93359 7.30346,7.30343 12.61386,14.27458 15.93359,20.91406 9.29527,16.59872 13.113,34.36066 11.45312,53.28321 -1.65985,18.92253 -8.46494,35.6861 -20.41601,50.29296 -11.95107,14.60688 -26.88981,24.89946 -44.81641,30.875 -5.3116,1.3279 -12.11661,2.48845 -20.41601,3.48438 -8.29934,0.99592 -14.77226,1.16199 -19.41992,0.49805 l -15.93555,-4.97852 c -13.94293,-3.98369 -26.39252,-11.1209 -37.34766,-21.41211 -10.9552,-10.29121 -18.75669,-22.74079 -23.40429,-37.34766 -1.99187,-4.64764 -3.15238,-8.79749 -3.48438,-12.44921 -0.33193,-3.65172 -0.49805,-9.46231 -0.49805,-17.42969 0,-10.62318 0.83037,-19.25309 2.49024,-25.89258 1.65986,-6.63949 5.14543,-14.27492 10.45703,-22.90625 13.27893,-21.24635 31.86928,-35.0245 55.77148,-41.33203 8.21636,-2.16819 16.31393,-3.25689 24.29493,-3.26758 z m 344.46679,172.94727 c -6.19272,5.80311 -12.7564,11.65475 -19.6914,17.55468 -22.24227,18.92254 -43.98603,35.023758 -65.23243,48.302738 l -4.98046,2.98633 c -6.63947,3.98369 -9.95899,6.30871 -9.95899,6.97265 0,0.53013 35.19731,0.83848 102.5,0.94531 -2.14749,-25.53565 -2.65906,-51.140808 -2.63672,-76.761708 z"
     style="fill:#000000;stroke-width:0.99592298" />
</svg>
