<svg xmlns="http://www.w3.org/2000/svg" viewBox="0 -1000 1000 1000">
	<path fill="#000000" d="M887 -834H290V134H887Q918 134 944 118.5Q970 103 985 77.5Q1000 52 1000 21V-721Q1000 -752 985 -777.5Q970 -803 944 -818.5Q918 -834 887 -834ZM668 -124L641 -213H521L494 -124H367L524 -576H638L794 -124ZM97 -834V-659H48Q28 -659 14 -644.5Q0 -630 0 -610Q0 -590 14 -576Q28 -562 48 -562H97V-401H48Q28 -401 14 -386.5Q0 -372 0 -352Q0 -332 14 -318Q28 -304 48 -304H97V-143H48Q28 -143 14 -128.5Q0 -114 0 -94Q0 -74 14 -60Q28 -46 48 -46H97V134H194V-834Z"/>
</svg>