<svg xmlns="http://www.w3.org/2000/svg" viewBox="0 -1000 1000 1000">
	<path fill="#000000" d="M700 149Q675 146 650.5 134.5Q626 123 606 105Q591 90 580 70.5Q569 51 565 33L563 27H125V-538H0V-850H312V-538H187V-413L373 -412H559V-538H872V-225H559V-350H187V-39H376L565 -38L568 -48Q578 -96 614 -125.5Q650 -155 701 -160Q746 -165 789 -144Q810 -133 827.5 -115.5Q845 -98 855 -77Q874 -40 870.5 6Q867 52 842 87Q835 96 825 106Q815 116 807 121Q778 141 746 148Q738 150 723 150Q708 150 700 149ZM747 56V25H810V-37H747V-100H685V-37H622V25H685V87H747Z"/>
</svg>