<svg xmlns="http://www.w3.org/2000/svg" viewBox="0 -1000 1000 1000">
	<path fill="#000000" d="M475 145Q464 141 453.5 130.5Q443 120 437 108Q429 89 432 68Q435 47 449 30Q453 25 465.5 18Q478 11 486 9Q489 8 489.5 1Q490 -6 490 -35V-77H420Q350 -77 345 -81Q340 -85 308 -142L274 -201Q273 -202 237 -179L212 -163Q204 -158 202.5 -156Q201 -154 202 -150Q208 -123 202 -106Q196 -86 180.5 -72.5Q165 -59 144.5 -56.5Q124 -54 103.5 -63Q83 -72 72 -91.5Q61 -111 63 -133.5Q65 -156 81 -174Q99 -196 129 -197Q144 -198 155 -195Q166 -192 177 -185L188 -177L224 -199L261 -220L257 -227Q235 -263 212.5 -304.5Q190 -346 190 -350Q190 -356 227 -420Q264 -484 264 -485Q264 -486 253.5 -493Q243 -500 230 -508L195 -530L182 -520Q160 -502 132 -503.5Q104 -505 84.5 -524Q65 -543 65 -572Q65 -589 69.5 -599.5Q74 -610 86 -622Q98 -634 109.5 -638.5Q121 -643 138 -643Q160 -643 177 -631Q194 -619 202 -599.5Q210 -580 205 -558L203 -550L276 -508Q279 -511 309 -562Q339 -615 342 -618Q345 -621 358 -622Q372 -623 418 -623H490V-666Q490 -696 489.5 -703Q489 -710 487 -710Q481 -710 469 -717Q457 -724 450 -731Q440 -742 436 -753Q432 -764 431 -779Q431 -806 446.5 -824Q462 -842 485 -847.5Q508 -853 530 -844Q552 -835 564 -811Q569 -802 570 -796.5Q571 -791 571 -779Q571 -748 549 -727Q541 -720 531.5 -715Q522 -710 516 -710Q514 -710 513.5 -703.5Q513 -697 513 -666V-623H585Q631 -623 646 -622Q658 -621 661 -618Q664 -615 693 -564Q722 -513 723.5 -511.5Q725 -510 736.5 -516Q748 -522 761 -530L797 -551V-571Q797 -590 801 -601Q814 -628 842 -638.5Q870 -649 897 -636Q916 -627 926.5 -610Q937 -593 936 -571Q936 -562 934.5 -556.5Q933 -551 929 -541Q918 -520 898 -510.5Q878 -501 856 -504Q834 -507 817 -523L807 -532L738 -490L749 -471Q762 -447 775 -424Q813 -358 813 -351.5Q813 -345 777 -284Q755 -247 748.5 -234Q742 -221 744 -219Q749 -215 780 -197Q798 -185 805.5 -181.5Q813 -178 815 -180Q836 -194 852.5 -198Q869 -202 888.5 -196.5Q908 -191 921 -174.5Q934 -158 936.5 -137Q939 -116 929.5 -95.5Q920 -75 899.5 -64.5Q879 -54 856.5 -57Q834 -60 817 -77Q804 -90 799 -108.5Q794 -127 798 -147L800 -155L765 -177Q731 -199 728.5 -196.5Q726 -194 696 -141Q665 -86 661.5 -82.5Q658 -79 648 -78Q635 -77 586 -77H515V-35L516 8L527 12Q540 17 551 27Q562 37 567 50Q571 59 572 64Q573 69 572 83Q571 105 562 119Q553 133 534 143Q526 147 520.5 148.5Q515 150 504 150Q483 148 475 145ZM640 -187Q644 -191 644 -214Q644 -237 642 -254Q638 -282 618.5 -303.5Q599 -325 572 -332Q559 -336 502.5 -336Q446 -336 434 -333Q405 -325 385 -303.5Q365 -282 361 -254Q359 -238 359 -214.5Q359 -191 362 -187L366 -182H637ZM532 -384Q544 -389 555 -401.5Q566 -414 569 -425Q578 -450 568 -474.5Q558 -499 534 -513Q527 -517 522 -518Q517 -519 501.5 -519Q486 -519 481 -518Q476 -517 468 -513Q445 -499 435 -474.5Q425 -450 433 -425Q437 -415 446.5 -403.5Q456 -392 465 -387Q480 -378 498.5 -377Q517 -376 532 -384Z"/>
</svg>