<?xml version="1.0" encoding="UTF-8" standalone="no"?>
<svg
   xmlns:dc="http://purl.org/dc/elements/1.1/"
   xmlns:cc="http://creativecommons.org/ns#"
   xmlns:rdf="http://www.w3.org/1999/02/22-rdf-syntax-ns#"
   xmlns:svg="http://www.w3.org/2000/svg"
   xmlns="http://www.w3.org/2000/svg"
   xmlns:sodipodi="http://sodipodi.sourceforge.net/DTD/sodipodi-0.dtd"
   xmlns:inkscape="http://www.inkscape.org/namespaces/inkscape"
   viewBox="0 -1000 1000 1000"
   version="1.1"
   id="svg1974"
   sodipodi:docname="npcgraph.svg"
   inkscape:version="0.92.5 (2060ec1f9f, 2020-04-08)">
  <metadata
     id="metadata1980">
    <rdf:RDF>
      <cc:Work
         rdf:about="">
        <dc:format>image/svg+xml</dc:format>
        <dc:type
           rdf:resource="http://purl.org/dc/dcmitype/StillImage" />
        <dc:title></dc:title>
      </cc:Work>
    </rdf:RDF>
  </metadata>
  <defs
     id="defs1978" />
  <sodipodi:namedview
     pagecolor="#ffffff"
     bordercolor="#666666"
     borderopacity="1"
     objecttolerance="10"
     gridtolerance="10"
     guidetolerance="10"
     inkscape:pageopacity="0"
     inkscape:pageshadow="2"
     inkscape:window-width="1542"
     inkscape:window-height="754"
     id="namedview1976"
     showgrid="false"
     inkscape:zoom="0.419"
     inkscape:cx="533.04852"
     inkscape:cy="579.9793"
     inkscape:window-x="2298"
     inkscape:window-y="289"
     inkscape:window-maximized="0"
     inkscape:current-layer="svg1974" />
  <path
     d="M 474.12567,15.052501 Q 462.67528,10.888721 451.74535,-0.04120435 440.81543,-10.971128 434.56976,-23.462471 q -8.32757,-19.777958 -5.20472,-41.637806 3.12283,-21.859853 17.69606,-39.555923 4.16378,-5.20472 17.1756,-12.49134 13.01181,-7.28662 21.33938,-9.36851 3.12283,-1.04095 3.6433,-8.32756 0.52047,-7.28661 0.52047,-37.47403 v -43.71969 h -72.86616 q -72.86616,0 -78.07089,-4.16378 -5.20472,-4.16379 -38.51496,-63.49766 l -35.39215,-61.41576 q -1.04094,-1.04095 -38.51497,22.90079 l -26.02363,16.65512 q -8.32756,5.20473 -9.88897,7.28662 -1.56142,2.08189 -0.52047,6.24567 6.24567,28.10552 0,45.80159 -6.24568,20.8189 -22.38033,34.87166 -16.13465,14.05276 -37.47402,16.65512 -21.33938,2.60236 -42.67876,-6.76614 -21.339372,-9.36851 -32.789769,-29.66694 -11.450397,-20.29843 -9.368507,-43.7197 2.081891,-23.42126 18.737014,-42.15827 18.737016,-22.9008 49.965372,-23.94174 15.61417,-1.04095 27.06457,2.08188 11.4504,3.12285 22.9008,10.40946 l 11.45039,8.32756 37.47403,-22.90079 38.51497,-21.85985 -4.16378,-7.28662 q -22.9008,-37.47402 -46.32206,-80.67325 -23.42127,-43.19922 -23.42127,-47.36301 0,-6.24566 38.51497,-72.86616 38.51498,-66.62048 38.51498,-67.66143 0,-1.04094 -10.92992,-8.32756 -10.92994,-7.28662 -24.46222,-15.61418 l -36.43308,-22.90079 -13.53229,10.40945 q -22.90079,18.73702 -52.04725,17.17559 -29.14647,-1.56142 -49.444905,-21.33937 -20.29843,-19.77796 -20.29843,-49.96537 0,-17.69607 4.684253,-28.62599 4.684254,-10.92992 17.175595,-23.42127 12.491343,-12.49134 24.462214,-17.17559 11.970873,-4.68426 29.666943,-4.68426 22.90079,0 40.59686,12.49135 17.69607,12.49134 26.02363,32.78977 8.32756,20.29843 3.12283,43.19922 l -2.08189,8.32756 75.989,43.7197 q 3.12283,-3.12283 34.35119,-56.21104 31.22836,-55.17009 34.35119,-58.29292 3.12283,-3.12284 16.65512,-4.16379 14.57323,-1.04094 62.45671,-1.04094 h 74.94805 v -44.76064 q 0,-31.22836 -0.52047,-38.51497 -0.52047,-7.28662 -2.60236,-7.28662 -6.24567,0 -18.73702,-7.28662 -12.49134,-7.28661 -19.77795,-14.57323 -10.40945,-11.45039 -14.57324,-22.9008 -4.16377,-11.45039 -5.20472,-27.06457 0,-28.10555 16.13465,-46.84252 16.13465,-18.73704 40.07638,-24.46224 23.94174,-5.7252 46.84254,3.6433 22.90079,9.3685 35.39214,34.3512 5.20472,9.36853 6.24566,15.09373 1.04095,5.72519 1.04095,18.21653 0,32.2693 -22.90079,54.12915 -8.32756,7.28662 -18.21655,12.49134 -9.88897,5.20473 -16.13465,5.20473 -2.08189,0 -2.60236,6.76615 -0.52047,6.76614 -0.52047,39.03544 v 44.76064 h 74.94805 q 47.88348,0 63.49766,1.04094 12.49134,1.04095 15.61417,4.16379 3.12284,3.12283 33.31025,56.21104 30.18741,53.08819 31.74883,54.64961 1.56141,1.56142 13.53229,-4.68425 11.97086,-6.24567 25.50315,-14.57323 l 37.47403,-21.85985 v -20.8189 q 0,-19.77796 4.16378,-31.22836 13.53229,-28.10552 42.67875,-39.03544 29.14646,-10.92992 57.25199,2.60236 19.77795,9.36851 30.70787,27.06458 10.92993,17.69606 9.88899,40.59686 0,9.3685 -1.56143,15.0937 -1.56141,5.7252 -5.72519,16.13465 -11.4504,21.85985 -32.2693,31.74883 -20.81891,9.88898 -43.7197,6.76614 -22.90079,-3.12283 -40.59686,-19.77796 l -10.40945,-9.3685 -71.82522,43.71969 11.4504,19.77797 q 13.53228,24.98268 27.06457,48.92442 39.55592,68.70237 39.55592,75.46852 0,6.76614 -37.47403,70.2638 -22.90079,38.51497 -29.66694,52.04725 -6.76613,13.53229 -4.68425,15.61418 5.20473,4.16379 37.47403,22.9008 18.73701,12.49134 26.5441,16.13465 7.80709,3.6433 9.88898,1.56141 21.85985,-14.57323 39.03544,-18.73701 17.1756,-4.16378 37.47403,1.56142 20.29843,5.7252 33.83072,22.90079 13.53228,17.1756 16.13465,39.03545 2.60236,21.85984 -7.28662,43.19922 -9.88897,21.33938 -31.22835,32.2693 -21.33938,10.92992 -44.76065,7.80709 -23.42126,-3.12283 -41.11733,-20.8189 -13.53228,-13.53229 -18.73701,-32.78978 -5.20473,-19.25748 -1.04095,-40.07639 l 2.08189,-8.32756 -36.43307,-22.90079 q -35.39215,-22.90079 -37.99451,-20.29843 -2.60236,2.60236 -33.83071,57.77245 -32.2693,57.25199 -35.91261,60.8953 -3.64331,3.6433 -14.05276,4.68425 -13.53229,1.04095 -64.5386,1.04095 h -73.90711 v 43.71969 l 1.04094,44.76064 11.4504,4.16379 q 13.53229,5.20472 24.98269,15.61417 11.45039,10.409461 16.65512,23.941744 4.16378,9.368513 5.20473,14.573238 1.04094,5.204726 0,19.777959 -1.04095,22.900793 -10.40946,37.474025 -9.3685,14.5732328 -29.14646,24.982685 -8.32756,4.16378 -14.05276,5.725198 -5.7252,1.561418 -17.17559,1.561418 -21.85986,-2.081891 -30.18742,-5.204726 z M 645.88162,-330.5413 q 4.16379,-4.16378 4.16379,-28.10552 0,-23.94174 -2.08189,-41.6378 -4.16379,-29.14647 -24.46221,-51.5268 -20.29844,-22.38031 -48.40395,-29.66693 -13.53229,-4.16378 -72.34569,-4.16378 -58.81341,0 -71.30475,3.12283 -30.18741,8.32757 -51.00631,30.70788 -20.8189,22.38033 -24.98269,51.5268 -2.08189,16.65512 -2.08189,41.11733 0,24.46221 3.12285,28.62599 l 4.16377,5.20472 H 642.75879 Z M 533.45955,-535.6075 q 12.49134,-5.20473 23.94174,-18.21654 11.4504,-13.01181 14.57323,-24.46221 9.3685,-26.02363 -1.04095,-51.52679 -10.40945,-25.50315 -35.39213,-40.07639 -7.28662,-4.16377 -12.49134,-5.20472 -5.20472,-1.04095 -21.33937,-1.04095 -16.13465,0 -21.33938,1.04095 -5.20473,1.04095 -13.53229,5.20472 -23.94174,14.57324 -34.35119,40.07639 -10.40945,25.50316 -2.08189,51.52679 4.16378,10.40945 14.05276,22.38032 9.88898,11.97087 19.25748,17.1756 15.61418,9.36851 34.87166,10.40945 19.2575,1.04094 34.87167,-7.28662 z"
     id="path1972"
     inkscape:connector-curvature="0"
     style="fill:#000000;stroke-width:1.04094517" />
</svg>
