<?xml version="1.0" encoding="UTF-8" standalone="no"?>
<svg
   xmlns:dc="http://purl.org/dc/elements/1.1/"
   xmlns:cc="http://creativecommons.org/ns#"
   xmlns:rdf="http://www.w3.org/1999/02/22-rdf-syntax-ns#"
   xmlns:svg="http://www.w3.org/2000/svg"
   xmlns="http://www.w3.org/2000/svg"
   xmlns:sodipodi="http://sodipodi.sourceforge.net/DTD/sodipodi-0.dtd"
   xmlns:inkscape="http://www.inkscape.org/namespaces/inkscape"
   viewBox="0 -1000 1000 1000"
   version="1.1"
   id="svg1974"
   sodipodi:docname="npcgraph.svg"
   inkscape:version="0.92.5 (2060ec1f9f, 2020-04-08)">
  <metadata
     id="metadata1980">
    <rdf:RDF>
      <cc:Work
         rdf:about="">
        <dc:format>image/svg+xml</dc:format>
        <dc:type
           rdf:resource="http://purl.org/dc/dcmitype/StillImage" />
        <dc:title></dc:title>
      </cc:Work>
    </rdf:RDF>
  </metadata>
  <defs
     id="defs1978" />
  <sodipodi:namedview
     pagecolor="#ffffff"
     bordercolor="#666666"
     borderopacity="1"
     objecttolerance="10"
     gridtolerance="10"
     guidetolerance="10"
     inkscape:pageopacity="0"
     inkscape:pageshadow="2"
     inkscape:window-width="1848"
     inkscape:window-height="1016"
     id="namedview1976"
     showgrid="false"
     inkscape:zoom="0.838"
     inkscape:cx="500"
     inkscape:cy="500"
     inkscape:window-x="72"
     inkscape:window-y="27"
     inkscape:window-maximized="1"
     inkscape:current-layer="svg1974" />
  <path
     d="m 475.14343,-5.2068966 q -11,-4 -21.5,-14.5000004 -10.5,-10.5 -16.5,-22.5 -8,-19 -5,-40 3,-21.000003 17,-38.000003 4,-5 16.5,-12 12.5,-7 20.5,-9 3,-1 3.5,-8 0.5,-7 0.5,-36 v -42 h -70 q -70,0 -75,-4 -5,-4 -37,-61 l -34,-59 q -1,-1 -37,22 l -25,16 q -8,5 -9.5,7 -1.5,2 -0.5,6 6,27 0,44 -6,20 -21.5,33.5 -15.5,13.5 -36,16 -20.5,2.5 -41,-6.5 -20.500001,-9 -31.500001,-28.5 -11,-19.5 -9,-42 2,-22.5 18,-40.5 18,-22 48.000001,-23 15,-1 26,2 11,3 22,10 l 11,8 36,-22 37,-21 -4,-7 q -22,-36 -44.5,-77.5 -22.5,-41.5 -22.5,-45.5 0,-6 37,-70 37,-64 37,-65 0,-1 -10.5,-8 -10.5,-7 -23.5,-15 l -35,-22 -13,10 q -22,18 -50,16.5 -28,-1.5 -47.500001,-20.5 -19.5,-19 -19.5,-48 0,-17 4.5,-27.5 4.5,-10.5 16.5,-22.5 12,-12 23.500001,-16.5 11.5,-4.5 28.5,-4.5 22,0 39,12 17,12 25,31.5 8,19.5 3,41.5 l -2,8 73,42 q 3,-3 33,-54 30,-53 33,-56 3,-3 16,-4 14,-1 60,-1 h 72 v -43 q 0,-30 -0.5,-37 -0.5,-7 -2.5,-7 -6,0 -18,-7 -12,-7 -19,-14 -10,-11 -14,-22 -4,-11 -5,-26 0,-27 15.5,-45 15.5,-18 38.5,-23.5 23,-5.5 45,3.5 22,9 34,33 5,9 6,14.5 1,5.5 1,17.5 0,31 -22,52 -8,7 -17.5,12 -9.5,5 -15.5,5 -2,0 -2.5,6.5 -0.5,6.5 -0.5,37.5 v 43 h 72 q 46,0 61,1 12,1 15,4 3,3 32,54 29,51 30.5,52.5 1.5,1.5 13,-4.5 11.5,-6 24.5,-14 l 36,-21 v -20 q 0,-19 4,-30 13,-27 41,-37.5 28,-10.5 55,2.5 19,9 29.5,26 10.5,17 9.5,39 0,9 -1.5,14.5 -1.5,5.5 -5.5,15.5 -11,21 -31,30.5 -20,9.5 -42,6.5 -22,-3 -39,-19 l -10,-9 -69,42 11,19 q 13,24 26,47 38,66 38,72.5 0,6.5 -36,67.5 -22,37 -28.5,50 -6.5,13 -4.5,15 5,4 36,22 18,12 25.5,15.5 7.5,3.5 9.5,1.5 21,-14 37.5,-18 16.5,-4 36,1.5 19.5,5.5 32.5,22 13,16.5 15.5,37.5 2.5,21 -7,41.5 -9.5,20.5 -30,31 -20.5,10.5 -43,7.5 -22.5,-3 -39.5,-20 -13,-13 -18,-31.5 -5,-18.5 -1,-38.5 l 2,-8 -35,-22 q -34,-22 -36.5,-19.5 -2.5,2.5 -32.5,55.5 -31,55 -34.5,58.5 -3.5,3.5 -13.5,4.5 -13,1 -62,1 h -71 v 42 l 1,43 11,4 q 13,5 24,15 11,10 16,23 4,9.000003 5,14.000003 1,5 0,19 -1,22 -10,36 -9,14 -28,24.0000004 -8,4 -13.5,5.5 -5.5,1.50000005 -16.5,1.50000005 -21,-2.00000005 -29,-5.00000005 z m 165,-332.0000034 q 4,-4 4,-27 0,-23 -2,-40 -4,-28 -23.5,-49.5 -19.5,-21.5 -46.5,-28.5 -13,-4 -69.5,-4 -56.5,0 -68.5,3 -29,8 -49,29.5 -20,21.5 -24,49.5 -2,16 -2,39.5 0,23.5 3,27.5 l 4,5 h 271 z m -108,-197 q 12,-5 23,-17.5 11,-12.5 14,-23.5 9,-25 -1,-49.5 -10,-24.5 -34,-38.5 -7,-4 -12,-5 -5,-1 -20.5,-1 -15.5,0 -20.5,1 -5,1 -13,5 -23,14 -33,38.5 -10,24.5 -2,49.5 4,10 13.5,21.5 9.5,11.5 18.5,16.5 15,9 33.5,10 18.5,1 33.5,-7 z"
     id="path1972"
     inkscape:connector-curvature="0"
     style="fill:#000000" />
</svg>
