<?xml version="1.0" encoding="UTF-8" standalone="no"?>
<!-- Created with Inkscape (http://www.inkscape.org/) -->

<svg
   width="95mm"
   height="95.184174mm"
   viewBox="0 0 95 95.184174"
   version="1.1"
   id="svg1"
   xml:space="preserve"
   xmlns="http://www.w3.org/2000/svg"
   xmlns:svg="http://www.w3.org/2000/svg"><defs
     id="defs1" /><g
     id="layer1"
     transform="translate(-101.25018,-28.231326)"><path
       style="fill:#000000"
       d="m 114.48165,122.95248 c -0.35669,-0.86823 -0.46412,-6.55664 -0.16628,-8.80448 0.16337,-1.23303 0.73646,-3.53233 1.27353,-5.10955 0.86055,-2.52717 0.93405,-2.93559 0.61902,-3.43958 -0.96641,-1.54613 -1.68582,-3.32944 -2.28753,-5.670438 -0.60904,-2.36953 -0.65301,-2.93232 -0.55255,-7.07231 0.12056,-4.9684 0.59088,-7.31345 2.04419,-10.19245 l 0.77342,-1.53214 -0.52077,-0.66206 c -0.77106,-0.98023 -2.09169,-4.05709 -2.5191,-5.86909 -0.48592,-2.06002 -0.48435,-7.21174 0.003,-9.26092 0.95598,-4.02109 2.90795,-7.46972 5.89773,-10.41976 l 1.9794,-1.95309 -0.29473,-2.29816 c -0.89386,-6.97 0.12117,-14.34319 2.52255,-18.32368 3.79523,-6.29092 9.9169,-5.21514 13.10518,2.30302 0.60407,1.42442 1.49365,4.92835 1.93084,7.60529 l 0.1618,0.99071 1.36798,-0.69321 c 3.6097,-1.82917 4.54208,-2.05168 8.66276,-2.06736 4.45146,-0.0169 5.74454,0.31995 10.3849,2.7056 0.10914,0.0561 0.19844,-0.15709 0.19844,-0.47378 0,-1.27114 1.14187,-6.06893 1.88852,-7.93496 1.89046,-4.72468 5.31436,-7.26026 8.6067,-6.37373 3.21729,0.86633 5.52118,4.37253 6.88288,10.47477 0.51014,2.28613 0.59347,10.11789 0.13221,12.4259 l -0.31536,1.57798 1.67079,1.59702 c 2.93367,2.80412 4.42384,5.16547 5.74125,9.09766 0.99173,2.96015 1.31424,6.81563 0.81158,9.70215 -0.38656,2.21976 -1.56964,5.35315 -2.56173,6.78475 l -0.72812,1.05066 0.82505,1.67311 c 3.0205,6.12526 2.79355,16.81679 -0.47015,22.148498 l -0.75587,1.23481 0.92484,2.58757 c 1.54692,4.32811 2.06259,9.9288 1.27006,13.79438 l -0.17629,0.85989 h -2.87735 c -2.94394,0 -3.13779,-0.0773 -2.61994,-1.04492 0.14157,-0.26453 0.3912,-1.34328 0.55472,-2.39723 0.49229,-3.17286 -0.38331,-7.76532 -2.23433,-11.71895 -0.52748,-1.12663 -0.95904,-2.33421 -0.95904,-2.68351 0,-0.3493 0.41716,-1.15036 0.92703,-1.78013 2.42764,-2.99856 3.18302,-5.941558 2.97221,-11.579848 -0.16235,-4.34201 -0.95593,-6.91472 -2.87361,-9.31589 -0.82384,-1.03156 -0.7329,-2.65657 0.21483,-3.8386 3.14989,-3.92864 4.03646,-7.84937 2.89491,-12.80239 -1.11489,-4.83735 -4.95672,-9.20691 -9.42704,-10.72199 -1.08949,-0.36925 -2.11119,-0.48062 -4.06537,-0.44312 -1.43559,0.0275 -2.82329,-0.064 -3.08378,-0.2034 -0.2605,-0.13941 -0.89532,-1.00752 -1.41071,-1.92914 -2.33489,-4.17517 -7.5767,-7.32838 -12.1825,-7.32838 -4.37671,0 -9.81449,3.20441 -11.96578,7.05127 -1.29683,2.31895 -1.59374,2.47563 -4.61387,2.43467 -4.12377,-0.0559 -7.00156,1.16266 -9.6539,4.08788 -5.36691,5.91908 -5.80343,14.06938 -1.05775,19.74958 1.18071,1.41322 1.27386,2.74913 0.27451,3.93679 -2.02849,2.41073 -3.22439,7.27798 -2.93673,11.95231 0.25276,4.10712 1.15231,6.768708 2.97354,8.798158 1.18709,1.32279 1.17856,2.39087 -0.0394,4.93228 -2.32379,4.84894 -2.87027,10.76982 -1.32738,14.38154 0.18151,0.4249 -0.0418,0.46302 -2.71262,0.46302 -2.52297,0 -2.93574,-0.0616 -3.10064,-0.46302 z m 16.40548,-73.351888 c 1.17014,-0.006 1.3718,-0.0932 1.74622,-0.75151 0.67115,-1.18012 0.26366,-7.423 -0.66511,-10.18978 -0.84513,-2.51757 -1.50673,-3.84915 -2.24358,-4.51554 -0.52186,-0.47196 -0.58837,-0.47593 -1.04545,-0.0623 -0.81482,0.7374 -1.81064,3.08626 -2.31529,5.4611 -0.48791,2.29606 -0.67637,8.64534 -0.2991,10.07669 l 0.18029,0.68399 1.65955,-0.34775 c 0.91276,-0.19125 2.25487,-0.35097 2.98247,-0.35492 z m 40.51795,-5.16322 c -0.0687,-2.03729 -0.31131,-4.52751 -0.53914,-5.53381 -0.45346,-2.00282 -1.69314,-4.61521 -2.39306,-5.04289 -0.63361,-0.38717 -1.46673,0.6589 -2.49831,3.13687 -1.42143,3.41442 -2.10725,10.0912 -1.21397,11.81859 0.37271,0.72075 0.51982,0.78257 1.91823,0.80613 0.833,0.014 2.1694,0.16286 2.96976,0.33073 l 1.45521,0.30521 0.21309,-1.05833 c 0.1172,-0.58208 0.15688,-2.72521 0.0882,-4.7625 z m -27.54396,46.40454 c -1.91075,-0.27835 -4.89908,-1.67147 -6.41173,-2.98905 -3.42988,-2.98758 -4.41548,-7.96793 -2.38633,-12.05835 3.50974,-7.075 13.53362,-9.7877 21.35288,-5.7786 2.50449,1.2841 4.43618,3.11829 5.75879,5.46812 0.97884,1.73906 0.99157,1.79904 0.99157,4.67209 0,2.69222 -0.058,3.02484 -0.77333,4.43664 -1.55592,3.07072 -5.32574,5.66876 -9.06693,6.24864 -2.18205,0.33822 -7.14489,0.33849 -9.46492,5.1e-4 z m 11.23539,-4.38772 c 5.34247,-2.54784 6.17127,-7.52404 1.91607,-11.50428 -0.72146,-0.67484 -1.77514,-1.46145 -2.34151,-1.74803 -1.32512,-0.67049 -4.48012,-1.38124 -6.10908,-1.37622 -2.99598,0.009 -6.88914,1.56192 -8.72911,3.48141 -1.18256,1.23367 -2.1944,3.53467 -2.19048,4.98134 0.006,2.28342 1.66869,4.77186 3.89732,5.83354 2.52094,1.20094 3.16754,1.30528 7.60366,1.22706 4.11517,-0.0726 4.28134,-0.0975 5.95313,-0.89482 z m -7.64498,-3.15974 c -0.54213,-0.37972 -0.599,-0.57929 -0.45808,-1.60746 0.14946,-1.09041 0.0952,-1.23588 -0.76281,-2.04509 -0.95503,-0.90071 -1.19621,-1.88558 -0.60622,-2.47557 0.39689,-0.39689 2.12359,-0.41641 2.5116,-0.0284 0.20907,0.20907 0.43862,0.20907 0.82927,0 0.78185,-0.41844 2.05902,-0.35475 2.54044,0.12668 0.66115,0.66114 0.4889,1.43715 -0.53291,2.40084 -0.86746,0.81812 -0.93372,0.98335 -0.77386,1.92958 0.1422,0.84165 0.0723,1.13735 -0.37422,1.58391 -0.66063,0.66063 -1.53424,0.70315 -2.37321,0.11551 z m -19.25091,-7.51827 c -1.7194,-1.10151 -2.06073,-3.22773 -0.8376,-5.21762 0.68962,-1.12195 1.73792,-1.64723 3.28736,-1.64723 1.11016,0 1.35472,0.11562 2.26209,1.06947 0.85034,0.8939 1.01715,1.25226 1.01602,2.18282 -0.002,1.31915 -0.86565,2.89276 -1.99835,3.63943 -1.01585,0.66964 -2.66081,0.65779 -3.72952,-0.0269 z m 37.31921,0.0406 c -1.03149,-0.629 -1.88374,-1.9876 -2.09879,-3.34578 -0.14135,-0.8927 -0.0473,-1.20905 0.64157,-2.15708 2.1355,-2.93906 6.64432,-1.14102 6.64432,2.64964 0,2.60201 -2.94369,4.22121 -5.1871,2.85322 z"
       id="path1" /></g></svg>
