<svg xmlns="http://www.w3.org/2000/svg" viewBox="0 -1000 1000 1000">
	<path fill="#000000" d="M922 -441Q939 -492 933.5 -545.5Q928 -599 900.5 -645.5Q873 -692 830 -723.5Q787 -755 734.5 -766Q682 -777 629 -766Q593 -806 544 -828Q495 -850 441 -850Q387 -850 338 -828Q289 -806 253 -766.5Q217 -727 201 -676Q148 -665 104.5 -633.5Q61 -602 34 -555Q7 -508 1.5 -455Q-4 -402 12.5 -351Q29 -300 65 -259Q48 -208 53.5 -155Q59 -102 86 -55Q113 -8 156.5 23.5Q200 55 252.5 66Q305 77 358 66Q393 107 442.5 129Q492 151 546 150.5Q600 150 649 128Q698 106 734 66.5Q770 27 786 -25Q839 -35 882.5 -66.5Q926 -98 953 -145Q980 -192 985.5 -245.5Q991 -299 974.5 -350Q958 -401 922 -441ZM546 85Q513 85 482.5 73.5Q452 62 426 41L430 39L631 -77Q638 -81 642.5 -89Q647 -97 647 -105V-386L731 -338Q733 -336 733 -335V-103Q733 -52 708 -9Q683 34 640 59.5Q597 85 546 85ZM143 -87Q126 -116 120.5 -148.5Q115 -181 121 -213Q123 -211 127 -209L326 -94Q342 -85 359 -94L602 -235V-138L601 -135L399 -19Q355 7 305.5 6.5Q256 6 212.5 -18.5Q169 -43 143 -87ZM91 -522Q108 -551 132.5 -572Q157 -593 188 -604V-367Q188 -359 192.5 -351Q197 -343 205 -339L448 -199L364 -150Q363 -149 361 -150L159 -266Q115 -292 90.5 -335Q66 -378 65.5 -428Q65 -478 91 -522ZM782 -361L539 -502L623 -550Q625 -552 626 -550L827 -434Q871 -408 896 -365Q921 -322 921.5 -272Q922 -222 896 -178Q879 -149 854.5 -128Q830 -107 799 -96V-333Q799 -351 782 -361ZM866 -487Q864 -489 860 -491L661 -606Q654 -611 645 -611Q636 -611 628 -606L385 -465V-563L386 -565L588 -681Q632 -707 681.5 -706.5Q731 -706 774.5 -681.5Q818 -657 844 -613Q860 -584 865.5 -551.5Q871 -519 866 -487ZM339 -314L255 -363Q254 -363 254 -365V-597Q254 -648 279 -691Q304 -734 347 -759.5Q390 -785 441 -785Q474 -785 504.5 -773.5Q535 -762 561 -741L555 -738L356 -623Q348 -618 343.5 -610.5Q339 -603 340 -595ZM385 -413L493 -475L602 -413V-288L493 -225L385 -288Z"/>
</svg>