<?xml version="1.0" encoding="UTF-8" standalone="no"?>
<svg
   xmlns:dc="http://purl.org/dc/elements/1.1/"
   xmlns:cc="http://creativecommons.org/ns#"
   xmlns:rdf="http://www.w3.org/1999/02/22-rdf-syntax-ns#"
   xmlns:svg="http://www.w3.org/2000/svg"
   xmlns="http://www.w3.org/2000/svg"
   xmlns:sodipodi="http://sodipodi.sourceforge.net/DTD/sodipodi-0.dtd"
   xmlns:inkscape="http://www.inkscape.org/namespaces/inkscape"
   viewBox="0 -1000 1000 1000"
   version="1.1"
   id="svg8512"
   sodipodi:docname="openai.svg"
   inkscape:version="0.92.5 (2060ec1f9f, 2020-04-08)">
  <metadata
     id="metadata8518">
    <rdf:RDF>
      <cc:Work
         rdf:about="">
        <dc:format>image/svg+xml</dc:format>
        <dc:type
           rdf:resource="http://purl.org/dc/dcmitype/StillImage" />
        <dc:title></dc:title>
      </cc:Work>
    </rdf:RDF>
  </metadata>
  <defs
     id="defs8516" />
  <sodipodi:namedview
     pagecolor="#ffffff"
     bordercolor="#666666"
     borderopacity="1"
     objecttolerance="10"
     gridtolerance="10"
     guidetolerance="10"
     inkscape:pageopacity="0"
     inkscape:pageshadow="2"
     inkscape:window-width="1542"
     inkscape:window-height="754"
     id="namedview8514"
     showgrid="false"
     inkscape:zoom="0.4325"
     inkscape:cx="326.8535"
     inkscape:cy="458.2322"
     inkscape:window-x="2298"
     inkscape:window-y="289"
     inkscape:window-maximized="0"
     inkscape:current-layer="svg8512" />
  <path
     d="m 918.59755,-589.14666 q 16.60714,-49.82141 11.23424,-102.08505 -5.3729,-52.26363 -32.23738,-97.68904 -26.86449,-45.4254 -68.87078,-76.19745 -42.00629,-30.77205 -93.29303,-41.51785 -51.28675,-10.74579 -103.06194,0 -35.16806,-39.07561 -83.03569,-60.5672 -47.86763,-21.49163 -100.61971,-21.49163 -52.75209,0 -100.61972,21.49163 -47.86763,21.49159 -83.03568,60.07876 -35.16806,38.58717 -50.79831,88.40858 -51.77519,10.7458 -94.26992,41.51785 -42.494738,30.77204 -68.87078,76.68589 -26.376041,45.91385 -31.748939,97.68905 -5.372897,51.77519 10.745795,101.5966 16.118692,49.82141 51.286747,89.87392 -16.607137,49.82141 -11.23424,101.5966 5.372898,51.7752 31.748937,97.68905 26.37605,45.91385 68.87078,76.6859 42.49473,30.77205 93.78148,41.517836 51.28675,10.745797 103.06194,0 34.19117,40.05251 82.54724,61.544099 48.35608,21.49159 101.10816,21.003145 52.75208,-0.488445 100.61971,-21.980035 47.86764,-21.491589 83.03569,-60.078759 35.16806,-38.587176 50.7983,-89.385476 51.7752,-9.7689 94.26993,-40.54095 42.49473,-30.77205 68.87077,-76.6859 26.37605,-45.91385 31.74894,-98.17749 5.3729,-52.26364 -10.74579,-102.08505 -16.11869,-49.82141 -51.28675,-88.89703 z m -367.3108,513.844367 q -32.23738,0 -62.03254,-11.23424 -29.79516,-11.234241 -55.19431,-31.748937 l 3.90756,-1.95378 196.35498,-113.31929 q 6.83823,-3.90756 11.23424,-11.72269 4.396,-7.81512 4.396,-15.63024 v -274.50621 l 82.0588,46.89074 q 1.95378,1.95378 1.95378,2.93067 v 226.63858 q 0,49.82141 -24.42226,91.8277 -24.42226,42.00629 -66.42855,66.91699 -42.00629,24.910707 -91.8277,24.910707 z M 157.59991,-243.32745 q -16.60714,-28.32982 -21.98004,-60.07876 -5.37289,-31.74894 0.48845,-63.00943 1.95378,1.95378 5.86134,3.90756 l 194.4012,112.3424 q 15.63024,8.79201 32.23738,0 l 237.38437,-137.74155 v 94.75837 l -0.97689,2.93067 -197.33186,113.31929 q -42.98318,25.39915 -91.33926,24.91071 -48.35607,-0.48845 -90.85081,-24.42226 -42.49473,-23.93382 -67.89388,-66.917 z M 106.8016,-668.27478 q 16.60714,-28.32982 40.54096,-48.84452 23.93382,-20.5147 54.21742,-31.2605 v 231.52303 q 0,7.81513 4.39601,15.63025 4.396,7.81512 12.21113,11.72269 l 237.38437,136.76466 -82.0588,47.86763 q -0.97689,0.97689 -2.93067,0 L 173.23016,-418.19083 q -42.98318,-25.39915 -66.917,-67.40544 -23.933816,-42.00629 -24.422261,-90.85081 -0.488446,-48.84452 24.910701,-91.8277 z m 675.03129,157.27936 -237.38437,-137.74155 82.05879,-46.89074 q 1.95378,-1.95378 2.93067,0 l 196.35498,113.31929 q 42.98318,25.39915 67.40544,67.40544 24.42226,42.00628 24.91071,90.8508 0.48844,48.84453 -24.91071,91.8277 -16.60714,28.32983 -40.54095,48.84453 -23.93382,20.5147 -54.21742,31.26049 v -231.52303 q 0,-17.58403 -16.60714,-27.35293 z m 82.0588,-123.0882 q -1.95378,-1.95378 -5.86135,-3.90756 l -194.40119,-112.3424 q -6.83823,-4.88445 -15.63025,-4.88445 -8.79201,0 -16.60713,4.88445 l -237.38438,137.74155 v -95.73526 l 0.97689,-1.95378 197.33187,-113.31929 q 42.98318,-25.39915 91.33925,-24.9107 48.35608,0.48844 90.85081,24.42226 42.49474,23.93381 67.89389,66.91699 15.63024,28.32982 21.00314,60.07876 5.3729,31.74894 0.48845,63.00943 z m -514.82126,169.00205 -82.05879,-47.86763 q -0.97689,0 -0.97689,-1.95378 v -226.63858 q 0,-49.82142 24.42226,-91.8277 24.42226,-42.00629 66.42855,-66.917 42.00628,-24.9107 91.8277,-24.9107 32.23738,0 62.03254,11.23424 29.79516,11.23424 55.19431,31.74894 l -5.86135,2.93067 -194.40119,112.3424 q -7.81512,4.88445 -12.21113,12.21113 -4.39601,7.32667 -3.41912,15.1418 z m 44.93696,-96.71216 105.50417,-60.5672 106.48105,60.5672 v 122.11131 l -106.48105,61.54409 -105.50417,-61.54409 z"
     id="path8510"
     inkscape:connector-curvature="0"
     style="fill:#000000;stroke-width:0.97689044" />
</svg>
