<svg xmlns="http://www.w3.org/2000/svg" viewBox="0 -1000 1000 1000">
	<path fill="#000000" d="M510 -850Q459 -850 416 -816.5Q373 -783 358 -734Q350 -707 353 -679.5Q356 -652 369 -628Q374 -618 386 -599Q400 -577 405 -565Q408 -560 405 -554.5Q402 -549 396 -550Q374 -549 331 -554Q306 -556 294 -557L244 -563Q178 -571 145 -572Q126 -570 111 -553Q98 -539 92 -517.5Q86 -496 82 -452L77 -402Q66 -306 65 -258Q68 -231 86 -218Q100 -209 119 -212Q133 -214 152 -223Q165 -229 190 -246Q210 -259 219 -264Q236 -273 251 -277Q284 -283 316 -269.5Q348 -256 363 -227Q375 -205 375 -178.5Q375 -152 363 -129Q351 -106 330.5 -93Q310 -80 285.5 -77.5Q261 -75 237 -82Q219 -89 188 -111Q163 -129 149 -135.5Q135 -142 120.5 -144Q106 -146 93 -142Q78 -136 70.5 -120Q63 -104 65 -86Q70 -10 81 54L82 59Q87 84 91 95Q97 114 109 126Q130 146 147 150Q632 150 874 149Q893 141 908 127.5Q923 114 931 97Q935 88 935 68Q934 56 935 50L936 -508Q929 -533 909.5 -550.5Q890 -568 865 -571Q853 -571 829 -568Q812 -566 804 -566L629 -548Q621 -552 621 -561.5Q621 -571 626 -579.5Q631 -588 642 -607Q655 -629 661 -641Q670 -661 671 -678Q675 -722 653 -763.5Q631 -805 592 -827Q555 -850 510 -850ZM510 -795Q541 -797 569 -780.5Q597 -764 608 -735Q615 -718 616 -699.5Q617 -681 611 -664Q606 -655 596 -637Q584 -617 579 -606Q570 -588 567 -571.5Q564 -555 569.5 -537.5Q575 -520 589 -510Q615 -489 657 -496Q682 -498 732 -504Q820 -513 865 -515Q872 -513 876.5 -509Q881 -505 879 -499V-315Q880 -69 879 54V59Q879 81 875 90Q867 95 849 94Q839 94 834 95Q693 96 410 96H268Q191 96 153 95Q147 90 144 80Q142 75 140 63L137 51Q129 12 121 -68L119 -92Q133 -84 160 -65Q182 -49 194 -42Q214 -30 233 -26Q280 -14 328 -33Q376 -52 403 -93Q424 -123 428.5 -159Q433 -195 420 -228Q403 -275 359 -305Q315 -335 265 -334Q237 -334 205 -318Q186 -309 151 -285L140 -278Q126 -269 119 -268L125 -335Q130 -393 133 -421Q138 -469 146 -507L147 -510Q149 -515 150.5 -517Q152 -519 156 -517Q184 -514 239 -508Q337 -497 387 -495Q407 -495 424 -502Q443 -510 452.5 -526.5Q462 -543 459 -566Q457 -585 447 -604Q443 -613 431.5 -630.5Q420 -648 415 -658Q408 -673 407 -688Q405 -717 419.5 -743Q434 -769 459.5 -782Q485 -795 510 -795Z"/>
</svg>