<?xml version="1.0" encoding="UTF-8" standalone="no"?>
<svg
   xmlns:dc="http://purl.org/dc/elements/1.1/"
   xmlns:cc="http://creativecommons.org/ns#"
   xmlns:rdf="http://www.w3.org/1999/02/22-rdf-syntax-ns#"
   xmlns:svg="http://www.w3.org/2000/svg"
   xmlns="http://www.w3.org/2000/svg"
   xmlns:sodipodi="http://sodipodi.sourceforge.net/DTD/sodipodi-0.dtd"
   xmlns:inkscape="http://www.inkscape.org/namespaces/inkscape"
   viewBox="0 -1000 1000 1000"
   version="1.1"
   id="svg8564"
   sodipodi:docname="orphan.svg"
   inkscape:version="0.92.5 (2060ec1f9f, 2020-04-08)">
  <metadata
     id="metadata8570">
    <rdf:RDF>
      <cc:Work
         rdf:about="">
        <dc:format>image/svg+xml</dc:format>
        <dc:type
           rdf:resource="http://purl.org/dc/dcmitype/StillImage" />
        <dc:title></dc:title>
      </cc:Work>
    </rdf:RDF>
  </metadata>
  <defs
     id="defs8568" />
  <sodipodi:namedview
     pagecolor="#ffffff"
     bordercolor="#666666"
     borderopacity="1"
     objecttolerance="10"
     gridtolerance="10"
     guidetolerance="10"
     inkscape:pageopacity="0"
     inkscape:pageshadow="2"
     inkscape:window-width="1542"
     inkscape:window-height="754"
     id="namedview8566"
     showgrid="false"
     inkscape:zoom="0.30582368"
     inkscape:cx="-151.65736"
     inkscape:cy="231.43033"
     inkscape:window-x="2298"
     inkscape:window-y="289"
     inkscape:window-maximized="0"
     inkscape:current-layer="svg8564" />
  <path
     d="m 509.29775,-1000 q -48.83208,0 -90.00423,32.07598 -41.17215,32.07597 -55.53453,78.99307 -7.65993,25.85228 -4.78746,52.18331 2.87248,26.33103 15.31987,49.31083 4.78746,9.57492 16.27736,27.76726 13.40489,21.06482 18.19235,32.55473 2.87248,4.78746 0,10.05366 -2.87248,5.26621 -8.61743,4.30871 -21.06482,0.9575 -62.23697,-3.82996 -23.93729,-1.91499 -35.4272,-2.87248 l -47.87459,-5.74495 q -63.19446,-7.65993 -94.79169,-8.61743 -18.19235,1.91499 -32.55472,18.19235 -12.4474,13.40488 -18.19235,33.99096 -5.74495,20.58607 -9.574923,62.71571 l -4.787459,47.8746 q -10.53241,91.91921 -11.489902,137.87882 2.872475,25.85228 20.107334,38.29968 13.40488,8.61742 31.59723,5.74495 13.40489,-1.91499 31.59723,-10.53241 12.4474,-5.74495 36.38469,-22.02231 19.14984,-12.4474 27.76727,-17.23486 16.27736,-8.61742 30.63974,-12.44739 31.59723,-5.74495 62.23697,7.18119 30.63973,12.92614 45.00211,40.6934 11.4899,21.06482 11.4899,46.43836 0,25.37353 -11.4899,47.39584 -11.4899,22.02231 -31.11848,34.46971 -19.62859,12.44739 -43.08714,14.84112 -23.45855,2.39373 -46.43835,-4.30871 -17.23485,-6.70244 -46.9171,-27.76727 -23.9373,-17.23485 -37.34218,-23.45855 -13.40489,-6.22369 -27.28852,-8.13868 -13.88363,-1.91498 -26.33103,1.91499 -14.36238,5.74495 -21.543569,21.06482 -7.181189,15.31987 -5.266205,32.55472 4.787459,72.76938 15.319869,134.04886 l 0.957492,4.78746 q 4.787463,23.93729 8.617423,34.469705 5.74496,18.192345 17.23486,29.682247 20.10733,19.149837 36.38469,22.979805 464.38355,0 696.09658,-0.957492 18.19234,-7.659935 32.55472,-20.586075 14.36238,-12.92614 22.02231,-29.203501 3.82997,-8.617429 3.82997,-27.767259 -0.95749,-11.48991 0,-17.23486 l 0.95749,-534.28045 q -6.70244,-23.93729 -25.37353,-40.6934 -18.67109,-16.75611 -42.60839,-19.62858 -11.4899,0 -34.46971,2.87247 -16.27736,1.91498 -23.93729,1.91498 l -167.56108,17.23486 q -7.65993,-3.82997 -7.65993,-12.92614 0,-9.09617 4.78746,-17.23486 4.78746,-8.13868 15.31987,-26.33102 12.44739,-21.06482 18.19234,-32.55472 8.61743,-19.14984 9.57492,-35.4272 3.82997,-42.12964 -17.23485,-81.86556 -21.06482,-39.73591 -58.40701,-60.80073 Q 552.38489,-1000 509.29775,-1000 Z m 0,52.66205 q 29.68225,-1.91498 56.49202,13.88363 26.80977,15.79862 37.34218,43.56588 6.70245,16.27736 7.65994,33.99096 0.95749,17.7136 -4.78746,33.99096 -4.78746,8.61743 -14.36238,25.85228 -11.4899,19.14984 -16.27736,29.68225 -8.61743,17.23485 -11.4899,33.03347 -2.87248,15.79861 2.39373,32.55472 5.2662,16.75611 18.67109,26.33103 24.89479,20.10733 65.10944,13.40488 23.9373,-1.91498 71.81189,-7.65993 84.25929,-8.61743 127.34642,-10.53241 6.70244,1.91498 11.01116,5.74495 4.30871,3.82997 2.39372,9.57492 v 176.1785 q 0.9575,235.54299 0,353.31449 v 4.78746 q 0,21.06482 -3.82996,29.682246 -7.65994,4.787459 -24.89479,3.829967 -9.57492,0 -14.36238,0.957492 -135.00635,0.957492 -405.97654,0.957492 H 277.58473 q -73.72688,0 -110.11157,-0.957492 -5.74495,-4.787459 -8.61742,-14.362375 -1.91499,-4.78746 -3.82997,-16.27736 l -2.87248,-11.48991 q -7.65993,-37.34218 -15.31986,-113.94153 l -1.91499,-22.9798 q 13.40489,7.65993 39.25717,25.85228 21.06482,15.31987 32.55472,22.02231 19.14984,11.4899 37.34218,15.31987 45.00212,11.4899 90.96173,-6.70244 45.95961,-18.19235 71.81189,-57.44951 20.10732,-28.72476 24.41604,-63.19446 4.30871,-34.46971 -8.13868,-66.06694 -16.27736,-45.00212 -58.40701,-73.72687 -42.12964,-28.72476 -90.00423,-27.76727 -26.80977,0 -57.44951,15.31987 -18.19234,8.61743 -51.70456,31.59723 l -10.53241,6.70245 q -13.40489,8.61742 -20.10733,9.57491 l 5.74495,-64.15195 q 4.78746,-55.53453 7.65994,-82.3443 4.78746,-45.95961 12.44739,-82.3443 l 0.95749,-2.87247 q 1.91499,-4.78746 3.35122,-6.70245 1.43624,-1.91498 5.26621,0 26.80977,2.87248 79.47182,8.61743 93.8342,10.53241 141.7088,12.4474 19.14983,0 35.42719,-6.70245 18.19235,-7.65993 27.28852,-23.45855 9.09617,-15.79861 6.2237,-37.82093 -1.91498,-18.19234 -11.4899,-36.38469 -3.82997,-8.61742 -14.84113,-25.37353 -11.01115,-16.75611 -15.79861,-26.33103 -6.70244,-14.36237 -7.65994,-28.72475 -1.91498,-27.76726 11.96865,-52.66205 13.88363,-24.89479 38.29968,-37.34218 24.41604,-12.4474 48.35333,-12.4474 z"
     id="path8562"
     inkscape:connector-curvature="0"
     style="fill:#000000;stroke-width:0.95749187" />
</svg>
