<svg xmlns="http://www.w3.org/2000/svg" viewBox="0 -1000 1000 1000">
	<path fill="#000000" d="M357 -529Q357 -484 326 -453Q295 -422 250 -421Q205 -420 174 -453Q143 -486 143 -529Q143 -572 174 -605Q205 -638 250 -636Q295 -634 326 -605Q357 -576 357 -529ZM929 -314V-64H143V-171L321 -350L411 -261L696 -546ZM982 -707H89Q82 -707 77 -702Q72 -697 71 -689V-11Q71 -4 77 2Q83 8 89 7H982Q989 7 995 2Q1001 -3 1000 -11V-689Q1000 -697 995 -702Q990 -707 982 -707ZM1071 -689V-11Q1071 26 1045 52Q1019 78 982 79H89Q53 79 26 52Q-1 25 0 -11V-689Q0 -726 26 -752Q52 -778 89 -779H982Q1019 -779 1045 -752Q1071 -725 1071 -689Z"/>
</svg>