<svg xmlns="http://www.w3.org/2000/svg" viewBox="0 -1000 1000 1000">
	<path fill="#000000" d="M268 -368V-618Q268 -626 263 -631Q258 -636 250 -636Q242 -636 237 -631Q232 -626 232 -618V-368Q232 -360 237 -355Q242 -350 250 -350Q258 -350 263 -355Q268 -360 268 -368ZM643 -171Q643 -157 632 -146Q621 -135 607 -136H368L339 134Q338 141 333 145Q328 149 322 150H321Q306 150 304 135L261 -136H36Q21 -136 11 -146Q1 -156 0 -171Q0 -240 44 -295Q88 -350 143 -350V-636Q114 -636 93 -657Q72 -678 71 -707Q70 -736 93 -757Q116 -778 143 -779H500Q529 -779 550 -757Q571 -735 571 -707Q571 -679 550 -657Q529 -635 500 -636V-350Q555 -350 599 -295Q643 -240 643 -171Z"/>
</svg>