<?xml version="1.0" encoding="UTF-8" standalone="no"?>
<svg
   xmlns:dc="http://purl.org/dc/elements/1.1/"
   xmlns:cc="http://creativecommons.org/ns#"
   xmlns:rdf="http://www.w3.org/1999/02/22-rdf-syntax-ns#"
   xmlns:svg="http://www.w3.org/2000/svg"
   xmlns="http://www.w3.org/2000/svg"
   xmlns:sodipodi="http://sodipodi.sourceforge.net/DTD/sodipodi-0.dtd"
   xmlns:inkscape="http://www.inkscape.org/namespaces/inkscape"
   viewBox="0 -1000 1000 1000"
   version="1.1"
   id="svg2130"
   sodipodi:docname="place.svg"
   inkscape:version="0.92.5 (2060ec1f9f, 2020-04-08)">
  <metadata
     id="metadata2136">
    <rdf:RDF>
      <cc:Work
         rdf:about="">
        <dc:format>image/svg+xml</dc:format>
        <dc:type
           rdf:resource="http://purl.org/dc/dcmitype/StillImage" />
        <dc:title></dc:title>
      </cc:Work>
    </rdf:RDF>
  </metadata>
  <defs
     id="defs2134" />
  <sodipodi:namedview
     pagecolor="#ffffff"
     bordercolor="#666666"
     borderopacity="1"
     objecttolerance="10"
     gridtolerance="10"
     guidetolerance="10"
     inkscape:pageopacity="0"
     inkscape:pageshadow="2"
     inkscape:window-width="1848"
     inkscape:window-height="1016"
     id="namedview2132"
     showgrid="false"
     inkscape:zoom="0.838"
     inkscape:cx="500"
     inkscape:cy="500"
     inkscape:window-x="72"
     inkscape:window-y="27"
     inkscape:window-maximized="1"
     inkscape:current-layer="svg2130" />
  <path
     d="m 24.46301,-65.359191 v -40.896179 h 97.00955 v -57.06444 h 758.00596 v 57.06444 h 96.05847 v 81.792361 H 24.46301 Z M 27.316232,-363.99642 V -547.5537 H 225.13962 l 8.55966,15.21719 q 11.4129,19.02148 27.10561,52.30906 15.69273,33.28759 22.35024,53.26015 28.53223,86.54773 21.8747,189.26372 -3.80429,44.70047 -5.70644,46.60263 -3.80429,5.70644 -10.46181,8.08412 -6.65752,2.37769 -134.10144,2.37769 H 27.316232 Z m 686.675418,181.65513 q -6.65752,-1.90215 -10.46182,-9.03521 -3.80429,-7.13305 -4.75536,-24.25237 -4.75537,-39.94512 -1.90215,-91.30311 2.85322,-51.35799 12.36395,-87.49881 9.51075,-34.23866 26.15455,-73.70824 16.64379,-39.46956 33.76312,-66.09963 l 8.55966,-13.31504 h 197.82339 v 367.11456 H 848.09308 l -71.33055,-0.95107 q -60.86873,0 -62.77088,-0.95108 z M 27.316232,-680.70406 v -116.9821 l 8.559666,7.60859 q 14.266109,13.31504 39.945108,21.8747 25.678994,8.55967 47.553694,7.6086 13.31505,0 30.43437,-3.8043 17.11933,-3.8043 29.48329,-9.51074 l 15.21719,-6.65752 14.26611,6.65752 q 13.31503,5.70644 30.90991,9.51074 17.59487,3.8043 30.9099,3.8043 13.31504,0 30.9099,-3.8043 17.59487,-3.8043 29.48329,-9.51074 11.88843,-5.70644 14.74165,-6.18198 2.85322,-0.47554 8.55967,3.32876 8.55967,4.75537 26.15453,9.98627 17.59487,5.23092 33.76313,6.18199 l 19.97256,1.90215 -3.80431,13.31503 q -13.31503,53.26014 -61.8198,98.91169 -48.50477,45.65156 -122.68855,75.13485 l -16.16826,6.65751 H 27.316232 Z m 709.501198,102.71599 q -70.37948,-30.43436 -115.07996,-76.08592 -44.70048,-45.65155 -55.16229,-97.96062 l -1.90214,-7.60859 20.92363,-0.95107 q 17.11932,-1.90215 33.28758,-6.18199 16.16826,-4.27983 25.679,-10.93734 5.70644,-2.85323 8.55966,-2.37769 2.85322,0.47554 13.31504,5.23091 27.58115,14.26611 61.34427,14.26611 33.76313,0 62.29535,-14.26611 10.46181,-4.75537 13.79057,-5.23091 3.32876,-0.47554 8.08413,3.32876 8.55967,4.75537 24.25239,9.51074 15.69272,4.75537 30.9099,5.70645 25.679,2.85322 49.93139,-3.80431 24.25238,-6.65751 44.22494,-20.92362 l 14.2661,-11.41289 v 233.01312 H 766.30072 Z M 95.793559,-795.78401 q -19.02148,-4.75537 -37.091885,-17.11933 -18.070407,-12.36396 -25.678999,-25.679 L 26.365158,-850.9463 24.46301,-975.53699 h 951.07398 v 60.86873 q 0,39.94511 -0.95107,51.358 -0.95107,17.11933 -5.2309,24.72792 -4.27984,7.60859 -15.69273,18.0704 -25.679,20.92363 -57.06444,26.63007 -22.82577,3.8043 -47.5537,-2.85322 -24.72792,-6.65751 -38.04295,-19.97255 l -6.65752,-7.60859 -11.41289,9.51074 q -13.31504,11.41289 -27.58114,16.16826 -14.26612,4.75536 -37.09189,4.75536 -22.82578,0 -37.09188,-4.75536 -14.26612,-4.75537 -27.58115,-16.16826 l -11.41289,-9.51074 -5.70644,6.65751 q -14.26612,15.21719 -39.94511,21.39917 -25.679,6.18198 -52.30907,1.42661 -26.63007,-4.75537 -42.79832,-19.97255 l -10.46182,-9.51074 -6.65752,6.65751 q -9.51075,10.46182 -30.43437,18.07041 -20.92362,7.60859 -39.46957,7.60859 -18.54594,0 -37.09188,-7.13305 -18.54595,-7.13305 -29.95884,-17.59487 l -7.60859,-6.65752 -5.70644,4.75537 q -6.65751,7.6086 -21.39917,14.74165 -14.74165,7.13305 -27.1056,9.0352 -21.87471,3.8043 -45.65156,-0.95107 -23.77685,-4.75537 -40.89618,-18.07041 l -10.46181,-8.55966 -11.41288,8.55966 q -17.11934,13.31504 -43.27387,18.54594 -26.15454,5.23091 -48.029241,-0.47553 z"
     id="path2128"
     inkscape:connector-curvature="0"
     style="fill:#000000;stroke-width:0.951074" />
</svg>
