<svg xmlns="http://www.w3.org/2000/svg" viewBox="0 -1000 1000 1000">
	<path fill="#000000" d="M0 107V64H102V4H899V64H1000V150H0ZM3 -207V-400H211L220 -384Q232 -364 248.5 -329Q265 -294 272 -273Q302 -182 295 -74Q291 -27 289 -25Q285 -19 278 -16.5Q271 -14 137 -14H3ZM725 -16Q718 -18 714 -25.5Q710 -33 709 -51Q704 -93 707 -147Q710 -201 720 -239Q730 -275 747.5 -316.5Q765 -358 783 -386L792 -400H1000V-14H866L791 -15Q727 -15 725 -16ZM3 -540V-663L12 -655Q27 -641 54 -632Q81 -623 104 -624Q118 -624 136 -628Q154 -632 167 -638L183 -645L198 -638Q212 -632 230.5 -628Q249 -624 263 -624Q277 -624 295.5 -628Q314 -632 326.5 -638Q339 -644 342 -644.5Q345 -645 351 -641Q360 -636 378.5 -630.5Q397 -625 414 -624L435 -622L431 -608Q417 -552 366 -504Q315 -456 237 -425L220 -418H3ZM749 -432Q675 -464 628 -512Q581 -560 570 -615L568 -623L590 -624Q608 -626 625 -630.5Q642 -635 652 -642Q658 -645 661 -644.5Q664 -644 675 -639Q704 -624 739.5 -624Q775 -624 805 -639Q816 -644 819.5 -644.5Q823 -645 828 -641Q837 -636 853.5 -631Q870 -626 886 -625Q913 -622 938.5 -629Q964 -636 985 -651L1000 -663V-418H780ZM75 -661Q55 -666 36 -679Q17 -692 9 -706L2 -719L0 -850H1000V-786Q1000 -744 999 -732Q998 -714 993.5 -706Q989 -698 977 -687Q950 -665 917 -659Q893 -655 867 -662Q841 -669 827 -683L820 -691L808 -681Q794 -669 779 -664Q764 -659 740 -659Q716 -659 701 -664Q686 -669 672 -681L660 -691L654 -684Q639 -668 612 -661.5Q585 -655 557 -660Q529 -665 512 -681L501 -691L494 -684Q484 -673 462 -665Q440 -657 420.5 -657Q401 -657 381.5 -664.5Q362 -672 350 -683L342 -690L336 -685Q329 -677 313.5 -669.5Q298 -662 285 -660Q262 -656 237 -661Q212 -666 194 -680L183 -689L171 -680Q153 -666 125.5 -660.5Q98 -655 75 -661Z"/>
</svg>