<?xml version="1.0" encoding="UTF-8" standalone="no"?>
<svg
   xmlns:dc="http://purl.org/dc/elements/1.1/"
   xmlns:cc="http://creativecommons.org/ns#"
   xmlns:rdf="http://www.w3.org/1999/02/22-rdf-syntax-ns#"
   xmlns:svg="http://www.w3.org/2000/svg"
   xmlns="http://www.w3.org/2000/svg"
   xmlns:sodipodi="http://sodipodi.sourceforge.net/DTD/sodipodi-0.dtd"
   xmlns:inkscape="http://www.inkscape.org/namespaces/inkscape"
   viewBox="0 -1000 1000 1000"
   version="1.1"
   id="svg8770"
   sodipodi:docname="pressure.svg"
   inkscape:version="0.92.5 (2060ec1f9f, 2020-04-08)">
  <metadata
     id="metadata8776">
    <rdf:RDF>
      <cc:Work
         rdf:about="">
        <dc:format>image/svg+xml</dc:format>
        <dc:type
           rdf:resource="http://purl.org/dc/dcmitype/StillImage" />
        <dc:title></dc:title>
      </cc:Work>
    </rdf:RDF>
  </metadata>
  <defs
     id="defs8774" />
  <sodipodi:namedview
     pagecolor="#ffffff"
     bordercolor="#666666"
     borderopacity="1"
     objecttolerance="10"
     gridtolerance="10"
     guidetolerance="10"
     inkscape:pageopacity="0"
     inkscape:pageshadow="2"
     inkscape:window-width="1542"
     inkscape:window-height="754"
     id="namedview8772"
     showgrid="false"
     inkscape:zoom="0.30582368"
     inkscape:cx="219.9377"
     inkscape:cy="383.98961"
     inkscape:window-x="2298"
     inkscape:window-y="289"
     inkscape:window-maximized="0"
     inkscape:current-layer="svg8770" />
  <path
     d="M 469.0024,-17.316592 Q 414.83352,-22.153099 381.94527,-30.858812 301.65925,-51.172142 230.07895,-98.569911 152.69483,-151.77149 102.39516,-225.2864 52.095484,-300.73591 29.847551,-384.89113 17.272633,-435.1908 16.305332,-488.39238 q -2.901905,-86.08983 26.117138,-168.31045 20.313329,-57.07078 54.168879,-110.27236 13.542221,-20.31333 26.600791,-35.79015 13.05857,-15.47683 33.3719,-35.79016 29.98634,-29.98634 47.88142,-44.49586 17.89507,-14.50952 45.94682,-30.95365 57.07078,-33.85555 120.42902,-51.75062 63.35825,-17.89508 126.23284,-17.89508 146.06251,0 266.97519,79.31872 76.41681,50.29967 129.61839,123.81458 53.20158,73.51491 75.44951,162.50664 25.14979,99.63204 7.73841,201.19869 -13.54222,78.35142 -53.20158,149.93172 -39.65935,71.58031 -97.69744,123.81458 -61.90729,56.103489 -135.4222,87.540782 -73.51491,31.437296 -156.70283,38.208406 -10.64031,0.967302 -33.3719,0.967302 -22.73158,0 -31.43729,-0.967302 z m 52.23427,-89.959028 q 99.63205,-5.80381 180.88537,-55.13618 22.24793,-13.54222 39.17571,-27.08444 16.92777,-13.54222 39.1757,-35.79016 28.05175,-29.98634 44.49587,-53.20157 51.26697,-76.41682 64.32554,-165.8922 13.05857,-89.47538 -14.99317,-174.5979 -24.18253,-75.44952 -74.48221,-134.93855 -50.29967,-59.48904 -118.97807,-95.27919 -44.49587,-22.24794 -88.50808,-32.88825 -44.01222,-10.64032 -93.34459,-10.64032 -49.33237,0 -93.34459,10.64032 -44.01221,10.64031 -87.54077,33.85555 -54.16888,27.08444 -97.69745,71.5803 -43.52856,44.49587 -72.5476,100.59935 -40.62667,81.25332 -40.62667,175.08156 0,67.7111 21.28064,130.10204 21.28063,62.39094 61.90729,113.65792 34.82285,44.49586 81.25332,77.86776 46.43047,33.3719 100.11569,51.26698 53.68523,17.89507 103.98491,20.79698 16.44412,0.9673 23.69888,0.9673 7.25476,0 21.76428,-0.9673 z m -49.33237,-59.97269 q -27.08444,-0.9673 -51.75062,-6.77111 -24.66619,-5.80381 -53.68523,-19.34603 -48.36507,-20.31333 -89.95904,-58.03808 -41.59396,-37.72476 -69.6457,-86.08983 -6.77111,-11.60762 -18.37873,-40.14301 -11.60761,-28.53539 -12.57491,-36.2738 -0.9673,-0.9673 5.8038,-1.93461 l 45.46317,-0.9673 89.95903,-0.9673 34.82285,0.9673 0.96731,12.57492 q 1.9346,22.24793 10.64031,44.49587 8.70571,22.24793 22.24793,37.72475 18.37873,20.31333 36.75746,32.4046 18.37873,12.09127 40.62666,17.89508 7.73841,1.9346 13.54222,2.9019 h 24.18253 23.21524 q 5.80381,-0.9673 13.54222,-2.9019 22.24793,-5.80381 46.43047,-22.24794 10.64031,-7.73841 21.76428,-18.86237 11.12396,-11.12397 16.92777,-19.82968 9.67302,-14.50953 19.34603,-40.62666 3.86921,-12.57492 4.83651,-28.05174 l 0.9673,-15.47683 87.05713,-0.9673 q 87.05713,0 88.50808,0.9673 1.45095,0.9673 -4.35286,18.37873 -5.80381,17.41143 -12.57492,32.88825 -23.21523,53.20158 -65.77649,97.69744 -42.56127,44.49587 -96.73015,70.613 -36.75745,18.37873 -77.38411,26.11714 -14.50952,2.90191 -42.56126,3.86921 -28.05174,0.9673 -52.23428,0 z m 14.50952,-157.67013 q -28.05174,-4.83651 -48.36507,-24.18254 -20.31333,-19.34603 -27.08444,-46.43047 -6.77111,-22.24793 3.86921,-53.20157 l 4.8365,-12.57492 -2.9019,-9.67302 q -6.77111,-34.82285 -33.85555,-146.06251 l -5.80381,-26.11714 q -6.77111,-25.14984 -5.32016,-25.14984 1.45096,0 16.92778,18.37873 l 86.08983,105.43585 29.01904,36.75746 10.64031,1.9346 q 14.50952,2.90191 30.95365,12.09127 16.44412,9.18936 25.14984,19.82968 4.8365,6.77111 10.64031,17.41142 5.80381,10.64032 7.73841,18.37873 8.70572,36.75746 -10.64031,70.613 -5.80381,9.67302 -16.44413,19.34603 -10.64031,9.67302 -20.31333,14.02587 -9.67301,4.35286 -19.34602,7.25476 -6.77111,1.93461 -17.89508,2.90191 -11.12397,0.9673 -17.89508,-0.9673 z M 166.23705,-499.0327 v -16.44412 h 71.58031 L 236.85006,-500 v 16.44412 H 201.0599 l -34.82285,0.96731 z m 596.82498,15.47682 q 0,0 0,-1.9346 -0.9673,-7.73841 -0.9673,-14.50952 v -15.47682 h 72.5476 v 31.92094 z m -29.98635,-139.2914 q -3.8692,-4.83651 -7.73841,-11.60762 -3.8692,-6.77111 -3.8692,-9.18936 0,-2.41825 30.95364,-20.79698 l 28.05174,-15.47682 q 0.96731,0 6.28746,7.73841 5.32016,7.73841 8.22207,12.57492 l 1.9346,5.8038 q 0,0.96731 -15.47682,10.64032 l -31.92095,18.37873 q -11.60762,6.77111 -13.05857,6.77111 -1.45095,0 -3.38556,-4.83651 z m -483.65071,-2.9019 q -10.64031,-5.80381 -26.11713,-14.99318 -15.47683,-9.18936 -18.37873,-11.12396 l -2.90191,-1.93461 4.83651,-9.67301 q 9.67302,-16.44412 12.09127,-16.44412 2.41825,0 32.4046,17.41142 29.98634,17.41143 29.01904,18.37873 -13.54222,24.18253 -18.37873,24.18253 -0.9673,0 -12.57492,-5.8038 z m 95.76285,-110.27237 q -8.70572,-13.54222 -16.92778,-28.53539 -8.22206,-14.99317 -8.22206,-16.44412 0,-1.45095 12.09127,-9.18937 12.09126,-7.73841 13.54222,-6.77111 1.45095,0.96731 13.05856,20.31333 11.60762,19.34603 16.44413,27.56809 4.83651,8.22207 4.83651,11.12397 0,4.83651 -24.18254,18.37873 0,0.9673 -3.86921,-4.35286 -3.8692,-5.32016 -6.7711,-12.09127 z m 291.15772,11.60762 q -3.8692,-1.9346 -12.57492,-7.73841 l -4.8365,-4.83651 1.9346,-4.8365 q 4.83651,-9.67302 18.86238,-32.88825 14.02587,-23.21524 15.47682,-23.21524 1.45095,0 12.57492,7.25476 11.12397,7.25476 12.09127,9.18937 0.9673,1.9346 -15.47683,30.46999 -16.44412,28.53539 -18.37872,29.50269 -1.93461,0.96731 -9.67302,-2.9019 z m -151.86632,-73.51491 v -35.79015 h 31.92095 v 70.613 h -16.44413 l -15.47682,0.96731 z"
     id="path8768"
     inkscape:connector-curvature="0"
     style="fill:#000000;stroke-width:0.96730143" />
</svg>
