<svg xmlns="http://www.w3.org/2000/svg" viewBox="0 -1000 1000 1000">
	<path fill="#000000" d="M468 149Q412 144 378 135Q295 114 221 65Q141 10 89 -66Q37 -144 14 -231Q1 -283 0 -338Q-3 -427 27 -512Q48 -571 83 -626Q97 -647 110.5 -663Q124 -679 145 -700Q176 -731 194.5 -746Q213 -761 242 -778Q301 -813 366.5 -831.5Q432 -850 497 -850Q648 -850 773 -768Q852 -716 907 -640Q962 -564 985 -472Q1011 -369 993 -264Q979 -183 938 -109Q897 -35 837 19Q773 77 697 109.5Q621 142 535 149Q524 150 500.5 150Q477 150 468 149ZM522 56Q625 50 709 -1Q732 -15 749.5 -29Q767 -43 790 -66Q819 -97 836 -121Q889 -200 902.5 -292.5Q916 -385 887 -473Q862 -551 810 -612.5Q758 -674 687 -711Q641 -734 595.5 -745Q550 -756 499 -756Q448 -756 402.5 -745Q357 -734 312 -710Q256 -682 211 -636Q166 -590 136 -532Q94 -448 94 -351Q94 -281 116 -216.5Q138 -152 180 -99Q216 -53 264 -18.5Q312 16 367.5 34.5Q423 53 475 56Q492 57 499.5 57Q507 57 522 56ZM471 -6Q443 -7 417.5 -13Q392 -19 362 -33Q312 -54 269 -93Q226 -132 197 -182Q190 -194 178 -223.5Q166 -253 165 -261Q164 -262 171 -263L218 -264L311 -265L347 -264L348 -251Q350 -228 359 -205Q368 -182 382 -166Q401 -145 420 -132.5Q439 -120 462 -114Q470 -112 476 -111H501H525Q531 -112 539 -114Q562 -120 587 -137Q598 -145 609.5 -156.5Q621 -168 627 -177Q637 -192 647 -219Q651 -232 652 -248L653 -264L743 -265Q833 -265 834.5 -264Q836 -263 830 -245Q824 -227 817 -211Q793 -156 749 -110Q705 -64 649 -37Q611 -18 569 -10Q554 -7 525 -6Q496 -5 471 -6ZM486 -169Q457 -174 436 -194Q415 -214 408 -242Q401 -265 412 -297L417 -310L414 -320Q407 -356 379 -471L373 -498Q366 -524 367.5 -524Q369 -524 385 -505L474 -396L504 -358L515 -356Q530 -353 547 -343.5Q564 -334 573 -323Q578 -316 584 -305Q590 -294 592 -286Q601 -248 581 -213Q575 -203 564 -193Q553 -183 543 -178.5Q533 -174 523 -171Q516 -169 504.5 -168Q493 -167 486 -169ZM155 -349V-366H229L228 -350V-333H191L155 -332ZM772 -333Q772 -333 772 -335Q771 -343 771 -350V-366H846V-333ZM741 -477Q737 -482 733 -489Q729 -496 729 -498.5Q729 -501 761 -520L790 -536Q791 -536 796.5 -528Q802 -520 805 -515L807 -509Q807 -508 791 -498L758 -479Q746 -472 744.5 -472Q743 -472 741 -477ZM241 -480Q230 -486 214 -495.5Q198 -505 195 -507L192 -509L197 -519Q207 -536 209.5 -536Q212 -536 243 -518Q274 -500 273 -499Q259 -474 254 -474Q253 -474 241 -480ZM340 -594Q331 -608 322.5 -623.5Q314 -639 314 -640.5Q314 -642 326.5 -650Q339 -658 340.5 -657Q342 -656 354 -636Q366 -616 371 -607.5Q376 -599 376 -596Q376 -591 351 -577Q351 -576 347 -581.5Q343 -587 340 -594ZM641 -582Q637 -584 628 -590L623 -595L625 -600Q630 -610 644.5 -634Q659 -658 660.5 -658Q662 -658 673.5 -650.5Q685 -643 686 -641Q687 -639 670 -609.5Q653 -580 651 -579Q649 -578 641 -582ZM484 -658V-695H517V-622H500L484 -621Z"/>
</svg>