<svg xmlns="http://www.w3.org/2000/svg" viewBox="0 -1000 1000 1000">
	<path fill="#000000" d="M571 -219Q571 -183 551 -159Q531 -135 500 -136H214Q184 -136 164 -159Q144 -182 143 -219Q142 -256 148 -284Q154 -312 164 -342Q174 -372 198 -385Q222 -398 252 -401Q256 -399 269 -391Q282 -383 290 -379Q298 -375 310 -370Q322 -365 334 -361Q346 -357 357 -359Q368 -361 381 -361Q394 -361 405 -370Q416 -379 424 -379Q432 -379 445 -391Q458 -403 462 -401Q494 -401 516 -385Q538 -369 550 -342Q562 -315 566 -284Q570 -253 571 -219ZM484 -509Q484 -457 447 -420Q410 -383 357 -382Q304 -381 268 -420Q232 -459 231 -509Q230 -559 268 -599Q306 -639 357 -636Q408 -633 447 -599Q486 -565 484 -509ZM1000 -261V-225Q1000 -217 995 -212Q990 -207 982 -207H661Q653 -207 648 -212Q643 -217 643 -225V-261Q643 -269 648 -274Q653 -279 661 -279H982Q990 -279 995 -274Q1000 -269 1000 -261ZM1000 -401V-370Q1000 -362 994 -356Q988 -350 980 -350H663Q655 -350 649 -356Q643 -362 643 -370V-401Q643 -410 649 -416Q655 -422 663 -421H980Q988 -421 994 -416Q1000 -411 1000 -401ZM1000 -546V-511Q1000 -503 995 -498Q990 -493 982 -493H661Q653 -493 648 -498Q643 -503 643 -511V-546Q643 -554 648 -559Q653 -564 661 -564H982Q990 -564 995 -559Q1000 -554 1000 -546ZM1071 -11V-689Q1071 -697 1066 -702Q1061 -707 1054 -707H89Q82 -707 77 -702Q72 -697 71 -689V-11Q71 -4 77 2Q83 8 89 7H286V-46Q286 -54 291 -59Q296 -64 304 -64H339Q347 -64 352 -59Q357 -54 357 -46V7H786V-46Q786 -54 791 -59Q796 -64 804 -64H839Q847 -64 852 -59Q857 -54 857 -46V7H1054Q1061 7 1066 2Q1071 -3 1071 -11ZM1143 -689V-11Q1143 26 1117 52Q1091 78 1054 79H89Q53 79 26 52Q-1 25 0 -11V-689Q0 -726 26 -752Q52 -778 89 -779H1054Q1090 -779 1117 -752Q1144 -725 1143 -689Z"/>
</svg>