<?xml version="1.0" encoding="UTF-8" standalone="no"?>
<svg
   xmlns:dc="http://purl.org/dc/elements/1.1/"
   xmlns:cc="http://creativecommons.org/ns#"
   xmlns:rdf="http://www.w3.org/1999/02/22-rdf-syntax-ns#"
   xmlns:svg="http://www.w3.org/2000/svg"
   xmlns="http://www.w3.org/2000/svg"
   xmlns:sodipodi="http://sodipodi.sourceforge.net/DTD/sodipodi-0.dtd"
   xmlns:inkscape="http://www.inkscape.org/namespaces/inkscape"
   viewBox="0 -1000 1000 1000"
   version="1.1"
   id="svg8822"
   sodipodi:docname="profile.svg"
   inkscape:version="0.92.5 (2060ec1f9f, 2020-04-08)">
  <metadata
     id="metadata8828">
    <rdf:RDF>
      <cc:Work
         rdf:about="">
        <dc:format>image/svg+xml</dc:format>
        <dc:type
           rdf:resource="http://purl.org/dc/dcmitype/StillImage" />
        <dc:title></dc:title>
      </cc:Work>
    </rdf:RDF>
  </metadata>
  <defs
     id="defs8826" />
  <sodipodi:namedview
     pagecolor="#ffffff"
     bordercolor="#666666"
     borderopacity="1"
     objecttolerance="10"
     gridtolerance="10"
     guidetolerance="10"
     inkscape:pageopacity="0"
     inkscape:pageshadow="2"
     inkscape:window-width="1542"
     inkscape:window-height="754"
     id="namedview8824"
     showgrid="false"
     inkscape:zoom="0.4325"
     inkscape:cx="364.10004"
     inkscape:cy="407.44146"
     inkscape:window-x="2298"
     inkscape:window-y="289"
     inkscape:window-maximized="0"
     inkscape:current-layer="svg8822" />
  <path
     d="m 499.56271,-385.42871 q 0,31.48524 -17.49181,52.4754 -17.49179,20.99016 -44.60409,20.11557 H 187.33408 q -26.2377,0 -43.7295,-20.11557 -17.4918,-20.11557 -18.36639,-52.4754 -0.87459,-32.35983 4.37295,-56.84835 5.24753,-24.48852 13.99344,-50.72621 8.7459,-26.23771 29.73606,-37.60737 20.99016,-11.36968 47.22785,-13.99345 3.49836,1.74918 14.86804,8.7459 11.36967,6.99672 18.36639,10.49508 6.99672,3.49837 17.4918,7.87131 10.49508,4.37295 20.99016,7.87131 10.49508,3.49836 20.11557,1.74918 9.62049,-1.74918 20.99016,-1.74918 11.36966,0 20.99015,-7.87131 9.62049,-7.87131 16.61721,-7.87131 6.99673,0 18.36639,-10.49508 11.36968,-10.49508 14.86804,-8.7459 27.98688,0 47.22786,13.99345 19.24098,13.99343 29.73605,37.60737 10.49508,23.61392 13.99344,50.72621 3.49837,27.11229 4.37296,56.84835 z M 423.47338,-639.0598 q 0,45.47867 -32.35983,77.8385 -32.35983,32.35983 -78.7131,33.23443 -46.35327,0.87458 -77.83851,-33.23443 -31.48524,-34.10901 -32.35983,-77.8385 -0.87459,-43.72951 32.35983,-78.71311 33.23442,-34.9836 77.83851,-32.35982 44.60409,2.62377 78.7131,32.35982 34.109,29.73606 32.35983,78.71311 z m 451.28843,216.89831 v 31.48524 q 0,6.99672 -4.37295,11.36967 -4.37295,4.37295 -11.36968,4.37295 H 578.2758 q -6.99672,0 -11.36967,-4.37295 -4.37294,-4.37295 -4.37294,-11.36967 v -31.48524 q 0,-6.99671 4.37294,-11.36967 4.37295,-4.37295 11.36967,-4.37295 h 280.74338 q 6.99673,0 11.36968,4.37295 4.37295,4.37296 4.37295,11.36967 z m 0,-122.4426 v 27.11229 q 0,6.99672 -5.24754,12.24427 Q 864.26673,-500 857.27001,-500 H 580.02498 q -6.99671,0 -12.24426,-5.24753 -5.24753,-5.24755 -5.24753,-12.24427 v -27.11229 q 0,-7.87131 5.24753,-13.11885 5.24755,-5.24753 12.24426,-4.37295 h 277.24503 q 6.99672,0 12.24426,4.37295 5.24754,4.37296 5.24754,13.11885 z m 0,-126.81554 v 30.61064 q 0,6.99672 -4.37295,11.36968 -4.37295,4.37294 -11.36968,4.37294 H 578.2758 q -6.99672,0 -11.36967,-4.37294 -4.37294,-4.37296 -4.37294,-11.36968 v -30.61064 q 0,-6.99673 4.37294,-11.36968 4.37295,-4.37294 11.36967,-4.37294 h 280.74338 q 6.99673,0 11.36968,4.37294 4.37295,4.37295 4.37295,11.36968 z m 62.09589,467.90564 v -592.97202 q 0,-6.99672 -4.37295,-11.36966 -4.37295,-4.37296 -10.49508,-4.37296 H 78.010328 q -6.12213,0 -10.49508,4.37296 -4.372949,4.37294 -5.24754,11.36966 v 592.97202 q 0,6.12213 5.24754,11.36966 5.24754,5.24754 10.49508,4.37296 H 250.30456 v -46.35327 q 0,-6.99672 4.37295,-11.36967 4.37294,-4.37295 11.36967,-4.37295 h 30.61065 q 6.99671,0 11.36967,4.37295 4.37295,4.37295 4.37295,11.36967 v 46.35327 h 375.1991 v -46.35327 q 0,-6.99672 4.37295,-11.36967 4.37295,-4.37295 11.36967,-4.37295 h 30.61065 q 6.99672,0 11.36967,4.37295 4.37295,4.37295 4.37295,11.36967 v 46.35327 h 172.29423 q 6.12213,0 10.49508,-4.37296 4.37295,-4.37294 4.37295,-11.36966 z m 62.97048,-592.97202 v 592.97202 q 0,32.35982 -22.73934,55.09916 -22.73935,22.73934 -55.09917,23.61393 H 78.010328 q -31.485239,0 -55.099169,-23.61393 -23.61392949,-23.61393 -22.7393395,-55.09916 v -592.97202 q 0,-32.35983 22.7393395,-55.09916 22.73934,-22.73934 55.099169,-23.61393 H 921.98967 q 31.48524,0 55.09917,23.61393 23.61396,23.61393 22.73934,55.09916 z"
     id="path8820"
     inkscape:connector-curvature="0"
     style="fill:#000000;stroke-width:0.87458998" />
</svg>
