<?xml version="1.0" encoding="UTF-8" standalone="no"?>
<svg
   xmlns:dc="http://purl.org/dc/elements/1.1/"
   xmlns:cc="http://creativecommons.org/ns#"
   xmlns:rdf="http://www.w3.org/1999/02/22-rdf-syntax-ns#"
   xmlns:svg="http://www.w3.org/2000/svg"
   xmlns="http://www.w3.org/2000/svg"
   xmlns:sodipodi="http://sodipodi.sourceforge.net/DTD/sodipodi-0.dtd"
   xmlns:inkscape="http://www.inkscape.org/namespaces/inkscape"
   viewBox="0 -1000 1000 1000"
   version="1.1"
   id="svg8874"
   sodipodi:docname="push.svg"
   inkscape:version="0.92.5 (2060ec1f9f, 2020-04-08)">
  <metadata
     id="metadata8880">
    <rdf:RDF>
      <cc:Work
         rdf:about="">
        <dc:format>image/svg+xml</dc:format>
        <dc:type
           rdf:resource="http://purl.org/dc/dcmitype/StillImage" />
        <dc:title></dc:title>
      </cc:Work>
    </rdf:RDF>
  </metadata>
  <defs
     id="defs8878" />
  <sodipodi:namedview
     pagecolor="#ffffff"
     bordercolor="#666666"
     borderopacity="1"
     objecttolerance="10"
     gridtolerance="10"
     guidetolerance="10"
     inkscape:pageopacity="0"
     inkscape:pageshadow="2"
     inkscape:window-width="1542"
     inkscape:window-height="754"
     id="namedview8876"
     showgrid="false"
     inkscape:zoom="0.30582368"
     inkscape:cx="169.17858"
     inkscape:cy="355.93383"
     inkscape:window-x="2298"
     inkscape:window-y="289"
     inkscape:window-maximized="0"
     inkscape:current-layer="svg8874" />
  <path
     d="m 430.37104,-987.5555 q -34.19728,0 -58.13538,23.9381 -23.93809,23.93809 -23.93809,57.15831 v 1.95413 q 0,10.74771 5.86239,21.0069 5.86239,10.25918 14.65597,16.12157 3.90826,1.95413 43.96793,42.0138 l 40.05967,39.08261 q 3.90827,3.90826 9.77066,0.97706 5.86239,-2.93119 5.86239,-8.79359 0,-12.70184 9.28212,-22.47249 9.28211,-9.77065 21.98396,-9.77065 h 345.88105 q 11.72479,0 21.98397,9.77065 10.25918,9.77065 10.25918,22.47249 v 549.1106 q 0,11.72479 -10.25918,20.51837 -10.25918,8.79359 -21.98397,8.79359 H 499.74266 q -12.70185,0 -21.0069,-8.30506 -8.30505,-8.30505 -8.30505,-21.0069 v -1.95413 q 0,-5.86239 -5.86239,-7.81652 -5.86239,-1.95413 -9.77065,1.95413 l -40.05968,39.08261 q -40.05967,39.0826 -45.92206,42.0138 -20.51836,15.63304 -20.51836,37.12847 v 41.036743 q 0,34.197278 23.44956,57.646841 23.44956,23.449563 56.66978,23.449563 h 488.53256 q 33.22021,0 58.13537,-23.938095 Q 1000,-60.320694 1000,-93.540907 V -906.45909 q 0,-34.19728 -23.44956,-57.64685 -23.44956,-23.44956 -57.64684,-23.44956 z m -121.15608,181.73411 q -11.72478,0 -21.49543,9.77065 l -42.99087,42.99087 q -8.79358,8.79359 -8.79358,21.0069 0,12.21331 8.79358,21.0069 l 93.79826,93.79825 q 5.86239,5.86239 5.37385,14.65598 -0.48853,8.79359 -5.86239,14.65598 -5.37386,5.86239 -14.16744,5.86239 H 53.223899 q -11.724782,1.95413 -21.0069,11.23625 -9.282119,9.28211 -9.282119,21.0069 v 60.57803 q 0,12.70185 9.282119,21.98397 9.282118,9.28212 21.0069,9.28212 H 321.91681 q 8.79358,0 14.16744,5.86239 5.37386,5.86239 5.86239,14.16744 0.48854,8.30506 -5.37385,14.16745 l -93.79826,93.79825 q -8.79358,8.79359 -8.79358,21.0069 0,12.21331 8.79358,21.98396 l 42.99087,42.0138 q 8.79358,9.77066 21.0069,9.77066 12.21331,0 21.98396,-9.77066 l 255.99107,-254.03693 q 7.81652,-7.81652 7.81652,-20.51837 0,-12.70184 -7.81652,-22.47249 L 330.71039,-796.05074 q -11.72478,-9.77065 -21.49543,-9.77065 z m 365.42236,632.16114 q 25.40369,0 42.99086,18.0757 17.58718,18.07571 17.58718,43.4794 0,25.403698 -17.58718,42.99087 -17.58717,17.587172 -43.47939,17.587172 -25.89223,0 -43.4794,-17.587172 -17.58717,-17.587172 -17.58717,-42.99087 0,-25.40369 17.58717,-43.4794 17.58717,-18.0757 43.96793,-18.0757 z"
     id="path8872"
     inkscape:connector-curvature="0"
     style="fill:#000000;stroke-width:0.97706515" />
</svg>
