<svg xmlns="http://www.w3.org/2000/svg" viewBox="0 -1000 1000 1000">
	<path fill="#000000" d="M417 -849Q382 -849 357.5 -824.5Q333 -800 333 -766V-764Q333 -753 339 -742.5Q345 -732 354 -726Q358 -724 399 -683L440 -643Q444 -639 450 -642Q456 -645 456 -651Q456 -664 465.5 -674Q475 -684 488 -684H842Q854 -684 864.5 -674Q875 -664 875 -651V-89Q875 -77 864.5 -68Q854 -59 842 -59H488Q475 -59 466.5 -67.5Q458 -76 458 -89V-91Q458 -97 452 -99Q446 -101 442 -97L401 -57Q360 -17 354 -14Q333 2 333 24V66Q333 101 357 125Q381 149 415 149H915Q949 149 974.5 124.5Q1000 100 1000 66V-766Q1000 -801 976 -825Q952 -849 917 -849ZM293 -663Q281 -663 271 -653L227 -609Q218 -600 218 -587.5Q218 -575 227 -566L323 -470Q329 -464 328.5 -455Q328 -446 322.5 -440Q317 -434 308 -434H31Q19 -432 9.5 -422.5Q0 -413 0 -401V-339Q0 -326 9.5 -316.5Q19 -307 31 -307H306Q315 -307 320.5 -301Q326 -295 326.5 -286.5Q327 -278 321 -272L225 -176Q216 -167 216 -154.5Q216 -142 225 -132L269 -89Q278 -79 290.5 -79Q303 -79 313 -89L575 -349Q583 -357 583 -370Q583 -383 575 -393L315 -653Q303 -663 293 -663ZM667 -16Q693 -16 711 2.5Q729 21 729 47Q729 73 711 91Q693 109 666.5 109Q640 109 622 91Q604 73 604 47Q604 21 622 2.5Q640 -16 667 -16Z"/>
</svg>