<svg xmlns="http://www.w3.org/2000/svg" viewBox="0 -1000 1000 1000">
	<path fill="#000000" d="M447 147Q443 146 283 55L247 34Q146 -25 118 -41Q80 -65 67 -76Q59 -84 51 -99L44 -113V-314Q43 -510 45 -524Q51 -542 69 -539Q73 -539 112 -517Q142 -501 227 -452L318 -399Q398 -353 410 -347Q438 -330 450.5 -319.5Q463 -309 470 -293L477 -279L478 -75V86Q477 133 475.5 137Q474 141 467.5 145.5Q461 150 456.5 150Q452 150 447 147ZM271 -62V-99L244 -114Q223 -128 210 -134L202 -139V-65L243 -41Q269 -26 270 -26Q271 -26 271 -62ZM275 -153Q277 -155 299 -166Q317 -174 325 -181.5Q333 -189 336.5 -199Q340 -209 338.5 -228.5Q337 -248 332 -261Q320 -292 291 -320Q262 -348 222 -367Q209 -373 189.5 -379.5Q170 -386 164 -386Q161 -386 161 -354V-322H178Q205 -322 228 -310Q251 -298 262 -280.5Q273 -263 266 -246Q264 -240 259.5 -237Q255 -234 237 -225Q215 -215 209 -208Q203 -201 203 -184V-169L270 -130L272 -140Q274 -151 275 -153ZM534 147Q534 147 533 147Q528 144 526 140Q524 134 523 115Q522 96 522 51L523 -277L530 -292Q535 -304 547 -318Q563 -331 609 -358Q631 -370 737 -431L792 -463Q923 -539 931 -539Q949 -542 954 -524Q957 -514 956 -314V-113L948 -97Q939 -79 928 -70Q917 -61 737 43Q557 147 548 149Q537 149 534 147ZM752 -32L777 -46V-120L707 -80V-6ZM743 -131L775 -150L777 -162Q779 -174 783 -182.5Q787 -191 802 -215Q828 -257 836 -279.5Q844 -302 843 -325Q842 -341 837.5 -349.5Q833 -358 823 -363Q817 -366 813 -366.5Q809 -367 799 -365Q777 -361 747.5 -344Q718 -327 687 -300L666 -282V-218L697 -249Q725 -277 741.5 -286.5Q758 -296 768 -289Q771 -287 772 -284Q773 -281 773 -274Q773 -263 766.5 -249Q760 -235 743 -208Q724 -179 716.5 -161.5Q709 -144 707 -129Q707 -112 708 -112Q709 -112 735 -127ZM485 -360Q475 -361 463 -366Q447 -374 293 -464Q227 -502 132 -557L104 -573Q84 -586 81 -589Q74 -596 74 -604Q74 -612 80.5 -619Q87 -626 274.5 -734.5Q462 -843 474 -846.5Q486 -850 501.5 -850Q517 -850 528 -846Q536 -842 687 -756Q844 -666 899 -633Q915 -623 920.5 -616Q926 -609 924 -600.5Q922 -592 911.5 -584Q901 -576 861 -553L674 -446Q622 -416 575 -389Q532 -365 528 -363Q508 -357 485 -360ZM642 -527Q656 -534 669 -542Q680 -549 681.5 -550Q683 -551 653 -568.5Q623 -586 620.5 -586Q618 -586 582.5 -566Q547 -546 544.5 -544.5Q542 -543 548 -538.5Q554 -534 571 -524Q581 -518 597 -510L604 -506ZM552 -579L592 -601L583 -608Q576 -614 574.5 -621.5Q573 -629 578 -646Q585 -672 578 -687Q571 -702 548 -712Q534 -719 519.5 -721Q505 -723 486 -722Q445 -720 398 -698Q351 -676 316 -643L298 -626L353 -595Q355 -595 364 -609Q384 -637 414.5 -653.5Q445 -670 467 -665Q484 -661 488 -651.5Q492 -642 487 -619Q480 -585 489 -573Q492 -570 501 -563.5Q510 -557 512 -557Z"/>
</svg>