<?xml version="1.0" encoding="UTF-8" standalone="no"?>
<svg
   xmlns:dc="http://purl.org/dc/elements/1.1/"
   xmlns:cc="http://creativecommons.org/ns#"
   xmlns:rdf="http://www.w3.org/1999/02/22-rdf-syntax-ns#"
   xmlns:svg="http://www.w3.org/2000/svg"
   xmlns="http://www.w3.org/2000/svg"
   xmlns:sodipodi="http://sodipodi.sourceforge.net/DTD/sodipodi-0.dtd"
   xmlns:inkscape="http://www.inkscape.org/namespaces/inkscape"
   viewBox="0 -1000 1000 1000"
   version="1.1"
   id="svg8988"
   sodipodi:docname="randomize.svg"
   inkscape:version="0.92.5 (2060ec1f9f, 2020-04-08)">
  <metadata
     id="metadata8994">
    <rdf:RDF>
      <cc:Work
         rdf:about="">
        <dc:format>image/svg+xml</dc:format>
        <dc:type
           rdf:resource="http://purl.org/dc/dcmitype/StillImage" />
        <dc:title></dc:title>
      </cc:Work>
    </rdf:RDF>
  </metadata>
  <defs
     id="defs8992" />
  <sodipodi:namedview
     pagecolor="#ffffff"
     bordercolor="#666666"
     borderopacity="1"
     objecttolerance="10"
     gridtolerance="10"
     guidetolerance="10"
     inkscape:pageopacity="0"
     inkscape:pageshadow="2"
     inkscape:window-width="1542"
     inkscape:window-height="754"
     id="namedview8990"
     showgrid="false"
     inkscape:zoom="0.4325"
     inkscape:cx="307.21442"
     inkscape:cy="366.71604"
     inkscape:window-x="2298"
     inkscape:window-y="289"
     inkscape:window-maximized="0"
     inkscape:current-layer="svg8988" />
  <path
     d="M 448.51103,-16.789596 Q 444.62201,-17.76185 289.06132,-106.237 l -35.00116,-20.41734 q -98.19769,-57.363 -125.42081,-72.91907 -36.945663,-23.33411 -49.58497,-34.0289 -7.778035,-7.77804 -15.556069,-22.36185 l -6.805781,-13.61156 v -195.42313 q -0.972254,-190.56185 0.972255,-204.17341 5.833526,-17.50057 23.334104,-14.58381 3.889017,0 41.806941,21.38959 29.16763,15.55607 111.80924,63.19654 l 88.47515,51.52948 q 77.78035,44.72369 89.4474,50.55722 27.22312,16.52832 39.3763,26.73699 12.15318,10.20868 18.95896,25.76474 l 6.80578,13.61157 0.97225,198.33988 v 156.532951 q -0.97225,45.695954 -2.43063,49.584971 -1.45838,3.889017 -7.77804,8.264162 -6.31965,4.375144 -10.6948,4.375144 -4.37514,0 -9.23641,-2.916764 z M 277.39427,-219.99075 v -35.97341 l -26.25087,-14.58382 q -20.41734,-13.61156 -33.05665,-19.44509 l -7.77803,-4.86127 v 71.94682 l 39.86242,23.33411 q 25.27862,14.58381 26.25087,14.58381 0.97226,0 0.97226,-35.00115 z m 3.88901,-88.47515 q 1.94451,-1.94451 23.33411,-12.6393 17.50057,-7.77804 25.27861,-15.06995 7.77803,-7.2919 11.18092,-17.01445 3.40289,-9.72254 1.94451,-28.6815 -1.45838,-18.95896 -6.31965,-31.59827 -11.66705,-30.13988 -39.86243,-57.363 -28.19537,-27.22312 -67.08555,-45.69596 -12.6393,-5.83352 -31.59826,-12.15318 -18.95896,-6.31965 -24.79249,-6.31965 -2.91676,0 -2.91676,31.11214 v 31.11214 h 16.52832 q 26.25087,0 48.61272,11.66705 22.36185,11.66705 33.05665,28.6815 10.69479,17.01445 3.88901,33.54278 -1.9445,5.83352 -6.31965,8.75029 -4.37514,2.91676 -21.87572,11.66705 -21.3896,9.72254 -27.22312,16.52832 -5.83353,6.80578 -5.83353,23.33411 v 14.58381 l 65.14104,37.91792 1.94451,-9.72254 q 1.94451,-10.6948 2.91676,-12.63931 z m 251.81388,291.676304 q 0,0 -0.97226,0 -4.86127,-2.916763 -6.80578,-6.80578 -1.94451,-5.833526 -2.91676,-24.306358 -0.97226,-18.472833 -0.97226,-62.224276 l 0.97226,-318.89943 6.80578,-14.58381 q 4.86127,-11.66705 16.52832,-25.27861 15.55607,-12.63931 60.27977,-38.89018 21.3896,-11.66705 124.44856,-70.97456 l 53.47398,-31.11214 q 127.36532,-73.89133 135.14336,-73.89133 17.50057,-2.91676 22.36185,14.58381 2.91676,9.72255 1.94451,204.17341 v 195.42313 l -7.77804,15.55606 q -8.75029,17.50058 -19.44509,26.25087 -10.69479,8.75029 -185.70057,109.86474 -175.00578,101.114454 -183.75607,103.058963 -10.6948,0 -13.61156,-1.944509 z m 211.95144,-174.033524 24.30636,-13.61156 v -71.94683 l -68.0578,38.89018 v 71.94682 z m -8.75029,-96.25318 31.11214,-18.47284 1.94451,-11.66705 q 1.94451,-11.66705 5.83353,-19.93121 3.88901,-8.26416 18.47283,-31.59827 25.27861,-40.83468 33.05664,-62.7104 7.77804,-21.87572 6.80579,-44.23757 -0.97226,-15.55607 -5.3474,-23.82024 -4.37515,-8.26416 -14.09769,-13.12543 -5.83353,-2.91676 -9.72254,-3.40289 -3.88902,-0.48613 -13.61157,1.45838 -21.38959,3.88902 -50.07109,20.41734 -28.68151,16.52833 -58.82139,42.77919 l -20.41734,17.50058 v 62.22428 l 30.13988,-30.13988 q 27.22312,-27.22313 43.26532,-36.45954 16.0422,-9.23642 25.76474,-2.43064 2.91676,1.94451 3.88902,4.86127 0.97225,2.91677 0.97225,9.72255 0,10.69479 -6.31965,24.30636 -6.31965,13.61156 -22.84798,39.86242 -18.47283,28.19538 -25.76474,45.20983 -7.29191,17.01445 -9.23641,31.59827 0,16.52832 0.97225,16.52832 0.97225,0 26.25087,-14.58382 z M 485.45669,-509.72255 q -9.72254,-0.97225 -21.38959,-5.83352 -15.55607,-7.77804 -165.28324,-95.28093 -64.16879,-36.94566 -156.53295,-90.41965 l -27.22312,-15.55607 q -19.445086,-12.63931 -22.361849,-15.55607 -6.80578,-6.80578 -6.80578,-14.58381 0,-7.77804 6.319653,-14.58382 6.319653,-6.80578 188.617346,-112.29537 182.29768,-105.4896 193.96474,-108.89249 11.66705,-3.40289 26.73699,-3.40289 15.06994,0 25.76474,3.88902 7.77803,3.88901 154.58844,87.50289 152.64393,87.50289 206.11792,119.58728 15.55607,9.72254 20.90347,16.52832 5.3474,6.80578 3.40289,15.06995 -1.94451,8.26416 -12.15318,16.04219 -10.20867,7.77804 -49.09885,30.13989 l -181.81156,104.03121 q -50.55722,29.16763 -96.25318,55.4185 -41.80693,23.3341 -45.69595,25.27861 -19.44509,5.83353 -41.80694,2.91676 z m 152.64393,-162.36647 q 13.61156,-6.80578 26.25087,-14.58381 10.6948,-6.80579 12.15318,-7.77804 1.45838,-0.97225 -27.70925,-17.9867 -29.16763,-17.01446 -31.59826,-17.01446 -2.43064,0 -36.94567,19.44509 -34.51503,19.44509 -36.94566,20.90347 -2.43064,1.45838 3.40289,5.83353 5.83352,4.37514 22.36185,14.09768 9.72254,5.83353 25.27861,13.61156 l 6.80578,3.88902 z m -87.50289,-50.55723 38.89018,-21.38959 -8.75029,-6.80578 q -6.80578,-5.83353 -8.26416,-13.12543 -1.45839,-7.29191 3.40289,-23.82024 6.80578,-25.27861 0,-39.86242 -6.80578,-14.58382 -29.16763,-24.30636 -13.61156,-6.80578 -27.70925,-8.75029 -14.09769,-1.94451 -32.57052,-0.97226 -39.86243,1.94451 -85.55838,23.33411 -45.69596,21.38959 -79.72486,53.47399 l -17.50058,16.52832 53.47399,30.13989 q 1.94451,0 10.6948,-13.61157 19.44509,-27.22312 49.09884,-43.26531 29.65376,-16.0422 51.04336,-11.18093 16.52832,3.88902 20.41734,13.12544 3.88901,9.23641 -0.97226,31.59826 -6.80578,33.05665 1.94451,44.7237 2.91676,2.91676 11.66705,9.23642 8.75029,6.31965 10.6948,6.31965 z"
     id="path8986"
     inkscape:connector-curvature="0"
     style="fill:#000000;stroke-width:0.97225434" />
</svg>
