<svg xmlns="http://www.w3.org/2000/svg" viewBox="0 -1000 1000 1000">
	<path fill="#000000" d="M355 144Q342 138 337 123Q332 108 338 94Q344 78 360 72.5Q376 67 414 67H458V-767H414Q395 -767 378.5 -768.5Q362 -770 357 -772Q343 -779 338 -793.5Q333 -808 338 -823Q343 -838 357 -844Q366 -848 435 -849Q500 -851 564 -849Q633 -848 642 -844Q656 -838 661 -823Q666 -808 661 -793.5Q656 -779 642 -772Q637 -770 620.5 -768.5Q604 -767 585 -767H541V67H585Q603 67 620 69Q637 71 642 73Q656 79 661 93.5Q666 108 661 123Q656 138 642 144Q634 148 564 149Q498 151 433 149Q363 148 355 144ZM116 -26Q58 -46 31 -89Q14 -114 9 -132Q2 -156 1 -206Q0 -244 1 -361L2 -556L16 -585Q42 -641 98 -667Q114 -674 123 -676Q136 -679 164 -681Q187 -681 251 -682L374 -684V-17H259Q184 -17 158 -18.5Q132 -20 116 -26ZM624 -350V-684L748 -682Q812 -681 835 -681Q863 -679 876 -676Q885 -674 901 -667Q957 -641 983 -585L997 -556V-144L983 -115Q957 -59 901 -33Q886 -25 876 -23Q863 -20 836 -19Q816 -18 750 -17L624 -16Z"/>
</svg>