<?xml version="1.0" encoding="UTF-8" standalone="no"?>
<svg
   xmlns:dc="http://purl.org/dc/elements/1.1/"
   xmlns:cc="http://creativecommons.org/ns#"
   xmlns:rdf="http://www.w3.org/1999/02/22-rdf-syntax-ns#"
   xmlns:svg="http://www.w3.org/2000/svg"
   xmlns="http://www.w3.org/2000/svg"
   xmlns:sodipodi="http://sodipodi.sourceforge.net/DTD/sodipodi-0.dtd"
   xmlns:inkscape="http://www.inkscape.org/namespaces/inkscape"
   viewBox="0 -1000 1000 1000"
   version="1.1"
   id="svg9045"
   sodipodi:docname="rename.svg"
   inkscape:version="0.92.5 (2060ec1f9f, 2020-04-08)">
  <metadata
     id="metadata9051">
    <rdf:RDF>
      <cc:Work
         rdf:about="">
        <dc:format>image/svg+xml</dc:format>
        <dc:type
           rdf:resource="http://purl.org/dc/dcmitype/StillImage" />
        <dc:title></dc:title>
      </cc:Work>
    </rdf:RDF>
  </metadata>
  <defs
     id="defs9049" />
  <sodipodi:namedview
     pagecolor="#ffffff"
     bordercolor="#666666"
     borderopacity="1"
     objecttolerance="10"
     gridtolerance="10"
     guidetolerance="10"
     inkscape:pageopacity="0"
     inkscape:pageshadow="2"
     inkscape:window-width="1542"
     inkscape:window-height="754"
     id="namedview9047"
     showgrid="false"
     inkscape:zoom="0.30582368"
     inkscape:cx="-28.111581"
     inkscape:cy="157.68595"
     inkscape:window-x="2298"
     inkscape:window-y="289"
     inkscape:window-maximized="0"
     inkscape:current-layer="svg9045" />
  <path
     d="m 364.26879,-33.55672 q -12.27482,-5.665303 -16.99591,-19.828561 -4.72109,-14.163257 0.94422,-27.382301 5.6653,-15.10747 20.77276,-20.300668 15.10749,-5.19319 50.98773,-5.19319 h 41.54557 V -893.73856 H 419.9776 q -17.94012,0 -33.51971,-1.41633 -15.57959,-1.41633 -20.30068,-3.30476 -13.21904,-6.60952 -17.94011,-20.30067 -4.72109,-13.69115 0,-27.85441 4.72107,-14.16325 17.94011,-19.82856 8.49796,-3.77687 73.64894,-4.72108 61.37412,-1.88842 121.80403,0 65.15098,0.94421 73.64894,4.72108 13.21904,5.66531 17.94012,19.82856 4.72109,14.16326 0,27.85441 -4.72108,13.69115 -17.94012,20.30067 -4.72109,1.88843 -20.30067,3.30476 -15.57958,1.41633 -33.51971,1.41633 h -41.54556 v 787.47712 h 41.54556 q 16.99591,0 33.0476,1.88843 16.05169,1.88844 20.77278,3.77687 13.21904,5.665308 17.94012,19.356448 4.72109,13.691154 0,27.854411 -4.72108,14.163258 -17.94012,19.828561 -7.55374,3.776869 -73.64894,4.721086 -62.31834,1.888434 -123.69245,0 -66.0952,-0.944217 -73.64894,-4.721086 z M 138.60088,-194.07364 q -54.764597,-18.88434 -80.258461,-59.48568 -16.051692,-23.60543 -20.772778,-40.60134 -6.60952,-22.66121 -7.553737,-69.87207 -0.944218,-35.88025 0,-146.35366 l 0.944217,-184.12235 13.21904,-27.3823 q 24.549647,-52.87616 77.425809,-77.42581 15.10748,-6.60952 23.60543,-8.49795 12.27483,-2.83265 38.71291,-4.72109 21.71699,0 82.14689,-0.94421 l 116.13871,-1.88844 v 629.79286 H 273.62394 q -70.81629,0 -95.36593,-1.41633 -24.54965,-1.41632 -39.65713,-7.08163 z M 618.26321,-500 v -315.36854 l 117.08293,1.88844 q 60.4299,0.94421 82.14689,0.94421 26.43808,1.88844 38.71291,4.72109 8.49795,1.88843 23.60543,8.49795 52.87616,24.54965 77.42579,77.42581 l 13.21904,27.3823 v 389.01748 l -13.21904,27.38229 q -24.54963,52.87617 -77.42579,77.42581 -14.16327,7.55374 -23.60543,9.44217 -12.27483,2.83266 -37.76869,3.77687 -18.88434,0.94422 -81.20268,1.88844 l -118.97136,0.94421 z"
     id="path9043"
     inkscape:connector-curvature="0"
     style="fill:#000000;stroke-width:0.94421715" />
</svg>
