<?xml version="1.0" encoding="UTF-8" standalone="no"?>
<!-- Created with Inkscape (http://www.inkscape.org/) -->

<svg
   width="78.954002mm"
   height="78.954002mm"
   viewBox="0 0 78.954002 78.954002"
   version="1.1"
   id="svg1"
   xml:space="preserve"
   xmlns="http://www.w3.org/2000/svg"
   xmlns:svg="http://www.w3.org/2000/svg"><defs
     id="defs1" /><g
     id="layer1"
     transform="translate(-65.766936,-109.59214)"><path
       style="fill:#000000"
       d="m 101.34791,186.66259 c -2.398563,-0.35141 -6.288252,-1.29784 -8.140129,-1.98065 -11.053012,-4.07538 -19.620576,-12.86864 -23.242257,-23.85452 -0.991111,-3.00641 -0.959215,-4.6648 0.119663,-6.22162 1.96771,-2.8394 6.362815,-2.99176 8.360454,-0.28981 0.308202,0.41687 0.920076,1.85941 1.359719,3.20564 2.936818,8.99284 10.002716,15.64263 19.262127,18.12779 2.234993,0.59986 3.060673,0.68306 6.778333,0.68306 3.75162,0 4.53441,-0.0804 6.87917,-0.70693 6.60367,-1.76441 12.55802,-6.09838 16.23893,-11.81977 1.31403,-2.04245 2.86843,-5.74831 3.53827,-8.43562 0.80993,-3.24938 0.80993,-9.24812 0,-12.4975 -2.49813,-10.02224 -9.92248,-17.61918 -19.79609,-20.25624 -2.28684,-0.61078 -3.15789,-0.70358 -6.72799,-0.71679 -4.65107,-0.0172 -6.923083,0.41305 -10.781309,2.04175 -2.128263,0.89841 -6.247729,3.43685 -6.949306,4.2822 -0.304287,0.36665 -0.101735,0.67352 1.535108,2.32573 2.082498,2.10205 2.701758,3.26651 2.701758,5.08039 0,2.02105 -1.428447,4.06783 -3.307291,4.73892 -0.771394,0.27553 -19.121712,4.12285 -19.656184,4.1211 -1.776816,-0.006 -4.058749,-1.50043 -4.724894,-3.09474 -0.613687,-1.46876 -0.415494,-2.98421 1.645324,-12.58067 1.503376,-7.00066 2.158695,-9.56552 2.628022,-10.28584 1.203783,-1.84755 3.476983,-2.67845 5.694292,-2.08139 0.903991,0.24342 1.694184,0.82025 3.428468,2.50275 l 2.253722,2.18642 2.031222,-1.62205 c 11.808573,-9.4298 28.797008,-10.77291 41.890088,-3.31184 9.71864,5.53815 16.18803,14.47162 18.57,25.64301 0.68455,3.21049 0.6751,11.62968 -0.0166,14.81666 -0.73852,3.40259 -1.91671,6.70672 -3.49553,9.80283 -5.12378,10.0479 -14.41813,17.1182 -25.90623,19.70711 -1.8035,0.40643 -10.38444,0.75234 -12.17083,0.49062 z"
       id="path1" /></g></svg>
