<svg xmlns="http://www.w3.org/2000/svg" viewBox="0 -1000 1000 1000">
	<path fill="#000000" d="M371 -421Q329 -399 298 -368Q249 -319 228 -254Q257 -248 286 -248Q319 -248 361.5 -259Q404 -270 444 -295Q396 -349 371 -421ZM703 -368Q673 -398 629 -421Q607 -352 557 -295Q595 -270 639 -258Q681 -248 714 -248Q739 -248 772 -255Q753 -316 703 -368ZM500 -451Q474 -451 442 -446Q459 -391 500 -344Q540 -390 559 -446Q527 -451 500 -451ZM563 -609Q545 -675 500 -726Q455 -675 437 -609Q425 -564 428 -519Q460 -526 500 -526Q540 -526 572 -519Q575 -564 563 -609ZM962 -678Q933 -728 888 -762.5Q843 -797 788 -812Q751 -821 713 -821Q628 -821 557 -774Q613 -710 635 -628Q653 -563 645 -496Q708 -468 755 -420Q815 -361 843 -279Q897 -306 935.5 -353.5Q974 -401 990 -461Q1005 -516 998 -572Q991 -628 962 -678ZM786 -181Q754 -174 714 -174Q667 -174 620 -186Q554 -204 500 -244Q445 -203 380 -186Q334 -174 286 -174Q248 -174 214 -181V-165Q214 -108 235.5 -55.5Q257 -3 297.5 37.5Q338 78 390.5 99.5Q443 121 500.5 121Q558 121 610.5 99.5Q663 78 703.5 37Q744 -4 765.5 -56Q787 -108 787 -165ZM443 -774Q373 -821 287 -821Q248 -821 212 -811Q137 -791 83 -736Q30 -683 10 -610Q-10 -536 10 -461Q26 -401 64.5 -353.5Q103 -306 157 -279Q185 -361 245 -420Q292 -468 355 -496Q347 -563 365 -628Q387 -710 443 -774Z"/>
</svg>