<?xml version="1.0" encoding="UTF-8" standalone="no"?>
<svg
   xmlns:dc="http://purl.org/dc/elements/1.1/"
   xmlns:cc="http://creativecommons.org/ns#"
   xmlns:rdf="http://www.w3.org/1999/02/22-rdf-syntax-ns#"
   xmlns:svg="http://www.w3.org/2000/svg"
   xmlns="http://www.w3.org/2000/svg"
   xmlns:sodipodi="http://sodipodi.sourceforge.net/DTD/sodipodi-0.dtd"
   xmlns:inkscape="http://www.inkscape.org/namespaces/inkscape"
   viewBox="0 -1000 1000 1000"
   version="1.1"
   id="svg9177"
   sodipodi:docname="rgbcolor.svg"
   inkscape:version="0.92.5 (2060ec1f9f, 2020-04-08)">
  <metadata
     id="metadata9183">
    <rdf:RDF>
      <cc:Work
         rdf:about="">
        <dc:format>image/svg+xml</dc:format>
        <dc:type
           rdf:resource="http://purl.org/dc/dcmitype/StillImage" />
        <dc:title></dc:title>
      </cc:Work>
    </rdf:RDF>
  </metadata>
  <defs
     id="defs9181" />
  <sodipodi:namedview
     pagecolor="#ffffff"
     bordercolor="#666666"
     borderopacity="1"
     objecttolerance="10"
     gridtolerance="10"
     guidetolerance="10"
     inkscape:pageopacity="0"
     inkscape:pageshadow="2"
     inkscape:window-width="1542"
     inkscape:window-height="754"
     id="namedview9179"
     showgrid="false"
     inkscape:zoom="0.4325"
     inkscape:cx="189.37992"
     inkscape:cy="381.70749"
     inkscape:window-x="2298"
     inkscape:window-y="289"
     inkscape:window-maximized="0"
     inkscape:current-layer="svg9177" />
  <path
     d="m 374.81841,-568.83775 q -40.72092,21.33001 -70.77684,51.38593 -47.50775,47.50774 -67.86821,110.52821 28.11683,5.81728 56.23366,5.81728 31.99501,0 73.20071,-10.665 41.20569,-10.66501 79.98752,-34.90365 -46.5382,-52.35548 -70.77684,-122.16277 z m 321.88921,51.38593 q -29.08638,-29.08638 -71.7464,-51.38593 -21.33,66.89866 -69.80729,122.16277 36.84274,24.23864 79.50276,35.87319 40.72092,9.69546 72.71593,9.69546 24.23865,0 56.23366,-6.78682 -18.42138,-59.1423 -66.89866,-109.55867 z m -196.8178,-80.47231 q -25.20819,0 -56.23366,4.84774 16.48228,53.32501 56.23366,98.89366 38.78183,-44.5991 57.2032,-98.89366 -31.02547,-4.84774 -57.2032,-4.84774 z m 61.08139,-153.18823 q -17.45182,-63.99003 -61.08139,-113.43687 -43.62956,49.44684 -61.08138,113.43687 -11.63456,43.62955 -8.72592,87.25912 31.02546,-6.78683 69.8073,-6.78683 38.78183,0 69.8073,6.78683 2.90863,-43.62957 -8.72591,-87.25912 z m 386.84876,-66.89866 q -28.11682,-48.4773 -71.74638,-81.92662 -43.62956,-33.44934 -96.95458,-47.99252 -35.8732,-8.72591 -72.71594,-8.72591 -82.41139,0 -151.24914,45.56865 54.29456,62.05094 75.62457,141.55369 17.45182,63.02048 9.69546,127.98004 61.08139,27.14729 106.65004,73.68548 58.17274,57.20321 85.32003,136.70596 52.35547,-26.17773 89.68298,-72.23116 37.32752,-46.05343 52.84025,-104.22617 14.54319,-53.32502 7.75637,-107.61959 -6.78683,-54.29456 -34.90366,-102.77185 z m -170.64005,481.86426 q -31.02546,6.78682 -69.8073,6.78682 -45.56865,0 -91.13731,-11.63455 -63.99001,-17.45182 -116.34549,-56.23365 -53.32502,39.75137 -116.3455,56.23365 -44.59911,11.63455 -91.1373,11.63455 -36.84274,0 -69.8073,-6.78682 v 15.51273 q 0,55.26411 20.84523,106.16527 20.84524,50.90115 60.11184,90.16775 39.26661,39.26661 90.16777,60.111842 50.90115,20.845238 106.65004,20.845238 55.74887,0 106.65003,-20.845238 50.90116,-20.845232 90.16776,-60.596612 39.2666,-39.75137 60.11184,-90.16776 20.84524,-50.41638 20.84524,-105.68049 z M 444.62571,-911.08742 q -67.86821,-45.56865 -151.24915,-45.56865 -37.81228,0 -72.71593,9.69545 -72.71593,19.39092 -125.071406,72.71594 -51.385927,51.38593 -70.776843,122.16277 -19.3909156,71.74639 0,144.46233 15.512733,58.17274 52.840246,104.22617 37.327503,46.05343 89.682983,72.23116 27.14728,-79.50275 85.32003,-136.70596 45.56866,-46.53819 106.65004,-73.68548 -7.75637,-64.95956 9.69545,-127.98004 21.33001,-79.50275 75.62458,-141.55369 z"
     id="path9175"
     inkscape:connector-curvature="0"
     style="fill:#000000;stroke-width:0.96954578" />
</svg>
