<svg xmlns="http://www.w3.org/2000/svg" viewBox="0 -1000 1000 1000">
	<path fill="#000000" d="M241 -679Q207 -679 177 -668Q238 -642 305 -584Q361 -535 428 -456L513 -512Q445 -590 380 -632Q308 -678 241 -679ZM781 -661L310 -348Q273 -323 230 -327Q208 -330 185 -341Q176 -318 185 -302Q196 -282 235 -287L267 -291L248 -266Q227 -239 217 -202Q207 -160 215 -118Q224 -70 258 -28Q279 -3 309 -1Q339 1 363.5 -14.5Q388 -30 396 -51Q399 -61 396.5 -69.5Q394 -78 385 -87Q366 -105 355 -119Q339 -137 332 -155Q362 -175 377 -187Q398 -205 409 -222Q422 -243 421.5 -265.5Q421 -288 404 -314Q478 -367 633 -468Q762 -551 825 -595ZM593 -411L509 -356L550 -303Q598 -241 622 -210Q607 -198 592.5 -191.5Q578 -185 569 -187L566 -160Q607 -157 653 -203Q675 -226 700 -234Q723 -242 745.5 -238Q768 -234 786.5 -221.5Q805 -209 816.5 -190Q828 -171 830.5 -149.5Q833 -128 822.5 -106Q812 -84 789 -66Q761 -46 719 -33L727 -7Q774 -21 805 -46Q834 -68 846.5 -95.5Q859 -123 856.5 -151.5Q854 -180 839.5 -204Q825 -228 801.5 -244Q778 -260 750.5 -264.5Q723 -269 693 -260Q638 -349 593 -411ZM383 -298Q393 -280 394 -264Q395 -248 387 -236Q373 -215 324 -182L323 -191Q321 -245 383 -298ZM700 -205Q686 -199 671 -186Q680 -158 705.5 -125Q731 -92 757 -76Q773 -85 785 -99Q775 -126 750 -157.5Q725 -189 700 -205ZM789 -850H211L-77 -350L211 150H789L796 137L1077 -350ZM758 -796L1015 -350L758 96H242L-15 -350L242 -796Z"/>
</svg>