<?xml version="1.0" encoding="UTF-8" standalone="no"?>
<svg
   xmlns:dc="http://purl.org/dc/elements/1.1/"
   xmlns:cc="http://creativecommons.org/ns#"
   xmlns:rdf="http://www.w3.org/1999/02/22-rdf-syntax-ns#"
   xmlns:svg="http://www.w3.org/2000/svg"
   xmlns="http://www.w3.org/2000/svg"
   xmlns:sodipodi="http://sodipodi.sourceforge.net/DTD/sodipodi-0.dtd"
   xmlns:inkscape="http://www.inkscape.org/namespaces/inkscape"
   viewBox="0 -1000 1000 1000"
   version="1.1"
   id="svg9234"
   sodipodi:docname="runmap.svg"
   inkscape:version="0.92.5 (2060ec1f9f, 2020-04-08)">
  <metadata
     id="metadata9240">
    <rdf:RDF>
      <cc:Work
         rdf:about="">
        <dc:format>image/svg+xml</dc:format>
        <dc:type
           rdf:resource="http://purl.org/dc/dcmitype/StillImage" />
        <dc:title></dc:title>
      </cc:Work>
    </rdf:RDF>
  </metadata>
  <defs
     id="defs9238" />
  <sodipodi:namedview
     pagecolor="#ffffff"
     bordercolor="#666666"
     borderopacity="1"
     objecttolerance="10"
     gridtolerance="10"
     guidetolerance="10"
     inkscape:pageopacity="0"
     inkscape:pageshadow="2"
     inkscape:window-width="1542"
     inkscape:window-height="754"
     id="namedview9236"
     showgrid="false"
     inkscape:zoom="0.30582368"
     inkscape:cx="63.829464"
     inkscape:cy="462.24066"
     inkscape:window-x="2298"
     inkscape:window-y="289"
     inkscape:window-maximized="0"
     inkscape:current-layer="svg9234" />
  <path
     d="m 266.4068,-796.7265 q -30.66475,0 -57.72188,9.92095 55.01616,23.44951 115.44375,75.75995 50.50664,44.19331 110.93422,115.44375 l 76.66186,-50.50664 Q 450.39526,-716.45702 391.77149,-754.337 326.83438,-795.8246 266.4068,-796.7265 Z m 487.0283,16.23428 -424.79691,282.29603 q -33.37046,22.54761 -72.15234,18.93999 -19.8419,-2.70571 -40.58569,-12.62666 -8.11714,20.7438 0,35.17427 9.92094,18.03808 45.09521,13.52856 l 28.86094,-3.60762 -17.13618,22.54761 q -18.93999,24.35141 -27.95904,57.72187 -9.01904,37.87998 -1.80381,75.75996 8.11714,43.2914 38.78189,81.17138 18.93999,22.54761 45.99711,24.35142 27.05713,1.80381 49.15379,-12.17571 22.09665,-13.97952 29.31189,-32.9195 2.70571,-9.01905 0.45095,-16.68523 -2.25476,-7.66619 -10.3719,-15.78333 -17.13618,-16.23428 -27.05713,-28.86093 -14.43047,-16.23428 -20.7438,-32.46856 27.05713,-18.03808 40.58569,-28.86093 18.93999,-16.23428 28.86094,-31.56665 11.72476,-18.93999 11.2738,-39.23284 -0.45095,-20.29284 -15.78332,-43.74236 66.74092,-47.80092 206.53608,-138.89325 116.34565,-74.85806 173.16561,-114.54184 z m -169.558,225.47606 -75.75996,49.60474 36.97807,47.80092 q 43.29141,55.91807 64.93711,83.8771 -13.52857,10.82285 -26.60618,16.68523 -13.07761,5.86237 -21.19475,4.05857 l -2.70571,24.35141 q 36.97807,2.70571 78.46567,-38.78188 19.84189,-20.7438 42.3895,-27.95903 20.7438,-7.21524 41.03665,-3.60762 20.29284,3.60762 36.97807,14.88142 16.68523,11.2738 27.05713,28.40998 10.3719,17.13618 12.62666,36.52713 2.25476,19.39094 -7.21524,39.23283 -9.46999,19.84189 -30.21379,36.07617 -25.25332,18.03809 -63.1333,29.76284 l 7.21524,23.44951 q 42.3895,-12.62666 70.34853,-35.17426 26.15522,-19.8419 37.42903,-44.64426 11.2738,-24.80237 9.01904,-50.50664 -2.25476,-25.70427 -15.33237,-47.34998 -13.07762,-21.6457 -34.27237,-36.07617 -21.19475,-14.43047 -45.99711,-18.48903 -24.80237,-4.05857 -51.8595,4.05856 -49.60473,-80.26947 -90.19042,-136.18754 z m -189.3999,101.91518 q 9.01904,16.23428 9.92095,30.66475 0.9019,14.43047 -6.31333,25.25332 -12.62666,18.93999 -56.81997,48.70283 l -0.90191,-8.11714 q -1.8038,-48.70283 54.11426,-96.50376 z m 285.90365,83.8771 q -12.62666,5.41142 -26.15522,17.13618 8.11714,25.25332 31.11569,55.01616 22.99856,29.76284 46.44807,44.19331 14.43047,-8.11714 25.25332,-20.7438 -9.01904,-24.35141 -31.56665,-52.7614 -22.5476,-28.40998 -45.09521,-42.84045 z m 80.26948,-581.72825 H 239.34967 L -20.39876,-500 239.34967,-49.047869 H 760.65033 L 766.96366,-60.772625 1020.3988,-500 Z M 732.6913,-902.2493 964.48069,-500 732.6913,-97.7507 H 267.3087 L 35.519304,-500 267.3087,-902.2493 Z"
     id="path9232"
     inkscape:connector-curvature="0"
     style="fill:#000000;stroke-width:0.90190428" />
</svg>
