<?xml version="1.0" encoding="UTF-8" standalone="no"?>
<svg
   xmlns:dc="http://purl.org/dc/elements/1.1/"
   xmlns:cc="http://creativecommons.org/ns#"
   xmlns:rdf="http://www.w3.org/1999/02/22-rdf-syntax-ns#"
   xmlns:svg="http://www.w3.org/2000/svg"
   xmlns="http://www.w3.org/2000/svg"
   xmlns:sodipodi="http://sodipodi.sourceforge.net/DTD/sodipodi-0.dtd"
   xmlns:inkscape="http://www.inkscape.org/namespaces/inkscape"
   viewBox="0 -1000 1000 1000"
   version="1.1"
   id="svg9291"
   sodipodi:docname="screen.svg"
   inkscape:version="0.92.5 (2060ec1f9f, 2020-04-08)">
  <metadata
     id="metadata9297">
    <rdf:RDF>
      <cc:Work
         rdf:about="">
        <dc:format>image/svg+xml</dc:format>
        <dc:type
           rdf:resource="http://purl.org/dc/dcmitype/StillImage" />
        <dc:title></dc:title>
      </cc:Work>
    </rdf:RDF>
  </metadata>
  <defs
     id="defs9295" />
  <sodipodi:namedview
     pagecolor="#ffffff"
     bordercolor="#666666"
     borderopacity="1"
     objecttolerance="10"
     gridtolerance="10"
     guidetolerance="10"
     inkscape:pageopacity="0"
     inkscape:pageshadow="2"
     inkscape:window-width="1542"
     inkscape:window-height="754"
     id="namedview9293"
     showgrid="false"
     inkscape:zoom="0.4325"
     inkscape:cx="267.25905"
     inkscape:cy="376.28982"
     inkscape:window-x="2298"
     inkscape:window-y="289"
     inkscape:window-maximized="0"
     inkscape:current-layer="svg9291" />
  <path
     d="m 933.4312,-406.48956 v -433.88108 q 0,-6.53154 -4.66539,-11.19693 -4.66538,-4.66538 -12.13001,-5.59846 H 83.397522 q -6.531543,0 -11.196931,5.59846 -4.665388,5.59847 -5.598466,11.19693 v 433.88108 q 0,6.53154 5.598466,11.19693 5.598465,4.66539 11.196931,4.66539 H 916.6358 q 6.53155,0 12.13001,-4.66539 5.59847,-4.66539 4.66539,-11.19693 z m 66.24851,-433.88108 v 566.3781 q 0,34.52387 -24.26002,58.78388 -24.26001,24.26002 -58.78389,25.1931 H 633.9133 q 0,18.66155 8.3977,40.12234 8.39769,21.46078 15.86231,37.3231 7.46463,15.86232 8.3977,22.39386 0,13.06309 -9.33077,23.326943 -9.33078,10.263853 -23.32694,10.263853 H 367.05311 q -13.99616,0 -23.32694,-10.263853 -9.33078,-10.263853 -10.26385,-23.326943 0,-7.46462 8.39769,-23.32694 8.3977,-15.86231 16.7954,-36.39002 8.3977,-20.52771 8.3977,-40.12234 H 83.397522 q -33.590793,0 -58.783888,-25.1931 -25.19309453,-25.19309 -24.26001695,-58.78388 v -566.3781 q 0,-34.52387 24.26001695,-58.78388 24.260017,-24.26002 58.783888,-24.26002 H 916.6358 q 34.52388,0 58.78389,24.26002 24.26002,24.26001 24.26002,58.78388 z"
     id="path9289"
     inkscape:connector-curvature="0"
     style="fill:#000000;stroke-width:0.93307757" />
</svg>
