<svg xmlns="http://www.w3.org/2000/svg" viewBox="0 -1000 1000 1000">
	<path fill="#000000" d="M1000 -296V-761Q1000 -768 995 -773Q990 -778 982 -779H89Q82 -779 77 -773Q72 -767 71 -761V-296Q71 -289 77 -284Q83 -279 89 -279H982Q989 -279 995 -284Q1001 -289 1000 -296ZM1071 -761V-154Q1071 -117 1045 -91Q1019 -65 982 -64H679Q679 -44 688 -21Q697 2 705 19Q713 36 714 43Q714 57 704 68Q694 79 679 79H393Q378 79 368 68Q358 57 357 43Q357 35 366 18Q375 1 384 -21Q393 -43 393 -64H89Q53 -64 26 -91Q-1 -118 0 -154V-761Q0 -798 26 -824Q52 -850 89 -850H982Q1019 -850 1045 -824Q1071 -798 1071 -761Z"/>
</svg>