<?xml version="1.0" encoding="UTF-8" standalone="no"?>
<svg
   xmlns:dc="http://purl.org/dc/elements/1.1/"
   xmlns:cc="http://creativecommons.org/ns#"
   xmlns:rdf="http://www.w3.org/1999/02/22-rdf-syntax-ns#"
   xmlns:svg="http://www.w3.org/2000/svg"
   xmlns="http://www.w3.org/2000/svg"
   xmlns:sodipodi="http://sodipodi.sourceforge.net/DTD/sodipodi-0.dtd"
   xmlns:inkscape="http://www.inkscape.org/namespaces/inkscape"
   viewBox="0 -1000 1000 1000"
   version="1.1"
   id="svg9348"
   sodipodi:docname="search.svg"
   inkscape:version="0.92.5 (2060ec1f9f, 2020-04-08)">
  <metadata
     id="metadata9354">
    <rdf:RDF>
      <cc:Work
         rdf:about="">
        <dc:format>image/svg+xml</dc:format>
        <dc:type
           rdf:resource="http://purl.org/dc/dcmitype/StillImage" />
        <dc:title></dc:title>
      </cc:Work>
    </rdf:RDF>
  </metadata>
  <defs
     id="defs9352" />
  <sodipodi:namedview
     pagecolor="#ffffff"
     bordercolor="#666666"
     borderopacity="1"
     objecttolerance="10"
     gridtolerance="10"
     guidetolerance="10"
     inkscape:pageopacity="0"
     inkscape:pageshadow="2"
     inkscape:window-width="1542"
     inkscape:window-height="754"
     id="namedview9350"
     showgrid="false"
     inkscape:zoom="0.4325"
     inkscape:cx="-36.130924"
     inkscape:cy="471.77639"
     inkscape:window-x="2298"
     inkscape:window-y="289"
     inkscape:window-maximized="0"
     inkscape:current-layer="svg9348" />
  <path
     d="m 706,-548 q 0,-103 -73,-176 -73,-73 -177,-74 -104,-1 -177,74 -73,75 -73,176 0,101 73,177 73,76 177,73 104,-3 177,-73 73,-70 73,-177 z M 992,-83.000003 Q 992,-54 970,-33 q -22,21 -51,21 -29,0 -49,-21 L 679,-224 q -100,69 -223,69 -80,0 -153,-31 -73,-31 -125,-84 -52,-53 -84,-125 -31.999998,-72 -30.999998,-153 1,-81 30.999998,-152 30,-71 84,-126 54,-55 125,-84 71,-29 153,-31 82,-2 153,31 71,33 125,84 54,51 84,126 30,75 31,152 0,123 -69,223 l 191,191 q 21,21 21,50.999997 z"
     id="path9346"
     inkscape:connector-curvature="0"
     style="fill:#000000" />
</svg>
