<svg xmlns="http://www.w3.org/2000/svg" viewBox="0 -1000 1000 1000">
	<path fill="#000000" d="M164 -721Q157 -728 147 -728.5Q137 -729 129.5 -722Q122 -715 122 -704.5Q122 -694 129 -686L189 -626Q195 -619 207 -619Q217 -619 224 -626L406 -807Q413 -814 413.5 -824.5Q414 -835 407 -843Q400 -851 389.5 -851Q379 -851 371 -843L316 -788Q294 -811 264.5 -823.5Q235 -836 203 -836Q160 -836 124 -814.5Q88 -793 67 -757Q46 -721 46 -678Q46 -635 67 -599Q88 -563 124 -542Q160 -521 203 -521Q255 -521 296.5 -552Q338 -583 354 -633Q357 -643 352 -652Q347 -661 337 -664Q327 -667 318 -662Q309 -657 306 -647Q295 -614 266.5 -592.5Q238 -571 203 -571Q174 -571 149.5 -585.5Q125 -600 110.5 -624.5Q96 -649 96 -678Q96 -707 110.5 -731.5Q125 -756 149.5 -770.5Q174 -785 203 -785Q225 -785 245 -776.5Q265 -768 280 -752L207 -679ZM203 -500Q160 -500 124 -479Q88 -458 67 -422Q46 -386 46 -343Q46 -300 67 -264Q88 -228 124 -207Q160 -186 203 -186Q246 -186 282 -207Q318 -228 339 -264Q360 -300 360 -343Q360 -386 339 -422Q318 -458 282 -479Q246 -500 203 -500ZM203 -236Q174 -236 149.5 -250.5Q125 -265 110.5 -289.5Q96 -314 96 -343Q96 -372 110.5 -396.5Q125 -421 149.5 -435.5Q174 -450 203 -450Q232 -450 256.5 -435.5Q281 -421 295.5 -396.5Q310 -372 310 -343Q310 -314 295.5 -289.5Q281 -265 256.5 -250.5Q232 -236 203 -236ZM360 -7Q360 -50 339 -86Q318 -122 282 -143.5Q246 -165 203 -165Q160 -165 124 -143.5Q88 -122 67 -86Q46 -50 46 -7Q46 36 67 72Q88 108 124 129Q160 150 203 150Q246 150 282 129Q318 108 339 72Q360 36 360 -7ZM203 100Q174 100 149.5 85.5Q125 71 110.5 46.5Q96 22 96 -7Q96 -36 110.5 -60.5Q125 -85 149.5 -99.5Q174 -114 203 -114Q232 -114 256.5 -99.5Q281 -85 295.5 -60.5Q310 -36 310 -7Q310 22 295.5 46.5Q281 71 256.5 85.5Q232 100 203 100ZM929 -368H440Q430 -368 422.5 -360.5Q415 -353 415 -343Q415 -333 422.5 -325.5Q430 -318 440 -318H929Q940 -318 947 -325.5Q954 -333 954 -343.5Q954 -354 947 -361Q940 -368 929 -368ZM929 -703H440Q430 -703 422.5 -695.5Q415 -688 415 -678Q415 -668 422.5 -660.5Q430 -653 440 -653H929Q940 -653 947 -660.5Q954 -668 954 -678.5Q954 -689 947 -696Q940 -703 929 -703ZM929 -32H440Q430 -32 422.5 -24.5Q415 -17 415 -7Q415 3 422.5 10.5Q430 18 440 18H929Q940 18 947 10.5Q954 3 954 -7.5Q954 -18 947 -25Q940 -32 929 -32Z"/>
</svg>