<?xml version="1.0" encoding="UTF-8" standalone="no"?>
<svg
   xmlns:dc="http://purl.org/dc/elements/1.1/"
   xmlns:cc="http://creativecommons.org/ns#"
   xmlns:rdf="http://www.w3.org/1999/02/22-rdf-syntax-ns#"
   xmlns:svg="http://www.w3.org/2000/svg"
   xmlns="http://www.w3.org/2000/svg"
   xmlns:sodipodi="http://sodipodi.sourceforge.net/DTD/sodipodi-0.dtd"
   xmlns:inkscape="http://www.inkscape.org/namespaces/inkscape"
   viewBox="0 -1000 1000 1000"
   version="1.1"
   id="svg9405"
   sodipodi:docname="select-list.svg"
   inkscape:version="0.92.5 (2060ec1f9f, 2020-04-08)">
  <metadata
     id="metadata9411">
    <rdf:RDF>
      <cc:Work
         rdf:about="">
        <dc:format>image/svg+xml</dc:format>
        <dc:type
           rdf:resource="http://purl.org/dc/dcmitype/StillImage" />
        <dc:title></dc:title>
      </cc:Work>
    </rdf:RDF>
  </metadata>
  <defs
     id="defs9409" />
  <sodipodi:namedview
     pagecolor="#ffffff"
     bordercolor="#666666"
     borderopacity="1"
     objecttolerance="10"
     gridtolerance="10"
     guidetolerance="10"
     inkscape:pageopacity="0"
     inkscape:pageshadow="2"
     inkscape:window-width="1542"
     inkscape:window-height="754"
     id="namedview9407"
     showgrid="false"
     inkscape:zoom="0.4325"
     inkscape:cx="528.66201"
     inkscape:cy="494.80152"
     inkscape:window-x="2298"
     inkscape:window-y="289"
     inkscape:window-maximized="0"
     inkscape:current-layer="svg9405" />
  <path
     d="m 171.70034,-862.009 q -6.83957,-6.83957 -16.6104,-7.32812 -9.77083,-0.48854 -17.09894,6.35104 -7.32811,6.83958 -7.32811,17.09894 0,10.25937 6.83957,18.07602 l 58.62494,58.62494 q 5.8625,6.83958 17.58748,6.83958 9.77083,0 16.6104,-6.83958 l 177.82898,-176.8519 q 6.83957,-6.83957 7.32811,-17.09894 0.48855,-10.25936 -6.35103,-18.07602 -6.83958,-7.81666 -17.09893,-7.81666 -10.25937,0 -18.07602,7.81666 l -53.73953,53.73953 q -21.49581,-22.4729 -50.31974,-34.68643 -28.82393,-12.21353 -60.09056,-12.21353 -42.01454,0 -77.18951,21.00727 -35.174967,21.00727 -55.693696,56.18224 -20.518729,35.17496 -20.518729,77.1895 0,42.01454 20.518729,77.18951 20.518729,35.17496 55.693696,55.69369 35.17497,20.51873 77.1895,20.51873 50.80828,0 91.35719,-30.28955 40.54893,-30.28956 56.18224,-79.14367 2.93124,-9.77083 -1.95417,-18.56457 -4.8854,-8.79374 -14.65622,-11.72499 -9.77083,-2.93124 -18.56458,1.95417 -8.79374,4.88541 -11.72498,14.65623 -10.74791,32.24372 -38.59475,53.25099 -27.84684,21.00727 -62.04472,21.00727 -28.33539,0 -52.27391,-14.16769 -23.93852,-14.1677 -38.10621,-38.10621 -14.1677,-23.93852 -14.1677,-52.27391 0,-28.33539 14.1677,-52.2739 14.16769,-23.93852 38.10621,-38.10621 23.93852,-14.1677 52.27391,-14.1677 21.49581,0 41.03745,8.3052 19.54165,8.3052 34.19788,23.93852 l -71.32701,71.32701 z m 38.10622,215.9352 q -42.01454,0 -77.18951,20.51873 -35.174967,20.51872 -55.693696,55.69369 -20.518729,35.17496 -20.518729,77.1895 0,42.01454 20.518729,77.18951 20.518729,35.17496 55.693696,55.69369 35.17497,20.51873 77.1895,20.51873 42.01455,0 77.1895,-20.51873 35.17496,-20.51873 55.6937,-55.69369 20.51873,-35.17497 20.51873,-77.18951 0,-42.01454 -20.51873,-77.1895 -20.51874,-35.17497 -55.6937,-55.69369 -35.17495,-20.51873 -77.18949,-20.51873 z m 0,257.94973 q -28.33539,0 -52.27391,-14.16769 -23.93852,-14.1677 -38.10621,-38.10621 -14.1677,-23.93852 -14.1677,-52.27391 0,-28.33539 14.1677,-52.2739 14.16769,-23.93852 38.10621,-38.10621 23.93852,-14.1677 52.27391,-14.1677 28.33538,0 52.2739,14.1677 23.93851,14.16769 38.1062,38.10621 14.16769,23.93851 14.16769,52.2739 0,28.33539 -14.16769,52.27391 -14.16769,23.93851 -38.1062,38.10621 -23.93853,14.16769 -52.2739,14.16769 z m 153.40192,223.75185 q 0,-42.01454 -20.51873,-77.1895 -20.51874,-35.17496 -55.6937,-56.18223 -35.17495,-21.00727 -77.1895,-21.00727 -42.01454,0 -77.1895,21.00727 -35.174967,21.00727 -55.693696,56.18223 -20.518729,35.17496 -20.518729,77.1895 0,42.01454 20.518729,77.189502 20.518729,35.174964 55.693696,55.693693 35.17497,20.518729 77.1895,20.518729 42.01455,0 77.1895,-20.518729 35.17496,-20.518729 55.6937,-55.693693 20.51873,-35.174962 20.51873,-77.189502 z M 209.80655,-59.824413 q -28.33538,0 -52.27391,-14.167693 -23.93851,-14.167694 -38.10621,-38.106204 -14.16769,-23.93852 -14.16769,-52.27391 0,-28.33538 14.16769,-52.2739 14.16769,-23.93852 38.10621,-38.10621 23.93853,-14.1677 52.27391,-14.1677 28.33538,0 52.27391,14.1677 23.93851,14.16769 38.1062,38.10621 14.16769,23.93852 14.16769,52.2739 0,28.33539 -14.16769,52.27391 -14.16769,23.93851 -38.1062,38.106204 -23.93853,14.167693 -52.27391,14.167693 z M 919.16831,-517.09894 H 441.37506 q -9.77082,0 -17.09894,7.32812 -7.32812,7.32812 -7.32812,17.09894 0,9.77082 7.32812,17.09894 7.32811,7.32812 17.09894,7.32812 h 477.79325 q 10.74792,0 17.58749,-7.32812 6.83957,-7.32812 6.83957,-17.58748 0,-10.25936 -6.83957,-17.09894 -6.83957,-6.83958 -17.58749,-6.83958 z m 0,-327.32258 H 441.37506 q -9.77082,0 -17.09894,7.32812 -7.32812,7.32812 -7.32812,17.09894 0,9.77083 7.32812,17.09894 7.32811,7.32812 17.09894,7.32812 h 477.79325 q 10.74792,0 17.58749,-7.32812 6.83957,-7.32811 6.83957,-17.58748 0,-10.25936 -6.83957,-17.09894 -6.83957,-6.83958 -17.58749,-6.83958 z m 0,655.62224 H 441.37506 q -9.77082,0 -17.09894,7.32812 -7.32812,7.32812 -7.32812,17.09894 0,9.77083 7.32812,17.09894 7.32811,7.32812 17.09894,7.32812 h 477.79325 q 10.74792,0 17.58749,-7.32812 6.83957,-7.32811 6.83957,-17.58748 0,-10.25936 -6.83957,-17.09894 -6.83957,-6.83958 -17.58749,-6.83958 z"
     id="path9403"
     inkscape:connector-curvature="0"
     style="fill:#000000;stroke-width:0.97708231" />
</svg>
