<?xml version="1.0" encoding="UTF-8" standalone="no"?>
<svg
   class="svg-icon"
   style="width: 1em; height: 1em;vertical-align: middle;fill: currentColor;overflow: hidden;"
   viewBox="0 0 1024 1024"
   version="1.1"
   id="svg6"
   sodipodi:docname="user-albums.svg"
   inkscape:version="1.3.1 (9b9bdc1480, 2023-11-25, custom)"
   xmlns:inkscape="http://www.inkscape.org/namespaces/inkscape"
   xmlns:sodipodi="http://sodipodi.sourceforge.net/DTD/sodipodi-0.dtd"
   xmlns="http://www.w3.org/2000/svg"
   xmlns:svg="http://www.w3.org/2000/svg">
  <defs
     id="defs6" />
  <sodipodi:namedview
     id="namedview6"
     pagecolor="#ffffff"
     bordercolor="#000000"
     borderopacity="0.25"
     inkscape:showpageshadow="2"
     inkscape:pageopacity="0.0"
     inkscape:pagecheckerboard="0"
     inkscape:deskcolor="#d1d1d1"
     showgrid="false"
     inkscape:zoom="0.56890074"
     inkscape:cx="477.23615"
     inkscape:cy="416.59288"
     inkscape:window-width="1846"
     inkscape:window-height="1016"
     inkscape:window-x="74"
     inkscape:window-y="27"
     inkscape:window-maximized="1"
     inkscape:current-layer="svg6" />
  <path
     id="path6"
     d="M 574.20741,934.76731 H 140.00494 c -28.08828,0 -50.847546,-22.75927 -50.847546,-50.84754 V 339.14055 c 0,-28.08827 22.759266,-50.84755 50.847546,-50.84755 h 544.6682 c 28.08826,0 50.84754,22.75928 50.84754,50.84755 v 201.9469 c 0,20.64986 16.65312,37.30299 37.303,37.30299 20.64987,0 37.303,-16.65313 37.303,-37.30299 v -201.9469 c 0,-69.277 -56.17655,-125.45354 -125.45354,-125.45354 h -544.6682 c -69.277004,0 -125.453545,56.17654 -125.453545,125.45354 v 544.77922 c 0,69.277 56.176541,125.45353 125.453545,125.45353 h 434.09145 c 20.64987,0 37.303,-16.65312 37.303,-37.30299 0.11102,-20.64987 -16.65313,-37.303 -37.19198,-37.303 z M 847.76274,732.82042 m -115.35064,0 a 115.35065,115.35065 0 1 0 230.70129,0 115.35065,115.35065 0 1 0 -230.70129,0 z m 232.9217,95.69996 c -27.86623,34.19441 -69.94312,56.5096 -117.46004,56.5096 -47.62794,0 -89.59381,-22.31519 -117.46004,-56.5096 -0.5551,0.33306 -1.22123,0.77715 -1.77634,1.1102 -80.15703,53.29001 -38.08014,179.74272 58.17492,179.74272 h 122.23394 c 96.25506,0 138.33196,-126.45271 58.17491,-179.74272 z M 265.90256,541.86459 m -52.29081,0 a 52.290812,52.290812 0 1 0 104.58162,0 52.290812,52.290812 0 1 0 -104.58162,0 z M 128.68081,830.51875 256.79885,702.28969 326.85299,772.34384 481.61604,617.46978 696.10829,832.07304 Z M 1009.2981,541.86459 V 140.0802 c 0,-69.276999 -56.1766,-125.45354 -125.45359,-125.45354 H 339.06529 c -69.277,0 -125.45354,56.176541 -125.45354,125.45354 V 288.293 h 74.606 V 140.0802 c 0,-28.08827 22.75927,-50.847541 50.84754,-50.847541 h 544.77922 c 28.08827,0 50.84754,22.759271 50.84754,50.847541 v 401.78439 c 0,20.64987 16.65313,37.303 37.303,37.303 20.64987,0 37.30305,-16.65313 37.30305,-37.303 z"
     style="stroke-width:1.11021" />
</svg>
