<?xml version="1.0" encoding="UTF-8" standalone="no"?>
<svg
   xmlns:dc="http://purl.org/dc/elements/1.1/"
   xmlns:cc="http://creativecommons.org/ns#"
   xmlns:rdf="http://www.w3.org/1999/02/22-rdf-syntax-ns#"
   xmlns:svg="http://www.w3.org/2000/svg"
   xmlns="http://www.w3.org/2000/svg"
   xmlns:sodipodi="http://sodipodi.sourceforge.net/DTD/sodipodi-0.dtd"
   xmlns:inkscape="http://www.inkscape.org/namespaces/inkscape"
   viewBox="0 -1000 1000 1000"
   version="1.1"
   id="svg9462"
   sodipodi:docname="simulspace.svg"
   inkscape:version="0.92.5 (2060ec1f9f, 2020-04-08)">
  <metadata
     id="metadata9468">
    <rdf:RDF>
      <cc:Work
         rdf:about="">
        <dc:format>image/svg+xml</dc:format>
        <dc:type
           rdf:resource="http://purl.org/dc/dcmitype/StillImage" />
        <dc:title></dc:title>
      </cc:Work>
    </rdf:RDF>
  </metadata>
  <defs
     id="defs9466" />
  <sodipodi:namedview
     pagecolor="#ffffff"
     bordercolor="#666666"
     borderopacity="1"
     objecttolerance="10"
     gridtolerance="10"
     guidetolerance="10"
     inkscape:pageopacity="0"
     inkscape:pageshadow="2"
     inkscape:window-width="1542"
     inkscape:window-height="754"
     id="namedview9464"
     showgrid="false"
     inkscape:zoom="0.4325"
     inkscape:cx="195.47481"
     inkscape:cy="427.08055"
     inkscape:window-x="2298"
     inkscape:window-y="289"
     inkscape:window-maximized="0"
     inkscape:current-layer="svg9462" />
  <path
     d="m 499.2933,-1010.225 q -11.22869,0 -23.47818,6.1247 -7.14553,3.0624 -20.92619,11.73914 -13.78068,8.67671 -20.92621,11.73908 l -129.64036,76.55927 q -140.86905,82.68401 -211.303584,125.5572 -22.457382,22.45738 -18.374221,41.8524 v 153.11854 q -1.020791,203.13726 0,304.19549 v 10.20791 q 1.020791,16.33264 2.04158,24.49897 4.083161,13.27027 13.270274,19.39501 59.205841,38.79002 180.679881,109.22456 l 129.64035,76.559262 q 54.10189,32.6652881 82.68401,46.9563524 12.24949,4.0831606 25.00937,2.04158 12.75987,-2.04158 23.98857,-10.20790256 Q 735.09585,-118.05431 905.56782,-222.17492 q 15.31186,-12.24949 20.4158,-29.60291 0,-83.70481 0,-249.58322 0,-165.87842 -1.02079,-248.56243 -10.2079,-25.51975 -31.6445,-35.72766 -233.76096,-140.86905 -373.60922,-219.46996 -7.14554,-5.1039 -20.41581,-5.1039 z m -20.4158,198.03331 q 0,73.4969 0,146.9938 -14.29107,-8.16632 -31.6445,-7.14553 -17.35344,1.02079 -33.68608,9.18711 -4.08317,1.02079 -13.27028,1.02079 -12.24948,0 -18.37422,1.0208 -10.2079,2.04157 -16.33264,8.16632 -11.2287,7.14553 -16.84304,20.4158 -5.61435,13.27027 -4.59356,27.56134 -1.02079,4.08316 -4.59356,13.27027 -3.57277,9.18711 -4.59355,14.29106 -2.04158,7.14553 -1.02079,14.29106 1.02079,19.39502 14.80146,35.21727 13.78066,15.82225 33.17568,16.84304 14.29106,-4.08317 38.79003,-20.41581 15.31185,-9.1871 23.47818,-13.27027 l 12.24947,-7.14553 q 15.31187,-9.18712 22.4574,-12.24949 1.02079,15.31186 0,45.93557 v 23.47817 q -171.49277,99.01665 -363.40134,212.32437 v -85.74638 q -1.02079,-114.32851 0,-171.49276 23.47818,12.24948 38.79003,4.08316 35.72767,-17.35343 104.12061,-59.20584 l 38.79003,-22.45738 q 9.18711,-5.10395 13.27028,-9.18711 6.12473,-5.10395 5.10394,-13.27027 1.02079,-18.37423 -1.02079,-29.60292 -2.04158,-15.31186 -11.22869,-25.51975 -11.22869,-14.29107 -28.07173,-21.947 -16.84304,-7.65593 -35.21727,-6.63514 -7.14553,1.02079 -18.88461,-6.63513 -11.7391,-7.65593 -18.88463,-7.65593 -22.45738,-6.12474 -44.40437,5.61434 -21.94699,11.7391 -30.11332,34.19648 -1.02078,2.04158 -2.04157,6.12474 -2.04158,9.18711 -5.61435,11.2287 -3.57276,2.04158 -4.59356,0 -1.02079,-2.04159 -0.51039,-7.65593 0.51039,-5.61434 -0.5104,-6.63513 v -16.33265 q 0,-22.45738 3.06238,-32.66529 19.39501,-14.29106 60.22662,-37.76923 23.47817,-12.24949 34.70687,-19.39502 88.80875,-53.08109 266.42626,-157.2017 z m 217.42832,-42.87318 q 22.45738,13.27027 67.37215,39.81082 79.62164,46.95635 117.39089,70.43452 4.08315,7.14553 3.06236,25.51976 -1.02079,12.24948 0,17.35343 1.02079,72.47611 0,219.4699 v 110.24536 L 865.757,-424.29139 q -25.51975,-75.53848 -39.81083,-112.28693 -8.16632,-14.29106 -25.51974,-16.33264 -17.35344,-2.04159 -29.60293,7.14553 -10.20789,5.10396 -28.58212,18.37422 -26.54055,17.35344 -39.81082,23.47818 -5.10396,-10.20791 -12.24949,-29.60291 -10.20789,-28.58214 -18.37422,-41.85241 -9.18711,-11.22869 -25.51975,-11.73909 -16.33265,-0.51039 -28.58214,8.67672 -18.37421,10.2079 -55.12267,32.66529 l -40.83161,24.49896 q -2.04157,-217.42832 0,-436.89822 z m -57.16425,81.66322 q -18.37423,0 -33.68608,12.75987 -15.31186,12.75988 -21.94699,31.6445 -6.63515,18.88462 -0.5104,36.23805 7.14553,21.4366 26.54054,34.19647 19.39502,12.75989 40.83161,8.67672 22.4574,-1.02079 38.79003,-18.88462 16.33264,-17.86382 17.35344,-41.85239 1.02079,-23.98857 -17.86383,-43.38359 -18.88462,-19.39501 -44.40438,-18.37423 -1.02079,-1.02078 -5.10394,-1.02078 z m 6.12473,41.85239 q 9.18712,0 14.80146,8.16632 5.61435,8.16632 4.08317,17.35344 -1.53119,9.18711 -10.20791,13.78066 -8.67672,4.59357 -17.35343,1.0208 -8.67672,-3.57276 -12.75988,-12.24948 -4.08316,-8.67672 0,-16.84304 3.06237,-5.10395 9.18711,-8.67672 6.12475,-3.57277 12.24948,-2.55198 z m -456.29324,33.68608 q 5.10395,0 10.2079,3.06238 3.06237,2.04157 7.65594,7.14553 4.59355,5.10394 7.65592,7.14553 5.10395,4.08315 11.22869,3.06237 l 8.16632,-2.04158 q 10.20791,-2.04158 14.29106,-2.04158 8.16632,0 14.29107,4.08316 6.12474,4.08316 10.2079,12.24948 4.08317,8.16632 1.02079,14.29106 l -51.03951,29.60292 q -55.12268,31.6445 -82.68401,46.95635 -16.33264,-5.10395 -22.45738,-23.47817 -6.12475,-18.37423 4.08315,-32.66529 3.06238,-6.12475 10.20791,-11.2287 4.08316,-2.04158 13.27027,-5.61434 9.18711,-3.57277 13.78067,-6.12474 4.59356,-2.55198 6.63514,-9.69751 1.02079,-3.06237 1.53119,-11.73909 0.51038,-8.67672 1.53117,-12.75987 3.06238,-6.12474 9.18712,-9.18712 4.08316,-1.02079 11.22869,-1.02079 z m 259.28072,67.37216 q 8.16632,-1.02079 14.80147,5.61434 6.63513,6.63514 7.65592,14.80146 -47.97714,31.6445 -91.87112,54.10188 -6.12474,-7.14553 -3.06237,-15.31185 2.04158,-5.10395 10.2079,-14.29106 l 1.02079,-1.02079 q 3.06237,-3.06237 3.06237,-7.14553 0,-4.08316 -2.04158,-10.20791 -2.04158,-6.12474 -1.53119,-10.20789 0.5104,-4.08317 4.59357,-5.61436 4.08315,-1.53118 13.78066,2.55198 9.69751,4.08317 14.80146,2.04158 5.10395,-2.04158 13.27027,-8.16632 9.18711,-8.16632 15.31185,-7.14553 z m 193.95015,87.78796 q 2.04158,5.10395 6.12475,14.29106 13.27027,32.66529 18.37422,48.99794 -24.49897,17.35343 -17.35344,31.64449 4.08317,8.16633 13.78068,11.2287 9.69751,3.06236 16.84304,-2.04158 18.37421,-11.2287 54.10188,-34.70687 38.79003,-25.51976 58.18504,-36.74845 33.68607,96.97508 74.51769,216.40753 -120.45325,-69.41374 -324.6113,-189.86699 52.0603,-34.70686 100.03744,-59.20583 z m -140.86905,85.74638 q 116.37008,65.33058 347.06869,202.11647 1.02079,1.02079 7.14553,4.08316 6.12474,3.06237 7.65593,5.10396 1.53118,2.04158 -4.59357,4.08315 -31.64449,20.41581 -60.22662,35.72766 -122.49483,-70.43452 -367.48448,-213.34516 8.16632,-4.08316 24.49896,-14.29107 29.60292,-17.35343 45.93556,-23.47817 z m 70.43453,168.43039 q 20.41581,12.24949 61.24741,35.72766 82.68401,47.97715 122.49483,71.45532 -44.91477,29.60292 -138.82747,82.684003 Q 418.65087,-211.96701 250.22048,-313.02526 l 12.24948,-7.14553 q 23.47818,-15.31185 35.72766,-20.4158 9.18711,4.08316 25.51976,14.29106 23.47817,13.27027 36.74844,17.35344 9.18711,1.02079 15.31186,-6.12475 6.12474,-7.14553 5.61435,-16.33264 -0.5104,-9.18711 -8.16633,-13.78067 -7.65592,-4.59355 -22.96777,-13.78066 l -11.2287,-7.14553 51.03951,-28.58214 q 95.95429,55.12269 181.70067,106.16219 z m -143.93143,-21.43659 q -8.16632,0 -13.27027,7.65593 -5.10396,7.65592 -4.59356,16.84304 0.51039,9.18711 7.65593,13.27027 l 23.47817,14.29106 q 30.62372,18.37422 46.95636,25.51975 8.16632,2.04159 15.82225,-3.57276 7.65593,-5.61435 9.1871,-14.80146 1.53119,-9.18711 -5.61434,-15.31186 -47.97714,-30.6237 -74.51769,-42.87318 -2.04157,-1.02079 -5.10395,-1.02079 z m -219.46991,22.45738 q 162.30566,92.89191 366.46371,214.365953 l -24.49897,14.291065 q -32.66529,20.415804 -51.03951,27.561336 -38.79003,-20.415805 -114.32851,-65.33057 -48.99794,-28.582134 -73.49689,-42.873194 -80.64243,-48.99793 -178.6383,-105.14139 45.93556,-28.58214 75.53847,-42.8732 z m 345.02711,51.03952 q -9.18711,0 -14.29106,8.16632 -5.10395,8.16632 -4.08316,17.35343 1.02079,9.18711 10.2079,12.24949 l 17.35343,11.22869 q 34.70687,21.43659 54.10189,29.60292 10.2079,-1.0208 17.35343,-9.69751 7.14553,-8.67672 3.06237,-17.86384 -3.06237,-7.14553 -11.22869,-13.27026 -5.10395,-3.06238 -15.31186,-9.18712 l -23.47817,-13.27027 q -21.43659,-12.24949 -33.68608,-15.31185 z"
     id="path9460"
     inkscape:connector-curvature="0"
     style="fill:#000000;stroke-width:1.02079022" />
</svg>
