<svg xmlns="http://www.w3.org/2000/svg" viewBox="0 -1000 1000 1000">
	<path fill="#000000" d="M417 -850Q406 -850 394 -844Q387 -841 373.5 -832.5Q360 -824 353 -821L226 -746Q88 -665 19 -623Q-3 -601 1 -582V-432Q0 -233 1 -134V-124Q2 -108 3 -100Q7 -87 16 -81Q74 -43 193 26L320 101Q373 133 401 147Q413 151 425.5 149Q438 147 449 139Q648 24 815 -78Q830 -90 835 -107Q835 -189 835 -351.5Q835 -514 834 -595Q824 -620 803 -630Q574 -768 437 -845Q430 -850 417 -850ZM397 -656Q397 -584 397 -512Q383 -520 366 -519Q349 -518 333 -510Q329 -509 320 -509Q308 -509 302 -508Q292 -506 286 -500Q275 -493 269.5 -480Q264 -467 265 -453Q264 -449 260.5 -440Q257 -431 256 -426Q254 -419 255 -412Q256 -393 269.5 -377.5Q283 -362 302 -361Q316 -365 340 -381Q355 -390 363 -394L375 -401Q390 -410 397 -413Q398 -398 397 -368V-345Q229 -248 41 -137V-221Q40 -333 41 -389Q64 -377 79 -385Q114 -402 181 -443L219 -465Q228 -470 232 -474Q238 -479 237 -487Q238 -505 236 -516Q234 -531 225 -541Q214 -555 197.5 -562.5Q181 -570 163 -569Q156 -568 144.5 -575.5Q133 -583 126 -583Q104 -589 82.5 -577.5Q61 -566 53 -544Q52 -542 51 -538Q49 -529 45.5 -527Q42 -525 41 -527Q40 -529 40.5 -534.5Q41 -540 40 -541V-557Q40 -579 43 -589Q62 -603 102 -626Q125 -638 136 -645Q223 -697 397 -799ZM610 -698Q632 -685 676 -659Q754 -613 791 -590Q795 -583 794 -565Q793 -553 794 -548Q795 -477 794 -333V-225L776 -276Q751 -350 737 -386Q729 -400 712 -402Q695 -404 683 -395Q673 -390 655 -377Q629 -360 616 -354Q611 -364 604 -383Q594 -411 586 -424Q577 -435 561 -435.5Q545 -436 533 -427Q515 -417 479 -395L439 -371Q437 -584 439 -799ZM554 -618Q536 -618 521 -605.5Q506 -593 499.5 -574.5Q493 -556 499 -539Q506 -518 525 -505.5Q544 -493 565 -497Q587 -498 603 -515.5Q619 -533 620 -556.5Q621 -580 602.5 -599Q584 -618 559 -617Q558 -618 554 -618ZM560 -577Q569 -577 574.5 -569Q580 -561 578.5 -552Q577 -543 568.5 -538.5Q560 -534 551.5 -537.5Q543 -541 539 -549.5Q535 -558 539 -566Q542 -571 548 -574.5Q554 -578 560 -577ZM113 -544Q118 -544 123 -541Q126 -539 130.5 -534Q135 -529 138 -527Q143 -523 149 -524L157 -526Q167 -528 171 -528Q179 -528 185 -524Q191 -520 195 -512Q199 -504 196 -498L146 -469Q92 -438 65 -423Q49 -428 43 -446Q37 -464 47 -478Q50 -484 57 -489Q61 -491 70 -494.5Q79 -498 83.5 -500.5Q88 -503 90 -510Q91 -513 91.5 -521.5Q92 -530 93 -534Q96 -540 102 -543Q106 -544 113 -544ZM367 -478Q375 -479 381.5 -472.5Q388 -466 389 -458Q342 -427 299 -405Q293 -412 296 -420Q298 -425 306 -434L307 -435Q310 -438 310 -442Q310 -446 308 -452Q306 -458 306.5 -462Q307 -466 311 -467.5Q315 -469 324.5 -465Q334 -461 339 -463Q344 -465 352 -471Q361 -479 367 -478ZM557 -392Q559 -387 563 -378Q576 -346 581 -330Q557 -313 564 -299Q568 -291 577.5 -288Q587 -285 594 -290Q612 -301 647 -324Q685 -349 704 -360Q737 -265 777 -148Q659 -216 459 -334Q510 -368 557 -392ZM419 -308Q533 -244 759 -110Q760 -109 766 -106Q772 -103 773.5 -101Q775 -99 769 -97Q738 -77 710 -62Q590 -131 350 -271Q358 -275 374 -285Q403 -302 419 -308ZM488 -143Q508 -131 548 -108Q629 -61 668 -38Q624 -9 532 43Q338 -68 173 -167L185 -174Q208 -189 220 -194Q229 -190 245 -180Q268 -167 281 -163Q290 -162 296 -169Q302 -176 301.5 -185Q301 -194 293.5 -198.5Q286 -203 271 -212L260 -219L310 -247Q404 -193 488 -143ZM347 -164Q339 -164 334 -156.5Q329 -149 329.5 -140Q330 -131 337 -127L360 -113Q390 -95 406 -88Q414 -86 421.5 -91.5Q429 -97 430.5 -106Q432 -115 425 -121Q378 -151 352 -163Q350 -164 347 -164ZM132 -142Q291 -51 491 68L467 82Q435 102 417 109Q379 89 305 45Q257 17 233 3Q154 -45 58 -100Q103 -128 132 -142ZM470 -92Q461 -92 456 -84Q451 -76 452 -67Q453 -58 462 -55L479 -44Q513 -23 532 -15Q542 -16 549 -24.5Q556 -33 552 -42Q549 -49 541 -55Q536 -58 526 -64L503 -77Q482 -89 470 -92Z"/>
</svg>