<svg xmlns="http://www.w3.org/2000/svg" viewBox="0 -1000 1000 1000">
	<path fill="#000000" d="M255 -814Q227 -814 203 -801.5Q179 -789 162.5 -767.5Q146 -746 137 -718.5Q128 -691 128 -661Q128 -607 153 -563Q121 -551 99 -524Q73 -493 58 -439Q46 -396 41 -336Q38 -293 38 -229V-211H120L141 109H369L389 -211H471V-229Q471 -293 468 -336Q463 -396 451 -439Q438 -492 410 -524Q387 -552 356 -563Q381 -607 381 -661Q381 -691 372.5 -718.5Q364 -746 347.5 -767.5Q331 -789 307 -801.5Q283 -814 255 -814ZM738 -814Q710 -814 686 -801.5Q662 -789 645.5 -767.5Q629 -746 620.5 -719Q612 -692 612 -661Q612 -605 636 -563Q606 -551 583 -524Q556 -493 541 -439Q521 -364 521 -229V-211H604L624 109H851L853 92L876 -211H954V-229Q954 -293 951 -336Q946 -396 935 -439Q920 -493 893 -524Q870 -551 840 -563Q864 -608 864 -661Q864 -692 855.5 -719Q847 -746 830.5 -767.5Q814 -789 790 -801.5Q766 -814 738 -814ZM255 -778Q294 -778 319 -745Q331 -729 338 -707Q345 -685 345 -660Q345 -635 336 -608Q327 -581 313 -564L294 -541L324 -535Q360 -528 382 -501Q401 -478 411 -445L386 -247H357L333 -437L294 -118L253 -437L217 -133L177 -437L154 -247H121L96 -440Q109 -479 127 -501Q149 -528 185 -535L216 -541L196 -565Q182 -581 173.5 -607.5Q165 -634 165 -661Q165 -685 172 -707Q179 -729 191 -745Q216 -778 255 -778ZM895 -445Q895 -443 897 -438L899 -429Q909 -394 914 -342Q917 -304 918 -247H869ZM660 -437L699 -133L737 -437L777 -118L816 -437L841 -238V-230L818 72H658L638 -247H637ZM578 -436L603 -247H558Q559 -304 562 -342Q566 -394 576 -429Q578 -433 578 -436Z"/>
</svg>