<?xml version="1.0" encoding="UTF-8" standalone="no"?>
<svg
   xmlns:dc="http://purl.org/dc/elements/1.1/"
   xmlns:cc="http://creativecommons.org/ns#"
   xmlns:rdf="http://www.w3.org/1999/02/22-rdf-syntax-ns#"
   xmlns:svg="http://www.w3.org/2000/svg"
   xmlns="http://www.w3.org/2000/svg"
   xmlns:sodipodi="http://sodipodi.sourceforge.net/DTD/sodipodi-0.dtd"
   xmlns:inkscape="http://www.inkscape.org/namespaces/inkscape"
   viewBox="0 -1000 1000 1000"
   version="1.1"
   id="svg9944"
   sodipodi:docname="sleeve.svg"
   inkscape:version="0.92.5 (2060ec1f9f, 2020-04-08)">
  <metadata
     id="metadata9950">
    <rdf:RDF>
      <cc:Work
         rdf:about="">
        <dc:format>image/svg+xml</dc:format>
        <dc:type
           rdf:resource="http://purl.org/dc/dcmitype/StillImage" />
        <dc:title></dc:title>
      </cc:Work>
    </rdf:RDF>
  </metadata>
  <defs
     id="defs9948" />
  <sodipodi:namedview
     pagecolor="#ffffff"
     bordercolor="#666666"
     borderopacity="1"
     objecttolerance="10"
     gridtolerance="10"
     guidetolerance="10"
     inkscape:pageopacity="0"
     inkscape:pageshadow="2"
     inkscape:window-width="1542"
     inkscape:window-height="754"
     id="namedview9946"
     showgrid="false"
     inkscape:zoom="0.4325"
     inkscape:cx="250.41279"
     inkscape:cy="569.64942"
     inkscape:window-x="2298"
     inkscape:window-y="289"
     inkscape:window-maximized="0"
     inkscape:current-layer="svg9944" />
  <path
     d="m 248.65848,-981.30335 q -29.20151,0 -54.23137,13.03635 -25.02986,13.03639 -42.23789,35.45897 -17.20803,22.42258 -26.59422,51.10263 -9.3862,28.68005 -9.3862,59.96738 0,56.31719 26.07277,102.20526 -33.37315,12.51493 -56.31719,40.67353 -27.115679,32.33024 -42.759343,88.64742 -12.51493,44.84517 -17.729484,107.41982 -3.128733,44.84517 -3.128733,111.59147 v 18.77239 h 85.51869 l 21.90113,333.73148 h 237.78368 l 20.85822,-333.73148 h 85.51869 v -18.77239 q 0,-66.7463 -3.12874,-111.59147 -5.21455,-62.57465 -17.72948,-107.41982 -13.55784,-55.27427 -42.75935,-88.64742 -23.98695,-29.20151 -56.31718,-40.67353 26.07277,-45.88807 26.07277,-102.20526 0,-31.28733 -8.86474,-59.96738 -8.86475,-28.68005 -26.07278,-51.10263 -17.20802,-22.42258 -42.23789,-35.45897 -25.02986,-13.03635 -54.23136,-13.03635 z m 503.72595,0 q -29.2015,0 -54.23137,13.03635 -25.02986,13.03639 -42.23789,35.45897 -17.20802,22.42258 -26.07277,50.58118 -8.86474,28.15859 -8.86474,60.48883 0,58.40301 25.02986,102.20526 -31.28732,12.51493 -55.27427,40.67353 -28.1586,32.33024 -43.80226,88.64742 -20.85822,78.21832 -20.85822,219.01129 v 18.77239 h 86.5616 l 20.85822,333.73148 h 236.74077 l 2.08582,-17.729485 23.98695,-316.001995 h 81.34705 v -18.77239 q 0,-66.7463 -3.12873,-111.59147 -5.21456,-62.57465 -16.68658,-107.41982 -15.64366,-56.31718 -43.80225,-88.64742 -23.98695,-28.1586 -55.27428,-40.67353 25.02986,-46.93098 25.02986,-102.20526 0,-32.33024 -8.86474,-60.48883 -8.86474,-28.1586 -26.07277,-50.58118 -17.20803,-22.42258 -42.23789,-35.45897 -25.02987,-13.03635 -54.23137,-13.03635 z m -503.72595,37.54476 q 40.67352,0 66.74629,34.41606 12.51494,16.68657 19.81531,39.63061 7.30038,22.94404 7.30038,49.01681 0,26.07277 -9.3862,54.23137 -9.3862,28.15859 -23.98695,45.88807 l -19.81531,23.98695 31.28733,6.25747 q 37.54479,7.30037 60.48883,35.45897 19.81531,23.98695 30.24442,58.40301 l -26.07278,206.49635 h -30.24441 l -25.02986,-198.15307 -40.67353,332.68857 -42.75934,-332.68857 -37.54479,317.04491 -41.71644,-317.04491 -23.98695,198.15307 h -34.41606 l -26.07277,-201.2818 q 13.55784,-40.67352 32.33024,-63.61756 22.94404,-28.1586 60.48883,-35.45897 l 32.33024,-6.25747 -20.85822,-25.02986 q -14.60075,-16.68657 -23.4655,-44.32371 -8.86474,-27.63714 -8.86474,-55.79573 0,-25.02986 7.30038,-47.9739 7.30037,-22.94404 19.8153,-39.63061 26.07278,-34.41606 66.7463,-34.41606 z m 667.46296,347.28932 q 0,2.08582 2.08582,7.30037 l 2.08582,9.3862 q 10.42911,36.50188 15.64366,90.73325 3.12874,39.63061 4.17165,99.07653 h -51.10264 z m -245.08406,8.34328 40.67353,317.04491 39.63061,-317.04491 41.71643,332.68857 40.67353,-332.68857 26.07277,207.53927 v 8.34328 L 835.8173,-57.284352 H 668.95156 L 648.09334,-389.97292 h -1.04291 z m -85.51869,1.04291 26.07277,197.11016 h -46.93099 q 1.04291,-59.44592 4.17165,-99.07653 4.17164,-54.23137 14.60075,-90.73325 2.08582,-4.17164 2.08582,-7.30038 z"
     id="path9942"
     inkscape:connector-curvature="0"
     style="fill:#000000;stroke-width:1.04291081" />
</svg>
