<svg xmlns="http://www.w3.org/2000/svg" viewBox="0 -1000 1000 1000">
	<path fill="#000000" d="M494 -850Q363 -850 250 -786Q141 -724 74 -617Q5 -507 0 -378Q0 -370 2.5 -365.5Q5 -361 9 -359L13 -358H97Q116 -358 116 -376Q121 -474 174 -557Q225 -638 308 -685Q395 -734 494 -734Q573 -734 644 -703Q715 -672 767 -616L709 -559Q700 -550 701 -540.5Q702 -531 714 -528L961 -478Q972 -475 982 -479.5Q992 -484 997 -495Q1002 -506 998 -522L940 -749Q938 -757 929 -762.5Q920 -768 911 -762L846 -702Q778 -772 688 -810Q596 -850 494 -850ZM903 -342Q884 -342 884 -324Q879 -226 826 -143Q775 -62 692 -15Q606 34 507 34Q427 34 355 2Q286 -28 233 -84L292 -141Q300 -150 299 -159.5Q298 -169 287 -172L39 -222Q28 -225 18 -220.5Q8 -216 3 -205Q-2 -194 2 -178L60 49Q62 57 71 62.5Q80 68 90 62L154 2Q222 72 312 110Q405 150 507 150Q637 150 750 86Q860 24 926 -83Q995 -193 1000 -323Q1000 -331 997.5 -335Q995 -339 991 -341L987 -342Z"/>
</svg>