<?xml version="1.0" encoding="UTF-8" standalone="no"?>
<svg
   xmlns:dc="http://purl.org/dc/elements/1.1/"
   xmlns:cc="http://creativecommons.org/ns#"
   xmlns:rdf="http://www.w3.org/1999/02/22-rdf-syntax-ns#"
   xmlns:svg="http://www.w3.org/2000/svg"
   xmlns="http://www.w3.org/2000/svg"
   xmlns:sodipodi="http://sodipodi.sourceforge.net/DTD/sodipodi-0.dtd"
   xmlns:inkscape="http://www.inkscape.org/namespaces/inkscape"
   viewBox="0 -1000 1000 1000"
   version="1.1"
   id="svg10001"
   sodipodi:docname="spin3.svg"
   inkscape:version="0.92.5 (2060ec1f9f, 2020-04-08)">
  <metadata
     id="metadata10007">
    <rdf:RDF>
      <cc:Work
         rdf:about="">
        <dc:format>image/svg+xml</dc:format>
        <dc:type
           rdf:resource="http://purl.org/dc/dcmitype/StillImage" />
        <dc:title></dc:title>
      </cc:Work>
    </rdf:RDF>
  </metadata>
  <defs
     id="defs10005" />
  <sodipodi:namedview
     pagecolor="#ffffff"
     bordercolor="#666666"
     borderopacity="1"
     objecttolerance="10"
     gridtolerance="10"
     guidetolerance="10"
     inkscape:pageopacity="0"
     inkscape:pageshadow="2"
     inkscape:window-width="1542"
     inkscape:window-height="754"
     id="namedview10003"
     showgrid="false"
     inkscape:zoom="0.30582368"
     inkscape:cx="405.73522"
     inkscape:cy="53.294552"
     inkscape:window-x="2298"
     inkscape:window-y="289"
     inkscape:window-maximized="0"
     inkscape:current-layer="svg10001" />
  <path
     d="m 494,-1000 q -131,0 -244,64 -109,62 -176,169 -69,110 -74,239 0,8 2.5,12.5 2.5,4.5 6.5,6.5 l 4,1 h 84 q 19,0 19,-18 5,-98 58,-181 51,-81 134,-128 87,-49 186,-49 79,0 150,31 71,31 123,87 l -58,57 q -9,9 -8,18.5 1,9.5 13,12.5 l 247,50 q 11,3 21,-1.5 10,-4.5 15,-15.5 5,-11 1,-27 l -58,-227 q -2,-8 -11,-13.5 -9,-5.5 -18,0.5 l -65,60 q -68,-70 -158,-108 -92,-40 -194,-40 z m 409,508 q -19,0 -19,18 -5,98 -58,181 -51,81 -134,128 -86,49 -185,49 -80,0 -152,-32 -69,-30 -122,-86 l 59,-57 q 8,-9 7,-18.5 -1,-9.5 -12,-12.5 L 39,-372 q -11,-3 -21,1.5 -10,4.5 -15,15.5 -5,11 -1,27 l 58,227 q 2,8 11,13.5 9,5.5 19,-0.5 l 64,-60 q 68,70 158,108 93,40 195,40 130,0 243,-64 110,-62 176,-169 69,-110 74,-240 0,-8 -2.5,-12 -2.5,-4 -6.5,-6 l -4,-1 z"
     id="path9999"
     inkscape:connector-curvature="0"
     style="fill:#000000" />
</svg>
