<svg xmlns="http://www.w3.org/2000/svg" viewBox="0 -1000 1000 1000">
	<path fill="#000000" d="M337 -850V-762H641V-850ZM499 -720Q381 -720 280 -661Q181 -603 123 -504Q64 -403 64 -285Q64 -167 123 -66Q181 33 280 91Q381 150 499 150Q617 150 719 91Q817 33 875 -66Q934 -167 934 -285Q934 -403 875 -504Q817 -603 719 -661Q617 -720 499 -720ZM499 -644Q597 -644 681 -595Q762 -547 810 -466Q859 -382 859 -285Q859 -188 810 -104Q762 -22 681 26Q597 75 499.5 75Q402 75 318 26Q237 -22 189 -104Q140 -188 140 -285Q140 -382 189 -466Q237 -547 318 -595Q402 -644 499 -644ZM661 -601L507 -373Q544 -368 566 -343ZM480 -599V-502Q486 -503 499.5 -503Q513 -503 519 -502V-599ZM291 -521L263 -493L331 -425Q346 -441 360 -453ZM707 -521L639 -453Q659 -435 667 -425L735 -493ZM498 -348Q490 -348 485 -347Q458 -341 443 -318Q428 -295 433.5 -268Q439 -241 462 -226Q485 -211 512 -217Q539 -223 554 -245.5Q569 -268 564 -295Q559 -319 540.5 -333.5Q522 -348 498 -348ZM185 -305V-265H282Q281 -272 281 -285Q281 -298 282 -305ZM717 -305Q718 -298 718 -285Q718 -272 717 -265H813V-305ZM589 -290Q591 -274 586.5 -258Q582 -242 573 -229L836 -188ZM331 -145L263 -77L291 -49L360 -117Q346 -129 331 -145ZM667 -145Q659 -135 639 -117L707 -49L735 -77ZM480 -67V29H519V-67Z"/>
</svg>