<?xml version="1.0" encoding="UTF-8" standalone="no"?>
<svg
   xmlns:dc="http://purl.org/dc/elements/1.1/"
   xmlns:cc="http://creativecommons.org/ns#"
   xmlns:rdf="http://www.w3.org/1999/02/22-rdf-syntax-ns#"
   xmlns:svg="http://www.w3.org/2000/svg"
   xmlns="http://www.w3.org/2000/svg"
   xmlns:sodipodi="http://sodipodi.sourceforge.net/DTD/sodipodi-0.dtd"
   xmlns:inkscape="http://www.inkscape.org/namespaces/inkscape"
   viewBox="0 -1000 1000 1000"
   version="1.1"
   id="svg10073"
   sodipodi:docname="stopwatch.svg"
   inkscape:version="0.92.5 (2060ec1f9f, 2020-04-08)">
  <metadata
     id="metadata10079">
    <rdf:RDF>
      <cc:Work
         rdf:about="">
        <dc:format>image/svg+xml</dc:format>
        <dc:type
           rdf:resource="http://purl.org/dc/dcmitype/StillImage" />
        <dc:title></dc:title>
      </cc:Work>
    </rdf:RDF>
  </metadata>
  <defs
     id="defs10077" />
  <sodipodi:namedview
     pagecolor="#ffffff"
     bordercolor="#666666"
     borderopacity="1"
     objecttolerance="10"
     gridtolerance="10"
     guidetolerance="10"
     inkscape:pageopacity="0"
     inkscape:pageshadow="2"
     inkscape:window-width="1542"
     inkscape:window-height="754"
     id="namedview10075"
     showgrid="false"
     inkscape:zoom="0.4325"
     inkscape:cx="192.76597"
     inkscape:cy="443.33358"
     inkscape:window-x="2298"
     inkscape:window-y="289"
     inkscape:window-maximized="0"
     inkscape:current-layer="svg10073" />
  <path
     d="m 338,-1000 v 88 h 304 v -88 z m 162,130 q -118,0 -219,59 -99,58 -157,157 -59,101 -59,219 0,118 59,219 58,99 157,157 101,59 219,59 118,0 220,-59 98,-58 156,-157 59,-101 59,-219 0,-118 -59,-219 -58,-99 -156,-157 -102,-59 -220,-59 z m 0,76 q 98,0 182,49 81,48 129,129 49,84 49,181 0,97 -49,181 -48,82 -129,130 -84,49 -181.5,49 -97.5,0 -181.5,-49 -81,-48 -129,-130 -49,-84 -49,-181 0,-97 49,-181 48,-81 129,-129 84,-49 181,-49 z m 162,43 -154,228 q 37,5 59,30 z m -181,2 v 97 q 6,-1 19.5,-1 13.5,0 19.5,1 v -97 z m -189,78 -28,28 68,68 q 15,-16 29,-28 z m 416,0 -68,68 q 20,18 28,28 l 68,-68 z m -209,173 q -8,0 -13,1 -27,6 -42,29 -15,23 -9.5,50 5.5,27 28.5,42 23,15 50,9 27,-6 42,-28.5 15,-22.5 10,-49.5 -5,-24 -23.5,-38.5 Q 523,-498 499,-498 Z m -313,43 v 40 h 97 q -1,-7 -1,-20 0,-13 1,-20 z m 532,0 q 1,7 1,20 0,13 -1,20 h 96 v -40 z m -128,15 q 2,16 -2.5,32 -4.5,16 -13.5,29 l 263,41 z m -258,145 -68,68 28,28 69,-68 q -14,-12 -29,-28 z m 336,0 q -8,10 -28,28 l 68,68 28,-28 z m -187,78 v 96 h 39 v -96 z"
     id="path10071"
     inkscape:connector-curvature="0"
     style="fill:#000000" />
</svg>
