<?xml version="1.0" encoding="UTF-8" standalone="no"?>
<svg
   xmlns:dc="http://purl.org/dc/elements/1.1/"
   xmlns:cc="http://creativecommons.org/ns#"
   xmlns:rdf="http://www.w3.org/1999/02/22-rdf-syntax-ns#"
   xmlns:svg="http://www.w3.org/2000/svg"
   xmlns="http://www.w3.org/2000/svg"
   xmlns:sodipodi="http://sodipodi.sourceforge.net/DTD/sodipodi-0.dtd"
   xmlns:inkscape="http://www.inkscape.org/namespaces/inkscape"
   viewBox="0 -1000 1000 1000"
   version="1.1"
   id="svg10130"
   sodipodi:docname="temperature.svg"
   inkscape:version="0.92.5 (2060ec1f9f, 2020-04-08)">
  <metadata
     id="metadata10136">
    <rdf:RDF>
      <cc:Work
         rdf:about="">
        <dc:format>image/svg+xml</dc:format>
        <dc:type
           rdf:resource="http://purl.org/dc/dcmitype/StillImage" />
        <dc:title></dc:title>
      </cc:Work>
    </rdf:RDF>
  </metadata>
  <defs
     id="defs10134" />
  <sodipodi:namedview
     pagecolor="#ffffff"
     bordercolor="#666666"
     borderopacity="1"
     objecttolerance="10"
     gridtolerance="10"
     guidetolerance="10"
     inkscape:pageopacity="0"
     inkscape:pageshadow="2"
     inkscape:window-width="1542"
     inkscape:window-height="754"
     id="namedview10132"
     showgrid="false"
     inkscape:zoom="0.4325"
     inkscape:cx="421.66287"
     inkscape:cy="565.90855"
     inkscape:window-x="2298"
     inkscape:window-y="289"
     inkscape:window-maximized="0"
     inkscape:current-layer="svg10130" />
  <path
     d="m 635,-1000.1129 q -22,1 -42,10.5 -20,9.5 -33,26.5 -13,15 -23,47 0,323 -1,484 -57,28 -92.5,84 -35.5,56 -34.5,119 -1,61 31.5,116 32.5,54.999997 85.5,83.999997 35,19.9999998 75.5,26.4999998 40.5,6.5 80.5,-2.5 Q 743,-16.112903 790.5,-60.112903 838,-104.1129 855,-164.1129 q 14,-49 6,-100.5 -8,-51.5 -37,-91.5 -36,-53 -87,-76 0,-65 0,-195 0,-173 -1,-259 v -9 q -1,-18 -3,-27 -2,-15 -9,-26 -13,-23 -37.5,-37.5 -24.5,-14.5 -51.5,-14.5 z m 2,39 q 23,0 41,16.5 18,16.5 18,39.5 2,51 2,154 v 344 q 42,19 73,50 33,34 46,76 8,26 8,54 0,28 -8,55 -15,51 -57.5,86.999997 -42.5,36 -95.5,44 -50,8 -98,-11.5 -48,-19.5 -78,-59.499997 -24,-31 -34,-70 -10,-39 -3,-77 6,-44 33.5,-80.5 27.5,-36.5 67.5,-56.5 16,-8 23,-11 v -188 q 0,-207 2,-311 2,-23 20,-39.5 18,-16.5 40,-15.5 z m 124,60 q 0,18 0,36 69,0 103,-1 v -37 l -103,-1 z m -483,45 q -1,3 -3,10 -3,13 -6,19 -2,-3 -6,-11 -6,-12 -11,-17 -7,0 -20,8 l -7,4 q -4,3 -3.5,6.5 0.5,3.5 2.5,9.5 l 3,6 q 6,10 7,14 -4,-1 -12,-3 -13,-5 -20,-4 -5,7 -8,25 l -1,5 q -1,4 1.5,5.5 2.5,1.5 7.5,3 5,1.5 6,2.5 l 53,15 q 5,9 16,28 l 10,19 -1,3 q -4,8 -6,11 -5,4 -12,2 h -17 q -21,0 -30,-2 l -51,-51 -27,27 q 8,9 25,26 h -32 q 0,25 1,38 20,0 30,1 l -8,8 q -12,11 -17,17 l 28,27 q 35,-35 53,-52 h 57 l 3,6 q 3,6 4,10 1,4 -4,8 l -23,40 q -10,3 -29,8 -27,6 -40,11 -3,7 2,20 2,6 2,10 0,4 3.5,5.5 3.5,1.5 7.5,-0.5 6,-1 18,-4 l 7,-2 q -2,4 -6,10 -6,11 -7,16 6,7 25,17 l 3,1 q 5,1 9,-8 3,-5 4,-6 l 3,-4 q 2,-6 3,-4 l 2,7 q 4,16 9,23 9,0 25,-6 l 4,-1 q 4,-2 4.5,-5 0.5,-3 -1,-8.5 -1.5,-5.5 -1.5,-7.5 -9,-30 -14,-52 l 28,-48 h 4 q 8,0 11,1 6,2 7,9 l 7,13 q 10,17 14,26 -3,12 -10,36 -7,24 -10,36 6,1 18,5 9,3 14,4 4,-1 7,-6 1,-3 3,-10 l 2,-8 q 3,-12 6,-3 l 3,6 q 5,11 11,12 19,-6 28,-15 1,-6 -6,-18 -4,-6 -4,-9 l 10,3 q 15,4 23,3 5,-9 9,-28 v -2 q 0,-4 -2.5,-5.5 -2.5,-1.5 -8.5,-2.5 l -5,-1 -22,-7 q -21,-6 -31,-10 -13,-22 -26,-46 8,-10 12,-19 h 58 l 17,17 q 24,23 35,35 9,-10 27,-28 l -24,-24 q 10,-1 29,-1 1,-13 1,-38 -5,-1 -15.5,-1 -10.5,0 -15.5,0 5,-6 17,-17 l 8,-8 q -3,-3 -9,-9 -11,-13 -18,-16 -7,4 -18,15 -8,9 -13,12 l -8,8 q -10,12 -16,16 h -55 q -1,-3 -4.5,-9 -3.5,-6 -4.5,-9 4,-9 14,-26 l 11,-18 23,-6 q 31,-7 46,-12 1,-7 -3,-20 l -2,-8 q -1,-13 -14,-7 -2,0 -8.5,2 -6.5,2 -9.5,2.5 -3,0.5 -2,-2.5 1,-3 5,-9 8,-12 8,-19 -8,-9 -28,-17 -4,1 -9,9 -3,5 -5,7 l -2,5 q -4,8 -5,5 -1,-3 -3,-10 -3,-13 -8,-18 -7,-2 -22,4 l -6,2 q -6,1 -6,7 0,3 3,10 v 1 q 10,36 14,55 l -10,16 q -10,18 -16,26 h -3 q -14,3 -18,0 l -7,-14 q -12,-20 -16,-30 3,-12 9.5,-34.5 6.5,-22.5 8.5,-33.5 -4,-5 -16,-8 l -7,-2 q -1,0 -5,-1 -8,-3 -9,1 z m 483,51 q 0,18 0,36 47,0 71,-1 l 1,-38 h -72 z m -143,96 q 0,167 0,335 -33,5 -61.5,23 -28.5,18 -45.5,46 -24,39 -21,78 -1,25 8.5,50 9.5,25 26.5,45 19,23 46,36.499997 27,13.5 57,14.5 47,3 85,-20.999997 31,-19 50,-51 19,-32 21,-68 1,-31 -10,-60 -11,-29 -32,-50 -16,-16 -37.5,-27 -21.5,-11 -44.5,-15 -3,-4 -2,-18 0,-7 0,-10 l -2,-310 -38,-1 z m 143,1 q 0,17 0,35 h 103 v -38 q -68,0 -103,-1 z m -429,15 q 7,0 12,5 5,5 5,12.5 0,7.5 -5.5,12.5 -5.5,5 -13.5,3.5 -8,-1.5 -12.5,-7.5 -4.5,-6 -1.5,-14 1,-5 6,-8.5 5,-3.5 10,-3.5 z m 429,81 q 0,17 0,35 h 72 v -39 h -72 z m 0,96 q 0,18 0,36 35,-1 103,-1 v -38 q -68,0 -103,-1 z m -124,180 q 36,-1 66.5,22.5 30.5,23.5 37.5,58.5 9,33 -4,67 -13,34 -42,52 -16,10 -36.5,14 -20.5,4 -40.5,1 -37,-7 -62.5,-35.5 -25.5,-28.5 -26.5,-64.5 -2,-21 5,-41 7,-20 21.5,-37.5 14.5,-17.5 36.5,-27.5 22,-10 45,-9 z"
     id="path10128"
     inkscape:connector-curvature="0"
     style="fill:#000000" />
</svg>
