<svg xmlns="http://www.w3.org/2000/svg" viewBox="0 -1000 1000 1000">
	<path fill="#000000" d="M635 -850Q613 -849 593 -839.5Q573 -830 560 -813Q547 -798 537 -766Q537 -443 536 -282Q479 -254 443.5 -198Q408 -142 409 -79Q408 -18 440.5 37Q473 92 526 121Q561 141 601.5 147.5Q642 154 682 145Q743 134 790.5 90Q838 46 855 -14Q869 -63 861 -114.5Q853 -166 824 -206Q788 -259 737 -282Q737 -347 737 -477Q737 -650 736 -736V-745Q735 -763 733 -772Q731 -787 724 -798Q711 -821 686.5 -835.5Q662 -850 635 -850ZM637 -811Q660 -811 678 -794.5Q696 -778 696 -755Q698 -704 698 -601V-257Q740 -238 771 -207Q804 -173 817 -131Q825 -105 825 -77Q825 -49 817 -22Q802 29 759.5 65Q717 101 664 109Q614 117 566 97.5Q518 78 488 38Q464 7 454 -32Q444 -71 451 -109Q457 -153 484.5 -189.5Q512 -226 552 -246Q568 -254 575 -257V-445Q575 -652 577 -756Q579 -779 597 -795.5Q615 -812 637 -811ZM761 -751Q761 -733 761 -715Q830 -715 864 -716V-753L761 -754ZM278 -706Q277 -703 275 -696Q272 -683 269 -677Q267 -680 263 -688Q257 -700 252 -705Q245 -705 232 -697L225 -693Q221 -690 221.5 -686.5Q222 -683 224 -677L227 -671Q233 -661 234 -657Q230 -658 222 -660Q209 -665 202 -664Q197 -657 194 -639L193 -634Q192 -630 194.5 -628.5Q197 -627 202 -625.5Q207 -624 208 -623L261 -608Q266 -599 277 -580L287 -561L286 -558Q282 -550 280 -547Q275 -543 268 -545H251Q230 -545 221 -547L170 -598L143 -571Q151 -562 168 -545H136Q136 -520 137 -507Q157 -507 167 -506L159 -498Q147 -487 142 -481L170 -454Q205 -489 223 -506H280L283 -500Q286 -494 287 -490Q288 -486 283 -482L260 -442Q250 -439 231 -434Q204 -428 191 -423Q188 -416 193 -403Q195 -397 195 -393Q195 -389 198.5 -387.5Q202 -386 206 -388Q212 -389 224 -392L231 -394Q229 -390 225 -384Q219 -373 218 -368Q224 -361 243 -351L246 -350Q251 -349 255 -358Q258 -363 259 -364L262 -368Q264 -374 265 -372L267 -365Q271 -349 276 -342Q285 -342 301 -348L305 -349Q309 -351 309.5 -354Q310 -357 308.5 -362.5Q307 -368 307 -370Q298 -400 293 -422L321 -470H325Q333 -470 336 -469Q342 -467 343 -460L350 -447Q360 -430 364 -421Q361 -409 354 -385Q347 -361 344 -349Q350 -348 362 -344Q371 -341 376 -340Q380 -341 383 -346Q384 -349 386 -356L388 -364Q391 -376 394 -367L397 -361Q402 -350 408 -349Q427 -355 436 -364Q437 -370 430 -382Q426 -388 426 -391L436 -388Q451 -384 459 -385Q464 -394 468 -413V-415Q468 -419 465.5 -420.5Q463 -422 457 -423L452 -424L430 -431Q409 -437 399 -441Q386 -463 373 -487Q381 -497 385 -506H443L460 -489Q484 -466 495 -454Q504 -464 522 -482L498 -506Q508 -507 527 -507Q528 -520 528 -545Q523 -546 512.5 -546Q502 -546 497 -546Q502 -552 514 -563L522 -571Q519 -574 513 -580Q502 -593 495 -596Q488 -592 477 -581Q469 -572 464 -569L456 -561Q446 -549 440 -545H385Q384 -548 380.5 -554Q377 -560 376 -563Q380 -572 390 -589L401 -607L424 -613Q455 -620 470 -625Q471 -632 467 -645L465 -653Q464 -666 451 -660Q449 -660 442.5 -658Q436 -656 433 -655.5Q430 -655 431 -658Q432 -661 436 -667Q444 -679 444 -686Q436 -695 416 -703Q412 -702 407 -694Q404 -689 402 -687L400 -682Q396 -674 395 -677Q394 -680 392 -687Q389 -700 384 -705Q377 -707 362 -701L356 -699Q350 -698 350 -692Q350 -689 353 -682V-681Q363 -645 367 -626L357 -610Q347 -592 341 -584H338Q324 -581 320 -584L313 -598Q301 -618 297 -628Q300 -640 306.5 -662.5Q313 -685 315 -696Q311 -701 299 -704L292 -706Q291 -706 287 -707Q279 -710 278 -706ZM761 -655Q761 -637 761 -619Q808 -619 832 -620L833 -658H761ZM618 -559Q618 -392 618 -224Q585 -219 556.5 -201Q528 -183 511 -155Q487 -116 490 -77Q489 -52 498.5 -27Q508 -2 525 18Q544 41 571 54.5Q598 68 628 69Q675 72 713 48Q744 29 763 -3Q782 -35 784 -71Q785 -102 774 -131Q763 -160 742 -181Q726 -197 704.5 -208Q683 -219 660 -223Q657 -227 658 -241Q658 -248 658 -251L656 -561L618 -562ZM761 -558Q761 -541 761 -523H864V-561Q796 -561 761 -562ZM332 -543Q339 -543 344 -538Q349 -533 349 -525.5Q349 -518 343.5 -513Q338 -508 330 -509.5Q322 -511 317.5 -517Q313 -523 316 -531Q317 -536 322 -539.5Q327 -543 332 -543ZM761 -462Q761 -445 761 -427H833V-466H761ZM761 -366Q761 -348 761 -330Q796 -331 864 -331V-369Q796 -369 761 -370ZM637 -186Q673 -187 703.5 -163.5Q734 -140 741 -105Q750 -72 737 -38Q724 -4 695 14Q679 24 658.5 28Q638 32 618 29Q581 22 555.5 -6.5Q530 -35 529 -71Q527 -92 534 -112Q541 -132 555.5 -149.5Q570 -167 592 -177Q614 -187 637 -186Z"/>
</svg>