<?xml version="1.0" encoding="UTF-8" standalone="no"?>
<svg
   xmlns:dc="http://purl.org/dc/elements/1.1/"
   xmlns:cc="http://creativecommons.org/ns#"
   xmlns:rdf="http://www.w3.org/1999/02/22-rdf-syntax-ns#"
   xmlns:svg="http://www.w3.org/2000/svg"
   xmlns="http://www.w3.org/2000/svg"
   xmlns:sodipodi="http://sodipodi.sourceforge.net/DTD/sodipodi-0.dtd"
   xmlns:inkscape="http://www.inkscape.org/namespaces/inkscape"
   viewBox="0 -1000 1000 1000"
   version="1.1"
   id="svg10187"
   sodipodi:docname="token.svg"
   inkscape:version="0.92.5 (2060ec1f9f, 2020-04-08)">
  <metadata
     id="metadata10193">
    <rdf:RDF>
      <cc:Work
         rdf:about="">
        <dc:format>image/svg+xml</dc:format>
        <dc:type
           rdf:resource="http://purl.org/dc/dcmitype/StillImage" />
        <dc:title></dc:title>
      </cc:Work>
    </rdf:RDF>
  </metadata>
  <defs
     id="defs10191" />
  <sodipodi:namedview
     pagecolor="#ffffff"
     bordercolor="#666666"
     borderopacity="1"
     objecttolerance="10"
     gridtolerance="10"
     guidetolerance="10"
     inkscape:pageopacity="0"
     inkscape:pageshadow="2"
     inkscape:window-width="1542"
     inkscape:window-height="754"
     id="namedview10189"
     showgrid="false"
     inkscape:zoom="0.4325"
     inkscape:cx="-33.422085"
     inkscape:cy="404.05542"
     inkscape:window-x="2298"
     inkscape:window-y="289"
     inkscape:window-maximized="0"
     inkscape:current-layer="svg10187" />
  <path
     d="m 360.97131,-968.59875 q -63.14451,8.86241 -83.08489,67.57574 -11.07796,32.12615 -8.86238,89.73167 v 6.64678 l 202.72712,29.91056 q 3.32338,-111.88763 29.91056,-165.06196 6.64678,-14.40137 15.50917,-25.4794 z m 231.52987,5.53907 q -4.43118,0 -6.6468,1.10776 -15.50917,1.10779 -27.14106,9.41627 -11.63188,8.3085 -22.70986,29.35667 -25.47936,55.38992 -25.47936,175.03215 v 12.18578 l -12.18579,5.539 q -155.09178,65.3601 -217.1285,119.64223 -49.85092,43.20413 -42.09633,73.11469 6.64679,27.69496 55.38992,50.95873 40.98854,21.04817 114.10324,34.34175 l 24.37156,3.32339 -179.46334,417.640012 259.22483,-69.791302 110.77984,-243.71565 110.77985,187.21794 245.93123,-66.46792 -188.32571,-307.96796 23.26378,-7.75459 q 54.28211,-18.83256 98.59405,-46.52753 22.15597,-14.40138 36.55735,-29.91056 14.40133,-15.50918 18.27875,-27.14105 3.87723,-11.6319 -2.21573,-25.47937 -6.09283,-13.84748 -30.4644,-30.46446 -58.71331,-39.88074 -202.72711,-70.89911 l -14.40139,-3.32338 -1.10779,-15.50918 q -1.1078,-22.15597 -9.97018,-53.17433 -11.07799,-34.34174 -27.69497,-62.03671 -34.34175,-55.38993 -79.76148,-58.71327 z M 223.6043,-773.62619 q -84.19268,47.63533 -123.51953,74.22249 -39.326831,26.58716 -52.620417,45.41974 -9.970186,14.40137 -11.077985,35.44955 -2.215596,36.55734 18.832571,59.82112 18.83258,19.94037 57.605521,35.44954 23.26377,8.86238 79.76148,24.37157 l 37.66515,9.97018 -6.64679,-6.64678 q -9.97019,-8.86239 -14.40138,-14.40139 -5.53899,-8.86238 -7.75459,-18.83257 -6.64679,-25.47937 7.20069,-54.28213 13.84748,-28.80276 47.08143,-57.60551 59.82112,-49.85093 175.03216,-103.02525 z m -76.43809,307.96796 q -19.94037,42.09634 -40.98854,97.48626 -13.293583,34.34175 -36.557345,103.02525 -32.126158,89.73168 -49.850933,132.93581 l 189.433538,93.055072 38.77294,-77.545892 122.96562,-286.91979 z m 480.78452,204.94271 -33.23395,75.33029 94.16286,26.58716 z"
     id="path10185"
     inkscape:connector-curvature="0"
     style="fill:#000000;stroke-width:1.10779846" />
</svg>
