<svg xmlns="http://www.w3.org/2000/svg" viewBox="0 -1000 1000 1000">
	<path fill="#000000" d="M375 -773Q318 -765 300 -712Q290 -683 292 -631V-625L475 -598Q478 -699 502 -747Q508 -760 516 -770ZM584 -768Q580 -768 578 -767Q564 -766 553.5 -758.5Q543 -751 533 -732Q510 -682 510 -574V-563L499 -558Q359 -499 303 -450Q258 -411 265 -384Q271 -359 315 -338Q352 -319 418 -307L440 -304L278 73L512 10L612 -210L712 -41L934 -101L764 -379L785 -386Q834 -403 874 -428Q894 -441 907 -455Q920 -469 923.5 -479.5Q927 -490 921.5 -502.5Q916 -515 894 -530Q841 -566 711 -594L698 -597L697 -611Q696 -631 688 -659Q678 -690 663 -715Q632 -765 591 -768ZM251 -597Q175 -554 139.5 -530Q104 -506 92 -489Q83 -476 82 -457Q80 -424 99 -403Q116 -385 151 -371Q172 -363 223 -349L257 -340L251 -346Q242 -354 238 -359Q233 -367 231 -376Q225 -399 237.5 -425Q250 -451 280 -477Q334 -522 438 -570ZM182 -319Q164 -281 145 -231Q133 -200 112 -138Q83 -57 67 -18L238 66L273 -4L384 -263ZM616 -134L586 -66L671 -42Z"/>
</svg>