<?xml version="1.0" encoding="UTF-8" standalone="no"?>
<svg
   xmlns:dc="http://purl.org/dc/elements/1.1/"
   xmlns:cc="http://creativecommons.org/ns#"
   xmlns:rdf="http://www.w3.org/1999/02/22-rdf-syntax-ns#"
   xmlns:svg="http://www.w3.org/2000/svg"
   xmlns="http://www.w3.org/2000/svg"
   xmlns:sodipodi="http://sodipodi.sourceforge.net/DTD/sodipodi-0.dtd"
   xmlns:inkscape="http://www.inkscape.org/namespaces/inkscape"
   viewBox="0 -1000 1000 1000"
   version="1.1"
   id="svg10244"
   sodipodi:docname="trash-empty.svg"
   inkscape:version="0.92.5 (2060ec1f9f, 2020-04-08)">
  <metadata
     id="metadata10250">
    <rdf:RDF>
      <cc:Work
         rdf:about="">
        <dc:format>image/svg+xml</dc:format>
        <dc:type
           rdf:resource="http://purl.org/dc/dcmitype/StillImage" />
        <dc:title></dc:title>
      </cc:Work>
    </rdf:RDF>
  </metadata>
  <defs
     id="defs10248" />
  <sodipodi:namedview
     pagecolor="#ffffff"
     bordercolor="#666666"
     borderopacity="1"
     objecttolerance="10"
     gridtolerance="10"
     guidetolerance="10"
     inkscape:pageopacity="0"
     inkscape:pageshadow="2"
     inkscape:window-width="1920"
     inkscape:window-height="1043"
     id="namedview10246"
     showgrid="false"
     inkscape:zoom="0.4325"
     inkscape:cx="-18.52347"
     inkscape:cy="497.51036"
     inkscape:window-x="1920"
     inkscape:window-y="0"
     inkscape:window-maximized="1"
     inkscape:current-layer="svg10244" />
  <path
     d="m 386.10616,-626.73414 v 341.68151 q 0,8.51542 -5.32213,13.83757 -5.32214,5.32214 -13.83757,5.32214 h -38.31943 q -8.51542,0 -13.83758,-5.32214 -5.32213,-5.32215 -5.32213,-13.83757 v -341.68151 q 0,-8.51541 5.32213,-13.83755 5.32216,-5.32214 13.83758,-5.32214 h 38.31943 q 8.51543,0 13.83757,5.32214 5.32213,5.32214 5.32213,13.83755 z m 152.21327,0 v 341.68151 q 0,8.51542 -5.32214,13.83757 -5.32216,5.32214 -13.83759,5.32214 h -38.31941 q -8.51544,0 -13.83757,-5.32214 -5.32214,-5.32215 -5.32214,-13.83757 v -341.68151 q 0,-8.51541 5.32214,-13.83755 5.32213,-5.32214 13.83757,-5.32214 h 38.31941 q 8.51543,0 13.83759,5.32214 5.32214,5.32214 5.32214,13.83755 z m 151.14883,0 v 341.68151 q 0,8.51542 -5.32215,13.83757 -5.32215,5.32214 -12.77314,5.32214 h -38.31941 q -8.51544,0 -13.83758,-5.32214 -5.32215,-5.32215 -5.32215,-13.83757 v -341.68151 q 0,-8.51541 5.32215,-13.83755 5.32214,-5.32214 13.83758,-5.32214 h 38.31941 q 7.45099,0 12.77314,5.32214 5.32215,5.32214 5.32215,13.83755 z m 76.63883,430.02907 V -759.78768 H 233.89292 v 563.0826 q 0,12.77314 4.25771,23.41742 4.25771,10.64428 8.51542,15.96643 4.25772,5.32214 6.38658,5.32214 h 493.89475 q 2.12887,0 6.38655,-5.32214 4.25774,-5.32215 8.51545,-15.96643 4.25772,-10.64428 4.25771,-23.41741 z M 366.94646,-836.42653 h 266.10709 l -28.73956,-69.18783 q -4.25774,-5.32214 -9.57987,-6.38658 H 406.33029 q -6.38656,1.06443 -10.64427,6.38658 z m 551.37389,19.15972 v 38.31943 q 0,8.51542 -5.32216,13.83756 -5.32212,5.32214 -13.83756,5.32214 h -57.47914 v 563.0826 q 0,48.9637 -27.67512,85.15428 -27.67514,36.190566 -67.05899,36.190566 H 253.05263 q -39.38386,0 -67.05899,-35.126136 -27.67514,-35.12615 -28.73955,-84.08986 v -565.21145 h -56.41472 q -8.515436,0 -13.837575,-5.32214 -5.322144,-5.32214 -5.322144,-13.83756 v -38.31943 q 0,-8.51543 5.322144,-13.83756 5.322139,-5.32215 13.837575,-5.32215 h 183.08167 l 41.51271,-98.99184 q 9.57984,-22.353 32.99728,-37.25499 23.41743,-14.90199 46.83485,-15.96642 h 189.46824 q 24.48186,0 46.83485,15.96642 22.35299,15.96643 31.93285,37.25499 l 41.5127,98.99184 h 184.14611 q 8.51543,0 13.83756,5.32215 5.32215,5.32213 5.32216,13.83756 z"
     id="path10242"
     inkscape:connector-curvature="0"
     style="fill:#000000;stroke-width:1.06442833" />
</svg>
