<svg xmlns="http://www.w3.org/2000/svg" viewBox="0 -1000 1000 1000">
	<path fill="#000000" d="M286 -439V-118Q286 -110 281 -105Q276 -100 268 -100H232Q224 -100 219 -105Q214 -110 214 -118V-439Q214 -447 219 -452Q224 -457 232 -457H268Q276 -457 281 -452Q286 -447 286 -439ZM429 -439V-118Q429 -110 424 -105Q419 -100 411 -100H375Q367 -100 362 -105Q357 -110 357 -118V-439Q357 -447 362 -452Q367 -457 375 -457H411Q419 -457 424 -452Q429 -447 429 -439ZM571 -439V-118Q571 -110 566 -105Q561 -100 554 -100H518Q510 -100 505 -105Q500 -110 500 -118V-439Q500 -447 505 -452Q510 -457 518 -457H554Q561 -457 566 -452Q571 -447 571 -439ZM643 -35V-564H143V-35Q143 -23 147 -13Q151 -3 155 2Q159 7 161 7H625Q627 7 631 2Q635 -3 639 -13Q643 -23 643 -35ZM268 -636H518L491 -701Q487 -706 482 -707H305Q299 -706 295 -701ZM786 -618V-582Q786 -574 781 -569Q776 -564 768 -564H714V-35Q714 11 688 45Q662 79 625 79H161Q124 79 98 46Q72 13 71 -33V-564H18Q10 -564 5 -569Q0 -574 0 -582V-618Q0 -626 5 -631Q10 -636 18 -636H190L229 -729Q238 -750 260 -764Q282 -778 304 -779H482Q505 -779 526 -764Q547 -749 556 -729L595 -636H768Q776 -636 781 -631Q786 -626 786 -618Z"/>
</svg>