<svg xmlns="http://www.w3.org/2000/svg" viewBox="0 -1000 1000 1000">
	<path fill="#000000" d="M245 -141L102 2Q96 7 89 7Q82 7 76.5 1.5Q71 -4 71 -11Q71 -18 77 -24L219 -166Q225 -171 232 -171Q239 -171 244.5 -166Q250 -161 250 -154Q250 -147 245 -141ZM339 -118V61Q339 69 334 74Q329 79 321 79Q313 79 309 74Q305 69 304 61V-118Q304 -126 309 -131Q314 -136 321 -136Q328 -136 334 -131Q340 -126 339 -118ZM214 -243Q214 -235 209 -230Q204 -225 196 -225H18Q10 -225 5 -230Q0 -235 0 -243Q0 -251 5 -256Q10 -261 18 -261H196Q204 -261 209 -256Q214 -251 214 -243ZM920 -171Q920 -105 872 -58L790 23Q744 70 676.5 70Q609 70 563 22L377 -165Q365 -177 353 -196L487 -206L639 -53Q654 -38 677 -38Q700 -38 715 -53L797 -134Q813 -150 813 -172Q813 -194 797 -209L644 -363L654 -496Q674 -485 685 -473L873 -285Q920 -237 920 -171ZM575 -575L442 -565L290 -718Q274 -734 252 -734Q230 -734 214 -719L132 -637Q116 -622 116 -600Q116 -578 132 -562L285 -409L275 -275Q255 -287 243 -299L56 -486Q9 -534 9 -600.5Q9 -667 56 -713L138 -795Q185 -841 252 -841Q319 -841 366 -794L552 -607Q564 -595 575 -575ZM929 -529Q929 -521 924 -516Q919 -511 911 -511H732Q724 -511 719 -516Q714 -521 714 -529Q714 -537 719 -541Q724 -545 732 -546H911Q919 -546 924 -541Q929 -536 929 -529ZM625 -832V-654Q625 -646 620 -641Q615 -636 607 -636Q599 -636 594 -641Q589 -646 589 -654V-832Q589 -840 594 -845Q599 -850 607 -850Q615 -850 620 -845Q625 -840 625 -832ZM852 -748L709 -605Q703 -600 696 -600Q689 -600 684 -605.5Q679 -611 679 -618Q679 -625 684 -631L827 -774Q832 -779 839 -779Q846 -779 851.5 -773.5Q857 -768 857 -761Q857 -754 852 -748Z"/>
</svg>