<?xml version="1.0" encoding="UTF-8" standalone="no"?>
<svg
   xmlns:dc="http://purl.org/dc/elements/1.1/"
   xmlns:cc="http://creativecommons.org/ns#"
   xmlns:rdf="http://www.w3.org/1999/02/22-rdf-syntax-ns#"
   xmlns:svg="http://www.w3.org/2000/svg"
   xmlns="http://www.w3.org/2000/svg"
   xmlns:sodipodi="http://sodipodi.sourceforge.net/DTD/sodipodi-0.dtd"
   xmlns:inkscape="http://www.inkscape.org/namespaces/inkscape"
   viewBox="0 -1000 1000 1000"
   version="1.1"
   id="svg10301"
   sodipodi:docname="unlink.svg"
   inkscape:version="0.92.5 (2060ec1f9f, 2020-04-08)">
  <metadata
     id="metadata10307">
    <rdf:RDF>
      <cc:Work
         rdf:about="">
        <dc:format>image/svg+xml</dc:format>
        <dc:type
           rdf:resource="http://purl.org/dc/dcmitype/StillImage" />
        <dc:title></dc:title>
      </cc:Work>
    </rdf:RDF>
  </metadata>
  <defs
     id="defs10305" />
  <sodipodi:namedview
     pagecolor="#ffffff"
     bordercolor="#666666"
     borderopacity="1"
     objecttolerance="10"
     gridtolerance="10"
     guidetolerance="10"
     inkscape:pageopacity="0"
     inkscape:pageshadow="2"
     inkscape:window-width="1542"
     inkscape:window-height="754"
     id="namedview10303"
     showgrid="false"
     inkscape:zoom="0.4325"
     inkscape:cx="27.526793"
     inkscape:cy="412.85914"
     inkscape:window-x="2298"
     inkscape:window-y="289"
     inkscape:window-maximized="0"
     inkscape:current-layer="svg10301" />
  <path
     d="m 280.5,-255.5 -143,143 q -6,5 -13,5 -7,0 -12.5,-5.5 -5.5,-5.5 -5.5,-12.5 0,-7 6,-13 l 142,-142 q 6,-5 13,-5 7,0 12.5,5 5.5,5 5.5,12 0,7 -5,13 z m 94,23 v 179 q 0,8 -5,13 -5,5 -13,5 -8,0 -12,-5 -4,-5 -5,-13 v -179 q 0,-8 5,-13 5,-5 12,-5 7,0 13,5 6,5 5,13 z m -125,-125 q 0,8 -5,13 -5,5 -13,5 h -178 q -8,0 -13,-5 -5,-5 -5,-13 0,-8 5,-13 5,-5 13,-5 h 178 q 8,0 13,5 5,5 5,13 z m 706,72 q 0,66 -48,113 l -82,81 q -46,47 -113.5,47 -67.5,0 -113.5,-48 l -186,-187 q -12,-12 -24,-31 l 134,-10 152,153 q 15,15 38,15 23,0 38,-15 l 82,-81 q 16,-16 16,-38 0,-22 -16,-37 l -153,-154 10,-133 q 20,11 31,23 l 188,188 q 47,48 47,114 z m -345,-404 -133,10 -152,-153 q -16,-16 -38,-16 -22,0 -38,15 l -82,82 q -16,15 -16,37 0,22 16,38 l 153,153 -10,134 q -20,-12 -32,-24 l -187,-187 q -47,-48 -47,-114.5 0,-66.5 47,-112.5 l 82,-82 q 47,-46 114,-46 67,0 114,47 l 186,187 q 12,12 23,32 z m 354,46 q 0,8 -5,13 -5,5 -13,5 h -179 q -8,0 -13,-5 -5,-5 -5,-13 0,-8 5,-12 5,-4 13,-5 h 179 q 8,0 13,5 5,5 5,12 z m -304,-303 v 178 q 0,8 -5,13 -5,5 -13,5 -8,0 -13,-5 -5,-5 -5,-13 v -178 q 0,-8 5,-13 5,-5 13,-5 8,0 13,5 5,5 5,13 z m 227,84 -143,143 q -6,5 -13,5 -7,0 -12,-5.5 -5,-5.5 -5,-12.5 0,-7 5,-13 l 143,-143 q 5,-5 12,-5 7,0 12.5,5.5 5.5,5.5 5.5,12.5 0,7 -5,13 z"
     id="path10299"
     inkscape:connector-curvature="0"
     style="fill:#000000" />
</svg>
