<svg xmlns="http://www.w3.org/2000/svg" viewBox="0 -1000 1000 1000">
	<path fill="#000000" d="M393 -350Q304 -350 241 -413Q178 -476 179 -564Q180 -652 241 -716Q302 -780 393 -779Q484 -778 544 -716Q604 -654 607 -564Q610 -474 544 -413Q478 -352 393 -350ZM929 -279H1125Q1132 -279 1138 -273Q1144 -267 1143 -261V-154Q1143 -146 1138 -141Q1133 -136 1125 -136H929V61Q929 68 923 73Q917 78 911 79H804Q796 79 791 73Q786 67 786 61V-136H589Q582 -136 577 -141Q572 -146 571 -154V-261Q571 -268 577 -273Q583 -278 589 -279H786V-475Q786 -482 791 -488Q796 -494 804 -493H911Q918 -493 923 -488Q928 -483 929 -475ZM518 -154Q518 -125 539 -103Q560 -81 589 -82H732V51Q694 79 637 79H149Q82 79 41 40Q0 1 0 -66Q0 -96 2 -124Q4 -152 10 -185Q16 -218 25 -245Q34 -272 49 -300Q64 -328 83 -345Q102 -362 131 -375Q160 -388 193 -386Q204 -386 215 -376Q259 -342 301 -325Q343 -308 393 -308Q443 -308 485 -325Q527 -342 571 -376Q582 -386 593 -386Q666 -386 714 -332H589Q560 -332 539 -311Q518 -290 518 -261Z"/>
</svg>