<?xml version="1.0" encoding="UTF-8" standalone="no"?>
<svg
   xmlns:dc="http://purl.org/dc/elements/1.1/"
   xmlns:cc="http://creativecommons.org/ns#"
   xmlns:rdf="http://www.w3.org/1999/02/22-rdf-syntax-ns#"
   xmlns:svg="http://www.w3.org/2000/svg"
   xmlns="http://www.w3.org/2000/svg"
   xmlns:sodipodi="http://sodipodi.sourceforge.net/DTD/sodipodi-0.dtd"
   xmlns:inkscape="http://www.inkscape.org/namespaces/inkscape"
   viewBox="0 -1000 1000 1000"
   version="1.1"
   id="svg10358"
   sodipodi:docname="user-circle.svg"
   inkscape:version="0.92.5 (2060ec1f9f, 2020-04-08)">
  <metadata
     id="metadata10364">
    <rdf:RDF>
      <cc:Work
         rdf:about="">
        <dc:format>image/svg+xml</dc:format>
        <dc:type
           rdf:resource="http://purl.org/dc/dcmitype/StillImage" />
        <dc:title></dc:title>
      </cc:Work>
    </rdf:RDF>
  </metadata>
  <defs
     id="defs10362" />
  <sodipodi:namedview
     pagecolor="#ffffff"
     bordercolor="#666666"
     borderopacity="1"
     objecttolerance="10"
     gridtolerance="10"
     guidetolerance="10"
     inkscape:pageopacity="0"
     inkscape:pageshadow="2"
     inkscape:window-width="1542"
     inkscape:window-height="754"
     id="namedview10360"
     showgrid="false"
     inkscape:zoom="0.4325"
     inkscape:cx="265.90463"
     inkscape:cy="446.71963"
     inkscape:window-x="2298"
     inkscape:window-y="289"
     inkscape:window-maximized="0"
     inkscape:current-layer="svg10358" />
  <path
     d="m 845.9545,-255.37281 q -11.8613,-85.00596 -48.43363,-142.33556 -36.57234,-57.3296 -101.80947,-65.23713 -36.57233,41.51454 -87.97128,64.24869 -51.39896,22.73415 -107.74012,22.73415 -56.34116,0 -107.74011,-22.73415 -51.39895,-22.73415 -87.97129,-64.24869 -65.23713,8.89597 -101.80946,65.23713 -36.57233,56.34116 -48.43363,142.33556 58.31804,83.02908 149.25465,131.46271 90.93661,48.433633 196.69984,48.433633 105.76323,0 196.69984,-48.433633 90.93661,-48.43363 149.25466,-131.46271 z M 711.52646,-640.86496 q 0,-87.97128 -61.28336,-149.25465 -61.28337,-61.28337 -150.2431,-62.27181 -88.95972,-0.98844 -149.25465,62.27181 -60.29493,63.26025 -62.27181,149.25465 -1.97688,85.99441 62.27181,150.2431 64.24869,64.24869 149.25465,61.28336 85.00596,-2.96532 150.2431,-61.28336 65.23713,-58.31805 61.28336,-150.2431 z m 282.69425,141.34712 q 0,100.82103 -39.53766,191.75764 -39.53766,90.93661 -104.77479,158.15062 Q 784.67113,-82.395557 692.74608,-44.834783 600.82103,-7.2740097 500,-6.2855687 399.17898,-5.2971267 308.24237,-44.834783 217.30576,-84.37244 150.09174,-149.60958 82.877725,-214.84671 45.316952,-307.7602 7.7561775,-400.6737 5.7792947,-499.51784 3.8024119,-598.36198 45.316952,-691.27547 86.831491,-784.18896 150.09174,-849.42609 213.35199,-914.66323 308.24237,-954.20088 403.13275,-993.73854 500,-993.73854 q 96.86726,0 191.75764,39.53766 94.89037,39.53765 158.15062,104.77479 63.26025,65.23713 104.77479,158.15062 41.51454,92.91349 39.53766,191.75763 z"
     id="path10356"
     inkscape:connector-curvature="0"
     style="fill:#000000;stroke-width:0.98844141" />
</svg>
