<svg xmlns="http://www.w3.org/2000/svg" viewBox="0 -1000 1000 1000">
	<path fill="#000000" d="M850 -103Q838 -189 801 -247Q764 -305 698 -313Q661 -271 609 -248Q557 -225 500 -225Q443 -225 391 -248Q339 -271 302 -313Q236 -304 199 -247Q162 -190 150 -103Q209 -19 301 30Q393 79 500 79Q607 79 699 30Q791 -19 850 -103ZM714 -493Q714 -582 652 -644Q590 -706 500 -707Q410 -708 349 -644Q288 -580 286 -493Q284 -406 349 -341Q414 -276 500 -279Q586 -282 652 -341Q718 -400 714 -493ZM1000 -350Q1000 -248 960 -156Q920 -64 854 4Q788 72 695 110Q602 148 500 149Q398 150 306 110Q214 70 146 4Q78 -62 40 -156Q2 -250 0 -350Q-2 -450 40 -544Q82 -638 146 -704Q210 -770 306 -810Q402 -850 500 -850Q598 -850 694 -810Q790 -770 854 -704Q918 -638 960 -544Q1002 -450 1000 -350Z"/>
</svg>