<?xml version="1.0" encoding="UTF-8" standalone="no"?>
<svg
   xmlns:dc="http://purl.org/dc/elements/1.1/"
   xmlns:cc="http://creativecommons.org/ns#"
   xmlns:rdf="http://www.w3.org/1999/02/22-rdf-syntax-ns#"
   xmlns:svg="http://www.w3.org/2000/svg"
   xmlns="http://www.w3.org/2000/svg"
   xmlns:sodipodi="http://sodipodi.sourceforge.net/DTD/sodipodi-0.dtd"
   xmlns:inkscape="http://www.inkscape.org/namespaces/inkscape"
   viewBox="0 -1000 1000 1000"
   version="1.1"
   id="svg2078"
   sodipodi:docname="user-plus.svg"
   inkscape:version="0.92.5 (2060ec1f9f, 2020-04-08)">
  <metadata
     id="metadata2084">
    <rdf:RDF>
      <cc:Work
         rdf:about="">
        <dc:format>image/svg+xml</dc:format>
        <dc:type
           rdf:resource="http://purl.org/dc/dcmitype/StillImage" />
        <dc:title></dc:title>
      </cc:Work>
    </rdf:RDF>
  </metadata>
  <defs
     id="defs2082" />
  <sodipodi:namedview
     pagecolor="#ffffff"
     bordercolor="#666666"
     borderopacity="1"
     objecttolerance="10"
     gridtolerance="10"
     guidetolerance="10"
     inkscape:pageopacity="0"
     inkscape:pageshadow="2"
     inkscape:window-width="1848"
     inkscape:window-height="1016"
     id="namedview2080"
     showgrid="false"
     inkscape:zoom="0.838"
     inkscape:cx="569.63683"
     inkscape:cy="500"
     inkscape:window-x="72"
     inkscape:window-y="27"
     inkscape:window-maximized="1"
     inkscape:current-layer="svg2078" />
  <path
     d="m 379.88209,-499.99256 q -86.02928,0 -146.92641,-60.89713 -60.89713,-60.89713 -59.9305,-145.95978 0.96662,-85.06266 59.9305,-146.92641 58.96389,-61.86375 146.92641,-60.89713 87.96252,0.96663 145.95978,60.89713 57.99727,59.93051 60.89713,146.92641 2.89987,86.9959 -60.89713,145.95978 -63.79699,58.96389 -145.95978,60.89713 z m 518.1089,68.6301 h 189.45771 q 6.7664,0 12.5661,5.79973 5.7997,5.79972 4.8331,11.59945 v 103.42846 q 0,7.73296 -4.8331,12.56607 -4.8331,4.83311 -12.5661,4.83311 H 897.99099 v 190.42435 q 0,6.766344 -5.79972,11.599449 -5.79973,4.833106 -11.59946,5.799727 H 777.16336 q -7.73297,0 -12.56608,-5.799727 -4.8331,-5.799726 -4.8331,-11.599449 V -293.13564 H 569.33982 q -6.76635,0 -11.59945,-4.83311 -4.83311,-4.83311 -5.79973,-12.56607 v -103.42846 q 0,-6.76635 5.79973,-11.59945 5.79973,-4.83311 11.59945,-5.79973 h 190.42436 v -189.45773 q 0,-6.76635 4.8331,-12.56608 4.83311,-5.79972 12.56608,-4.8331 h 103.42845 q 6.76635,0 11.59946,4.8331 4.8331,4.83311 5.79972,12.56608 z m -397.28127,120.82764 q 0,28.03201 20.29905,49.29767 20.29904,21.26566 48.33105,20.29904 h 138.22682 v 128.5606 q -36.7316,27.065396 -91.82901,27.065396 H 144.02654 q -64.763611,0 -104.395075,-37.698226 Q 0,-160.70856 0,-225.47217 q 0,-28.99864 1.933242,-56.06402 1.933243,-27.06539 7.732969,-58.96389 5.799726,-31.89849 14.499316,-57.99726 8.69959,-26.09877 23.198906,-53.16416 14.499317,-27.06539 32.865117,-43.49795 18.365801,-16.43256 46.39781,-28.99863 28.03201,-12.56608 59.93051,-10.63284 10.63283,0 21.26566,9.66621 42.53133,32.86512 83.12942,49.29768 40.59808,16.43256 88.92914,16.43256 48.33105,0 88.92914,-16.43256 40.59808,-16.43256 83.12941,-49.29768 10.63283,-9.66621 21.26567,-9.66621 70.56334,0 116.96115,52.19754 H 569.33982 q -28.03201,0 -48.33105,20.29904 -20.29905,20.29905 -20.29905,48.33106 z"
     id="path2076"
     inkscape:connector-curvature="0"
     style="fill:#000000;stroke-width:0.9666211" />
</svg>
