<?xml version="1.0" encoding="UTF-8" standalone="no"?>
<svg
   xmlns:dc="http://purl.org/dc/elements/1.1/"
   xmlns:cc="http://creativecommons.org/ns#"
   xmlns:rdf="http://www.w3.org/1999/02/22-rdf-syntax-ns#"
   xmlns:svg="http://www.w3.org/2000/svg"
   xmlns="http://www.w3.org/2000/svg"
   xmlns:sodipodi="http://sodipodi.sourceforge.net/DTD/sodipodi-0.dtd"
   xmlns:inkscape="http://www.inkscape.org/namespaces/inkscape"
   viewBox="0 -1000 1000 1000"
   version="1.1"
   id="svg939"
   sodipodi:docname="video.svg"
   inkscape:version="0.92.5 (2060ec1f9f, 2020-04-08)">
  <metadata
     id="metadata945">
    <rdf:RDF>
      <cc:Work
         rdf:about="">
        <dc:format>image/svg+xml</dc:format>
        <dc:type
           rdf:resource="http://purl.org/dc/dcmitype/StillImage" />
        <dc:title></dc:title>
      </cc:Work>
    </rdf:RDF>
  </metadata>
  <defs
     id="defs943" />
  <sodipodi:namedview
     pagecolor="#ffffff"
     bordercolor="#666666"
     borderopacity="1"
     objecttolerance="10"
     gridtolerance="10"
     guidetolerance="10"
     inkscape:pageopacity="0"
     inkscape:pageshadow="2"
     inkscape:window-width="1848"
     inkscape:window-height="1016"
     id="namedview941"
     showgrid="false"
     inkscape:zoom="0.59255548"
     inkscape:cx="476.76845"
     inkscape:cy="511.36863"
     inkscape:window-x="72"
     inkscape:window-y="27"
     inkscape:window-maximized="1"
     inkscape:current-layer="svg939" />
  <path
     d="m 199.54182,-165.87942 v -67.29142 q 0,-13.08444 -9.34603,-23.36508 -9.34603,-10.28063 -23.36508,-9.34603 H 99.539297 q -13.084446,0 -23.365079,9.34603 -10.280633,9.34603 -10.280633,23.36508 v 67.29142 q 0,13.08444 10.280633,23.36507 10.280633,10.28063 23.365079,10.28063 h 67.291413 q 13.08445,0 23.36508,-10.28063 10.28063,-10.28063 9.34603,-23.36507 z m 0,-200.00505 v -67.29142 q 0,-13.08444 -9.34603,-23.36507 -9.34603,-10.28064 -23.36508,-10.28064 H 99.539297 q -13.084446,0 -23.365079,10.28064 -10.280633,10.28063 -10.280633,23.36507 v 67.29142 q 0,13.08444 10.280633,23.36507 10.280633,10.28064 23.365079,9.34603 h 67.291413 q 13.08445,0 23.36508,-9.34603 10.28063,-9.34603 9.34603,-23.36507 z m 0,-200.93965 v -66.35681 q 0,-14.01905 -9.34603,-23.36508 -9.34603,-9.34603 -23.36508,-10.28063 H 99.539297 q -13.084446,0 -23.365079,10.28063 -10.280633,10.28064 -10.280633,23.36508 v 66.35681 q 0,14.01905 10.280633,23.36508 10.280633,9.34603 23.365079,10.28063 h 67.291413 q 13.08445,0 23.36508,-10.28063 10.28063,-10.28064 9.34603,-23.36508 z m 534.59292,400.9447 v -267.29647 q 0,-13.08444 -10.28063,-23.36507 -10.28064,-10.28064 -23.36508,-10.28064 H 299.54434 q -13.08444,0 -23.36507,10.28064 -10.28064,10.28063 -9.34604,23.36507 v 267.29647 q 0,13.08444 9.34604,23.36507 9.34603,10.28063 23.36507,10.28063 h 400.94469 q 14.01905,0 23.36508,-10.28063 9.34603,-10.28063 10.28063,-23.36507 z M 199.54182,-766.82916 v -66.35682 q 0,-14.01904 -9.34603,-24.29967 -9.34603,-10.28064 -23.36508,-9.34603 H 99.539297 q -13.084446,0 -23.365079,9.34603 -10.280633,9.34603 -10.280633,24.29967 v 66.35682 q 0,13.08444 10.280633,23.36507 10.280633,10.28064 23.365079,10.28064 h 67.291413 q 13.08445,0 23.36508,-10.28064 10.28063,-10.28063 9.34603,-23.36507 z m 734.59796,600.94974 v -67.29142 q 0,-13.08444 -10.28063,-23.36508 -10.28063,-10.28063 -23.36507,-9.34603 h -66.35682 q -14.01904,0 -23.36507,9.34603 -9.34603,9.34603 -10.28064,23.36508 v 67.29142 q 0,13.08444 10.28064,23.36507 10.28063,10.28063 23.36507,10.28063 h 66.35682 q 14.01904,0 23.36507,-10.28063 9.34603,-10.28063 10.28063,-23.36507 z m -200.00504,-400.9447 v -266.36186 q 0,-14.01904 -10.28063,-24.29967 -10.28064,-10.28064 -23.36508,-9.34603 H 299.54434 q -13.08444,0 -23.36507,9.34603 -10.28064,9.34603 -9.34604,24.29967 v 266.36186 q 0,14.01905 9.34604,23.36508 9.34603,9.34603 23.36507,10.28063 h 400.94469 q 14.01905,0 23.36508,-10.28063 9.34603,-10.28064 10.28063,-23.36508 z m 200.00504,200.93965 v -67.29142 q 0,-13.08444 -10.28063,-23.36507 -10.28063,-10.28064 -23.36507,-10.28064 h -66.35682 q -14.01904,0 -23.36507,10.28064 -9.34603,10.28063 -10.28064,23.36507 v 67.29142 q 0,13.08444 10.28064,23.36507 10.28063,10.28064 23.36507,9.34603 h 66.35682 q 14.01904,0 23.36507,-9.34603 9.34603,-9.34603 10.28063,-23.36507 z m 0,-200.93965 v -66.35681 q 0,-14.01905 -10.28063,-23.36508 -10.28063,-9.34603 -23.36507,-10.28063 h -66.35682 q -14.01904,0 -23.36507,10.28063 -9.34603,10.28064 -10.28064,23.36508 v 66.35681 q 0,14.01905 10.28064,23.36508 10.28063,9.34603 23.36507,10.28063 h 66.35682 q 14.01904,0 23.36507,-10.28063 9.34603,-10.28064 10.28063,-23.36508 z m 0,-200.00504 v -66.35682 q 0,-14.01904 -10.28063,-24.29967 -10.28063,-10.28064 -23.36507,-9.34603 h -66.35682 q -14.01904,0 -23.36507,9.34603 -9.34603,9.34603 -10.28064,24.29967 v 66.35682 q 0,13.08444 10.28064,23.36507 10.28063,10.28064 23.36507,10.28064 h 66.35682 q 14.01904,0 23.36507,-10.28064 9.34603,-10.28063 10.28063,-23.36507 z m 66.35682,-83.17967 v 700.95226 q 0,34.58031 -24.29968,58.87999 -24.29968,24.299678 -58.87999,24.299678 H 82.716439 q -33.645708,0 -58.879989,-24.299678 -25.2342815,-24.29968 -24.29967847,-58.87999 v -700.95226 q 0,-34.58031 24.29967847,-58.87999 24.299678,-24.29968 58.879989,-25.23428 H 917.31693 q 34.58031,0 58.87999,25.23428 24.29968,25.23428 24.29968,58.87999 z"
     id="path937"
     inkscape:connector-curvature="0"
     style="fill:#000000;stroke-width:0.93460304" />
</svg>
