<svg xmlns="http://www.w3.org/2000/svg" viewBox="0 -1000 1000 1000">
	<path fill="#000000" d="M251 70Q246 67 241 59Q236 51 236 46L248 -13Q248 -15 232 -20Q204 -27 168.5 -42Q133 -57 109 -71Q36 -114 11.5 -169.5Q-13 -225 16 -280Q31 -309 66 -338.5Q101 -368 145 -387L158 -393V-329L148 -324Q135 -318 117 -304.5Q99 -291 88 -281Q73 -266 67 -251Q62 -240 60.5 -235.5Q59 -231 59 -220.5Q59 -210 60 -205Q61 -200 66 -190Q81 -159 122 -131.5Q163 -104 225 -83Q255 -73 258.5 -73Q262 -73 272 -122Q274 -132 276 -136Q278 -140 283 -145Q289 -152 297.5 -154Q306 -156 312.5 -152.5Q319 -149 334 -135Q347 -123 381 -88Q416 -52 425 -42Q438 -28 440 -22Q442 -16 440.5 -8Q439 0 433.5 5Q428 10 409 18Q394 25 349 43Q272 74 265.5 74Q259 74 251 70ZM573 8Q560 -1 560 -17.5Q560 -34 573 -42Q579 -45 607 -48Q688 -57 756.5 -78Q825 -99 871 -127.5Q917 -156 933 -188Q938 -198 939.5 -203Q941 -208 941 -219Q941 -230 940 -235Q939 -240 935 -249Q916 -288 858 -320L842 -329V-393L853 -388Q888 -373 920 -349.5Q952 -326 970 -303Q997 -267 999.5 -227.5Q1002 -188 980 -151Q958 -114 914 -85Q866 -53 791 -28Q716 -3 632 8Q603 12 591 12Q579 12 573 8ZM348 -216Q283 -253 263 -265Q237 -281 229 -286Q223 -291 221 -295L217 -304V-442Q217 -581 218.5 -581Q220 -581 344 -509.5Q468 -438 469 -437Q470 -436 470 -290V-146ZM529 -290V-436L656 -509L782 -583L783 -444Q783 -304 782 -299L781 -297Q778 -290 775 -288Q771 -284 652 -215Q533 -146 531 -145Q529 -144 529 -290ZM373 -560Q248 -632 248 -634L338 -686Q429 -739 460 -756L463 -758Q484 -770 489 -772.5Q494 -775 499.5 -774Q505 -773 530 -760Q557 -745 630 -704L658 -688Q752 -635 752 -634Q752 -633 627.5 -560.5Q503 -488 501.5 -487.5Q500 -487 373 -560Z"/>
</svg>