<?xml version="1.0" encoding="UTF-8" standalone="no"?>
<svg
   xmlns:dc="http://purl.org/dc/elements/1.1/"
   xmlns:cc="http://creativecommons.org/ns#"
   xmlns:rdf="http://www.w3.org/1999/02/22-rdf-syntax-ns#"
   xmlns:svg="http://www.w3.org/2000/svg"
   xmlns="http://www.w3.org/2000/svg"
   xmlns:sodipodi="http://sodipodi.sourceforge.net/DTD/sodipodi-0.dtd"
   xmlns:inkscape="http://www.inkscape.org/namespaces/inkscape"
   viewBox="0 -1000 1000 1000"
   version="1.1"
   id="svg10455"
   sodipodi:docname="view3d.svg"
   inkscape:version="0.92.5 (2060ec1f9f, 2020-04-08)">
  <metadata
     id="metadata10461">
    <rdf:RDF>
      <cc:Work
         rdf:about="">
        <dc:format>image/svg+xml</dc:format>
        <dc:type
           rdf:resource="http://purl.org/dc/dcmitype/StillImage" />
        <dc:title></dc:title>
      </cc:Work>
    </rdf:RDF>
  </metadata>
  <defs
     id="defs10459" />
  <sodipodi:namedview
     pagecolor="#ffffff"
     bordercolor="#666666"
     borderopacity="1"
     objecttolerance="10"
     gridtolerance="10"
     guidetolerance="10"
     inkscape:pageopacity="0"
     inkscape:pageshadow="2"
     inkscape:window-width="1542"
     inkscape:window-height="754"
     id="namedview10457"
     showgrid="false"
     inkscape:zoom="0.4325"
     inkscape:cx="274.03114"
     inkscape:cy="474.48523"
     inkscape:window-x="2298"
     inkscape:window-y="289"
     inkscape:window-maximized="0"
     inkscape:current-layer="svg10455" />
  <path
     d="m 240.80121,-62.679639 q -5.20442,-3.122655 -10.40885,-11.449734 -5.20443,-8.32708 -5.20443,-13.531503 l 12.49063,-61.412214 q 0,-2.08177 -16.65417,-7.28619 -29.14478,-7.28619 -66.09618,-22.89947 -36.95142,-15.61327 -61.932658,-30.18566 -75.984592,-44.75805 -101.4862731,-102.52717 -25.5016799,-57.76911 4.6839822,-115.01778 15.6132739,-30.18565 52.0442459,-60.89176 36.430969,-30.7061 82.229903,-50.48292 l 13.5315,-6.24531 v 66.61663 l -10.40885,5.20443 q -13.5315,6.24531 -32.26743,20.29725 -18.735923,14.05195 -30.185656,24.4608 -15.613273,15.61327 -21.858583,31.22654 -5.204424,11.44974 -6.765751,16.13373 -1.561328,4.68398 -1.561328,15.61326 0,10.9293 1.040885,16.13373 1.040886,5.20441 6.24531,15.61327 15.613273,32.26743 58.289543,60.89176 42.67629,28.62434 107.21115,50.48292 31.22654,10.40885 34.86964,10.40885 3.6431,0 14.05195,-51.00337 2.08177,-10.40884 4.16354,-14.57238 2.08177,-4.16354 7.28619,-9.36797 6.24531,-7.28618 15.09284,-9.36795 8.84751,-2.08177 15.61327,1.56132 6.76575,3.6431 22.37902,18.21549 13.53151,12.49062 48.9216,48.92158 36.43096,37.47186 45.79893,47.88071 13.53151,14.57239 15.61327,20.8177 2.08177,6.2453 0.52044,14.57239 -1.56132,8.32708 -7.28618,13.53151 -5.72487,5.20442 -25.50168,13.53149 -15.61328,7.2862 -62.4531,26.022135 -80.14814,32.267425 -86.91389,32.267425 -6.76576,0 -15.09283,-4.163539 z M 575.96614,-127.2145 q -13.5315,-9.36797 -13.5315,-26.54256 0,-17.17461 13.5315,-25.50169 6.24532,-3.12265 35.39009,-6.2453 84.31168,-9.36797 155.61229,-31.22655 71.30062,-21.85858 119.18133,-51.5238 47.8807,-29.66522 64.53487,-62.97354 5.20442,-10.40886 6.76575,-15.61327 1.56133,-5.20443 1.56133,-16.65417 0,-11.44973 -1.04089,-16.65415 -1.04088,-5.20443 -5.20442,-14.5724 -19.77682,-40.5945 -80.14814,-73.90282 l -16.65417,-9.36797 v -66.61663 l 11.44974,5.20443 q 36.43098,15.61327 69.73929,40.07406 33.30832,24.4608 52.04424,48.40115 28.10385,37.47186 30.70605,78.58681 2.6023,41.11496 -20.29719,79.6277 -22.89947,38.51274 -68.69841,68.6984 -49.96248,33.30832 -128.02884,59.33044 -78.06637,26.02212 -165.5007,37.47186 -30.18567,4.16353 -42.67628,4.16353 -12.49062,0 -18.73594,-4.16353 z m -234.1991,-233.15822 q -67.65752,-38.51275 -88.47521,-51.00336 -27.06301,-16.65416 -35.39009,-21.85858 -6.24531,-5.20443 -8.32708,-9.36797 l -4.16354,-9.36797 v -143.64211 q 0,-144.683 1.56133,-144.683 1.56133,0 130.63105,74.42327 129.06973,74.42327 130.11061,75.46415 1.04089,1.04089 1.04089,153.01009 v 149.88742 z m 188.40017,-77.02548 v -151.9692 l 132.19238,-75.9846 131.15151,-77.02548 1.04087,144.683 q 0,145.72388 -1.04087,150.92831 l -1.04089,2.08177 q -3.12265,7.2862 -6.24531,9.36797 -4.16354,4.16354 -128.02885,75.98459 -123.8653,71.82106 -125.94707,72.86194 -2.08177,1.04089 -2.08177,-150.9283 z M 367.78917,-718.43713 q -130.11061,-74.94371 -130.11061,-77.02548 l 93.67963,-54.12601 q 94.72053,-55.1669 126.98797,-72.86195 l 3.12265,-2.08177 q 21.85858,-12.49062 27.06301,-15.09283 5.20442,-2.60222 10.92929,-1.56133 5.72486,1.04089 31.74699,14.57239 28.10389,15.61327 104.08848,58.28955 l 29.14478,16.65416 q 97.84319,55.1669 97.84319,56.20779 0,1.04089 -129.59018,76.50504 -129.59017,75.46415 -131.15149,75.98459 -1.56133,0.52045 -133.75371,-75.46415 z"
     id="path10453"
     inkscape:connector-curvature="0"
     style="fill:#000000;stroke-width:1.04088485" />
</svg>
