<?xml version="1.0" encoding="UTF-8" standalone="no"?>
<svg
   xmlns:dc="http://purl.org/dc/elements/1.1/"
   xmlns:cc="http://creativecommons.org/ns#"
   xmlns:rdf="http://www.w3.org/1999/02/22-rdf-syntax-ns#"
   xmlns:svg="http://www.w3.org/2000/svg"
   xmlns="http://www.w3.org/2000/svg"
   xmlns:sodipodi="http://sodipodi.sourceforge.net/DTD/sodipodi-0.dtd"
   xmlns:inkscape="http://www.inkscape.org/namespaces/inkscape"
   viewBox="0 -1000 1000 1000"
   version="1.1"
   id="svg882"
   sodipodi:docname="wildcard.svg"
   inkscape:version="0.92.5 (2060ec1f9f, 2020-04-08)">
  <metadata
     id="metadata888">
    <rdf:RDF>
      <cc:Work
         rdf:about="">
        <dc:format>image/svg+xml</dc:format>
        <dc:type
           rdf:resource="http://purl.org/dc/dcmitype/StillImage" />
        <dc:title></dc:title>
      </cc:Work>
    </rdf:RDF>
  </metadata>
  <defs
     id="defs886" />
  <sodipodi:namedview
     pagecolor="#ffffff"
     bordercolor="#666666"
     borderopacity="1"
     objecttolerance="10"
     gridtolerance="10"
     guidetolerance="10"
     inkscape:pageopacity="0"
     inkscape:pageshadow="2"
     inkscape:window-width="1848"
     inkscape:window-height="1016"
     id="namedview884"
     showgrid="false"
     inkscape:zoom="0.419"
     inkscape:cx="386.2524"
     inkscape:cy="434.48541"
     inkscape:window-x="72"
     inkscape:window-y="27"
     inkscape:window-maximized="1"
     inkscape:current-layer="svg882" />
  <path
     d="m 191.5,-1 q -29,-4 -53,-24 -24,-20 -33,-49 l -1,-3 q -3,-8 -4,-25 -1,-24 -1,-110 v -576 q 0,-85 1,-109 1,-18 4,-25 l 1,-3 q 9,-29 33.5,-49.5 24.5,-20.5 54.5,-24.5 6,-1 312,-1 h 303 l 9,3 q 28,7 48,26 27,27 33,63 2,10 2,407.5 0,397.5 -2,408.5 -6,35 -28.5,58.5 -22.5,23.5 -54.5,31.5 -4,1 -53,2 h -259 q -308,0 -312,-1 z m 614,-47 q 15,-3 27.5,-14.5 12.5,-11.5 17.5,-27.5 l 3,-8 v -804 l -3,-8 q -5,-16 -17.5,-27 -12.5,-11 -27.5,-15 -6,-1 -305.5,-1 -299.5,0 -304,0.5 -4.5,0.5 -14.5,5.5 -24,10 -33,37 l -3,8 v 804 l 3,8 q 5,16 17.5,27 12.5,11 27.5,15 7,1 306,1 299,0 306,-1 z m -484,-93 q 1,-1 52,-91 51,-90 51,-92 l -6,-13 q -36,-62 -49,-126 -6,-25 -6,-59 0,-20 1.5,-32.5 1.5,-12.5 5.5,-26.5 l 2,-9 -2,-8 q -12,-44 -42.5,-71.5 -30.5,-27.5 -75.5,-35.5 -13,-2 -15,-2 -2,0 -3,4 -2,9 -10.5,16 -8.5,7 -20,7 -11.5,0 -19.5,-7.5 -8,-7.5 -8.5,-18.5 -0.5,-11 7,-18.5 7.5,-7.5 17.5,-9 10,-1.5 19,2.5 l 6,3 4,-4 q 43,-38 79.5,-47 36.5,-9 73.5,9 20,10 42,32 l 12,12 7,-14 q 13,-26 34,-61 l 7,-11 -4,-2 q -13,-10 -10.5,-25.5 2.5,-15.5 18.5,-20.5 6,-2 13.5,-1.5 7.5,0.5 11.5,2.5 11,5 14,13.5 3,8.5 -0.5,18.5 -3.5,10 -11.5,14 -1,1 9,19 10,15 24,43 l 13,26 11,-11 q 57,-58 120,-42 29,7 71,41 l 10,9 6,-3 q 12,-5 23.5,-2 11.5,3 17,12.5 5.5,9.5 2.5,20.5 -2,5 -6.5,10 -4.5,5 -9.5,7 -5,2 -12.5,2 -7.5,0 -13.5,-2.5 -6,-2.5 -11,-9.5 -5,-7 -5,-13 0,-2 -2.5,-2 -2.5,0 -14.5,2 -36,5 -63.5,24.5 -27.5,19.5 -42.5,49.5 -4,7 -7.5,17.5 -3.5,10.5 -5.5,18.5 -1,5 -1,7 l 2,11 q 7,25 6,62 0,42 -13,85 -16,50 -39,90 l -9,16 103,185 q 0,1 -3,-2 l -127,-110 6,60 q 6,52 5.5,52 -0.5,0 -1.5,-2 l -4,-7 q -1,-4 -14,-30 l -39,-79 -47,93 q -13,26 -14,26 v -3 q 1,-4 7,-57 l 6,-52 -41,34 q -48,41 -84,73 -2,2 -4,3 -2,1 -2,0 z m 190,-146 q 19,-10 44,-51 25,-41 40,-87 14,-43 17,-79 1,-14 0,-28.5 -1,-14.5 -2,-17.5 -3,-8 -19,-19 -13,-9 -33,-11 -13,0 -21.5,3.5 -8.5,3.5 -16.5,11.5 -11,11 -17,29 l -4,10 -2,-5 q -2,-11 -10,-23 -8,-12 -17,-18 -13,-8 -30,-7.5 -17,0.5 -31,9.5 -11,7 -20,18 l -3,4 v 25 q 0,21 1.5,35 1.5,14 6.5,34 12,47 38.5,97 26.5,50 48.5,66 9,7 15,8 6,1 15,-4 z m -16,-49 q -16,-2 -29,-9.5 -13,-7.5 -19,-19.5 -2,-6 -3,-10.5 -1,-4.5 0,-4.5 l 4,3 q 6,5 24,14 19,7 36.5,4.5 17.5,-2.5 36.5,-15.5 l 10,-6 q 1,1 -1.5,7.5 -2.5,6.5 -4.5,9.5 -7,13 -22,20.5 -15,7.5 -32,6.5 z m -61,-127 q -8,-5 -7,-14 v -4 l -5,2 q -6,2 -7,2.5 -1,0.5 -1,-0.5 l 1,-3 q 6,-8 14,-12 6,-3 14,-3 8,0 14,2 11,5 14,13 l 2,4 -2,-1 q -2,0 -6,-2 l -5,-2 -1,5 q 1,9 -7.5,13.5 -8.5,4.5 -17.5,-0.5 z m 113,1 q -8,-5 -8,-14 v -5 l -7,2 -6,3 q -1,-1 3.5,-6.5 4.5,-5.5 7.5,-6.5 10,-7 21.5,-6.5 11.5,0.5 19.5,8.5 3,3 5,6.5 2,3.5 1,4.5 l -4,-2 q -6,-3 -7,-3 -1,0 -1,5 0,9 -8.5,13.5 -8.5,4.5 -16.5,0.5 z"
     id="path880"
     inkscape:connector-curvature="0"
     style="fill:#000000" />
</svg>
