<svg xmlns="http://www.w3.org/2000/svg" viewBox="0 -1000 1000 1000">
	<path fill="#000000" d="M92 149Q63 145 39 125Q15 105 6 76L5 73Q2 65 1 48Q0 24 0 -62V-638Q0 -723 1 -747Q2 -765 5 -772L6 -775Q15 -804 39.5 -824.5Q64 -845 94 -849Q100 -850 406 -850H709L718 -847Q746 -840 766 -821Q793 -794 799 -758Q801 -748 801 -350.5Q801 47 799 58Q793 93 770.5 116.5Q748 140 716 148Q712 149 663 150H404Q96 150 92 149ZM706 102Q721 99 733.5 87.5Q746 76 751 60L754 52V-752L751 -760Q746 -776 733.5 -787Q721 -798 706 -802Q700 -803 400.5 -803Q101 -803 96.5 -802.5Q92 -802 82 -797Q58 -787 49 -760L46 -752V52L49 60Q54 76 66.5 87Q79 98 94 102Q101 103 400 103Q699 103 706 102ZM222 9Q223 8 274 -82Q325 -172 325 -174L319 -187Q283 -249 270 -313Q264 -338 264 -372Q264 -392 265.5 -404.5Q267 -417 271 -431L273 -440L271 -448Q259 -492 228.5 -519.5Q198 -547 153 -555Q140 -557 138 -557Q136 -557 135 -553Q133 -544 124.5 -537Q116 -530 104.5 -530Q93 -530 85 -537.5Q77 -545 76.5 -556Q76 -567 83.5 -574.5Q91 -582 101 -583.5Q111 -585 120 -581L126 -578L130 -582Q173 -620 209.5 -629Q246 -638 283 -620Q303 -610 325 -588L337 -576L344 -590Q357 -616 378 -651L385 -662L381 -664Q368 -674 370.5 -689.5Q373 -705 389 -710Q395 -712 402.5 -711.5Q410 -711 414 -709Q425 -704 428 -695.5Q431 -687 427.5 -677Q424 -667 416 -663Q415 -662 425 -644Q435 -629 449 -601L462 -575L473 -586Q530 -644 593 -628Q622 -621 664 -587L674 -578L680 -581Q692 -586 703.5 -583Q715 -580 720.5 -570.5Q726 -561 723 -550Q721 -545 716.5 -540Q712 -535 707 -533Q702 -531 694.5 -531Q687 -531 681 -533.5Q675 -536 670 -543Q665 -550 665 -556Q665 -558 662.5 -558Q660 -558 648 -556Q612 -551 584.5 -531.5Q557 -512 542 -482Q538 -475 534.5 -464.5Q531 -454 529 -446Q528 -441 528 -439L530 -428Q537 -403 536 -366Q536 -324 523 -281Q507 -231 484 -191L475 -175L578 10Q578 11 575 8L448 -102L454 -42Q460 10 459.5 10Q459 10 458 8L454 1Q453 -3 440 -29L401 -108L354 -15Q341 11 340 11V8Q341 4 347 -49L353 -101L312 -67Q264 -26 228 6Q226 8 224 9Q222 10 222 9ZM412 -137Q431 -147 456 -188Q481 -229 496 -275Q510 -318 513 -354Q514 -368 513 -382.5Q512 -397 511 -400Q508 -408 492 -419Q479 -428 459 -430Q446 -430 437.5 -426.5Q429 -423 421 -415Q410 -404 404 -386L400 -376L398 -381Q396 -392 388 -404Q380 -416 371 -422Q358 -430 341 -429.5Q324 -429 310 -420Q299 -413 290 -402L287 -398V-373Q287 -352 288.5 -338Q290 -324 295 -304Q307 -257 333.5 -207Q360 -157 382 -141Q391 -134 397 -133Q403 -132 412 -137ZM396 -186Q380 -188 367 -195.5Q354 -203 348 -215Q346 -221 345 -225.5Q344 -230 345 -230L349 -227Q355 -222 373 -213Q392 -206 409.5 -208.5Q427 -211 446 -224L456 -230Q457 -229 454.5 -222.5Q452 -216 450 -213Q443 -200 428 -192.5Q413 -185 396 -186ZM335 -313Q327 -318 328 -327V-331L323 -329Q317 -327 316 -326.5Q315 -326 315 -327L316 -330Q322 -338 330 -342Q336 -345 344 -345Q352 -345 358 -343Q369 -338 372 -330L374 -326L372 -327Q370 -327 366 -329L361 -331L360 -326Q361 -317 352.5 -312.5Q344 -308 335 -313ZM448 -312Q440 -317 440 -326V-331L433 -329L427 -326Q426 -327 430.5 -332.5Q435 -338 438 -339Q448 -346 459.5 -345.5Q471 -345 479 -337Q482 -334 484 -330.5Q486 -327 485 -326L481 -328Q475 -331 474 -331Q473 -331 473 -326Q473 -317 464.5 -312.5Q456 -308 448 -312Z"/>
</svg>