<?xml version="1.0" encoding="UTF-8" standalone="no"?>
<svg
   xmlns:dc="http://purl.org/dc/elements/1.1/"
   xmlns:cc="http://creativecommons.org/ns#"
   xmlns:rdf="http://www.w3.org/1999/02/22-rdf-syntax-ns#"
   xmlns:svg="http://www.w3.org/2000/svg"
   xmlns="http://www.w3.org/2000/svg"
   xmlns:sodipodi="http://sodipodi.sourceforge.net/DTD/sodipodi-0.dtd"
   xmlns:inkscape="http://www.inkscape.org/namespaces/inkscape"
   viewBox="0 -1000 1000 1000"
   version="1.1"
   id="svg10527"
   sodipodi:docname="wrench.svg"
   inkscape:version="0.92.5 (2060ec1f9f, 2020-04-08)">
  <metadata
     id="metadata10533">
    <rdf:RDF>
      <cc:Work
         rdf:about="">
        <dc:format>image/svg+xml</dc:format>
        <dc:type
           rdf:resource="http://purl.org/dc/dcmitype/StillImage" />
        <dc:title></dc:title>
      </cc:Work>
    </rdf:RDF>
  </metadata>
  <defs
     id="defs10531" />
  <sodipodi:namedview
     pagecolor="#ffffff"
     bordercolor="#666666"
     borderopacity="1"
     objecttolerance="10"
     gridtolerance="10"
     guidetolerance="10"
     inkscape:pageopacity="0"
     inkscape:pageshadow="2"
     inkscape:window-width="1542"
     inkscape:window-height="754"
     id="namedview10529"
     showgrid="false"
     inkscape:zoom="0.4325"
     inkscape:cx="55.292393"
     inkscape:cy="491.41547"
     inkscape:window-x="2298"
     inkscape:window-y="289"
     inkscape:window-maximized="0"
     inkscape:current-layer="svg10527" />
  <path
     d="m 229.78388,-192.3125 q 0,-14.77745 -10.55531,-26.3883 -10.55532,-11.61084 -26.3883,-10.55531 -15.83297,1.05553 -26.38829,10.55531 -10.55532,9.49979 -11.61085,26.3883 -1.05553,16.8885 11.61085,26.38829 12.66638,9.49979 26.38829,11.61085 13.72192,2.11106 26.3883,-11.61085 12.66638,-13.72191 10.55531,-26.38829 z M 609.7753,-439.30692 207.61772,-37.149343 q -22.16617,21.110635 -52.77659,21.110635 -30.61042,0 -53.83212,-21.110635 L 38.73264,-101.53678 q -22.166166,-21.11063 -22.166166,-52.24882 0,-31.13818 22.166166,-54.35988 L 439.8347,-609.24753 q 23.22169,58.05424 67.55403,102.38658 44.33233,44.33233 102.38657,67.55403 z m 373.65823,-256.49421 q 0,23.2217 -13.72191,62.27637 -28.49936,79.16488 -97.10892,128.77487 -68.60956,49.60999 -151.99657,48.55446 -109.7753,0 -186.82911,-77.05382 -77.05382,-77.05381 -77.05382,-186.82911 0,-109.7753 77.05382,-185.77358 77.05381,-75.99829 186.82911,-78.10935 33.77702,0 70.72063,10.55532 36.94361,10.55531 63.3319,27.44382 9.49979,6.33319 9.49979,15.83298 0,9.49978 -9.49979,16.8885 l -172.05167,99.21999 v 131.94146 l 113.99743,63.3319 q 2.11106,-2.11106 46.44339,-28.49935 l 79.16488,-47.49893 q 34.83255,-21.11063 42.74903,-21.11063 7.91649,0 13.19415,5.27765 5.27766,5.27766 5.27766,14.77745 z"
     id="path10525"
     inkscape:connector-curvature="0"
     style="fill:#000000;stroke-width:1.05553174" />
</svg>
