<svg xmlns="http://www.w3.org/2000/svg" viewBox="0 -1000 1000 1000">
	<path fill="#000000" d="M214 -29Q214 -43 204 -54Q194 -65 179 -64Q164 -63 154 -54Q144 -45 143 -29Q142 -13 154 -4Q166 5 179 7Q192 9 204 -4Q216 -17 214 -29ZM574 -263L193 118Q172 138 143 138Q114 138 92 118L33 57Q12 37 12 7.5Q12 -22 33 -44L413 -424Q435 -369 477 -327Q519 -285 574 -263ZM928 -506Q928 -484 915 -447Q888 -372 823 -325Q758 -278 679 -279Q575 -279 502 -352Q429 -425 429 -529Q429 -633 502 -705Q575 -777 679 -779Q711 -779 746 -769Q781 -759 806 -743Q815 -737 815 -728Q815 -719 806 -712L643 -618V-493L751 -433Q753 -435 795 -460L870 -505Q903 -525 910.5 -525Q918 -525 923 -520Q928 -515 928 -506Z"/>
</svg>