<?xml version="1.0" encoding="UTF-8" standalone="no"?>
<!-- Created with Inkscape (http://www.inkscape.org/) -->

<svg
   viewBox="0 0 270 270"
   version="1.1"
   id="svg5"
   xmlns="http://www.w3.org/2000/svg"
   xmlns:svg="http://www.w3.org/2000/svg">
  <defs
     id="defs2" />
  <g
     id="layer1"
     transform="translate(27.20144,-47.960897)">
    <path
       id="path234"
       style="stroke-width:1.062"
       d="m 85.435584,81.458815 a 52.449921,52.449921 0 0 0 -52.450029,52.449515 52.449921,52.449921 0 0 0 4.7594,21.76094 l -14.2844,11.59258 A 28.949638,28.949638 0 0 0 7.5953737,162.5102 28.949638,28.949638 0 0 0 -21.35428,191.45985 28.949638,28.949638 0 0 0 7.5953737,220.40951 28.949638,28.949638 0 0 0 36.545028,191.45985 28.949638,28.949638 0 0 0 34.425777,180.61194 l 13.021945,-10.56783 a 52.449921,52.449921 0 0 0 37.987862,16.31425 52.449921,52.449921 0 0 0 2.241723,-0.0837 l 1.917713,10.94352 a 45.486423,45.486423 0 0 0 -27.53062,41.75869 45.486423,45.486423 0 0 0 45.48611,45.48611 45.486423,45.486423 0 0 0 45.48663,-45.48611 45.486423,45.486423 0 0 0 -3.41736,-17.24287 l 13.26069,-8.98757 a 42.547794,42.547794 0 0 0 31.52314,13.99605 42.547794,42.547794 0 0 0 42.54779,-42.5478 42.547794,42.547794 0 0 0 -42.54779,-42.54779 42.547794,42.547794 0 0 0 -32.13706,14.70918 l -25.06978,-14.08699 a 52.449921,52.449921 0 0 0 0.68884,-8.36073 52.449921,52.449921 0 0 0 -52.450026,-52.449515 z m 46.078836,77.433005 22.31027,12.5367 a 42.547794,42.547794 0 0 0 -1.96887,12.76614 42.547794,42.547794 0 0 0 2.26704,13.61778 l -13.9795,9.47436 a 45.486423,45.486423 0 0 0 -32.59285,-13.79658 45.486423,45.486423 0 0 0 -1.06298,0.0398 l -1.89188,-10.79625 a 52.449921,52.449921 0 0 0 26.91877,-23.84195 z" />
  </g>
</svg>
