<?xml version="1.0" encoding="UTF-8" standalone="no"?>
<svg
   viewBox="0 0 86.186172 86.185905"
   version="1.1"
   id="svg5"
   xmlns="http://www.w3.org/2000/svg"
   xmlns:svg="http://www.w3.org/2000/svg">
  <defs
     id="defs2" />
  <g
     id="layer1"
     transform="translate(-71.346032,-81.695276)">
    <path
       style="color:#000000;fill:#eb6b00;stroke-dasharray:2.513, 2.513;-inkscape-stroke:none"
       d="m 96.75,81.695312 v 5.027344 h 2.511719 v -5.027344 z m 5.02539,0 v 5.027344 h 2.51367 v -5.027344 z m 5.02539,0 v 5.027344 h 2.51367 v -5.027344 z m 5.02735,0 v 5.027344 h 2.51171 v -5.027344 z m 5.02539,0 v 5.027344 h 2.51367 v -5.027344 z m 5.02539,0 v 5.027344 h 2.51367 v -5.027344 z m 5.02734,0 v 5.027344 h 2.51172 v -5.027344 z m 5.00977,0 0.0293,5.027344 c 0.75655,-0.0045 1.50714,0.02737 2.24414,0.101563 l 0.50196,-5.001953 c -0.93007,-0.09363 -1.85667,-0.132364 -2.77539,-0.126954 z m -36.773442,0.05078 c -0.925101,0.05736 -1.850449,0.162709 -2.769531,0.322265 l 0.859375,4.953125 c 0.731529,-0.126996 1.473785,-0.213454 2.220703,-0.259765 z M 137.44141,82.25 136.4043,87.167969 c 0.72797,0.153365 1.44864,0.346474 2.15429,0.580078 l 1.57813,-4.771485 c -0.8847,-0.292874 -1.78405,-0.534581 -2.69531,-0.726562 z m -47.781254,0.441406 c -0.895556,0.257432 -1.775791,0.565849 -2.636719,0.921875 l 1.919922,4.644531 c 0.687153,-0.284163 1.390991,-0.528994 2.105469,-0.734375 z m 53.070314,1.302735 -2.08789,4.572265 c 0.67622,0.308861 1.33486,0.656303 1.97265,1.039063 l 2.58594,-4.310547 c -0.79862,-0.479272 -1.62311,-0.913649 -2.4707,-1.300781 z m -58.218751,0.822265 c -0.81707,0.447352 -1.609242,0.939018 -2.371094,1.47461 l 2.890625,4.113281 c 0.60861,-0.427861 1.242189,-0.822525 1.894531,-1.179688 z m 62.996091,2.039063 -3.03711,4.003906 c 0.59239,0.449269 1.1606,0.933659 1.70117,1.447266 l 3.46094,-3.644532 c -0.67391,-0.64029 -1.38257,-1.243582 -2.125,-1.80664 z m -67.554685,1.158203 c -0.69991,0.614977 -1.364133,1.268054 -1.990234,1.955078 l 3.714843,3.384766 c 0.502315,-0.551193 1.035162,-1.073649 1.59375,-1.564454 z m 71.593745,2.675781 -3.83984,3.242188 c 0.48181,0.570322 0.93122,1.167658 1.3457,1.785156 l 4.17383,-2.802735 c -0.51921,-0.773529 -1.08035,-1.515177 -1.67969,-2.224609 z m -75.345698,1.439453 c -0.546862,0.750946 -1.053568,1.530896 -1.515625,2.339844 l 4.363281,2.494141 c 0.36887,-0.6458 0.775491,-1.273639 1.214844,-1.876954 z m 78.449218,3.179688 -4.45312,2.330078 c 0.34505,0.6594 0.65282,1.338158 0.92187,2.03125 l 4.68555,-1.81836 c -0.33719,-0.868628 -0.72263,-1.718052 -1.1543,-2.542968 z M 73.4375,96.960937 c -0.370875,0.854315 -0.6934,1.729234 -0.966797,2.619141 l 4.804688,1.476562 c 0.218588,-0.7115 0.477187,-1.411335 0.773437,-2.093749 z m 83.23242,3.539063 -4.85547,1.29883 c 0.1919,0.71746 0.34478,1.44682 0.45703,2.18555 l 4.96875,-0.75391 c -0.13942,-0.91754 -0.32932,-1.82949 -0.57031,-2.73047 z m -84.871092,1.78516 c -0.173441,0.9114 -0.298326,1.83468 -0.371094,2.76367 l 5.009766,0.39258 c 0.05806,-0.74122 0.15908,-1.48245 0.298828,-2.2168 z m 85.707032,3.70507 -5.01953,0.23438 c 0.0329,0.70148 0.006,1.5122 0.0176,2.42773 l 5.02734,-0.0644 c -0.01,-0.75886 0.0202,-1.62531 -0.0254,-2.59766 z m -86.160157,1.76563 v 2.51367 h 5.025391 v -2.51367 z m 81.158207,3.37695 v 2.51367 h 5.02734 v -2.51367 z m -81.158207,1.64844 v 2.51367 h 5.025391 v -2.51367 z m 81.158207,3.37891 v 2.51172 h 5.02734 v -2.51172 z m -81.158207,1.64843 v 2.51172 h 5.025391 v -2.51172 z m 81.158207,3.37696 v 2.51367 h 5.02734 v -2.51367 z m -81.158207,1.64843 v 2.51368 h 5.025391 v -2.51368 z m 81.158207,3.37696 v 2.51367 h 5.02734 v -2.51367 z m -81.158207,1.64844 v 2.51367 h 5.025391 v -2.51367 z m 81.158207,3.3789 V 133.75 h 5.02734 v -2.51172 z m -81.158207,1.64844 v 2.51172 h 5.025391 v -2.51172 z m 81.158207,3.37695 v 2.51367 h 5.02734 v -2.51367 z m -81.158207,1.64844 v 2.51367 h 5.025391 v -2.51367 z m 81.158207,3.37305 c -0.002,0.87186 0.0103,1.65961 -0.0332,2.36132 l 5.01758,0.31055 c 0.0602,-0.97098 0.0414,-1.85935 0.043,-2.66211 z m -76.126957,1.60742 -5.025391,0.0918 c 0.01716,0.93006 0.08467,1.85825 0.203125,2.7793 l 4.986329,-0.64062 c -0.09524,-0.74052 -0.150319,-1.48555 -0.164063,-2.23047 z m 75.845707,2.99414 c -0.12191,0.73398 -0.28367,1.46195 -0.48633,2.17969 l 4.83594,1.36523 c 0.25258,-0.89454 0.45678,-1.80395 0.60937,-2.72266 z m -75.277348,1.43555 -4.884765,1.18164 c 0.218436,0.90391 0.486656,1.79598 0.804687,2.67187 l 4.72461,-1.71484 c -0.253742,-0.69883 -0.469452,-1.41417 -0.644532,-2.13867 z m 74.064458,2.85742 c -0.27976,0.68956 -0.59827,1.36415 -0.95313,2.01953 l 4.41992,2.39453 c 0.44282,-0.81785 0.84134,-1.66057 1.19141,-2.52344 z m -72.542973,1.33789 -4.507813,2.2207 c 0.411678,0.8358 0.868555,1.64826 1.369141,2.43164 l 4.236328,-2.70703 c -0.401489,-0.62831 -0.769076,-1.27822 -1.097656,-1.94531 z m 70.419923,2.58594 c -0.42505,0.61303 -0.88438,1.20304 -1.37305,1.76367 l 3.78906,3.30273 c 0.61213,-0.70226 1.18338,-1.43747 1.71289,-2.20117 z m -68.017579,1.17578 -3.91211,3.15429 c 0.583016,0.72338 1.206092,1.41583 1.867188,2.07227 l 3.541015,-3.56641 c -0.527696,-0.52398 -1.027838,-1.07916 -1.496093,-1.66015 z m 65.083979,2.19336 c -0.54689,0.50506 -1.12146,0.98106 -1.7207,1.42187 l 2.97852,4.04883 c 0.75021,-0.55187 1.46853,-1.14584 2.15234,-1.77734 z m -61.916011,0.95507 -3.134765,3.92969 c 0.727549,0.58074 1.487159,1.12076 2.27539,1.61719 l 2.677735,-4.25391 c -0.6293,-0.39633 -1.236633,-0.82862 -1.81836,-1.29297 z m 58.322261,1.69336 c -0.64315,0.37325 -1.30907,0.7105 -1.99023,1.00977 l 2.02148,4.60156 c 0.85259,-0.37458 1.68446,-0.79605 2.49024,-1.26367 z m -54.54687,0.68946 -2.201172,4.51757 c 0.837515,0.40814 1.696221,0.76824 2.574219,1.08008 l 1.683594,-4.73437 c -0.700628,-0.24884 -1.38822,-0.53755 -2.056641,-0.86328 z m 50.46289,1.10742 c -0.70975,0.22328 -1.43236,0.40627 -2.16211,0.54883 l 0.96289,4.93359 c 0.91441,-0.17862 1.81876,-0.40806 2.70703,-0.6875 z m -46.259765,0.38867 -1.158203,4.89063 c 0.906867,0.21489 1.824968,0.37762 2.748047,0.49023 l 0.607422,-4.98828 c -0.739815,-0.0902 -1.474031,-0.2212 -2.197266,-0.39258 z m 41.869145,0.47266 c -0.72028,0.064 -1.47744,0.0807 -2.26758,0.0742 l -0.041,5.02539 c 0.88494,0.007 1.80489,-0.009 2.75391,-0.0937 z m -37.421879,0.0723 -0.0957,5.02539 h 0.05469 l 0.320312,0.002 h 2.185547 v -5.02539 h -2.169922 l -0.273437,-0.002 z m 4.978519,0.002 v 5.02539 h 2.51367 v -5.02539 z m 5.02539,0 v 5.02539 h 2.51367 v -5.02539 z m 5.02539,0 v 5.02539 h 2.51367 v -5.02539 z m 5.02734,0 v 5.02539 h 2.51172 v -5.02539 z m 5.02539,0 v 5.02539 h 2.51367 v -5.02539 z m 5.02539,0 v 5.02539 h 2.51367 v -5.02539 z"
       id="rect234" />
  </g>
</svg>
