<?xml version="1.0" encoding="UTF-8" standalone="no"?>
<svg
   xmlns:dc="http://purl.org/dc/elements/1.1/"
   xmlns:cc="http://creativecommons.org/ns#"
   xmlns:rdf="http://www.w3.org/1999/02/22-rdf-syntax-ns#"
   xmlns:svg="http://www.w3.org/2000/svg"
   xmlns="http://www.w3.org/2000/svg"
   viewBox="0 0 127.37797 90.714289"
   version="1.1"
   id="svg8">
  <g
     id="flowRoot815"
     style="font-style:normal;font-weight:normal;font-size:40px;line-height:1.25;font-family:sans-serif;text-align:center;letter-spacing:0px;word-spacing:0px;text-anchor:middle;fill:#000000;fill-opacity:1;stroke:none"
     transform="matrix(0.26458333,0,0,0.26458333,-16.620323,-14.481065)"
     aria-label="Unable to complete
the generation">
    <path
       id="path887"
       style=""
       d="m 109.99609,183.03516 h 3.96485 V 200.75 q 0,4.6875 1.69922,6.75781 1.69922,2.05078 5.50781,2.05078 3.78906,0 5.48828,-2.05078 1.69922,-2.07031 1.69922,-6.75781 v -17.71484 h 3.96484 v 18.20312 q 0,5.70313 -2.83203,8.61328 -2.8125,2.91016 -8.32031,2.91016 -5.52734,0 -8.35938,-2.91016 -2.8125,-2.91015 -2.8125,-8.61328 z" />
    <path
       id="path889"
       style=""
       d="m 157.75,198.99219 v 13.20312 h -3.59375 v -13.08594 q 0,-3.10546 -1.21094,-4.64843 -1.21094,-1.54297 -3.63281,-1.54297 -2.91016,0 -4.58984,1.85547 -1.67969,1.85547 -1.67969,5.05859 v 12.36328 h -3.61328 v -21.875 h 3.61328 v 3.39844 q 1.28906,-1.97266 3.02734,-2.94922 1.75781,-0.97656 4.04297,-0.97656 3.76953,0 5.70313,2.34375 1.93359,2.32422 1.93359,6.85547 z" />
    <path
       id="path891"
       style=""
       d="m 174.85937,201.19922 q -4.35546,0 -6.03515,0.99609 -1.67969,0.9961 -1.67969,3.39844 0,1.91406 1.25,3.04687 1.26953,1.11329 3.4375,1.11329 2.98828,0 4.78516,-2.10938 1.8164,-2.12891 1.8164,-5.64453 v -0.80078 z m 7.16797,-1.48438 v 12.48047 h -3.59375 V 208.875 q -1.23047,1.99219 -3.0664,2.94922 -1.83594,0.9375 -4.49219,0.9375 -3.35938,0 -5.35156,-1.875 -1.97266,-1.89453 -1.97266,-5.0586 0,-3.6914 2.46094,-5.5664 2.48047,-1.875 7.38281,-1.875 h 5.03906 v -0.35156 q 0,-2.48047 -1.64062,-3.82813 -1.6211,-1.36719 -4.57031,-1.36719 -1.875,0 -3.65235,0.44922 -1.77734,0.44922 -3.41797,1.34766 v -3.32031 q 1.97266,-0.76172 3.82813,-1.13282 1.85547,-0.39062 3.61328,-0.39062 4.74609,0 7.08984,2.46094 2.34375,2.46093 2.34375,7.46093 z" />
    <path
       id="path893"
       style=""
       d="m 205.13281,201.27734 q 0,-3.96484 -1.64062,-6.21093 -1.6211,-2.26563 -4.47266,-2.26563 -2.85156,0 -4.49219,2.26563 -1.62109,2.24609 -1.62109,6.21093 0,3.96485 1.62109,6.23047 1.64063,2.2461 4.49219,2.2461 2.85156,0 4.47266,-2.2461 1.64062,-2.26562 1.64062,-6.23047 z m -12.22656,-7.63672 q 1.13281,-1.95312 2.85156,-2.89062 1.73828,-0.95703 4.14063,-0.95703 3.98437,0 6.46484,3.16406 2.5,3.16406 2.5,8.32031 0,5.15625 -2.5,8.32032 -2.48047,3.16406 -6.46484,3.16406 -2.40235,0 -4.14063,-0.9375 -1.71875,-0.95703 -2.85156,-2.91016 v 3.28125 h -3.61328 v -30.39062 h 3.61328 z" />
    <path
       id="path895"
       style=""
       d="m 214.82031,181.80469 h 3.59375 v 30.39062 h -3.59375 z" />
    <path
       id="path897"
       style=""
       d="m 244.64453,200.35937 v 1.75782 h -16.52344 q 0.23438,3.71093 2.22657,5.66406 2.01171,1.93359 5.58593,1.93359 2.07032,0 4.00391,-0.50781 1.95312,-0.50781 3.86719,-1.52344 v 3.39844 q -1.9336,0.82031 -3.96485,1.25 -2.03125,0.42969 -4.12109,0.42969 -5.23438,0 -8.30078,-3.04688 -3.04688,-3.04687 -3.04688,-8.24218 0,-5.3711 2.89063,-8.51563 2.91015,-3.16406 7.83203,-3.16406 4.41406,0 6.97266,2.85156 2.57812,2.83203 2.57812,7.71484 z m -3.59375,-1.05468 q -0.0391,-2.94922 -1.66016,-4.70703 -1.60156,-1.75782 -4.25781,-1.75782 -3.00781,0 -4.82422,1.69922 -1.79687,1.69922 -2.07031,4.78516 z" />
    <path
       id="path899"
       style=""
       d="m 266.8125,184.10937 v 6.21094 h 7.40234 v 2.79297 h -7.40234 v 11.875 q 0,2.67578 0.72266,3.4375 0.74218,0.76172 2.98828,0.76172 h 3.6914 v 3.00781 h -3.6914 q -4.16016,0 -5.74219,-1.54297 -1.58203,-1.5625 -1.58203,-5.66406 v -11.875 h -2.63672 v -2.79297 h 2.63672 v -6.21094 z" />
    <path
       id="path901"
       style=""
       d="m 287.41797,192.83984 q -2.89063,0 -4.57031,2.26563 -1.67969,2.24609 -1.67969,6.17187 0,3.92578 1.66015,6.19141 1.67969,2.24609 4.58985,2.24609 2.87109,0 4.55078,-2.26562 1.67969,-2.26563 1.67969,-6.17188 0,-3.88672 -1.67969,-6.15234 -1.67969,-2.28516 -4.55078,-2.28516 z m 0,-3.04687 q 4.6875,0 7.36328,3.04687 2.67578,3.04688 2.67578,8.4375 0,5.3711 -2.67578,8.4375 -2.67578,3.04688 -7.36328,3.04688 -4.70703,0 -7.38281,-3.04688 -2.65625,-3.0664 -2.65625,-8.4375 0,-5.39062 2.65625,-8.4375 2.67578,-3.04687 7.38281,-3.04687 z" />
    <path
       id="path903"
       style=""
       d="m 331.87109,191.16016 v 3.35937 q -1.52343,-0.83984 -3.0664,-1.25 -1.52344,-0.42969 -3.08594,-0.42969 -3.49609,0 -5.42969,2.22657 -1.93359,2.20703 -1.93359,6.21093 0,4.00391 1.93359,6.23047 1.9336,2.20703 5.42969,2.20703 1.5625,0 3.08594,-0.41015 1.54297,-0.42969 3.0664,-1.26953 v 3.32031 q -1.5039,0.70312 -3.125,1.05469 -1.60156,0.35156 -3.41797,0.35156 -4.9414,0 -7.85156,-3.10547 -2.91015,-3.10547 -2.91015,-8.37891 0,-5.35156 2.92968,-8.41797 2.94922,-3.0664 8.06641,-3.0664 1.66016,0 3.24219,0.35156 1.58203,0.33203 3.0664,1.01563 z" />
    <path
       id="path905"
       style=""
       d="m 346.59766,192.83984 q -2.89063,0 -4.57032,2.26563 -1.67968,2.24609 -1.67968,6.17187 0,3.92578 1.66015,6.19141 1.67969,2.24609 4.58985,2.24609 2.87109,0 4.55078,-2.26562 1.67968,-2.26563 1.67968,-6.17188 0,-3.88672 -1.67968,-6.15234 -1.67969,-2.28516 -4.55078,-2.28516 z m 0,-3.04687 q 4.6875,0 7.36328,3.04687 2.67578,3.04688 2.67578,8.4375 0,5.3711 -2.67578,8.4375 -2.67578,3.04688 -7.36328,3.04688 -4.70704,0 -7.38282,-3.04688 -2.65625,-3.0664 -2.65625,-8.4375 0,-5.39062 2.65625,-8.4375 2.67578,-3.04687 7.38282,-3.04687 z" />
    <path
       id="path907"
       style=""
       d="m 379.625,194.51953 q 1.34766,-2.42187 3.22266,-3.57422 1.875,-1.15234 4.41406,-1.15234 3.41797,0 5.27344,2.40234 1.85546,2.38281 1.85546,6.79688 v 13.20312 h -3.61328 v -13.08594 q 0,-3.14453 -1.11328,-4.66796 -1.11328,-1.52344 -3.39844,-1.52344 -2.79296,0 -4.41406,1.85547 -1.62109,1.85547 -1.62109,5.05859 v 12.36328 h -3.61328 v -13.08594 q 0,-3.16406 -1.11328,-4.66796 -1.11329,-1.52344 -3.4375,-1.52344 -2.75391,0 -4.375,1.875 -1.6211,1.85547 -1.6211,5.03906 v 12.36328 h -3.61328 v -21.875 h 3.61328 v 3.39844 q 1.23047,-2.01172 2.94922,-2.96875 1.71875,-0.95703 4.08203,-0.95703 2.38281,0 4.04297,1.21094 1.67969,1.21093 2.48047,3.51562 z" />
    <path
       id="path909"
       style=""
       d="m 405.03516,208.91406 v 11.60156 h -3.61329 v -30.19531 h 3.61329 v 3.32031 q 1.13281,-1.95312 2.85156,-2.89062 1.73828,-0.95703 4.14062,-0.95703 3.98438,0 6.46485,3.16406 2.5,3.16406 2.5,8.32031 0,5.15625 -2.5,8.32032 -2.48047,3.16406 -6.46485,3.16406 -2.40234,0 -4.14062,-0.9375 -1.71875,-0.95703 -2.85156,-2.91016 z m 12.22656,-7.63672 q 0,-3.96484 -1.64063,-6.21093 -1.62109,-2.26563 -4.47265,-2.26563 -2.85157,0 -4.49219,2.26563 -1.62109,2.24609 -1.62109,6.21093 0,3.96485 1.62109,6.23047 1.64062,2.2461 4.49219,2.2461 2.85156,0 4.47265,-2.2461 1.64063,-2.26562 1.64063,-6.23047 z" />
    <path
       id="path911"
       style=""
       d="m 426.94922,181.80469 h 3.59375 v 30.39062 h -3.59375 z" />
    <path
       id="path913"
       style=""
       d="m 456.77344,200.35937 v 1.75782 H 440.25 q 0.23437,3.71093 2.22656,5.66406 2.01172,1.93359 5.58594,1.93359 2.07031,0 4.00391,-0.50781 1.95312,-0.50781 3.86718,-1.52344 v 3.39844 q -1.93359,0.82031 -3.96484,1.25 -2.03125,0.42969 -4.12109,0.42969 -5.23438,0 -8.30079,-3.04688 -3.04687,-3.04687 -3.04687,-8.24218 0,-5.3711 2.89062,-8.51563 2.91016,-3.16406 7.83204,-3.16406 4.41406,0 6.97265,2.85156 2.57813,2.83203 2.57813,7.71484 z m -3.59375,-1.05468 q -0.0391,-2.94922 -1.66016,-4.70703 -1.60156,-1.75782 -4.25781,-1.75782 -3.00781,0 -4.82422,1.69922 -1.79688,1.69922 -2.07031,4.78516 z" />
    <path
       id="path915"
       style=""
       d="m 466.22656,184.10937 v 6.21094 h 7.40235 v 2.79297 h -7.40235 v 11.875 q 0,2.67578 0.72266,3.4375 0.74219,0.76172 2.98828,0.76172 h 3.69141 v 3.00781 h -3.69141 q -4.16016,0 -5.74219,-1.54297 -1.58203,-1.5625 -1.58203,-5.66406 v -11.875 h -2.63672 v -2.79297 h 2.63672 v -6.21094 z" />
    <path
       id="path917"
       style=""
       d="m 497.06641,200.35937 v 1.75782 h -16.52344 q 0.23437,3.71093 2.22656,5.66406 2.01172,1.93359 5.58594,1.93359 2.07031,0 4.0039,-0.50781 1.95313,-0.50781 3.86719,-1.52344 v 3.39844 q -1.93359,0.82031 -3.96484,1.25 -2.03125,0.42969 -4.1211,0.42969 -5.23437,0 -8.30078,-3.04688 -3.04687,-3.04687 -3.04687,-8.24218 0,-5.3711 2.89062,-8.51563 2.91016,-3.16406 7.83203,-3.16406 4.41407,0 6.97266,2.85156 2.57813,2.83203 2.57813,7.71484 z m -3.59375,-1.05468 q -0.0391,-2.94922 -1.66016,-4.70703 -1.60156,-1.75782 -4.25781,-1.75782 -3.00782,0 -4.82422,1.69922 -1.79688,1.69922 -2.07031,4.78516 z" />
    <path
       id="path919"
       style=""
       d="m 162.23242,234.10937 v 6.21094 h 7.40235 v 2.79297 h -7.40235 v 11.875 q 0,2.67578 0.72266,3.4375 0.74219,0.76172 2.98828,0.76172 h 3.69141 v 3.00781 h -3.69141 q -4.16016,0 -5.74219,-1.54297 -1.58203,-1.5625 -1.58203,-5.66406 v -11.875 h -2.63672 v -2.79297 h 2.63672 v -6.21094 z" />
    <path
       id="path921"
       style=""
       d="m 192.54492,248.99219 v 13.20312 h -3.59375 v -13.08594 q 0,-3.10546 -1.21094,-4.64843 -1.21093,-1.54297 -3.63281,-1.54297 -2.91015,0 -4.58984,1.85547 -1.67969,1.85547 -1.67969,5.05859 v 12.36328 h -3.61328 v -30.39062 h 3.61328 v 11.91406 q 1.28906,-1.97266 3.02734,-2.94922 1.75782,-0.97656 4.04297,-0.97656 3.76953,0 5.70313,2.34375 1.93359,2.32422 1.93359,6.85547 z" />
    <path
       id="path923"
       style=""
       d="m 218.42383,250.35937 v 1.75782 h -16.52344 q 0.23438,3.71093 2.22656,5.66406 2.01172,1.93359 5.58594,1.93359 2.07031,0 4.00391,-0.50781 1.95312,-0.50781 3.86718,-1.52344 v 3.39844 q -1.93359,0.82031 -3.96484,1.25 -2.03125,0.42969 -4.12109,0.42969 -5.23438,0 -8.30078,-3.04688 -3.04688,-3.04687 -3.04688,-8.24218 0,-5.3711 2.89063,-8.51563 2.91015,-3.16406 7.83203,-3.16406 4.41406,0 6.97265,2.85156 2.57813,2.83203 2.57813,7.71484 z m -3.59375,-1.05468 q -0.0391,-2.94922 -1.66016,-4.70703 -1.60156,-1.75782 -4.25781,-1.75782 -3.00781,0 -4.82422,1.69922 -1.79687,1.69922 -2.07031,4.78516 z" />
    <path
       id="path925"
       style=""
       d="m 251.43164,251.00391 q 0,-3.90625 -1.62109,-6.05469 -1.60157,-2.14844 -4.51172,-2.14844 -2.89063,0 -4.51172,2.14844 -1.60156,2.14844 -1.60156,6.05469 0,3.88671 1.60156,6.03515 1.62109,2.14844 4.51172,2.14844 2.91015,0 4.51172,-2.14844 1.62109,-2.14844 1.62109,-6.03515 z m 3.59375,8.47656 q 0,5.58594 -2.48047,8.30078 -2.48047,2.73437 -7.59765,2.73437 -1.89454,0 -3.57422,-0.29296 -1.67969,-0.27344 -3.26172,-0.85938 v -3.49609 q 1.58203,0.85937 3.125,1.26953 1.54297,0.41015 3.14453,0.41015 3.53516,0 5.29297,-1.85546 1.75781,-1.83594 1.75781,-5.56641 v -1.77734 q -1.11328,1.93359 -2.85156,2.89062 -1.73828,0.95703 -4.16016,0.95703 -4.02344,0 -6.48437,-3.0664 -2.46094,-3.06641 -2.46094,-8.125 0,-5.07813 2.46094,-8.14454 2.46093,-3.0664 6.48437,-3.0664 2.42188,0 4.16016,0.95703 1.73828,0.95703 2.85156,2.89062 v -3.32031 h 3.59375 z" />
    <path
       id="path927"
       style=""
       d="m 281.13867,250.35937 v 1.75782 h -16.52344 q 0.23438,3.71093 2.22657,5.66406 2.01172,1.93359 5.58593,1.93359 2.07032,0 4.00391,-0.50781 1.95313,-0.50781 3.86719,-1.52344 v 3.39844 q -1.9336,0.82031 -3.96485,1.25 -2.03125,0.42969 -4.12109,0.42969 -5.23437,0 -8.30078,-3.04688 -3.04688,-3.04687 -3.04688,-8.24218 0,-5.3711 2.89063,-8.51563 2.91016,-3.16406 7.83203,-3.16406 4.41406,0 6.97266,2.85156 2.57812,2.83203 2.57812,7.71484 z m -3.59375,-1.05468 q -0.0391,-2.94922 -1.66015,-4.70703 -1.60157,-1.75782 -4.25782,-1.75782 -3.00781,0 -4.82422,1.69922 -1.79687,1.69922 -2.07031,4.78516 z" />
    <path
       id="path929"
       style=""
       d="m 305.2207,248.99219 v 13.20312 h -3.59375 v -13.08594 q 0,-3.10546 -1.21093,-4.64843 -1.21094,-1.54297 -3.63282,-1.54297 -2.91015,0 -4.58984,1.85547 -1.67969,1.85547 -1.67969,5.05859 v 12.36328 h -3.61328 v -21.875 h 3.61328 v 3.39844 q 1.28906,-1.97266 3.02735,-2.94922 1.75781,-0.97656 4.04296,-0.97656 3.76954,0 5.70313,2.34375 1.93359,2.32422 1.93359,6.85547 z" />
    <path
       id="path931"
       style=""
       d="m 331.09961,250.35937 v 1.75782 h -16.52344 q 0.23438,3.71093 2.22656,5.66406 2.01172,1.93359 5.58594,1.93359 2.07031,0 4.00391,-0.50781 1.95312,-0.50781 3.86719,-1.52344 v 3.39844 q -1.9336,0.82031 -3.96485,1.25 -2.03125,0.42969 -4.12109,0.42969 -5.23438,0 -8.30078,-3.04688 -3.04688,-3.04687 -3.04688,-8.24218 0,-5.3711 2.89063,-8.51563 2.91015,-3.16406 7.83203,-3.16406 4.41406,0 6.97265,2.85156 2.57813,2.83203 2.57813,7.71484 z m -3.59375,-1.05468 q -0.0391,-2.94922 -1.66016,-4.70703 -1.60156,-1.75782 -4.25781,-1.75782 -3.00781,0 -4.82422,1.69922 -1.79687,1.69922 -2.07031,4.78516 z" />
    <path
       id="path933"
       style=""
       d="m 349.67383,243.67969 q -0.60547,-0.35157 -1.32813,-0.50782 -0.70312,-0.17578 -1.5625,-0.17578 -3.04687,0 -4.6875,1.99219 -1.62109,1.97266 -1.62109,5.68359 v 11.52344 h -3.61328 v -21.875 h 3.61328 v 3.39844 q 1.13281,-1.99219 2.94922,-2.94922 1.8164,-0.97656 4.41406,-0.97656 0.37109,0 0.82031,0.0586 0.44922,0.0391 0.9961,0.13672 z" />
    <path
       id="path935"
       style=""
       d="m 363.38477,251.19922 q -4.35547,0 -6.03516,0.99609 -1.67969,0.9961 -1.67969,3.39844 0,1.91406 1.25,3.04687 1.26953,1.11329 3.4375,1.11329 2.98828,0 4.78516,-2.10938 1.8164,-2.12891 1.8164,-5.64453 v -0.80078 z m 7.16796,-1.48438 v 12.48047 h -3.59375 V 258.875 q -1.23046,1.99219 -3.0664,2.94922 -1.83594,0.9375 -4.49219,0.9375 -3.35937,0 -5.35156,-1.875 -1.97266,-1.89453 -1.97266,-5.0586 0,-3.6914 2.46094,-5.5664 2.48047,-1.875 7.38281,-1.875 h 5.03906 v -0.35156 q 0,-2.48047 -1.64062,-3.82813 -1.62109,-1.36719 -4.57031,-1.36719 -1.875,0 -3.65235,0.44922 -1.77734,0.44922 -3.41797,1.34766 v -3.32031 q 1.97266,-0.76172 3.82813,-1.13282 1.85547,-0.39062 3.61328,-0.39062 4.74609,0 7.08984,2.46094 2.34375,2.46093 2.34375,7.46093 z" />
    <path
       id="path937"
       style=""
       d="m 381.50977,234.10937 v 6.21094 h 7.40234 v 2.79297 h -7.40234 v 11.875 q 0,2.67578 0.72265,3.4375 0.74219,0.76172 2.98828,0.76172 h 3.69141 v 3.00781 h -3.69141 q -4.16015,0 -5.74218,-1.54297 -1.58204,-1.5625 -1.58204,-5.66406 v -11.875 h -2.63671 v -2.79297 h 2.63671 v -6.21094 z" />
    <path
       id="path939"
       style=""
       d="m 393.63867,240.32031 h 3.59375 v 21.875 h -3.59375 z m 0,-8.51562 h 3.59375 v 4.55078 h -3.59375 z" />
    <path
       id="path941"
       style=""
       d="m 413.22852,242.83984 q -2.89063,0 -4.57032,2.26563 -1.67968,2.24609 -1.67968,6.17187 0,3.92578 1.66015,6.19141 1.67969,2.24609 4.58985,2.24609 2.87109,0 4.55078,-2.26562 1.67968,-2.26563 1.67968,-6.17188 0,-3.88672 -1.67968,-6.15234 -1.67969,-2.28516 -4.55078,-2.28516 z m 0,-3.04687 q 4.6875,0 7.36328,3.04687 2.67578,3.04688 2.67578,8.4375 0,5.3711 -2.67578,8.4375 -2.67578,3.04688 -7.36328,3.04688 -4.70704,0 -7.38282,-3.04688 -2.65625,-3.0664 -2.65625,-8.4375 0,-5.39062 2.65625,-8.4375 2.67578,-3.04687 7.38282,-3.04687 z" />
    <path
       id="path943"
       style=""
       d="m 447.4082,248.99219 v 13.20312 h -3.59375 v -13.08594 q 0,-3.10546 -1.21093,-4.64843 -1.21094,-1.54297 -3.63282,-1.54297 -2.91015,0 -4.58984,1.85547 -1.67969,1.85547 -1.67969,5.05859 v 12.36328 h -3.61328 v -21.875 h 3.61328 v 3.39844 q 1.28906,-1.97266 3.02735,-2.94922 1.75781,-0.97656 4.04296,-0.97656 3.76954,0 5.70313,2.34375 1.93359,2.32422 1.93359,6.85547 z" />
  </g>
</svg>
