<?xml version="1.0" standalone="no"?>
<!DOCTYPE svg PUBLIC "-//W3C//DTD SVG 1.1//EN" "http://www.w3.org/Graphics/SVG/1.1/DTD/svg11.dtd">
<svg xmlns="http://www.w3.org/2000/svg">
<metadata>Copyright (C) 2022 by original authors @ fontello.com</metadata>
<defs>
<font id="fontello" horiz-adv-x="1000" >
<font-face font-family="fontello" font-weight="400" font-stretch="normal" units-per-em="1000" ascent="850" descent="-150" />
<missing-glyph horiz-adv-x="1000" />
<glyph glyph-name="edit" unicode="&#xe765;" d="M496 189l64 65-85 85-64-65v-31h53v-54h32z m245 402q-9 9-18 0l-196-196q-9-9 0-18t18 0l196 196q9 9 0 18z m45-331v-106q0-67-47-114t-114-47h-464q-67 0-114 47t-47 114v464q0 66 47 113t114 48h464q35 0 65-14 9-4 10-13 2-10-5-16l-27-28q-8-8-18-4-13 3-25 3h-464q-37 0-63-26t-27-63v-464q0-37 27-63t63-27h464q37 0 63 27t26 63v70q0 7 5 12l36 36q8 8 20 4t11-16z m-54 411l161-160-375-375h-161v160z m248-73l-51-52-161 161 51 52q16 15 38 15t38-15l85-85q16-16 16-38t-16-38z" horiz-adv-x="1000" />

<glyph glyph-name="wrench" unicode="&#xe800;" d="M214 29q0 14-10 25t-25 10-25-10-11-25 11-25 25-11 25 11 10 25z m360 234l-381-381q-21-20-50-20-29 0-51 20l-59 61q-21 20-21 50 0 29 21 51l380 380q22-55 64-97t97-64z m354 243q0-22-13-59-27-75-92-122t-144-46q-104 0-177 73t-73 177 73 176 177 74q32 0 67-10t60-26q9-6 9-15t-9-16l-163-94v-125l108-60q2 2 44 27t75 45 40 20q8 0 13-5t5-14z" horiz-adv-x="928.6" />

<glyph glyph-name="list" unicode="&#xe801;" d="M18 684q0 57 56 57t56-57q0-55-56-55t-56 55z m0-223q0 57 56 57t56-57q0-55-56-55t-56 55z m0-223q0 56 56 56t56-56q0-55-56-55t-56 55z m0-223q0 56 56 56t56-56q0-56-56-56t-56 56z m223 614l0 112 670 0 0-112-670 0z m0-223l0 112 670 0 0-112-670 0z m0-223l0 111 670 0 0-111-670 0z m0-224l0 112 670 0 0-112-670 0z" horiz-adv-x="928" />

<glyph glyph-name="link" unicode="&#xe802;" d="M813 171q0 23-16 38l-116 116q-16 16-38 16-24 0-40-18 1-1 10-10t12-12 9-11 7-14 2-15q0-23-16-38t-38-16q-8 0-15 2t-14 7-11 9-12 12-10 10q-19-17-19-40 0-23 16-38l115-116q15-15 38-15 22 0 38 15l82 81q16 16 16 37z m-393 394q0 22-15 38l-115 115q-16 16-38 16-22 0-38-15l-82-82q-16-15-16-37 0-22 16-38l116-116q15-15 38-15 23 0 40 17-2 2-11 11t-12 12-8 10-7 14-2 16q0 22 15 38t38 15q9 0 16-2t14-7 11-8 12-12 10-11q18 17 18 41z m500-394q0-66-48-113l-82-81q-46-47-113-47-68 0-114 48l-115 115q-46 47-46 114 0 68 49 116l-49 49q-48-49-116-49-67 0-114 47l-116 116q-47 47-47 114t47 113l82 82q47 46 114 46 67 0 114-47l115-116q46-46 46-113 0-69-49-117l49-49q48 49 116 49 67 0 114-47l116-116q47-47 47-114z" horiz-adv-x="928.6" />

<glyph glyph-name="d4" unicode="&#xe803;" d="M437 850c-22 0-63-35-279-240-91-87-158-161-158-177 0-40 86-330 119-400 15-33 28-70 28-83 0-12 14-40 31-61 16-22 34-39 40-39 17 0 208 81 363 154 81 38 180 82 220 98 111 44 214 114 214 146 0 27-81 122-236 278-44 45-111 115-148 155-88 97-172 169-194 169z m-4-44c10 0 76-61 149-134 72-74 164-169 205-210 103-105 169-187 169-210 0-28-39-50-338-187-284-130-345-152-358-132-9 15 55 307 77 350 22 45 116 494 104 494-6 0-16-25-21-56-20-119-71-335-82-349-17-21-91-358-93-423-3-102-35-65-83 100-19 64-42 130-52 147-29 50-52 167-41 209l10 41 9-37c12-50 47-47 61 5 8 30 6 40-7 34-25-9-74 29-62 48 6 9 15 16 20 16 6 0 79 66 163 147 84 81 161 147 170 147z m-100-123c-6-1-15-9-32-25-24-23-35-47-33-75 4-53 22-53 42-2 9 22 23 45 31 50 9 6 12 22 6 36-4 12-7 17-14 16z m168-39c-12 2-26-28-45-90-11-37-9-39 37-38 27 1 46 6 43 12-4 6 5 18 19 27 24 14 24 15 0 15-14 0-29 16-34 37-6 24-12 36-20 37z m-5-52c2 0 5-2 8-4 8-8 10-22 4-31-17-27-35-17-27 15 4 12 8 19 13 20 1 0 1 0 2 0z m288-288c-19 0-34-3-34-11 0-8 22-17 48-21 26-3 53-7 60-8 7-1 9 6 6 16-4 14-48 24-80 24z m-578-75c-18-1-44-31-44-56 0-15 6-31 14-36 9-5 15-27 16-49 0-37 1-38 21-12 20 27 15 68-9 68-20 0-15 56 6 63 10 4 13 12 7 18-3 3-6 4-11 4z m227-41c-29 0-42-11-58-50-12-27-30-53-40-57-13-5-10-14 11-30 37-30 52-31 42-2-5 12-1 22 8 22 11 0 14 11 8 30-5 16-1 40 8 51 16 19 21 18 38-4 18-24 20-24 20 7 0 26-8 33-37 33z" horiz-adv-x="1015" />

<glyph glyph-name="d6" unicode="&#xe804;" d="M558 850c-73 0-166-24-309-68-154-47-209-82-234-149-8-21-15-135-15-253 0-260-5-251 258-470 72-61 83-65 146-57 112 15 459 131 506 169 37 30 46 53 58 152 8 65 15 174 15 243 0 110-4 130-38 168-20 23-40 42-43 42-3 0-51 45-106 99-87 85-145 124-238 124z m-6-38c83 1 137-46 269-179l120-121-11-180c-12-195-43-288-107-313-19-8-116-40-215-70-219-67-262-69-312-15-21 23-75 69-120 102-131 98-137 112-132 347 2 112 7 206 11 210 8 9 127-84 214-167l59-55 2-141 2-141 13 109c22 180 25 176-195 351-48 39-87 79-87 90 0 11 1 20 4 20 2 0 46-40 97-89 166-157 207-180 297-170l78 9-68-29c-38-15-74-39-82-52-18-32-48-363-36-394 5-14 16-25 24-25 9 0 9 11 1 27-17 34 3 333 25 373 29 54 452 191 486 158 9-10 21-12 27-6 28 27-33 37-119 20-55-11-54-11 11 20 37 17 67 40 67 50 0 12-10 10-28-6-15-14-78-41-141-62-62-20-108-43-101-50 7-8 4-9-7-3-10 6-59 4-109-4-61-9-101-8-122 3-68 36-240 184-250 215-17 55-21 53 296 141 59 16 102 26 139 27z m-106-106c-94-4-119-116-17-157 53-22 130-17 156 10 24 23 24 28-1 55-31 35-96 37-138 5-43-32-58-28-53 12 5 30 15 36 64 36 58 0 73 26 21 36-11 2-22 3-32 3z m236-82c-7 0-15-1-22-4-23-8-23-12-3-24 29-19 42-19 53-1 10 16-6 29-28 29z m-168-14c9 0 17-1 25-4 13-5 23-16 23-25 0-21-73-21-86 0-9 15 13 28 38 29z m-401-252c-4 0-8 0-11-2-42-16-25-119 20-119 19 0 21 4 6 19-23 22-25 75-3 75 9 0 16-15 16-32 0-18 8-31 19-30 44 6 59-2 59-32 0-17-11-31-24-31-24 0-31-19-13-37 6-5 15-10 20-10 58 2 64 120 7 149-19 9-45 25-59 37-10 8-25 13-37 13z m550-75c-39-1-85-24-85-57 0-23 2-23 29 1 30 27 80 35 80 12 0-7-17-21-39-31-35-16-70-72-70-113 0-14 99-5 129 12 28 16 8 30-35 24-60-9-60 7 2 59 34 28 47 50 40 68-7 18-28 25-51 25z" horiz-adv-x="983" />

<glyph glyph-name="d8" unicode="&#xe805;" d="M441 850c-66-2-132-74-286-238-93-100-100-113-130-243-18-75-29-152-24-170 5-18 39-53 75-78 37-25 106-77 153-117 87-72 161-124 204-144 36-16 46-14 103 13 29 13 86 64 126 113 41 49 103 117 139 152 56 53 71 82 101 192 19 72 30 144 25 162-6 17-41 54-77 81-37 28-132 102-212 164-93 73-145 114-197 113z m0-30c12 0 42-18 68-40 25-21 51-39 57-39 5 0 59-42 119-94 60-52 116-94 125-94 8 0 15-7 15-16 0-10-123-15-337-15-185 0-337 5-337 12 0 22 268 286 290 286z m40-112c-4 0-8-1-12-1-34-4-45-15-53-55-5-28-6-55-2-59 18-18 115-8 122 12 5 12 1 40-8 64-12 30-22 40-47 39z m-6-17c22-1 38-14 28-29-11-19-24-18-54 0-20 13-19 16 3 25 8 3 16 4 23 4z m6-60c28 0 44-6 38-15-5-9-26-16-48-16-21 0-38 7-38 16 0 8 22 15 48 15z m-210-122c60 0 138-1 237-3l372-8 5-35c3-20-10-81-28-135-34-101-117-210-282-367-78-73-115-81-173-34-175 139-281 219-294 219-8 0-28 14-44 31-27 31-28 38-3 167 15 78 36 142 51 152 10 8 59 12 159 13z m7-36c-92-1-143-5-143-14 0-30 159-336 209-404 28-37 63-85 79-106 15-21 37-39 47-39 33 0 161 135 238 253 42 64 92 133 112 153 20 21 36 45 36 53 0 28-70-55-154-181-45-66-114-153-153-193-70-70-72-71-103-43-18 16-41 48-53 71-12 22-32 52-45 64-29 29-181 313-181 338 0 13 97 19 356 21 345 3 350 3 145 14-165 9-298 13-390 13z m220-140c-24 0-50-6-62-18-36-37-22-93 29-112 56-21 61-42 8-42-21 0-42-7-48-15-14-23 76-20 99 3 34 34 22 70-28 80-33 7-47 19-47 40 0 36 31 50 79 38 25-7 32-4 24 9-7 11-30 17-54 17z" horiz-adv-x="928" />

<glyph glyph-name="trash-empty" unicode="&#xe806;" d="M286 439v-321q0-8-5-13t-13-5h-36q-8 0-13 5t-5 13v321q0 8 5 13t13 5h36q8 0 13-5t5-13z m143 0v-321q0-8-5-13t-13-5h-36q-8 0-13 5t-5 13v321q0 8 5 13t13 5h36q8 0 13-5t5-13z m142 0v-321q0-8-5-13t-12-5h-36q-8 0-13 5t-5 13v321q0 8 5 13t13 5h36q7 0 12-5t5-13z m72-404v529h-500v-529q0-12 4-22t8-15 6-5h464q2 0 6 5t8 15 4 22z m-375 601h250l-27 65q-4 5-9 6h-177q-6-1-10-6z m518-18v-36q0-8-5-13t-13-5h-54v-529q0-46-26-80t-63-34h-464q-37 0-63 33t-27 79v531h-53q-8 0-13 5t-5 13v36q0 8 5 13t13 5h172l39 93q9 21 31 35t44 15h178q23 0 44-15t30-35l39-93h173q8 0 13-5t5-13z" horiz-adv-x="785.7" />

<glyph glyph-name="d10" unicode="&#xe807;" d="M569 850c-3 0-6 0-9 0-30-2-58-21-100-53-177-135-460-386-460-408 0-23 408-445 485-501 28-21 63-38 76-38 28 0 162 97 251 181 33 32 71 64 85 71 13 8 67 53 119 100 70 63 95 97 95 126 0 44-88 143-336 375-107 101-159 145-206 147z m4-29c10 0 40-22 68-49 28-27 110-105 182-173 73-68 113-115 91-104-36 17-60 16-171-9-131-29-147-31-174-21-8 3-72 20-140 38-69 18-126 41-126 51 0 22 247 267 270 267z m-52-173c-29 1-44-26-30-62 11-28 79-30 90-3 11 28-5 50-46 63-5 1-9 2-14 2z m169-11c-17 1-36-5-49-18-20-20-21-28-4-48 30-36 98-24 104 18 4 28-22 47-51 48z m-159-13c17 0 30-10 30-23 0-13-13-23-30-23-17 0-30 10-30 23 0 13 13 23 30 23z m-209-4c5-1-5-16-31-46-14-16-18-32-9-40 8-8 82-32 166-54l151-41 125 26c121 25 201 22 201-8 0-9-26-15-59-15-70 0-213-30-239-50-11-8-21-61-24-122l-5-109-3 117-3 117-133 40c-73 21-142 42-154 46-27 9-139-45-190-93-33-30-42-33-49-14-11 29 20 64 160 177 58 47 90 70 96 69z m363 0c22-1 47-24 37-40-17-28-73-21-67 8 3 14 12 28 20 30 3 1 6 2 10 2z m-388-161c17 1 35-3 60-10 33-11 89-27 124-36 36-10 72-31 80-47 10-18 12-105 6-234-9-181-13-204-33-187-19 15-22 15-16-4 5-13 19-25 33-28 22-4 26 12 28 107l3 111 6-95c9-165 26-103 31 114 3 134 12 214 23 225 27 26 150 52 246 52 53 0 81 5 75 15-5 8-5 15-1 15 16 0 114-114 115-132 0-10-35-48-78-83-84-71-295-246-371-308-27-21-59-39-72-39-33 0-450 409-450 442 0 30 58 76 137 108 22 9 38 14 54 14z m144-133c-13 0-30-5-41-13-26-19-27-22-2-49 15-16 27-37 27-47 0-22 55-24 68-3 5 9-6 15-26 16-28 0-30 3-12 15 19 11 16 14-11 14-20 1-34 10-34 22 0 12 15 24 34 27 28 4 29 7 9 15-4 2-8 2-12 3z m320-10c-33-1-93-50-93-82 0-26 8-35 33-35 62 0 117 86 73 114-4 2-8 3-13 3z m-458-11c-17 0-30-12-30-35 0-19 8-43 18-53 45-44 89-1 59 57-12 22-31 32-47 31z m-1-15c7 0 22-11 32-23 25-30-1-62-27-35-22 22-25 58-5 58z m452 0c27 0 25-23-4-52-29-29-52-31-52-4 0 25 31 56 56 56z m132 0c-8 0-38-24-67-53-50-51-50-53-15-53 19 0 31 4 25 10-5 6 8 30 31 53 22 24 34 43 26 43z" horiz-adv-x="1111" />

<glyph glyph-name="d12" unicode="&#xe808;" d="M384 850l-95-86c-85-77-267-304-288-358-10-26 77-238 140-340 85-137 137-169 307-193 82-11 153-21 157-22 35-9 132 39 165 82 22 29 88 103 147 165 59 62 122 143 140 181l33 68-71 157c-84 188-169 289-262 310-35 8-133 19-218 25l-155 11z m67-45c107-1 336-39 367-67 16-15 45-53 64-84 19-32 39-61 45-65 15-13 112-227 112-248 0-11-10-34-23-51-23-30-24-30-25 5 0 32-45 146-65 165-4 4-21 28-36 52-19 30-43 45-72 46l-44 1 43 16 43 15-26 75c-14 42-28 67-32 57-3-11 2-34 11-51 34-65 22-76-123-111l-140-34-134 65c-108 53-130 70-115 88 10 12 13 22 6 22-18 0 58 80 93 99 8 4 26 5 51 5z m132-56c-22 0-45-8-58-24-24-28 0-33 28-6 10 10 30 14 45 8 26-10 26-13 1-40-14-16-26-37-26-48 0-21 54-22 112-1 30 11 23 12-31 6-70-9-71-8-42 24 16 17 25 43 20 57-6 15-27 23-49 24z m-179-49c-9 0 9-22 39-48 31-25 60-43 65-38 10 11-81 87-104 86z m-142-45c7 0 14-3 21-10 33-29 250-137 277-137 16 0 16-4-2-15-22-14-72-294-59-331 11-30 194-110 253-111l59 0-49-62c-27-35-67-69-88-77-38-15-94-18-125-7-9 3-66 11-126 16-91 9-116 18-145 53-19 22-46 53-59 67-13 15-34 39-47 55-21 26-19 27 16 19 58-13 277 42 281 72 2 13 12 80 23 148 10 68 15 131 9 139-15 25-212 131-243 131-15 0 32-30 105-66l132-66-10-67c-20-131-48-222-72-235-14-8-67-21-119-31-121-22-153 0-212 145l-43 106 61 87c33 47 83 109 110 137 26 27 40 39 52 40z m576-115c11 0 32-29 48-64 16-35 35-64 41-64 20 0 47-86 45-140-1-31-16-64-36-81-19-16-48-49-66-72-42-56-110-65-206-29-126 49-159 76-149 126 5 23 13 85 19 136 6 51 20 103 32 115 19 19 221 73 272 73z m-154-2c6 0 11-1 13-4 6-5-4-9-21-9-19 1-22 5-10 10 6 2 13 4 18 3z m-64-16c5 0 10-1 13-4 5-6-4-9-21-9-19 1-23 5-10 10 6 2 12 3 18 3z m-298-94c-5 0-24-19-42-41-17-22-54-52-81-66l-50-26 55-29c66-36 100-40 57-7-29 22-28 25 20 80 48 54 63 89 41 89z m426-50c-11-1-23-10-44-29-41-35-44-59-11-72 14-5 25-23 25-39 0-17 4-35 10-41 21-21 68-10 76 18 13 49 0 135-24 150-11 7-20 12-27 13-2 0-3 0-5 0z m5-34c24 0 47-28 35-48-4-7-22-13-39-13-38 0-42 45-6 59 4 1 7 2 10 2z m21-85c16-2 26-17 13-30-15-15-34-13-44 4-5 8 1 19 14 24 4 1 7 1 10 2 2 0 5 0 7 0z m-332-202c-25 0-47-4-53-14-6-9 13-12 47-6 35 6 57 3 57-8 0-9-20-19-43-22-24-3-46-14-50-26-5-14 14-19 63-18l70 3-57 11c-31 7-41 13-24 15 18 1 43 9 57 18 21 14 21 18 0 32-16 10-43 15-67 15z" horiz-adv-x="1090" />

<glyph glyph-name="d20" unicode="&#xe809;" d="M569 850c-24-1-56-8-87-21-139-55-371-169-382-187-7-11-23-74-36-140-14-66-35-158-48-203-13-45-19-93-14-106 7-21 183-170 245-208 12-8 57-42 99-75 42-33 89-60 104-60 16 0 58 16 95 35 36 19 129 61 207 94 78 33 152 70 165 82 15 15 34 86 53 202 41 244 40 256-21 323-29 32-57 57-63 57-7 0-68 44-135 99-67 54-140 102-161 106-6 2-13 2-21 2z m-6-37c31 0 82-33 196-127 43-36 102-83 132-105 30-22 52-42 50-44-3-3-38 2-79 10-62 12-82 24-114 67-59 80-159 191-159 176 0-7 31-47 69-89 96-104 111-134 88-177-10-18-45-63-77-98-32-35-90-106-129-156-39-51-78-93-87-93-20-1-50 58-125 254-36 92-57 165-49 168 13 4 245-15 402-34 40-5 48-3 29 5-16 7-112 20-213 30-101 9-194 19-205 23-29 7-69-19-50-33 8-6 46-93 84-195 38-101 75-192 83-201 14-18-91-21-285-8l-76 6 10 52c5 29 35 116 67 194 56 138 64 150 188 257 49 43 209 118 250 118z m-108-75c-11 0-21-4-27-10-12-13-9-15 16-8 19 6 32 4 32-5 0-8-12-15-26-15-26 0-59-25-59-45 0-7 21-11 46-10 43 1 44 2 11 12-34 10-34 11-8 21 16 6 37 13 46 16 28 8 21 31-12 42-6 2-13 2-19 2z m128-11c-6-1-12-3-19-8-31-20-40-62-15-78 50-32 106 28 64 69-12 12-20 17-30 17z m2-30c3 0 7-1 10-2 13-5 18-17 14-30-10-25-42-29-56-6-12 18 9 40 32 38z m-307-7c13-1-4-17-45-38-18-9-45-39-58-66-14-27-38-78-53-113-31-74-35-52-12 63 17 87 31 102 132 143 18 8 30 11 36 11z m538-149c32-1 142-29 148-38 6-11-57-413-66-418-16-10-216-97-277-121-42-16-91-39-110-52-46-30-52-13-46 116l4 98 217-5 218-6-11 34c-6 19-22 75-36 126-13 51-25 79-26 64 0-16 5-51 12-78 7-27 17-68 22-91l9-41-199 9c-109 5-208 5-220 1-16-7-22-31-23-96 0-48-5-99-11-113-10-25-13-24-56 12-25 21-41 45-36 53 6 10 1 12-13 7-12-5-30 1-39 12-14 16-12 20 13 20 40 0 54 38 26 67-24 24-53 14-53-18 0-33-62-14-127 38-31 25-57 48-57 51 0 3 46 1 103-3 56-5 143-10 192-13l89-5 87 108c49 59 106 126 127 148 21 21 50 58 64 81 13 23 29 42 34 42 5 0 19-37 31-82 23-87 32-61 10 32-7 31-11 58-9 60 1 1 4 2 9 1z m-402-14c-9-3-28-55-32-100l-5-54 49 39c57 46 62 61 22 71-16 4-29 18-29 31 0 8-2 12-4 13 0 0-1 0-1 0z m133-10c-10 0-17-26-22-88l-7-76 22 76c12 42 19 79 14 84-2 2-5 4-7 4z m-122-49c5 0 8-6 8-14 0-12-6-26-14-30-8-5-14 0-14 12 0 12 6 25 14 30 2 1 4 2 6 2z m-201-101c-20 0-33-19-28-52 4-27 0-40-13-40-10 0-19 7-19 16 0 10-4 13-9 8-5-5-1-19 9-31 21-26 18-25 63-5 47 21 62 68 30 91-12 9-23 13-33 13z m-6-23c1 1 2 1 4 0 6 0 15-5 27-13 19-12 19-15 0-28-32-20-42-17-42 14 0 18 3 26 11 27z m514-30c-6 0-12-2-19-6-10-6-30-9-46-6-22 3-17-6 21-40 62-54 71-54 71-2 0 34-10 54-27 54z m-7-30c2 0 4-1 6-2 8-5 14-12 14-15 0-3-6-6-14-6-8 0-14 7-14 15 0 6 3 9 8 8z m-426-193c11 0 21-7 21-14 0-8-10-15-21-15-12 0-21 7-21 15 0 7 9 14 21 14z m276-16c-1-1 5-8 20-25 15-16 37-30 49-30 20 0 20 2 2 15-12 8-34 21-50 30-10 6-17 9-20 10 0 0 0 0-1 0z m-53-30c-5 1 3-8 24-30 18-21 37-35 40-31 10 10-11 35-44 52-11 6-18 9-20 9z" horiz-adv-x="998" />

<glyph glyph-name="wildcard" unicode="&#xe80a;" d="M92-149c-39 5-74 35-86 73-6 19-6-8-6 426 0 434 0 407 6 425 12 39 48 69 88 74 6 1 98 1 312 1l303 0 9-3c19-5 34-13 48-26 18-18 29-38 33-63 2-14 2-802 0-816-4-23-13-42-29-58-15-16-31-26-54-32-6-2-31-2-312-2-168 0-308 0-312 1z m614 47c20 4 38 21 45 42l3 8v402 402l-3 8c-7 21-25 37-45 42-6 1-54 1-305 1-207 0-300 0-305-1-3 0-10-3-14-5-16-7-27-20-33-37l-3-8v-402-402l3-8c7-21 25-37 45-42 9-2 602-2 612 0z m-484 93c1 1 24 42 52 92 28 49 51 90 51 91 0 0-3 6-6 13-24 41-41 86-49 126-5 21-6 38-6 59 0 25 1 39 7 59l2 9-2 8c-16 59-58 97-118 107-17 3-17 3-18-2-2-12-15-23-29-23-26 0-39 28-22 45 9 9 24 12 36 6l6-3 4 4c57 50 104 62 153 38 14-7 27-17 42-32l12-12 7 14c9 18 25 46 34 61l7 11-4 2c-17 13-13 39 8 46 7 2 20 2 25-1 6-3 12-9 14-14 4-11-1-26-12-32-1-1 1-5 9-19 6-9 17-29 24-43l13-26 11 11c39 40 78 53 120 42 22-5 44-19 71-41l10-9 6 3c24 11 50-8 43-31-2-6-9-14-16-17-7-3-18-3-25 0-9 4-17 15-17 23 0 3-1 3-17 0-48-7-86-34-106-74-5-9-11-26-13-36-1-6-1-7 1-18 6-20 7-37 6-62 0-31-4-55-13-85-9-28-23-62-39-90l-9-16 51-92c29-51 52-93 52-93 1-2-3 2-67 57-34 30-62 54-63 55 0 0 0-1 0-2 1-7 12-110 11-110 0-1-2 4-5 9-2 6-16 33-29 60l-24 49-30-59c-17-33-30-60-31-60 0 0 0 1 0 3 2 7 13 108 13 109 0 0-67-56-125-107-3-3-6-4-6-3z m190 146c25 13 64 77 84 138 10 30 15 51 17 79 1 18 0 42-2 46-2 5-12 14-19 19-10 7-21 10-33 11-17 0-27-4-38-15-8-8-13-17-17-29-2-5-4-9-4-10 0 0-1 2-2 5-3 15-15 33-27 41-17 11-43 10-61-2-8-5-16-13-20-18l-3-4 0-25c0-28 2-43 8-69 16-63 58-142 87-163 13-10 19-10 30-4z m-16 49c-21 2-40 13-48 29-3 7-5 15-3 15 0 0 2-1 4-3 6-5 18-11 24-14 25-9 47-6 73 11 5 3 10 6 10 6 1-1-3-13-6-17-10-18-32-29-54-27z m-61 127c-5 3-8 8-7 14l0 4-5-2c-3-1-6-2-7-3-2 0-2 0 0 4 3 4 8 9 14 12 8 4 20 4 28 1 6-3 12-8 14-13l2-4-2 1c-1 0-4 1-6 2-2 1-5 2-5 2 0 0-1-2-1-5 1-12-13-20-25-13z m113-1c-5 3-8 8-8 14 0 3 0 5 0 5 0 0-3-1-7-2-3-2-6-3-6-3-1 1 6 11 11 13 13 9 30 8 41-2 4-4 7-10 6-11 0 0-2 1-4 2-8 4-8 4-8-2 0-12-14-19-25-14z" horiz-adv-x="801" />

<glyph glyph-name="gun" unicode="&#xe80b;" d="M505 756c-3-1-6-1-10-1l-25-7 31-117-81-10-33 124c-40-6-79-14-117-25-45-12-85-31-119-56-13 20-38 30-62 24-31-8-49-40-40-70 4-16 13-28 26-35-26-44-35-91-23-137 15-54 57-95 116-119 9-4 18-7 28-10-140-164-159-491 123-423-18 6-32 21-38 41-8 33 11 66 44 75-10 8-17 19-20 31-8 28 5 56 29 70-6 7-12 16-14 26-8 28 5 56 28 69l0 3c-11 8-20 20-24 35-8 27 4 54 26 68 9 2 19 4 28 6 1 0 1 1 2 1 2 0 4 1 6 1 18-92 71-134 116-103-42 37-56 79-58 122 16 5 31 11 47 17l-38 143 76 29 36-134 21 5c4 3 9 5 13 7l-36 135 76 29 30-113 22 5c4 3 8 6 12 9l-30 112 73 28 23-83 1 0c11 11 20 21 28 32l-17 64 24 10 31 8c14-28 46-43 78-35 36 10 58 47 48 83-9 32-38 53-70 51-4-1-9-1-13-3-29-7-49-32-51-60l-40-11-18-2-16 58c-11 4-24 9-37 13l-4-1 20-75-78-10-27 102c-4 0-7 1-11 1l-25-7 27-100-81-10-33 120z" horiz-adv-x="1000" />

<glyph glyph-name="video" unicode="&#xe80c;" d="M214-43v72q0 14-10 25t-25 10h-72q-14 0-25-10t-11-25v-72q0-14 11-25t25-11h72q14 0 25 11t10 25z m0 214v72q0 14-10 25t-25 11h-72q-14 0-25-11t-11-25v-72q0-14 11-25t25-10h72q14 0 25 10t10 25z m0 215v71q0 15-10 25t-25 11h-72q-14 0-25-11t-11-25v-71q0-15 11-25t25-11h72q14 0 25 11t10 25z m572-429v286q0 14-11 25t-25 11h-429q-14 0-25-11t-10-25v-286q0-14 10-25t25-11h429q15 0 25 11t11 25z m-572 643v71q0 15-10 26t-25 10h-72q-14 0-25-10t-11-26v-71q0-14 11-25t25-11h72q14 0 25 11t10 25z m786-643v72q0 14-11 25t-25 10h-71q-15 0-25-10t-11-25v-72q0-14 11-25t25-11h71q15 0 25 11t11 25z m-214 429v285q0 15-11 26t-25 10h-429q-14 0-25-10t-10-26v-285q0-15 10-25t25-11h429q15 0 25 11t11 25z m214-215v72q0 14-11 25t-25 11h-71q-15 0-25-11t-11-25v-72q0-14 11-25t25-10h71q15 0 25 10t11 25z m0 215v71q0 15-11 25t-25 11h-71q-15 0-25-11t-11-25v-71q0-15 11-25t25-11h71q15 0 25 11t11 25z m0 214v71q0 15-11 26t-25 10h-71q-15 0-25-10t-11-26v-71q0-14 11-25t25-11h71q15 0 25 11t11 25z m71 89v-750q0-37-26-63t-63-26h-893q-36 0-63 26t-26 63v750q0 37 26 63t63 27h893q37 0 63-27t26-63z" horiz-adv-x="1071.4" />

<glyph glyph-name="place" unicode="&#xe80d;" d="M0-107v43h51 51v30 30h398 399v-30-30h51 50v-43-43h-500-500z m3 314v193h104 104l9-16c16-26 43-83 52-111 21-63 28-127 23-199-2-25-4-47-6-49-2-3-7-7-11-8-5-2-57-3-141-3h-134z m722-191c-9 2-14 11-16 35-7 56-2 137 11 188 13 47 39 109 63 147l9 14h104 104v-193-193l-134 0c-75 1-138 1-141 2z m-722 524v123l9-8c20-18 61-32 92-31 18 0 45 6 63 14l16 7 15-7c19-8 46-14 64-14 19 0 47 6 65 15 16 7 16 7 24 2 12-7 40-15 63-17l21-2-4-14c-19-75-91-142-194-183l-17-7h-109-108z m746-108c-99 43-164 109-179 183l-2 8 22 1c23 2 49 9 62 18 8 4 8 4 23-3 39-20 90-20 130 0 15 7 16 7 23 2 12-7 37-14 58-16 36-4 71 6 99 26l15 12v-123-122l-110 0-110 0-31 14z m-674 229c-27 7-55 26-66 45l-7 13-1 65-1 66h500 500l0-64c0-75 0-78-23-99-18-15-37-24-60-28-32-5-72 6-90 24l-7 8-12-10c-18-16-36-22-68-22-33 0-50 6-68 22l-12 10-6-7c-31-33-107-35-142-3l-11 10-7-7c-14-15-47-27-74-27-25 0-54 11-70 26l-8 7-6-5c-9-10-33-22-51-25-31-6-67 2-91 20l-11 9-12-9c-24-19-66-27-96-19z" horiz-adv-x="1000" />

<glyph glyph-name="gravity" unicode="&#xe80e;" d="M393 850c-24-1-49-5-67-21-13-17-6-40-1-59 18-51 72-90 127-83 7 3 0-8 1-12-2-5-1-15-4-17-46 22-102 23-149 2-56-24-98-79-105-140-9-64 17-126 40-185 27-65 62-130 118-175 35-28 83-42 127-30 13 5 27 3 39-1 46-9 95 6 129 37 23 21 45 44 59 72 6 19-19 41-37 28-17-14-27-35-43-49-24-25-58-44-94-38-13 1-26 8-39 9-34-15-76-14-106 10-49 36-78 93-102 148-19 46-38 93-41 143-3 53 29 108 81 126 43 17 93 8 128-22 10-8 24-10 34-1 20 18 47 22 72 28 35 5 72 7 106-4 53-20 88-77 82-133-2-34-16-66-23-99-1-19 27-34 41-18 16 20 19 47 27 71 13 57 7 122-30 169-34 44-88 69-143 69-39 1-77-4-113-15-8-6-4 4-3 8 7 40 34 74 69 94 16 12 11 41-9 45-18 4-31-11-45-20-4-2-9-10-12-9-20 43-66 73-114 72z m-2-52c35 2 69-24 74-58-34-10-74 7-88 40-2 5-5 11-5 16 6 1 13 2 19 2z m275-203c-40 1-76-39-68-78 6-40 50-68 88-54 28 9 50 39 45 70 1 34-32 62-65 62z m-1-51c15-1 22-23 8-30-12-10-31 9-22 22 3 4 9 8 14 8z m-338-15c-16-1-28-18-23-34 6-67 25-135 61-193 16-24 36-48 62-62 18-6 38 12 32 30-7 19-28 27-38 43-38 46-54 105-64 163-3 16-1 35-13 47-4 4-11 6-17 6z m-77-312c-13-1-27-12-24-26-2-44-1-88-2-130-6 13-22 23-36 16-16-6-19-28-9-40 16-29 31-59 52-84 16-14 43-7 50 13 17 28 37 56 48 88 2 22-33 36-45 16-3-3-7-14-8-11-1 49 2 97-3 145-4 8-14 13-23 13z m498-7c-14 0-28-15-24-30 0-43 0-86 0-130-6 14-21 26-37 21-15-5-21-25-11-38 14-29 31-58 49-84 14-15 41-14 51 4 17 24 30 51 45 77 6 11 9 29-4 37-12 10-32 5-39-10-6-11-1 13-3 17 0 41 0 81-1 122-7 7-15 14-26 14z m-253-88c-15 0-27-16-24-30-1-43-1-85-1-128-6 13-22 28-37 18-14-7-20-27-9-39 16-28 30-58 50-83 10-10 28-15 39-4 20 15 28 40 41 59 7 16 19 30 21 48-2 22-37 30-47 9-6-10-7-8-6 3-1 44 1 90-4 134-3 9-14 14-23 13z" horiz-adv-x="1000" />

<glyph glyph-name="pressure" unicode="&#xe80f;" d="M468-149c-37 3-61 6-90 14-56 14-106 36-157 70-51 35-98 81-132 131-35 52-60 107-75 165-9 37-13 66-14 107-2 60 8 120 27 174 12 34 33 78 56 114 19 28 33 45 62 74 40 40 58 55 97 78 79 47 168 72 255 72 100 0 192-27 276-82 106-69 181-174 212-296 17-67 20-138 8-208-19-107-75-210-156-283-85-77-188-121-302-130-15-1-55-1-67 0z m54 93c69 4 131 23 187 57 30 18 50 34 81 65 23 24 33 36 46 55 71 105 90 234 51 352-33 104-105 189-200 238-61 31-120 45-188 45-67 0-126-14-187-46-75-38-137-102-176-178-29-58-42-116-42-181 0-93 30-181 86-252 48-61 113-108 187-134 34-11 73-19 108-21 23-2 27-2 47 0z m-51 62c-37 1-69 9-109 27-67 28-127 83-165 149-9 15-31 68-32 79-1 2 0 2 54 3 31 0 72 1 92 1l36-1 1-13c2-31 15-64 34-85 26-29 50-44 80-52 11-3 14-3 39-3 24 0 27 0 38 3 16 4 35 14 48 23 13 10 32 28 40 40 7 10 15 28 20 42 4 14 4 17 5 32l1 13 90 1c49 0 90 0 91-1 2-1-7-31-17-53-32-74-94-138-168-174-24-12-54-22-80-27-20-4-64-6-98-4z m15 163c-38 6-69 35-78 73-5 16-3 35 4 55l5 13-3 10c-2 10-13 60-35 151-11 46-13 53-12 53 3 0 19-20 107-128l30-38 11-2c20-4 46-19 58-33 7-9 16-27 19-37 6-25 2-50-11-73-8-13-24-28-39-35-6-3-15-6-19-7-9-3-28-4-37-2z m-331 180l0 17 37 0 37 0-1-16 0-17-37 0-36-1 0 17z m617-16c0 1-1 8-1 17l0 16 38 0 37 0 0-16 0-17-37 0c-20 0-36 0-37 0z m-31 144c-5 6-12 18-12 21 0 2 12 10 32 22 15 9 29 16 29 16 2 0 12-15 15-21 1-3 2-6 2-6 0-1-12-8-25-16-31-18-35-21-37-21-1 0-3 2-4 5z m-500 3c-15 8-42 24-46 27l-3 2 5 10c6 10 11 17 13 17 3 0 64-36 63-37-10-18-16-25-19-25-1 0-7 3-13 6z m99 114c-13 21-26 45-26 46 0 3 25 18 27 17 1-1 23-36 30-50 3-5 5-10 5-11 0-3-7-9-25-19 0-1-6 7-11 17z m301-12c-4 2-10 6-13 8l-5 5 2 5c6 12 33 58 35 58 2 0 24-14 26-17 1-2-32-60-36-62-1-1-4 0-9 3z m-157 76l0 37 17 0 16 0 0-37 0-36-17 0-16-1 0 37z" horiz-adv-x="1000" />

<glyph glyph-name="doc-add" unicode="&#xe810;" d="M573 350q21 0 36-15t16-37-16-36-36-15l-104 0 0-105q0-22-16-37t-37-15-36 15-15 37l0 105-105 0q-21 0-36 15t-15 36 15 37 36 15l105 0 0 104q0 21 15 37t36 16 37-16 16-37l0-104 104 0z m245 245q16-16 16-36l0-521q0-65-46-111t-110-46l-522 0q-65 0-110 46t-46 111l0 625q0 65 46 110t110 46l417 0q22 0 37-15z m-110-36l-135 134 0-56q0-32 23-55t55-23l57 0z m-30-574q21 0 36 16t15 37l0 469-78 0q-53 0-92 38t-38 92l0 78-365 0q-21 0-37-15t-15-37l0-625q0-21 15-37t37-16l522 0z" horiz-adv-x="834" />

<glyph glyph-name="info-circled" unicode="&#xe811;" d="M571 82v89q0 8-5 13t-12 5h-54v286q0 8-5 13t-13 5h-178q-8 0-13-5t-5-13v-89q0-8 5-13t13-5h53v-179h-53q-8 0-13-5t-5-13v-89q0-8 5-13t13-5h250q7 0 12 5t5 13z m-71 500v89q0 8-5 13t-13 5h-107q-8 0-13-5t-5-13v-89q0-8 5-13t13-5h107q8 0 13 5t5 13z m357-232q0-117-57-215t-156-156-215-58-216 58-155 156-58 215 58 215 155 156 216 58 215-58 156-156 57-215z" horiz-adv-x="857.1" />

<glyph glyph-name="temperature" unicode="&#xe812;" d="M635 850c-29-1-57-14-75-37-12-13-18-30-23-47 0-161 0-323-1-484-75-37-128-118-127-203-1-81 46-161 117-200 47-27 103-36 156-24 81 15 150 79 173 159 18 64 9 137-31 192-22 32-52 60-87 76-1 151 1 303-1 454-1 21 0 43-12 62-17 31-53 52-89 52z m2-39c30 0 59-25 59-56 3-82 1-164 2-246 0-84 0-168 0-252 53-24 101-68 119-126 11-35 10-74 0-109-20-68-83-121-153-131-66-10-136 18-176 71-32 41-46 96-37 147 8 59 48 111 101 137 8 4 16 8 23 11 1 167-1 333 2 499 2 30 30 56 60 55z m124-60c0-12 0-24 0-36 35 0 69 0 103 1 0 12 0 25 0 37-34 0-68 1-103 1 0-1 0-2 0-3z m-483-45c-3-10-5-21-9-29-6 9-9 20-17 28-10 0-19-8-27-12-8-5-1-14 1-20 3-5 7-11 8-16-11 2-21 8-32 7-6-9-7-20-9-30-2-8 10-8 15-11 18-5 36-10 53-15 9-15 17-31 26-47-4-9-7-20-19-16-15 1-32-1-47 2-17 17-34 34-51 51-9-9-18-18-27-27 8-9 16-17 25-26-11 0-22 0-32 0 0-12 0-25 1-38 10 0 20 0 30-1-8-8-17-16-25-25 9-9 19-18 28-27 17 17 35 35 53 52 19 0 38 0 57 0 3-8 12-16 3-24-8-13-15-26-23-40-23-7-47-11-69-19-4-10 3-20 4-29 0-7 6-9 11-6 8 1 17 4 25 6-4-9-11-17-13-26 7-8 18-13 28-18 7-1 9 10 13 14 2 2 5 11 6 8 3-10 5-21 11-30 10 0 20 4 29 7 9 4 2 14 2 21-5 17-10 35-14 52 9 16 19 32 28 48 10 0 20 2 22-10 7-13 15-26 21-39-6-24-14-48-20-72 11-1 21-7 32-9 9 3 9 15 12 23 1 4 3 13 6 4 4-6 6-16 14-18 10 3 21 8 28 15 2 10-9 20-10 27 10-2 22-8 33-6 5 9 7 20 9 30 1 8-11 7-16 9-17 6-36 10-53 17-9 15-18 31-26 46 5 6 9 12 12 19 20 0 39 0 58 0 17-17 35-34 52-52 9 10 18 19 27 28-8 8-16 16-24 24 10 1 19 1 29 1 1 13 1 26 1 38-10 1-22 0-31 1 8 9 17 17 25 25-9 8-16 20-27 25-12-7-20-19-31-27-8-8-15-18-24-24-18 0-37 0-55 0-2 7-8 12-9 18 7 15 17 29 25 44 23 6 47 11 69 18 2 10-3 19-5 28-1 9-6 11-14 7-5 0-22-8-20-2 4 9 13 18 13 28-7 8-18 13-28 17-7-1-9-11-14-16-2-3-5-14-7-11-4 10-3 22-11 29-9 3-19-3-28-6-9-2-5-12-3-18 5-18 10-36 14-55-9-14-16-30-26-42-7-1-16-3-21 0-8 15-17 29-23 44 5 23 13 45 18 68-5 7-15 7-23 10-4 0-13 6-14 0z m483-51c0-12 0-24 0-36 24 0 47 0 71 1 0 12 1 25 1 38-24 0-48 0-72 0l0-2 0-1z m-143-96c0-112 0-223 0-335-43-7-84-31-107-69-14-23-23-50-21-78-2-35 13-69 35-95 25-30 63-50 103-51 30-2 60 5 85 21 42 25 69 71 71 119 1 40-13 81-42 110-22 22-52 37-82 42-5 6-1 20-2 28-1 103-1 207-2 310-13 0-25 1-38 1 0-1 0-2 0-3z m143-1c0-11 0-23 0-35 35 0 69 0 103 0 0 13 0 25 0 38-34 0-68 0-103 1 0-1 0-2 0-4z m-429-15c15 1 23-20 12-29-12-12-34 1-28 17 2 7 9 12 16 12z m429-81c0-12 0-24 0-35 24 0 48 0 72 0 0 13 0 26 0 39-24 0-48 0-72 0l0-2 0-2z m0-96c0-12 0-24 0-36 35 1 69 1 103 1 0 13 0 25 0 38-34 0-68 0-103 1 0-1 0-3 0-4z m-124-180c48 1 94-34 104-81 12-44-7-95-46-119-22-14-51-19-77-15-48 9-88 51-89 100-3 28 7 56 26 78 20 23 50 38 82 37z" horiz-adv-x="1000" />

<glyph glyph-name="ali" unicode="&#xe813;" d="M500 599c-39 0-72-32-72-72 0-39 33-71 72-71s72 32 72 71c0 40-32 72-72 72z m384-506v50c30 13 51 43 51 77 0 46-38 83-83 83-10 0-19-2-28-4l-122 69c34 44 55 99 55 159 0 142-115 257-257 257s-257-115-257-257c0-60 21-115 55-159l-122-69c-9 2-18 4-27 4-46 0-84-37-84-83 0-34 21-64 51-77v-50c-66-15-116-74-116-145v-32h297v32c0 71-50 130-116 145v50c30 13 51 43 51 77 0 11-3 22-7 32l122 69c35-26 76-43 120-49v-179c-66-15-115-74-115-145v-32h297v32c0 71-50 130-116 145v179c44 6 85 23 120 49l122-69c-4-10-7-21-7-32 0-34 21-64 51-77v-50c-66-15-116-74-116-145v-32h297v32c0 71-50 130-116 145z m-384 298c-75 0-137 61-137 136 0 76 62 137 137 137 75 0 137-61 137-137 0-75-62-136-137-136z" horiz-adv-x="1000" />

<glyph glyph-name="sleeve" unicode="&#xe814;" d="M255 814c-39 0-71-19-93-47-22-28-34-66-34-106 0-35 9-70 25-98-21-8-40-22-54-39-19-23-32-53-41-85-18-64-20-141-20-210v-18h82l20-303 1-17h228l1 17 19 303h82v18c0 69-2 146-20 210-8 32-21 62-41 85-14 17-32 31-54 39 16 28 25 63 25 98 0 40-12 78-33 106-22 28-55 47-93 47z m483 0c-38 0-71-19-93-47-22-28-33-66-33-106 0-35 8-70 24-98-21-8-39-22-53-39-20-23-33-53-42-85-17-64-20-141-20-210v-18h83l19-303 1-17h227l2 17 23 303h78v18c0 69-2 146-19 210-9 32-22 62-42 85-14 17-32 31-53 39 15 28 24 63 24 98 0 40-11 78-33 106-22 28-55 47-93 47z m-483-36c27 0 48-12 64-33 16-21 26-51 26-84 0-36-14-75-32-97l-19-23 30-6c25-5 43-16 58-34 12-15 22-34 29-56l-25-198h-29l-24 190-39-319-41 319-36-304-40 304-23-190h-33l-25 193c8 24 18 45 31 61 15 18 33 29 58 34l31 6-20 24c-18 21-31 60-31 96 0 33 10 63 26 84 16 21 37 33 64 33z m640-333c1-5 3-10 4-16 15-52 18-119 19-182l-49 0 26 198z m-235-8l39-304 38 304 40-319 39 319 25-199 0-8-23-302h-160l-19 302-1 17h-1l23 190z m-82-1l25-189h-45c1 63 4 130 18 182 1 2 2 5 2 7z" horiz-adv-x="1000" />

<glyph glyph-name="rename" unicode="&#xe815;" d="M355-144c-17 8-25 32-17 50 8 21 25 27 76 27h44v417 417h-44c-24 0-50 2-57 5-29 14-29 59 0 72 18 8 267 8 285 0 29-13 29-58 0-72-7-3-33-5-57-5h-44v-417-417h44c24 0 50-3 57-6 29-13 29-58 0-71-17-8-271-8-287 0z m-239 170c-38 13-67 34-85 63-31 46-32 58-30 272l1 195 14 29c17 37 45 65 82 82 28 13 32 14 153 15l123 2v-334-333l-115 0c-98 0-121 1-143 9z m508 324v334l124-2c121-1 125-2 153-15 37-17 65-45 82-82l14-29v-206-206l-14-29c-17-37-45-65-82-82-28-14-32-14-153-16l-124-1z" horiz-adv-x="997" />

<glyph glyph-name="handout" unicode="&#xe816;" d="M100 804l-13-33 157-62 12 32-156 63z m800 0l-156-63 12-32 157 62-13 33z m-400-3c-57 0-98-27-126-67-29-39-44-91-44-134 0-25 14-54 28-76s30-36 30-36l2-3 19-55h36l-65 229 120-40 120 40-65-229h36l19 55 3 3s14 14 29 36c14 22 28 51 28 76 0 43-15 95-44 134-28 40-69 67-126 67z m250-183v-36h188v36h-188z m-687-1v-35h187v35h-187z m369-13l50-174h36l50 174-68-23-68 23z m324-113l-12-32 156-63 13 33-157 62z m-512 0l-157-62 13-33 156 62-12 33z m180-96v-27h152v27h-152z m0-63v-27h152v27h-152z m-92-5c-53-1-102-9-130-21l-144-402c139 28 281 51 424 2v364h-93v55c-16 2-32 2-47 2h-10z m326 0c-15 0-31 0-47-2v-55h-93v-364c143 49 285 26 424-2l-144 402c-27 12-77 20-130 21h-10z" horiz-adv-x="1000" />

<glyph glyph-name="monster" unicode="&#xe817;" d="M456 807c-27 0-55-6-84-17 59-2 129-16 166-61 17-21 23-53 20-86 4-4 8-7 11-11 8-7 15-15 20-24 5 1 10 3 15 4 9 1 19 2 29 2 6 0 12 0 18-1 20 98-72 193-189 194-2 0-4 0-6 0z m-59-142c-31-1-59-9-77-28-20-19-25-46-21-76 0 0 0 0 0-1 7-24 19-44 36-57 18-14 43-22 80-20 47 2 86-10 114-32 15 9 31 17 49 22 13 46 2 97-35 134-26 26-71 48-114 55-11 2-22 3-32 3z m-131-52c-72-6-127-32-151-113-15-51-17-96-72-83 27-43 69-43 101 1 4 61 47 118 118 151-1 15 0 30 4 44z m367-36c-8 0-15 0-22-1-2-1-3-1-4-1 12-29 15-61 10-91l5-5c4 0 7 0 11 0 28-1 54-9 78-22 12 16 29 27 47 32-8 32-29 56-56 71-22 11-47 17-69 17z m217-30c-21 0-44-6-68-19 6-11 10-24 13-37 10-1 20-5 30-10 1-1 1-1 2-2 61 21 99-14 137-80-8 92-53 148-114 148z m-579-15c-67-33-97-86-89-139 13-93 106-174 249-157 79 9 113 64 111 116-1 25-12 50-32 67-20 18-50 30-93 27-43-2-78 8-104 28-20 15-33 35-42 58z m510-76c-1 0-2 0-4 0-13-1-27-8-36-19 25-21 45-49 55-82 12 4 23 12 30 24 14 25 6 56-19 70-8 5-17 7-26 7z m-155-13c-12 0-25-2-37-5-12-4-24-8-34-14 14-21 22-46 23-71 2-25-5-52-18-75 29-16 48-46 48-81 0-24-9-46-23-62 30-16 63-23 89-16 36 10 64 43 80 85 16 43 20 95 10 133-17 62-71 103-132 106-2 0-4 0-6 0z m206-110c-8-6-18-10-28-13 3-24 3-48-1-73 49-26 60-54 44-107-32-108 38-164 107-127-64 19-55 53-40 113 24 102-10 159-82 207z m-666-9c-11-4-22-11-31-20-31-31-31-82 0-113 5-5 11-10 16-13 20 29 41 57 68 79-22 19-40 42-53 67z m372-76c-19-20-45-36-77-44-1-2-1-5-1-7 0-31 25-56 56-56 31 0 56 25 56 56 0 23-14 43-34 51z m-271-22c-13-70 17-121 57-142 25-13 55-15 84 0 17 8 33 22 48 43-20 17-32 42-32 70v1l-1 0c-59-4-112 6-156 28z m-37-9c-23-22-42-49-61-79-37-71-35-161 40-218 62-47 151-43 195-10 39 28 49 89 14 134 8-31-9-81-37-96-31-17-74-15-110 25-42 46-37 84-7 115-26 32-40 77-34 129z m330-110c-23-85 32-181 154-187-62 33-100 99-91 162-22 4-43 13-63 25z" horiz-adv-x="1000" />

<glyph glyph-name="qrcode" unicode="&#xe818;" d="M214 207v-71h-71v71h71z m0 429v-72h-71v72h71z m429 0v-72h-72v72h72z m-572-571h215v214h-215v-214z m0 428h215v214h-215v-214z m429 0h214v214h-214v-214z m-143-143v-357h-357v357h357z m286-286v-71h-72v71h72z m143 0v-71h-72v71h72z m0 286v-214h-215v71h-71v-214h-71v357h214v-71h71v71h72z m-429 429v-358h-357v358h357z m429 0v-358h-357v358h357z" horiz-adv-x="785.7" />

<glyph glyph-name="search" unicode="&#xe819;" d="M643 386q0 103-73 176t-177 74-177-74-73-176 73-177 177-73 177 73 73 177z m286-465q0-29-22-50t-50-21q-30 0-50 21l-191 191q-100-69-223-69-80 0-153 31t-125 84-84 125-31 153 31 152 84 126 125 84 153 31 153-31 125-84 84-126 31-152q0-123-69-223l191-191q21-21 21-51z" horiz-adv-x="928.6" />

<glyph glyph-name="help-circled" unicode="&#xe81a;" d="M500 82v107q0 8-5 13t-13 5h-107q-8 0-13-5t-5-13v-107q0-8 5-13t13-5h107q8 0 13 5t5 13z m143 375q0 49-31 91t-77 65-95 23q-136 0-207-119-9-13 4-24l74-55q4-4 10-4 9 0 14 7 30 38 48 51 19 14 48 14 27 0 48-15t21-33q0-21-11-34t-38-25q-35-15-65-48t-29-70v-20q0-8 5-13t13-5h107q8 0 13 5t5 13q0 10 12 27t30 28q18 10 28 16t25 19 25 27 16 34 7 45z m214-107q0-117-57-215t-156-156-215-58-216 58-155 156-58 215 58 215 155 156 216 58 215-58 156-156 57-215z" horiz-adv-x="857.1" />

<glyph glyph-name="picture" unicode="&#xe81b;" d="M357 529q0-45-31-76t-76-32-76 32-31 76 31 76 76 31 76-31 31-76z m572-215v-250h-786v107l178 179 90-89 285 285z m53 393h-893q-7 0-12-5t-6-13v-678q0-7 6-13t12-5h893q7 0 13 5t5 13v678q0 8-5 13t-13 5z m89-18v-678q0-37-26-63t-63-27h-893q-36 0-63 27t-26 63v678q0 37 26 63t63 27h893q37 0 63-27t26-63z" horiz-adv-x="1071.4" />

<glyph glyph-name="download" unicode="&#xe81c;" d="M714 100q0 15-10 25t-25 11-25-11-11-25 11-25 25-11 25 11 10 25z m143 0q0 15-10 25t-26 11-25-11-10-25 10-25 25-11 26 11 10 25z m72 125v-179q0-22-16-37t-38-16h-821q-23 0-38 16t-16 37v179q0 22 16 38t38 16h259l75-76q33-32 76-32t76 32l76 76h259q22 0 38-16t16-38z m-182 318q10-23-8-39l-250-250q-10-11-25-11t-25 11l-250 250q-17 16-8 39 10 21 33 21h143v250q0 15 11 25t25 11h143q14 0 25-11t10-25v-250h143q24 0 33-21z" horiz-adv-x="928.6" />

<glyph glyph-name="hexagon" unicode="&#xe81f;" d="M86-56c-3 2-5 5-6 6-4 5-21 35-42 72-10 18-23 39-28 48-14 24-14 25 4 55 8 14 26 45 40 70 16 27 28 46 31 48 4 4 6 4 86 4 57 0 82 0 85-1 9-4 5 2 61-95 25-44 29-51 29-57 0-6-5-15-41-76-31-54-41-71-45-73-4-3-9-3-87-3-74 0-84 0-87 2z m590 1c-3 1-7 7-11 13-8 13-24 42-52 91-28 48-28 44-8 78 7 12 21 36 30 51 31 55 36 62 40 65 5 4 6 4 85 4 51 0 81 0 85-1 8-2 11-6 22-25 5-9 15-27 23-41 8-14 22-38 30-52 13-22 16-28 16-34 0-7 0-6-36-69-44-76-45-78-50-81-4-2-17-2-87-2-75 0-83 0-87 3z m-296 171c-5 3-9 10-65 108-10 18-19 35-20 37-1 7 2 14 19 42 6 11 23 40 37 64 14 25 27 45 29 47 4 3 7 3 86 3 78 1 83 1 88-2 6-3 6-3 62-100 24-42 25-45 25-52-1-5-6-16-27-51-14-25-32-55-39-68-8-15-16-25-19-28l-5-4h-83-82z m-296 172c-4 3-22 32-44 72-32 54-39 68-40 74 0 8-6-2 73 133 12 22 3 20 98 21 56 0 82 0 85-2 7-2 11-8 23-29 6-10 20-34 31-53 37-65 36-62 36-69 0-7-4-14-35-68-19-33-38-64-40-69-10-16-3-15-99-15l-83-1-5 6z m592-3c-4 3-8 8-16 23-7 11-22 37-34 58-38 66-36 62-35 71 0 6 7 18 37 71 20 35 39 66 41 69 7 10 11 11 48 11 18 0 33-1 33-1 0-1-3-7-6-12l-6-11-24 0-25 0-26-45c-14-25-31-54-37-64l-11-20 20-35c11-18 27-47 37-63l17-30h74 75l11 20 12 21h14 14l-17-30c-12-21-18-30-21-33-5-2-10-2-87-2-76 0-83 0-88 2z m133 77c-3 2-7 6-9 10-3 4-9 15-15 24-5 10-20 36-33 58-13 22-25 43-26 47-6 13-11 3 60 126 9 17 19 31 21 33 5 4 7 4 87 4 72 0 82 0 87-2 6-3 8-5 17-21 3-6 20-36 38-66 29-51 32-57 32-63 0-7-2-11-17-38-16-26-25-43-56-97-12-19-4-18-100-18-78 0-81 0-86 3z m-428 94c-3 2-8 7-11 14-17 29-56 97-65 112-8 13-10 17-10 23 0 8-3 2 65 120 13 22 17 28 22 30 5 3 10 3 88 3 80 0 82-1 86-4 4-3 13-18 67-111 23-40 22-37 6-65-6-11-24-42-40-69-21-37-30-50-34-53l-5-3-82 0c-78 0-82 0-87 3z m169 35c4 7 18 30 29 50 12 20 25 43 29 50l8 14-4 7c-2 4-13 24-25 44-11 20-26 46-33 57l-12 21-74 0-74 0-10-18c-6-9-23-38-37-64l-27-47 19-33c11-19 24-42 29-51 6-9 14-23 18-30l8-14 74 0 74 0 8 14z" horiz-adv-x="1068" />

<glyph glyph-name="dead" unicode="&#xe820;" d="M831 807c-18-1-37-12-48-38-22-53-62-116-114-183 21-17 39-37 54-59 68 52 134 91 191 111 87 29 24 136-69 69 53 54 22 100-14 100z m-667 0c-36-1-73-47-32-98-70 66-134-26-59-60 54-25 122-69 193-125 16 24 36 46 58 64-52 70-94 136-121 192-8 19-23 27-39 27z m331-195c-131 0-237-106-237-237 0-87 47-163 117-204v-111h37v93c10-4 21-7 31-9v-84h37v79c5-1 10-1 15-1 6 0 11 0 16 1v-79h36v84c11 2 21 5 32 9v-93h36v110c70 41 117 118 117 205 0 131-106 237-237 237z m-130-172c39 0 70-32 70-71s-31-70-70-70-71 31-71 70 32 71 71 71z m261 0c38 0 70-32 70-71s-32-70-70-70c-39 0-71 31-71 70s32 71 71 71z m-131-103l59-94h-117l58 94z m-209-137c-79-64-154-115-214-142-74-34-10-125 60-60-59-72 42-135 71-71 30 63 80 140 142 220-22 14-42 32-59 53z m416-4c-16-18-34-34-54-48 62-77 111-150 135-210 34-80 140-19 62 62 93-67 156 40 69 70-63 21-136 67-212 126z" horiz-adv-x="1000" />

<glyph glyph-name="token" unicode="&#xe821;" d="M375 773c-94-13-84-115-83-148l183-27c2 70 11 117 27 149 4 9 9 17 14 23z m209-5c-2 0-4 0-6-1-18-1-31-8-45-35-13-28-23-77-23-158l0-11-11-5c-98-41-161-77-196-108-35-30-42-51-38-66 4-16 21-32 50-46 28-14 66-24 103-31l22-3-162-377 234 63 100 220 100-169 222 60-170 278 21 7c29 10 62 25 89 42 26 17 45 37 49 52 3 8 2 14-2 22-3 8-12 18-27 28-31 21-90 44-183 64l-13 3-1 14c-1 25-13 69-34 104-18 29-41 51-72 53a75 75 0 0 1-7 0z m-333-171c-155-87-168-107-169-140-5-79 83-91 175-117-12 12-23 20-26 36-8 31 9 66 49 101 34 28 85 59 158 93z m-69-278c-44-94-75-201-115-301l171-84 35 70 111 259z m434-185l-30-68 85-24z" horiz-adv-x="1000" />

<glyph glyph-name="stopwatch" unicode="&#xe822;" d="M337 850v-88h304v88h-304z m162-130c-240 0-435-195-435-435 0-240 195-435 435-435 241 0 435 195 435 435 0 240-194 435-435 435z m0-76c199 0 360-161 360-359 0-198-161-360-360-360-198 0-359 162-359 360 0 198 161 359 359 359z m162-43l-154-228c23-3 44-13 59-30l95 258z m-181-2v-97c6 1 13 1 19 1 7 0 14 0 20-1v97h-39z m-189-78l-28-28 68-68c9 10 18 19 29 28l-69 68z m416 0l-68-68c10-9 20-18 28-28l68 68z m-209-173c-4 0-8 0-13-1-36-8-59-43-51-79 7-36 42-59 78-51 36 8 59 42 52 78-7 32-35 53-66 53z m-313-43v-40h97c-1 7-1 13-1 20 0 7 0 13 1 20h-97z m532 0c1-7 1-13 1-20 0-7 0-13-1-20h96v40h-96z m-128-15c3-22-4-44-16-61l263-41-247 102z m-258-145l-68-68 28-28 69 68c-11 9-20 18-29 28z m336 0c-8-10-18-19-28-28l68-68 28 28-68 68z m-187-78v-96h39v96c-6 0-13 0-20 0-6 0-13 0-19 0z" horiz-adv-x="999" />

<glyph glyph-name="loveletter" unicode="&#xe828;" d="M22-149c-8 2-16 9-20 17-2 5-2 6-2 286l0 281 3 7c3 6 5 8 20 20 9 8 16 14 17 15 1 1 6 5 12 10l11 9 0 95 0 95 2 5c3 7 10 13 17 16 5 2 7 2 118 2l113 0 5 4c2 3 10 10 17 16 7 6 19 16 26 22 7 6 14 11 15 12 1 1 5 4 8 7 4 3 17 14 29 25 60 51 61 52 66 53 6 2 15 3 20 1 6-2 11-6 42-31 15-12 35-28 44-36 19-15 46-37 57-46 4-4 13-11 20-16l12-11 120 0 120 0 6-2c7-3 12-9 15-16l3-5 0-96 0-95 3-3c2-2 15-12 28-23 22-18 25-20 28-27l3-7 0-281 0-281-2-5c-3-7-8-12-15-15l-4-3-477 0c-263 0-478 0-480 1z m916 288v228l-8-6c-43-30-89-64-92-66-4-3-32-23-51-36-5-4-13-10-19-14-34-25-66-48-68-49-4-2-116-83-129-92-38-28-56-40-60-42-5-2-16-2-21 0-4 2-15 9-48 33-11 8-22 16-25 18-4 3-29 20-73 52-3 2-7 5-9 6-2 2-10 7-17 13-16 11-36 26-45 32-7 5-28 20-87 62-20 14-38 28-41 30-3 2-8 6-11 8-3 2-9 6-12 8-3 3-17 12-31 22-13 10-25 18-26 19-2 2-2 0-2-225l0-228h437 438z m-397 21c22 15 41 30 44 31 2 2 10 8 17 13 7 5 17 12 21 15 11 8 12 8 45 32 15 11 30 22 33 24 2 1 10 7 17 12 13 10 23 17 33 24 3 2 8 5 10 7 11 8 45 32 49 35 3 2 12 9 21 15 9 6 19 13 22 15 3 3 9 7 14 11l8 6v123 124h-375-375v-124-123l28-21c16-11 32-22 36-25 4-3 15-11 24-18 10-6 34-24 55-39 60-43 72-51 80-57 5-3 11-8 13-9 7-5 27-19 46-33 9-7 18-13 19-14 4-2 27-19 52-37 12-9 22-16 22-16 0 0 19 13 41 29z m-53 96c-51 34-88 65-115 97-7 8-18 22-18 23 0 0-2 3-5 8-11 15-20 38-24 58-3 14-2 38 2 50 8 23 20 40 40 53 17 12 35 17 56 16 14-1 21-3 34-9 12-6 29-20 39-33l3-4 3 4c15 19 33 32 54 39 11 4 36 4 48 0 35-10 62-39 70-74 2-10 2-32-1-43-4-26-19-54-41-82-16-21-52-54-83-77-12-9-44-31-48-33-2-1-4 0-14 7z m84 454c0 1-4 4-8 8-5 3-8 6-9 7-1 1-12 10-18 15-6 5-13 11-39 31l-8 7-17-15c-38-33-51-43-55-47-3-3-6-5-6-6 0 0 35-1 81-1 44 1 80 1 79 1z" horiz-adv-x="1000" />

<glyph glyph-name="extra" unicode="&#xe829;" d="M498 809c-61 0-114-64-114-147 0-83 53-146 114-146 61 0 114 63 114 146s-53 147-114 147z m-63-102h36v-89h-36v89z m85 0h37v-89h-37v89z m86-172c-27-34-65-56-108-56-42 0-79 20-105 52-22-8-40-23-55-43-18-27-32-62-42-103-10-39-15-81-18-125 15-7 28-19 38-32 13-18 22-39 28-62 7 22 16 42 28 60 10 13 23 25 38 33-9 19-14 41-14 63 0 68 44 126 104 126 60 0 105-58 105-126 0-21-4-41-13-59 18-8 32-21 43-35 14-19 23-41 29-64 7 23 16 44 29 62 9 12 19 22 32 30-2 46-6 91-15 131-9 41-23 77-42 103-16 22-36 37-62 45z m-430-123c-32 0-62-31-67-75h47v-36h-46c7-40 35-68 66-68 30 0 58 28 66 68h-50v36h51c-6 44-35 75-67 75z m324 0c-32 0-61-31-67-75h47v-36h-46c6-30 23-54 45-63-13-1-24-3-34-5l0 0 0 0c-18-3-31-13-43-29-12-16-21-38-27-65-11-46-14-104-14-155h46v100h36v-201h121v201h37v-100h43c-1 52-1 110-12 157-5 26-14 49-26 65-12 16-26 25-46 29l-1 0 0 0c-10 2-22 3-35 4 20 10 37 32 43 62h-50v36h51c-6 44-36 75-68 75z m325 0c-32 0-62-31-68-75h48v-36h-47c8-40 36-68 67-68 30 0 58 28 66 68h-50v36h51c-6 44-36 75-67 75z m-576-179c-18-23-44-37-73-37-27 0-51 12-69 31-10-5-18-12-25-23-12-16-21-38-27-65-12-46-14-104-15-155h46v100h36v-201h121v201h37v-100h44c0 52-1 110-11 157-6 26-15 49-26 65-10 13-22 22-38 27z m647-2c-18-21-43-35-71-35-29 0-53 13-72 34-12-5-22-13-30-26-12-16-21-38-27-65-12-46-14-104-15-155h45v100h37v-201h121v201h36v-100h44c0 52-1 110-11 157-5 26-14 49-26 65-8 12-18 20-31 25z" horiz-adv-x="1000" />

<glyph glyph-name="namebook" unicode="&#xe82a;" d="M887 834h-597v-968h597c63 0 113 51 113 113v742c0 62-50 113-113 113z m-219-710l-27 89h-120l-27-89h-127l157 452h114l156-452h-126z m-571 710v-175h-49c-26 0-48-22-48-49s22-48 48-48h49v-161h-49c-26 0-48-22-48-49s22-48 48-48h49v-161h-49c-26 0-48-22-48-49s22-48 48-48h49v-180h97v968h-97z" horiz-adv-x="1000" />

<glyph glyph-name="select-list" unicode="&#xe82c;" d="M164 721c-9 10-25 10-35 1-10-10-10-26 0-36l60-60c4-5 11-7 18-7l0 0c6 0 12 2 17 7l182 181c10 10 10 26 1 36-10 10-26 10-36 0l-55-55c-29 30-70 48-113 48-87 0-157-71-157-158s70-157 157-157c70 0 130 45 151 112 4 13-4 27-17 31-13 4-27-3-31-17-14-44-56-76-103-76-59 0-107 48-107 107s48 107 107 107c29 0 57-12 77-33l-73-73-43 42z m39-221c-87 0-157-70-157-157s70-157 157-157 157 70 157 157-70 157-157 157z m0-264c-59 0-107 48-107 107s48 107 107 107 107-48 107-107-48-107-107-107z m157-229c0 87-70 158-157 158s-157-71-157-158 70-157 157-157 157 70 157 157z m-157-107c-59 0-107 48-107 107s48 107 107 107 107-48 107-107-48-107-107-107z m726 468h-489c-13 0-25-11-25-25s12-25 25-25h489c14 0 25 11 25 25s-11 25-25 25z m0 335h-489c-13 0-25-11-25-25s12-25 25-25h489c14 0 25 11 25 25s-11 25-25 25z m0-671h-489c-13 0-25-11-25-25s12-25 25-25h489c14 0 25 11 25 25 0 14-11 25-25 25z" horiz-adv-x="1000" />

<glyph glyph-name="spin3" unicode="&#xe832;" d="M494 850c-266 0-483-210-494-472-1-19 13-20 13-20l84 0c16 0 19 10 19 18 10 199 176 358 378 358 107 0 205-45 273-118l-58-57c-11-12-11-27 5-31l247-50c21-5 46 11 37 44l-58 227c-2 9-16 22-29 13l-65-60c-89 91-214 148-352 148z m409-508c-16 0-19-10-19-18-10-199-176-358-377-358-108 0-205 45-274 118l59 57c10 12 10 27-5 31l-248 50c-21 5-46-11-37-44l58-227c2-9 16-22 30-13l64 60c89-91 214-148 353-148 265 0 482 210 493 473 1 18-13 19-13 19l-84 0z" horiz-adv-x="1000" />

<glyph glyph-name="simulspace" unicode="&#xe833;" d="M417 850c-24 0-43-19-64-29-111-66-223-131-334-198-11-11-21-25-18-41 0-150-2-299 0-448 1-18-2-42 15-53 85-55 173-104 260-156 42-24 82-50 125-72 16-6 34-2 48 8 123 71 245 143 366 217 9 7 17 18 20 29-1 163 0 326-1 488-6 15-16 28-31 35-121 73-243 146-366 215-6 4-13 5-20 5z m-20-194c0-48 0-96 0-144-20 11-44 8-64-2-16-2-34 2-47-10-16-10-22-29-21-47-4-14-13-27-10-41 1-25 21-50 47-51 22 7 41 23 61 33 11 6 23 14 34 19 1-22 0-45 0-68-119-69-237-138-356-208 0 84-1 168 0 252 11-6 25-11 38-4 46 23 90 51 134 77 10 6 25 11 24 25 1 19 1 39-12 54-14 19-38 30-62 28-14-1-23 13-37 14-30 8-63-10-73-39-3-5-1-14-8-16-8-6-3 9-5 13 1 16-1 33 3 48 29 22 62 37 93 56 87 52 174 103 261 154 0-47 0-95 0-143z m213 42c60-36 122-71 181-108 7-12 1-28 3-42 1-107 0-215 0-323-19 54-36 108-57 161-11 19-38 21-54 9-23-13-44-30-67-41-11 23-17 48-30 70-13 15-38 14-53 3-32-18-63-38-94-56-1 142-1 285 0 428 57-34 114-67 171-101z m-56-80c-38 0-67-44-55-79 9-27 37-47 66-42 30 1 54 29 54 59 2 32-27 63-60 61-1 1-3 1-5 1z m6-41c19-1 26-30 8-38-16-10-38 10-29 27 4 7 13 12 21 11z m-447-33c16 1 19-22 36-20 12 2 25 8 36 0 8-5 15-18 11-26-44-25-87-51-131-75-21 7-31 36-18 55 7 14 24 15 36 22 15 11 1 35 19 43 4 1 7 1 11 1z m254-66c11 1 21-9 22-20-29-19-59-37-90-53-10 11 1 22 8 30 9 10-8 26 4 33 10 2 19-9 29-4 10 2 16 15 27 14z m190-86c8-20 17-41 24-62-10-7-23-18-17-31 5-11 20-16 30-9 38 23 73 48 110 70 25-71 49-141 73-212-106 61-213 124-318 186 31 21 64 41 98 58z m-138-84c114-64 227-131 340-198 4-4 23-9 10-13-19-12-39-24-59-35-120 69-240 139-360 209 23 12 44 28 69 37z m69-165c60-35 122-70 180-105-44-29-90-55-136-81-120 69-240 139-359 210 15 9 31 20 47 27 21-9 39-25 61-31 19-2 28 26 12 35-10 8-22 14-33 21 17 9 33 19 50 28 59-34 119-69 178-104z m-141 21c-17-1-25-28-10-37 23-13 45-29 69-39 17-5 33 20 19 33-23 15-48 31-73 42-2 1-3 1-5 1z m-215-22c121-69 240-139 359-210-25-14-48-30-74-41-63 33-122 71-184 106-58 35-116 69-175 103 24 15 49 30 74 42z m338-50c-18 0-26-30-8-37 23-14 45-30 70-40 13 1 26 14 20 27-7 15-25 20-37 28-15 8-29 18-45 22z" horiz-adv-x="835" />

<glyph glyph-name="movie-roll" unicode="&#xe834;" d="M404-87c-62 6-111 20-160 44-23 12-28 15-50 29-26 18-43 32-64 53-57 57-98 128-117 204-17 71-17 144 0 215 15 60 43 116 83 166 53 67 124 117 206 143 61 20 135 27 196 18 68-10 130-33 184-70 24-16 42-30 64-52 35-34 64-74 86-118 31-63 45-124 45-195 0-41-3-70-13-107-14-55-33-97-71-152-6-9-32-39-44-51-13-13-42-38-51-44-57-39-95-57-153-71-42-11-104-16-141-12z m63 65c56 18 83 83 54 135-7 13-24 30-37 37-44 24-99 9-125-33-10-17-13-28-13-49 0-15 0-20 4-30 10-29 33-51 61-59 6-2 13-4 16-5 9-1 29 1 40 4z m-244 142c29 10 50 31 61 60 5 16 5 41 0 58-15 46-64 74-109 63-44-11-71-43-74-87-4-66 60-115 122-94z m488 0c17 5 38 19 47 32 29 40 25 92-10 125-18 17-48 29-71 26-38-4-67-26-82-61-4-10-4-12-4-33 0-20 0-22 4-32 13-31 34-50 67-59 13-4 33-3 49 2z m-492 281c29 8 55 32 65 62 5 16 5 42 0 57-6 15-12 25-22 36-11 12-23 19-39 25-21 7-39 6-61-2-37-13-61-48-61-88 0-24 11-51 28-67 24-23 58-31 90-23z m482-2c61 13 93 78 67 133-7 14-13 22-22 30-17 13-29 19-48 22-13 3-22 2-36-1-32-8-55-29-67-59-5-13-7-39-4-52 8-31 31-58 58-68 20-7 34-8 52-5z m-235 144c29 8 55 35 64 66 4 14 3 35-1 50-9 30-32 53-63 64-15 5-38 5-54 0-30-10-52-31-62-60-6-16-6-42-2-56 11-33 33-55 65-64 17-5 34-5 53 0z m219-631c0 1 7 5 15 10 42 26 91 67 121 104l9 10 87 0 87 0v-63-62h-160c-88 0-159 0-159 1z" horiz-adv-x="1003" />

<glyph glyph-name="newchild" unicode="&#xe836;" d="M700-149c-34 4-68 20-94 44-20 20-36 47-41 72l-2 6h-219-219v282 283h-63-62v156 156h156 156v-156-156h-62-63l0-63 0-62 186-1 186 0v63 63h157 156v-157-156h-156-157v63 62h-186-186l0-156 0-155 189 0 189-1 3 10c14 64 65 106 133 112 29 3 61-3 88-16 28-14 53-39 66-67 26-50 20-117-13-164-9-12-24-27-35-34-20-14-42-23-61-27-10-2-35-3-46-1z m47 93v31h31 32v31 31h-32-31v32 31h-31-31v-31-32h-32-31v-31-31l31 0 32 0 0-31 0-31h31 31z" horiz-adv-x="872" />

<glyph glyph-name="rgbcolor" unicode="&#xe837;" d="M371 421c-27-14-52-32-73-53-33-33-56-71-70-114 19-4 38-6 58-6 25 0 50 4 75 10 30 8 58 21 83 37-33 37-57 80-73 126z m332-53c-22 22-47 39-74 53-15-46-40-89-72-126 24-16 52-29 82-37 25-6 50-10 75-10 20 0 39 3 58 7-13 42-37 80-69 113z m-203 83c-20 0-39-2-58-5 12-38 32-72 58-102 26 30 46 64 59 102-19 3-39 5-59 5z m63 158c-12 44-34 84-63 117-29-33-51-73-63-117-8-30-11-60-9-90 23 5 47 7 72 7 25 0 49-2 72-7 2 30-1 60-9 90z m399 69c-39 66-101 114-174 134-25 6-50 9-75 9-57 0-111-17-156-47 36-41 63-90 78-146 12-44 15-89 10-132 41-18 78-43 110-76 41-40 70-88 88-141 71 36 126 101 147 182 20 74 10 151-28 217z m-176-497c-23-5-48-7-72-7-32 0-63 4-94 12-44 12-85 32-120 58-35-26-75-46-120-58-31-8-62-12-94-12-24 0-48 2-72 7 0-5 0-11 0-16 0-77 30-148 84-203 54-54 126-83 202-83 77 0 149 29 203 84 54 54 84 126 84 202 0 5-1 11-1 16z m-343 593c-45 30-99 47-156 47-25 0-50-3-75-10-152-40-243-198-202-350 21-81 76-146 147-182 18 53 47 101 88 141 32 33 69 58 110 76-5 43-2 88 10 132 15 56 42 105 78 146z" horiz-adv-x="1000" />

<glyph glyph-name="runmap" unicode="&#xe83c;" d="M241 679c-21 0-42-3-64-11 87-37 170-117 251-212l85 56c-86 99-179 166-272 167z m540-18l-471-313c-29-19-56-23-80-21-17 2-33 8-45 14-6-16-5-30 0-39 6-11 20-19 50-15l32 4-19-25c-39-50-62-149 10-238 15-18 33-26 52-27 18-1 38 4 54 14 16 10 27 23 32 36 4 13 2 23-11 36-21 20-42 42-53 68 33 22 61 42 77 67 8 13 13 28 13 43-1 16-7 32-18 49 135 97 283 185 421 281z m-188-250l-84-55c38-49 75-98 113-146-21-17-41-25-53-23l-3-27c28-2 58 14 87 43 31 32 64 40 93 35 29-5 55-23 70-48 16-25 20-54 7-83-13-28-44-56-104-74l8-26c65 20 103 53 120 89 17 37 11 77-8 108-19 31-51 54-89 61-18 3-38 1-57-5-32 52-65 103-100 151z m-210-113c8-14 11-25 12-34 0-10-2-19-8-28-11-17-33-34-63-54 0 3-1 6-1 9-1 34 16 69 60 107z m317-93c-10-4-19-10-29-19 12-37 51-88 86-110 12 7 21 15 28 23-13 37-53 85-85 106z m89 645l-578 0-288-500 288-500 578 0 7 13 281 487z m-31-54l257-446-257-446-516 0-257 446 257 446z" horiz-adv-x="1000" />

<glyph glyph-name="archive" unicode="&#xe840;" d="M69-98c-13 3-25 15-30 28-2 6-10 72-22 184-18 168-19 175-16 185 5 14 17 27 31 31 10 3 67 3 468 3 401 0 458 0 468-3 14-4 26-17 31-31 3-10 2-17-16-185-12-112-20-178-22-184-2-6-7-13-12-18-16-15 18-14-450-14-362 1-422 1-430 4z m649 135c10 7 16 17 16 27 0 11-21 82-26 89-13 16-41 17-53 1-8-10-10-20-5-36 2-7 4-15 4-16 1-2-31-3-154-3-123 0-155 1-154 3 0 1 3 9 5 16 4 16 2 26-6 36-12 16-40 15-53-1-5-7-26-78-26-89 0-10 6-20 16-27l8-5h210 211z m-588 539c36 115 66 212 67 215 1 3 5 7 7 8 8 3 584 3 592 0 2-1 6-5 7-8 1-3 31-100 67-215l64-209h-33-33l-50 150-50 150h-268-268l-50-150-50-150h-33-33z m77-184c4 14 8 29 9 34l2 8h282 282l2-8c1-5 6-20 9-34l7-25h-300-300z m21 77c0 2 11 42 16 61 1 4 15 4 256 4 241 0 255 0 256-4 5-19 16-59 16-61 0-1-68-2-272-2-204 0-272 1-272 2z m27 100c0 2 4 16 9 33 4 16 8 31 8 31 0 1 103 1 228 1 125 0 228 0 228-1 0 0 4-15 8-31 5-17 9-31 9-33 0-1-83-2-245-2-162 0-245 1-245 2z" horiz-adv-x="1000" />

<glyph glyph-name="pin" unicode="&#xe841;" d="M268 368v250q0 8-5 13t-13 5-13-5-5-13v-250q0-8 5-13t13-5 13 5 5 13z m375-197q0-14-11-25t-25-10h-239l-29-270q-1-7-6-11t-11-5h-1q-15 0-17 15l-43 271h-225q-15 0-25 10t-11 25q0 69 44 124t99 55v286q-29 0-50 21t-22 50 22 50 50 22h357q29 0 50-22t21-50-21-50-50-21v-286q55 0 99-55t44-124z" horiz-adv-x="642.9" />

<glyph glyph-name="randomize" unicode="&#xe859;" d="M447-147c-4 1-88 49-188 106-195 113-194 112-208 140l-7 14 0 201c-1 141 0 204 1 210 4 12 12 17 24 15 6 0 57-29 158-87 82-47 164-95 183-105 37-22 50-33 60-54l7-14 1-204c0-152 0-206-2-211-3-7-14-14-20-14-2 0-6 1-9 3z m-176 209l0 37-27 15c-14 9-30 18-34 20l-8 5v-37-37l33-20c18-10 34-19 35-19 1 0 1 16 1 36z m4 91c1 1 12 7 24 13 24 11 33 19 37 34 5 13 2 44-4 61-16 42-57 81-110 106-17 8-50 19-58 19-2 0-3-8-3-32l0-32 17 0c55-1 102-42 88-76-3-8-7-10-29-21-30-14-34-19-34-41l0-15 34-20 33-19 2 10c1 6 2 11 3 13z m259-300c-13 6-13 1-12 221l1 203 7 15c4 9 12 20 17 26 6 5 31 22 62 40 30 16 112 64 183 105 86 50 133 76 139 76 12 2 20-3 23-15 2-6 3-70 2-210l0-201-8-16c-5-10-12-20-20-26-15-14-369-218-380-220-5 0-11 0-14 2z m218 179l25 14v37 37l-11-6c-5-3-21-12-35-20l-24-14v-37-37l10 6c6 3 21 12 35 20z m-9 99l32 19 2 12c2 16 4 21 25 53 34 56 43 79 41 110-1 21-7 32-20 38-8 4-11 4-24 2-30-5-71-29-112-65l-21-18 0-32 0-32 31 31c38 38 58 49 71 40 4-3 5-6 5-15 0-15-8-31-30-66-25-39-34-59-36-79 0-9 0-17 1-17 1 0 17 9 35 19z m-258 229c-8 1-17 4-22 6-4 2-81 46-170 98-89 52-172 99-184 106-11 7-24 15-28 19-9 9-9 20 0 30 8 10 378 223 393 228 16 4 39 4 54-1 9-4 290-164 371-213 21-13 28-21 25-33-2-10-10-16-63-47-27-15-111-64-187-107-75-44-141-81-146-83-14-4-27-5-43-3z m157 167c21 11 38 22 39 23 2 1-57 36-62 36-2 0-71-39-75-42-3-2 4-7 27-20 17-10 32-17 33-18 1 0 18 10 38 21z m-90 52l40 22-9 7c-10 8-11 16-5 38 9 34 1 52-30 66-19 9-36 12-62 10-55-3-123-35-170-79l-18-17 27-15c15-9 28-16 28-16 1 0 6 6 11 14 26 37 73 63 103 56 23-5 27-15 20-46-5-23-4-38 2-46 4-4 20-16 23-16 0 0 18 10 40 22z" horiz-adv-x="1000" />

<glyph glyph-name="duplicate" unicode="&#xf0c5;" d="M946 636q23 0 38-16t16-38v-678q0-23-16-38t-38-16h-535q-23 0-38 16t-16 38v160h-303q-23 0-38 16t-16 38v375q0 22 11 49t27 42l228 228q15 16 42 27t49 11h232q23 0 38-16t16-38v-183q38 23 71 23h232z m-303-119l-167-167h167v167z m-357 214l-167-167h167v167z m109-361l176 176v233h-214v-233q0-22-15-37t-38-16h-233v-357h286v143q0 22 11 49t27 42z m534-449v643h-215v-232q0-22-15-38t-38-15h-232v-358h500z" horiz-adv-x="1000" />

<glyph glyph-name="menu" unicode="&#xf0c9;" d="M857 100v-71q0-15-10-25t-26-11h-785q-15 0-25 11t-11 25v71q0 15 11 25t25 11h785q15 0 26-11t10-25z m0 286v-72q0-14-10-25t-26-10h-785q-15 0-25 10t-11 25v72q0 14 11 25t25 10h785q15 0 26-10t10-25z m0 285v-71q0-14-10-25t-26-11h-785q-15 0-25 11t-11 25v71q0 15 11 26t25 10h785q15 0 26-10t10-26z" horiz-adv-x="857.1" />

<glyph glyph-name="screen" unicode="&#xf108;" d="M1000 296v465q0 7-5 12t-13 6h-893q-7 0-12-6t-6-12v-465q0-7 6-12t12-5h893q7 0 13 5t5 12z m71 465v-607q0-37-26-63t-63-27h-303q0-20 9-43t17-40 9-24q0-14-10-25t-25-11h-286q-15 0-25 11t-11 25q0 8 9 25t18 39 9 43h-304q-36 0-63 27t-26 63v607q0 37 26 63t63 26h893q37 0 63-26t26-63z" horiz-adv-x="1071.4" />

<glyph glyph-name="angle-circled-up" unicode="&#xf139;" d="M650 214l57 57q11 11 11 25t-11 26l-253 253q-11 11-25 11t-25-11l-254-253q-10-11-10-26t10-25l57-57q11-10 25-10t25 10l172 172 171-172q11-10 25-10t25 10z m207 136q0-117-57-215t-156-156-215-58-216 58-155 156-58 215 58 215 155 156 216 58 215-58 156-156 57-215z" horiz-adv-x="857.1" />

<glyph glyph-name="angle-circled-down" unicode="&#xf13a;" d="M454 125l253 254q11 10 11 25t-11 25l-57 57q-10 10-25 10t-25-10l-171-172-172 172q-10 10-25 10t-25-10l-57-57q-10-11-10-25t10-25l254-254q10-10 25-10t25 10z m403 225q0-117-57-215t-156-156-215-58-216 58-155 156-58 215 58 215 155 156 216 58 215-58 156-156 57-215z" horiz-adv-x="857.1" />

<glyph glyph-name="male" unicode="&#xf183;" d="M571 457v-232q0-22-15-38t-38-16-38 16-16 38v196h-35v-509q0-25-19-44t-44-18-44 18-18 44v259h-36v-259q0-25-19-44t-44-18-44 18-18 44v509h-36v-196q0-22-15-38t-38-16-38 16-16 38v232q0 45 31 76t76 31h357q45 0 76-31t31-76z m-160 250q0-52-37-88t-88-37-89 37-36 88 36 89 89 36 88-36 37-89z" horiz-adv-x="571.4" />

<glyph glyph-name="database" unicode="&#xf1c0;" d="M429 421q132 0 247 24t181 71v-95q0-38-57-71t-157-52-214-19-215 19-156 52-58 71v95q66-47 181-71t248-24z m0-428q132 0 247 24t181 71v-95q0-39-57-72t-157-52-214-19-215 19-156 52-58 72v95q66-47 181-71t248-24z m0 214q132 0 247 24t181 71v-95q0-38-57-71t-157-52-214-20-215 20-156 52-58 71v95q66-47 181-71t248-24z m0 643q116 0 214-19t157-52 57-72v-71q0-39-57-72t-157-52-214-19-215 19-156 52-58 72v71q0 39 58 72t156 52 215 19z" horiz-adv-x="857.1" />

<glyph glyph-name="file-pdf" unicode="&#xf1c1;" d="M819 638q16-16 27-42t11-50v-642q0-23-15-38t-38-16h-750q-23 0-38 16t-16 38v892q0 23 16 38t38 16h500q22 0 49-11t42-27z m-248 136v-210h210q-5 17-12 23l-175 175q-6 7-23 12z m215-853v572h-232q-23 0-38 16t-16 37v233h-429v-858h715z m-287 331q18-14 47-31 33 4 65 4 82 0 99-27 9-13 1-29 0-1-1-1l-1-2v0q-3-21-39-21-27 0-64 11t-73 29q-123-13-219-46-85-146-135-146-8 0-15 4l-14 7q0 0-3 2-6 6-4 20 5 23 32 51t73 54q8 5 13-3 1-1 1-2 29 47 60 110 38 76 58 146-13 46-17 89t4 71q6 22 23 22h12q13 0 20-8 10-12 5-38-1-3-2-4 0-2 0-5v-17q-1-68-8-107 31-91 82-133z m-321-229q29 13 76 88-29-22-49-47t-27-41z m222 513q-9-23-2-73 1 4 4 24 0 2 4 24 1 3 3 5-1 0-1 1-1 1-1 2 0 12-7 20 0-1 0-1v-2z m-70-368q76 30 159 45-1 0-7 5t-9 8q-43 37-71 98-15-48-46-110-17-31-26-46z m361 9q-13 13-78 13 42-16 69-16 8 0 10 1 0 0-1 2z" horiz-adv-x="857.1" />

<glyph glyph-name="heartbeat" unicode="&#xf21e;" d="M714 279h171q-3-4-6-6t-5-4l-2-3-347-335q-10-10-25-10t-25 10l-348 336q-3 2-11 12h205q13 0 23 7t12 19l39 157 106-372q4-11 13-18t22-8q11 0 21 8t13 18l81 271 32-63q10-19 31-19z m286 238q0-80-57-167h-206l-62 123q-5 10-15 15t-20 5q-25-3-31-26l-72-240-109 383q-4 11-14 19t-22 7-21-8-13-19l-64-259h-236q-58 87-58 167 0 123 71 192t196 70q34 0 70-12t67-33 54-38 42-38q20 20 42 38t54 38 67 33 70 12q125 0 196-70t71-192z" horiz-adv-x="1000" />

<glyph glyph-name="user-plus" unicode="&#xf234;" d="M393 350q-89 0-152 63t-62 151 62 152 152 63 151-63 63-152-63-151-151-63z m536-71h196q7 0 13-6t5-12v-107q0-8-5-13t-13-5h-196v-197q0-7-6-12t-12-6h-107q-8 0-13 6t-5 12v197h-197q-7 0-12 5t-6 13v107q0 7 6 12t12 6h197v196q0 7 5 13t13 5h107q7 0 12-5t6-13v-196z m-411-125q0-29 21-51t50-21h143v-133q-38-28-95-28h-488q-67 0-108 39t-41 106q0 30 2 58t8 61 15 60 24 55 34 45 48 30 62 11q11 0 22-10 44-34 86-51t92-17 92 17 86 51q11 10 22 10 73 0 121-54h-125q-29 0-50-21t-21-50v-107z" horiz-adv-x="1142.9" />

<glyph glyph-name="profile" unicode="&#xf2bc;" d="M571 219q0-36-20-60t-51-23h-286q-30 0-50 23t-21 60 5 65 16 58 34 43 54 16q4-2 17-10t21-12 20-9 24-9 23-2 24 2 24 9 19 9 21 12 17 10q32 0 54-16t34-43 16-58 5-65z m-87 290q0-52-37-89t-90-38-89 38-37 89 37 90 89 37 90-37 37-90z m516-248v-36q0-8-5-13t-13-5h-321q-8 0-13 5t-5 13v36q0 8 5 13t13 5h321q8 0 13-5t5-13z m0 140v-31q0-8-6-14t-14-6h-317q-8 0-14 6t-6 14v31q0 9 6 15t14 5h317q8 0 14-5t6-15z m0 145v-35q0-8-5-13t-13-5h-321q-8 0-13 5t-5 13v35q0 8 5 13t13 5h321q8 0 13-5t5-13z m71-535v678q0 8-5 13t-12 5h-965q-7 0-12-5t-6-13v-678q0-7 6-13t12-5h197v53q0 8 5 13t13 5h35q8 0 13-5t5-13v-53h429v53q0 8 5 13t13 5h35q8 0 13-5t5-13v-53h197q7 0 12 5t5 13z m72 678v-678q0-37-26-63t-63-27h-965q-36 0-63 27t-26 63v678q0 37 26 63t63 27h965q36 0 63-27t26-63z" horiz-adv-x="1142.9" />

<glyph glyph-name="user-circle" unicode="&#xf2bd;" d="M850 103q-12 86-49 144t-103 66q-37-42-89-65t-109-23-109 23-89 65q-66-9-103-66t-49-144q59-84 151-133t199-49 199 49 151 133z m-136 390q0 89-62 151t-152 63-151-63-63-151 63-152 151-62 152 62 62 152z m286-143q0-102-40-194t-106-160-159-106-195-40q-102 0-194 40t-160 106-106 160-40 194 40 194 106 160 160 106 194 40 194-40 160-106 106-160 40-194z" horiz-adv-x="1000" />

<glyph glyph-name="eye" unicode="&#x1f527;" d="M929 314q-85 132-213 197 34-58 34-125 0-103-73-177t-177-73-177 73-73 177q0 67 34 125-128-65-213-197 75-114 187-182t242-68 243 68 186 182z m-402 215q0 11-8 19t-19 7q-70 0-120-50t-50-119q0-11 8-19t19-8 19 8 8 19q0 48 34 82t82 34q11 0 19 8t8 19z m473-215q0-19-11-38-78-129-210-206t-279-77-279 77-210 206q-11 19-11 38t11 39q78 128 210 205t279 78 279-78 210-205q11-20 11-39z" horiz-adv-x="1000" />
</font>
</defs>
</svg>
